<?xml version="1.0" standalone="no"?>
<!DOCTYPE svg PUBLIC "-//W3C//DTD SVG 1.1//EN" "http://www.w3.org/Graphics/SVG/1.1/DTD/svg11.dtd" >
<svg xmlns="http://www.w3.org/2000/svg">
<metadata></metadata>
<defs>
<font id="blockupregular" horiz-adv-x="1513" >
<font-face units-per-em="2048" ascent="1638" descent="-410" />
<missing-glyph horiz-adv-x="819" />
<glyph horiz-adv-x="2048" />
<glyph horiz-adv-x="2048" />
<glyph unicode="&#xd;" horiz-adv-x="819" />
<glyph unicode=" "  horiz-adv-x="819" />
<glyph unicode="&#x09;" horiz-adv-x="819" />
<glyph unicode="&#xa0;" horiz-adv-x="819" />
<glyph unicode="!" horiz-adv-x="925" d="M-10 -10v348l139 141h-139v602l397 398h442v-605l-129 -126h134v-359l-402 -399h-442zM10 10h402v314h-402v-314zM10 500h408v567h-408v-567zM25 344h393l385 385h-121l-250 -250h-274zM25 1087h397l373 371h-400z" />
<glyph unicode="&#x22;" horiz-adv-x="1345" d="M-10 229v871l377 375h354v-205l-178 -178v-662l-199 -201h-354zM10 250h320v835h-320v-835zM25 1106h309l352 348h-313zM522 229v871l375 375h356v-867l-376 -379h-355zM522 229v871l375 375h356v-867l-376 -379h-355zM543 250h319v835h-319v-835zM543 250h319v835h-319 v-835zM557 1106h309l348 348h-309zM557 1106h309l348 348h-309z" />
<glyph unicode="#" horiz-adv-x="1533" d="M-8 373v223l215 215v59h-215v236l158 156h206l217 217h246v-168l168 168h242v-514h211v-224l-215 -213v-166l-369 -368l-244 2v164l-163 -164l-242 -2v379h-215zM12 393h215v-379l209 2v377h197v-377l209 -2v379h215v189h-213v311h213v199h-1045v-201h215v-309h-215v-189 zM27 604h180v178zM27 1112h1036l129 129h-215l217 217h-199l-219 -219h-211l219 219h-202l-217 -217h-209zM436 584v305h197v-305h-197zM471 604h141v141zM879 602h182l344 342h-182z" />
<glyph unicode="$" horiz-adv-x="1511" d="M-10 -16v395l151 153h92v86l132 132h198v137h-573v217l375 375h444l215 215h362v-215h33v-1119l-133 -133h-86v-88l-156 -155h-61v-13l-344 -346h-360v359h-289zM10 4h289v-358h326v358h405v1086h-1020v-183h574v-542h-574v-361zM23 385h540v127h-411zM25 1110h1011 l129 129h-594l117 117h592l102 102h-247l215 215h-318l-215 -215h-444zM254 532h309v72h-309v-72zM266 625h297v104h-190zM702 1260h498v-1012h74v1087h-572v-75z" />
<glyph unicode="%" horiz-adv-x="2273" d="M-10 424v684l370 371h637l2 -301l299 303h459l-198 -441h622v-673l-373 -373h-639v299l-295 -295l-464 -4l198 430h-618zM10 444h604v650h-243v-453h-129v453h-232v-650zM25 1114h223l246 246h135l-244 -246h236l342 344h-594zM281 662h69v69zM442 14h418l500 1080h-418z M506 1266l76 73h-76v-73zM961 1114h411l344 346h-409zM1190 14h604v639l-246 2v-452h-127v452h-231v-641zM1204 676h223l248 248h137l-247 -248l235 -2l344 346h-596zM1456 223h72v72zM1690 829l73 74h-73v-74z" />
<glyph unicode="&#x26;" horiz-adv-x="1550" d="M-10 -4v1110l90 92l158 49v111l120 121h1100v-1114l-127 -127h-160v-88l-155 -156zM10 16l991 -2v897h74v181h-530v-181h80v-546h-197l-2 727h-414zM25 1112h407l246 246h643l102 100h-1056l-105 -104l90 -92l-260 -82zM256 1251l59 21l-59 59v-80zM463 385h141v143z M559 1112h522l123 125h-520zM690 1257h549v-215l-68 -67v-717h146v1079h-627v-80z" />
<glyph unicode="'" horiz-adv-x="813" d="M-10 229v871l375 375h356v-867l-377 -379h-354zM10 250h320v835h-320v-835zM25 1106h309l348 348h-309z" />
<glyph unicode="(" horiz-adv-x="1021" d="M-10 -14v1335l370 371h570v-1694l-373 -373h-207zM10 -4l350 -350h183v352h-234v1309h-299v-1311zM25 1327h290l242 244h236l98 100h-520zM344 18h205l223 222h-209zM567 1550l2 -1290h217v1290h-219z" />
<glyph unicode=")" horiz-adv-x="1019" d="M-8 16l231 232v1317l127 127h578v-1346l-723 -721h-211zM10 2v-356h187l348 348v1315h-301v-1307h-234zM25 23h198v196zM244 1343l207 207h-207v-207zM258 1329h293l342 342h-533l-100 -100h242z" />
<glyph unicode="*" horiz-adv-x="1550" d="M-16 680l374 373h166l-2 18l-2 -4l389 389l131 -403h433l-324 -320l102 -330l-372 -372l-336 243l-355 -256l136 416zM25 692h381l110 340h-147zM31 672l315 -230l-119 -370l316 229l315 -229l-121 370l316 230h-391l-119 370l-121 -370h-391zM694 692h385l342 340h-383z " />
<glyph unicode="+" horiz-adv-x="1564" d="M-10 375v352l749 752h348v-377h386v-350l-756 -758h-350v381h-377zM10 395h377v-381h315v381h381v318h-381v381h-315v-381h-377v-318zM23 733h346l-2 346zM401 1114h308l346 344l-307 2zM735 733h355l348 348h-355z" />
<glyph unicode="," horiz-adv-x="915" d="M-10 -6v352l395 397h438v-352l-624 -622l2 227zM10 14l211 2l-2 -198l193 190l-2 324h-400v-318zM25 352h391l370 371h-393z" />
<glyph unicode="-" horiz-adv-x="1064" d="M-10 565v350l372 371h611v-354l-371 -367h-612zM10 586h578v315h-578v-315zM25 922h569l346 344h-569z" />
<glyph unicode="." horiz-adv-x="915" d="M-10 -4v348l401 401h432v-348l-401 -401h-432zM10 16h398v314h-398v-314zM25 350h389l374 375h-389z" />
<glyph unicode="/" horiz-adv-x="1417" d="M-16 -6l518 1116l370 371h467l-516 -1108l-377 -379h-2h-460zM16 14h418l500 1080h-418zM537 1114l409 2l344 344h-409z" />
<glyph unicode="0" horiz-adv-x="1511" d="M-10 -8v1116l372 371h1057v-1114l-370 -371zM10 12h1022v1082l-395 -2l2 -754h-209v754h-420v-1080zM27 1112h411l238 240h215l-240 -240l387 2l346 344h-1013zM465 358h153v152zM690 1178l152 153h-152v-153z" />
<glyph unicode="1" horiz-adv-x="915" d="M-10 -6v1110l377 375h456v-1108l-377 -377h-456zM10 14h422v1076h-422v-1076zM25 1110h411l350 348h-411z" />
<glyph unicode="2" horiz-adv-x="1515" d="M-10 -6v1112l153 154h88v88l131 131h1059v-215l-370 -373h-443v-324h621v-395l-178 -178h-1061zM10 14h1026v357h-624l2 540h622v181h-1026v-1078zM25 1112h1015l346 346h-1015l-103 -104h588l-117 -115h-585zM252 1260h479l76 75l-555 -2v-73zM449 391h591l154 156h-592 z" />
<glyph unicode="3" horiz-adv-x="1374" d="M-10 -6v397l358 359h121v141h-479v215l153 154h95v88l129 131h915v-1117l-369 -368h-923zM10 14h883v1078h-883v-181h479v-540h-479v-357zM20 391h449v338h-111zM25 1112h874l346 346h-868l-105 -104h451l-117 -115h-452zM258 1260h340l74 73h-414v-73z" />
<glyph unicode="4" horiz-adv-x="1658" d="M-10 373v733l372 373h439v-166l166 166h456v-508h144v-228l-146 -145v-233l-370 -371h-459v379h-602zM10 391l602 2v-379h424v379h144v191h-144v508h-424v-508h-198v508h-404v-701zM25 1112h395l346 346h-395zM451 604h141v141zM629 1112h413l347 346h-414zM1073 604h113 l344 346h-113z" />
<glyph unicode="5" horiz-adv-x="1476" d="M-10 -6v391l153 156h64v57l158 160l104 -2v135h-479v215l375 373h1019v-1114l-127 -127h-372l-244 -244h-651zM10 14h623l371 371v707h-994v-181h479v-540h-479v-357zM25 391h442v129h-313zM25 1112h985l129 127h-574l117 115h567l103 104h-979zM227 541h240v47h-240v-47 zM244 608h225v127h-100zM696 1260h478v-738l-269 -264l338 -2l2 1077h-549v-73z" />
<glyph unicode="6" horiz-adv-x="1527" d="M-10 -14v1118l375 375h1071v-1119l-129 -129h-93v-90l-153 -155h-1071zM10 6h1037l-3 1084h-1034v-1084zM25 1110h1028l129 129h-613l117 115h612l107 104h-1032zM416 365v542h200v-542h-200zM455 385h141v141zM700 1260h514v-1008h78v1081h-592v-73z" />
<glyph unicode="7" horiz-adv-x="1120" d="M-8 238v1110l129 131h907v-1110l-373 -375h-456v244h-207zM10 258h189v848l229 227h-418v-1075zM25 1354h450l-242 -242h412l346 346h-864zM219 14h420v1078h-420v-1078z" />
<glyph unicode="8" horiz-adv-x="1515" d="M-10 -6v969l514 516h778v-148h141v-966l-368 -371h-1065zM10 14h1028v930h-145v148h-743l2 -146h-142v-932zM25 967h106v104zM166 1112h733l346 346h-735zM422 352v539h196v-539h-196zM457 373h141v141zM578 1239l114 115h174l-114 -115h-174zM707 1260h36l74 73h-110 v-73zM928 965h116l347 346h-115z" />
<glyph unicode="9" horiz-adv-x="1515" d="M-10 371v735l372 373h1061l-2 -1112l-370 -373h-459v379zM10 393h602v-379h424v1078h-424v-508h-198v508h-404v-699zM25 1112h397l244 244h204l-241 -244h413l347 346h-1018zM451 604h141v139zM680 1192l143 143h-143v-143z" />
<glyph unicode=":" horiz-adv-x="915" d="M-10 -4v348l237 240l189 -2l166 163h241v-346l-401 -403h-432zM-10 561v348l401 402h432v-348l-401 -402h-432zM10 16h398v316l-398 -2v-314zM10 582h398v313h-398v-313zM25 350l389 2l372 373h-196l-168 -166l-186 2zM25 915h389l374 375h-389z" />
<glyph unicode=";" horiz-adv-x="915" d="M-10 -6v350l237 238h187l166 163h243v-352l-624 -622v225zM-10 561v348l401 402h432v-348l-401 -402h-432zM10 14l211 2l-2 -196l193 192l-2 318l-400 2v-318zM10 582h398v313h-398v-313zM25 350l389 2l374 373h-202l-166 -166h-184zM25 915h389l374 375h-389z" />
<glyph unicode="&#x3c;" horiz-adv-x="1067" d="M-10 526v211l987 985v-389l-270 -268l270 -272v-359l-447 -448zM14 537l504 -504v321l-278 279l278 276v322l-504 -504v-190zM274 633l258 -258l416 416l-258 258z" />
<glyph unicode="=" horiz-adv-x="1570" d="M-10 197v249l219 222h-219v250l372 372h1115l2 -252l-222 -221l222 2v-252l-371 -370h-1118zM10 217h1084v217l-1084 -2v-215zM10 688h1084v215h-1084v-215zM25 453l1075 2l344 344h-199l-135 -133h-872zM25 924h1073l344 346l-1071 -2z" />
<glyph unicode="&#x3e;" horiz-adv-x="1064" d="M-12 -23v388l268 268l-268 268v359l444 448l543 -543v-200zM12 35l504 504v186l-504 506v-322l277 -276l-277 -279v-319zM16 1260l512 -512l416 415l-510 512z" />
<glyph unicode="?" d="M-10 -6v352l137 137h-137v623l155 154h86v88l134 131h1056v-215l-370 -373h-217l-142 -141h127v-361l-397 -395h-432zM10 14h398v318h-398v-318zM10 504h404v407h622v181h-1026v-588zM25 352h389l374 375l-116 2l-244 -246h-270zM25 1112h1015l346 346h-1015l-103 -104 h580l-113 -115h-583zM252 1260h473l74 73h-547v-73z" />
<glyph unicode="@" horiz-adv-x="1443" d="M-10 221v885l372 373h990v-736l-117 -116h117v-236l-400 -397h-733zM10 229l215 -215h715v201h-729v877h-201v-863zM25 1112h194l242 242h536l-114 -113l-351 -2l-129 -127h568l346 346h-948zM246 236h700l371 370h-100l-238 -233h-596zM391 393h574v699h-574v-699z M475 1333l2 -121l47 48l350 2l76 71h-475zM584 584v307h194l2 -307h-196zM618 604h142v139z" />
<glyph unicode="A" d="M-10 -6v967l514 518h774v-148h143v-966l-370 -371h-453v160l-162 -160h-446zM10 14h410v897h198v-897h416v930h-141v148h-743l2 -146h-142v-932zM25 967h106v104zM166 1112h733l346 346h-733zM578 1239l116 117l176 -2l-116 -115h-176zM707 1260h36l78 73h-114v-73z M926 965h114l346 346h-114z" />
<glyph unicode="B" d="M-10 -6v1112l372 373h918v-144h141v-968l-370 -373h-1061zM10 14h1026v934h-143v144h-883v-1078zM25 1112h874l346 346h-874zM414 371v538h196v-538h-196zM451 391h141v141zM567 1243l117 117l176 -2l-119 -115h-174zM694 1264h43l74 73l-117 2v-75zM928 969h114l344 346 h-112z" />
<glyph unicode="C" horiz-adv-x="1339" d="M-10 358v750l370 371h887v-1117l-366 -368h-527zM10 367l355 -353h501l-2 359l-454 -2v723h-400v-727zM25 1114h391l250 244h448l98 100h-841zM451 391l419 2l224 221h-420zM678 635h430v702h-428z" />
<glyph unicode="D" horiz-adv-x="1378" d="M-10 -6v1112l370 373h781l145 -148v-956l-381 -381h-915zM10 14h887l139 140v938h-424v-721h-198v721h-404v-1078zM25 1112h395l244 244h206l-241 -244h413l215 219l-122 127h-764zM451 391h141v141zM682 1192l143 143h-143v-143z" />
<glyph unicode="E" horiz-adv-x="1370" d="M-10 -6v1112l372 373h916v-1114l-371 -371h-917zM10 14h883v357h-479v540h483v181h-887v-1078zM25 1112h878l127 127h-463l115 115h459l102 104h-872zM449 391h450l221 221l-450 2zM676 633h457v700h-437v-73h371v-213l-156 -156h-235v-258z" />
<glyph unicode="F" horiz-adv-x="1376" d="M-10 -6v1112l372 373h922v-1110l-131 -129l4 8v-12h-487l-242 -242h-438zM10 14h404v897h479v181h-883v-1078zM25 1112h874l125 127h-459l117 115h461l102 104h-874zM676 256h461v1077h-441v-73h365v-216l-156 -153h-229v-635z" />
<glyph unicode="G" horiz-adv-x="1550" d="M-10 -6v1112l372 373h1096v-1114l-127 -127h-129v-88l-153 -156h-1059zM10 14h1024l-2 897h43v181h-450v-727h-199v727h-416v-1078zM25 1112h407l246 246h645l102 100h-1052zM463 387h141v141zM641 1112h442l125 127h-440zM692 1192l68 68h485v-213l-43 -43v-746h115 v1079h-623z" />
<glyph unicode="H" horiz-adv-x="1511" d="M-10 -4v1110l372 373h416l2 -164l162 164h479l-2 -1112l-370 -373h-465l-2 160l-160 -160h-8zM10 14h393v895h199v-895h430v1078h-1022v-1078zM25 1112h1013l344 346h-432l-243 -244h-211l243 244h-368z" />
<glyph unicode="I" horiz-adv-x="915" d="M-10 -6v1110l377 375h456v-1108l-377 -377h-456zM10 14h422v1076h-422v-1076zM25 1110h411l350 348h-411z" />
<glyph unicode="J" horiz-adv-x="1374" d="M-10 -6v414l375 374h88v324l370 371h459v-1108l-375 -375h-917zM10 14h883v1078h-420v-697l-463 -2v-379zM25 414h428v348h-80zM487 1112h412l346 344h-414z" />
<glyph unicode="K" horiz-adv-x="1511" d="M-10 1106l372 373h416v-162l162 162h338v-144h141v-968l-372 -373h-443v162l-162 -162h-450zM10 14h416v897h199v-897h407v934h-143v144h-879v-1078zM25 1112h870l342 346h-289l-243 -244h-205l243 244h-372zM924 969h114l344 346h-112z" />
<glyph unicode="L" horiz-adv-x="1372" d="M-10 -8v1114l372 373h455v-699h463v-415l-373 -373h-917zM10 12h883v379h-461v701h-422v-1080zM25 1112h413l344 346h-411zM465 412h434l346 348h-434z" />
<glyph unicode="M" horiz-adv-x="2101" d="M-10 -2v1110l375 373l1644 -2v-1108l-373 -373h-428v180l-180 -180h-428v182l-182 -182h-428zM10 18h393v1076h-393v-1076zM25 1114h385l239 240h225l-239 -240h383l244 244h227l-246 -244h383l348 344l-1605 2zM621 18l391 -2v1078h-391v-1076zM664 1169l163 164h-163 v-164zM1229 16l393 2v1076h-393v-1078zM1278 1176l160 161h-160v-161z" />
<glyph unicode="N" horiz-adv-x="1492" d="M-10 -6v1112l372 373h1039l-2 -1112l-373 -373h-428v176l-180 -176h-428zM10 14h389v1078h-389v-1078zM25 1112h381l241 242h227l-241 -242h385l348 346h-995zM621 14h391v1078h-391v-1078zM664 1169l163 164h-163v-164z" />
<glyph unicode="O" horiz-adv-x="1511" d="M-10 -8v1116l372 371h1057v-1114l-370 -371zM10 12h1022v1082l-395 -2l2 -754h-209v754h-420v-1080zM27 1112h411l238 240h215l-240 -240l387 2l346 344h-1013zM465 358h153v152zM690 1178l152 153h-152v-153z" />
<glyph unicode="P" horiz-adv-x="1515" d="M-10 -6v1112l375 373h1056v-457l-370 -373h-230v-282l-372 -373h-459zM10 14h424v656h602v422h-424v-232h-180v232h-422v-1078zM25 1112h413l244 244h188l-241 -244h413l347 346h-1018zM469 881h123v123zM696 1208l125 127h-125v-127z" />
<glyph unicode="Q" horiz-adv-x="1767" d="M-10 -6v1114l370 371h1055v-723h260v-394l-368 -368h-1317zM10 14h1282v359h-260v721l-403 2v-754h-199v754l-420 -2v-1080zM25 1114l411 2l244 244l209 2l-246 -246h395l342 342h-1011zM465 362h145v144zM694 1196l148 145h-148v-145zM1067 393h229l344 342h-231z" />
<glyph unicode="R" horiz-adv-x="1519" d="M-10 -6v1112l372 373h922v-146h143l-2 -962l-374 -377h-451v162l-160 -162h-450zM10 14h412v877h199v-877l415 2v930h-139v146h-887v-1078zM25 1112h878l346 346h-878zM584 1239l110 115h176l-114 -115h-172zM711 1260h37l73 73h-110v-73zM932 967h110l349 346h-113z" />
<glyph unicode="S" horiz-adv-x="1501" d="M-10 -6v393l153 152h88v86l134 131h233v135h-608v215l372 373h1047v-1112l-131 -131h-88v-86l-154 -156h-1046zM10 14h1012v1078h-1012v-181h608v-538h-608v-359zM25 391l573 2v125h-446zM25 1112h1003l129 127h-592l115 115h592l102 104h-1003zM252 539h346v71h-346v-71 zM268 631h332v104h-229zM694 1260h498v-1004h74v1077h-572v-73z" />
<glyph unicode="T" horiz-adv-x="1116" d="M-10 -6v1317l166 168h868v-1114l-166 -164h-207l-205 -207h-456zM10 14h422v1078h-422v-1078zM10 1126l170 170h-170v-170zM25 1112h413l205 205h205l141 141h-825l-139 -141l206 2zM657 221h187v1075h-187v-1075z" />
<glyph unicode="U" horiz-adv-x="1509" d="M-10 -6v1114l370 373l457 -2l-2 -162l164 164h438v-1123l-364 -364h-1063zM10 14h1022v1080h-403l2 -754h-201v754h-420v-1080zM25 1114h411l346 346h-411zM465 360h145v144zM643 1114h393l346 346h-393z" />
<glyph unicode="V" horiz-adv-x="1490" d="M-10 375v731l372 373h426v-183l183 183l428 2v-1112l-373 -373l-655 -2zM10 383l367 -369l635 2v1078l-391 -2v-754h-218v754h-393v-709zM25 1112h385l344 346h-383zM438 358h162v162zM635 1112l383 2l346 346l-383 -2z" />
<glyph unicode="W" horiz-adv-x="2103" d="M-10 375v731l372 373l426 -2v-181l183 183l428 -2v-179l182 181h430v-1108l-375 -377h-1265zM10 383l367 -369l1245 2v1078h-393v-754h-217v752h-391v-754h-218v754h-393v-709zM25 1112h385l344 346h-383zM438 358h162v162zM635 1112h383l346 346h-385zM1047 360h161v162 zM1243 1112l379 2l346 346l-379 -2z" />
<glyph unicode="X" horiz-adv-x="1515" d="M-10 -6v969l518 518h328l-2 -135l131 133h315v-146h141l2 -964l-374 -375h-451v160l-162 -160h-446zM10 14h410v897h198v-897h414v932h-139v146h-741v-146h-142v-932zM25 967h106l-2 104zM170 1112h729l346 346h-272q-141 -139 -217 -219h-178l221 221h-281zM928 967h110 l348 346h-112z" />
<glyph unicode="Y" horiz-adv-x="1497" d="M-10 862l2 246l370 371h433l-2 -185l186 185l426 2v-230l-309 -309v-573l-379 -375h-455v598zM10 1092l2 -224l271 -268v-586h419v566l314 311v203l-391 -2v-224h-219v226zM27 1112l385 2l344 344h-385zM442 889h162v162zM639 1112l385 2l346 346l-383 -2z" />
<glyph unicode="Z" horiz-adv-x="1163" d="M-10 -6v1347l137 138l690 -2v-695h254v-413l-373 -375h-708zM10 14h672v379h-250v699h-422v-1078zM10 1124l211 209h-211v-209zM27 1112h409l344 344l-645 2l-104 -104h237zM467 416l221 -2l346 348h-223z" />
<glyph unicode="[" horiz-adv-x="1021" d="M-10 -14v1335l370 371h570v-1694l-373 -373h-207zM10 -4l350 -350h183v352h-234v1309h-299v-1311zM25 1327h290l242 244h236l98 100h-520zM344 18h205l223 222h-209zM567 1550l2 -1290h217v1290h-219z" />
<glyph unicode="\" horiz-adv-x="1431" d="M-12 1106l372 375h451l530 -1104l-380 -383h-453zM16 1094l506 -1080h418l-506 1080h-418zM25 1114h411l344 346h-411z" />
<glyph unicode="]" horiz-adv-x="1019" d="M-8 16l231 232v1317l127 127h578v-1346l-723 -721h-211zM10 2v-356h187l348 348v1315h-301v-1307h-234zM25 23h198v196zM244 1343l207 207h-207v-207zM258 1329h293l342 342h-533l-100 -100h242z" />
<glyph unicode="^" horiz-adv-x="1368" d="M2 565v357l727 360h545l2 -717h-459v187l-375 -187h-440zM23 586h407l2 309h-409v-309zM43 920l397 -5l398 201v-196h417v342h-520zM838 586h417v313h-417v-313z" />
<glyph unicode="_" horiz-adv-x="1562" d="M-10 -6v1116l370 369h1110v-1114l-368 -371h-1112zM10 14h1077v1082h-1077v-1082zM25 1116h1067l344 342h-1069z" />
<glyph unicode="`" horiz-adv-x="696" d="M-10 1458v68l164 164l448 -113l2 -119h-614zM10 1479h525v32h-525v-32zM25 1532h518l28 33l-411 104z" />
<glyph unicode="a" d="M-10 -6v967l514 518h774v-148h143v-966l-370 -371h-453v160l-162 -160h-446zM10 14h410v897h198v-897h416v930h-141v148h-743l2 -146h-142v-932zM25 967h106v104zM166 1112h733l346 346h-733zM578 1239l116 117l176 -2l-116 -115h-176zM707 1260h36l78 73h-114v-73z M926 965h114l346 346h-114z" />
<glyph unicode="b" d="M-10 -6v1112l372 373h918v-144h141v-968l-370 -373h-1061zM10 14h1026v934h-143v144h-883v-1078zM25 1112h874l346 346h-874zM414 371v538h196v-538h-196zM451 391h141v141zM567 1243l117 117l176 -2l-119 -115h-174zM694 1264h43l74 73l-117 2v-75zM928 969h114l344 346 h-112z" />
<glyph unicode="c" horiz-adv-x="1339" d="M-10 358v750l370 371h887v-1117l-366 -368h-527zM10 367l355 -353h501l-2 359l-454 -2v723h-400v-727zM25 1114h391l250 244h448l98 100h-841zM451 391l419 2l224 221h-420zM678 635h430v702h-428z" />
<glyph unicode="d" horiz-adv-x="1378" d="M-10 -6v1112l370 373h781l145 -148v-956l-381 -381h-915zM10 14h887l139 140v938h-424v-721h-198v721h-404v-1078zM25 1112h395l244 244h206l-241 -244h413l215 219l-122 127h-764zM451 391h141v141zM682 1192l143 143h-143v-143z" />
<glyph unicode="e" horiz-adv-x="1370" d="M-10 -6v1112l372 373h916v-1114l-371 -371h-917zM10 14h883v357h-479v540h483v181h-887v-1078zM25 1112h878l127 127h-463l115 115h459l102 104h-872zM449 391h450l221 221l-450 2zM676 633h457v700h-437v-73h371v-213l-156 -156h-235v-258z" />
<glyph unicode="f" horiz-adv-x="1376" d="M-10 -6v1112l372 373h922v-1110l-131 -129l4 8v-12h-487l-242 -242h-438zM10 14h404v897h479v181h-883v-1078zM25 1112h874l125 127h-459l117 115h461l102 104h-874zM676 256h461v1077h-441v-73h365v-216l-156 -153h-229v-635z" />
<glyph unicode="g" horiz-adv-x="1550" d="M-10 -6v1112l372 373h1096v-1114l-127 -127h-129v-88l-153 -156h-1059zM10 14h1024l-2 897h43v181h-450v-727h-199v727h-416v-1078zM25 1112h407l246 246h645l102 100h-1052zM463 387h141v141zM641 1112h442l125 127h-440zM692 1192l68 68h485v-213l-43 -43v-746h115 v1079h-623z" />
<glyph unicode="h" horiz-adv-x="1511" d="M-10 -4v1110l372 373h416l2 -164l162 164h479l-2 -1112l-370 -373h-465l-2 160l-160 -160h-8zM10 14h393v895h199v-895h430v1078h-1022v-1078zM25 1112h1013l344 346h-432l-243 -244h-211l243 244h-368z" />
<glyph unicode="i" horiz-adv-x="911" d="M-10 -6v1110l377 375h456v-1108l-377 -377h-456zM10 14h422v1076h-422v-1076zM25 1110h411l350 348h-411z" />
<glyph unicode="j" horiz-adv-x="1374" d="M-10 -6v414l375 374h88v324l370 371h459v-1108l-375 -375h-917zM10 14h883v1078h-420v-697l-463 -2v-379zM25 414h428v348h-80zM487 1112h412l346 344h-414z" />
<glyph unicode="k" horiz-adv-x="1511" d="M-10 1106l372 373h416v-162l162 162h338v-144h141v-968l-372 -373h-443v162l-162 -162h-450zM10 14h416v897h199v-897h407v934h-143v144h-879v-1078zM25 1112h870l342 346h-289l-243 -244h-205l243 244h-372zM924 969h114l344 346h-112z" />
<glyph unicode="l" horiz-adv-x="1372" d="M-10 -8v1114l372 373h455v-699h463v-415l-373 -373h-917zM10 12h883v379h-461v701h-422v-1080zM25 1112h413l344 346h-411zM465 412h434l346 348h-434z" />
<glyph unicode="m" horiz-adv-x="2101" d="M-10 -2v1110l375 373l1644 -2v-1108l-373 -373h-428v180l-180 -180h-428v182l-182 -182h-428zM10 18h393v1076h-393v-1076zM25 1114h385l239 240h225l-239 -240h383l244 244h227l-246 -244h383l348 344l-1605 2zM621 18l391 -2v1078h-391v-1076zM664 1169l163 164h-163 v-164zM1229 16l393 2v1076h-393v-1078zM1278 1176l160 161h-160v-161z" />
<glyph unicode="n" horiz-adv-x="1492" d="M-10 -6v1112l372 373h1039l-2 -1112l-373 -373h-428v176l-180 -176h-428zM10 14h389v1078h-389v-1078zM25 1112h381l241 242h227l-241 -242h385l348 346h-995zM621 14h391v1078h-391v-1078zM664 1169l163 164h-163v-164z" />
<glyph unicode="o" horiz-adv-x="1507" d="M-10 -8v1116l372 371h1057v-1114l-370 -371zM10 12h1022v1082l-395 -2l2 -754h-209v754h-420v-1080zM27 1112h411l238 240h215l-240 -240l387 2l346 344h-1013zM465 358h153v152zM690 1178l152 153h-152v-153z" />
<glyph unicode="p" horiz-adv-x="1515" d="M-10 -6v1112l375 373h1056v-457l-370 -373h-230v-282l-372 -373h-459zM10 14h424v656h602v422h-424v-232h-180v232h-422v-1078zM25 1112h413l244 244h188l-241 -244h413l347 346h-1018zM469 881h123v123zM696 1208l125 127h-125v-127z" />
<glyph unicode="q" horiz-adv-x="1767" d="M-10 -6v1114l370 371h1055v-723h260v-394l-368 -368h-1317zM10 14h1282v359h-260v721l-403 2v-754h-199v754l-420 -2v-1080zM25 1114l411 2l244 244l209 2l-246 -246h395l342 342h-1011zM465 362h145v144zM694 1196l148 145h-148v-145zM1067 393h229l344 342h-231z" />
<glyph unicode="r" horiz-adv-x="1519" d="M-10 -6v1112l372 373h922v-146h143l-2 -962l-374 -377h-451v162l-160 -162h-450zM10 14h412v877h199v-877l415 2v930h-139v146h-887v-1078zM25 1112h878l346 346h-878zM584 1239l110 115h176l-114 -115h-172zM711 1260h37l73 73h-110v-73zM932 967h110l349 346h-113z" />
<glyph unicode="s" horiz-adv-x="1501" d="M-10 -6v393l153 152h88v86l134 131h233v135h-608v215l372 373h1047v-1112l-131 -131h-88v-86l-154 -156h-1046zM10 14h1012v1078h-1012v-181h608v-538h-608v-359zM25 391l573 2v125h-446zM25 1112h1003l129 127h-592l115 115h592l102 104h-1003zM252 539h346v71h-346v-71 zM268 631h332v104h-229zM694 1260h498v-1004h74v1077h-572v-73z" />
<glyph unicode="t" horiz-adv-x="1116" d="M-10 -6v1317l166 168h868v-1114l-166 -164h-207l-205 -207h-456zM10 14h422v1078h-422v-1078zM10 1126l170 170h-170v-170zM25 1112h413l205 205h205l141 141h-825l-139 -141l206 2zM657 221h187v1075h-187v-1075z" />
<glyph unicode="u" horiz-adv-x="1509" d="M-10 -6v1114l370 373l457 -2l-2 -162l164 164h438v-1123l-364 -364h-1063zM10 14h1022v1080h-403l2 -754h-201v754h-420v-1080zM25 1114h411l346 346h-411zM465 360h145v144zM643 1114h393l346 346h-393z" />
<glyph unicode="v" horiz-adv-x="1490" d="M-10 375v731l372 373h426v-183l183 183l428 2v-1112l-373 -373l-655 -2zM10 383l367 -369l635 2v1078l-391 -2v-754h-218v754h-393v-709zM25 1112h385l344 346h-383zM438 358h162v162zM635 1112l383 2l346 346l-383 -2z" />
<glyph unicode="w" horiz-adv-x="2103" d="M-10 375v731l372 373l426 -2v-181l183 183l428 -2v-179l182 181h430v-1108l-375 -377h-1265zM10 383l367 -369l1245 2v1078h-393v-754h-217v752h-391v-754h-218v754h-393v-709zM25 1112h385l344 346h-383zM438 358h162v162zM635 1112h383l346 346h-385zM1047 360h161v162 zM1243 1112l379 2l346 346l-379 -2z" />
<glyph unicode="x" horiz-adv-x="1515" d="M-10 -6v969l518 518h328l-2 -135l131 133h315v-146h141l2 -964l-374 -375h-451v160l-162 -160h-446zM10 14h410v897h198v-897h414v932h-139v146h-741v-146h-142v-932zM25 967h106l-2 104zM170 1112h729l346 346h-272q-141 -139 -217 -219h-178l221 221h-281zM928 967h110 l348 346h-112z" />
<glyph unicode="y" horiz-adv-x="1497" d="M-10 862l2 246l370 371h433l-2 -185l186 185l426 2v-230l-309 -309v-573l-379 -375h-455v598zM10 1092l2 -224l271 -268v-586h419v566l314 311v203l-391 -2v-224h-219v226zM27 1112l385 2l344 344h-385zM442 889h162v162zM639 1112l385 2l346 346l-383 -2z" />
<glyph unicode="z" horiz-adv-x="1163" d="M-10 -6v1347l137 138l690 -2v-695h254v-413l-373 -375h-708zM10 14h672v379h-250v699h-422v-1078zM10 1124l211 209h-211v-209zM27 1112h409l344 344l-645 2l-104 -104h237zM467 416l221 -2l346 348h-223z" />
<glyph unicode="{" horiz-adv-x="1021" d="M-10 -14v1335l370 371h570v-1694l-373 -373h-207zM10 -4l350 -350h183v352h-234v1309h-299v-1311zM25 1327h290l242 244h236l98 100h-520zM344 18h205l223 222h-209zM567 1550l2 -1290h217v1290h-219z" />
<glyph unicode="|" horiz-adv-x="915" d="M-10 -375v1690l377 375h456v-1686l-377 -379h-456zM10 -354h422v1654h-422v-1654zM25 1321h411l352 348h-413z" />
<glyph unicode="}" horiz-adv-x="1019" d="M-8 16l231 232v1317l127 127h578v-1346l-723 -721h-211zM10 2v-356h187l348 348v1315h-301v-1307h-234zM25 23h198v196zM244 1343l207 207h-207v-207zM258 1329h293l342 342h-533l-100 -100h242z" />
<glyph unicode="~" horiz-adv-x="1728" d="M-10 565v348l368 369h533l151 -152l154 152h440v-344l-379 -377h-440l-194 193l-189 -189h-444zM10 586h410l-2 313h-408v-313zM25 920h399l199 196l202 -203h424l350 351l-391 -2l-166 -162l-159 162h-512zM633 774l178 -178v303l-178 178v-303zM831 582h412l2 311h-414 v-311z" />
<glyph unicode="&#xa1;" horiz-adv-x="921" d="M-10 -10v1091l190 193h121v59l143 144h385v-1153l-143 -146h-70l-190 -188h-436zM10 10h402v1057h-402v-1057zM25 1087h393l166 166h-394zM322 1272h296v-1071l54 -2v1120h-350v-47zM336 1339h342l117 117h-342z" />
<glyph unicode="&#xa2;" horiz-adv-x="1341" d="M-10 678v432l368 369h324l213 211h354l-2 -998l-205 -209v-139l-342 -342h-356v322zM10 686l355 -348v-315h321v315h176v356h-450v402h-402v-410zM25 1116h393l239 240h451l102 102h-209l211 211h-311l-211 -211h-323zM446 715h420l221 223h-421zM672 958h430v377h-430 v-377z" />
<glyph unicode="&#xa3;" horiz-adv-x="1509" d="M-10 510v215l155 158v4h-155v217l155 153l154 3l221 219h897v-1121l-373 -372h-899v524h-155zM10 530h156v-524h864v361h-459v163h328v183h-328v194h328v183h-889v-183h156v-194h-156v-183zM25 733h120v119zM25 1110h880l129 129h-319l114 115h447l104 104h-852 l-221 -219l-153 -2zM606 387h430l219 221l-243 -2l-99 -96h-184zM606 733h299l129 127h-301zM844 881h225v-217l-35 -35l236 -2v706h-426v-73h225v-216l-156 -157l-69 2v-8zM920 545l129 127v174l-129 -127v-174zM920 922l129 129v172l-129 -127v-174z" />
<glyph unicode="&#xa4;" horiz-adv-x="1691" d="M-27 520l373 371v2h-371l367 369h154l215 217h888v-1110l-368 -367h-516l-367 365v153h-375zM25 541h344v-166l354 -352h494v356h-453v162h323v180h-323v192h323v181h-884l-178 -181h342v-192h-164zM223 741h121l2 121zM223 1114h871l127 127h-318l115 115h442l105 102 h-842l-219 -217h-154zM799 399h424l215 215h-244l-92 -92h-180zM799 741h295l127 127h-293zM936 889h319v-213l-38 -41l239 2l-2 698h-422v-73h223v-215l-153 -154h-166v-4z" />
<glyph unicode="&#xa5;" horiz-adv-x="1490" d="M-8 858v250l370 371h412v-183l182 185h443v-232l-287 -286h199v-222l-219 -217v-151l-377 -379h-457v385h-233v215l114 117zM10 1094l2 -228l267 -266v-20h-234v-181h234v-385h421v385h232v181h-230l310 311v203h-406v-226h-217v226h-379zM25 1114h368l346 344h-368z M59 600h189l-94 94zM424 889h162v158zM621 1114h397l348 346h-399zM752 600h186l338 342h-184z" />
<glyph unicode="&#xa8;" horiz-adv-x="802" d="M-10 1458v72l162 162h206v-148l146 148h207v-234h-721zM10 1479h174v37h-174v-37zM25 1536h165l134 135h-164zM358 1479h177v37h-177v-37zM379 1536h162l135 135h-164z" />
<glyph unicode="&#xa9;" horiz-adv-x="10182" d="M47 16v547h74v-78q35 57 78 78q25 12 53 12q84 0 123 -86q55 86 131 86q115 0 137 -108q6 -31 6 -86v-365h-78v383q0 92 -77 93q-55 0 -84 -50q-25 -41 -25 -98v-328h-76v379q0 98 -71 99q-53 0 -86 -54q-29 -45 -29 -102v-322h-76zM739 289q0 -199 117 -266 q39 -23 90 -23q80 0 135 57q49 53 62 133h-74q-35 -108 -121 -108q-121 0 -127 174h328q0 96 -6 135q-16 113 -99 164q-43 25 -94 25q-104 0 -162 -97q-49 -82 -49 -194zM821 332q12 166 129 166q76 0 105 -76q14 -37 16 -90h-250zM889 1278q10 137 49 199q23 35 57 67 q55 37 158 115q66 55 66 133q0 137 -119 137q-115 0 -121 -180h-76v16q0 104 50.5 175t152.5 71q94 0 144 -61.5t50 -157.5q0 -121 -98 -201q-10 -8 -102 -69q-68 -45 -93.5 -78t-33.5 -78h327v-88h-411zM1239 16v547h74v-78q35 57 78 78q25 12 53 12q84 0 121 -86 q57 86 133 86q115 0 137 -108q6 -31 6 -86v-365h-78v383q0 92 -77 93q-55 0 -84 -50q-25 -41 -25 -98v-328h-76v379q0 98 -71 99q-55 0 -89 -54q-27 -45 -26 -102v-322h-76zM1368 1632q0 -243 94 -329q47 -41 111 -41q207 0 207 380q0 262 -101 336q-43 33 -100 33 q-211 0 -211 -379zM1450 1630q0 299 125 299q123 0 123 -289q0 -297 -123 -297q-125 0 -125 287zM1884 1632q0 -243 94 -329q45 -41 109 -41q209 0 209 380q0 262 -101 336q-43 33 -100 33q-211 0 -211 -379zM1946 16h69v70q47 -86 131 -86q102 0 154 106q41 82 41 195 q0 193 -107 256q-37 20 -80 21q-82 0 -135 -84v272h-73v-750zM1966 1630q0 299 125 299q123 0 123 -289q0 -297 -125 -297q-123 0 -123 287zM2015 291q0 205 129 205q119 0 119 -201q0 -215 -123 -215q-125 0 -125 211zM2400 1632q0 -243 94 -329q45 -41 109 -41 q209 0 209 380q0 262 -100 336q-45 33 -101 33q-211 0 -211 -379zM2406 289q0 -199 117 -266q39 -23 90 -23q80 0 135 57q49 53 62 133h-74q-33 -108 -121 -108q-121 0 -127 174h328q0 96 -6 135q-16 115 -98 164q-43 25 -95 25q-104 0 -161 -97q-49 -82 -50 -194z M2482 1630q0 299 125 299q123 0 123 -289q0 -297 -125 -297q-123 0 -123 287zM2488 332q12 166 129 166q76 0 105 -76q16 -37 16 -90h-250zM2908 16v547h72v-94q47 106 121 106q10 0 24 -2v-98q-18 4 -28 4q-72 0 -103 -78q-10 -25 -10 -73v-312h-76zM3146 1278v750h82v-310 h325v310h84v-750h-84v352h-325v-352h-82zM3166 188h74q6 -113 117 -112q106 0 106 88q0 53 -86 78l-65 20q-131 39 -131 150q0 102 79 147q39 20 91 21q78 0 122.5 -46.5t47.5 -125.5h-72q-8 96 -103 96q-94 0 -94 -78q0 -55 78 -78l86 -26q119 -35 119 -140q0 -84 -49 -133 t-133 -49q-179 0 -187 188zM3629 16v113h86v-113h-86zM3766 1278v750h82v-660h311v-90h-393zM3826 160q0 -70 37.5 -115t105.5 -45q90 0 160 88q6 -78 80 -78q16 0 41 8v64q-16 -4 -25 -4q-25 0 -25 33v313q0 63 -38.5 109.5t-135.5 46.5q-135 0 -170 -111q-8 -25 -10 -70 h72q8 105 106 105q100 0 101 -92q0 -57 -39 -64l-125 -18q-55 -10 -88 -43q-47 -47 -47 -127zM3903 168q0 68 74 88q6 0 60 10l43 8q25 4 45 21v-88q0 -55 -43.5 -93t-98.5 -38q-80 0 -80 92zM4207 1552q0 -119 41 -190q37 -61 94 -86q33 -14 71 -14q111 0 164 94 q45 78 45 196q0 117 -45 195q-53 94 -164 94q-109 0 -161 -94q-45 -78 -45 -195zM4284 1552q0 207 129 207q131 0 132 -207q-1 -209 -132 -209q-129 0 -129 209zM4297 291q0 -119 41 -191q37 -61 94 -86q33 -14 74 -14q109 0 163 94q43 78 43 197q0 117 -45 194 q-52 95 -161 95q-111 0 -164 -95q-45 -78 -45 -194zM4375 291q0 207 131 207q129 0 129 -207q0 -209 -129 -209q-131 0 -131 209zM4708 1278v752h76v-279q35 55 78 74q27 12 61 12q100 0 134 -86q16 -43 16 -123v-350h-76v344q0 94 -39 121q-20 12 -51 12q-123 0 -123 -176 v-301h-76zM4801 16v750h75v-750h-75zM5009 16v113h88v-113h-88zM5186 1278v547h71v-78q33 55 80 78q29 12 64 12q96 0 133 -86q16 -37 16 -123v-350h-78v344q0 133 -88 133q-92 0 -119 -110q-4 -25 -4 -66v-301h-75zM5202 276q0 125 45 201q57 100 158 101q160 0 174 -201 h-72q-14 119 -102 119q-127 0 -127 -217q0 -203 118 -203q93 0 111 133h72q-20 -209 -185 -209q-147 0 -182 168q-10 51 -10 108zM5630 291q0 -119 41 -191q37 -61 94 -86q33 -14 74 -14q109 0 164 94q43 78 43 197q0 117 -45 194q-53 95 -162 95t-164 -95q-45 -78 -45 -194 zM5640 1550q0 -199 117 -266q39 -23 90 -22q80 0 135 57q49 53 62 133h-74q-35 -109 -121 -109q-121 0 -127 175h328q0 96 -6 135q-16 113 -99 164q-43 25 -94 24q-104 0 -162 -96q-49 -82 -49 -195zM5708 291q0 207 131 207t131 -207q0 -209 -131 -209t-131 209zM5722 1593 q12 166 129 166q76 0 105 -76q14 -37 16 -90h-250zM6134 16v547h73v-78q35 57 76 78q25 12 56 12q84 0 120 -86q55 86 134 86q115 0 135 -108q6 -31 6 -86v-365h-78v383q0 92 -76 93q-55 0 -84 -50q-25 -41 -24 -98v-328h-76v379q0 98 -74 99q-53 0 -86 -54 q-29 -45 -29 -102v-322h-73zM6142 1278v547h72v-94q47 106 120 106q10 0 25 -4v-96q-18 4 -29 4q-72 0 -104 -78q-8 -25 -8 -76v-309h-76zM6463 1640q0 -227 158 -331q80 -53 187 -54q119 0 217 66q29 16 61 47l-29 47q-113 -100 -241 -100q-137 0 -217 94q-76 88 -76 227 q0 215 145 308q72 45 166 45q162 0 223 -119q29 -61 29 -139q0 -141 -72 -197q-27 -18 -51 -18q-37 0 -37 43q0 20 13 69l55 223h-62l-20 -84q-8 103 -98 103q-92 0 -146 -123q-29 -66 -28 -135q0 -63 26 -109q31 -53 90 -53q82 0 123 106q-2 -12 -2 -20q0 -82 80 -82 q68 0 121 66q66 80 65 211q0 203 -151 278q-74 39 -164 39q-178 0 -283 -143q-82 -115 -82 -265zM6709 1606q0 131 72 190q25 20 47 21q63 0 64 -84q0 -131 -66 -199q-27 -27 -53 -27q-63 0 -64 99zM6791 16l195 750h63l-194 -750h-64zM7039 487v74h61v96q0 119 115 119 q16 0 37 -2v-84q-20 2 -29 2q-47 0 -47 -63v-68h76v-74h-76v-471h-76v471h-61zM7274 1421q0 -70 38 -114.5t104 -44.5q90 0 160 88q6 -78 79 -78q16 0 43 8v63q-16 -4 -26 -4q-25 0 -25 33v314q0 63 -35 106q-43 49 -137 49q-137 0 -172 -110q-6 -27 -8 -70h72 q6 104 106 104t101 -92q0 -57 -39 -63l-125 -21q-55 -8 -90 -41q-45 -47 -46 -127zM7297 291q0 -119 41 -191q35 -61 94 -86q31 -14 72 -14q111 0 164 94q45 78 45 197q0 117 -45 194q-55 95 -164 95t-164 -95q-43 -78 -43 -194zM7350 1430q0 68 76 88q4 0 57 10l43 8 q25 4 45 20v-88q0 -55 -43 -93t-98 -38q-80 0 -80 93zM7373 291q0 207 131 207t131 -207q0 -209 -131 -209t-131 209zM7743 1552q0 -119 41 -190q37 -61 95 -86q33 -14 73 -14q109 0 164 94q43 78 43 196q0 117 -43 195q-55 94 -164 94t-163 -94q-45 -78 -46 -195zM7799 16 v547h71v-78q33 55 80 78q31 14 64 15q98 0 133 -89q16 -37 16 -122v-351h-75v344q0 133 -91 134q-92 0 -116 -111q-6 -25 -6 -66v-301h-76zM7821 1552q0 207 131 207t131 -207q0 -209 -131 -209t-131 209zM8229 487v76h61v152h76v-152h72v-76h-72v-356q0 -43 43 -43 q12 0 29 2v-74q-23 -8 -56 -8q-92 0 -92 119v360h-61zM8249 1278v750h76v-750h-76zM8456 1278v113h88v-113h-88zM8514 16v547h69v-78q35 55 82 78q29 14 64 15q96 0 133 -89q16 -37 16 -122v-351h-78v344q0 133 -88 134q-92 0 -119 -111q-6 -25 -6 -66v-301h-73zM8649 1538 q0 125 45 201q57 98 157 98q160 0 177 -199h-72q-14 119 -102 119q-127 0 -127 -217q0 -203 116 -203q95 0 113 131h72q-23 -207 -187 -206q-145 0 -182 168q-10 51 -10 108zM8968 289q0 -199 115 -266q41 -23 92 -23q80 0 132 55.5t65 134.5h-74q-35 -108 -121 -108 q-123 0 -127 174h328q0 96 -6 135q-18 115 -101 164q-41 25 -92 25q-106 0 -164 -97q-47 -82 -47 -194zM9050 332q12 166 127 166q76 0 107 -76q14 -37 16 -90h-250zM9077 1552q0 -119 43 -190q35 -61 92 -86q33 -14 74 -14q109 0 163 94q45 78 46 196q0 117 -46 195 q-54 94 -163 94t-164 -94q-45 -78 -45 -195zM9155 1552q0 207 131 207t131 -207q0 -209 -131 -209t-131 209zM9470 16v547h70v-94q47 106 122 106q10 0 25 -2v-98q-20 4 -29 4q-74 0 -104 -78q-10 -25 -10 -73v-312h-74zM9581 1278v547h73v-78q35 57 78 78q25 12 53 12 q84 0 121 -86q57 86 133 86q115 0 138 -108q6 -31 6 -87v-364h-78v383q0 92 -78 92q-55 0 -84 -49q-25 -41 -25 -98v-328h-75v379q0 98 -72 98q-55 0 -88 -53q-27 -45 -27 -103v-321h-75z" />
<glyph unicode="&#xaa;" horiz-adv-x="1099" d="M-10 428v678l145 143h101v94l137 138l635 -2v-680l-373 -369zM10 449h611v643h-611v-643zM25 1112h602l348 346l-594 2l-109 -108l367 -2l-121 -121h-377zM256 635v295h129v-295h-129zM256 1331l2 -82h252l82 82h-336zM291 655h74v76z" />
<glyph unicode="&#xab;" horiz-adv-x="1542" d="M-8 451v178l842 839v-329l-230 -228l158 -155l-135 -135v-162l147 -150l-321 -321zM12 459l430 -432v274l-237 240l237 237v275l-430 -432v-162zM233 541l220 -222l153 156v156l125 123l-141 143zM606 451v178l842 841v-331l-229 -228l231 -233v-307l-383 -383zM627 459 l430 -432v276l-238 238l238 237v275l-430 -432v-162zM848 541l221 -222l356 357l-221 221z" />
<glyph unicode="&#xad;" horiz-adv-x="1064" d="M-10 565v350l372 371h611v-354l-371 -367h-612zM10 586h578v315h-578v-315zM25 922h569l346 344h-569z" />
<glyph unicode="&#xae;" horiz-adv-x="1906" />
<glyph unicode="&#xb0;" horiz-adv-x="1103" d="M-10 424v680l372 373h648v-678l-375 -375h-645zM10 444h611v646h-238l2 -455h-129v455h-246v-646zM25 1110h237l246 248h139l-248 -248h226l348 346h-602zM291 655h74v72zM526 1266l72 73h-72v-73z" />
<glyph unicode="&#xb4;" horiz-adv-x="802" d="M-10 1458v68l57 59l664 109v-236h-721zM10 1479h525v34l-525 -2v-32zM25 1532l514 2l133 133l-615 -100z" />
<glyph unicode="&#xb7;" horiz-adv-x="915" d="M-10 561v348l401 401h432v-348l-401 -401h-432zM10 581h398v314h-398v-314zM25 915h389l374 375h-389z" />
<glyph unicode="&#xba;" horiz-adv-x="1103" d="M-10 424v680l372 373h648v-678l-375 -375h-645zM10 444h611v646h-238l2 -455h-129v455h-246v-646zM25 1110h237l246 248h139l-248 -248h226l348 346h-602zM291 655h74v72zM526 1266l72 73h-72v-73z" />
<glyph unicode="&#xbb;" horiz-adv-x="1529" d="M-12 1079l383 381l317 -315l-74 -74v-295l86 -86l-710 -713v332l229 232l-229 229zM10 29l432 432v160l-432 432v-275l238 -237l-238 -240v-272zM14 1077l439 -438l141 137v299l65 68l-288 289zM594 -20v331l229 230l-229 229v307l381 383l463 -465v-172zM614 29l433 432 v160l-433 432v-277l238 -235l-238 -238v-274zM618 1077l439 -438l354 354l-436 439z" />
<glyph unicode="&#xbd;" horiz-adv-x="1906" d="M-8 434v678l368 367h283v-289l293 291h461l-203 -443h621v-155l-373 -371h-264v-168h372v-244l-104 -106h-645v293l-291 -293h-463l205 440h-260zM12 455h242v637h-242v-637zM25 1112h235l346 346h-237zM80 14h418l499 1080h-417zM598 1114h412l348 346h-414zM821 14h606 v205l-372 2v311h372v121h-606v-639zM836 674h598l346 344h-596l-107 -105h348l-120 -122h-351zM1061 811h233l82 82h-315v-82zM1090 242h344l69 82h-329z" />
<glyph unicode="&#xbf;" horiz-adv-x="1239" d="M-10 -6v1112l116 117h408l49 47h55v63l144 144h385v-215l-143 -144h-60v-61l-164 -166h-205v-356h478l-2 -396l-144 -145h-917zM10 14h883v357h-479v540h352v181h-756v-1078zM25 1112h747l137 137h-340l-47 -47h-405zM449 391h448l123 123h-451zM639 1270h305v-131h45 v180h-350v-49zM653 1339h342l117 117h-340z" />
<glyph unicode="&#xc0;" d="M-10 -6v967l514 518h774v-148h143v-966l-370 -371h-453v160l-162 -160h-446zM10 14h410v897h198v-897h416v930h-141v148h-743l2 -146h-142v-932zM25 967h106v104zM166 1112h733l346 346h-733zM578 1239l116 117l176 -2l-116 -115h-176zM604 1458v68l164 164l448 -113 l2 -119h-614zM624 1479h525v32h-525v-32zM639 1532h518l28 33l-411 104zM707 1260h36l78 73h-114v-73zM926 965h114l346 346h-114z" />
<glyph unicode="&#xc1;" d="M-10 -6v967l514 518h774v-148h143v-966l-370 -371h-453v160l-162 -160h-446zM10 14h410v897h198v-897h416v930h-141v148h-743l2 -146h-142v-932zM25 967h106v104zM166 1112h733l346 346h-733zM555 1458v68l57 59l664 109v-236h-721zM575 1479h525v34l-525 -2v-32z M578 1239l116 117l176 -2l-116 -115h-176zM590 1532l514 2l133 133l-615 -100zM707 1260h36l78 73h-114v-73zM926 965h114l346 346h-114z" />
<glyph unicode="&#xc2;" d="M-10 -6v967l514 518h774v-148h143v-966l-370 -371h-453v160l-162 -160h-446zM10 14h410v897h198v-897h416v930h-141v148h-743l2 -146h-142v-932zM25 967h106v104zM166 1112h733l346 346h-733zM578 1239l116 117l176 -2l-116 -115h-176zM604 1458v76l321 160h242v-236 h-563zM624 1477h164v41h-164v-41zM657 1538h139l183 92v-92h167l-2 135h-215zM707 1260h36l78 73h-114v-73zM926 965h114l346 346h-114zM979 1479h167v39h-167v-39z" />
<glyph unicode="&#xc3;" d="M-10 -6v967l514 518h774v-148h143v-966l-370 -371h-453v160l-162 -160h-446zM10 14h410v897h198v-897h416v930h-141v148h-743l2 -146h-142v-932zM25 967h106v104zM166 1112h733l346 346h-733zM559 1458v70l164 164h233l64 -60l61 60h199v-234h-721zM578 1239l116 117 l176 -2l-116 -115h-176zM579 1479h164v37h-164v-37zM594 1536h157l88 88l90 -88h179l135 135h-156l-67 -67l-72 67h-217zM707 1260h36l78 73h-114v-73zM850 1479h63v43l-63 63v-106zM926 965h114l346 346h-114zM934 1479h167v37h-167v-37z" />
<glyph unicode="&#xc4;" d="M-10 -6v967l514 518h774v-148h143v-966l-370 -371h-453v160l-162 -160h-446zM10 14h410v897h198v-897h416v930h-141v148h-743l2 -146h-142v-932zM25 967h106v104zM166 1112h733l346 346h-733zM557 1458v72l162 162h206v-148l146 148h207v-234h-721zM577 1479h174v37h-174 v-37zM578 1239l116 117l176 -2l-116 -115h-176zM592 1536h165l134 135h-164zM707 1260h36l78 73h-114v-73zM925 1479h177v37h-177v-37zM926 965h114l346 346h-114zM946 1536h162l135 135h-164z" />
<glyph unicode="&#xc5;" d="M-10 -6v967l514 518h774v-148h143v-966l-370 -371h-453v160l-162 -160h-446zM10 14h410v897h198v-897h416v930h-141v148h-743l2 -146h-142v-932zM25 967h106v104zM166 1112h733l346 346h-733zM578 1239l116 117l176 -2l-116 -115h-176zM686 1458v74l162 162h376v-236 h-538zM706 1479h342v39h-342v-39zM707 1260h36l78 73h-114v-73zM721 1538h333l136 135h-332zM843 1569l76 78h148l-78 -78h-146zM926 965h114l346 346h-114zM934 1589h47l37 37h-84v-37z" />
<glyph unicode="&#xc6;" horiz-adv-x="1980" d="M-10 -6v969l514 516h1384l-2 -1114l-368 -371h-920v160l-158 -160h-450zM10 14h410v897h198v-897h3h882v357h-479v540h483v181h-1355v-144l-142 -2v-932zM25 967h106v104zM166 1112h1347l129 127h-464l114 115h459l102 104h-1343zM575 1239l117 115h176l-114 -115h-179z M707 1260h36l74 73h-110v-73zM1059 391h450l222 223h-449zM1286 633h457l2 700h-438v-73h370v-213l-155 -156h-236v-258zM1528 926l129 129v170l-129 -127v-172z" />
<glyph unicode="&#xc7;" horiz-adv-x="1339" d="M-10 360v748l368 371h889v-1108l-205 -205v-199l-337 -338h-361v205l168 168h-162zM10 369l348 -346h174v-205h-167v-168h321v373h176v358h-450v713h-402v-725zM25 1114h391l239 242h455l102 102h-841zM379 -162h133l2 137zM446 401h422l219 217h-423zM670 639h432v696 h-432v-696z" />
<glyph unicode="&#xc8;" horiz-adv-x="1370" d="M-10 -6v1112l372 373h916v-1114l-371 -371h-917zM10 14h883v357h-479v540h483v181h-887v-1078zM25 1112h878l127 127h-463l115 115h459l102 104h-872zM449 391h450l221 221l-450 2zM502 1458v68l164 164l448 -113l2 -119h-614zM522 1479h525v32h-525v-32zM537 1532h518 l28 33l-411 104zM676 633h457v700h-437v-73h371v-213l-156 -156h-235v-258z" />
<glyph unicode="&#xc9;" horiz-adv-x="1370" d="M-10 -6v1112l372 373h916v-1114l-371 -371h-917zM10 14h883v357h-479v540h483v181h-887v-1078zM25 1112h878l127 127h-463l115 115h459l102 104h-872zM449 391h450l221 221l-450 2zM553 1458v68l57 59l664 109v-236h-721zM573 1479h525v34l-525 -2v-32zM588 1532l514 2 l133 133l-615 -100zM676 633h457v700h-437v-73h371v-213l-156 -156h-235v-258z" />
<glyph unicode="&#xca;" horiz-adv-x="1370" d="M-10 -6v1112l372 373h916v-1114l-371 -371h-917zM10 14h883v357h-479v540h483v181h-887v-1078zM25 1112h878l127 127h-463l115 115h459l102 104h-872zM449 391h450l221 221l-450 2zM553 1458v76l321 160h242v-236h-563zM573 1477h164v41h-164v-41zM606 1538h139l183 92 v-92h167l-2 135h-215zM676 633h457v700h-437v-73h371v-213l-156 -156h-235v-258zM928 1479h167v39h-167v-39z" />
<glyph unicode="&#xcb;" horiz-adv-x="1370" d="M-10 -6v1112l372 373h916v-1114l-371 -371h-917zM10 14h883v357h-479v540h483v181h-887v-1078zM25 1112h878l127 127h-463l115 115h459l102 104h-872zM449 391h450l221 221l-450 2zM557 1458v72l162 162h206v-148l146 148h207v-234h-721zM577 1479h174v37h-174v-37z M592 1536h165l134 135h-164zM676 633h457v700h-437v-73h371v-213l-156 -156h-235v-258zM925 1479h177v37h-177v-37zM946 1536h162l135 135h-164z" />
<glyph unicode="&#xcc;" horiz-adv-x="911" d="M-10 -6v1110l377 375h456v-1108l-377 -377h-456zM-10 -6v1110l377 375h456v-1108l-377 -377h-456zM10 14h422v1076h-422v-1076zM10 14h422v1076h-422v-1076zM25 1110h411l350 348h-411zM25 1110h411l350 348h-411zM297 1380v146l164 164l450 -115v-1165l-49 -52h-61v1098 h-428zM317 1430l48 47h456v-1098h21v1132h-525v-81zM332 1532h514l33 33l-412 102z" />
<glyph unicode="&#xcd;" horiz-adv-x="911" d="M-10 -6v1110l377 375h456v-1108l-377 -377h-456zM10 14h422v1076h-422v-1076zM25 1110h411l350 348h-411zM297 1380v146l57 59l664 107v-1170l-162 -164h-57v1098h-426zM317 1430l48 47h454v-1098h23v1132h-525v-81zM332 1532h514l133 133l-614 -100z" />
<glyph unicode="&#xce;" horiz-adv-x="911" d="M-10 -6v1110l377 375h456v-1108l-377 -377h-456zM-10 -6v1110l377 375h456v-1108l-377 -377h-456zM10 14h422v1076h-422v-1076zM10 14h422v1076h-422v-1076zM25 1110h411l350 348h-411zM25 1110h411l350 348h-411zM358 1458v76l322 160h242l2 -1223l-125 -123v1110h-441z M379 1479h164v39h-164v-39zM412 1538h139l182 90v-90h168l-2 135h-215zM733 1479h86v-1082l82 82v1039h-168v-39z" />
<glyph unicode="&#xcf;" horiz-adv-x="911" d="M-10 -6v1110l377 375h456v-1108l-377 -377h-456zM10 14h422v1076h-422v-1076zM25 1110h411l350 348h-411zM358 1458v72l164 162h205v-148l147 148h205v-1166l-157 -159v-7h-4l-17 -14v14h-100v1096h-94zM379 1479h170v37h-170v-37zM393 1536h162l137 135h-162zM727 1477 h94v-1096h80v1135h-174v-39zM748 1536h159l137 135h-159z" />
<glyph unicode="&#xd0;" horiz-adv-x="1478" d="M-10 891v207l162 162h92l219 219h778l143 -146v-958l-380 -381h-914v897h-100zM10 911h101v-897h888l138 140v938h-424v-721h-199v540h88v181h-592v-181zM33 1112h575l129 127h-94l121 117h209l-246 -244h416l217 217l-129 129h-760l-217 -219h-92zM551 391h141v141z M774 1188l150 147h-150v-147z" />
<glyph unicode="&#xd1;" horiz-adv-x="1492" d="M-10 -6v1112l372 373h1039l-2 -1112l-373 -373h-428v176l-180 -176h-428zM10 14h389v1078h-389v-1078zM25 1112h381l241 242h227l-241 -242h385l348 346h-995zM604 1458v70l164 164h233l64 -60l61 60h199v-234h-721zM621 14h391v1078h-391v-1078zM624 1479h164v37h-164 v-37zM639 1536h157l88 88l90 -88h179l135 135h-156l-67 -67l-72 67h-217zM664 1169l163 164h-163v-164zM895 1479h63v43l-63 63v-106zM979 1479h167v37h-167v-37z" />
<glyph unicode="&#xd2;" horiz-adv-x="1507" d="M-10 -8v1116l372 371h1057v-1114l-370 -371zM10 12h1022v1082l-395 -2l2 -754h-209v754h-420v-1080zM27 1112h411l238 240h215l-240 -240l387 2l346 344h-1013zM465 358h153v152zM604 1458v68l164 164l448 -113l2 -119h-614zM624 1479h525v32h-525v-32zM639 1532h518 l28 33l-411 104zM690 1178l152 153h-152v-153z" />
<glyph unicode="&#xd3;" horiz-adv-x="1507" d="M-10 -8v1116l372 371h1057v-1114l-370 -371zM10 12h1022v1082l-395 -2l2 -754h-209v754h-420v-1080zM27 1112h411l238 240h215l-240 -240l387 2l346 344h-1013zM465 358h153v152zM690 1178l152 153h-152v-153zM690 1458v68l57 59l664 109v-236h-721zM710 1479h525v34 l-525 -2v-32zM725 1532l514 2l133 133l-615 -100z" />
<glyph unicode="&#xd4;" horiz-adv-x="1507" d="M-10 -8v1116l372 371h1057v-1114l-370 -371zM10 12h1022v1082l-395 -2l2 -754h-209v754h-420v-1080zM27 1112h411l238 240h215l-240 -240l387 2l346 344h-1013zM465 358h153v152zM604 1458v76l321 160h242v-236h-563zM624 1477h164v41h-164v-41zM657 1538h139l183 92v-92 h167l-2 135h-215zM690 1178l152 153h-152v-153zM979 1479h167v39h-167v-39z" />
<glyph unicode="&#xd5;" horiz-adv-x="1507" d="M-10 -8v1116l372 371h1057v-1114l-370 -371zM10 12h1022v1082l-395 -2l2 -754h-209v754h-420v-1080zM27 1112h411l238 240h215l-240 -240l387 2l346 344h-1013zM465 358h153v152zM690 1178l152 153h-152v-153z" />
<glyph unicode="&#xd6;" horiz-adv-x="1507" d="M-10 -8v1116l372 371h1057v-1114l-370 -371zM10 12h1022v1082l-395 -2l2 -754h-209v754h-420v-1080zM27 1112h411l238 240h215l-240 -240l387 2l346 344h-1013zM465 358h153v152zM604 1458v72l162 162h206v-148l146 148h207v-234h-721zM624 1479h174v37h-174v-37z M639 1536h165l134 135h-164zM690 1178l152 153h-152v-153zM972 1479h177v37h-177v-37zM993 1536h162l135 135h-164z" />
<glyph unicode="&#xd8;" horiz-adv-x="1511" d="M-10 -4v1112l370 371h1057v-1112l-370 -373zM10 16l1022 -2v1082h-411l-191 -191v189h-420v-1078zM25 1114h411l242 240h205l-238 -238h393l342 342h-1011zM430 342v336l197 196l2 -532h-199zM465 362h143l-2 142zM692 1190l144 143h-144v-143z" />
<glyph unicode="&#xd9;" horiz-adv-x="1509" d="M-10 -6v1114l370 373l457 -2l-2 -162l164 164h438v-1123l-364 -364h-1063zM-10 -6v1114l370 373l457 -2l-2 -162l164 164h438v-1123l-364 -364h-1063zM10 14h1022v1080h-403l2 -754h-201v754h-420v-1080zM10 14h1022v1080h-403l2 -754h-201v754h-420v-1080zM25 1114h411 l346 346h-411zM25 1114h411l346 346h-411zM465 360h145v144zM465 360h145v144zM604 1460v66l164 164l453 -115v-115h-232l-192 -192v192h-193zM625 1481h192v-164l162 164h170v30h-524v-30zM639 1532h514l33 33l-412 104zM643 1114h393l346 346h-393zM643 1114h393l346 346 h-393z" />
<glyph unicode="&#xda;" horiz-adv-x="1509" d="M-10 -6v1114l370 373l457 -2l-2 -162l164 164h438v-1123l-364 -364h-1063zM10 14h1022v1080h-403l2 -754h-201v754h-420v-1080zM25 1114h411l346 346h-411zM465 360h145v144zM643 1114h393l346 346h-393zM696 1460v64l58 59l663 107v-230l-430 -2l-188 -188l-4 188z M717 1481h98l2 -162l162 162h262v32l-524 -4v-28zM731 1532l514 2l133 129l-614 -98z" />
<glyph unicode="&#xdb;" horiz-adv-x="1509" d="M-10 -6v1114l370 373l457 -2l-2 -162l164 164h438v-1123l-364 -364h-1063zM10 14h1022v1080h-403l2 -754h-201v754h-420v-1080zM25 1114h411l346 346h-411zM465 360h145v144zM614 1460v74l322 160h240l2 -234h-195l-186 -192v192h-183zM635 1481h164v37h-164v-37z M643 1114h393l346 346h-393zM668 1538h139l182 90v-90h168v135h-217zM989 1481h168v37h-168v-37z" />
<glyph unicode="&#xdc;" horiz-adv-x="1509" d="M-10 -6v1114l370 373l457 -2l-2 -162l164 164h438v-1123l-364 -364h-1063zM10 14h1022v1080h-403l2 -754h-201v754h-420v-1080zM25 1114h411l346 346h-411zM465 360h145v144zM604 1460v70l162 162h207v-148l145 148h207v-232h-338l-14 -16l-176 -176l-2 192h-191z M625 1481h170v35h-170v-35zM639 1536h162l135 135h-162zM643 1114h393l346 346h-393zM973 1475l6 6h168v35h-174v-41zM993 1536h160l135 135h-160z" />
<glyph unicode="&#xdd;" horiz-adv-x="1497" d="M-10 862l2 246l370 371h433l-2 -185l186 185l426 2v-230l-309 -309v-573l-379 -375h-455v598zM-10 862l2 246l370 371h433l-2 -185l186 185l426 2v-230l-309 -309v-573l-379 -375h-455v598zM10 1092l2 -224l271 -268v-586h419v566l314 311v203l-391 -2v-224h-219v226z M10 1092l2 -224l271 -268v-586h419v566l314 311v203l-391 -2v-224h-219v226zM27 1112l385 2l344 344h-385zM27 1112l385 2l344 344h-385zM442 889h162v162zM442 889h162v162zM614 1458v66l58 59l663 107v-230l-348 -2l-215 -211v211h-158zM635 1479h160l-2 -185l186 187 l180 -2v32l-524 -2v-30zM639 1112l385 2l346 346l-383 -2zM639 1112l385 2l346 346l-383 -2zM649 1530l514 2l133 131l-614 -98zM1180 1479z" />
<glyph unicode="&#xde;" horiz-adv-x="1400" d="M-10 -6v1114l370 369h459l2 -111h490l-2 -661l-258 -261h-228v-77l-374 -373h-459zM10 14h422v453l604 -2v625h-424v-435h-180v435h-422v-1076zM25 1112h413l156 158h184l-157 -158h421l234 234h-604l112 110h-415zM467 676h121v121zM606 1126l123 123l-123 -2v-121z" />
<glyph unicode="&#xe0;" d="M-10 -6v967l514 518h774v-148h143v-966l-370 -371h-453v160l-162 -160h-446zM10 14h410v897h198v-897h416v930h-141v148h-743l2 -146h-142v-932zM25 967h106v104zM166 1112h733l346 346h-733zM578 1239l116 117l176 -2l-116 -115h-176zM604 1458v68l164 164l448 -113 l2 -119h-614zM624 1479h525v32h-525v-32zM639 1532h518l28 33l-411 104zM707 1260h36l78 73h-114v-73zM926 965h114l346 346h-114z" />
<glyph unicode="&#xe1;" d="M-10 -6v967l514 518h774v-148h143v-966l-370 -371h-453v160l-162 -160h-446zM10 14h410v897h198v-897h416v930h-141v148h-743l2 -146h-142v-932zM25 967h106v104zM166 1112h733l346 346h-733zM555 1458v68l57 59l664 109v-236h-721zM575 1479h525v34l-525 -2v-32z M578 1239l116 117l176 -2l-116 -115h-176zM590 1532l514 2l133 133l-615 -100zM707 1260h36l78 73h-114v-73zM926 965h114l346 346h-114z" />
<glyph unicode="&#xe2;" d="M-10 -6v967l514 518h774v-148h143v-966l-370 -371h-453v160l-162 -160h-446zM10 14h410v897h198v-897h416v930h-141v148h-743l2 -146h-142v-932zM25 967h106v104zM166 1112h733l346 346h-733zM578 1239l116 117l176 -2l-116 -115h-176zM604 1458v76l321 160h242v-236 h-563zM624 1477h164v41h-164v-41zM657 1538h139l183 92v-92h167l-2 135h-215zM707 1260h36l78 73h-114v-73zM926 965h114l346 346h-114zM979 1479h167v39h-167v-39z" />
<glyph unicode="&#xe3;" d="M-10 -6v967l514 518h774v-148h143v-966l-370 -371h-453v160l-162 -160h-446zM10 14h410v897h198v-897h416v930h-141v148h-743l2 -146h-142v-932zM25 967h106v104zM166 1112h733l346 346h-733zM559 1458v70l164 164h233l64 -60l61 60h199v-234h-721zM578 1239l116 117 l176 -2l-116 -115h-176zM579 1479h164v37h-164v-37zM594 1536h157l88 88l90 -88h179l135 135h-156l-67 -67l-72 67h-217zM707 1260h36l78 73h-114v-73zM850 1479h63v43l-63 63v-106zM926 965h114l346 346h-114zM934 1479h167v37h-167v-37z" />
<glyph unicode="&#xe4;" d="M-10 -6v967l514 518h774v-148h143v-966l-370 -371h-453v160l-162 -160h-446zM10 14h410v897h198v-897h416v930h-141v148h-743l2 -146h-142v-932zM25 967h106v104zM166 1112h733l346 346h-733zM557 1458v72l162 162h206v-148l146 148h207v-234h-721zM577 1479h174v37h-174 v-37zM578 1239l116 117l176 -2l-116 -115h-176zM592 1536h165l134 135h-164zM707 1260h36l78 73h-114v-73zM925 1479h177v37h-177v-37zM926 965h114l346 346h-114zM946 1536h162l135 135h-164z" />
<glyph unicode="&#xe5;" d="M-10 -6v967l514 518h774v-148h143v-966l-370 -371h-453v160l-162 -160h-446zM10 14h410v897h198v-897h416v930h-141v148h-743l2 -146h-142v-932zM25 967h106v104zM166 1112h733l346 346h-733zM578 1239l116 117l176 -2l-116 -115h-176zM686 1458v74l162 162h376v-236 h-538zM706 1479h342v39h-342v-39zM707 1260h36l78 73h-114v-73zM721 1538h333l136 135h-332zM843 1569l76 78h148l-78 -78h-146zM926 965h114l346 346h-114zM934 1589h47l37 37h-84v-37z" />
<glyph unicode="&#xe6;" horiz-adv-x="1980" d="M-10 -6v969l514 516h1384l-2 -1114l-368 -371h-920v160l-158 -160h-450zM10 14h410v897h198v-897h3h882v357h-479v540h483v181h-1355v-144l-142 -2v-932zM25 967h106v104zM166 1112h1347l129 127h-464l114 115h459l102 104h-1343zM575 1239l117 115h176l-114 -115h-179z M707 1260h36l74 73h-110v-73zM1059 391h450l222 223h-449zM1286 633h457l2 700h-438v-73h370v-213l-155 -156h-236v-258zM1528 926l129 129v170l-129 -127v-172z" />
<glyph unicode="&#xe7;" horiz-adv-x="1339" d="M-10 360v748l368 371h889v-1108l-205 -205v-199l-337 -338h-361v205l168 168h-162zM10 369l348 -346h174v-205h-167v-168h321v373h176v358h-450v713h-402v-725zM25 1114h391l239 242h455l102 102h-841zM379 -162h133l2 137zM446 401h422l219 217h-423zM670 639h432v696 h-432v-696z" />
<glyph unicode="&#xe8;" horiz-adv-x="1370" d="M-10 -6v1112l372 373h916v-1114l-371 -371h-917zM10 14h883v357h-479v540h483v181h-887v-1078zM25 1112h878l127 127h-463l115 115h459l102 104h-872zM449 391h450l221 221l-450 2zM502 1458v68l164 164l448 -113l2 -119h-614zM522 1479h525v32h-525v-32zM537 1532h518 l28 33l-411 104zM676 633h457v700h-437v-73h371v-213l-156 -156h-235v-258z" />
<glyph unicode="&#xe9;" horiz-adv-x="1370" d="M-10 -6v1112l372 373h916v-1114l-371 -371h-917zM10 14h883v357h-479v540h483v181h-887v-1078zM25 1112h878l127 127h-463l115 115h459l102 104h-872zM449 391h450l221 221l-450 2zM553 1458v68l57 59l664 109v-236h-721zM573 1479h525v34l-525 -2v-32zM588 1532l514 2 l133 133l-615 -100zM676 633h457v700h-437v-73h371v-213l-156 -156h-235v-258z" />
<glyph unicode="&#xea;" horiz-adv-x="1370" d="M-10 -6v1112l372 373h916v-1114l-371 -371h-917zM10 14h883v357h-479v540h483v181h-887v-1078zM25 1112h878l127 127h-463l115 115h459l102 104h-872zM449 391h450l221 221l-450 2zM553 1458v76l321 160h242v-236h-563zM573 1477h164v41h-164v-41zM606 1538h139l183 92 v-92h167l-2 135h-215zM676 633h457v700h-437v-73h371v-213l-156 -156h-235v-258zM928 1479h167v39h-167v-39z" />
<glyph unicode="&#xeb;" horiz-adv-x="1370" d="M-10 -6v1112l372 373h916v-1114l-371 -371h-917zM10 14h883v357h-479v540h483v181h-887v-1078zM25 1112h878l127 127h-463l115 115h459l102 104h-872zM449 391h450l221 221l-450 2zM557 1458v72l162 162h206v-148l146 148h207v-234h-721zM577 1479h174v37h-174v-37z M592 1536h165l134 135h-164zM676 633h457v700h-437v-73h371v-213l-156 -156h-235v-258zM925 1479h177v37h-177v-37zM946 1536h162l135 135h-164z" />
<glyph unicode="&#xec;" horiz-adv-x="911" d="M-10 -6v1110l377 375h456v-1108l-377 -377h-456zM-10 -6v1110l377 375h456v-1108l-377 -377h-456zM10 14h422v1076h-422v-1076zM10 14h422v1076h-422v-1076zM25 1110h411l350 348h-411zM25 1110h411l350 348h-411zM297 1380v146l164 164l450 -115v-1165l-49 -52h-61v1098 h-428zM317 1430l48 47h456v-1098h21v1132h-525v-81zM332 1532h514l33 33l-412 102z" />
<glyph unicode="&#xed;" horiz-adv-x="911" d="M-10 -6v1110l377 375h456v-1108l-377 -377h-456zM10 14h422v1076h-422v-1076zM25 1110h411l350 348h-411zM297 1380v146l57 59l664 107v-1170l-162 -164h-57v1098h-426zM317 1430l48 47h454v-1098h23v1132h-525v-81zM332 1532h514l133 133l-614 -100z" />
<glyph unicode="&#xee;" horiz-adv-x="911" d="M-10 -6v1110l377 375h456v-1108l-377 -377h-456zM-10 -6v1110l377 375h456v-1108l-377 -377h-456zM10 14h422v1076h-422v-1076zM10 14h422v1076h-422v-1076zM25 1110h411l350 348h-411zM25 1110h411l350 348h-411zM358 1458v76l322 160h242l2 -1223l-125 -123v1110h-441z M379 1479h164v39h-164v-39zM412 1538h139l182 90v-90h168l-2 135h-215zM733 1479h86v-1082l82 82v1039h-168v-39z" />
<glyph unicode="&#xef;" horiz-adv-x="911" d="M-10 -6v1110l377 375h456v-1108l-377 -377h-456zM10 14h422v1076h-422v-1076zM25 1110h411l350 348h-411zM358 1458v72l164 162h205v-148l147 148h205v-1166l-157 -159v-7h-4l-17 -14v14h-100v1096h-94zM379 1479h170v37h-170v-37zM393 1536h162l137 135h-162zM727 1477 h94v-1096h80v1135h-174v-39zM748 1536h159l137 135h-159z" />
<glyph unicode="&#xf0;" horiz-adv-x="1478" d="M-10 891v207l162 162h92l219 219h778l143 -146v-958l-380 -381h-914v897h-100zM10 911h101v-897h888l138 140v938h-424v-721h-199v540h88v181h-592v-181zM33 1112h575l129 127h-94l121 117h209l-246 -244h416l217 217l-129 129h-760l-217 -219h-92zM551 391h141v141z M774 1188l150 147h-150v-147z" />
<glyph unicode="&#xf1;" horiz-adv-x="1492" d="M-10 -6v1112l372 373h1039l-2 -1112l-373 -373h-428v176l-180 -176h-428zM10 14h389v1078h-389v-1078zM25 1112h381l241 242h227l-241 -242h385l348 346h-995zM604 1458v70l164 164h233l64 -60l61 60h199v-234h-721zM621 14h391v1078h-391v-1078zM624 1479h164v37h-164 v-37zM639 1536h157l88 88l90 -88h179l135 135h-156l-67 -67l-72 67h-217zM664 1169l163 164h-163v-164zM895 1479h63v43l-63 63v-106zM979 1479h167v37h-167v-37z" />
<glyph unicode="&#xf2;" horiz-adv-x="1507" d="M-10 -8v1116l372 371h1057v-1114l-370 -371zM10 12h1022v1082l-395 -2l2 -754h-209v754h-420v-1080zM27 1112h411l238 240h215l-240 -240l387 2l346 344h-1013zM465 358h153v152zM604 1458v68l164 164l448 -113l2 -119h-614zM624 1479h525v32h-525v-32zM639 1532h518 l28 33l-411 104zM690 1178l152 153h-152v-153z" />
<glyph unicode="&#xf3;" horiz-adv-x="1507" d="M-10 -8v1116l372 371h1057v-1114l-370 -371zM10 12h1022v1082l-395 -2l2 -754h-209v754h-420v-1080zM27 1112h411l238 240h215l-240 -240l387 2l346 344h-1013zM465 358h153v152zM690 1178l152 153h-152v-153zM690 1458v68l57 59l664 109v-236h-721zM710 1479h525v34 l-525 -2v-32zM725 1532l514 2l133 133l-615 -100z" />
<glyph unicode="&#xf4;" horiz-adv-x="1507" d="M-10 -8v1116l372 371h1057v-1114l-370 -371zM10 12h1022v1082l-395 -2l2 -754h-209v754h-420v-1080zM27 1112h411l238 240h215l-240 -240l387 2l346 344h-1013zM465 358h153v152zM604 1458v76l321 160h242v-236h-563zM624 1477h164v41h-164v-41zM657 1538h139l183 92v-92 h167l-2 135h-215zM690 1178l152 153h-152v-153zM979 1479h167v39h-167v-39z" />
<glyph unicode="&#xf5;" horiz-adv-x="1507" d="M-10 -8v1116l372 371h1057v-1114l-370 -371zM10 12h1022v1082l-395 -2l2 -754h-209v754h-420v-1080zM27 1112h411l238 240h215l-240 -240l387 2l346 344h-1013zM465 358h153v152zM690 1178l152 153h-152v-153z" />
<glyph unicode="&#xf6;" horiz-adv-x="1507" d="M-10 -8v1116l372 371h1057v-1114l-370 -371zM10 12h1022v1082l-395 -2l2 -754h-209v754h-420v-1080zM27 1112h411l238 240h215l-240 -240l387 2l346 344h-1013zM465 358h153v152zM604 1458v72l162 162h206v-148l146 148h207v-234h-721zM624 1479h174v37h-174v-37z M639 1536h165l134 135h-164zM690 1178l152 153h-152v-153zM972 1479h177v37h-177v-37zM993 1536h162l135 135h-164z" />
<glyph unicode="&#xf8;" horiz-adv-x="1511" d="M-10 -4v1112l370 371h1057v-1112l-370 -373zM10 16l1022 -2v1082h-411l-191 -191v189h-420v-1078zM25 1114h411l242 240h205l-238 -238h393l342 342h-1011zM430 342v336l197 196l2 -532h-199zM465 362h143l-2 142zM692 1190l144 143h-144v-143z" />
<glyph unicode="&#xf9;" horiz-adv-x="1509" d="M-10 -6v1114l370 373l457 -2l-2 -162l164 164h438v-1123l-364 -364h-1063zM-10 -6v1114l370 373l457 -2l-2 -162l164 164h438v-1123l-364 -364h-1063zM10 14h1022v1080h-403l2 -754h-201v754h-420v-1080zM10 14h1022v1080h-403l2 -754h-201v754h-420v-1080zM25 1114h411 l346 346h-411zM25 1114h411l346 346h-411zM465 360h145v144zM465 360h145v144zM604 1460v66l164 164l453 -115v-115h-232l-192 -192v192h-193zM625 1481h192v-164l162 164h170v30h-524v-30zM639 1532h514l33 33l-412 104zM643 1114h393l346 346h-393zM643 1114h393l346 346 h-393z" />
<glyph unicode="&#xfa;" horiz-adv-x="1509" d="M-10 -6v1114l370 373l457 -2l-2 -162l164 164h438v-1123l-364 -364h-1063zM10 14h1022v1080h-403l2 -754h-201v754h-420v-1080zM25 1114h411l346 346h-411zM465 360h145v144zM643 1114h393l346 346h-393zM696 1460v64l58 59l663 107v-230l-430 -2l-188 -188l-4 188z M717 1481h98l2 -162l162 162h262v32l-524 -4v-28zM731 1532l514 2l133 129l-614 -98z" />
<glyph unicode="&#xfb;" horiz-adv-x="1509" d="M-10 -6v1114l370 373l457 -2l-2 -162l164 164h438v-1123l-364 -364h-1063zM10 14h1022v1080h-403l2 -754h-201v754h-420v-1080zM25 1114h411l346 346h-411zM465 360h145v144zM614 1460v74l322 160h240l2 -234h-195l-186 -192v192h-183zM635 1481h164v37h-164v-37z M643 1114h393l346 346h-393zM668 1538h139l182 90v-90h168v135h-217zM989 1481h168v37h-168v-37z" />
<glyph unicode="&#xfc;" horiz-adv-x="1509" d="M-10 -6v1114l370 373l457 -2l-2 -162l164 164h438v-1123l-364 -364h-1063zM10 14h1022v1080h-403l2 -754h-201v754h-420v-1080zM25 1114h411l346 346h-411zM465 360h145v144zM604 1460v70l162 162h207v-148l145 148h207v-232h-338l-14 -16l-176 -176l-2 192h-191z M625 1481h170v35h-170v-35zM639 1536h162l135 135h-162zM643 1114h393l346 346h-393zM973 1475l6 6h168v35h-174v-41zM993 1536h160l135 135h-160z" />
<glyph unicode="&#xfd;" horiz-adv-x="1497" d="M-10 862l2 246l370 371h433l-2 -185l186 185l426 2v-230l-309 -309v-573l-379 -375h-455v598zM-10 862l2 246l370 371h433l-2 -185l186 185l426 2v-230l-309 -309v-573l-379 -375h-455v598zM10 1092l2 -224l271 -268v-586h419v566l314 311v203l-391 -2v-224h-219v226z M10 1092l2 -224l271 -268v-586h419v566l314 311v203l-391 -2v-224h-219v226zM27 1112l385 2l344 344h-385zM27 1112l385 2l344 344h-385zM442 889h162v162zM442 889h162v162zM614 1458v66l58 59l663 107v-230l-348 -2l-215 -211v211h-158zM635 1479h160l-2 -185l186 187 l180 -2v32l-524 -2v-30zM639 1112l385 2l346 346l-383 -2zM639 1112l385 2l346 346l-383 -2zM649 1530l514 2l133 131l-614 -98zM1180 1479z" />
<glyph unicode="&#xfe;" horiz-adv-x="1400" d="M-10 -6v1114l370 369h459l2 -111h490l-2 -661l-258 -261h-228v-77l-374 -373h-459zM10 14h422v453l604 -2v625h-424v-435h-180v435h-422v-1076zM25 1112h413l156 158h184l-157 -158h421l234 234h-604l112 110h-415zM467 676h121v121zM606 1126l123 123l-123 -2v-121z" />
<glyph unicode="&#xff;" horiz-adv-x="1497" d="M-10 862l2 246l370 371h433l-2 -185l186 185l426 2v-230l-309 -309v-573l-379 -375h-455v598zM10 1092l2 -224l271 -268v-586h419v566l314 311v203l-391 -2v-224h-219v226zM27 1112l385 2l344 344h-385zM442 889h162v162zM580 1458v72l163 162h205v-148l146 148h206v-230 l-313 -4l-213 -209l-2 209h-192zM600 1479h170v37h-170v-37zM614 1536h162l135 135h-159zM639 1112l385 2l346 346l-383 -2zM948 1450l31 31l143 -2v37h-174v-66zM969 1536h159l138 135h-162z" />
<glyph unicode="&#x152;" horiz-adv-x="1990" d="M-10 -6v1118l364 367h1544v-1114l-370 -371h-1538zM10 14h1503v357h-479v540h484v181h-889v-750h-199v752h-420v-1080zM25 1114h409l242 244h209l-242 -244h6l-4 -2h879l129 127h-463l113 115h458l103 104h-1497zM465 362h143v142zM690 1196l146 141h-146v-141zM1069 391 h451l221 221l-451 2zM1296 633h459v700h-436v-73h369v-213l-156 -156h-236v-258z" />
<glyph unicode="&#x153;" horiz-adv-x="1990" d="M-10 -6v1118l364 367h1544v-1114l-370 -371h-1538zM10 14h1503v357h-479v540h484v181h-889v-750h-199v752h-420v-1080zM25 1114h409l242 244h209l-242 -244h6l-4 -2h879l129 127h-463l113 115h458l103 104h-1497zM465 362h143v142zM690 1196l146 141h-146v-141zM1069 391 h451l221 221l-451 2zM1296 633h459v700h-436v-73h369v-213l-156 -156h-236v-258z" />
<glyph unicode="&#x178;" horiz-adv-x="1497" d="M-10 862l2 246l370 371h433l-2 -185l186 185l426 2v-230l-309 -309v-573l-379 -375h-455v598zM10 1092l2 -224l271 -268v-586h419v566l314 311v203l-391 -2v-224h-219v226zM27 1112l385 2l344 344h-385zM442 889h162v162zM580 1458v72l163 162h205v-148l146 148h206v-230 l-313 -4l-213 -209l-2 209h-192zM600 1479h170v37h-170v-37zM614 1536h162l135 135h-159zM639 1112l385 2l346 346l-383 -2zM948 1450l31 31l143 -2v37h-174v-66zM969 1536h159l138 135h-162z" />
<glyph unicode="&#x2c6;" horiz-adv-x="645" d="M-10 1458v76l321 160h242v-236h-563zM10 1477h164v41h-164v-41zM43 1538h139l183 92v-92h167l-2 135h-215zM365 1479h167v39h-167v-39z" />
<glyph unicode="&#x2dc;" horiz-adv-x="802" d="M-10 1458v70l164 164h233l64 -60l61 60h199v-234h-721zM10 1479h164v37h-164v-37zM25 1536h157l88 88l90 -88h179l135 135h-156l-67 -67l-72 67h-217zM281 1479h63v43l-63 63v-106zM365 1479h167v37h-167v-37z" />
<glyph unicode="&#x2000;" horiz-adv-x="1024" />
<glyph unicode="&#x2001;" horiz-adv-x="2048" />
<glyph unicode="&#x2002;" horiz-adv-x="1024" />
<glyph unicode="&#x2003;" horiz-adv-x="2048" />
<glyph unicode="&#x2004;" horiz-adv-x="682" />
<glyph unicode="&#x2005;" horiz-adv-x="512" />
<glyph unicode="&#x2006;" horiz-adv-x="341" />
<glyph unicode="&#x2007;" horiz-adv-x="341" />
<glyph unicode="&#x2008;" horiz-adv-x="256" />
<glyph unicode="&#x2009;" horiz-adv-x="409" />
<glyph unicode="&#x200a;" horiz-adv-x="113" />
<glyph unicode="&#x2010;" horiz-adv-x="1064" d="M-10 565v350l372 371h611v-354l-371 -367h-612zM10 586h578v315h-578v-315zM25 922h569l346 344h-569z" />
<glyph unicode="&#x2011;" horiz-adv-x="1064" d="M-10 565v350l372 371h611v-354l-371 -367h-612zM10 586h578v315h-578v-315zM25 922h569l346 344h-569z" />
<glyph unicode="&#x2012;" horiz-adv-x="1064" d="M-10 565v350l372 371h611v-354l-371 -367h-612zM10 586h578v315h-578v-315zM25 922h569l346 344h-569z" />
<glyph unicode="&#x2013;" horiz-adv-x="1570" d="M-10 565v353l370 370h1119v-352l-371 -371h-1118zM10 586h1084v319h-1084v-319zM25 926h1073l344 342h-1073z" />
<glyph unicode="&#x2014;" horiz-adv-x="2082" d="M-10 567v353l370 370l1631 2v-354l-373 -371h-1628zM10 588h1596v319l-1596 -2v-317zM25 926l1587 2l342 344l-1585 -2z" />
<glyph unicode="&#x2018;" horiz-adv-x="915" d="M-10 737v353l626 626l-2 -231l209 2v-352l-397 -398h-436zM10 758h398l-2 315l-205 2v195l-191 -189v-323zM236 1094h176l372 372l-176 -2z" />
<glyph unicode="&#x2019;" horiz-adv-x="915" d="M-10 731v352l395 397h438v-352l-624 -622l2 227zM10 751l211 2l-2 -198l193 190l-2 324h-400v-318zM25 1089h391l370 371h-393z" />
<glyph unicode="&#x201a;" horiz-adv-x="915" d="M-10 -6v352l395 397h438v-352l-624 -622l2 227zM10 14l211 2l-2 -198l193 190l-2 324h-400v-318zM25 352h391l370 371h-393z" />
<glyph unicode="&#x201c;" horiz-adv-x="1529" d="M-10 737v350l626 629v-231l207 2v-207l-198 -199v-145l-199 -199h-436zM10 758h402v317h-211v197l-191 -191v-323zM240 1096h178l370 370l-178 -2zM604 737v353l627 626l-2 -231l209 2v-352l-398 -398h-436zM625 758h397l-2 315l-205 2v195l-190 -189v-323zM850 1094h176 l373 372l-176 -2z" />
<glyph unicode="&#x201d;" horiz-adv-x="1529" d="M-10 731v352l397 398h436l-2 -209l-196 -197v-141l-426 -426v223h-209zM10 752h209v-195l193 191l-2 321h-400v-317zM23 1090h393l370 370h-393zM604 731v352l395 398h439v-353l-625 -622l2 227zM625 752l211 2l-2 -199l192 190l-2 324h-399v-317zM639 1090h391l371 370 h-393z" />
<glyph unicode="&#x201e;" horiz-adv-x="1529" d="M-10 -6v352l397 398h436l-2 -209l-196 -197v-141l-426 -426v223h-209zM10 15h209v-195l193 191l-2 321h-400v-317zM23 353h393l370 370h-393zM604 -6v352l395 398h439v-353l-625 -622l2 227zM625 15l211 2l-2 -199l192 190l-2 324h-399v-317zM639 353h391l371 370h-393z " />
<glyph unicode="&#x2022;" horiz-adv-x="1069" d="M-10 315v613l377 377h610v-617l-375 -373h-612zM10 336h578v577h-578v-577zM25 934h569l350 350h-569z" />
<glyph unicode="&#x2026;" horiz-adv-x="2144" d="M-10 -4v348l401 401h432v-184l183 184h432v-213l-199 -198v-137l-203 -201h-432v182l-180 -182h-434zM10 16h398v316l-398 -2v-314zM27 350l387 2l374 373h-389zM625 16h397v316l-397 -2v-314zM639 350l389 2l375 373h-389zM1219 -4v348l401 401h432v-348l-401 -401h-432 zM1219 -4v348l401 401h432v-348l-401 -401h-432zM1239 16h397v314h-397v-314zM1239 16h397v314h-397v-314zM1253 350h389l375 375h-389zM1253 350h389l375 375h-389z" />
<glyph unicode="&#x202f;" horiz-adv-x="409" />
<glyph unicode="&#x2039;" horiz-adv-x="927" d="M-8 451v178l842 841v-331l-230 -228l232 -233v-307l-383 -383zM12 459l430 -432v276l-237 238l237 237v275l-430 -432v-162zM233 541l222 -222l356 357l-221 221z" />
<glyph unicode="&#x203a;" horiz-adv-x="925" d="M-10 -20v331l229 230l-229 229v307l381 383l463 -465v-172zM10 29l432 432v160l-432 432v-277l238 -235l-238 -238v-274zM14 1077l439 -438l354 354l-436 439z" />
<glyph unicode="&#x205f;" horiz-adv-x="512" />
<glyph unicode="&#xe000;" horiz-adv-x="1484" d="M0 0v1485h1485v-1485h-1485z" />
</font>
</defs>
</svg>
