<?xml version="1.0" standalone="no"?>
<!DOCTYPE svg PUBLIC "-//W3C//DTD SVG 1.1//EN" "http://www.w3.org/Graphics/SVG/1.1/DTD/svg11.dtd" >
<svg xmlns="http://www.w3.org/2000/svg">
<metadata></metadata>
<defs>
<font id="swiss_721blackcondensed" horiz-adv-x="1024" >
<font-face units-per-em="2048" ascent="1638" descent="-410" />
<missing-glyph horiz-adv-x="548" />
<glyph horiz-adv-x="2048" />
<glyph horiz-adv-x="2048" />
<glyph unicode="&#xd;" horiz-adv-x="681" />
<glyph unicode=" "  horiz-adv-x="548" />
<glyph unicode="&#x09;" horiz-adv-x="548" />
<glyph unicode="&#xa0;" horiz-adv-x="548" />
<glyph unicode="!" horiz-adv-x="677" d="M160 1133v407h358v-407l-82 -625h-186zM166 0v352h352v-352h-352z" />
<glyph unicode="&#x22;" horiz-adv-x="757" d="M68 877v563h258v-563h-258zM430 877v563h260v-563h-260z" />
<glyph unicode="#" horiz-adv-x="1574" d="M-6 350l100 271h254l74 213h-258l98 270h258l129 366h289l-129 -366h227l129 366h289l-129 -366h256l-100 -270h-252l-76 -213h258l-100 -271h-254l-131 -366h-289l131 366h-227l-131 -366h-289l131 366h-258zM629 621h239l78 213h-239z" />
<glyph unicode="$" horiz-adv-x="1097" d="M66 485v7h280q0 -6 -1 -18.5t-1 -16.5q0 -176 135 -205v379q-389 141 -389 471q0 170 93 278.5t261 128.5v131h189v-129q360 -41 371 -426h-275q-12 186 -125 187h-4v-344q223 -82 321.5 -193.5t98.5 -294.5q0 -381 -387 -428v-198h-189v198q-186 16 -282 137t-96 336z M365 1135q-1 -99 122 -156v295q-123 -23 -122 -139zM594 254q133 27 133 168q0 104 -133 164v-332z" />
<glyph unicode="%" horiz-adv-x="1691" d="M80 1149q0 215 75.5 308t258 93t258.5 -93t76 -308t-76 -309.5t-258.5 -94.5t-258 94.5t-75.5 309.5zM322 1149q0 -115 19 -163t72.5 -48t73 48t19.5 163q0 113 -19.5 161t-73 48t-72.5 -48t-19 -161zM379 -29l739 1579h195l-738 -1579h-196zM944 373q0 215 76 309 t258 94t258 -94t76 -309t-76 -308.5t-258 -93.5t-258 93.5t-76 308.5zM1186 372.5q0 -114.5 19.5 -161.5t72.5 -47t73.5 48t20.5 160.5t-20.5 162t-73.5 49.5t-72.5 -48.5t-19.5 -163z" />
<glyph unicode="&#x26;" horiz-adv-x="1355" d="M92 420q0 150 65.5 265.5t211.5 227.5q-113 168 -113 316q0 152 108.5 251t280.5 99t274.5 -90t102.5 -240q0 -233 -252 -389l152 -246q43 102 49 203h268q-8 -248 -143 -479l213 -338h-361l-57 78q-158 -115 -346 -115q-203 0 -328 127t-125 330zM410 453 q0 -90 51 -147.5t133 -57.5q61 -1 145 65l-225 357q-104 -100 -104 -217zM539 1255q-1 -78 75 -176q115 78 115 174q0 43 -26.5 69t-71.5 26q-41 0 -66.5 -26t-25.5 -67z" />
<glyph unicode="'" horiz-adv-x="393" d="M68 877v563h258v-563h-258z" />
<glyph unicode="(" horiz-adv-x="688" d="M156 575q0 508 233 967h250q-178 -465 -178 -954q0 -477 166 -977h-250q-221 487 -221 964z" />
<glyph unicode=")" horiz-adv-x="688" d="M61 1542h250q233 -459 234 -967q0 -477 -221 -964h-252q168 508 168 977q0 489 -179 954z" />
<glyph unicode="*" d="M78 1149l65 203l267 -97v285h200v-285l267 95l69 -205l-282 -74l192 -240l-174 -124l-172 251l-174 -247l-172 118l194 242z" />
<glyph unicode="+" horiz-adv-x="1705" d="M254 475v273h459v473h280v-473h459v-273h-459v-475h-280v475h-459z" />
<glyph unicode="," horiz-adv-x="550" d="M100 0v352h353v-278q0 -199 -80 -291t-271 -105v125q188 16 189 197h-191z" />
<glyph unicode="-" horiz-adv-x="796" d="M86 424v309h625v-309h-625z" />
<glyph unicode="." horiz-adv-x="550" d="M98 0v352h355v-352h-355z" />
<glyph unicode="/" horiz-adv-x="555" d="M-72 -190l488 1767h170l-488 -1767h-170z" />
<glyph unicode="0" horiz-adv-x="1097" d="M82 760q0 254 14.5 392t61.5 212q121 186 391 186q272 0 391 -188q76 -123 76 -535q0 -434 -37 -583q-31 -121 -147.5 -198t-282.5 -77q-276 0 -397 195q-41 68 -55.5 206t-14.5 390zM428 647q0 -233 20.5 -318t100.5 -85t100.5 85t20.5 318v250q0 115 -3 174 t-15.5 113.5t-37 74t-65.5 19.5q-80 0 -100.5 -85t-20.5 -321v-112v-113z" />
<glyph unicode="1" horiz-adv-x="1097" d="M133 1063v235h17q334 0 397 252h237v-1550h-344v1063h-307z" />
<glyph unicode="2" horiz-adv-x="1097" d="M72 0v25q0 174 80 346q29 61 59.5 112.5t67 98.5t58 70.5t63.5 66.5t51 51q78 82 109.5 120t63 106.5t31.5 142.5q0 147 -108 147q-74 0 -107.5 -63.5t-33.5 -196.5v-27h-320v41q0 248 122 380t349 132q207 0 322.5 -113.5t115.5 -316.5q0 -231 -207 -444 q-16 -16 -86.5 -86t-95 -97.5t-64.5 -83t-61 -108.5h510v-303h-919z" />
<glyph unicode="3" horiz-adv-x="1097" d="M86 465q0 6 1 22.5t1 22.5h322q4 -143 31.5 -207.5t90.5 -64.5q125 0 125 223q0 117 -57 168t-186 51q-33 0 -52 -2v242h33q127 0 182.5 50t55.5 163q0 158 -101 157q-63 0 -86.5 -50t-27.5 -173h-316v20q0 217 120 340t329 123q193 0 311.5 -110.5t118.5 -280.5 q0 -225 -219 -344q256 -100 256 -373q0 -223 -125 -348t-348 -125q-217 0 -338 130t-121 366z" />
<glyph unicode="4" horiz-adv-x="1097" d="M63 297v291l486 934h352v-961h133v-264h-133v-297h-330v297h-508zM330 561h280v617z" />
<glyph unicode="5" horiz-adv-x="1097" d="M96 444v29h320q4 -127 30.5 -181t94.5 -54q72 0 100.5 57t28.5 186q0 176 -27 246t-113 70q-94 0 -127 -109h-286l28 836h795v-277h-532l-11 -280q121 82 258 82q346 0 346 -525q0 -559 -456 -559q-217 0 -333 124t-116 355z" />
<glyph unicode="6" horiz-adv-x="1097" d="M88 743q0 236 12.5 370t51.5 222q100 215 411 215q201 0 313.5 -102t112.5 -287v-10h-327q-4 145 -105 145q-66 0 -90.5 -58t-24.5 -191q0 -70 2 -109q109 72 230 72q338 0 338 -486q0 -555 -457 -555q-221 0 -344 129q-80 84 -101.5 224.5t-21.5 420.5zM434 487 q0 -135 26.5 -194.5t96.5 -59.5q63 0 85 59.5t22 201t-25 199t-94 57.5q-66 0 -88.5 -61t-22.5 -202z" />
<glyph unicode="7" horiz-adv-x="1097" d="M92 1219v303h901v-262q-291 -516 -366 -1260h-355q53 543 392 1219h-572z" />
<glyph unicode="8" horiz-adv-x="1097" d="M94 432q1 274 189 391q-166 111 -166 320q0 190 113.5 298.5t318.5 108.5t318.5 -108.5t113.5 -298.5q0 -209 -166 -320q188 -117 189 -391q0 -219 -121 -341t-336 -122q-213 0 -333 122t-120 341zM426 461q0 -225 123 -225q125 0 125 225q0 119 -29 175t-94.5 56 t-95 -56t-29.5 -175zM432 1130q0 -86 34 -136t85 -50q53 0 87 50t34 136q0 84 -32 129.5t-89 45.5q-119 -1 -119 -175z" />
<glyph unicode="9" horiz-adv-x="1097" d="M80 991q0 559 455 559q221 0 344 -129q80 -84 101 -226t21 -419q0 -240 -11 -373t-52 -219q-100 -215 -412 -215q-203 0 -314.5 103.5t-111.5 296.5h328q4 -145 104 -146q66 0 90.5 58.5t24.5 191.5q0 70 -2 109q-113 -72 -229 -72q-336 0 -336 481zM426 1026 q0 -137 25.5 -196.5t89.5 -59.5q70 0 91 58.5t21 203.5q0 135 -26.5 194.5t-94.5 59.5q-61 0 -83.5 -61.5t-22.5 -198.5z" />
<glyph unicode=":" horiz-adv-x="598" d="M121 0v352h354v-352h-354zM121 788v353h354v-353h-354z" />
<glyph unicode=";" horiz-adv-x="598" d="M123 0v352h352v-278q0 -199 -80 -291t-270 -105v125q188 16 188 197h-190zM123 788v353h352v-353h-352z" />
<glyph unicode="&#x3c;" horiz-adv-x="1705" d="M264 471v281l1178 487v-301l-801 -328l801 -327v-299z" />
<glyph unicode="=" horiz-adv-x="1705" d="M254 240v272h1198v-272h-1198zM254 711v272h1198v-272h-1198z" />
<glyph unicode="&#x3e;" horiz-adv-x="1705" d="M264 -16v299l801 327l-801 328v301l1178 -487v-281z" />
<glyph unicode="?" horiz-adv-x="1009" d="M55 1075v10q0 223 121 342t348 119q201 0 316.5 -100t115.5 -268q0 -102 -47 -195.5t-143 -216.5q-94 -121 -113 -176q-16 -43 -16 -88v-17h-305q-6 37 -6 72q0 96 40 173t126 185q43 53 60 77t35.5 68t18.5 89q0 66 -30.5 102.5t-83.5 36.5q-55 0 -89 -47t-34 -131 q0 -6 1 -17.5t1 -17.5h-316zM309 0v350h350v-350h-350z" />
<glyph unicode="@" horiz-adv-x="2048" d="M70 520q0 356 219 617q150 176 361.5 271t461.5 95q387 0 626.5 -206.5t239.5 -532.5q0 -354 -264 -557q-143 -113 -328 -113q-215 0 -233 154q-113 -152 -289 -152q-344 0 -344 350q0 248 144.5 412t355.5 164q151 0 221 -111l49 82h242l-156 -626q-4 -20 -4 -31 q0 -49 47 -49q125 0 229.5 140t104.5 333q0 233 -173 379.5t-464 146.5q-287 0 -491 -141q-154 -109 -238 -269.5t-84 -349.5q0 -295 198.5 -469t536.5 -174q322 0 586 187l115 -160q-322 -240 -723 -240q-387 0 -649 211q-297 238 -297 639zM801 440q0 -74 30.5 -112.5 t86.5 -38.5q72 0 128.5 54.5t79.5 150.5l48 194q-16 143 -134 143q-96 0 -167.5 -116.5t-71.5 -274.5z" />
<glyph unicode="A" horiz-adv-x="1126" d="M14 0l336 1540h428l332 -1540h-360l-45 295h-283l-45 -295h-363zM459 573h207l-103 672z" />
<glyph unicode="B" horiz-adv-x="1187" d="M125 0v1540h387q147 0 232 -10t153 -51q168 -100 168 -326q0 -190 -166 -330q207 -104 207 -356q0 -215 -133 -352q-68 -72 -163 -93.5t-257 -21.5h-428zM485 272h31q227 0 227 211q0 98 -56 143.5t-177 45.5h-25v-400zM485 938h23q207 0 207 182q0 80 -50.5 124 t-142.5 44q-25 0 -37 -2v-348z" />
<glyph unicode="C" horiz-adv-x="1220" d="M94 770q0 246 16.5 385t69.5 221q129 201 424 201q506 0 506 -561v-15h-350q-2 154 -35 219.5t-115 65.5q-37 0 -62.5 -10t-43 -42t-26.5 -61.5t-13 -98t-5 -120t-1 -155.5v-29q0 -168 2 -238.5t16.5 -150.5t46 -104.5t86.5 -24.5q86 0 116 62.5t30 213.5v68h354 q2 -27 2 -78q0 -281 -123 -418t-379 -137q-299 0 -430 201q-53 82 -69.5 221t-16.5 385z" />
<glyph unicode="D" horiz-adv-x="1193" d="M125 0v1540h397q199 0 310.5 -32.5t179.5 -133.5q41 -61 61.5 -160.5t23.5 -183.5t3 -260t-3 -260t-23.5 -183.5t-61.5 -160.5q-68 -100 -179.5 -133t-310.5 -33h-397zM487 281q18 -2 52 -2q113 0 159 67q35 49 35 422v70q0 307 -33 352q-42 65 -161 65h-4q-32 0 -48 -2 v-972z" />
<glyph unicode="E" horiz-adv-x="1060" d="M125 0v1540h838v-299h-480v-283h443v-309h-443v-336h480v-313h-838z" />
<glyph unicode="F" horiz-adv-x="1050" d="M125 0v1540h840v-299h-478v-280h443v-310h-443v-651h-362z" />
<glyph unicode="G" horiz-adv-x="1179" d="M94 791q0 449 86 583q129 203 420 203q457 0 457 -492q0 -8 -1 -27.5t-1 -29.5h-342v19q0 131 -28 189t-93 58q-47 0 -73.5 -21.5t-40 -77.5t-16.5 -118.5t-3 -179.5v-258q0 -227 21.5 -309t105.5 -82q74 0 106.5 60.5t32.5 189.5q0 49 -2 77h-141v269h489v-844h-248 l-16 96q-104 -123 -268 -123q-193 0 -312 136q-84 94 -108.5 245.5t-24.5 436.5z" />
<glyph unicode="H" horiz-adv-x="1251" d="M125 0v1540h360v-582h281v582h360v-1540h-360v639h-281v-639h-360z" />
<glyph unicode="I" horiz-adv-x="610" d="M125 0v1540h360v-1540h-360z" />
<glyph unicode="J" horiz-adv-x="995" d="M18 440q0 51 2 78h332q0 -92 1 -130t9.5 -81t24.5 -56t47 -13q45 0 58.5 32.5t13.5 112.5v1157h360v-1014q0 -293 -53 -393q-92 -170 -358 -170q-236 0 -336.5 110.5t-100.5 366.5z" />
<glyph unicode="K" horiz-adv-x="1105" d="M125 0v1540h360v-639l269 639h368l-334 -674l342 -866h-378l-189 557l-78 -147v-410h-360z" />
<glyph unicode="L" horiz-adv-x="952" d="M125 0v1540h360v-1229h433v-311h-793z" />
<glyph unicode="M" horiz-adv-x="1634" d="M125 0v1540h504l137 -655q2 -8 7 -51t17.5 -130.5t24.5 -179.5q12 84 26.5 179.5t20.5 135.5t8 52l136 649h499v-1540h-340l31 1190l-244 -1190h-274l-244 1190l31 -1190h-340z" />
<glyph unicode="N" horiz-adv-x="1212" d="M125 0v1540h375l299 -950q-35 471 -35 708v242h321v-1540h-376l-301 979q41 -381 41 -719v-260h-324z" />
<glyph unicode="O" horiz-adv-x="1220" d="M94 770q0 246 16.5 385t69.5 221q131 201 430 201q297 0 428 -201q53 -82 70.5 -221t17.5 -385t-17 -385t-71 -221q-131 -201 -428 -201q-299 0 -430 201q-53 82 -69.5 221t-16.5 385zM461 631q0 -76 1 -117t5 -92t13 -75.5t26.5 -49.5t42 -34t61.5 -9t61.5 9t41 34 t26 49.5t13.5 76.5t5 91t1 117v278q0 80 -1 117t-5 90t-13.5 77t-26 49.5t-42 34.5t-62.5 9t-61.5 -9t-41 -34.5t-25.5 -49.5t-13 -76t-5 -91t-1 -117v-278z" />
<glyph unicode="P" horiz-adv-x="1167" d="M125 0v1540h354q170 0 271.5 -13.5t175.5 -60.5q174 -109 174 -399q0 -233 -123 -355t-363 -122h-127v-590h-362zM487 877q16 -2 48 -3q109 0 156.5 50.5t47.5 162.5q0 94 -52 134.5t-169 40.5h-31v-385z" />
<glyph unicode="Q" horiz-adv-x="1220" d="M92 770q0 248 16.5 387t69.5 219q129 199 430 199q299 0 428 -199q90 -137 90 -606q0 -303 -30.5 -456.5t-137.5 -237.5l127 -137l-206 -191l-197 217q-55 -6 -107 -6q-225 0 -344 131q-92 98 -115.5 245.5t-23.5 434.5zM459 631q0 -76 1 -117t5 -92t13 -75.5t26.5 -49.5 t42 -34t61.5 -9t61.5 9t41 34t25.5 49.5t13.5 76.5t5.5 91t1 117v278q0 80 -1 117t-5.5 90t-13.5 77t-25.5 49.5t-42 34.5t-62.5 9t-61.5 -9t-41 -34.5t-25.5 -49.5t-13 -76t-5 -91t-1 -117v-278z" />
<glyph unicode="R" horiz-adv-x="1200" d="M125 0v1540h405q174 0 272.5 -15.5t162.5 -66.5q131 -106 131 -321q0 -258 -191 -371q49 -23 82 -50.5t50.5 -53t27.5 -73.5t12 -79t4 -100q0 -29 1 -92.5t3 -87t6.5 -68.5t13.5 -67.5t25.5 -49.5t38.5 -45h-421q-27 94 -27 213q0 37 2 89t2 69q0 137 -36 191t-134 54 h-74v-616h-356zM481 899q8 0 23.5 -1t21.5 -1q111 0 158 45t47 152q0 100 -47 141t-158 41q-6 0 -21.5 -1t-23.5 -1v-375z" />
<glyph unicode="S" horiz-adv-x="1075" d="M74 438q0 27 4 84h330v-45q0 -123 28.5 -177t102.5 -54q57 0 90 39t33 108q0 27 -4.5 48.5t-16.5 42t-20.5 32.5t-33 31.5t-35.5 27t-45 30t-46 30.5q-90 61 -126 85.5t-85 66.5t-76 79q-78 113 -78 279q0 203 117 317.5t322 114.5q223 0 340.5 -113.5t117.5 -326.5 q0 -8 -1 -24.5t-1 -25.5h-323v19q0 205 -123 205q-49 0 -81 -36t-32 -97q0 -25 4 -44.5t17.5 -38t23.5 -31.5t36 -31.5t40 -28t51 -33t53 -33.5q10 -6 49 -31.5t50.5 -33t42 -28t43 -31.5t34 -30.5t36 -37t26.5 -35.5q68 -106 68 -267q0 -231 -120 -356t-343 -125 q-469 0 -469 475z" />
<glyph unicode="T" horiz-adv-x="999" d="M25 1241v299h952v-299h-303v-1241h-361v1241h-288z" />
<glyph unicode="U" horiz-adv-x="1220" d="M125 711v829h360v-965q0 -96 3.5 -143t14.5 -95t38.5 -66.5t72.5 -18.5q43 0 69 17.5t37 63.5t13 89t2 133v985h361v-983q0 -143 -11.5 -232t-50.5 -161q-109 -201 -430 -201q-152 0 -250 45t-155 146q-47 84 -60.5 207.5t-13.5 349.5z" />
<glyph unicode="V" horiz-adv-x="1146" d="M16 1540h381l133 -809q18 -121 43 -334q29 260 41 332l136 811h380l-350 -1540h-420z" />
<glyph unicode="W" horiz-adv-x="1656" d="M33 1540h362l82 -749q25 -227 35 -355q14 193 39 357l115 747h362l111 -745q4 -23 43 -359q20 250 32 350l82 754h363l-305 -1540h-389l-84 637q-20 170 -35 369q-14 -219 -35 -371l-80 -635h-391z" />
<glyph unicode="X" horiz-adv-x="1087" d="M14 0l330 758l-307 782h375l143 -457l141 457h383l-315 -782l323 -758h-387l-145 444l-156 -444h-385z" />
<glyph unicode="Y" horiz-adv-x="1050" d="M-14 1540h387l149 -487l150 487h391l-354 -887v-653h-369v653z" />
<glyph unicode="Z" d="M66 0v287l471 958h-433v295h832v-268l-473 -957h495v-315h-892z" />
<glyph unicode="[" horiz-adv-x="688" d="M174 -387v1927h457v-209h-166v-1509h166v-209h-457z" />
<glyph unicode="\" horiz-adv-x="555" d="M-72 1577h170l488 -1767h-170z" />
<glyph unicode="]" horiz-adv-x="688" d="M47 -178h166v1509h-166v209h457v-1927h-457v209z" />
<glyph unicode="^" horiz-adv-x="2048" d="M412 897l442 565h338l442 -565h-303l-307 309l-309 -309h-303z" />
<glyph unicode="_" d="M0 -201h1024v-282h-1024v282z" />
<glyph unicode="`" d="M180 1565h295l199 -285h-144z" />
<glyph unicode="a" horiz-adv-x="1069" d="M63 303q0 133 69 217t220 146q37 14 95.5 35.5t82 31.5t53 27.5t40 39t10.5 52.5q0 104 -101 104q-117 0 -116 -145v-8h-324q0 197 108.5 292t331.5 95q201 0 310 -72q82 -55 102.5 -127.5t20.5 -220.5v-446q0 -240 41 -324h-338l-19 106q-123 -129 -291 -129 q-137 0 -216 88.5t-79 237.5zM387 340q0 -55 28.5 -88t76.5 -33q76 0 105.5 50t29.5 159v129q-123 -35 -181.5 -86t-58.5 -131z" />
<glyph unicode="b" horiz-adv-x="1050" d="M111 0v1540h323v-489q86 133 228 133q80 0 134 -27t88 -72t51 -129t23.5 -176t6.5 -235q0 -332 -41 -420q-72 -158 -254 -158q-166 0 -260 160v-127h-299zM428 651q0 -246 17.5 -333t95.5 -87q63 0 79.5 61.5t16.5 223.5v31q0 115 -2 167t-11.5 105t-32 71.5t-59.5 18.5 q-61 0 -82.5 -59t-21.5 -199z" />
<glyph unicode="c" horiz-adv-x="1011" d="M78 577.5q0 331.5 94 471t336 139.5q211 0 311.5 -108.5t100.5 -338.5v-20h-312v33q0 102 -22.5 147t-75.5 45q-25 0 -43 -8t-29.5 -31.5t-17.5 -46t-9 -74t-4 -91.5t-1 -117q0 -211 17 -291t85 -80q98 0 98 194q0 8 -1 26t-1 28h318q0 -8 1 -23.5t1 -21.5 q0 -440 -416 -441q-242 0 -336 138.5t-94 470z" />
<glyph unicode="d" horiz-adv-x="1050" d="M88 545q0 143 6 235t23.5 176t51.5 129t88 72t134 27q141 0 227 -133v489h322v-1540h-297v127q-94 -160 -260 -160q-139 0 -217 94q-51 63 -64.5 168t-13.5 316zM414 567q0 -102 2 -150t11 -99.5t29.5 -69t55.5 -17.5q78 0 95.5 87.5t17.5 332.5q0 139 -22 198.5 t-83 59.5q-68 0 -87 -73.5t-19 -268.5z" />
<glyph unicode="e" horiz-adv-x="1019" d="M80 567q0 209 18.5 317.5t85.5 184.5q109 119 336.5 119t331.5 -129q53 -66 67.5 -150t14.5 -235v-139h-526q-4 -86 -5 -115q0 -117 25 -167t90 -50q111 0 111 147q0 15 -4 56h303v-29q0 -408 -422 -408q-223 0 -326 113q-61 70 -80.5 179.5t-19.5 305.5zM414 799 q0 -41 2 -64h217q4 49 4 68q0 166 -113 166q-59 0 -84.5 -40t-25.5 -130z" />
<glyph unicode="f" horiz-adv-x="671" d="M33 911v246h131q0 10 -1 29.5t-1 27.5q0 182 77.5 257t264.5 75q55 0 123 -6v-233q-14 2 -39 2q-55 0 -79 -26t-24 -87q0 -25 2 -39h140v-246h-140v-911h-323v911h-131z" />
<glyph unicode="g" horiz-adv-x="1042" d="M78 -51h319q0 -125 97 -125q68 0 90 43t22 151q0 33 -4 136q-119 -111 -237 -111q-174 0 -250 176q-37 88 -37 348q0 264 24 394q18 98 91 160.5t167 62.5q150 0 273 -156v129h295v-1036q0 -137 -13.5 -220t-60.5 -145q-111 -145 -375 -145q-401 0 -401 338zM403 647 q0 -197 16.5 -273.5t82 -76.5t84 63.5t18.5 221.5v47q0 57 -1 89t-4 69.5t-9 57t-17.5 38t-28 25.5t-40.5 7q-101 0 -101 -184v-84z" />
<glyph unicode="h" horiz-adv-x="1034" d="M102 0v1540h322v-506q82 145 260 146q135 0 196.5 -91.5t61.5 -281.5v-807h-321v715v62.5t-3.5 49t-7.5 43t-13 27.5t-23.5 19.5t-34.5 5.5q-53 0 -84 -51.5t-31 -147.5v-723h-322z" />
<glyph unicode="i" horiz-adv-x="540" d="M109 0v1157h321v-1157h-321zM109 1272v280h321v-280h-321z" />
<glyph unicode="j" horiz-adv-x="540" d="M6 -139q4 0 11.5 -1t9.5 -1q31 0 47 10t24 41t9.5 57.5t1.5 87.5v1102h321v-1065v-53q0 -150 -13.5 -227.5t-62.5 -128.5q-70 -70 -227 -70q-63 0 -121 8v240zM109 1272v280h321v-280h-321z" />
<glyph unicode="k" horiz-adv-x="1009" d="M109 0v1540h317v-762l254 379h324l-338 -442l344 -715h-324l-207 471l-53 -74v-397h-317z" />
<glyph unicode="l" horiz-adv-x="540" d="M109 0v1540h321v-1540h-321z" />
<glyph unicode="m" horiz-adv-x="1499" d="M109 0v1157h286v-137q100 160 267 160q162 0 225 -160q102 160 268 160q131 0 189.5 -91.5t58.5 -281.5v-807h-309v733q0 72 -3.5 105.5t-20.5 58.5t-54 25q-51 0 -81 -52.5t-30 -146.5v-723h-303v733q0 74 -3 106.5t-20.5 57.5t-54.5 25q-51 0 -80.5 -52.5t-29.5 -146.5 v-723h-305z" />
<glyph unicode="n" horiz-adv-x="1058" d="M111 0v1157h303v-137q104 160 280 160q135 0 196.5 -91.5t61.5 -281.5v-807h-321v715v62.5t-3 49t-7.5 43t-13.5 27.5t-23.5 19.5t-34.5 5.5q-53 0 -84 -51.5t-31 -147.5v-723h-323z" />
<glyph unicode="o" horiz-adv-x="1017" d="M78 578q0 330 94 470t336 140t336 -139.5t94 -470.5q0 -330 -94 -469.5t-336 -139.5t-336 138.5t-94 470.5zM406 578q0 -113 2 -168.5t12 -108.5t30.5 -71.5t57.5 -18.5q70 0 86 74.5t16 292.5q0 78 -1 117.5t-4 90t-9 74t-17.5 47t-29 31.5t-41.5 8q-68 0 -85 -76.5 t-17 -291.5z" />
<glyph unicode="p" horiz-adv-x="1048" d="M117 -389v1546h297v-131q92 158 260 158q141 0 217 -92q51 -63 64.5 -168t13.5 -316q0 -143 -5.5 -235t-23.5 -177t-51 -130.5t-87 -72t-134 -26.5q-141 0 -230 135v-491h-321zM432 500q0 -139 22 -198.5t83 -59.5q72 0 91 85t19 320q0 147 -21.5 210t-80.5 63 q-78 0 -95.5 -87.5t-17.5 -332.5z" />
<glyph unicode="q" horiz-adv-x="1050" d="M78 608q0 330 41 418q72 158 254 158q168 0 260 -158v131h299v-1546h-324v491q-88 -135 -227 -135q-80 0 -134 26.5t-88 72t-51.5 130.5t-23.5 177t-6 235zM406 602q0 -211 17 -285.5t87 -74.5q61 0 82.5 59t21.5 199q0 246 -17 333t-95 87q-59 0 -77.5 -57.5 t-18.5 -200.5v-60z" />
<glyph unicode="r" horiz-adv-x="708" d="M102 0v1157h297v-162q102 170 260 185v-367q-55 12 -96 12q-84 0 -111.5 -60t-27.5 -210v-555h-322z" />
<glyph unicode="s" horiz-adv-x="899" d="M39 338v29h289q8 -174 125 -174q49 0 79.5 28.5t30.5 73.5t-26.5 69.5t-90.5 55.5q-14 6 -61 28.5t-66.5 33t-55.5 29.5t-62.5 39.5t-48.5 45.5q-100 100 -101 246q0 156 106.5 251t291.5 95q190 0 292.5 -91t102.5 -259v-21h-283q-2 86 -26.5 124t-79.5 38 q-49 0 -78 -26.5t-29 -69.5q0 -14 2 -25.5t8.5 -22t11.5 -18.5t17 -17t19.5 -14.5t25 -13.5t26.5 -13t32.5 -15.5t33.5 -14.5q180 -80 256 -162t76 -231q0 -176 -108.5 -271.5t-307.5 -95.5q-190 0 -295.5 97.5t-105.5 271.5z" />
<glyph unicode="t" horiz-adv-x="675" d="M25 918v239h125v320h325v-320h154v-239h-154v-472q0 -133 16.5 -177t90.5 -44q10 0 47 4v-225q-112 -22 -173 -22h-5q-197 0 -263 120q-38 72 -38 275v10v531h-125z" />
<glyph unicode="u" horiz-adv-x="1058" d="M102 350v807h324v-715v-62.5t3 -49t7 -43t13.5 -27.5t23.5 -19t35 -5q53 0 84 51t31 147v723h321v-1157h-303v137q-104 -160 -279 -160q-137 0 -198.5 91.5t-61.5 281.5z" />
<glyph unicode="v" horiz-adv-x="897" d="M12 1157h324l113 -786l112 786h322l-256 -1157h-361z" />
<glyph unicode="w" horiz-adv-x="1349" d="M18 1157h314l90 -805l123 805h270l121 -805l92 805h313l-225 -1157h-336l-102 637l-100 -637h-336z" />
<glyph unicode="x" horiz-adv-x="874" d="M10 0l262 578l-247 579h317l98 -315l99 315h319l-248 -575l260 -582h-327l-103 326l-102 -326h-328z" />
<glyph unicode="y" horiz-adv-x="899" d="M16 1157h320l113 -745l114 745h320l-230 -1063q-61 -285 -138 -384t-271 -99q-51 0 -133 12v242q41 -4 55 -4q108 0 108 82q0 25 -30 170z" />
<glyph unicode="z" horiz-adv-x="813" d="M37 0v229l393 662h-367v266h713v-244l-389 -653h389v-260h-739z" />
<glyph unicode="{" d="M145 389v283q6 0 18.5 -1t16.5 -1q113 0 159 53t46 178v258q0 117 20.5 177.5t88.5 95.5q90 45 331 45h80v-285q-8 0 -22.5 1t-20.5 1q-92 0 -119.5 -32t-27.5 -126v-239q0 -129 -44 -186.5t-173 -80.5q129 -25 173 -81t44 -183v-241q0 -92 27.5 -124t117.5 -32 q6 0 21.5 1t23.5 1v-285h-80q-244 0 -331 45q-68 35 -88.5 94.5t-20.5 176.5v258q0 125 -46 178t-159 53q-4 0 -16 -1t-19 -1z" />
<glyph unicode="|" d="M373 -483v2048h280v-2048h-280z" />
<glyph unicode="}" d="M121 -131h43q92 0 119.5 31.5t27.5 124.5v241q0 127 44 183.5t173 80.5q-129 23 -173 80.5t-44 184.5v241q0 94 -27.5 126t-119.5 32q-6 0 -20.5 -1t-22.5 -1v285h80q242 0 329 -45q68 -35 89.5 -96.5t21.5 -176.5v-258q0 -125 46 -178t159 -53q4 0 16 1t19 1v-283 q-6 0 -18.5 1t-16.5 1q-113 0 -159 -53t-46 -178v-258q0 -115 -21.5 -176.5t-89.5 -96.5q-86 -43 -315 -43h-94v283z" />
<glyph unicode="~" horiz-adv-x="1705" d="M178 379v299q225 143 408 143q113 0 278 -53q20 -6 71.5 -24.5t78 -26.5t69.5 -16.5t80 -8.5q168 0 367 150v-299q-199 -133 -371 -133q-102 0 -266 57q-205 70 -332 70q-162 0 -383 -158z" />
<glyph unicode="&#xa1;" horiz-adv-x="677" d="M160 0v410l90 622h186l82 -622v-410h-358zM166 1190v350h352v-350h-352z" />
<glyph unicode="&#xa2;" horiz-adv-x="1097" d="M125 606q0 295 74.5 437.5t257.5 166.5v244h188v-242q322 -43 322 -440v-22h-312v32q0 102 -22.5 147.5t-75.5 45.5q-25 0 -43 -8.5t-29.5 -32t-17.5 -46t-9 -73.5t-4 -91t-1 -118q0 -217 17 -293.5t85 -76.5q96 0 96 196v51h318v-47q0 -199 -79 -306t-245 -128v-276 h-188v276q-188 27 -260 167t-72 437z" />
<glyph unicode="&#xa3;" horiz-adv-x="1097" d="M84 186q197 170 197 351q-1 45 -13 92h-184v178h121q-88 207 -88 323q0 188 124 302t337 114q211 0 324.5 -113.5t113.5 -324.5q0 -35 -2 -53h-312v12q0 115 -28.5 167t-95.5 52q-127 0 -127 -162q0 -106 63 -317h295v-178h-248q4 -29 4 -45q0 -182 -229 -375 q121 49 201 49q47 0 127.5 -21.5t117.5 -21.5q88 0 185 66l67 -238q-115 -82 -243 -82q-74 0 -198 34t-175 34q-98 0 -236 -64z" />
<glyph unicode="&#xa4;" horiz-adv-x="1097" d="M-2 588l49 139h127v121h-168l49 137h123q2 102 15 189q16 121 64 200.5t153 128.5q104 47 231 47q244 0 363 -147q76 -92 94 -289h-342q-4 49 -10.5 79t-32 57.5t-70.5 27.5q-72 0 -96 -70q-23 -53 -25 -223h393l-49 -137h-346v-121h303l-49 -139h-254q4 -221 25 -275 q25 -70 100 -69q66 0 94 69q14 41 21 164h342q-6 -92 -11.5 -141t-31 -121t-70.5 -117q-127 -129 -348 -129q-274 0 -397 195q-55 94 -68 424h-178z" />
<glyph unicode="&#xa5;" horiz-adv-x="1097" d="M18 602v180h289l-57 142h-232v180h160l-160 414h379l150 -557l158 557h374l-161 -414h159v-180h-233l-53 -142h286v-180h-356v-602h-344v602h-359z" />
<glyph unicode="&#xa6;" d="M373 -350v758h280v-758h-280zM373 674v758h280v-758h-280z" />
<glyph unicode="&#xa7;" d="M53 682q0 178 156 326q-82 106 -82 217q0 156 112.5 255t292.5 99q172 0 274.5 -94t102.5 -254h-286v6q0 51 -27 80t-72 29q-43 0 -72.5 -28t-29.5 -69t30.5 -78.5t100.5 -91.5l195 -151q223 -174 223 -353q0 -164 -164 -309q106 -104 106 -248q0 -164 -117.5 -267 t-314.5 -103q-193 0 -294 101.5t-101 289.5h289q0 -76 32.5 -119t86.5 -43q45 0 76.5 33t31.5 82q0 35 -23.5 68.5t-50 57t-92.5 75.5l-172 133q-111 86 -161 165.5t-50 190.5zM326 733q0 -61 98 -141l203 -166q59 55 59 104q0 29 -21.5 60t-44 50t-81.5 67l-152 120 q-61 -43 -61 -94z" />
<glyph unicode="&#xa8;" d="M213 1290v262h244v-262h-244zM567 1290v262h244v-262h-244z" />
<glyph unicode="&#xa9;" horiz-adv-x="1705" d="M102 741q0 309 224 537q211 215 526 215q317 0 537 -219q217 -217 217 -532.5t-217 -526.5q-229 -225 -537 -225q-305 0 -528 223q-221 221 -222 528zM256 743q0 -246 176 -422t422 -176q244 0 426 179q172 167 172 419q0 248 -174 422q-176 176 -424 176 q-252 0 -420 -172q-178 -182 -178 -426zM440 737q0 203 112 325t288 122q178 0 279.5 -80t109.5 -221h-242q-4 63 -39 99t-92 36q-72 0 -114 -70.5t-42 -202.5q0 -262 164 -262q121 0 127 144h248q-6 -150 -109.5 -238t-271.5 -88q-195 0 -306.5 115.5t-111.5 320.5z" />
<glyph unicode="&#xaa;" horiz-adv-x="802" d="M47 944q0 92 51.5 150.5t165.5 101.5q29 10 72 25.5t61.5 22.5t40 19.5t29.5 27t8 36.5q0 74 -76 74q-88 0 -88 -103v-6h-241q0 272 329 273q154 0 232 -52q61 -39 76.5 -89t15.5 -154v-312q0 -166 31 -227h-252l-15 74q-94 -90 -219 -90q-100 0 -160.5 62.5t-60.5 166.5 zM291 969q0 -39 21.5 -61.5t56.5 -22.5q57 0 79.5 34.5t22.5 110.5v90q-180 -45 -180 -151z" />
<glyph unicode="&#xab;" horiz-adv-x="1103" d="M113 434v295l372 238v-260l-200 -125l200 -136v-256zM608 434v295l375 238v-260l-203 -125l203 -136v-256z" />
<glyph unicode="&#xac;" horiz-adv-x="1705" d="M254 602v266h1198v-501h-272v235h-926z" />
<glyph unicode="&#xad;" horiz-adv-x="796" d="M86 424v309h625v-309h-625z" />
<glyph unicode="&#xae;" horiz-adv-x="1705" d="M102 741q0 309 224 537q211 215 526 215q317 0 537 -219q217 -217 217 -532.5t-217 -526.5q-229 -225 -537 -225q-305 0 -528 223q-221 221 -222 528zM256 743q0 -246 176 -422t422 -176q244 0 426 179q172 167 172 419q0 248 -174 422q-176 176 -424 176 q-252 0 -420 -172q-178 -182 -178 -426zM528 352v813h334q176 0 266.5 -61.5t90.5 -177.5q0 -162 -164 -219l178 -355h-279l-145 312h-25v-312h-256zM784 813h54q119 0 118 98q0 95 -133 95h-39v-193z" />
<glyph unicode="&#xaf;" d="M213 1341v162h598v-162h-598z" />
<glyph unicode="&#xb0;" horiz-adv-x="673" d="M14 1149q0 135 95.5 229.5t228.5 94.5t227 -94.5t94 -229.5q0 -131 -94 -226.5t-229 -95.5q-133 0 -227.5 93.5t-94.5 228.5zM186 1150.5q0 -63.5 44 -108.5t108 -45q61 0 106 46.5t45 107.5t-45 106.5t-108 45.5q-61 0 -105.5 -44.5t-44.5 -108z" />
<glyph unicode="&#xb1;" horiz-adv-x="1705" d="M254 -41v272h1198v-272h-1198zM254 680v272h459v310h280v-310h459v-272h-459v-309h-280v309h-459z" />
<glyph unicode="&#xb2;" horiz-adv-x="724" d="M47 608v15q0 102 53 208q18 37 39 68t45.5 58.5t36.5 42t42 42t34 29.5q51 49 72.5 71.5t42 63.5t20.5 86q0 88 -72 88q-92 0 -92 -155v-17h-211v25q0 150 80 228.5t232 78.5q135 0 211.5 -68.5t76.5 -189.5q0 -139 -137 -266q-16 -16 -57 -53t-61.5 -56.5t-45 -52.5 t-39.5 -63h336v-183h-606z" />
<glyph unicode="&#xb3;" horiz-adv-x="724" d="M57 887v26h213q2 -86 20.5 -123.5t61.5 -37.5q82 0 82 133q0 70 -38 100.5t-124 30.5h-32v143h20q84 0 121 30t37 99q0 94 -66 94q-43 0 -58 -30.5t-18 -102.5h-208v13q0 131 78.5 203.5t218.5 72.5q127 0 204.5 -65.5t77.5 -167.5q0 -137 -143 -207q168 -59 168 -224 q0 -133 -82 -208.5t-230 -75.5q-143 0 -223 77.5t-80 219.5z" />
<glyph unicode="&#xb4;" d="M350 1280l199 285h295l-350 -285h-144z" />
<glyph unicode="&#xb6;" d="M10 1130q0 156 105.5 252.5t283.5 96.5h615v-142h-101v-1337h-202v1337h-140v-1337h-202v784q-164 8 -261.5 103.5t-97.5 242.5z" />
<glyph unicode="&#xb7;" horiz-adv-x="550" d="M90 762q0 78 53.5 131t131 53t132 -53t54.5 -131t-54.5 -133.5t-132 -55.5t-131 54.5t-53.5 134.5z" />
<glyph unicode="&#xb8;" d="M270 -305q150 -33 232 -33t82 70q0 61 -113 61q-4 0 -17.5 -1t-19.5 -1v209h113v-82q106 0 164.5 -49t58.5 -139q0 -96 -64.5 -150.5t-181.5 -54.5q-143 0 -254 39v131z" />
<glyph unicode="&#xb9;" horiz-adv-x="724" d="M86 1245v141h12q219 0 262 152h156v-930h-227v637h-203z" />
<glyph unicode="&#xba;" horiz-adv-x="763" d="M59 1134.5q0 231.5 71 330t251 98.5q182 0 253 -98.5t71 -329.5q0 -229 -72 -326.5t-252 -97.5q-182 0 -252 96t-70 327.5zM305 1134.5q0 -151.5 12.5 -203.5t63.5 -52q53 0 65.5 52t12.5 203.5t-12.5 205t-65.5 53.5q-51 0 -63.5 -53.5t-12.5 -205z" />
<glyph unicode="&#xbb;" horiz-adv-x="1103" d="M121 190v259l201 126l-201 136v256l373 -244v-295zM616 190v259l203 126l-203 136v256l375 -244v-295z" />
<glyph unicode="&#xbc;" horiz-adv-x="1724" d="M84 1264v131h10q209 0 250 141h150v-868h-218v596h-192zM350 -31l854 1581h170l-854 -1581h-170zM1075 166v164l305 522h222v-539h84v-147h-84v-166h-207v166h-320zM1241 313h178v346z" />
<glyph unicode="&#xbd;" horiz-adv-x="1724" d="M84 1264v131h10q209 0 250 141h150v-868h-218v596h-192zM350 -31l854 1581h170l-854 -1581h-170zM1079 0v14q0 98 51 193q18 35 37 63.5t43.5 56t35.5 39t42 40.5l31 26q49 45 69.5 66.5t40 59.5t19.5 79q0 84 -70 84q-88 0 -88 -146v-16h-203v23q0 139 77 212.5 t220 73.5q131 0 204 -63.5t73 -175.5q0 -131 -129 -250q-12 -10 -55 -47t-60.5 -53.5t-42 -48t-37.5 -60.5h322v-170h-580z" />
<glyph unicode="&#xbe;" horiz-adv-x="1724" d="M53 928q0 4 1 13t1 11h203q2 -152 78 -151q78 0 78 125q0 66 -36 94.5t-118 28.5q-20 0 -31 -2v135h21q78 0 113.5 28.5t35.5 92.5q0 88 -63 88q-41 0 -55.5 -29t-16.5 -96h-201v10q0 123 76 191.5t207 68.5q121 0 196.5 -61.5t75.5 -157.5q0 -125 -139 -193 q162 -57 162 -209q0 -125 -78 -194.5t-219 -69.5q-137 0 -214 73t-77 204zM350 -31l854 1581h170l-854 -1581h-170zM1075 166v164l305 522h222v-539h84v-147h-84v-166h-207v166h-320zM1241 313h178v346z" />
<glyph unicode="&#xbf;" horiz-adv-x="1009" d="M53 362q0 102 47 195.5t144 216.5q47 59 66.5 89t40 79t20.5 98v17h307q6 -37 6 -72q0 -96 -40 -174t-126 -186q-43 -53 -60.5 -77t-36 -68t-18.5 -89q0 -66 31 -102.5t84 -36.5q55 0 89 48t34 132q0 6 -1 17.5t-1 17.5h315v-10q0 -223 -121.5 -343t-349.5 -120 q-201 0 -315.5 100.5t-114.5 267.5zM348 1190v350h352v-350h-352z" />
<glyph unicode="&#xc0;" horiz-adv-x="1126" d="M14 0l336 1540h428l332 -1540h-360l-45 295h-283l-45 -295h-363zM231 1954h295l199 -285h-144zM459 573h207l-103 672z" />
<glyph unicode="&#xc1;" horiz-adv-x="1126" d="M14 0l336 1540h428l332 -1540h-360l-45 295h-283l-45 -295h-363zM401 1669l199 285h295l-350 -285h-144zM459 573h207l-103 672z" />
<glyph unicode="&#xc2;" horiz-adv-x="1126" d="M14 0l336 1540h428l332 -1540h-360l-45 295h-283l-45 -295h-363zM246 1669l198 285h238l198 -285h-143l-174 150l-174 -150h-143zM459 573h207l-103 672z" />
<glyph unicode="&#xc3;" horiz-adv-x="1126" d="M14 0l336 1540h428l332 -1540h-360l-45 295h-283l-45 -295h-363zM241 1681q45 231 205 232q37 0 70 -8l129 -33q25 -6 51 -6q70 0 88 75h101q-20 -115 -76 -176t-137 -61q-33 0 -60 8l-137 35q-18 6 -41 6q-74 0 -92 -72h-101zM459 573h207l-103 672z" />
<glyph unicode="&#xc4;" horiz-adv-x="1126" d="M14 0l336 1540h428l332 -1540h-360l-45 295h-283l-45 -295h-363zM264 1679v262h244v-262h-244zM459 573h207l-103 672zM618 1679v262h244v-262h-244z" />
<glyph unicode="&#xc5;" horiz-adv-x="1126" d="M14 0l332 1518h432l332 -1518h-360l-45 295h-283l-45 -295h-363zM362 1771.5q0 83.5 58.5 142t142.5 58.5q82 0 140.5 -58.5t58.5 -142t-58.5 -142t-140.5 -58.5q-84 0 -142.5 58.5t-58.5 142zM459 573h207l-103 672zM481 1771.5q0 -32.5 24.5 -56t57.5 -23.5t55.5 23.5 t22.5 56.5q0 35 -21.5 56t-56.5 21t-58.5 -22.5t-23.5 -55z" />
<glyph unicode="&#xc6;" horiz-adv-x="1630" d="M-18 0l555 1540h995v-307h-455v-281h432v-309h-432v-336h463v-307h-815v346h-274l-97 -346h-372zM526 627h199v606h-27z" />
<glyph unicode="&#xc7;" horiz-adv-x="1220" d="M94 770q0 246 16.5 385t69.5 221q129 201 424 201q506 0 506 -561v-15h-350q-2 154 -35 219.5t-115 65.5q-37 0 -62.5 -10t-43 -42t-26.5 -61.5t-13 -98t-5 -120t-1 -155.5v-29q0 -168 2 -238.5t16.5 -150.5t46 -104.5t86.5 -24.5q86 0 116 62.5t30 213.5v68h354 q2 -27 2 -78q0 -281 -123 -418t-379 -137q-299 0 -430 201q-53 82 -69.5 221t-16.5 385zM354 -305q150 -33 232 -33t82 70q0 61 -113 61q-4 0 -17.5 -1t-19.5 -1v209h113v-82q106 0 164.5 -49t58.5 -139q0 -96 -64.5 -150.5t-181.5 -54.5q-143 0 -254 39v131z" />
<glyph unicode="&#xc8;" horiz-adv-x="1060" d="M125 0v1540h838v-299h-480v-283h443v-309h-443v-336h480v-313h-838zM213 1954h295l199 -285h-144z" />
<glyph unicode="&#xc9;" horiz-adv-x="1060" d="M125 0v1540h838v-299h-480v-283h443v-309h-443v-336h480v-313h-838zM383 1669l199 285h295l-350 -285h-144z" />
<glyph unicode="&#xca;" horiz-adv-x="1060" d="M125 0v1540h838v-299h-480v-283h443v-309h-443v-336h480v-313h-838zM228 1669l198 285h238l198 -285h-143l-174 150l-174 -150h-143z" />
<glyph unicode="&#xcb;" horiz-adv-x="1060" d="M125 0v1540h838v-299h-480v-283h443v-309h-443v-336h480v-313h-838zM246 1679v262h244v-262h-244zM600 1679v262h244v-262h-244z" />
<glyph unicode="&#xcc;" horiz-adv-x="610" d="M-27 1954h295l199 -285h-144zM125 0v1540h360v-1540h-360z" />
<glyph unicode="&#xcd;" horiz-adv-x="610" d="M125 0v1540h360v-1540h-360zM143 1669l199 285h295l-350 -285h-144z" />
<glyph unicode="&#xce;" horiz-adv-x="610" d="M-12 1669l198 285h238l198 -285h-143l-174 150l-174 -150h-143zM125 0v1540h360v-1540h-360z" />
<glyph unicode="&#xcf;" horiz-adv-x="610" d="M6 1679v262h244v-262h-244zM125 0v1540h360v-1540h-360zM360 1679v262h244v-262h-244z" />
<glyph unicode="&#xd0;" horiz-adv-x="1226" d="M0 674v260h137v606h416q199 0 310.5 -32.5t178.5 -133.5q41 -61 61.5 -160.5t23.5 -183.5t3 -260t-3 -260t-23.5 -183.5t-61.5 -160.5q-68 -100 -179 -133t-310 -33h-416v674h-137zM489 281q49 -4 70 -5q133 0 184 70q14 18 21.5 50t10.5 95.5t4 114.5t1 162v113 q0 264 -35 309q-49 68 -188 67q-18 0 -68 -4v-319h164v-260h-164v-393z" />
<glyph unicode="&#xd1;" horiz-adv-x="1212" d="M125 0v1540h375l299 -950q-35 471 -35 708v242h321v-1540h-376l-301 979q41 -381 41 -719v-260h-324zM303 1681q45 231 205 232q37 0 70 -8l129 -33q25 -6 51 -6q70 0 88 75h101q-20 -115 -76 -176t-137 -61q-33 0 -60 8l-137 35q-18 6 -41 6q-74 0 -92 -72h-101z" />
<glyph unicode="&#xd2;" horiz-adv-x="1220" d="M94 770q0 246 16.5 385t69.5 221q131 201 430 201q297 0 428 -201q53 -82 70.5 -221t17.5 -385t-17 -385t-71 -221q-131 -201 -428 -201q-299 0 -430 201q-53 82 -69.5 221t-16.5 385zM278 1954h295l199 -285h-144zM461 631q0 -76 1 -117t5 -92t13 -75.5t26.5 -49.5 t42 -34t61.5 -9t61.5 9t41 34t26 49.5t13.5 76.5t5 91t1 117v278q0 80 -1 117t-5 90t-13.5 77t-26 49.5t-42 34.5t-62.5 9t-61.5 -9t-41 -34.5t-25.5 -49.5t-13 -76t-5 -91t-1 -117v-278z" />
<glyph unicode="&#xd3;" horiz-adv-x="1220" d="M94 770q0 246 16.5 385t69.5 221q131 201 430 201q297 0 428 -201q53 -82 70.5 -221t17.5 -385t-17 -385t-71 -221q-131 -201 -428 -201q-299 0 -430 201q-53 82 -69.5 221t-16.5 385zM448 1669l199 285h295l-350 -285h-144zM461 631q0 -76 1 -117t5 -92t13 -75.5 t26.5 -49.5t42 -34t61.5 -9t61.5 9t41 34t26 49.5t13.5 76.5t5 91t1 117v278q0 80 -1 117t-5 90t-13.5 77t-26 49.5t-42 34.5t-62.5 9t-61.5 -9t-41 -34.5t-25.5 -49.5t-13 -76t-5 -91t-1 -117v-278z" />
<glyph unicode="&#xd4;" horiz-adv-x="1220" d="M94 770q0 246 16.5 385t69.5 221q131 201 430 201q297 0 428 -201q53 -82 70.5 -221t17.5 -385t-17 -385t-71 -221q-131 -201 -428 -201q-299 0 -430 201q-53 82 -69.5 221t-16.5 385zM293 1669l198 285h238l198 -285h-143l-174 150l-174 -150h-143zM461 631 q0 -76 1 -117t5 -92t13 -75.5t26.5 -49.5t42 -34t61.5 -9t61.5 9t41 34t26 49.5t13.5 76.5t5 91t1 117v278q0 80 -1 117t-5 90t-13.5 77t-26 49.5t-42 34.5t-62.5 9t-61.5 -9t-41 -34.5t-25.5 -49.5t-13 -76t-5 -91t-1 -117v-278z" />
<glyph unicode="&#xd5;" horiz-adv-x="1220" d="M94 770q0 246 16.5 385t69.5 221q131 201 430 201q297 0 428 -201q53 -82 70.5 -221t17.5 -385t-17 -385t-71 -221q-131 -201 -428 -201q-299 0 -430 201q-53 82 -69.5 221t-16.5 385zM288 1681q45 231 205 232q37 0 70 -8l129 -33q25 -6 51 -6q70 0 88 75h101 q-20 -115 -76 -176t-137 -61q-33 0 -60 8l-137 35q-18 6 -41 6q-74 0 -92 -72h-101zM461 631q0 -76 1 -117t5 -92t13 -75.5t26.5 -49.5t42 -34t61.5 -9t61.5 9t41 34t26 49.5t13.5 76.5t5 91t1 117v278q0 80 -1 117t-5 90t-13.5 77t-26 49.5t-42 34.5t-62.5 9t-61.5 -9 t-41 -34.5t-25.5 -49.5t-13 -76t-5 -91t-1 -117v-278z" />
<glyph unicode="&#xd6;" horiz-adv-x="1220" d="M94 770q0 246 16.5 385t69.5 221q131 201 430 201q297 0 428 -201q53 -82 70.5 -221t17.5 -385t-17 -385t-71 -221q-131 -201 -428 -201q-299 0 -430 201q-53 82 -69.5 221t-16.5 385zM311 1679v262h244v-262h-244zM461 631q0 -76 1 -117t5 -92t13 -75.5t26.5 -49.5 t42 -34t61.5 -9t61.5 9t41 34t26 49.5t13.5 76.5t5 91t1 117v278q0 80 -1 117t-5 90t-13.5 77t-26 49.5t-42 34.5t-62.5 9t-61.5 -9t-41 -34.5t-25.5 -49.5t-13 -76t-5 -91t-1 -117v-278zM665 1679v262h244v-262h-244z" />
<glyph unicode="&#xd7;" horiz-adv-x="1705" d="M254 184l426 426l-426 426l195 195l425 -426l426 426l195 -195l-426 -426l426 -426l-195 -194l-426 426l-425 -426z" />
<glyph unicode="&#xd8;" horiz-adv-x="1220" d="M18 -72l150 260q-74 172 -74 525q0 285 15.5 431t70.5 232q133 205 432 205q162 0 308 -86l100 170l180 -98l-139 -234q66 -166 65 -489q0 -293 -15 -443.5t-73 -236.5q-131 -203 -428 -203q-156 0 -295 72l-114 -201zM455 610l301 518q0 84 -38 129.5t-108 45.5 q-37 0 -62.5 -10.5t-43 -37t-27.5 -55.5t-15 -83t-6 -103t-1 -131v-273zM469 365q8 -59 47 -93t94 -34q37 0 63.5 10t44 42t27 60.5t13.5 94t5 114.5t1 148v172z" />
<glyph unicode="&#xd9;" horiz-adv-x="1220" d="M125 711v829h360v-965q0 -96 3.5 -143t14.5 -95t38.5 -66.5t72.5 -18.5q43 0 69 17.5t37 63.5t13 89t2 133v985h361v-983q0 -143 -11.5 -232t-50.5 -161q-109 -201 -430 -201q-152 0 -250 45t-155 146q-47 84 -60.5 207.5t-13.5 349.5zM282 1954h295l199 -285h-144z" />
<glyph unicode="&#xda;" horiz-adv-x="1220" d="M125 711v829h360v-965q0 -96 3.5 -143t14.5 -95t38.5 -66.5t72.5 -18.5q43 0 69 17.5t37 63.5t13 89t2 133v985h361v-983q0 -143 -11.5 -232t-50.5 -161q-109 -201 -430 -201q-152 0 -250 45t-155 146q-47 84 -60.5 207.5t-13.5 349.5zM452 1669l199 285h295l-350 -285 h-144z" />
<glyph unicode="&#xdb;" horiz-adv-x="1220" d="M125 711v829h360v-965q0 -96 3.5 -143t14.5 -95t38.5 -66.5t72.5 -18.5q43 0 69 17.5t37 63.5t13 89t2 133v985h361v-983q0 -143 -11.5 -232t-50.5 -161q-109 -201 -430 -201q-152 0 -250 45t-155 146q-47 84 -60.5 207.5t-13.5 349.5zM297 1669l198 285h238l198 -285 h-143l-174 150l-174 -150h-143z" />
<glyph unicode="&#xdc;" horiz-adv-x="1220" d="M125 711v829h360v-965q0 -96 3.5 -143t14.5 -95t38.5 -66.5t72.5 -18.5q43 0 69 17.5t37 63.5t13 89t2 133v985h361v-983q0 -143 -11.5 -232t-50.5 -161q-109 -201 -430 -201q-152 0 -250 45t-155 146q-47 84 -60.5 207.5t-13.5 349.5zM315 1679v262h244v-262h-244z M669 1679v262h244v-262h-244z" />
<glyph unicode="&#xdd;" horiz-adv-x="1050" d="M-14 1540h387l149 -487l150 487h391l-354 -887v-653h-369v653zM364 1669l199 285h295l-350 -285h-144z" />
<glyph unicode="&#xde;" horiz-adv-x="1167" d="M125 0v1540h362v-246h72q283 0 412 -109.5t129 -363.5q0 -233 -123 -355t-363 -122h-127v-344h-362zM487 631q16 -2 48 -2q109 0 156.5 50t47.5 163q0 92 -51 133t-164 41h-37v-385z" />
<glyph unicode="&#xdf;" horiz-adv-x="1032" d="M109 0v1008q0 246 51 346q96 190 352 190q193 0 300.5 -102.5t107.5 -282.5q0 -176 -136 -280q92 -51 128 -147.5t36 -266.5q0 -250 -72.5 -369t-228.5 -119q-61 0 -135 19v233h10q74 0 92.5 56.5t18.5 216.5v59q0 102 -22.5 146.5t-82.5 44.5h-16v231q63 0 77.5 40 t14.5 157q0 133 -84 133q-61 0 -76.5 -50.5t-15.5 -187.5v-1075h-319z" />
<glyph unicode="&#xe0;" horiz-adv-x="1069" d="M63 303q0 133 69 217t220 146q37 14 95.5 35.5t82 31.5t53 27.5t40 39t10.5 52.5q0 104 -101 104q-117 0 -116 -145v-8h-324q0 197 108.5 292t331.5 95q201 0 310 -72q82 -55 102.5 -127.5t20.5 -220.5v-446q0 -240 41 -324h-338l-19 106q-123 -129 -291 -129 q-137 0 -216 88.5t-79 237.5zM229 1565h295l199 -285h-144zM387 340q0 -55 28.5 -88t76.5 -33q76 0 105.5 50t29.5 159v129q-123 -35 -181.5 -86t-58.5 -131z" />
<glyph unicode="&#xe1;" horiz-adv-x="1069" d="M63 303q0 133 69 217t220 146q37 14 95.5 35.5t82 31.5t53 27.5t40 39t10.5 52.5q0 104 -101 104q-117 0 -116 -145v-8h-324q0 197 108.5 292t331.5 95q201 0 310 -72q82 -55 102.5 -127.5t20.5 -220.5v-446q0 -240 41 -324h-338l-19 106q-123 -129 -291 -129 q-137 0 -216 88.5t-79 237.5zM387 340q0 -55 28.5 -88t76.5 -33q76 0 105.5 50t29.5 159v129q-123 -35 -181.5 -86t-58.5 -131zM399 1280l199 285h295l-350 -285h-144z" />
<glyph unicode="&#xe2;" horiz-adv-x="1069" d="M63 303q0 133 69 217t220 146q37 14 95.5 35.5t82 31.5t53 27.5t40 39t10.5 52.5q0 104 -101 104q-117 0 -116 -145v-8h-324q0 197 108.5 292t331.5 95q201 0 310 -72q82 -55 102.5 -127.5t20.5 -220.5v-446q0 -240 41 -324h-338l-19 106q-123 -129 -291 -129 q-137 0 -216 88.5t-79 237.5zM244 1280l198 285h238l198 -285h-143l-174 150l-174 -150h-143zM387 340q0 -55 28.5 -88t76.5 -33q76 0 105.5 50t29.5 159v129q-123 -35 -181.5 -86t-58.5 -131z" />
<glyph unicode="&#xe3;" horiz-adv-x="1069" d="M63 303q0 133 69 217t220 146q37 14 95.5 35.5t82 31.5t53 27.5t40 39t10.5 52.5q0 104 -101 104q-117 0 -116 -145v-8h-324q0 197 108.5 292t331.5 95q201 0 310 -72q82 -55 102.5 -127.5t20.5 -220.5v-446q0 -240 41 -324h-338l-19 106q-123 -129 -291 -129 q-137 0 -216 88.5t-79 237.5zM239 1292q45 231 205 232q37 0 70 -8l129 -33q25 -6 51 -6q70 0 88 75h101q-20 -115 -76 -176t-137 -61q-33 0 -60 8l-137 35q-18 6 -41 6q-74 0 -92 -72h-101zM387 340q0 -55 28.5 -88t76.5 -33q76 0 105.5 50t29.5 159v129 q-123 -35 -181.5 -86t-58.5 -131z" />
<glyph unicode="&#xe4;" horiz-adv-x="1069" d="M63 303q0 133 69 217t220 146q37 14 95.5 35.5t82 31.5t53 27.5t40 39t10.5 52.5q0 104 -101 104q-117 0 -116 -145v-8h-324q0 197 108.5 292t331.5 95q201 0 310 -72q82 -55 102.5 -127.5t20.5 -220.5v-446q0 -240 41 -324h-338l-19 106q-123 -129 -291 -129 q-137 0 -216 88.5t-79 237.5zM262 1290v262h244v-262h-244zM387 340q0 -55 28.5 -88t76.5 -33q76 0 105.5 50t29.5 159v129q-123 -35 -181.5 -86t-58.5 -131zM616 1290v262h244v-262h-244z" />
<glyph unicode="&#xe5;" horiz-adv-x="1069" d="M63 303q0 133 69 217t220 146q37 14 95.5 35.5t82 31.5t53 27.5t40 39t10.5 52.5q0 104 -101 104q-117 0 -116 -145v-8h-324q0 197 108.5 292t331.5 95q201 0 310 -72q82 -55 102.5 -127.5t20.5 -220.5v-446q0 -240 41 -324h-338l-19 106q-123 -129 -291 -129 q-137 0 -216 88.5t-79 237.5zM352 1446q0 84 58.5 143.5t140.5 59.5t141.5 -59.5t59.5 -143.5q0 -82 -58.5 -140.5t-142.5 -58.5t-141.5 58.5t-57.5 140.5zM387 340q0 -55 28.5 -88t76.5 -33q76 0 105.5 50t29.5 159v129q-123 -35 -181.5 -86t-58.5 -131zM471 1446 q0 -33 23.5 -55.5t56.5 -22.5t56.5 22.5t23.5 55.5t-22.5 56.5t-57.5 23.5q-33 0 -56.5 -23.5t-23.5 -56.5z" />
<glyph unicode="&#xe6;" horiz-adv-x="1546" d="M63 301q0 133 69 217t220 146q37 14 95.5 35.5t82 31.5t53 27.5t40 38t10.5 51.5q0 104 -101 104q-117 0 -116 -145v-8h-324v6q0 381 432 381q166 0 279 -90q137 90 282 90q195 0 299 -127q53 -66 66.5 -149t13.5 -234v-139h-520q-4 -111 -4 -152q0 -94 25.5 -137 t87.5 -43q109 0 108 151q0 33 -2 52h299v-29q0 -201 -104.5 -307.5t-300.5 -106.5q-176 0 -316 115q-172 -115 -340 -115q-156 0 -245 90t-89 246zM387 338q0 -57 28.5 -89t76.5 -32q76 0 105.5 49t29.5 158v129q-123 -35 -181.5 -86t-58.5 -129zM938 805q0 -21 4 -70h217 q4 49 4 70q0 164 -112 164q-59 0 -86 -39t-27 -125z" />
<glyph unicode="&#xe7;" horiz-adv-x="1011" d="M78 577.5q0 331.5 94 471t336 139.5q211 0 311.5 -108.5t100.5 -338.5v-20h-312v33q0 102 -22.5 147t-75.5 45q-25 0 -43 -8t-29.5 -31.5t-17.5 -46t-9 -74t-4 -91.5t-1 -117q0 -211 17 -291t85 -80q98 0 98 194q0 8 -1 26t-1 28h318q0 -8 1 -23.5t1 -21.5 q0 -440 -416 -441q-242 0 -336 138.5t-94 470zM254 -305q150 -33 232 -33t82 70q0 61 -113 61q-4 0 -17.5 -1t-19.5 -1v209h113v-82q106 0 164.5 -49t58.5 -139q0 -96 -64.5 -150.5t-181.5 -54.5q-143 0 -254 39v131z" />
<glyph unicode="&#xe8;" horiz-adv-x="1019" d="M80 567q0 209 18.5 317.5t85.5 184.5q109 119 336.5 119t331.5 -129q53 -66 67.5 -150t14.5 -235v-139h-526q-4 -86 -5 -115q0 -117 25 -167t90 -50q111 0 111 147q0 15 -4 56h303v-29q0 -408 -422 -408q-223 0 -326 113q-61 70 -80.5 179.5t-19.5 305.5zM190 1565h295 l199 -285h-144zM414 799q0 -41 2 -64h217q4 49 4 68q0 166 -113 166q-59 0 -84.5 -40t-25.5 -130z" />
<glyph unicode="&#xe9;" horiz-adv-x="1019" d="M80 567q0 209 18.5 317.5t85.5 184.5q109 119 336.5 119t331.5 -129q53 -66 67.5 -150t14.5 -235v-139h-526q-4 -86 -5 -115q0 -117 25 -167t90 -50q111 0 111 147q0 15 -4 56h303v-29q0 -408 -422 -408q-223 0 -326 113q-61 70 -80.5 179.5t-19.5 305.5zM360 1280 l199 285h295l-350 -285h-144zM414 799q0 -41 2 -64h217q4 49 4 68q0 166 -113 166q-59 0 -84.5 -40t-25.5 -130z" />
<glyph unicode="&#xea;" horiz-adv-x="1019" d="M80 567q0 209 18.5 317.5t85.5 184.5q109 119 336.5 119t331.5 -129q53 -66 67.5 -150t14.5 -235v-139h-526q-4 -86 -5 -115q0 -117 25 -167t90 -50q111 0 111 147q0 15 -4 56h303v-29q0 -408 -422 -408q-223 0 -326 113q-61 70 -80.5 179.5t-19.5 305.5zM205 1280 l198 285h238l198 -285h-143l-174 150l-174 -150h-143zM414 799q0 -41 2 -64h217q4 49 4 68q0 166 -113 166q-59 0 -84.5 -40t-25.5 -130z" />
<glyph unicode="&#xeb;" horiz-adv-x="1019" d="M80 567q0 209 18.5 317.5t85.5 184.5q109 119 336.5 119t331.5 -129q53 -66 67.5 -150t14.5 -235v-139h-526q-4 -86 -5 -115q0 -117 25 -167t90 -50q111 0 111 147q0 15 -4 56h303v-29q0 -408 -422 -408q-223 0 -326 113q-61 70 -80.5 179.5t-19.5 305.5zM223 1290v262 h244v-262h-244zM414 799q0 -41 2 -64h217q4 49 4 68q0 166 -113 166q-59 0 -84.5 -40t-25.5 -130zM577 1290v262h244v-262h-244z" />
<glyph unicode="&#xec;" horiz-adv-x="540" d="M-62 1565h295l199 -285h-144zM109 0v1157h321v-1157h-321z" />
<glyph unicode="&#xed;" horiz-adv-x="540" d="M108 1280l199 285h295l-350 -285h-144zM109 0v1157h321v-1157h-321z" />
<glyph unicode="&#xee;" horiz-adv-x="540" d="M-47 1280l198 285h238l198 -285h-143l-174 150l-174 -150h-143zM109 0v1157h321v-1157h-321z" />
<glyph unicode="&#xef;" horiz-adv-x="540" d="M-29 1290v262h244v-262h-244zM109 0v1157h321v-1157h-321zM325 1290v262h244v-262h-244z" />
<glyph unicode="&#xf0;" horiz-adv-x="1017" d="M78 520q0 330 81 463t302 133q17 0 74 -4q-45 86 -109 162l-215 -123l-49 82l203 117q-27 37 -93 102l154 141q74 -49 152 -120l176 104l51 -82l-160 -94q164 -180 228.5 -381t64.5 -477q0 -311 -95 -442.5t-335 -131.5q-238 0 -334 127t-96 424zM406 557.5 q0 -106.5 2 -159t12 -102.5t30.5 -67.5t57.5 -17.5q68 0 85 71.5t17 274.5q0 106 -2 158.5t-12 102.5t-30.5 67.5t-57.5 17.5t-57.5 -17.5t-30.5 -67.5t-12 -102t-2 -158.5z" />
<glyph unicode="&#xf1;" horiz-adv-x="1058" d="M111 0v1157h303v-137q104 160 280 160q135 0 196.5 -91.5t61.5 -281.5v-807h-321v715v62.5t-3 49t-7.5 43t-13.5 27.5t-23.5 19.5t-34.5 5.5q-53 0 -84 -51.5t-31 -147.5v-723h-323zM217 1292q45 231 205 232q37 0 70 -8l129 -33q25 -6 51 -6q70 0 88 75h101 q-20 -115 -76 -176t-137 -61q-33 0 -60 8l-137 35q-18 6 -41 6q-74 0 -92 -72h-101z" />
<glyph unicode="&#xf2;" horiz-adv-x="1017" d="M78 578q0 330 94 470t336 140t336 -139.5t94 -470.5q0 -330 -94 -469.5t-336 -139.5t-336 138.5t-94 470.5zM182 1565h295l199 -285h-144zM406 578q0 -113 2 -168.5t12 -108.5t30.5 -71.5t57.5 -18.5q70 0 86 74.5t16 292.5q0 78 -1 117.5t-4 90t-9 74t-17.5 47t-29 31.5 t-41.5 8q-68 0 -85 -76.5t-17 -291.5z" />
<glyph unicode="&#xf3;" horiz-adv-x="1017" d="M78 578q0 330 94 470t336 140t336 -139.5t94 -470.5q0 -330 -94 -469.5t-336 -139.5t-336 138.5t-94 470.5zM352 1280l199 285h295l-350 -285h-144zM406 578q0 -113 2 -168.5t12 -108.5t30.5 -71.5t57.5 -18.5q70 0 86 74.5t16 292.5q0 78 -1 117.5t-4 90t-9 74t-17.5 47 t-29 31.5t-41.5 8q-68 0 -85 -76.5t-17 -291.5z" />
<glyph unicode="&#xf4;" horiz-adv-x="1017" d="M78 578q0 330 94 470t336 140t336 -139.5t94 -470.5q0 -330 -94 -469.5t-336 -139.5t-336 138.5t-94 470.5zM197 1280l198 285h238l198 -285h-143l-174 150l-174 -150h-143zM406 578q0 -113 2 -168.5t12 -108.5t30.5 -71.5t57.5 -18.5q70 0 86 74.5t16 292.5 q0 78 -1 117.5t-4 90t-9 74t-17.5 47t-29 31.5t-41.5 8q-68 0 -85 -76.5t-17 -291.5z" />
<glyph unicode="&#xf5;" horiz-adv-x="1017" d="M78 578q0 330 94 470t336 140t336 -139.5t94 -470.5q0 -330 -94 -469.5t-336 -139.5t-336 138.5t-94 470.5zM192 1292q45 231 205 232q37 0 70 -8l129 -33q25 -6 51 -6q70 0 88 75h101q-20 -115 -76 -176t-137 -61q-33 0 -60 8l-137 35q-18 6 -41 6q-74 0 -92 -72h-101z M406 578q0 -113 2 -168.5t12 -108.5t30.5 -71.5t57.5 -18.5q70 0 86 74.5t16 292.5q0 78 -1 117.5t-4 90t-9 74t-17.5 47t-29 31.5t-41.5 8q-68 0 -85 -76.5t-17 -291.5z" />
<glyph unicode="&#xf6;" horiz-adv-x="1017" d="M78 578q0 330 94 470t336 140t336 -139.5t94 -470.5q0 -330 -94 -469.5t-336 -139.5t-336 138.5t-94 470.5zM215 1290v262h244v-262h-244zM406 578q0 -113 2 -168.5t12 -108.5t30.5 -71.5t57.5 -18.5q70 0 86 74.5t16 292.5q0 78 -1 117.5t-4 90t-9 74t-17.5 47t-29 31.5 t-41.5 8q-68 0 -85 -76.5t-17 -291.5zM569 1290v262h244v-262h-244z" />
<glyph unicode="&#xf7;" horiz-adv-x="1705" d="M254 475v273h1198v-273h-1198zM670 188q0 78 54 130.5t130 52.5q74 0 128 -53.5t54 -129.5q0 -74 -53 -128t-131 -54q-76 0 -129 53.5t-53 128.5zM670 1032q0 78 54 131.5t130 53.5q74 0 128 -54.5t54 -130.5q0 -74 -53 -128t-131 -54q-76 0 -129 53t-53 129z" />
<glyph unicode="&#xf8;" horiz-adv-x="1017" d="M-23 -57l158 233q-59 164 -59 412q0 317 99 460.5t331 143.5q158 0 270 -76l115 166l145 -96l-147 -215q55 -139 55 -404q0 -319 -100.5 -460.5t-337.5 -141.5q-152 0 -258 72l-127 -184zM397 639q0 -18 1 -61t1 -68l215 328q-18 131 -104 131q-66 0 -89.5 -76 t-23.5 -254zM410 295q12 -104 102 -105q63 0 88 74t25 240q0 78 -2 123z" />
<glyph unicode="&#xf9;" horiz-adv-x="1058" d="M102 350v807h324v-715v-62.5t3 -49t7 -43t13.5 -27.5t23.5 -19t35 -5q53 0 84 51t31 147v723h321v-1157h-303v137q-104 -160 -279 -160q-137 0 -198.5 91.5t-61.5 281.5zM196 1565h295l199 -285h-144z" />
<glyph unicode="&#xfa;" horiz-adv-x="1058" d="M102 350v807h324v-715v-62.5t3 -49t7 -43t13.5 -27.5t23.5 -19t35 -5q53 0 84 51t31 147v723h321v-1157h-303v137q-104 -160 -279 -160q-137 0 -198.5 91.5t-61.5 281.5zM366 1280l199 285h295l-350 -285h-144z" />
<glyph unicode="&#xfb;" horiz-adv-x="1058" d="M102 350v807h324v-715v-62.5t3 -49t7 -43t13.5 -27.5t23.5 -19t35 -5q53 0 84 51t31 147v723h321v-1157h-303v137q-104 -160 -279 -160q-137 0 -198.5 91.5t-61.5 281.5zM211 1280l198 285h238l198 -285h-143l-174 150l-174 -150h-143z" />
<glyph unicode="&#xfc;" horiz-adv-x="1058" d="M102 350v807h324v-715v-62.5t3 -49t7 -43t13.5 -27.5t23.5 -19t35 -5q53 0 84 51t31 147v723h321v-1157h-303v137q-104 -160 -279 -160q-137 0 -198.5 91.5t-61.5 281.5zM229 1290v262h244v-262h-244zM583 1290v262h244v-262h-244z" />
<glyph unicode="&#xfd;" horiz-adv-x="899" d="M16 1157h320l113 -745l114 745h320l-230 -1063q-61 -285 -138 -384t-271 -99q-51 0 -133 12v242q41 -4 55 -4q109 0 108 84q0 23 -30 168zM289 1280l199 285h295l-350 -285h-144z" />
<glyph unicode="&#xfe;" horiz-adv-x="1048" d="M117 -389v1929h321v-510q90 154 248 154q127 0 205 -94q51 -63 64.5 -168t13.5 -316q0 -143 -5.5 -235t-23.5 -176t-51 -129.5t-87 -72t-134 -26.5q-141 0 -230 135v-491h-321zM432 500q0 -139 22 -198.5t83 -59.5q72 0 91 85t19 320q0 150 -20.5 211.5t-81.5 61.5 q-78 0 -95.5 -87.5t-17.5 -332.5z" />
<glyph unicode="&#xff;" horiz-adv-x="899" d="M16 1157h320l113 -745l114 745h320l-230 -1063q-61 -285 -138 -384t-271 -99q-51 0 -133 12v242q41 -4 55 -4q109 0 108 84q0 23 -30 168zM152 1290v262h244v-262h-244zM506 1290v262h244v-262h-244z" />
<glyph unicode="&#x152;" horiz-adv-x="1683" d="M94 770q0 246 16.5 385t69.5 221q59 92 161.5 145.5t219.5 53.5q168 0 291 -109v74h741v-299h-479v-283h440v-309h-440v-336h479v-313h-741v72q-121 -109 -283 -109q-121 0 -224 53.5t-165 147.5q-53 82 -69.5 221t-16.5 385zM459 596q0 -188 30.5 -266t120.5 -78 q86 0 131 88v868q-45 78 -127 78q-88 0 -120.5 -65.5t-32.5 -221.5q0 -49 -1 -183t-1 -220z" />
<glyph unicode="&#x153;" horiz-adv-x="1546" d="M80 578q0 324 95 471t325 147q143 0 276 -78q131 70 293 70q205 0 307 -129q53 -66 67.5 -150t14.5 -233v-139h-520q-4 -94 -4 -134q0 -106 22.5 -152t90.5 -46q109 0 108 149q0 35 -2 54h299v-29q0 -410 -430 -410q-135 0 -252 68q-106 -74 -258 -74q-242 0 -337 143.5 t-95 471.5zM408 577.5q0 -215.5 16 -291t84 -75.5q25 0 43 8t29.5 31.5t17.5 46t9 73t4 90.5t1 117.5t-1 117.5t-4 90.5t-9 74t-17.5 47t-28.5 31.5t-42 8q-68 0 -85 -76.5t-17 -292zM932 799q0 -41 2 -64h217q4 53 4 72q0 162 -111 162q-59 0 -85.5 -41t-26.5 -129z" />
<glyph unicode="&#x178;" horiz-adv-x="1050" d="M-14 1540h387l149 -487l150 487h391l-354 -887v-653h-369v653zM227 1679v262h244v-262h-244zM581 1679v262h244v-262h-244z" />
<glyph unicode="&#x2c6;" d="M195 1280l198 285h238l198 -285h-143l-174 150l-174 -150h-143z" />
<glyph unicode="&#x2dc;" d="M190 1292q45 231 205 232q37 0 70 -8l129 -33q25 -6 51 -6q70 0 88 75h101q-20 -115 -76 -176t-137 -61q-33 0 -60 8l-137 35q-18 6 -41 6q-74 0 -92 -72h-101z" />
<glyph unicode="&#x2000;" horiz-adv-x="986" />
<glyph unicode="&#x2001;" horiz-adv-x="1972" />
<glyph unicode="&#x2002;" horiz-adv-x="986" />
<glyph unicode="&#x2003;" horiz-adv-x="1972" />
<glyph unicode="&#x2004;" horiz-adv-x="657" />
<glyph unicode="&#x2005;" horiz-adv-x="493" />
<glyph unicode="&#x2006;" horiz-adv-x="328" />
<glyph unicode="&#x2007;" horiz-adv-x="328" />
<glyph unicode="&#x2008;" horiz-adv-x="246" />
<glyph unicode="&#x2009;" horiz-adv-x="394" />
<glyph unicode="&#x200a;" horiz-adv-x="109" />
<glyph unicode="&#x2010;" horiz-adv-x="796" d="M86 424v309h625v-309h-625z" />
<glyph unicode="&#x2011;" horiz-adv-x="796" d="M86 424v309h625v-309h-625z" />
<glyph unicode="&#x2012;" horiz-adv-x="796" d="M86 424v309h625v-309h-625z" />
<glyph unicode="&#x2013;" d="M0 461v233h1024v-233h-1024z" />
<glyph unicode="&#x2014;" horiz-adv-x="2048" d="M0 461v233h2048v-233h-2048z" />
<glyph unicode="&#x2018;" horiz-adv-x="559" d="M123 938v295q0 311 313 344v-117q-86 -16 -125 -62t-41 -132h166v-328h-313z" />
<glyph unicode="&#x2019;" horiz-adv-x="559" d="M123 903v115q86 16 125 63t41 133h-166v326h313v-293q0 -311 -313 -344z" />
<glyph unicode="&#x201a;" horiz-adv-x="559" d="M123 25v327h313v-295q0 -311 -313 -344v117q86 16 125 61.5t41 133.5h-166z" />
<glyph unicode="&#x201c;" horiz-adv-x="1044" d="M123 938v295q0 309 313 342v-115q-86 -16 -125 -63t-41 -133h166v-326h-313zM608 938v295q0 309 314 342v-115q-86 -16 -125 -63t-41 -133h166v-326h-314z" />
<glyph unicode="&#x201d;" horiz-adv-x="1044" d="M123 903v115q86 16 125 63t41 133h-166v326h313v-293q0 -311 -313 -344zM608 903v115q86 16 125 63t41 133h-166v326h314v-293q0 -311 -314 -344z" />
<glyph unicode="&#x201e;" horiz-adv-x="1044" d="M123 25v327h313v-295q0 -311 -313 -344v117q86 16 125 61.5t41 133.5h-166zM608 25v327h314v-295q0 -311 -314 -344v117q86 16 125 61.5t41 133.5h-166z" />
<glyph unicode="&#x2022;" horiz-adv-x="1208" d="M307 762q0 123 87 209t210 86q121 0 208 -86t87 -209q0 -121 -87 -209t-210 -88t-209 87t-86 210z" />
<glyph unicode="&#x2026;" horiz-adv-x="2048" d="M164 0v352h354v-352h-354zM846 0v352h354v-352h-354zM1530 0v352h354v-352h-354z" />
<glyph unicode="&#x202f;" horiz-adv-x="394" />
<glyph unicode="&#x2039;" horiz-adv-x="606" d="M113 434v295l372 238v-260l-200 -125l200 -136v-256z" />
<glyph unicode="&#x203a;" horiz-adv-x="606" d="M121 190v256l201 136l-201 125v260l373 -238v-295z" />
<glyph unicode="&#x205f;" horiz-adv-x="493" />
<glyph unicode="&#x2122;" horiz-adv-x="1705" d="M164 1317v151h526v-151h-162v-408h-202v408h-162zM788 909v559h256l99 -266l98 266h256v-559h-182v367l-137 -367h-70l-137 367v-367h-183z" />
<glyph unicode="&#xe000;" horiz-adv-x="1157" d="M0 0v1157h1157v-1157h-1157z" />
<glyph unicode="&#xfb01;" horiz-adv-x="1138" d="M33 911v246h131q0 10 -1 29.5t-1 27.5q0 182 77.5 257t264.5 75q55 0 123 -6v-233q-14 2 -39 2q-55 0 -79 -26t-24 -87q0 -25 2 -39h140v-246h-140v-911h-323v911h-131zM709 0v1157h321v-1157h-321zM709 1272v280h321v-280h-321z" />
<glyph unicode="&#xfb02;" horiz-adv-x="1138" d="M33 911v246h131q0 10 -1 29.5t-1 27.5q0 182 77.5 257t264.5 75q55 0 123 -6v-233q-14 2 -39 2q-55 0 -79 -26t-24 -87q0 -25 2 -39h140v-246h-140v-911h-323v911h-131zM709 0v1540h321v-1540h-321z" />
</font>
</defs>
</svg>
