<?xml version="1.0" standalone="no"?>
<!DOCTYPE svg PUBLIC "-//W3C//DTD SVG 1.1//EN" "http://www.w3.org/Graphics/SVG/1.1/DTD/svg11.dtd" >
<svg xmlns="http://www.w3.org/2000/svg">
<metadata></metadata>
<defs>
<font id="swiss_721italiccondensed" horiz-adv-x="1019" >
<font-face units-per-em="2048" ascent="1638" descent="-410" />
<missing-glyph horiz-adv-x="509" />
<glyph horiz-adv-x="2048" />
<glyph horiz-adv-x="2048" />
<glyph unicode="&#xd;" horiz-adv-x="681" />
<glyph unicode=" "  horiz-adv-x="509" />
<glyph unicode="&#x09;" horiz-adv-x="509" />
<glyph unicode="&#xa0;" horiz-adv-x="509" />
<glyph unicode="!" horiz-adv-x="530" d="M8 0l39 201h191l-39 -201h-191zM137 385l107 709l100 446h188l-102 -465l-205 -690h-88z" />
<glyph unicode="&#x22;" horiz-adv-x="614" d="M90 881v555h139v-555h-139zM385 881v555h139v-555h-139z" />
<glyph unicode="#" horiz-adv-x="1574" d="M88 449l53 145h310l92 264h-330l51 146h332l162 454h166l-162 -454h256l164 454h164l-160 -454h301l-51 -146h-303l-93 -264h322l-51 -145h-322l-162 -453h-165l161 453h-258l-162 -453h-165l159 453h-309zM616 594h261l92 264h-260z" />
<glyph unicode="$" d="M53 410q0 22 4 67h148v-53q0 -219 145 -268l117 567q-143 55 -206.5 135t-63.5 211q0 205 114.5 324.5t309.5 119.5h14l31 132h86l-31 -144q252 -68 252 -342q0 -29 -2 -43h-146v10q0 98 -30.5 153.5t-102.5 82.5l-108 -514q170 -61 237.5 -142t67.5 -229 q0 -219 -126 -348t-341 -129h-14l-43 -205h-91l45 217q-266 78 -266 398zM348 1098q0 -82 36 -130t118 -83l102 491h-4q-113 0 -182.5 -78.5t-69.5 -199.5zM436 141h19q125 0 200.5 89t75.5 229q0 174 -180 231z" />
<glyph unicode="%" horiz-adv-x="1429" d="M94 1153q0 365 277 365q145 0 214.5 -88.5t69.5 -274.5q0 -188 -73.5 -286.5t-208.5 -98.5q-145 0 -212 93t-67 290zM236 1128q0 -121 31.5 -178t105.5 -57q141 0 141 264q0 242 -141 242q-80 0 -108.5 -62.5t-28.5 -208.5zM305 -29l694 1579h117l-692 -1579h-119z M774 383q0 369 277 369q145 0 214.5 -90.5t69.5 -278.5q0 -186 -72.5 -284.5t-207.5 -98.5q-145 0 -213 93t-68 290zM913 358q0 -121 33 -178t107 -57q141 0 141 264q0 242 -141 242q-80 0 -110 -62.5t-30 -208.5z" />
<glyph unicode="&#x26;" horiz-adv-x="1177" d="M2 385q0 328 375 496q-113 186 -113 342q0 139 91 230t225 91q127 0 213 -82t86 -209q0 -268 -312 -411l232 -453q86 115 114 262h162q-63 -244 -209 -405l125 -246h-182l-59 119q-141 -154 -351 -154q-172 0 -284.5 116t-112.5 304zM166 401q0 -115 71.5 -192.5 t178.5 -77.5q147 0 268 127l-250 500q-268 -143 -268 -357zM428 1225q0 -98 80 -254q207 104 207 266q0 74 -37 116t-102.5 42t-106.5 -47.5t-41 -122.5z" />
<glyph unicode="'" horiz-adv-x="317" d="M90 881v555h139v-555h-139z" />
<glyph unicode="(" horiz-adv-x="653" d="M162 358q0 324 131 633t377 549h123q-221 -233 -342 -565t-121 -707q0 -379 129 -678h-105q-193 356 -192 768z" />
<glyph unicode=")" horiz-adv-x="653" d="M-154 -410q221 233 342 565t121 707q0 383 -127 678h105q193 -356 192 -766q0 -324 -131 -634t-377 -550h-125z" />
<glyph unicode="*" horiz-adv-x="1024" d="M213 1206l43 137l283 -102v299h125v-299l280 98l49 -131l-297 -82l201 -245l-115 -84l-180 260l-178 -260l-117 84l199 245z" />
<glyph unicode="+" horiz-adv-x="1705" d="M254 541v139h528v541h142v-541h528v-139h-528v-541h-142v541h-528z" />
<glyph unicode="," horiz-adv-x="509" d="M-43 -293l14 86q121 43 140 207h-91l43 203h189l-53 -252q-20 -100 -83 -165t-159 -79z" />
<glyph unicode="-" horiz-adv-x="673" d="M37 504l33 162h512l-43 -162h-502z" />
<glyph unicode="." horiz-adv-x="509" d="M6 0l43 205h193l-45 -205h-191z" />
<glyph unicode="/" horiz-adv-x="569" d="M-72 -190l547 1767h113l-549 -1767h-111z" />
<glyph unicode="0" d="M49 373q0 207 66 508q49 227 112 366q133 285 389 285q170 0 262.5 -106.5t92.5 -311.5q0 -145 -58 -426q-55 -270 -116 -414q-133 -309 -400 -309q-168 0 -258 104.5t-90 303.5zM219 371q0 -258 193 -258q86 0 146 66.5t106 207.5q41 133 86 354q57 295 57 416 q0 113 -51.5 174.5t-143.5 61.5q-100 0 -161.5 -78t-108.5 -244q-123 -449 -123 -700z" />
<glyph unicode="1" d="M256 1171l25 117q158 8 250 63.5t157 180.5h129l-313 -1532h-164l240 1202q-109 -37 -213 -37q-59 0 -111 6z" />
<glyph unicode="2" d="M-33 0q10 403 469 682l142 86q240 145 239 365q0 129 -58.5 196.5t-162.5 67.5q-115 0 -177.5 -84t-84.5 -258h-166q18 223 129 350t303 127q182 0 285.5 -101.5t103.5 -283.5q0 -174 -73.5 -291t-241.5 -217l-158 -94q-162 -96 -253 -198.5t-103 -194.5h680l-33 -152 h-840z" />
<glyph unicode="3" d="M27 367q0 51 12 110h160q-2 -39 -2 -69q0 -150 52 -221.5t169 -71.5q127 0 207 105.5t80 268.5q0 246 -306 246h-6l27 131h29q362 0 362 324q0 205 -193 205q-92 0 -153.5 -64.5t-83.5 -185.5h-156q20 184 126 285.5t270 101.5q168 0 264 -91t96 -259q0 -150 -81 -260.5 t-214 -137.5q188 -109 188 -315q0 -215 -125.5 -358.5t-326.5 -143.5q-184 0 -289.5 108.5t-105.5 291.5z" />
<glyph unicode="4" d="M2 401l33 160l766 971h160l-199 -987h153l-30 -144h-154l-80 -401h-159l75 401h-565zM180 545h422l158 751z" />
<glyph unicode="5" d="M33 328q0 37 10 94h160q-4 -70 -4 -76q0 -109 55 -171t147 -62q141 0 230.5 140t89.5 345q0 127 -59.5 200.5t-155.5 73.5q-68 0 -134.5 -37t-97.5 -92h-141l227 775h633l-32 -148h-494l-125 -432q90 66 209 66q156 0 247 -109t91 -303q0 -279 -135.5 -456t-345.5 -177 q-174 0 -274.5 99.5t-100.5 269.5z" />
<glyph unicode="6" d="M72 436q0 201 50 423t126 376q76 156 176 226.5t240 70.5q150 0 236.5 -88t86.5 -244v-16v-4q0 -4 -1 -11.5t-1 -15.5h-154q-6 248 -178 248q-247 0 -358 -557q115 141 268 141q152 0 245 -110.5t93 -301.5q0 -264 -133 -437t-334 -173q-178 0 -270 120t-92 353zM240 387 q0 -270 198 -270q133 0 207 133q80 145 80 311q0 147 -49.5 219t-155.5 72q-121 0 -200.5 -129t-79.5 -336z" />
<glyph unicode="7" d="M203 0q51 360 223 710.5t448 651.5h-630l28 156h781l-23 -142q-266 -307 -433 -661.5t-220 -714.5h-174z" />
<glyph unicode="8" d="M41 381q0 188 91.5 319t232.5 154q-74 55 -105 118.5t-31 155.5q0 184 107.5 294t284.5 110q168 0 263 -92t95 -256q0 -311 -268 -383q178 -76 178 -330q0 -219 -127 -362.5t-326 -143.5q-188 0 -291.5 109.5t-103.5 306.5zM213 369q0 -121 60.5 -188.5t166.5 -67.5 q117 0 195 115.5t78 285.5q0 115 -62.5 178.5t-175.5 63.5q-109 0 -185.5 -108.5t-76.5 -278.5zM391 1106q0 -102 51.5 -159.5t141.5 -57.5q100 0 163.5 86t63.5 223q0 94 -51.5 148.5t-141.5 54.5q-100 0 -163.5 -84t-63.5 -211z" />
<glyph unicode="9" d="M47 307v17l2 4v10v14h154q6 -246 178 -246q247 1 358 558q-117 -143 -268.5 -143.5t-244.5 110t-93 301.5q0 262 132 431t335 169q362 0 363 -463q0 -201 -50.5 -422t-126.5 -375q-78 -158 -178 -232.5t-237 -74.5q-147 0 -235.5 93.5t-88.5 248.5zM309 946 q0 -147 49.5 -219t155.5 -72q121 0 201 128t80 335q0 270 -199 271q-133 0 -207 -132q-80 -145 -80 -311z" />
<glyph unicode=":" horiz-adv-x="512" d="M14 0l43 205h193l-45 -205h-191zM188 922l43 202h193l-45 -202h-191z" />
<glyph unicode=";" horiz-adv-x="512" d="M-47 -293l14 86q121 43 139 207h-92l43 203h191l-53 -252q-20 -100 -83 -165t-159 -79zM186 922l43 202h193l-45 -202h-191z" />
<glyph unicode="&#x3c;" horiz-adv-x="1705" d="M264 547v129l1178 483v-153l-969 -396l969 -393v-154z" />
<glyph unicode="=" horiz-adv-x="1705" d="M254 342v139h1198v-139h-1198zM254 739v140h1198v-140h-1198z" />
<glyph unicode="&#x3e;" horiz-adv-x="1705" d="M264 63v154l971 393l-971 396v153l1178 -483v-129z" />
<glyph unicode="?" d="M199 1153q8 188 118.5 305t280.5 117q176 0 276.5 -98.5t100.5 -262.5q0 -252 -244 -415l-72 -49q-98 -66 -143 -146t-59 -213h-156q12 186 71.5 286.5t190.5 201.5l111 84q53 41 87 111.5t34 152.5q0 94 -55.5 148.5t-143.5 54.5q-100 0 -162.5 -73t-66.5 -204h-168z M219 0l39 201h191l-39 -201h-191z" />
<glyph unicode="@" horiz-adv-x="2048" d="M106 522q0 336 203 582q297 362 807 362q340 0 563 -172q264 -205 265 -514q0 -356 -248 -551q-141 -113 -316 -112q-201 0 -200 157v19q-109 -174 -301 -174q-152 0 -233 85t-81 247q0 236 138.5 394.5t338.5 158.5q170 0 242 -150l57 115h132l-146 -576q-8 -33 -8 -59 q0 -94 100.5 -94t208.5 102q170 160 170 420q0 258 -189.5 419.5t-500.5 161.5q-264 0 -457 -114q-190 -115 -295.5 -300.5t-105.5 -408.5q0 -344 254 -538q209 -160 524 -160q348 0 621 190l55 -82q-297 -223 -664 -223q-383 0 -628 187q-305 236 -306 628zM725 446 q0 -106 48 -162.5t138 -56.5q96 0 174 68.5t105 179.5l59 236q-16 88 -68.5 136t-129.5 48q-137 0 -231.5 -130t-94.5 -319z" />
<glyph unicode="A" horiz-adv-x="1052" d="M-131 0l739 1540h211l88 -1540h-166l-16 434h-473l-199 -434h-184zM324 590h397l-23 831z" />
<glyph unicode="B" horiz-adv-x="1142" d="M-20 0l319 1540h342q213 0 315.5 -84t102.5 -266q0 -160 -82 -264.5t-229 -130.5q208 -78 208 -320q0 -227 -142 -351t-415 -124h-419zM186 147h234q182 0 267 84t85 271q0 143 -84 188t-276 45h-103zM340 883h90q238 0 342.5 60.5t104.5 240.5q0 117 -58.5 165 t-191.5 48h-181z" />
<glyph unicode="C" horiz-adv-x="1181" d="M74 453q0 190 52 418.5t132 394.5q152 313 461 313q186 0 287.5 -103.5t101.5 -295.5q0 -55 -10 -148h-164q6 70 6 123q0 285 -235 285q-211 0 -314 -285q-47 -131 -88 -336q-49 -240 -49 -401q0 -313 244 -314q127 0 221 105.5t131 298.5h158q-43 -258 -182.5 -401.5 t-340.5 -143.5q-203 0 -307 124t-104 366z" />
<glyph unicode="D" horiz-adv-x="1210" d="M-23 0l322 1540h330q252 0 371.5 -126t119.5 -392q0 -238 -61.5 -459t-151.5 -344q-102 -139 -223 -179t-328 -40h-379zM184 154h197q168 0 254 34.5t158 163.5q61 111 101 290t40 390q0 195 -79 274.5t-267 79.5h-146z" />
<glyph unicode="E" horiz-adv-x="978" d="M-23 0l322 1540h674l-33 -151h-496l-106 -508h534l-32 -152h-533l-121 -573h586l-31 -156h-764z" />
<glyph unicode="F" horiz-adv-x="909" d="M-20 0l319 1540h674l-31 -156h-498l-106 -503h489l-30 -152h-490l-151 -729h-176z" />
<glyph unicode="G" horiz-adv-x="1204" d="M74 455q0 166 55 417q55 246 129 392q160 315 465 315q188 0 289.5 -103.5t101.5 -295.5q0 -55 -10 -148h-166q8 111 8 125q0 135 -62.5 207t-178.5 72q-205 0 -310 -281q-139 -383 -139 -737q0 -154 68.5 -238t193.5 -84q152 0 254.5 137.5t122.5 387.5h-332l29 145h504 l-154 -766h-127l19 160q-94 -195 -330 -195q-199 0 -314.5 128t-115.5 362z" />
<glyph unicode="H" horiz-adv-x="1189" d="M-20 0l319 1540h176l-131 -637h557l131 637h178l-321 -1540h-176l155 743h-557l-155 -743h-176z" />
<glyph unicode="I" horiz-adv-x="460" d="M-23 0l322 1540h180l-319 -1540h-183z" />
<glyph unicode="J" horiz-adv-x="876" d="M-43 276q0 76 25 195h161q-20 -129 -20 -197q0 -159 145 -159h2q100 0 140.5 66.5t72.5 224.5l236 1134h176l-254 -1218q-39 -186 -120 -271.5t-253 -85.5q-311 0 -311 311z" />
<glyph unicode="K" horiz-adv-x="1042" d="M-23 0l320 1540h176l-145 -700l647 700h227l-596 -622l307 -918h-182l-260 772l-203 -207l-114 -565h-177z" />
<glyph unicode="L" horiz-adv-x="884" d="M-20 0l319 1540h176l-289 -1384h598l-28 -156h-776z" />
<glyph unicode="M" horiz-adv-x="1513" d="M-23 0l324 1540h268l72 -1309l612 1309h277l-313 -1540h-173l322 1454l-690 -1454h-160l-82 1452l-282 -1452h-175z" />
<glyph unicode="N" horiz-adv-x="1189" d="M-23 0l322 1540h229l246 -1341l260 1341h176l-321 -1540h-234l-241 1356l-260 -1356h-177z" />
<glyph unicode="O" horiz-adv-x="1222" d="M74 440q0 174 57 430q55 244 129 394q158 313 459 313q211 0 321.5 -122t110.5 -355q0 -172 -57 -426q-55 -238 -127 -393q-154 -315 -463 -316q-209 0 -319.5 121t-110.5 354zM250 406q0 -139 70.5 -216t197.5 -77q207 0 307 254q47 119 95 340q61 301 61 446 q0 131 -70.5 204t-195.5 73q-213 0 -318 -267q-49 -131 -92 -329q-55 -266 -55 -428z" />
<glyph unicode="P" horiz-adv-x="1085" d="M-20 0l319 1540h348q221 0 326.5 -89t105.5 -300q0 -252 -140 -369.5t-427 -117.5h-217l-139 -664h-176zM326 809h157q229 0 326.5 69.5t97.5 278.5q0 137 -63.5 188.5t-206.5 51.5h-193z" />
<glyph unicode="Q" horiz-adv-x="1222" d="M72 434q0 170 59 434q57 256 125 396q158 313 463 313q211 0 321.5 -122t110.5 -355q0 -315 -125 -682q-57 -174 -143 -277l133 -125l-103 -100l-133 129q-106 -86 -291 -86q-195 0 -306 125t-111 350zM250 420q0 -152 66.5 -231.5t189.5 -79.5q115 0 160 43l-140 137 l97 100l147 -139q59 76 113 282q100 403 100 621q0 131 -70.5 204t-199.5 73q-213 0 -318 -267q-47 -123 -90 -329q-55 -256 -55 -414z" />
<glyph unicode="R" horiz-adv-x="1136" d="M-20 0l321 1540h365q231 0 341.5 -86t110.5 -289q0 -176 -86 -281.5t-244 -123.5q82 -16 131.5 -82t49.5 -160q0 -51 -19 -158l-39 -210q-6 -43 -6 -48q0 -47 37 -86v-16h-199q-16 43 -16 98q0 29 12 97l41 208q12 63 13 113q0 109 -64.5 145.5t-216.5 36.5h-211 l-145 -698h-176zM332 844h162q248 0 351 64.5t103 262.5q0 129 -67.5 177.5t-221.5 48.5h-213z" />
<glyph unicode="S" horiz-adv-x="1105" d="M31 399q0 23 4 72h164v-25q0 -172 63.5 -251.5t202.5 -79.5q154 0 237.5 90t83.5 237q0 37 -7 67t-14 51.5t-28.5 43t-35 32.5t-50.5 29.5t-54 25.5t-68.5 27.5t-73.5 31.5q-139 57 -202 137t-63 215q0 215 128 344t335 129q184 0 295 -101.5t111 -275.5q0 -31 -2 -47 h-164v20q0 121 -62.5 186.5t-177.5 65.5q-135 0 -211.5 -84t-76.5 -211q0 -55 17 -96t55 -69.5t80 -49t108 -49.5l30 -12q84 -35 132.5 -62.5t93.5 -71.5t64.5 -105.5t19.5 -149.5q0 -223 -139.5 -361.5t-368.5 -138.5q-201 0 -313.5 116t-112.5 320z" />
<glyph unicode="T" horiz-adv-x="833" d="M82 1395l29 145h870l-31 -145h-319l-289 -1395h-176l289 1395h-373z" />
<glyph unicode="U" horiz-adv-x="1187" d="M70 319q0 92 32 254l199 967h178l-217 -1044q-23 -113 -22 -168q0 -217 276 -217q123 0 183.5 66.5t93.5 219.5l243 1143h178l-235 -1118q-49 -238 -157.5 -348.5t-319.5 -110.5t-321.5 92t-110.5 264z" />
<glyph unicode="V" horiz-adv-x="1058" d="M133 1540h166l66 -1345l616 1345h190l-737 -1540h-209z" />
<glyph unicode="W" horiz-adv-x="1630" d="M137 1540h170l45 -1329l475 1329h209l43 -1329l475 1329h177l-580 -1540h-207l-47 1305l-475 -1305h-199z" />
<glyph unicode="X" horiz-adv-x="1003" d="M-131 0l530 807l-288 733h184l215 -567l369 567h194l-491 -749l311 -791h-188l-234 614l-403 -614h-199z" />
<glyph unicode="Y" horiz-adv-x="937" d="M43 1540h188l250 -739l418 739h199l-539 -899l-135 -641h-174l127 621z" />
<glyph unicode="Z" horiz-adv-x="917" d="M-68 0l29 154l801 1241h-621l35 145h807l-27 -145l-794 -1241h655l-37 -154h-848z" />
<glyph unicode="[" horiz-adv-x="653" d="M-14 -387l409 1927h320l-17 -110h-166l-360 -1706h176l-29 -111h-333z" />
<glyph unicode="\" horiz-adv-x="569" d="M164 1577h110l103 -1767h-109z" />
<glyph unicode="]" horiz-adv-x="653" d="M-135 -387l16 111h166l361 1706h-177l29 110h334l-410 -1927h-319z" />
<glyph unicode="^" horiz-adv-x="2048" d="M420 901l510 557h186l510 -557h-180l-422 420l-424 -420h-180z" />
<glyph unicode="_" horiz-adv-x="1024" d="M0 -340h1024v-143h-1024v143z" />
<glyph unicode="`" horiz-adv-x="1024" d="M369 1532h194l203 -260h-98z" />
<glyph unicode="a" horiz-adv-x="909" d="M-23 272q0 162 80 247t246 124l191 45q72 16 107.5 68.5t35.5 171.5q0 53 -43 86t-119 33q-180 0 -188 -197h-152q10 158 99.5 243t248.5 85q313 0 314 -256q0 -53 -23 -154l-104 -522q-10 -55 -11 -78q0 -35 23 -47t78 -12l-19 -109q-37 -18 -84 -18q-139 0 -139 120 q0 6 4 39q-59 -92 -120.5 -132t-151.5 -40q-129 0 -201 79t-72 224zM137 262q0 -74 39 -117t107 -43q119 0 176 89.5t98 287.5l21 107q-53 -27 -134 -45l-92 -21q-109 -25 -162 -85t-53 -173z" />
<glyph unicode="b" horiz-adv-x="997" d="M-37 0l328 1536h166l-103 -489q104 127 246 127q135 0 210 -100.5t75 -285.5q0 -154 -43 -322.5t-105 -277.5q-123 -215 -325 -215q-98 0 -166 52.5t-90 146.5l-39 -172h-154zM217 344q0 -109 43 -168t119 -59q162 0 250 231q88 229 88 467q0 109 -45 168t-123 59 q-131 0 -217 -184q-47 -100 -81 -251.5t-34 -262.5z" />
<glyph unicode="c" horiz-adv-x="937" d="M39 352q0 305 119 568q117 264 366 264q330 0 330 -369q0 -33 -2 -51h-156v67q0 207 -178 207q-147 0 -217 -186q-96 -262 -96 -500q0 -241 192 -241h2q197 0 230 282h151q-14 -203 -119.5 -316.5t-277.5 -113.5q-344 0 -344 389z" />
<glyph unicode="d" horiz-adv-x="991" d="M33 371q0 162 40 325.5t101 268.5q123 209 334 209q176 0 248 -189l116 551h158l-325 -1536h-154l27 115q-98 -141 -259 -142q-135 0 -210.5 102.5t-75.5 295.5zM199 356q0 -119 44 -182t124 -63q160 0 245 229q84 227 84 461q0 115 -47 175t-135 60q-141 0 -221 -200 q-41 -100 -67.5 -239.5t-26.5 -240.5z" />
<glyph unicode="e" horiz-adv-x="937" d="M35 360q0 139 34.5 300t84.5 266q117 256 360 256q317 0 317 -361q0 -111 -32 -262h-574q-24 -124 -24 -199v-6q0 -242 177 -242h1q178 0 231 265h150q-31 -197 -135.5 -306.5t-255.5 -109.5q-160 0 -247 103.5t-87 295.5zM252 696h414q12 90 12 148q0 203 -170 203 q-102 0 -161.5 -91.5t-94.5 -259.5z" />
<glyph unicode="f" horiz-adv-x="522" d="M-10 0l219 1024h-135l26 123h136l47 199q27 111 70.5 158.5t140.5 47.5q47 0 145 -16l-29 -131q-57 4 -67 4q-53 0 -77 -26.5t-40 -98.5l-29 -137h158l-25 -123h-159l-221 -1024h-160z" />
<glyph unicode="g" horiz-adv-x="1005" d="M-23 -94h158v-17q0 -163 168 -163h2q117 0 174.5 88t89.5 290q-104 -127 -247 -127q-133 0 -208 101.5t-75 286.5q0 162 43 328.5t104 271.5q125 215 326 215q98 0 165.5 -53.5t90.5 -147.5l35 168h153l-235 -1110q-25 -121 -54.5 -198t-77.5 -135t-119 -84t-173 -26 q-156 0 -238 75t-82 216v21zM207 334q0 -106 46 -165.5t122 -59.5q131 0 217 186q47 100 81 250.5t34 261.5q0 109 -44.5 168t-119.5 59q-158 0 -248 -231q-88 -229 -88 -469z" />
<glyph unicode="h" horiz-adv-x="968" d="M-37 0l328 1536h162l-107 -506q135 141 301 141q115 0 176.5 -54t61.5 -152q0 -63 -15 -127l-180 -838h-162l177 829q16 82 16 103q0 51 -35 83t-96 32q-78 0 -153 -49.5t-130 -141.5l-180 -856h-164z" />
<glyph unicode="i" horiz-adv-x="417" d="M-35 0l244 1147h166l-244 -1147h-166zM254 1352l41 198h166l-43 -198h-164z" />
<glyph unicode="j" horiz-adv-x="421" d="M-215 -399l27 131h34q27 0 42.5 5t25.5 23.5t15 34t14 55.5l276 1297h164l-268 -1258q-35 -158 -81 -226.5t-149 -68.5q-51 0 -100 7zM262 1352l43 198h164l-41 -198h-166z" />
<glyph unicode="k" horiz-adv-x="854" d="M-33 0l320 1536h166l-197 -903l473 514h201l-430 -440l221 -707h-170l-174 588l-164 -168l-86 -420h-160z" />
<glyph unicode="l" horiz-adv-x="417" d="M-33 0l326 1536h164l-326 -1536h-164z" />
<glyph unicode="m" horiz-adv-x="1531" d="M-39 0l244 1147h153l-28 -131q142 155 313 155h2q207 0 234 -167q165 167 329 167h2q115 0 175.5 -54t60.5 -152q0 -63 -14 -127l-179 -838h-161l176 829q14 72 14 103q0 51 -35 83t-94 32q-78 0 -152.5 -49.5t-130.5 -141.5l-182 -856h-162l176 829q14 72 15 103 q0 51 -35 83t-94 32q-98 0 -172 -62.5t-111 -128.5l-182 -856h-162z" />
<glyph unicode="n" horiz-adv-x="966" d="M-39 0l244 1147h153l-28 -131q142 155 313 155h2q115 0 176.5 -54t61.5 -152q0 -55 -17 -127l-178 -838h-162l176 829q14 72 15 103q0 51 -35 83t-94 32q-98 0 -172 -62.5t-111 -128.5l-182 -856h-162z" />
<glyph unicode="o" horiz-adv-x="997" d="M31 354q0 139 34.5 294t90.5 274q123 262 362 262q180 0 275.5 -99.5t95.5 -287.5q0 -147 -39 -317.5t-94 -276.5q-121 -240 -371 -240q-354 0 -354 391zM197 350.5q0 -239.5 196 -239.5q88 0 144.5 52t93.5 165q92 283 92 481q0 111 -52.5 170t-150.5 59 q-141 0 -217 -186q-106 -262 -106 -501.5z" />
<glyph unicode="p" horiz-adv-x="997" d="M-117 -389l328 1536h154l-27 -111q98 143 258 144q137 0 212 -104.5t75 -301.5q0 -348 -133.5 -572.5t-341.5 -224.5q-88 0 -153 48.5t-93 136.5l-117 -551h-162zM217 346q0 -111 48 -170t134 -59q141 0 222 198q39 100 66.5 239.5t27.5 256.5q0 111 -44 170t-122 59 q-164 0 -244 -231q-88 -262 -88 -463z" />
<glyph unicode="q" horiz-adv-x="997" d="M41 358q0 166 42 333t103 274q125 215 326 215q98 0 165.5 -53.5t90.5 -147.5l35 168h153l-325 -1536h-166l104 493q-104 -127 -250 -127q-133 0 -205.5 97.5t-72.5 283.5zM203 334q0 -106 46 -165.5t122 -59.5q131 0 217 186q47 100 80.5 250.5t33.5 261.5 q0 109 -44 168t-119 59q-158 0 -248 -231q-88 -229 -88 -469z" />
<glyph unicode="r" horiz-adv-x="616" d="M-35 0l244 1147h149l-41 -184q55 100 136.5 154t171.5 54q31 0 61 -8l-31 -166q-35 10 -59 11q-119 0 -205 -88.5t-123 -262.5l-139 -657h-164z" />
<glyph unicode="s" horiz-adv-x="901" d="M-8 266q0 4 1 13.5t2 27t1 33.5h156q0 -6 -1 -18.5t-1 -18.5q0 -197 196 -197q94 0 151.5 58.5t57.5 154.5q0 82 -34 122t-118 75q-156 68 -219 129.5t-63 190.5q0 160 93 254t253 94q152 0 241 -75t89 -198q0 -16 -4 -61h-146v6q0 190 -182 191q-84 0 -133 -52.5 t-49 -138.5q0 -31 9 -55.5t17 -38.5t38 -32.5t45.5 -27t63.5 -31t72 -32.5q100 -47 147.5 -114.5t47.5 -176.5q0 -182 -106.5 -285.5t-280.5 -103.5q-160 0 -252 83t-92 224z" />
<glyph unicode="t" horiz-adv-x="530" d="M27 143q0 27 22 140l160 741h-135l26 123h136l65 305h162l-66 -305h174l-26 -123h-174l-166 -770q-8 -43 -8 -61q0 -78 77 -78q8 0 97 10l-31 -143q-45 -12 -102 -13q-211 0 -211 174z" />
<glyph unicode="u" horiz-adv-x="966" d="M8 180q0 63 15 127l178 840h161l-176 -832q-14 -72 -14 -100q0 -51 35 -83t94 -32q168 0 283 189l182 858h162l-244 -1147h-154l29 129q-143 -156 -313 -156q-115 0 -176.5 54.5t-61.5 152.5z" />
<glyph unicode="v" horiz-adv-x="829" d="M84 1147h160l41 -957l411 957h181l-545 -1147h-170z" />
<glyph unicode="w" horiz-adv-x="1296" d="M90 1147h156l8 -940l367 940h170v-940l380 940h172l-512 -1147h-167l6 938l-369 -938h-172z" />
<glyph unicode="x" horiz-adv-x="802" d="M-143 0l407 606l-170 541h168l123 -402l272 402h189l-395 -561l194 -586h-166l-143 449l-293 -449h-186z" />
<glyph unicode="y" horiz-adv-x="833" d="M-143 -387l34 125q29 -10 66 -10q84 0 133 92l80 155l-84 1172h162l55 -926l397 926h181l-553 -1196q-90 -195 -166 -277t-195 -82q-49 0 -110 21z" />
<glyph unicode="z" horiz-adv-x="794" d="M-115 0l29 141l680 867h-467l37 139h657l-28 -131l-678 -869h497l-30 -147h-697z" />
<glyph unicode="{" horiz-adv-x="1024" d="M168 457v149q8 0 23.5 -1t21.5 -1q131 0 184.5 60.5t53.5 207.5v246q0 131 18 199.5t82 107.5q84 51 278 52h37v-150h-41q-125 0 -163.5 -47t-38.5 -182v-242q0 -150 -41 -222.5t-160 -103.5q121 -31 161 -102.5t40 -222.5v-242q0 -135 38.5 -182t165.5 -47h39v-148h-43 q-195 0 -272 49q-63 39 -81.5 108t-18.5 200v245q0 147 -53.5 209t-186.5 62q-6 0 -20.5 -1t-22.5 -1z" />
<glyph unicode="|" horiz-adv-x="1024" d="M438 -483v2048h150v-2048h-150z" />
<glyph unicode="}" horiz-adv-x="1024" d="M160 -266h39q125 0 164.5 48t39.5 183v240q0 150 41 222.5t160 102.5q-119 31 -160 104t-41 222v242q0 135 -39.5 182t-164.5 47h-39v150h37q197 0 278 -52q63 -39 81.5 -107.5t18.5 -199.5v-246q0 -147 53.5 -207.5t184.5 -60.5q6 0 21.5 1t23.5 1v-149q-8 0 -22.5 1 t-20.5 1q-133 0 -186.5 -61.5t-53.5 -209.5v-245q0 -131 -18 -200t-82 -108q-78 -49 -272 -49h-43v148z" />
<glyph unicode="~" horiz-adv-x="1705" d="M178 451v155q211 143 387 144q119 0 291 -62q8 -4 47 -17.5t51.5 -17.5t45 -13t50 -13t44 -7.5t49.5 -3.5q170 0 387 154v-156q-203 -141 -389 -141q-25 0 -52.5 3t-46 6t-52.5 13.5t-43 13.5t-50 17.5t-45 16.5q-193 66 -289 65q-162 0 -385 -157z" />
<glyph unicode="&#xa1;" horiz-adv-x="530" d="M8 0l105 467l204 688h89l-107 -709l-100 -446h-191zM303 1341l41 199h188l-36 -199h-193z" />
<glyph unicode="&#xa2;" d="M82 385q0 193 52 383t120 289q111 162 309 164l45 209h115l-45 -222q221 -57 221 -354q0 -37 -2 -55h-154q0 8 1 20t1 19q0 238 -184 237q-150 0 -219 -188q-94 -258 -94 -502q0 -242 194 -242q102 0 158.5 69t73.5 214h151q-14 -209 -119.5 -320.5t-287.5 -111.5 l-56 -264h-114l57 278q-223 63 -223 377z" />
<glyph unicode="&#xa3;" d="M61 135q96 57 154.5 186.5t58.5 280.5q0 33 -6 76h-166l23 102h131q-33 190 -33 289q0 215 110.5 339t293.5 124q168 0 265 -90t97 -248q0 -57 -16 -152h-164q12 98 12 148q0 102 -54 157.5t-151 55.5q-223 0 -223 -338q0 -90 31 -285h326l-25 -102h-297q2 -14 2 -37 q0 -158 -65.5 -294t-176.5 -212l2 -12q111 57 211 57q76 0 179.5 -29.5t134.5 -29.5q80 0 170 90l6 -6l-66 -213q-55 -31 -123 -31q-70 0 -195.5 43t-199.5 43q-121 0 -205 -82z" />
<glyph unicode="&#xa4;" d="M16 602l39 94h113q14 92 33 176h-135l36 95h121q29 117 62.5 201.5t90 178t144.5 143.5t203 50q166 0 243.5 -102.5t77.5 -257.5q0 -43 -2 -64h-159q0 6 1 20.5t1 22.5q0 233 -180 234q-55 0 -102.5 -32t-76 -70t-57.5 -109.5t-39 -107.5t-31 -107h455l-39 -95h-436 q-10 -43 -19 -84q-10 -47 -16 -92h399l-38 -94h-375q-8 -72 -15 -184v-25q0 -281 201 -280q195 0 258 327h154q-45 -227 -154.5 -351t-271.5 -124q-170 0 -263.5 117t-93.5 342v29q4 98 11 149h-140z" />
<glyph unicode="&#xa5;" d="M20 641l23 98h348l-63 170h-250l22 101h189l-199 508h186l254 -727l406 727h197l-312 -508h213l-20 -101h-258l-99 -170h320l-21 -98h-358l-135 -641h-168l127 641h-402z" />
<glyph unicode="&#xa6;" horiz-adv-x="1024" d="M438 -350v758h150v-758h-150zM438 674v758h150v-758h-150z" />
<glyph unicode="&#xa7;" horiz-adv-x="1024" d="M33 6q0 27 2 39h162q0 -4 -1 -16.5t-1 -16.5q0 -180 159 -180q76 0 122 44t46 116q0 59 -41 116.5t-143 159.5q-96 96 -140 145.5t-83 125t-39 151.5q0 248 291 352q-74 100 -74 215q0 135 96 227.5t248 92.5q137 0 224 -89t87 -235q0 -25 -2 -39h-162q0 6 1 16.5t1 16.5 q0 180 -159 180q-76 0 -122 -44t-46 -115q0 -59 41 -115.5t145 -161.5q94 -94 139 -145t83 -126t38 -151q0 -248 -289 -352q74 -102 74 -215q0 -135 -95 -226t-249 -91q-137 0 -225 89t-88 232zM246 719q0 -86 64.5 -170t228.5 -242q199 70 198 234q0 86 -64.5 170 t-228.5 241q-199 -70 -198 -233z" />
<glyph unicode="&#xa8;" horiz-adv-x="1024" d="M385 1296l39 187h164l-39 -187h-164zM705 1296l38 187h164l-39 -187h-163z" />
<glyph unicode="&#xa9;" horiz-adv-x="1705" d="M117 727q0 301 219 524q213 213 516 213q309 0 524 -215t215 -522t-213 -516q-227 -221 -526 -221t-518 219q-217 217 -217 518zM213 727q0 -260 190 -451q188 -188 451 -188q258 0 455 191q184 180 184 448t-184 453q-188 188 -455 188q-264 0 -448 -184 q-193 -193 -193 -457zM463 733q0 201 109.5 323t285.5 122q143 0 237.5 -75t104.5 -196h-147q-12 76 -65.5 118t-139.5 42q-102 0 -163.5 -89t-61.5 -251q0 -158 62.5 -245t172.5 -87q82 0 136.5 47t68.5 129h145q-10 -131 -108.5 -211.5t-247.5 -80.5q-180 0 -284.5 119.5 t-104.5 334.5z" />
<glyph unicode="&#xaa;" horiz-adv-x="681" d="M-16 928q0 115 59 174t184 86l144 31q53 12 79.5 48t26.5 119q0 37 -31.5 60.5t-89.5 23.5q-135 0 -141 -139h-113q6 111 74 170.5t186 59.5q236 0 236 -179q0 -31 -16 -108l-80 -365q-6 -33 -6 -55q0 -25 16 -33t57 -8l-12 -76q-27 -12 -63 -12q-104 0 -105 84 q0 2 1 11.5t1 15.5q-43 -63 -89 -91t-114 -28q-96 0 -150 55t-54 156zM102 922q0 -51 30 -82t81 -31q88 0 131 62.5t74 201.5l16 74q-43 -20 -100 -31l-70 -14q-82 -18 -122 -59.5t-40 -120.5z" />
<glyph unicode="&#xab;" horiz-adv-x="1003" d="M57 524l33 160l373 240l-29 -176l-258 -162l193 -193l-35 -149zM492 524l32 160l375 240l-29 -176l-258 -162l193 -193l-35 -149z" />
<glyph unicode="&#xac;" horiz-adv-x="1705" d="M254 721v139h1198v-502h-137v363h-1061z" />
<glyph unicode="&#xad;" horiz-adv-x="673" d="M37 504l33 162h512l-43 -162h-502z" />
<glyph unicode="&#xae;" horiz-adv-x="1705" d="M117 727q0 301 223 528q205 209 512 209q311 0 526 -219q213 -217 213 -518q0 -309 -215 -518q-225 -219 -524 -219q-303 0 -520 221q-215 219 -215 516zM213 727q0 -256 188 -448q186 -190 447 -191q264 0 459 188q186 181 186 445q0 274 -182 457q-186 190 -457 190 q-268 0 -446 -182q-195 -199 -195 -459zM557 324v835h315q348 0 349 -229q0 -88 -50.5 -147.5t-140.5 -77.5l187 -381h-177l-170 356h-155v-356h-158zM715 780h133q111 0 161 31t50 102q0 76 -51 110t-164 34h-129v-277z" />
<glyph unicode="&#xaf;" horiz-adv-x="1024" d="M385 1327l29 127h493l-26 -127h-496z" />
<glyph unicode="&#xb0;" horiz-adv-x="673" d="M49 1167.5q0 120.5 85 204.5t204 84t203 -85t84 -203.5t-84 -202.5t-205 -84t-204 83t-83 203.5zM143 1169q0 -82 56.5 -139t138.5 -57t137 57t55 139q0 80 -55 136.5t-137 56.5q-80 0 -137.5 -56.5t-57.5 -136.5z" />
<glyph unicode="&#xb1;" horiz-adv-x="1705" d="M254 29v141h1198v-141h-1198zM254 713v139h528v340h142v-340h528v-139h-528v-340h-142v340h-528z" />
<glyph unicode="&#xb2;" horiz-adv-x="673" d="M-23 602q6 240 312 410l92 51q158 84 158 219q0 78 -38 118t-108 40q-145 0 -172 -205h-110q12 135 84.5 211t199.5 76q121 0 189.5 -60.5t68.5 -171.5q0 -104 -49 -173.5t-160 -131.5l-104 -55q-215 -121 -236 -238h451l-23 -90h-555z" />
<glyph unicode="&#xb3;" horiz-adv-x="673" d="M18 821q1 35 9 68h104q-2 -25 -2 -43q0 -90 35 -132t112 -42q84 0 136.5 62.5t52.5 160.5q0 147 -201 147h-4l16 80h21q238 0 238 195q0 123 -127 123q-125 0 -156 -152h-102q14 111 82.5 172.5t177.5 61.5q111 0 174 -55.5t63 -155.5q0 -90 -53 -155.5t-141 -82.5 q125 -66 125 -190q0 -127 -84 -214t-215 -87q-121 0 -191 65.5t-70 173.5z" />
<glyph unicode="&#xb4;" horiz-adv-x="1024" d="M502 1272l200 260h185l-285 -260h-100z" />
<glyph unicode="&#xb6;" horiz-adv-x="1024" d="M66 1130q0 156 106.5 252.5t286.5 96.5h499v-86h-120v-1393h-111v1393h-178v-1393h-111v782q-172 8 -272 103.5t-100 244.5z" />
<glyph unicode="&#xb7;" horiz-adv-x="509" d="M131 762q0 53 39 91t92 38q55 0 93 -37t38 -92t-39 -93t-92 -38t-92 38t-39 93z" />
<glyph unicode="&#xb8;" horiz-adv-x="1024" d="M111 -430l36 94q123 -33 179 -33q135 0 135 99q0 45 -42 62.5t-136 17.5h-21l66 190h75l-34 -102h22q213 0 213 -166q0 -96 -64.5 -150.5t-185.5 -54.5q-81 0 -243 43z" />
<glyph unicode="&#xb9;" horiz-adv-x="671" d="M168 1305l16 69q102 4 164 38t105 110h86l-207 -920h-109l158 721q-74 -23 -139 -23q-29 0 -74 5z" />
<glyph unicode="&#xba;" horiz-adv-x="747" d="M23 985q0 213 94 397.5t272 184.5q135 0 207 -70t72 -203q0 -102 -30 -221t-71 -194q-92 -168 -278 -168q-266 0 -266 274zM147 983q0 -168 148 -168q66 0 107.5 37t70.5 115q70 199 70 336q0 161 -152 161q-106 0 -164 -131q-80 -182 -80 -350z" />
<glyph unicode="&#xbb;" horiz-adv-x="1003" d="M41 244l29 178l258 160l-193 192l35 152l279 -283l-33 -160zM477 244l29 178l258 160l-193 192l35 152l277 -283l-33 -160z" />
<glyph unicode="&#xbc;" horiz-adv-x="1624" d="M162 1317l16 65q98 4 156.5 36t99.5 102h82l-199 -858h-102l152 673q-63 -20 -136 -20q-47 0 -69 2zM301 -35l899 1575h125l-899 -1575h-125zM985 225l21 88l481 545h100l-125 -553h99l-21 -80h-96l-51 -225h-101l49 225h-356zM1096 305h266l100 420z" />
<glyph unicode="&#xbd;" horiz-adv-x="1624" d="M162 1317l16 65q98 4 156.5 36t99.5 102h82l-199 -858h-102l152 673q-63 -20 -136 -20q-47 0 -69 2zM301 -35l899 1575h125l-899 -1575h-125zM963 0q6 227 294 381l91 49q150 80 149 205q0 147 -139 147q-137 0 -164 -192h-104q10 125 79.5 196.5t192.5 71.5 q113 0 178.5 -56.5t65.5 -158.5q0 -98 -46.5 -163.5t-152.5 -121.5l-98 -53q-209 -111 -226 -221h428l-20 -84h-528z" />
<glyph unicode="&#xbe;" horiz-adv-x="1624" d="M16 866q1 35 9 62h100q-2 -20 -2 -39q0 -84 32.5 -124t108.5 -40q80 0 130 59.5t50 151.5q0 137 -192 137h-4l16 74h19q227 0 227 180q0 115 -121 115q-119 0 -149 -139h-99q14 104 80 160.5t170 56.5q106 0 166.5 -51.5t60.5 -145.5q0 -84 -51 -145.5t-135 -77.5 q119 -59 119 -176q0 -121 -80 -201t-205 -80q-117 0 -183.5 60.5t-66.5 162.5zM301 -35l899 1575h125l-899 -1575h-125zM985 225l21 88l481 545h100l-125 -553h99l-21 -80h-96l-51 -225h-101l49 225h-356zM1096 305h266l100 420z" />
<glyph unicode="&#xbf;" d="M41 326q0 250 242 415l71 50q98 66 143.5 145.5t59.5 212.5h156q-12 -186 -71.5 -286.5t-190.5 -200.5l-111 -84q-53 -41 -87 -112t-34 -153q0 -94 55.5 -148t143.5 -54q100 0 163.5 72.5t67.5 203.5h166q-8 -188 -118.5 -305t-280.5 -117q-174 0 -274.5 98.5 t-100.5 262.5zM565 1341l39 199h191l-39 -199h-191z" />
<glyph unicode="&#xc0;" horiz-adv-x="1052" d="M-131 0l739 1540h211l88 -1540h-166l-16 434h-473l-199 -434h-184zM324 590h397l-23 831zM492 1925h194l203 -260h-98z" />
<glyph unicode="&#xc1;" horiz-adv-x="1052" d="M-131 0l739 1540h211l88 -1540h-166l-16 434h-473l-199 -434h-184zM324 590h397l-23 831zM625 1665l200 260h185l-285 -260h-100z" />
<glyph unicode="&#xc2;" horiz-adv-x="1052" d="M-131 0l739 1540h211l88 -1540h-166l-16 434h-473l-199 -434h-184zM324 590h397l-23 831zM451 1665l245 260h172l144 -260h-98l-138 153l-213 -153h-112z" />
<glyph unicode="&#xc3;" horiz-adv-x="1052" d="M-131 0l739 1540h211l88 -1540h-166l-16 434h-473l-199 -434h-184zM324 590h397l-23 831zM490 1685q51 195 188 195q31 0 74 -12l55 -17q47 -14 64 -14q57 0 88 65h94q-61 -188 -191 -188q-29 0 -82 16l-51 17q-31 10 -57 10q-72 0 -88 -72h-94z" />
<glyph unicode="&#xc4;" horiz-adv-x="1052" d="M-131 0l739 1540h211l88 -1540h-166l-16 434h-473l-199 -434h-184zM324 590h397l-23 831zM508 1689l39 187h164l-39 -187h-164zM828 1689l38 187h164l-39 -187h-163z" />
<glyph unicode="&#xc5;" horiz-adv-x="1052" d="M-131 0l737 1534h213l88 -1534h-166l-16 434h-473l-199 -434h-184zM324 590h397l-23 831zM539 1780q0 80 56 136t136 56q82 0 137.5 -56t55.5 -136t-56.5 -136.5t-136.5 -56.5t-136 56.5t-56 136.5zM633 1780q0 -39 29.5 -69t68.5 -30t69.5 30t30.5 69t-29.5 68.5 t-70.5 29.5q-39 0 -68.5 -29.5t-29.5 -68.5z" />
<glyph unicode="&#xc6;" horiz-adv-x="1624" d="M-121 0l901 1540h836l-29 -145h-500l-106 -514h537l-33 -152h-535l-121 -573h586l-29 -156h-765l102 465h-387l-254 -465h-203zM418 616h330l159 779h-53z" />
<glyph unicode="&#xc7;" horiz-adv-x="1181" d="M74 453q0 190 52 418.5t132 394.5q152 313 461 313q186 0 287.5 -103.5t101.5 -295.5q0 -55 -10 -148h-164q6 70 6 123q0 285 -235 285q-211 0 -314 -285q-47 -131 -88 -336q-49 -240 -49 -401q0 -313 244 -314q127 0 221 105.5t131 298.5h158q-43 -258 -182.5 -401.5 t-340.5 -143.5q-203 0 -307 124t-104 366zM217 -430l36 94q123 -33 179 -33q135 0 135 99q0 45 -42 62.5t-136 17.5h-21l66 190h75l-34 -102h22q213 0 213 -166q0 -96 -64.5 -150.5t-185.5 -54.5q-81 0 -243 43z" />
<glyph unicode="&#xc8;" horiz-adv-x="978" d="M-23 0l322 1540h674l-33 -151h-496l-106 -508h534l-32 -152h-533l-121 -573h586l-31 -156h-764zM408 1925h194l203 -260h-98z" />
<glyph unicode="&#xc9;" horiz-adv-x="978" d="M-23 0l322 1540h674l-33 -151h-496l-106 -508h534l-32 -152h-533l-121 -573h586l-31 -156h-764zM541 1665l200 260h185l-285 -260h-100z" />
<glyph unicode="&#xca;" horiz-adv-x="978" d="M-23 0l322 1540h674l-33 -151h-496l-106 -508h534l-32 -152h-533l-121 -573h586l-31 -156h-764zM367 1665l245 260h172l144 -260h-98l-138 153l-213 -153h-112z" />
<glyph unicode="&#xcb;" horiz-adv-x="978" d="M-23 0l322 1540h674l-33 -151h-496l-106 -508h534l-32 -152h-533l-121 -573h586l-31 -156h-764zM424 1689l39 187h164l-39 -187h-164zM744 1689l38 187h164l-39 -187h-163z" />
<glyph unicode="&#xcc;" horiz-adv-x="460" d="M-23 0l322 1540h180l-319 -1540h-183zM166 1925h194l203 -260h-98z" />
<glyph unicode="&#xcd;" horiz-adv-x="460" d="M-23 0l322 1540h180l-319 -1540h-183zM299 1665l200 260h185l-285 -260h-100z" />
<glyph unicode="&#xce;" horiz-adv-x="460" d="M-23 0l322 1540h180l-319 -1540h-183zM125 1665l245 260h172l144 -260h-98l-138 153l-213 -153h-112z" />
<glyph unicode="&#xcf;" horiz-adv-x="460" d="M-23 0l322 1540h180l-319 -1540h-183zM182 1689l39 187h164l-39 -187h-164zM502 1689l38 187h164l-39 -187h-163z" />
<glyph unicode="&#xd0;" horiz-adv-x="1228" d="M-12 752l30 143h166l133 645h330q252 0 372 -126t120 -392q0 -238 -61.5 -459t-151.5 -344q-102 -139 -223 -179t-328 -40h-379l158 752h-166zM205 154h194q168 0 254 34.5t158 163.5q61 111 101 290t40 390q0 195 -78.5 274.5t-267.5 79.5h-143l-105 -491h304l-31 -143 h-303z" />
<glyph unicode="&#xd1;" horiz-adv-x="1189" d="M-23 0l322 1540h229l246 -1341l260 1341h176l-321 -1540h-234l-241 1356l-260 -1356h-177zM545 1685q51 195 188 195q31 0 74 -12l55 -17q47 -14 64 -14q57 0 88 65h94q-61 -188 -191 -188q-29 0 -82 16l-51 17q-31 10 -57 10q-72 0 -88 -72h-94z" />
<glyph unicode="&#xd2;" horiz-adv-x="1222" d="M74 440q0 174 57 430q55 244 129 394q158 313 459 313q211 0 321.5 -122t110.5 -355q0 -172 -57 -426q-55 -238 -127 -393q-154 -315 -463 -316q-209 0 -319.5 121t-110.5 354zM250 406q0 -139 70.5 -216t197.5 -77q207 0 307 254q47 119 95 340q61 301 61 446 q0 131 -70.5 204t-195.5 73q-213 0 -318 -267q-49 -131 -92 -329q-55 -266 -55 -428zM551 1925h194l203 -260h-98z" />
<glyph unicode="&#xd3;" horiz-adv-x="1222" d="M74 440q0 174 57 430q55 244 129 394q158 313 459 313q211 0 321.5 -122t110.5 -355q0 -172 -57 -426q-55 -238 -127 -393q-154 -315 -463 -316q-209 0 -319.5 121t-110.5 354zM250 406q0 -139 70.5 -216t197.5 -77q207 0 307 254q47 119 95 340q61 301 61 446 q0 131 -70.5 204t-195.5 73q-213 0 -318 -267q-49 -131 -92 -329q-55 -266 -55 -428zM684 1665l200 260h185l-285 -260h-100z" />
<glyph unicode="&#xd4;" horiz-adv-x="1222" d="M74 440q0 174 57 430q55 244 129 394q158 313 459 313q211 0 321.5 -122t110.5 -355q0 -172 -57 -426q-55 -238 -127 -393q-154 -315 -463 -316q-209 0 -319.5 121t-110.5 354zM250 406q0 -139 70.5 -216t197.5 -77q207 0 307 254q47 119 95 340q61 301 61 446 q0 131 -70.5 204t-195.5 73q-213 0 -318 -267q-49 -131 -92 -329q-55 -266 -55 -428zM510 1665l245 260h172l144 -260h-98l-138 153l-213 -153h-112z" />
<glyph unicode="&#xd5;" horiz-adv-x="1222" d="M74 440q0 174 57 430q55 244 129 394q158 313 459 313q211 0 321.5 -122t110.5 -355q0 -172 -57 -426q-55 -238 -127 -393q-154 -315 -463 -316q-209 0 -319.5 121t-110.5 354zM250 406q0 -139 70.5 -216t197.5 -77q207 0 307 254q47 119 95 340q61 301 61 446 q0 131 -70.5 204t-195.5 73q-213 0 -318 -267q-49 -131 -92 -329q-55 -266 -55 -428zM549 1685q51 195 188 195q31 0 74 -12l55 -17q47 -14 64 -14q57 0 88 65h94q-61 -188 -191 -188q-29 0 -82 16l-51 17q-31 10 -57 10q-72 0 -88 -72h-94z" />
<glyph unicode="&#xd6;" horiz-adv-x="1222" d="M74 440q0 174 57 430q55 244 129 394q158 313 459 313q211 0 321.5 -122t110.5 -355q0 -172 -57 -426q-55 -238 -127 -393q-154 -315 -463 -316q-209 0 -319.5 121t-110.5 354zM250 406q0 -139 70.5 -216t197.5 -77q207 0 307 254q47 119 95 340q61 301 61 446 q0 131 -70.5 204t-195.5 73q-213 0 -318 -267q-49 -131 -92 -329q-55 -266 -55 -428zM567 1689l39 187h164l-39 -187h-164zM887 1689l38 187h164l-39 -187h-163z" />
<glyph unicode="&#xd7;" horiz-adv-x="1705" d="M293 141l469 469l-469 469l98 99l469 -469l469 469l98 -99l-469 -469l469 -469l-98 -96l-469 467l-469 -467z" />
<glyph unicode="&#xd8;" horiz-adv-x="1220" d="M39 -61l115 184q-80 98 -80 326q0 176 55 421q57 252 129 394q156 313 459 313q178 0 295 -92l92 145l86 -49l-111 -174q72 -129 72 -307q0 -166 -59 -426q-57 -252 -127 -393q-154 -315 -461 -316q-162 0 -283 82l-102 -162zM250 414q0 -54 12 -117l664 1049 q-80 84 -211 84q-215 0 -320 -267q-63 -166 -104 -377t-41 -372zM313 195q76 -82 205 -82q117 0 196 76.5t132 236.5q45 133 86 356q49 270 49 383q0 33 -6 76z" />
<glyph unicode="&#xd9;" horiz-adv-x="1187" d="M70 319q0 92 32 254l199 967h178l-217 -1044q-23 -113 -22 -168q0 -217 276 -217q123 0 183.5 66.5t93.5 219.5l243 1143h178l-235 -1118q-49 -238 -157.5 -348.5t-319.5 -110.5t-321.5 92t-110.5 264zM535 1925h194l203 -260h-98z" />
<glyph unicode="&#xda;" horiz-adv-x="1187" d="M70 319q0 92 32 254l199 967h178l-217 -1044q-23 -113 -22 -168q0 -217 276 -217q123 0 183.5 66.5t93.5 219.5l243 1143h178l-235 -1118q-49 -238 -157.5 -348.5t-319.5 -110.5t-321.5 92t-110.5 264zM668 1665l200 260h185l-285 -260h-100z" />
<glyph unicode="&#xdb;" horiz-adv-x="1187" d="M70 319q0 92 32 254l199 967h178l-217 -1044q-23 -113 -22 -168q0 -217 276 -217q123 0 183.5 66.5t93.5 219.5l243 1143h178l-235 -1118q-49 -238 -157.5 -348.5t-319.5 -110.5t-321.5 92t-110.5 264zM494 1665l245 260h172l144 -260h-98l-138 153l-213 -153h-112z" />
<glyph unicode="&#xdc;" horiz-adv-x="1187" d="M70 319q0 92 32 254l199 967h178l-217 -1044q-23 -113 -22 -168q0 -217 276 -217q123 0 183.5 66.5t93.5 219.5l243 1143h178l-235 -1118q-49 -238 -157.5 -348.5t-319.5 -110.5t-321.5 92t-110.5 264zM551 1689l39 187h164l-39 -187h-164zM871 1689l38 187h164l-39 -187 h-163z" />
<glyph unicode="&#xdd;" horiz-adv-x="937" d="M43 1540h188l250 -739l418 739h199l-539 -899l-135 -641h-174l127 621zM539 1665l200 260h185l-285 -260h-100z" />
<glyph unicode="&#xde;" horiz-adv-x="1085" d="M-20 0l319 1540h182l-59 -283h166q221 0 326.5 -89t105.5 -300q0 -252 -140.5 -369.5t-426.5 -117.5h-217l-80 -381h-176zM266 526h158q229 0 326.5 70t97.5 278q0 137 -63.5 188.5t-206.5 51.5h-189z" />
<glyph unicode="&#xdf;" horiz-adv-x="1009" d="M-33 0l252 1196q39 182 129 267t254 85q143 0 239.5 -96t96.5 -248q0 -145 -69.5 -244.5t-180.5 -107.5q170 -82 170 -291q0 -242 -119 -432q-100 -160 -260 -160q-115 0 -205 78l35 152q82 -76 148 -76q59 0 98 31.5t68 105.5q66 162 65 336q0 111 -50 161t-171 62 l22 125q78 -8 91 -8q88 0 143 82t55 213q0 88 -49 135t-137 47q-49 0 -85 -18.5t-59.5 -45t-44 -81t-32 -101.5t-29.5 -131l-215 -1036h-160z" />
<glyph unicode="&#xe0;" horiz-adv-x="909" d="M-23 272q0 162 80 247t246 124l191 45q72 16 107.5 68.5t35.5 171.5q0 53 -43 86t-119 33q-180 0 -188 -197h-152q10 158 99.5 243t248.5 85q313 0 314 -256q0 -53 -23 -154l-104 -522q-10 -55 -11 -78q0 -35 23 -47t78 -12l-19 -109q-37 -18 -84 -18q-139 0 -139 120 q0 6 4 39q-59 -92 -120.5 -132t-151.5 -40q-129 0 -201 79t-72 224zM137 262q0 -74 39 -117t107 -43q119 0 176 89.5t98 287.5l21 107q-53 -27 -134 -45l-92 -21q-109 -25 -162 -85t-53 -173zM277 1532h194l203 -260h-98z" />
<glyph unicode="&#xe1;" horiz-adv-x="909" d="M-23 272q0 162 80 247t246 124l191 45q72 16 107.5 68.5t35.5 171.5q0 53 -43 86t-119 33q-180 0 -188 -197h-152q10 158 99.5 243t248.5 85q313 0 314 -256q0 -53 -23 -154l-104 -522q-10 -55 -11 -78q0 -35 23 -47t78 -12l-19 -109q-37 -18 -84 -18q-139 0 -139 120 q0 6 4 39q-59 -92 -120.5 -132t-151.5 -40q-129 0 -201 79t-72 224zM137 262q0 -74 39 -117t107 -43q119 0 176 89.5t98 287.5l21 107q-53 -27 -134 -45l-92 -21q-109 -25 -162 -85t-53 -173zM410 1272l200 260h185l-285 -260h-100z" />
<glyph unicode="&#xe2;" horiz-adv-x="909" d="M-23 272q0 162 80 247t246 124l191 45q72 16 107.5 68.5t35.5 171.5q0 53 -43 86t-119 33q-180 0 -188 -197h-152q10 158 99.5 243t248.5 85q313 0 314 -256q0 -53 -23 -154l-104 -522q-10 -55 -11 -78q0 -35 23 -47t78 -12l-19 -109q-37 -18 -84 -18q-139 0 -139 120 q0 6 4 39q-59 -92 -120.5 -132t-151.5 -40q-129 0 -201 79t-72 224zM137 262q0 -74 39 -117t107 -43q119 0 176 89.5t98 287.5l21 107q-53 -27 -134 -45l-92 -21q-109 -25 -162 -85t-53 -173zM236 1272l245 260h172l144 -260h-98l-138 153l-213 -153h-112z" />
<glyph unicode="&#xe3;" horiz-adv-x="909" d="M-23 272q0 162 80 247t246 124l191 45q72 16 107.5 68.5t35.5 171.5q0 53 -43 86t-119 33q-180 0 -188 -197h-152q10 158 99.5 243t248.5 85q313 0 314 -256q0 -53 -23 -154l-104 -522q-10 -55 -11 -78q0 -35 23 -47t78 -12l-19 -109q-37 -18 -84 -18q-139 0 -139 120 q0 6 4 39q-59 -92 -120.5 -132t-151.5 -40q-129 0 -201 79t-72 224zM137 262q0 -74 39 -117t107 -43q119 0 176 89.5t98 287.5l21 107q-53 -27 -134 -45l-92 -21q-109 -25 -162 -85t-53 -173zM275 1292q51 195 188 195q31 0 74 -12l55 -17q47 -14 64 -14q57 0 88 65h94 q-61 -188 -191 -188q-29 0 -82 16l-51 17q-31 10 -57 10q-72 0 -88 -72h-94z" />
<glyph unicode="&#xe4;" horiz-adv-x="909" d="M-23 272q0 162 80 247t246 124l191 45q72 16 107.5 68.5t35.5 171.5q0 53 -43 86t-119 33q-180 0 -188 -197h-152q10 158 99.5 243t248.5 85q313 0 314 -256q0 -53 -23 -154l-104 -522q-10 -55 -11 -78q0 -35 23 -47t78 -12l-19 -109q-37 -18 -84 -18q-139 0 -139 120 q0 6 4 39q-59 -92 -120.5 -132t-151.5 -40q-129 0 -201 79t-72 224zM137 262q0 -74 39 -117t107 -43q119 0 176 89.5t98 287.5l21 107q-53 -27 -134 -45l-92 -21q-109 -25 -162 -85t-53 -173zM293 1296l39 187h164l-39 -187h-164zM613 1296l38 187h164l-39 -187h-163z" />
<glyph unicode="&#xe5;" horiz-adv-x="909" d="M-23 272q0 162 80 247t246 124l191 45q72 16 107.5 68.5t35.5 171.5q0 53 -43 86t-119 33q-180 0 -188 -197h-152q10 158 99.5 243t248.5 85q313 0 314 -256q0 -53 -23 -154l-104 -522q-10 -55 -11 -78q0 -35 23 -47t78 -12l-19 -109q-37 -18 -84 -18q-139 0 -139 120 q0 6 4 39q-59 -92 -120.5 -132t-151.5 -40q-129 0 -201 79t-72 224zM137 262q0 -74 39 -117t107 -43q119 0 176 89.5t98 287.5l21 107q-53 -27 -134 -45l-92 -21q-109 -25 -162 -85t-53 -173zM360 1427.5q0 79.5 56.5 136t136.5 56.5q82 0 137 -56.5t55 -136t-56 -137 t-136 -57.5t-136.5 57.5t-56.5 137zM455 1427.5q0 -38.5 29.5 -69.5t68.5 -31t69.5 31t30.5 69.5t-29.5 68.5t-70.5 30q-39 0 -68.5 -30t-29.5 -68.5z" />
<glyph unicode="&#xe6;" horiz-adv-x="1472" d="M-16 264q0 98 27.5 166t90 110t129 65.5t177.5 47.5q78 18 107.5 27.5t71.5 35t56 68.5t14 113q0 66 -44 102.5t-117 36.5q-94 0 -140.5 -44t-60.5 -146h-156q12 158 105.5 239.5t261.5 81.5q215 0 266 -127q94 139 272 140q162 0 241 -89.5t79 -271.5q0 -111 -33 -262 h-573q-25 -127 -25 -215q0 -231 180.5 -231t231.5 264h147q-33 -199 -136 -306.5t-257 -107.5q-219 0 -289 184q-129 -190 -338 -190q-137 0 -212.5 83t-75.5 226zM141 250q0 -68 41 -113t111 -45q254 0 301 500q-31 -27 -72 -41t-105.5 -29.5t-92.5 -23.5 q-100 -31 -141.5 -83.5t-41.5 -164.5zM784 694h414q14 104 14 148q0 203 -172 202q-96 0 -157.5 -85t-98.5 -265z" />
<glyph unicode="&#xe7;" horiz-adv-x="937" d="M39 352q0 305 119 568q117 264 366 264q330 0 330 -369q0 -33 -2 -51h-156v67q0 207 -178 207q-147 0 -217 -186q-96 -262 -96 -500q0 -242 194 -241q197 0 230 282h151q-14 -203 -119.5 -316.5t-277.5 -113.5q-344 0 -344 389zM144 -430l36 94q123 -33 179 -33 q135 0 135 99q0 45 -42 62.5t-136 17.5h-21l66 190h75l-34 -102h22q213 0 213 -166q0 -96 -64.5 -150.5t-185.5 -54.5q-81 0 -243 43z" />
<glyph unicode="&#xe8;" horiz-adv-x="937" d="M35 360q0 139 34.5 300t84.5 266q117 256 360 256q317 0 317 -361q0 -111 -32 -262h-574q-25 -129 -24 -205q0 -242 178 -241.5t231 264.5h150q-31 -197 -135.5 -306.5t-255.5 -109.5q-160 0 -247 103.5t-87 295.5zM252 696h414q12 90 12 148q0 203 -170 203 q-102 0 -161.5 -91.5t-94.5 -259.5zM303 1532h194l203 -260h-98z" />
<glyph unicode="&#xe9;" horiz-adv-x="937" d="M35 360q0 139 34.5 300t84.5 266q117 256 360 256q317 0 317 -361q0 -111 -32 -262h-574q-25 -129 -24 -205q0 -242 178 -241.5t231 264.5h150q-31 -197 -135.5 -306.5t-255.5 -109.5q-160 0 -247 103.5t-87 295.5zM252 696h414q12 90 12 148q0 203 -170 203 q-102 0 -161.5 -91.5t-94.5 -259.5zM436 1272l200 260h185l-285 -260h-100z" />
<glyph unicode="&#xea;" horiz-adv-x="937" d="M35 360q0 139 34.5 300t84.5 266q117 256 360 256q317 0 317 -361q0 -111 -32 -262h-574q-25 -129 -24 -205q0 -242 178 -241.5t231 264.5h150q-31 -197 -135.5 -306.5t-255.5 -109.5q-160 0 -247 103.5t-87 295.5zM252 696h414q12 90 12 148q0 203 -170 203 q-102 0 -161.5 -91.5t-94.5 -259.5zM262 1272l245 260h172l144 -260h-98l-138 153l-213 -153h-112z" />
<glyph unicode="&#xeb;" horiz-adv-x="937" d="M35 360q0 139 34.5 300t84.5 266q117 256 360 256q317 0 317 -361q0 -111 -32 -262h-574q-25 -129 -24 -205q0 -242 178 -241.5t231 264.5h150q-31 -197 -135.5 -306.5t-255.5 -109.5q-160 0 -247 103.5t-87 295.5zM252 696h414q12 90 12 148q0 203 -170 203 q-102 0 -161.5 -91.5t-94.5 -259.5zM319 1296l39 187h164l-39 -187h-164zM639 1296l38 187h164l-39 -187h-163z" />
<glyph unicode="&#xec;" horiz-adv-x="417" d="M-35 0l244 1147h166l-244 -1147h-166zM76 1532h194l203 -260h-98z" />
<glyph unicode="&#xed;" horiz-adv-x="417" d="M-35 0l244 1147h166l-244 -1147h-166zM209 1272l200 260h185l-285 -260h-100z" />
<glyph unicode="&#xee;" horiz-adv-x="417" d="M-35 0l244 1147h166l-244 -1147h-166zM35 1272l245 260h172l144 -260h-98l-138 153l-213 -153h-112z" />
<glyph unicode="&#xef;" horiz-adv-x="417" d="M-35 0l244 1147h166l-244 -1147h-166zM92 1296l39 187h164l-39 -187h-164zM412 1296l38 187h164l-39 -187h-163z" />
<glyph unicode="&#xf0;" horiz-adv-x="997" d="M29 344q0 291 116 528q123 248 347 248q112 0 196 -84q-47 152 -156 236l-225 -117l-37 66l195 110q-72 59 -176 103l28 94q117 -45 265 -144l247 142l37 -74l-219 -121q231 -203 232 -538q0 -174 -37 -339t-92 -270q-117 -223 -355 -223q-367 0 -366 383zM197 344 q0 -233 198 -233q162 0 234 208q84 240 84 443q0 111 -53.5 169t-151.5 58q-143 0 -213 -172q-98 -242 -98 -473z" />
<glyph unicode="&#xf1;" horiz-adv-x="966" d="M-39 0l244 1147h153l-28 -131q143 156 315 155q115 0 176.5 -54t61.5 -152q0 -55 -17 -127l-178 -838h-162l176 829q14 72 15 103q0 51 -35 83t-94 32q-98 0 -172 -62.5t-111 -128.5l-182 -856h-162zM338 1292q51 195 188 195q31 0 74 -12l55 -17q47 -14 64 -14 q57 0 88 65h94q-61 -188 -191 -188q-29 0 -82 16l-51 17q-31 10 -57 10q-72 0 -88 -72h-94z" />
<glyph unicode="&#xf2;" horiz-adv-x="997" d="M31 354q0 139 34.5 294t90.5 274q123 262 362 262q180 0 275.5 -99.5t95.5 -287.5q0 -147 -39 -317.5t-94 -276.5q-121 -240 -371 -240q-354 0 -354 391zM197 350.5q0 -239.5 196 -239.5q88 0 144.5 52t93.5 165q92 283 92 481q0 111 -52.5 170t-150.5 59 q-141 0 -217 -186q-106 -262 -106 -501.5zM342 1532h194l203 -260h-98z" />
<glyph unicode="&#xf3;" horiz-adv-x="997" d="M31 354q0 139 34.5 294t90.5 274q123 262 362 262q180 0 275.5 -99.5t95.5 -287.5q0 -147 -39 -317.5t-94 -276.5q-121 -240 -371 -240q-354 0 -354 391zM197 350.5q0 -239.5 196 -239.5q88 0 144.5 52t93.5 165q92 283 92 481q0 111 -52.5 170t-150.5 59 q-141 0 -217 -186q-106 -262 -106 -501.5zM475 1272l200 260h185l-285 -260h-100z" />
<glyph unicode="&#xf4;" horiz-adv-x="997" d="M31 354q0 139 34.5 294t90.5 274q123 262 362 262q180 0 275.5 -99.5t95.5 -287.5q0 -147 -39 -317.5t-94 -276.5q-121 -240 -371 -240q-354 0 -354 391zM197 350.5q0 -239.5 196 -239.5q88 0 144.5 52t93.5 165q92 283 92 481q0 111 -52.5 170t-150.5 59 q-141 0 -217 -186q-106 -262 -106 -501.5zM301 1272l245 260h172l144 -260h-98l-138 153l-213 -153h-112z" />
<glyph unicode="&#xf5;" horiz-adv-x="997" d="M31 354q0 139 34.5 294t90.5 274q123 262 362 262q180 0 275.5 -99.5t95.5 -287.5q0 -147 -39 -317.5t-94 -276.5q-121 -240 -371 -240q-354 0 -354 391zM197 350.5q0 -239.5 196 -239.5q88 0 144.5 52t93.5 165q92 283 92 481q0 111 -52.5 170t-150.5 59 q-141 0 -217 -186q-106 -262 -106 -501.5zM340 1292q51 195 188 195q31 0 74 -12l55 -17q47 -14 64 -14q57 0 88 65h94q-61 -188 -191 -188q-29 0 -82 16l-51 17q-31 10 -57 10q-72 0 -88 -72h-94z" />
<glyph unicode="&#xf6;" horiz-adv-x="997" d="M31 354q0 139 34.5 294t90.5 274q123 262 362 262q180 0 275.5 -99.5t95.5 -287.5q0 -147 -39 -317.5t-94 -276.5q-121 -240 -371 -240q-354 0 -354 391zM197 350.5q0 -239.5 196 -239.5q88 0 144.5 52t93.5 165q92 283 92 481q0 111 -52.5 170t-150.5 59 q-141 0 -217 -186q-106 -262 -106 -501.5zM358 1296l39 187h164l-39 -187h-164zM678 1296l38 187h164l-39 -187h-163z" />
<glyph unicode="&#xf7;" horiz-adv-x="1705" d="M254 541v139h1198v-139h-1198zM729 242q0 51 37 88t88 37t88 -37t37 -88.5t-37 -88t-88 -36.5q-53 0 -89 35.5t-36 89.5zM729 979q0 51 37 89t88 38t88 -38t37 -89t-37 -88t-88 -37t-88 36t-37 89z" />
<glyph unicode="&#xf8;" horiz-adv-x="997" d="M-47 -66l125 181q-47 96 -47 225q0 147 33.5 306t89.5 276q123 264 381 264q141 0 239 -84l98 145l78 -55l-114 -166q51 -72 51 -229q0 -154 -38 -321t-93 -273q-125 -242 -379 -242q-168 0 -234 80l-112 -162zM197 344q0 -16 1 -36.5t1 -22.5l479 684q-59 68 -158 67 q-88 0 -142 -53t-95 -172q-86 -252 -86 -467zM238 176q49 -66 149 -65q92 0 148.5 52t93.5 167q92 276 92 461q0 40 -2 69z" />
<glyph unicode="&#xf9;" horiz-adv-x="966" d="M8 180q0 63 15 127l178 840h161l-176 -832q-14 -72 -14 -100q0 -51 35 -83t94 -32q168 0 283 189l182 858h162l-244 -1147h-154l29 129q-143 -156 -313 -156q-115 0 -176.5 54.5t-61.5 152.5zM340 1532h194l203 -260h-98z" />
<glyph unicode="&#xfa;" horiz-adv-x="966" d="M8 180q0 63 15 127l178 840h161l-176 -832q-14 -72 -14 -100q0 -51 35 -83t94 -32q168 0 283 189l182 858h162l-244 -1147h-154l29 129q-143 -156 -313 -156q-115 0 -176.5 54.5t-61.5 152.5zM473 1272l200 260h185l-285 -260h-100z" />
<glyph unicode="&#xfb;" horiz-adv-x="966" d="M8 180q0 63 15 127l178 840h161l-176 -832q-14 -72 -14 -100q0 -51 35 -83t94 -32q168 0 283 189l182 858h162l-244 -1147h-154l29 129q-143 -156 -313 -156q-115 0 -176.5 54.5t-61.5 152.5zM299 1272l245 260h172l144 -260h-98l-138 153l-213 -153h-112z" />
<glyph unicode="&#xfc;" horiz-adv-x="966" d="M8 180q0 63 15 127l178 840h161l-176 -832q-14 -72 -14 -100q0 -51 35 -83t94 -32q168 0 283 189l182 858h162l-244 -1147h-154l29 129q-143 -156 -313 -156q-115 0 -176.5 54.5t-61.5 152.5zM356 1296l39 187h164l-39 -187h-164zM676 1296l38 187h164l-39 -187h-163z " />
<glyph unicode="&#xfd;" horiz-adv-x="833" d="M-143 -387l34 125q29 -10 66 -10q84 0 133 92l80 155l-84 1172h162l55 -926l397 926h181l-553 -1196q-90 -195 -166 -277t-195 -82q-49 0 -110 21zM408 1272l200 260h185l-285 -260h-100z" />
<glyph unicode="&#xfe;" horiz-adv-x="997" d="M-117 -389l410 1925h162l-101 -479q92 123 242 123q137 0 212 -104.5t75 -301.5q0 -348 -133.5 -572.5t-341.5 -224.5q-88 0 -153 49.5t-93 135.5l-117 -551h-162zM217 344q0 -111 48 -170t134 -59q141 0 222 200q39 98 66.5 238.5t27.5 257.5q0 111 -44 170t-122 59 q-164 0 -244 -231q-88 -258 -88 -465z" />
<glyph unicode="&#xff;" horiz-adv-x="833" d="M-143 -387l34 125q29 -10 66 -10q84 0 133 92l80 155l-84 1172h162l55 -926l397 926h181l-553 -1196q-90 -195 -166 -277t-195 -82q-49 0 -110 21zM291 1296l39 187h164l-39 -187h-164zM611 1296l38 187h164l-39 -187h-163z" />
<glyph unicode="&#x152;" horiz-adv-x="1792" d="M78 473q0 197 53 418t135 377q164 307 469 307q266 0 332 -232l43 197h674l-31 -145h-498l-106 -514h534l-32 -152h-533l-121 -573h586l-29 -156h-766l27 125q-102 -160 -332 -160q-197 0 -301 130t-104 378zM240 416q0 -150 70.5 -231t197.5 -81q225 0 330 258 q47 121 96 343q68 315 67 450q0 127 -74.5 204t-195.5 77q-227 0 -338 -275q-70 -170 -111.5 -382t-41.5 -363z" />
<glyph unicode="&#x153;" horiz-adv-x="1574" d="M31 371q0 285 127 559q117 254 379 254q225 0 297 -180q127 180 307 180q324 0 323 -365q0 -123 -30 -262h-576q-25 -129 -24 -205q0 -242 178 -241q180 0 233 264h148q-33 -197 -136.5 -305.5t-257.5 -108.5q-227 0 -284 199q-106 -199 -332 -199q-170 0 -261 104.5 t-91 305.5zM201 352q0 -241 205 -241q172 0 241 215q35 106 58.5 251.5t23.5 237.5q0 109 -54 168t-151 59q-143 0 -219 -186q-104 -254 -104 -504zM885 694h413q14 104 15 148q0 201 -172 200q-197 0 -256 -348z" />
<glyph unicode="&#x178;" horiz-adv-x="937" d="M43 1540h188l250 -739l418 739h199l-539 -899l-135 -641h-174l127 621zM422 1689l39 187h164l-39 -187h-164zM742 1689l38 187h164l-39 -187h-163z" />
<glyph unicode="&#x2c6;" horiz-adv-x="1024" d="M328 1272l245 260h172l144 -260h-98l-138 153l-213 -153h-112z" />
<glyph unicode="&#x2dc;" horiz-adv-x="1024" d="M367 1292q51 195 188 195q31 0 74 -12l55 -17q47 -14 64 -14q57 0 88 65h94q-61 -188 -191 -188q-29 0 -82 16l-51 17q-31 10 -57 10q-72 0 -88 -72h-94z" />
<glyph unicode="&#x2000;" horiz-adv-x="986" />
<glyph unicode="&#x2001;" horiz-adv-x="1972" />
<glyph unicode="&#x2002;" horiz-adv-x="986" />
<glyph unicode="&#x2003;" horiz-adv-x="1972" />
<glyph unicode="&#x2004;" horiz-adv-x="657" />
<glyph unicode="&#x2005;" horiz-adv-x="493" />
<glyph unicode="&#x2006;" horiz-adv-x="328" />
<glyph unicode="&#x2007;" horiz-adv-x="328" />
<glyph unicode="&#x2008;" horiz-adv-x="246" />
<glyph unicode="&#x2009;" horiz-adv-x="394" />
<glyph unicode="&#x200a;" horiz-adv-x="109" />
<glyph unicode="&#x2010;" horiz-adv-x="673" d="M37 504l33 162h512l-43 -162h-502z" />
<glyph unicode="&#x2011;" horiz-adv-x="673" d="M37 504l33 162h512l-43 -162h-502z" />
<glyph unicode="&#x2012;" horiz-adv-x="673" d="M37 504l33 162h512l-43 -162h-502z" />
<glyph unicode="&#x2013;" horiz-adv-x="1024" d="M-41 526l21 99h1024l-21 -99h-1024z" />
<glyph unicode="&#x2014;" horiz-adv-x="2048" d="M-41 526l21 99h2048l-21 -99h-2048z" />
<glyph unicode="&#x2018;" horiz-adv-x="501" d="M205 1079l53 252q20 100 82.5 166t159.5 80l-15 -86q-121 -43 -139 -207h92l-43 -205h-190z" />
<glyph unicode="&#x2019;" horiz-adv-x="501" d="M205 1044l14 86q121 43 139 207h-92l43 203h191l-54 -252q-20 -100 -82.5 -164.5t-158.5 -79.5z" />
<glyph unicode="&#x201a;" horiz-adv-x="501" d="M-51 -293l14 86q121 43 139 207h-92l43 203h191l-54 -252q-20 -100 -82.5 -165t-158.5 -79z" />
<glyph unicode="&#x201c;" horiz-adv-x="899" d="M205 1079l51 252q20 100 83.5 166t160.5 80l-15 -86q-121 -43 -139 -207h90l-43 -205h-188zM600 1079l53 252q20 100 83 166t159 80l-14 -86q-121 -43 -140 -207h93l-43 -205h-191z" />
<glyph unicode="&#x201d;" horiz-adv-x="899" d="M205 1044l14 86q121 43 139 207h-92l43 203h191l-54 -252q-20 -100 -82.5 -164.5t-158.5 -79.5zM600 1044l14 86q121 43 140 207h-90l43 203h188l-53 -252q-20 -100 -83 -164.5t-159 -79.5z" />
<glyph unicode="&#x201e;" horiz-adv-x="899" d="M-51 -293l14 86q121 43 139 207h-92l43 203h191l-54 -252q-20 -100 -82.5 -165t-158.5 -79zM344 -293l14 86q121 43 140 207h-90l43 203h188l-53 -252q-20 -100 -83 -165t-159 -79z" />
<glyph unicode="&#x2022;" horiz-adv-x="1208" d="M307 762q0 123 87 209t210 86q121 0 208 -86t87 -209q0 -121 -87 -209t-210 -88t-209 87t-86 210z" />
<glyph unicode="&#x2026;" horiz-adv-x="2048" d="M92 0l43 205h193l-45 -205h-191zM774 0l43 205h193l-45 -205h-191zM1458 0l43 205h193l-45 -205h-191z" />
<glyph unicode="&#x202f;" horiz-adv-x="394" />
<glyph unicode="&#x2039;" horiz-adv-x="569" d="M57 524l33 160l373 240l-29 -176l-258 -162l193 -193l-35 -149z" />
<glyph unicode="&#x203a;" horiz-adv-x="569" d="M41 244l29 178l258 160l-193 192l35 152l279 -283l-33 -160z" />
<glyph unicode="&#x205f;" horiz-adv-x="493" />
<glyph unicode="&#x2122;" horiz-adv-x="1705" d="M242 1378v80h452v-80h-172v-458h-108v458h-172zM813 920v538h150l151 -385l141 385h150v-538h-98v444l-166 -444h-56l-174 444v-444h-98z" />
<glyph unicode="&#xe000;" horiz-adv-x="1146" d="M0 0v1147h1147v-1147h-1147z" />
<glyph unicode="&#xfb01;" horiz-adv-x="915" d="M-10 0l219 1024h-135l26 123h136l47 199q27 111 70.5 158.5t140.5 47.5q47 0 145 -16l-29 -131q-57 4 -67 4q-53 0 -77 -26.5t-40 -98.5l-29 -137h158l-27 -123h-157l-221 -1024h-160zM463 0l244 1147h165l-243 -1147h-166zM752 1352l41 200h165l-43 -200h-163z" />
<glyph unicode="&#xfb02;" horiz-adv-x="915" d="M-10 0l219 1024h-135l26 123h136l47 199q27 111 70.5 158.5t140.5 47.5q47 0 145 -16l-29 -131q-57 4 -67 4q-53 0 -77 -26.5t-40 -98.5l-29 -137h158l-27 -123h-157l-221 -1024h-160zM467 0l326 1536h161l-325 -1536h-162z" />
</font>
</defs>
</svg>
