<?xml version="1.0" standalone="no"?>
<!DOCTYPE svg PUBLIC "-//W3C//DTD SVG 1.1//EN" "http://www.w3.org/Graphics/SVG/1.1/DTD/svg11.dtd" >
<svg xmlns="http://www.w3.org/2000/svg">
<metadata></metadata>
<defs>
<font id="swiss_721romancondensed" horiz-adv-x="1024" >
<font-face units-per-em="2048" ascent="1638" descent="-410" />
<missing-glyph horiz-adv-x="509" />
<glyph horiz-adv-x="2048" />
<glyph horiz-adv-x="2048" />
<glyph unicode="&#xd;" horiz-adv-x="681" />
<glyph unicode=" "  horiz-adv-x="509" />
<glyph unicode="&#x09;" horiz-adv-x="509" />
<glyph unicode="&#xa0;" horiz-adv-x="509" />
<glyph unicode="!" horiz-adv-x="530" d="M172 1102v438h186v-438l-43 -723h-100zM180 0v211h170v-211h-170z" />
<glyph unicode="&#x22;" horiz-adv-x="614" d="M90 881v555h139v-555h-139zM385 881v555h139v-555h-139z" />
<glyph unicode="#" horiz-adv-x="1574" d="M88 449l53 145h310l92 264h-330l51 146h332l162 454h166l-162 -454h256l164 454h164l-160 -454h301l-51 -146h-303l-93 -264h322l-51 -145h-322l-162 -453h-165l161 453h-258l-162 -453h-165l159 453h-309zM616 594h261l92 264h-260z" />
<glyph unicode="$" horiz-adv-x="1019" d="M76 432q0 39 2 60h168q0 -8 -1 -24.5t-1 -23.5q0 -303 205 -303h8v578q-188 66 -274.5 164t-86.5 258q0 170 96.5 272.5t264.5 110.5v139h88v-137q350 -35 350 -377v-23h-164v9q0 223 -186 249v-518q213 -78 303 -174t90 -262q0 -199 -102.5 -310.5t-290.5 -119.5v-199 h-88v197q-381 20 -381 434zM264 1141q0 -92 46.5 -150.5t146.5 -93.5v489q-88 -10 -140.5 -75.5t-52.5 -169.5zM545 139q102 6 161.5 79t59.5 198q0 195 -221 268v-545z" />
<glyph unicode="%" horiz-adv-x="1429" d="M94 1153q0 369 277 369q285 0 284 -367q0 -188 -72.5 -286.5t-209.5 -98.5q-143 0 -211 93t-68 290zM236 1128q0 -121 31.5 -178t105 -57t107.5 64.5t34 199.5q0 242 -141 242q-78 0 -107.5 -62.5t-29.5 -208.5zM305 -29l694 1579h117l-692 -1579h-119zM774 383 q0 369 277 369q145 0 214.5 -90.5t69.5 -278.5q0 -186 -72.5 -284.5t-207.5 -98.5q-143 0 -212 94t-69 289zM913 358q0 -121 33 -178t106.5 -57t107.5 64.5t34 199.5q0 242 -141 242q-80 0 -110 -62.5t-30 -208.5z" />
<glyph unicode="&#x26;" horiz-adv-x="1253" d="M115 424q0 145 73.5 254.5t233.5 204.5q-147 195 -148 348q0 137 84 225t224 88q131 0 216 -83t85 -214q0 -227 -256 -385l295 -430q35 100 49 285h164q-18 -270 -117 -418l207 -299h-199l-106 150q-147 -176 -381 -177q-186 0 -305 125t-119 326zM293 432 q0 -127 78 -216t198 -89q158 -1 267 149l-338 492q-205 -133 -205 -336zM436 1239q0 -104 117 -266q168 111 168 268q0 76 -39 119t-104.5 43t-103.5 -44t-38 -120z" />
<glyph unicode="'" horiz-adv-x="317" d="M90 881v555h139v-555h-139z" />
<glyph unicode="(" horiz-adv-x="653" d="M186 553q0 528 318 987h117q-141 -217 -198.5 -451.5t-57.5 -529.5q0 -397 92 -647q63 -170 164 -361h-117q-162 264 -240 502t-78 500z" />
<glyph unicode=")" horiz-adv-x="653" d="M55 -449q92 176 162 361q94 256 94 647q0 295 -57 529.5t-199 451.5h117q317 -459 317 -987q0 -262 -77.5 -500t-239.5 -502h-117z" />
<glyph unicode="*" d="M121 1206l45 137l283 -102v299h122v-299l281 98l51 -131l-297 -82l201 -245l-117 -84l-180 260l-178 -260l-117 84l201 245z" />
<glyph unicode="+" horiz-adv-x="1705" d="M254 541v139h528v541h142v-541h528v-139h-528v-541h-142v541h-528z" />
<glyph unicode="," horiz-adv-x="512" d="M160 0v211h182v-211q0 -119 -50 -197t-132 -98v96q86 16 86 189v10h-86z" />
<glyph unicode="-" horiz-adv-x="675" d="M90 485v181h494v-181h-494z" />
<glyph unicode="." horiz-adv-x="512" d="M164 0v211h182v-211h-182z" />
<glyph unicode="/" horiz-adv-x="569" d="M-78 -190l549 1767h111l-549 -1767h-111z" />
<glyph unicode="0" horiz-adv-x="1019" d="M94 762q0 416 91 601t325 185q219 0 332 -202q84 -150 84 -586q0 -416 -92.5 -603.5t-317.5 -187.5q-238 0 -330 186.5t-92 606.5zM272 766q0 -352 49.5 -499.5t190.5 -147.5q63 0 105 26.5t69 72.5t40 132t17.5 178.5t4.5 235.5q0 346 -48.5 490.5t-189.5 144.5 q-145 0 -191.5 -141.5t-46.5 -491.5z" />
<glyph unicode="1" horiz-adv-x="1019" d="M154 1133v131h20q324 0 338 284h135v-1548h-166v1133h-327z" />
<glyph unicode="2" horiz-adv-x="1019" d="M98 59q0 297 269 539q25 23 82 73t82.5 73.5t60.5 57.5t57 60q80 94 80 262q0 133 -59.5 204t-167.5 71q-223 0 -223 -318v-16q2 -18 2 -35h-166q0 10 -1 28.5t-1 26.5q0 225 104.5 344t292.5 119q186 0 291.5 -108.5t105.5 -306.5q0 -193 -86 -320q-20 -31 -53 -65.5 t-53.5 -52t-80 -66.5t-73.5 -60q-145 -121 -216 -216t-73 -195h648v-158h-820q-2 20 -2 59z" />
<glyph unicode="3" horiz-adv-x="1019" d="M82 444v15h170v-25q0 -315 235 -315q256 0 256 313q0 154 -74.5 227.5t-230.5 73.5q-35 0 -53 -2v141h35q145 0 212.5 64.5t67.5 208.5q0 123 -58 189.5t-163 66.5q-207 0 -207 -285v-24h-163v22q0 205 100 319.5t274 114.5q178 0 282.5 -103.5t104.5 -281.5 q0 -143 -59 -235t-158 -111q266 -49 267 -377q0 -225 -114 -348t-319 -123q-199 0 -302 122t-103 353z" />
<glyph unicode="4" horiz-adv-x="1019" d="M63 393v150l572 1005h149v-1007h144v-148h-144v-393h-163v393h-558zM205 541h416l18 788z" />
<glyph unicode="5" horiz-adv-x="1019" d="M88 406h168v-13q0 -131 60.5 -201.5t168.5 -70.5q121 0 184.5 95t63.5 280q0 367 -252 366q-172 0 -217 -143l-145 12l84 791h649v-156h-516l-55 -459q23 49 88 80t153 31q178 0 283.5 -132t105.5 -368q0 -262 -111.5 -405.5t-312.5 -143.5q-193 0 -295 112t-104 325z " />
<glyph unicode="6" horiz-adv-x="1019" d="M96 707q0 440 101.5 640.5t343.5 200.5q164 0 260 -99t96 -267h-170v10q0 98 -52 153.5t-140 55.5q-147 0 -203 -136t-74 -468q76 193 289 192q182 0 287.5 -128t105.5 -359q0 -248 -111.5 -390.5t-298.5 -142.5q-231 0 -332.5 178.5t-101.5 559.5zM279 500 q0 -184 65.5 -283.5t185.5 -99.5q113 0 173.5 97t60.5 280q0 348 -246 348q-125 0 -182 -83t-57 -259z" />
<glyph unicode="7" horiz-adv-x="1019" d="M92 1354v168h836v-148q-449 -600 -496 -1374h-192q94 778 540 1354h-688z" />
<glyph unicode="8" horiz-adv-x="1019" d="M94 428q0 170 71.5 275t196.5 128q-217 61 -217 324q0 186 98.5 289.5t272.5 103.5q168 0 267.5 -101t99.5 -280q0 -268 -221 -329q137 -31 200.5 -125.5t63.5 -261.5q0 -231 -109.5 -356.5t-306.5 -125.5q-188 0 -302 124t-114 335zM270 459q0 -340 244 -340 q109 0 172.5 83t63.5 230q0 166 -60.5 246t-185.5 80q-111 0 -172.5 -78t-61.5 -221zM311 1149q0 -113 53.5 -178.5t143.5 -65.5q100 0 153.5 65.5t53.5 186.5q0 117 -55.5 182.5t-151.5 65.5q-197 0 -197 -256z" />
<glyph unicode="9" horiz-adv-x="1019" d="M80 1018q0 248 111.5 389t297.5 141q231 0 333 -177t102 -558q0 -440 -101.5 -642t-343.5 -202q-164 0 -261 100.5t-97 268.5h172v-10q0 -98 52 -153.5t140 -55.5q147 0 203 135t74 467q-76 -193 -289 -193q-182 0 -287.5 129t-105.5 361zM256 1024q0 -346 246 -346 q125 0 182 83t57 259q0 184 -65.5 282.5t-186.5 98.5q-113 0 -173 -97.5t-60 -279.5z" />
<glyph unicode=":" horiz-adv-x="512" d="M164 0v211h182v-211h-182zM164 926v211h182v-211h-182z" />
<glyph unicode=";" horiz-adv-x="512" d="M164 0v211h182v-211q0 -119 -50 -197t-132 -98v96q88 16 88 189v10h-88zM164 926v211h182v-211h-182z" />
<glyph unicode="&#x3c;" horiz-adv-x="1705" d="M264 547v129l1178 483v-153l-969 -396l969 -393v-154z" />
<glyph unicode="=" horiz-adv-x="1705" d="M254 342v139h1198v-139h-1198zM254 739v140h1198v-140h-1198z" />
<glyph unicode="&#x3e;" horiz-adv-x="1705" d="M264 63v154l971 393l-971 396v153l1178 -483v-129z" />
<glyph unicode="?" horiz-adv-x="1017" d="M154 1092v26q0 223 98 341t283 118q176 0 280.5 -106.5t104.5 -290.5q0 -88 -29 -165t-58.5 -118t-95.5 -117q-55 -63 -79.5 -98t-48 -97.5t-23.5 -135.5q0 -37 2 -62h-158q-2 35 -2 78q0 129 38 207t126 182q4 4 22.5 25.5t21.5 26.5t19.5 25.5t20.5 29t16.5 28 t16.5 32.5t12 33.5t10 39t5 42t3 48.5q0 115 -55 179t-147 64q-217 0 -218 -305v-30h-165zM422 0v211h170v-211h-170z" />
<glyph unicode="@" horiz-adv-x="2048" d="M106 522q0 336 203 582q297 362 807 362q340 0 563 -172q264 -205 265 -514q0 -356 -248 -551q-141 -113 -316 -112q-201 0 -200 157v19q-109 -174 -301 -174q-152 0 -233 85t-81 247q0 236 138.5 394.5t338.5 158.5q170 0 242 -150l57 115h132l-146 -576q-8 -33 -8 -59 q0 -94 100.5 -94t208.5 102q170 160 170 420q0 258 -189.5 419.5t-500.5 161.5q-264 0 -457 -114q-190 -115 -295.5 -300.5t-105.5 -408.5q0 -344 254 -538q209 -160 524 -160q348 0 621 190l55 -82q-297 -223 -664 -223q-383 0 -628 187q-305 236 -306 628zM725 446 q0 -106 48 -162.5t138 -56.5q96 0 174 68.5t105 179.5l59 236q-16 88 -68.5 136t-129.5 48q-137 0 -231.5 -130t-94.5 -319z" />
<glyph unicode="A" horiz-adv-x="1126" d="M31 0l420 1540h219l426 -1540h-174l-117 444h-488l-112 -444h-174zM356 600h410l-205 807z" />
<glyph unicode="B" horiz-adv-x="1107" d="M137 0v1540h402q215 0 313 -91t98 -294q0 -274 -213 -336q262 -53 262 -377q0 -211 -115.5 -326.5t-328.5 -115.5h-418zM307 152h215q158 0 228.5 66.5t70.5 215.5q0 170 -75.5 239.5t-253.5 69.5h-185v-591zM307 885h176q158 0 223.5 58t65.5 208q0 143 -67.5 197.5 t-231.5 54.5h-166v-518z" />
<glyph unicode="C" horiz-adv-x="1157" d="M106 766q0 422 112 616.5t368 194.5q211 0 325.5 -122t114.5 -349v-19h-170q0 160 -72.5 249t-199.5 89q-162 0 -230.5 -157.5t-68.5 -501.5q0 -334 70.5 -486.5t238.5 -152.5q129 0 200.5 106.5t71.5 307.5v24h170q-2 -295 -121.5 -448.5t-341.5 -153.5 q-240 0 -353.5 197.5t-113.5 605.5z" />
<glyph unicode="D" horiz-adv-x="1191" d="M137 0v1540h436q262 0 386 -175t124 -544q0 -504 -176 -696q-72 -78 -154.5 -101.5t-217.5 -23.5h-398zM307 147h225q197 0 261 93q112 163 112 522v6q0 354 -77.5 488.5t-301.5 134.5h-219v-1244z" />
<glyph unicode="E" horiz-adv-x="1003" d="M137 0v1540h764v-160h-594v-495h555v-156h-555v-567h600v-162h-770z" />
<glyph unicode="F" horiz-adv-x="884" d="M137 0v1540h711v-156h-541v-495h504v-160h-504v-729h-170z" />
<glyph unicode="G" horiz-adv-x="1214" d="M106 780q0 414 122 605.5t397 191.5q209 0 326.5 -126t119.5 -351h-170q-4 158 -78.5 244t-206.5 86q-186 0 -258.5 -164t-72.5 -535q0 -307 80.5 -456.5t248.5 -149.5q303 0 304 453v69h-345v156h514v-803h-133l-10 213q-41 -121 -133 -185.5t-221 -64.5 q-252 0 -368 199.5t-116 617.5z" />
<glyph unicode="H" horiz-adv-x="1200" d="M137 0v1540h170v-635h586v635h170v-1540h-170v750h-586v-750h-170z" />
<glyph unicode="I" horiz-adv-x="450" d="M137 0v1540h170v-1540h-170z" />
<glyph unicode="J" horiz-adv-x="862" d="M35 352v125h170v-149q0 -217 170 -217q119 0 149.5 74.5t30.5 275.5v1079h170v-1196q0 -193 -88 -286t-270 -93q-332 0 -332 387z" />
<glyph unicode="K" horiz-adv-x="1110" d="M137 0v1540h170v-741l557 741h199l-479 -622l514 -918h-209l-420 768l-162 -211v-557h-170z" />
<glyph unicode="L" horiz-adv-x="974" d="M137 0v1540h170v-1374h617v-166h-787z" />
<glyph unicode="M" horiz-adv-x="1511" d="M135 0v1540h289l324 -1313l339 1313h285v-1540h-170v1452l-373 -1452h-167l-357 1452v-1452h-170z" />
<glyph unicode="N" horiz-adv-x="1187" d="M137 0v1540h230l524 -1321l-10 1321h170v-1540h-220l-534 1360l10 -1360h-170z" />
<glyph unicode="O" horiz-adv-x="1200" d="M106 770q0 422 114 614.5t380 192.5q268 0 381 -190.5t113 -616.5q0 -428 -113 -617.5t-381 -189.5q-264 0 -379 193.5t-115 613.5zM285 770q0 -356 66.5 -505.5t248.5 -149.5q184 0 249.5 147.5t65.5 507.5q0 358 -65.5 505.5t-249.5 147.5q-182 0 -248.5 -150.5 t-66.5 -502.5z" />
<glyph unicode="P" horiz-adv-x="1085" d="M137 0v1540h395q250 0 367 -102.5t117 -327.5q0 -229 -121 -346t-356 -117h-232v-647h-170zM307 803h228q156 0 229.5 74.5t73.5 234.5q0 150 -75 214.5t-239 64.5h-217v-588z" />
<glyph unicode="Q" horiz-adv-x="1200" d="M106 770q0 422 114 614.5t380 192.5q268 0 381 -190.5t113 -616.5q0 -424 -101 -586l174 -141l-92 -117l-168 135q-88 -98 -307 -98q-264 0 -379 193.5t-115 613.5zM285 770q0 -354 66.5 -504.5t248.5 -150.5q117 0 180 55l-162 137l99 115l145 -123q53 188 53 451 q0 373 -63.5 523t-251.5 150q-182 0 -248.5 -150.5t-66.5 -502.5z" />
<glyph unicode="R" horiz-adv-x="1196" d="M137 0v1540h432q473 0 473 -395q0 -303 -288 -377q129 -10 192.5 -83t77.5 -222q6 -57 12 -157.5t10.5 -141.5t21.5 -90t48 -74h-213q-16 27 -24.5 71t-11.5 85t-7 118.5t-8 133.5q-14 162 -84 219t-244 57h-217v-684h-170zM307 834h207q178 0 264 68.5t86 217.5 q0 143 -75.5 206t-241.5 63h-240v-555z" />
<glyph unicode="S" horiz-adv-x="1097" d="M102 438q0 8 1 25.5t1 25.5h164v-55q0 -317 287 -317q127 0 199.5 76.5t72.5 212.5q0 123 -53 177t-190 107q-37 14 -90.5 33.5t-83 31t-63.5 25t-56.5 26.5t-36.5 25q-131 115 -131 318q0 201 112.5 314.5t311.5 113.5q188 0 296.5 -105.5t108.5 -289.5v-39h-164v16 q0 129 -63 200t-180 71q-119 0 -185.5 -67t-66.5 -183q0 -125 54 -180.5t192 -106.5q20 -8 54 -20.5t51.5 -18.5t46 -17.5t45 -17.5t38 -16t34.5 -16.5t28.5 -14.5t26.5 -16t20 -17q115 -106 114 -311q0 -219 -121.5 -341t-338.5 -122q-434 0 -435 473z" />
<glyph unicode="T" horiz-adv-x="995" d="M29 1382v158h938v-158h-373v-1382h-170v1382h-395z" />
<glyph unicode="U" horiz-adv-x="1179" d="M139 535v1005h170v-1036q0 -205 58.5 -295t214.5 -90q152 0 221 94t69 291v1036h170v-1005q0 -109 -3 -164.5t-25.5 -128t-67.5 -125.5q-127 -152 -366 -152q-252 0 -369 160q-47 61 -59.5 152.5t-12.5 257.5z" />
<glyph unicode="V" horiz-adv-x="1075" d="M6 1540h187l346 -1327l356 1327h172l-424 -1540h-207z" />
<glyph unicode="W" horiz-adv-x="1619" d="M25 1540h178l241 -1302l273 1302h196l267 -1292l245 1292h168l-325 -1540h-185l-270 1257l-274 -1257h-189z" />
<glyph unicode="X" horiz-adv-x="1011" d="M-25 0l428 797l-407 743h209l305 -584l309 584h197l-412 -739l432 -801h-207l-325 645l-330 -645h-199z" />
<glyph unicode="Y" horiz-adv-x="1028" d="M-31 1540h205l340 -758l356 758h187l-461 -944v-596h-170v596z" />
<glyph unicode="Z" horiz-adv-x="905" d="M47 0v160l621 1220h-586v160h768v-158l-617 -1216h625v-166h-811z" />
<glyph unicode="[" horiz-adv-x="653" d="M233 -434v1974h363v-123h-197v-1726h197v-125h-363z" />
<glyph unicode="\" horiz-adv-x="569" d="M0 1577h111l548 -1767h-110z" />
<glyph unicode="]" horiz-adv-x="653" d="M57 -309h197v1726h-197v123h363v-1974h-363v125z" />
<glyph unicode="^" horiz-adv-x="2048" d="M420 901l510 557h186l510 -557h-180l-422 420l-424 -420h-180z" />
<glyph unicode="_" d="M0 -340h1024v-143h-1024v143z" />
<glyph unicode="`" d="M285 1546h178l170 -270h-101z" />
<glyph unicode="a" horiz-adv-x="913" d="M90 291q0 168 75 240.5t267 136.5q113 37 146.5 60.5t33.5 78.5v106q0 72 -41 104t-129 32q-170 0 -170 -183v-20h-151q4 176 85 257t255 81q164 0 239.5 -74t75.5 -236v-673q0 -84 68 -84q6 0 26 4v-123q-57 -10 -94 -10q-68 0 -107.5 43t-41.5 123q-76 -182 -273 -183 q-125 0 -194.5 84t-69.5 236zM252 293q0 -86 38 -133t107 -47q98 0 158.5 74.5t60.5 205.5v228q-37 -41 -184 -95q-100 -35 -140 -80t-40 -153z" />
<glyph unicode="b" horiz-adv-x="980" d="M125 0v1540h160v-508q23 66 91 106t159 40q166 0 260 -146.5t94 -419.5q0 -313 -93.5 -474t-269.5 -161q-92 0 -160.5 46.5t-91.5 121.5v-145h-149zM274 584q0 -242 50.5 -352.5t175.5 -110.5q115 0 164 114.5t49 360.5q0 223 -52.5 330.5t-166.5 107.5 q-125 0 -172.5 -105t-47.5 -345z" />
<glyph unicode="c" horiz-adv-x="942" d="M94 584q0 598 387 598q160 0 254 -98.5t94 -268.5v-24h-157q-10 247 -184 247h-1q-121 0 -170 -108.5t-49 -351.5q0 -246 49.5 -355.5t171.5 -109.5q185 0 191 293h158q0 -209 -96.5 -323t-270.5 -114q-193 0 -285 151.5t-92 463.5z" />
<glyph unicode="d" horiz-adv-x="974" d="M90 612q0 272 95.5 419t260.5 147q92 0 161 -41t87 -105v508h162v-1540h-151v145q-23 -76 -90.5 -122t-159.5 -46q-176 0 -270.5 161t-94.5 474zM266 596q0 -246 50.5 -360.5t164.5 -114.5q123 0 173.5 110.5t50.5 352.5q0 240 -46.5 345t-171.5 105q-221 0 -221 -438z " />
<glyph unicode="e" horiz-adv-x="901" d="M90 563q0 317 87 469t280 152q354 0 354 -514q0 -66 -2 -101h-553v-51q0 -213 49 -313.5t160 -100.5q84 0 134 74t50 203v8h158q-2 -203 -93 -311.5t-261 -108.5q-186 0 -274.5 145.5t-88.5 448.5zM256 700h391v31q0 319 -186 320q-205 -1 -205 -351z" />
<glyph unicode="f" horiz-adv-x="532" d="M4 1020v131h162v156q0 125 65.5 183t206.5 58q27 0 68 -8v-143q-33 6 -66 6q-59 0 -83.5 -22.5t-24.5 -80.5v-149h174v-131h-174v-1020h-166v1020h-162z" />
<glyph unicode="g" horiz-adv-x="972" d="M92 610q0 567 361 568q190 0 245 -162v135h156v-1098q0 -213 -102.5 -327.5t-288.5 -114.5q-147 0 -241.5 78t-94.5 198v7h160q10 -141 188 -142q119 0 171 78t52 248q0 6 -1 25.5t-1 35.5q-72 -157 -254 -157h-2q-348 0 -348 628zM262 573q0 -236 49 -343t166 -107 q123 0 172 110.5t49 354.5q0 231 -52 341.5t-173 110.5q-113 0 -162 -111.5t-49 -355.5z" />
<glyph unicode="h" horiz-adv-x="962" d="M123 0v1540h162v-514q88 150 278 150q133 0 207 -69t74 -192v-915h-162v838q0 100 -38 147t-124 47q-106 0 -170.5 -67.5t-64.5 -184.5v-780h-162z" />
<glyph unicode="i" horiz-adv-x="407" d="M121 0v1151h166v-1151h-166zM121 1331v209h166v-209h-166z" />
<glyph unicode="j" horiz-adv-x="425" d="M20 -250h9q76 0 97 31t21 121v1249h160v-1262q0 -145 -62.5 -210.5t-203.5 -65.5h-21v137zM147 1333v207h160v-209z" />
<glyph unicode="k" horiz-adv-x="868" d="M123 0v1540h156v-911l393 522h188l-344 -436l371 -715h-197l-284 567l-127 -157v-410h-156z" />
<glyph unicode="l" horiz-adv-x="401" d="M121 0v1540h160v-1540h-160z" />
<glyph unicode="m" horiz-adv-x="1527" d="M123 0v1151h149v-139q94 166 303 166q197 0 248 -168q100 168 299 168q139 0 214 -73t75 -210v-895h-166v795q0 131 -32.5 185t-129.5 54q-104 0 -168.5 -65.5t-64.5 -167.5v-801h-166v801q0 123 -37 178t-129 55q-104 0 -170.5 -62.5t-66.5 -162.5v-809h-158z" />
<glyph unicode="n" horiz-adv-x="962" d="M123 0v1151h151v-143q82 168 289 168q158 0 219.5 -80t61.5 -262v-834h-162v846q0 186 -162 186q-106 0 -170.5 -67.5t-64.5 -184.5v-780h-162z" />
<glyph unicode="o" horiz-adv-x="989" d="M90 575q0 307 98.5 458t305.5 151q209 0 307 -148.5t98 -460t-97 -459t-308 -147.5t-307.5 146.5t-96.5 459.5zM262 575q0 -250 51.5 -359.5t180.5 -109.5q127 0 179 111t52 358.5t-51 357t-180 109.5q-131 0 -181.5 -110.5t-50.5 -356.5z" />
<glyph unicode="p" horiz-adv-x="974" d="M123 -389v1540h156v-145q18 76 86.5 124t156.5 48q365 0 365 -600q0 -307 -84 -455t-266 -148q-170 0 -248 148v-512h-166zM279 580q0 -463 229 -463q111 0 158 112.5t47 352.5q0 236 -49.5 344t-161.5 108q-123 0 -173 -107t-50 -347z" />
<glyph unicode="q" horiz-adv-x="974" d="M88 578q0 600 365 600q88 0 156.5 -48.5t86.5 -123.5v145h156v-1540h-166v512q-78 -147 -248 -148q-182 0 -266 147.5t-84 455.5zM262 582q0 -240 47 -352.5t158 -112.5q229 0 229 463q0 240 -50 347t-173 107q-113 0 -162 -108.5t-49 -343.5z" />
<glyph unicode="r" horiz-adv-x="595" d="M123 0v1151h149v-188q35 102 106 158.5t161 56.5q45 0 69 -4v-173q-27 14 -63 15q-123 0 -192.5 -81t-69.5 -230v-705h-160z" />
<glyph unicode="s" horiz-adv-x="909" d="M92 322v24h160q-4 -29 -4 -39q0 -192 207 -192h2q94 0 147 50t53 136q0 49 -11 82t-46 57.5t-62.5 35.5t-93.5 34q-190 66 -261.5 134.5t-71.5 219.5q0 150 88 235t247 85q338 0 338 -320v-16h-153q-4 104 -47 151.5t-131 47.5q-188 0 -189 -177q0 -80 49 -120 q29 -25 71 -42.5t108.5 -39t103.5 -35.5q119 -47 170 -117t51 -186q0 -174 -100.5 -267.5t-282.5 -93.5q-342 0 -342 353z" />
<glyph unicode="t" horiz-adv-x="503" d="M-10 1018v133h160v307h157v-307h187v-133h-187v-780q0 -76 29 -96.5t121 -20.5q23 0 37 2v-141q-106 -4 -119 -5q-225 0 -225 183v858h-160z" />
<glyph unicode="u" horiz-adv-x="962" d="M119 266v885h168v-889q0 -72 35.5 -110.5t99.5 -38.5q115 0 180.5 71.5t65.5 202.5v764h163v-1151h-149v150q-72 -180 -287 -181q-145 0 -210.5 72t-65.5 225z" />
<glyph unicode="v" horiz-adv-x="872" d="M33 1151h176l225 -903l236 903h168l-320 -1151h-174z" />
<glyph unicode="w" horiz-adv-x="1363" d="M43 1151h166l213 -920l178 920h164l199 -922l198 922h160l-279 -1151h-159l-201 893l-176 -893h-168z" />
<glyph unicode="x" horiz-adv-x="825" d="M-18 0l327 596l-305 555h184l222 -414l225 414h180l-307 -543l334 -608h-189l-247 467l-242 -467h-182z" />
<glyph unicode="y" horiz-adv-x="909" d="M35 1151h174l246 -928l254 928h165l-354 -1202q-53 -184 -123.5 -260t-212.5 -76q-40 0 -106 18v146q49 -20 100 -21q76 0 116 51.5t79 182.5z" />
<glyph unicode="z" horiz-adv-x="792" d="M47 0v147l494 859h-473v145h665v-129l-504 -868h514v-154h-696z" />
<glyph unicode="{" d="M168 457v149q8 0 23.5 -1t21.5 -1q131 0 184.5 60.5t53.5 207.5v246q0 131 18 199.5t82 107.5q84 51 278 52h37v-150h-41q-125 0 -163.5 -47t-38.5 -182v-242q0 -150 -41 -222.5t-160 -103.5q121 -31 161 -102.5t40 -222.5v-242q0 -135 38.5 -182t165.5 -47h39v-148h-43 q-195 0 -272 49q-63 39 -81.5 108t-18.5 200v245q0 147 -53.5 209t-186.5 62q-6 0 -20.5 -1t-22.5 -1z" />
<glyph unicode="|" d="M438 -483v2048h150v-2048h-150z" />
<glyph unicode="}" d="M160 -266h39q125 0 164.5 48t39.5 183v240q0 150 41 222.5t160 102.5q-119 31 -160 104t-41 222v242q0 135 -39.5 182t-164.5 47h-39v150h37q197 0 278 -52q63 -39 81.5 -107.5t18.5 -199.5v-246q0 -147 53.5 -207.5t184.5 -60.5q6 0 21.5 1t23.5 1v-149q-8 0 -22.5 1 t-20.5 1q-133 0 -186.5 -61.5t-53.5 -209.5v-245q0 -131 -18 -200t-82 -108q-78 -49 -272 -49h-43v148z" />
<glyph unicode="~" horiz-adv-x="1705" d="M178 451v155q211 143 387 144q119 0 291 -62q8 -4 47 -17.5t51.5 -17.5t45 -13t50 -13t44 -7.5t49.5 -3.5q170 0 387 154v-156q-203 -141 -389 -141q-25 0 -52.5 3t-46 6t-52.5 13.5t-43 13.5t-50 17.5t-45 16.5q-193 66 -289 65q-162 0 -385 -157z" />
<glyph unicode="&#xa1;" horiz-adv-x="530" d="M172 0v438l43 723h100l43 -723v-438h-186zM180 1331v209h170v-209h-170z" />
<glyph unicode="&#xa2;" horiz-adv-x="1019" d="M150 584q0 289 74.5 437t238.5 169v287h131v-283q285 -43 285 -365v-12h-160q-14 242 -184 242q-125 0 -169 -115t-44 -381q0 -219 51 -323.5t164 -104.5q84 0 137 72t53 192v29h160q-2 -193 -79 -302.5t-214 -123.5v-326h-131v324q-313 25 -313 584z" />
<glyph unicode="&#xa3;" horiz-adv-x="1019" d="M59 96q115 74 177.5 181.5t62.5 226.5q0 102 -45 194h-195v93h150q-104 145 -105 325q0 197 117 314.5t309 117.5q201 0 308.5 -112.5t107.5 -323.5v-33h-164v19q0 145 -66.5 224t-187.5 79q-115 0 -179 -73t-64 -206q0 -182 106 -331h326v-93h-287q35 -111 35 -155 q0 -211 -238 -418q121 70 234 70q59 0 159.5 -26t145.5 -26q88 0 168 62l55 -139q-113 -90 -248 -91q-57 0 -174.5 39t-187.5 39q-130 0 -232 -90z" />
<glyph unicode="&#xa4;" horiz-adv-x="1019" d="M33 602l24 98h117q0 113 2 170h-135l25 99h114q16 309 111.5 444t312.5 135q193 0 273.5 -110.5t91.5 -304.5h-166q-18 266 -201 266q-131 0 -183 -99.5t-63 -330.5h449l-25 -99h-428q0 -14 -1 -42.5t-1 -41.5q0 -14 1 -42.5t1 -43.5h387l-26 -98h-359 q6 -260 58.5 -371.5t187.5 -111.5q63 0 107.5 31.5t65 89t28.5 110.5t10 121h168q-14 -256 -105.5 -379t-289.5 -123q-207 0 -300.5 149.5t-107.5 483.5h-143z" />
<glyph unicode="&#xa5;" horiz-adv-x="1019" d="M-23 1522h201l336 -725l352 725h185l-263 -512h209v-101h-262l-86 -170h348v-98h-401v-641h-170v641h-399v98h346l-84 170h-262v101h209z" />
<glyph unicode="&#xa6;" d="M438 -350v758h150v-758h-150zM438 674v758h150v-758h-150z" />
<glyph unicode="&#xa7;" d="M125 739q0 215 166 297q-96 82 -96 221q0 156 81.5 238t239.5 82q152 0 229.5 -80t77.5 -233v-29h-157v10q0 98 -35 143.5t-115 45.5q-160 0 -160 -164q0 -39 11.5 -69t42 -54.5t57.5 -40.5t81 -45t91 -51q143 -86 201.5 -160t58.5 -201q0 -109 -39 -179.5t-129 -121.5 q98 -76 98 -225q0 -158 -83.5 -242t-241.5 -84q-334 0 -334 305q0 29 2 43h160v-24q0 -96 39 -138t127 -42q166 0 166 165q0 43 -11.5 75t-42 59.5t-57.5 45t-86 50.5t-96 57q-133 84 -189.5 154.5t-56.5 191.5zM270 784q0 -115 90 -180q14 -10 52.5 -34.5t103 -66.5 t127.5 -85q109 66 109 194q0 33 -6.5 59.5t-26 52.5t-36.5 44t-56 45t-67 44t-86 53t-95 61q-109 -63 -109 -187z" />
<glyph unicode="&#xa8;" d="M270 1311v170h156v-170h-156zM598 1311v170h156v-170h-156z" />
<glyph unicode="&#xa9;" horiz-adv-x="1705" d="M117 727q0 301 219 524q213 213 516 213q309 0 524 -215t215 -522t-213 -516q-227 -221 -526 -221t-518 219q-217 217 -217 518zM213 727q0 -260 190 -451q188 -188 451 -188q258 0 455 191q184 180 184 448t-184 453q-188 188 -455 188q-264 0 -448 -184 q-193 -193 -193 -457zM463 733q0 201 109.5 323t285.5 122q143 0 237.5 -75t104.5 -196h-147q-12 76 -65.5 118t-139.5 42q-102 0 -163.5 -89t-61.5 -251q0 -158 62.5 -245t172.5 -87q82 0 136.5 47t68.5 129h145q-10 -131 -108.5 -211.5t-247.5 -80.5q-180 0 -284.5 119.5 t-104.5 334.5z" />
<glyph unicode="&#xaa;" horiz-adv-x="686" d="M68 938q0 119 56 170t200 94q63 20 83.5 28.5t36 25t15.5 44.5v74q0 94 -127 94t-127 -127v-14h-115q4 125 64.5 181.5t191.5 56.5q121 0 178.5 -52.5t57.5 -164.5v-471q0 -59 51 -60q2 0 9 1t11 1v-86q-39 -6 -71 -6q-106 0 -111 115q-57 -127 -205 -127q-94 0 -146 58 t-52 165zM188 940q0 -59 30 -93t81 -34q74 0 119 53.5t45 143.5v159q-29 -29 -139 -65q-76 -25 -106 -56.5t-30 -107.5z" />
<glyph unicode="&#xab;" horiz-adv-x="987" d="M129 506v145l305 314v-187l-196 -200l196 -205v-187zM551 506v145l305 314v-187l-197 -200l197 -205v-187z" />
<glyph unicode="&#xac;" horiz-adv-x="1705" d="M254 721v139h1198v-502h-137v363h-1061z" />
<glyph unicode="&#xad;" horiz-adv-x="675" d="M90 485v181h494v-181h-494z" />
<glyph unicode="&#xae;" horiz-adv-x="1705" d="M117 727q0 301 223 528q205 209 512 209q311 0 526 -219q213 -217 213 -518q0 -309 -215 -518q-225 -219 -524 -219q-303 0 -520 221q-215 219 -215 516zM213 727q0 -256 188 -448q186 -190 447 -191q264 0 459 188q186 181 186 445q0 274 -182 457q-186 190 -457 190 q-268 0 -446 -182q-195 -199 -195 -459zM557 324v835h315q348 0 349 -229q0 -88 -50.5 -147.5t-140.5 -77.5l187 -381h-177l-170 356h-155v-356h-158zM715 780h133q111 0 161 31t50 102q0 76 -51 110t-164 34h-129v-277z" />
<glyph unicode="&#xaf;" d="M287 1331v133h450v-133h-450z" />
<glyph unicode="&#xb0;" horiz-adv-x="673" d="M49 1167.5q0 120.5 85 204.5t204 84t203 -85t84 -203.5t-84 -202.5t-205 -84t-204 83t-83 203.5zM143 1169q0 -82 56.5 -139t138.5 -57t137 57t55 139q0 80 -55 136.5t-137 56.5q-80 0 -137.5 -56.5t-57.5 -136.5z" />
<glyph unicode="&#xb1;" horiz-adv-x="1705" d="M254 29v141h1198v-141h-1198zM254 713v139h528v340h142v-340h528v-139h-528v-340h-142v340h-528z" />
<glyph unicode="&#xb2;" horiz-adv-x="673" d="M66 606v35q0 180 176 324q160 129 186 159q53 53 53 156q0 80 -39 123t-110 43q-147 0 -148 -191v-30h-108q0 4 -1 16t-1 16q0 135 68.5 207t193.5 72q123 0 192.5 -65.5t69.5 -184.5q0 -115 -55 -192q-12 -18 -34 -38t-38 -33t-50 -37.5t-50 -37.5q-98 -74 -143.5 -130 t-47.5 -118h426v-94h-540z" />
<glyph unicode="&#xb3;" horiz-adv-x="673" d="M53 872v9h113v-15q0 -188 156 -188q170 0 170 188q0 180 -203 181q-23 0 -35 -3v86h22q96 0 141.5 39t45.5 123q0 74 -39 114t-109 40q-135 0 -135 -170v-14h-108v12q0 123 66.5 192.5t180.5 69.5q117 0 186.5 -62.5t69.5 -168.5q0 -86 -38.5 -141.5t-104.5 -67.5 q174 -27 174 -226q0 -135 -73.5 -208.5t-210.5 -73.5q-131 0 -200 72.5t-69 211.5z" />
<glyph unicode="&#xb4;" d="M391 1274l170 272h178l-247 -272h-101z" />
<glyph unicode="&#xb6;" d="M66 1130q0 156 106.5 252.5t286.5 96.5h499v-86h-120v-1393h-111v1393h-178v-1393h-111v782q-172 8 -272 103.5t-100 244.5z" />
<glyph unicode="&#xb7;" horiz-adv-x="512" d="M125 762q0 55 37 92t92 37t93 -37t38 -92t-39 -93t-92 -38t-91 38t-38 93z" />
<glyph unicode="&#xb8;" d="M330 -342q143 -25 178 -25q111 0 110 84q0 88 -112 88q-12 0 -37 -4v199h76v-102h6q98 0 152.5 -47.5t54.5 -126.5q0 -195 -246 -195q-76 0 -182 27v102z" />
<glyph unicode="&#xb9;" horiz-adv-x="673" d="M102 1286v78h13q215 0 223 172h90v-930h-111v680h-215z" />
<glyph unicode="&#xba;" horiz-adv-x="741" d="M68 1139q0 426 303 426q158 0 230.5 -104.5t72.5 -321.5q0 -219 -73 -321.5t-230 -102.5q-160 0 -231.5 102.5t-71.5 321.5zM197 1139q0 -174 38.5 -252t135 -78t135.5 78t39 252q0 172 -39 248.5t-135 76.5q-98 0 -136 -76.5t-38 -248.5z" />
<glyph unicode="&#xbb;" horiz-adv-x="987" d="M129 186v187l199 205l-199 200v187l305 -314v-145zM551 186v187l199 205l-199 200v187l305 -314v-145z" />
<glyph unicode="&#xbc;" horiz-adv-x="1628" d="M96 1303v73h13q205 0 213 158h86v-866h-105v635h-207zM301 -31l899 1581h125l-899 -1581h-125zM1026 221v82l358 563h95v-563h90v-82h-90v-221h-103v221h-350zM1114 303h262l13 440z" />
<glyph unicode="&#xbd;" horiz-adv-x="1628" d="M96 1303v73h13q205 0 213 158h86v-866h-105v635h-207zM301 -31l899 1581h125l-899 -1581h-125zM1047 33q0 166 170 303q162 131 178 147q49 51 49 146q0 154 -144 153q-139 0 -139 -176v-28h-104v30q0 127 65.5 192.5t184.5 65.5q117 0 183 -60.5t66 -170.5 q0 -106 -53 -180q-12 -16 -32.5 -35t-37 -31t-48 -34.5t-46.5 -35.5q-94 -70 -137 -122t-45 -109h408v-88h-516q-2 12 -2 33z" />
<glyph unicode="&#xbe;" horiz-adv-x="1626" d="M51 918v6h107v-13q0 -178 149 -178q162 0 162 176q0 168 -193 168h-34v80h22q92 0 134 36t42 116q0 70 -36.5 106.5t-102.5 36.5q-129 0 -129 -160v-14h-104v14q0 115 63.5 178.5t173.5 63.5q113 0 178.5 -57.5t65.5 -157.5q0 -80 -38 -132t-99 -63q168 -27 168 -211 q0 -125 -72 -193.5t-201 -68.5q-125 0 -190.5 67.5t-65.5 199.5zM301 -31l899 1581h125l-899 -1581h-125zM1026 221v82l358 563h95v-563h90v-82h-90v-221h-103v221h-350zM1114 303h262l13 440z" />
<glyph unicode="&#xbf;" horiz-adv-x="1017" d="M154 360q0 88 28.5 166t59 120t94.5 116q55 63 79.5 98t48 97.5t23.5 136.5q0 10 -4 59h160q2 -35 2 -78q0 -90 -24.5 -162.5t-53 -113.5t-88.5 -113q-2 -2 -21.5 -24.5t-22.5 -27.5t-19.5 -25.5t-20.5 -28t-16 -28t-15.5 -32.5t-11.5 -32.5t-11 -39t-5 -42t-2 -48.5 q0 -115 54 -180t147 -65q106 0 162.5 77.5t56.5 227.5v31h166v-27q0 -223 -98.5 -340t-282.5 -117q-178 0 -281.5 105.5t-103.5 289.5zM481 1331v209h170v-209h-170z" />
<glyph unicode="&#xc0;" horiz-adv-x="1126" d="M31 0l420 1540h219l426 -1540h-174l-117 444h-488l-112 -444h-174zM336 1958h178l170 -270h-101zM356 600h410l-205 807z" />
<glyph unicode="&#xc1;" horiz-adv-x="1126" d="M31 0l420 1540h219l426 -1540h-174l-117 444h-488l-112 -444h-174zM356 600h410l-205 807zM442 1686l170 272h178l-247 -272h-101z" />
<glyph unicode="&#xc2;" horiz-adv-x="1126" d="M31 0l420 1540h219l426 -1540h-174l-117 444h-488l-112 -444h-174zM307 1688l172 270h168l172 -270h-98l-158 166l-158 -166h-98zM356 600h410l-205 807z" />
<glyph unicode="&#xc3;" horiz-adv-x="1126" d="M31 0l420 1540h219l426 -1540h-174l-117 444h-488l-112 -444h-174zM315 1708q43 195 176 195q23 0 41 -6l107 -33q20 -4 28 -4q55 0 68 70h74q-29 -201 -166 -201q-25 0 -60 10l-86 31q-10 4 -34 4q-49 0 -72 -66h-76zM356 600h410l-205 807z" />
<glyph unicode="&#xc4;" horiz-adv-x="1126" d="M31 0l420 1540h219l426 -1540h-174l-117 444h-488l-112 -444h-174zM321 1723v170h156v-170h-156zM356 600h410l-205 807zM649 1723v170h156v-170h-156z" />
<glyph unicode="&#xc5;" horiz-adv-x="1126" d="M31 0l418 1530h223l424 -1530h-174l-117 444h-488l-112 -444h-174zM356 600h410l-205 807zM369 1780q0 80 56 136t136 56q82 0 137.5 -56t55.5 -136t-56.5 -136.5t-136.5 -56.5t-136 56.5t-56 136.5zM463 1780q0 -39 29.5 -69t68.5 -30q41 0 69.5 30t28.5 69t-28.5 68.5 t-69.5 29.5q-39 0 -68.5 -29.5t-29.5 -68.5z" />
<glyph unicode="&#xc6;" horiz-adv-x="1611" d="M-27 0l596 1540h940v-160h-594v-495h555v-156h-555v-567h601v-162h-771v444h-421l-166 -444h-185zM385 600h360v780h-65z" />
<glyph unicode="&#xc7;" horiz-adv-x="1157" d="M106 766q0 422 112 616.5t368 194.5q211 0 325.5 -122t114.5 -349v-19h-170q0 160 -72.5 249t-199.5 89q-162 0 -230.5 -157.5t-68.5 -501.5q0 -334 70.5 -486.5t238.5 -152.5q129 0 200.5 106.5t71.5 307.5v24h170q-2 -295 -121.5 -448.5t-341.5 -153.5 q-240 0 -353.5 197.5t-113.5 605.5zM379 -342q143 -25 178 -25q111 0 110 84q0 88 -112 88q-12 0 -37 -4v199h76v-102h6q98 0 152.5 -47.5t54.5 -126.5q0 -195 -246 -195q-76 0 -182 27v102z" />
<glyph unicode="&#xc8;" horiz-adv-x="1003" d="M137 0v1540h764v-160h-594v-495h555v-156h-555v-567h600v-162h-770zM308 1958h178l170 -270h-101z" />
<glyph unicode="&#xc9;" horiz-adv-x="1003" d="M137 0v1540h764v-160h-594v-495h555v-156h-555v-567h600v-162h-770zM414 1686l170 272h178l-247 -272h-101z" />
<glyph unicode="&#xca;" horiz-adv-x="1003" d="M137 0v1540h764v-160h-594v-495h555v-156h-555v-567h600v-162h-770zM279 1688l172 270h168l172 -270h-98l-158 166l-158 -166h-98z" />
<glyph unicode="&#xcb;" horiz-adv-x="1003" d="M137 0v1540h764v-160h-594v-495h555v-156h-555v-567h600v-162h-770zM293 1723v170h156v-170h-156zM621 1723v170h156v-170h-156z" />
<glyph unicode="&#xcc;" horiz-adv-x="450" d="M-2 1958h178l170 -270h-101zM137 0v1540h170v-1540h-170z" />
<glyph unicode="&#xcd;" horiz-adv-x="450" d="M104 1686l170 272h178l-247 -272h-101zM137 0v1540h170v-1540h-170z" />
<glyph unicode="&#xce;" horiz-adv-x="450" d="M-31 1688l172 270h168l172 -270h-98l-158 166l-158 -166h-98zM137 0v1540h170v-1540h-170z" />
<glyph unicode="&#xcf;" horiz-adv-x="450" d="M-17 1723v170h156v-170h-156zM137 0v1540h170v-1540h-170zM311 1723v170h156v-170h-156z" />
<glyph unicode="&#xd0;" horiz-adv-x="1210" d="M0 754v147h156v639h436q262 0 386 -175t124 -544q0 -504 -176 -696q-72 -78 -155 -101.5t-218 -23.5h-397v754h-156zM326 147h225q197 0 260 93q113 164 113 528q0 354 -78 488.5t-301 134.5h-219v-490h307v-147h-307v-607z" />
<glyph unicode="&#xd1;" horiz-adv-x="1187" d="M137 0v1540h230l524 -1321l-10 1321h170v-1540h-220l-534 1360l10 -1360h-170zM368 1708q43 195 176 195q23 0 41 -6l107 -33q20 -4 28 -4q55 0 68 70h74q-29 -201 -166 -201q-25 0 -60 10l-86 31q-10 4 -34 4q-49 0 -72 -66h-76z" />
<glyph unicode="&#xd2;" horiz-adv-x="1200" d="M106 770q0 422 114 614.5t380 192.5q268 0 381 -190.5t113 -616.5q0 -428 -113 -617.5t-381 -189.5q-264 0 -379 193.5t-115 613.5zM285 770q0 -356 66.5 -505.5t248.5 -149.5q184 0 249.5 147.5t65.5 507.5q0 358 -65.5 505.5t-249.5 147.5q-182 0 -248.5 -150.5 t-66.5 -502.5zM373 1958h178l170 -270h-101z" />
<glyph unicode="&#xd3;" horiz-adv-x="1200" d="M106 770q0 422 114 614.5t380 192.5q268 0 381 -190.5t113 -616.5q0 -428 -113 -617.5t-381 -189.5q-264 0 -379 193.5t-115 613.5zM285 770q0 -356 66.5 -505.5t248.5 -149.5q184 0 249.5 147.5t65.5 507.5q0 358 -65.5 505.5t-249.5 147.5q-182 0 -248.5 -150.5 t-66.5 -502.5zM479 1686l170 272h178l-247 -272h-101z" />
<glyph unicode="&#xd4;" horiz-adv-x="1200" d="M106 770q0 422 114 614.5t380 192.5q268 0 381 -190.5t113 -616.5q0 -428 -113 -617.5t-381 -189.5q-264 0 -379 193.5t-115 613.5zM285 770q0 -356 66.5 -505.5t248.5 -149.5q184 0 249.5 147.5t65.5 507.5q0 358 -65.5 505.5t-249.5 147.5q-182 0 -248.5 -150.5 t-66.5 -502.5zM344 1688l172 270h168l172 -270h-98l-158 166l-158 -166h-98z" />
<glyph unicode="&#xd5;" horiz-adv-x="1200" d="M106 770q0 422 114 614.5t380 192.5q268 0 381 -190.5t113 -616.5q0 -428 -113 -617.5t-381 -189.5q-264 0 -379 193.5t-115 613.5zM285 770q0 -356 66.5 -505.5t248.5 -149.5q184 0 249.5 147.5t65.5 507.5q0 358 -65.5 505.5t-249.5 147.5q-182 0 -248.5 -150.5 t-66.5 -502.5zM352 1708q43 195 176 195q23 0 41 -6l107 -33q20 -4 28 -4q55 0 68 70h74q-29 -201 -166 -201q-25 0 -60 10l-86 31q-10 4 -34 4q-49 0 -72 -66h-76z" />
<glyph unicode="&#xd6;" horiz-adv-x="1200" d="M106 770q0 422 114 614.5t380 192.5q268 0 381 -190.5t113 -616.5q0 -428 -113 -617.5t-381 -189.5q-264 0 -379 193.5t-115 613.5zM285 770q0 -356 66.5 -505.5t248.5 -149.5q184 0 249.5 147.5t65.5 507.5q0 358 -65.5 505.5t-249.5 147.5q-182 0 -248.5 -150.5 t-66.5 -502.5zM358 1723v170h156v-170h-156zM686 1723v170h156v-170h-156z" />
<glyph unicode="&#xd7;" horiz-adv-x="1705" d="M293 141l469 469l-469 469l98 99l469 -469l469 469l98 -99l-469 -469l469 -469l-98 -96l-469 467l-469 -467z" />
<glyph unicode="&#xd8;" horiz-adv-x="1200" d="M78 14l117 193q-86 182 -86 563q0 422 112.5 614.5t378.5 192.5q223 0 344 -135l80 139l90 -57l-106 -183q86 -186 86 -571q0 -428 -113 -617.5t-381 -189.5q-223 0 -342 143l-90 -151zM287 770q0 -229 26 -369l535 885q-74 137 -248 137q-182 0 -247.5 -149.5 t-65.5 -503.5zM352 264q68 -150 248 -149q190 0 252.5 153.5t62.5 538.5q0 184 -26 344z" />
<glyph unicode="&#xd9;" horiz-adv-x="1179" d="M139 535v1005h170v-1036q0 -205 58.5 -295t214.5 -90q152 0 221 94t69 291v1036h170v-1005q0 -109 -3 -164.5t-25.5 -128t-67.5 -125.5q-127 -152 -366 -152q-252 0 -369 160q-47 61 -59.5 152.5t-12.5 257.5zM363 1958h178l170 -270h-101z" />
<glyph unicode="&#xda;" horiz-adv-x="1179" d="M139 535v1005h170v-1036q0 -205 58.5 -295t214.5 -90q152 0 221 94t69 291v1036h170v-1005q0 -109 -3 -164.5t-25.5 -128t-67.5 -125.5q-127 -152 -366 -152q-252 0 -369 160q-47 61 -59.5 152.5t-12.5 257.5zM469 1686l170 272h178l-247 -272h-101z" />
<glyph unicode="&#xdb;" horiz-adv-x="1179" d="M139 535v1005h170v-1036q0 -205 58.5 -295t214.5 -90q152 0 221 94t69 291v1036h170v-1005q0 -109 -3 -164.5t-25.5 -128t-67.5 -125.5q-127 -152 -366 -152q-252 0 -369 160q-47 61 -59.5 152.5t-12.5 257.5zM334 1688l172 270h168l172 -270h-98l-158 166l-158 -166h-98 z" />
<glyph unicode="&#xdc;" horiz-adv-x="1179" d="M139 535v1005h170v-1036q0 -205 58.5 -295t214.5 -90q152 0 221 94t69 291v1036h170v-1005q0 -109 -3 -164.5t-25.5 -128t-67.5 -125.5q-127 -152 -366 -152q-252 0 -369 160q-47 61 -59.5 152.5t-12.5 257.5zM348 1723v170h156v-170h-156zM676 1723v170h156v-170h-156z " />
<glyph unicode="&#xdd;" horiz-adv-x="1028" d="M-31 1540h205l340 -758l356 758h187l-461 -944v-596h-170v596zM393 1686l170 272h178l-247 -272h-101z" />
<glyph unicode="&#xde;" horiz-adv-x="1085" d="M137 0v1540h170v-274h225q250 0 367 -101.5t117 -326.5q0 -229 -121 -347t-356 -118h-232v-373h-170zM307 528h228q156 0 229.5 75t73.5 235q0 150 -75 214t-239 64h-217v-588z" />
<glyph unicode="&#xdf;" horiz-adv-x="985" d="M121 0v1077q0 238 88 354.5t270 116.5q170 0 259 -96t89 -276q0 -215 -143 -299q201 -82 201 -424q0 -481 -320 -482q-84 0 -137 41v152q59 -47 125 -47q90 0 127 78.5t37 253.5q0 188 -49.5 269t-171.5 81q-31 0 -47 -2v137q12 -2 34 -2q186 0 187 221q0 135 -46 197.5 t-151 62.5q-197 0 -197 -272v-1141h-155z" />
<glyph unicode="&#xe0;" horiz-adv-x="913" d="M90 291q0 168 75 240.5t267 136.5q113 37 146.5 60.5t33.5 78.5v106q0 72 -41 104t-129 32q-170 0 -170 -183v-20h-151q4 176 85 257t255 81q164 0 239.5 -74t75.5 -236v-673q0 -84 68 -84q6 0 26 4v-123q-57 -10 -94 -10q-68 0 -107.5 43t-41.5 123q-76 -182 -273 -183 q-125 0 -194.5 84t-69.5 236zM246 1546h178l170 -270h-101zM252 293q0 -86 38 -133t107 -47q98 0 158.5 74.5t60.5 205.5v228q-37 -41 -184 -95q-100 -35 -140 -80t-40 -153z" />
<glyph unicode="&#xe1;" horiz-adv-x="913" d="M90 291q0 168 75 240.5t267 136.5q113 37 146.5 60.5t33.5 78.5v106q0 72 -41 104t-129 32q-170 0 -170 -183v-20h-151q4 176 85 257t255 81q164 0 239.5 -74t75.5 -236v-673q0 -84 68 -84q6 0 26 4v-123q-57 -10 -94 -10q-68 0 -107.5 43t-41.5 123q-76 -182 -273 -183 q-125 0 -194.5 84t-69.5 236zM252 293q0 -86 38 -133t107 -47q98 0 158.5 74.5t60.5 205.5v228q-37 -41 -184 -95q-100 -35 -140 -80t-40 -153zM352 1274l170 272h178l-247 -272h-101z" />
<glyph unicode="&#xe2;" horiz-adv-x="913" d="M90 291q0 168 75 240.5t267 136.5q113 37 146.5 60.5t33.5 78.5v106q0 72 -41 104t-129 32q-170 0 -170 -183v-20h-151q4 176 85 257t255 81q164 0 239.5 -74t75.5 -236v-673q0 -84 68 -84q6 0 26 4v-123q-57 -10 -94 -10q-68 0 -107.5 43t-41.5 123q-76 -182 -273 -183 q-125 0 -194.5 84t-69.5 236zM217 1276l172 270h168l172 -270h-98l-158 166l-158 -166h-98zM252 293q0 -86 38 -133t107 -47q98 0 158.5 74.5t60.5 205.5v228q-37 -41 -184 -95q-100 -35 -140 -80t-40 -153z" />
<glyph unicode="&#xe3;" horiz-adv-x="913" d="M90 291q0 168 75 240.5t267 136.5q113 37 146.5 60.5t33.5 78.5v106q0 72 -41 104t-129 32q-170 0 -170 -183v-20h-151q4 176 85 257t255 81q164 0 239.5 -74t75.5 -236v-673q0 -84 68 -84q6 0 26 4v-123q-57 -10 -94 -10q-68 0 -107.5 43t-41.5 123q-76 -182 -273 -183 q-125 0 -194.5 84t-69.5 236zM225 1296q43 195 176 195q23 0 41 -6l107 -33q20 -4 28 -4q55 0 68 70h74q-29 -201 -166 -201q-25 0 -60 10l-86 31q-10 4 -34 4q-49 0 -72 -66h-76zM252 293q0 -86 38 -133t107 -47q98 0 158.5 74.5t60.5 205.5v228q-37 -41 -184 -95 q-100 -35 -140 -80t-40 -153z" />
<glyph unicode="&#xe4;" horiz-adv-x="913" d="M90 291q0 168 75 240.5t267 136.5q113 37 146.5 60.5t33.5 78.5v106q0 72 -41 104t-129 32q-170 0 -170 -183v-20h-151q4 176 85 257t255 81q164 0 239.5 -74t75.5 -236v-673q0 -84 68 -84q6 0 26 4v-123q-57 -10 -94 -10q-68 0 -107.5 43t-41.5 123q-76 -182 -273 -183 q-125 0 -194.5 84t-69.5 236zM231 1311v170h156v-170h-156zM252 293q0 -86 38 -133t107 -47q98 0 158.5 74.5t60.5 205.5v228q-37 -41 -184 -95q-100 -35 -140 -80t-40 -153zM559 1311v170h156v-170h-156z" />
<glyph unicode="&#xe5;" horiz-adv-x="913" d="M90 291q0 168 75 240.5t267 136.5q113 37 146.5 60.5t33.5 78.5v106q0 72 -41 104t-129 32q-170 0 -170 -183v-20h-151q4 176 85 257t255 81q164 0 239.5 -74t75.5 -236v-673q0 -84 68 -84q6 0 26 4v-123q-57 -10 -94 -10q-68 0 -107.5 43t-41.5 123q-76 -182 -273 -183 q-125 0 -194.5 84t-69.5 236zM252 293q0 -86 38 -133t107 -47q98 0 158.5 74.5t60.5 205.5v228q-37 -41 -184 -95q-100 -35 -140 -80t-40 -153zM268 1433.5q0 79.5 56.5 136t136.5 56.5q82 0 137 -56.5t55 -136t-56 -137t-136 -57.5t-136.5 57.5t-56.5 137zM362 1434 q0 -39 30 -70t69 -31t68.5 30t29.5 71t-29.5 69.5t-68.5 28.5t-69 -29.5t-30 -68.5z" />
<glyph unicode="&#xe6;" horiz-adv-x="1423" d="M94 291q0 168 96 258q25 23 62 43t63.5 30.5t86 31t83.5 30.5q102 39 125 70q14 18 15 80v55q0 166 -174 166q-82 0 -128.5 -48.5t-46.5 -134.5q0 -4 1.5 -13t1.5 -13h-152q4 176 85 257t255 81q195 0 266 -121q86 121 244 121q354 0 354 -512q0 -33 -4 -103h-557 q-2 -35 -2 -98q0 -190 49 -276t166 -86q184 0 184 280h158q-2 -203 -93 -310.5t-261 -107.5q-215 0 -297 199q-141 -199 -316 -199q-125 0 -194.5 85t-69.5 235zM256 293q0 -86 38 -132t107 -46q102 0 161 75.5t59 215.5v215q-31 -39 -164 -86l-21 -9q-100 -35 -140 -81 t-40 -152zM774 700h391v37q0 313 -192 314q-199 0 -199 -322v-29z" />
<glyph unicode="&#xe7;" horiz-adv-x="942" d="M94 584q0 598 387 598q160 0 254 -98.5t94 -268.5v-24h-157q-10 248 -185 247q-121 0 -170 -108.5t-49 -351.5q0 -246 49.5 -355.5t171.5 -109.5q185 0 191 293h158q0 -209 -96.5 -323t-270.5 -114q-193 0 -285 151.5t-92 463.5zM285 -342q143 -25 178 -25q111 0 110 84 q0 88 -112 88q-12 0 -37 -4v199h76v-102h6q98 0 152.5 -47.5t54.5 -126.5q0 -195 -246 -195q-76 0 -182 27v102z" />
<glyph unicode="&#xe8;" horiz-adv-x="901" d="M90 563q0 317 87 469t280 152q354 0 354 -514q0 -66 -2 -101h-553v-51q0 -213 49 -313.5t160 -100.5q84 0 134 74t50 203v8h158q-2 -203 -93 -311.5t-261 -108.5q-186 0 -274.5 145.5t-88.5 448.5zM250 1546h178l170 -270h-101zM256 700h391v31q0 319 -186 320 q-205 -1 -205 -351z" />
<glyph unicode="&#xe9;" horiz-adv-x="901" d="M90 563q0 317 87 469t280 152q354 0 354 -514q0 -66 -2 -101h-553v-51q0 -213 49 -313.5t160 -100.5q84 0 134 74t50 203v8h158q-2 -203 -93 -311.5t-261 -108.5q-186 0 -274.5 145.5t-88.5 448.5zM256 700h391v31q0 319 -186 320q-205 -1 -205 -351zM356 1274l170 272 h178l-247 -272h-101z" />
<glyph unicode="&#xea;" horiz-adv-x="901" d="M90 563q0 317 87 469t280 152q354 0 354 -514q0 -66 -2 -101h-553v-51q0 -213 49 -313.5t160 -100.5q84 0 134 74t50 203v8h158q-2 -203 -93 -311.5t-261 -108.5q-186 0 -274.5 145.5t-88.5 448.5zM221 1276l172 270h168l172 -270h-98l-158 166l-158 -166h-98zM256 700 h391v31q0 319 -186 320q-205 -1 -205 -351z" />
<glyph unicode="&#xeb;" horiz-adv-x="901" d="M90 563q0 317 87 469t280 152q354 0 354 -514q0 -66 -2 -101h-553v-51q0 -213 49 -313.5t160 -100.5q84 0 134 74t50 203v8h158q-2 -203 -93 -311.5t-261 -108.5q-186 0 -274.5 145.5t-88.5 448.5zM235 1311v170h156v-170h-156zM256 700h391v31q0 319 -186 320 q-205 -1 -205 -351zM563 1311v170h156v-170h-156z" />
<glyph unicode="&#xec;" horiz-adv-x="407" d="M-22 1546h178l170 -270h-101zM121 0v1151h166v-1151h-166z" />
<glyph unicode="&#xed;" horiz-adv-x="407" d="M84 1274l170 272h178l-247 -272h-101zM121 0v1151h166v-1151h-166z" />
<glyph unicode="&#xee;" horiz-adv-x="407" d="M-51 1276l172 270h168l172 -270h-98l-158 166l-158 -166h-98zM121 0v1151h166v-1151h-166z" />
<glyph unicode="&#xef;" horiz-adv-x="407" d="M-37 1311v170h156v-170h-156zM121 0v1151h166v-1151h-166zM291 1311v170h156v-170h-156z" />
<glyph unicode="&#xf0;" horiz-adv-x="989" d="M90 545q0 283 95.5 428t277.5 145q72 0 129 -35q-49 74 -172 168l-242 -135l-45 82l205 117q-51 35 -168 98l41 127q135 -66 266 -151l271 151l53 -82l-242 -137q180 -139 259 -324.5t79 -451.5q0 -297 -96 -436.5t-307 -139.5t-307.5 139.5t-96.5 436.5zM262 551 q0 -236 51.5 -339t180.5 -103q127 0 179 105t52 337q0 233 -51 335.5t-180 102.5q-131 0 -181.5 -103.5t-50.5 -334.5z" />
<glyph unicode="&#xf1;" horiz-adv-x="962" d="M123 0v1151h151v-143q82 168 289 168q158 0 219.5 -80t61.5 -262v-834h-162v846q0 186 -162 186q-106 0 -170.5 -67.5t-64.5 -184.5v-780h-162zM252 1296q43 195 176 195q23 0 41 -6l107 -33q20 -4 28 -4q55 0 68 70h74q-29 -201 -166 -201q-25 0 -60 10l-86 31 q-10 4 -34 4q-49 0 -72 -66h-76z" />
<glyph unicode="&#xf2;" horiz-adv-x="989" d="M90 575q0 307 98.5 458t305.5 151q209 0 307 -148.5t98 -460t-97 -459t-308 -147.5t-307.5 146.5t-96.5 459.5zM262 575q0 -250 51.5 -359.5t180.5 -109.5q127 0 179 111t52 358.5t-51 357t-180 109.5q-131 0 -181.5 -110.5t-50.5 -356.5zM275 1546h178l170 -270h-101z " />
<glyph unicode="&#xf3;" horiz-adv-x="989" d="M90 575q0 307 98.5 458t305.5 151q209 0 307 -148.5t98 -460t-97 -459t-308 -147.5t-307.5 146.5t-96.5 459.5zM262 575q0 -250 51.5 -359.5t180.5 -109.5q127 0 179 111t52 358.5t-51 357t-180 109.5q-131 0 -181.5 -110.5t-50.5 -356.5zM381 1274l170 272h178 l-247 -272h-101z" />
<glyph unicode="&#xf4;" horiz-adv-x="989" d="M90 575q0 307 98.5 458t305.5 151q209 0 307 -148.5t98 -460t-97 -459t-308 -147.5t-307.5 146.5t-96.5 459.5zM246 1276l172 270h168l172 -270h-98l-158 166l-158 -166h-98zM262 575q0 -250 51.5 -359.5t180.5 -109.5q127 0 179 111t52 358.5t-51 357t-180 109.5 q-131 0 -181.5 -110.5t-50.5 -356.5z" />
<glyph unicode="&#xf5;" horiz-adv-x="989" d="M90 575q0 307 98.5 458t305.5 151q209 0 307 -148.5t98 -460t-97 -459t-308 -147.5t-307.5 146.5t-96.5 459.5zM254 1296q43 195 176 195q23 0 41 -6l107 -33q20 -4 28 -4q55 0 68 70h74q-29 -201 -166 -201q-25 0 -60 10l-86 31q-10 4 -34 4q-49 0 -72 -66h-76zM262 575 q0 -250 51.5 -359.5t180.5 -109.5q127 0 179 111t52 358.5t-51 357t-180 109.5q-131 0 -181.5 -110.5t-50.5 -356.5z" />
<glyph unicode="&#xf6;" horiz-adv-x="989" d="M90 575q0 307 98.5 458t305.5 151q209 0 307 -148.5t98 -460t-97 -459t-308 -147.5t-307.5 146.5t-96.5 459.5zM260 1311v170h156v-170h-156zM262 575q0 -250 51.5 -359.5t180.5 -109.5q127 0 179 111t52 358.5t-51 357t-180 109.5q-131 0 -181.5 -110.5t-50.5 -356.5z M588 1311v170h156v-170h-156z" />
<glyph unicode="&#xf7;" horiz-adv-x="1705" d="M254 541v139h1198v-139h-1198zM729 242q0 51 37 88t88 37t88 -37t37 -88.5t-37 -88t-88 -36.5q-53 0 -89 35.5t-36 89.5zM729 979q0 51 37 89t88 38t88 -38t37 -89t-37 -88t-88 -37t-88 36t-37 89z" />
<glyph unicode="&#xf8;" horiz-adv-x="989" d="M29 -25l129 193q-68 160 -68 399q0 315 97.5 466t306.5 151q180 0 274 -107l102 152l78 -53l-123 -185q74 -139 74 -428q0 -301 -99.5 -447.5t-305.5 -146.5q-178 0 -281 111l-107 -162zM262 578q0 -145 12 -236l400 596q-53 104 -180 104q-133 0 -182.5 -106.5 t-49.5 -357.5zM309 223q47 -115 185 -114q127 0 179 110.5t52 358.5q0 115 -16 239z" />
<glyph unicode="&#xf9;" horiz-adv-x="962" d="M119 266v885h168v-889q0 -72 35.5 -110.5t99.5 -38.5q115 0 180.5 71.5t65.5 202.5v764h163v-1151h-149v150q-72 -180 -287 -181q-145 0 -210.5 72t-65.5 225zM248 1546h178l170 -270h-101z" />
<glyph unicode="&#xfa;" horiz-adv-x="962" d="M119 266v885h168v-889q0 -72 35.5 -110.5t99.5 -38.5q115 0 180.5 71.5t65.5 202.5v764h163v-1151h-149v150q-72 -180 -287 -181q-145 0 -210.5 72t-65.5 225zM354 1274l170 272h178l-247 -272h-101z" />
<glyph unicode="&#xfb;" horiz-adv-x="962" d="M119 266v885h168v-889q0 -72 35.5 -110.5t99.5 -38.5q115 0 180.5 71.5t65.5 202.5v764h163v-1151h-149v150q-72 -180 -287 -181q-145 0 -210.5 72t-65.5 225zM219 1276l172 270h168l172 -270h-98l-158 166l-158 -166h-98z" />
<glyph unicode="&#xfc;" horiz-adv-x="962" d="M119 266v885h168v-889q0 -72 35.5 -110.5t99.5 -38.5q115 0 180.5 71.5t65.5 202.5v764h163v-1151h-149v150q-72 -180 -287 -181q-145 0 -210.5 72t-65.5 225zM233 1311v170h156v-170h-156zM561 1311v170h156v-170h-156z" />
<glyph unicode="&#xfd;" horiz-adv-x="909" d="M35 1151h174l246 -928l254 928h165l-354 -1202q-53 -184 -123.5 -260t-212.5 -76q-40 0 -106 18v146q49 -20 100 -21q76 0 116 51.5t79 182.5zM334 1274l170 272h178l-247 -272h-101z" />
<glyph unicode="&#xfe;" horiz-adv-x="974" d="M123 -389v1929h166v-506q27 68 88 106t145 38q365 0 365 -600q0 -307 -84 -455t-266 -148q-170 0 -248 148v-512h-166zM279 580q0 -463 229 -463q111 0 158 112.5t47 352.5q0 236 -49.5 344t-161.5 108q-123 0 -173 -107t-50 -347z" />
<glyph unicode="&#xff;" horiz-adv-x="909" d="M35 1151h174l246 -928l254 928h165l-354 -1202q-53 -184 -123.5 -260t-212.5 -76q-40 0 -106 18v146q49 -20 100 -21q76 0 116 51.5t79 182.5zM213 1311v170h156v-170h-156zM541 1311v170h156v-170h-156z" />
<glyph unicode="&#x152;" horiz-adv-x="1746" d="M104 770q0 414 112 610.5t355 196.5q229 0 310 -170v133h764v-160h-594v-495h553v-156h-553v-567h600v-162h-770v133q-80 -170 -310 -170q-244 0 -355.5 196.5t-111.5 610.5zM283 801q0 -375 64.5 -530.5t250.5 -155.5q154 0 218.5 90t64.5 293v567q0 186 -68 272 t-215 86q-176 0 -245.5 -145t-69.5 -477z" />
<glyph unicode="&#x153;" horiz-adv-x="1484" d="M90 563q0 319 91 469t298 150q201 0 295 -160q90 160 270 160q176 0 260.5 -128t84.5 -390q0 -63 -3 -97h-530v-71q0 -207 42 -299.5t149 -92.5q88 0 136 72t50 207h149q-6 -199 -91 -305.5t-236 -106.5q-209 0 -285 166q-78 -166 -289 -166q-205 0 -298 144.5t-93 447.5 zM260 565q0 -244 50 -352.5t173 -108.5t168 107.5t45 357.5q0 262 -43 371t-172 109q-127 0 -174 -111t-47 -373zM854 698h373q0 8 1 26.5t1 29.5q0 143 -48 219t-137 76q-98 0 -144 -85.5t-46 -265.5z" />
<glyph unicode="&#x178;" horiz-adv-x="1028" d="M-31 1540h205l340 -758l356 758h187l-461 -944v-596h-170v596zM272 1723v170h156v-170h-156zM600 1723v170h156v-170h-156z" />
<glyph unicode="&#x2c6;" d="M256 1276l172 270h168l172 -270h-98l-158 166l-158 -166h-98z" />
<glyph unicode="&#x2dc;" d="M264 1296q43 195 176 195q23 0 41 -6l107 -33q20 -4 28 -4q55 0 68 70h74q-29 -201 -166 -201q-25 0 -60 10l-86 31q-10 4 -34 4q-49 0 -72 -66h-76z" />
<glyph unicode="&#x2000;" horiz-adv-x="986" />
<glyph unicode="&#x2001;" horiz-adv-x="1972" />
<glyph unicode="&#x2002;" horiz-adv-x="986" />
<glyph unicode="&#x2003;" horiz-adv-x="1972" />
<glyph unicode="&#x2004;" horiz-adv-x="657" />
<glyph unicode="&#x2005;" horiz-adv-x="493" />
<glyph unicode="&#x2006;" horiz-adv-x="328" />
<glyph unicode="&#x2007;" horiz-adv-x="328" />
<glyph unicode="&#x2008;" horiz-adv-x="246" />
<glyph unicode="&#x2009;" horiz-adv-x="394" />
<glyph unicode="&#x200a;" horiz-adv-x="109" />
<glyph unicode="&#x2010;" horiz-adv-x="675" d="M90 485v181h494v-181h-494z" />
<glyph unicode="&#x2011;" horiz-adv-x="675" d="M90 485v181h494v-181h-494z" />
<glyph unicode="&#x2012;" horiz-adv-x="675" d="M90 485v181h494v-181h-494z" />
<glyph unicode="&#x2013;" d="M0 502v147h1024v-147h-1024z" />
<glyph unicode="&#x2014;" horiz-adv-x="2048" d="M0 502v147h2048v-147h-2048z" />
<glyph unicode="&#x2018;" horiz-adv-x="501" d="M160 1071v211q0 119 50 197t132 98v-98q-88 -16 -88 -187v-10h88v-211h-182z" />
<glyph unicode="&#x2019;" horiz-adv-x="501" d="M160 1036v97q88 16 88 188v10h-88v209h182v-211q0 -117 -49 -195t-133 -98z" />
<glyph unicode="&#x201a;" horiz-adv-x="501" d="M160 0v211h182v-211q0 -119 -50 -197t-132 -98v96q88 16 88 189v10h-88z" />
<glyph unicode="&#x201c;" horiz-adv-x="794" d="M160 1071v211q0 117 49 195t133 98v-96q-88 -16 -88 -189v-10h88v-209h-182zM451 1071v211q0 117 49 195t133 98v-96q-88 -16 -88 -189v-10h88v-209h-182z" />
<glyph unicode="&#x201d;" horiz-adv-x="794" d="M160 1036v97q88 16 88 188v10h-88v209h182v-211q0 -117 -49 -195t-133 -98zM451 1036v97q88 16 88 188v10h-88v209h182v-211q0 -117 -49 -195t-133 -98z" />
<glyph unicode="&#x201e;" horiz-adv-x="794" d="M160 0v211h182v-211q0 -119 -50 -197t-132 -98v96q88 16 88 189v10h-88zM451 0v211h182v-211q0 -119 -50 -197t-132 -98v96q88 16 88 189v10h-88z" />
<glyph unicode="&#x2022;" horiz-adv-x="1208" d="M307 762q0 123 87 209t210 86q121 0 208 -86t87 -209q0 -121 -87 -209t-210 -88t-209 87t-86 210z" />
<glyph unicode="&#x2026;" horiz-adv-x="2048" d="M250 0v211h182v-211h-182zM932 0v211h182v-211h-182zM1616 0v211h182v-211h-182z" />
<glyph unicode="&#x202f;" horiz-adv-x="394" />
<glyph unicode="&#x2039;" horiz-adv-x="565" d="M131 506v145l303 314v-187l-196 -200l196 -205v-187z" />
<glyph unicode="&#x203a;" horiz-adv-x="565" d="M131 186v187l197 200l-197 205v187l303 -318v-147z" />
<glyph unicode="&#x205f;" horiz-adv-x="493" />
<glyph unicode="&#x2122;" horiz-adv-x="1705" d="M242 1378v80h452v-80h-172v-458h-108v458h-172zM813 920v538h150l151 -385l141 385h150v-538h-98v444l-166 -444h-56l-174 444v-444h-98z" />
<glyph unicode="&#xe000;" horiz-adv-x="1146" d="M0 0v1147h1147v-1147h-1147z" />
<glyph unicode="&#xfb01;" horiz-adv-x="921" d="M2 1018v133h164v156q0 125 65.5 183t206.5 58q39 0 66 -8v-143q-37 8 -64 8q-61 0 -84.5 -24.5t-23.5 -86.5v-143h172v-133h-172v-1018h-166v1018h-164zM641 0v1151h166v-1151h-166zM641 1331v209h166v-209h-166z" />
<glyph unicode="&#xfb02;" horiz-adv-x="921" d="M2 1018v133h164v156q0 125 65.5 183t206.5 58q39 0 66 -8v-143q-37 8 -64 8q-63 0 -85.5 -24.5t-22.5 -90.5v-139h172v-133h-172v-1018h-166v1018h-164zM641 0v1540h166v-1540h-166z" />
</font>
</defs>
</svg>
