<?xml version="1.0" standalone="no"?>
<!DOCTYPE svg PUBLIC "-//W3C//DTD SVG 1.1//EN" "http://www.w3.org/Graphics/SVG/1.1/DTD/svg11.dtd" >
<svg xmlns="http://www.w3.org/2000/svg">
<metadata></metadata>
<defs>
<font id="swiss_721lightextended" horiz-adv-x="1327" >
<font-face units-per-em="2048" ascent="1638" descent="-410" />
<missing-glyph horiz-adv-x="663" />
<glyph horiz-adv-x="2048" />
<glyph horiz-adv-x="2048" />
<glyph unicode="&#xd;" horiz-adv-x="681" />
<glyph unicode=" "  horiz-adv-x="663" />
<glyph unicode="&#x09;" horiz-adv-x="663" />
<glyph unicode="&#xa0;" horiz-adv-x="663" />
<glyph unicode="!" horiz-adv-x="638" d="M238 0v180h165v-180h-165zM246 938v541h149v-541l-28 -592h-93z" />
<glyph unicode="&#x22;" horiz-adv-x="569" d="M98 881v553h101v-553h-101zM371 881v553h102v-553h-102z" />
<glyph unicode="#" horiz-adv-x="1574" d="M117 479l39 107h325l101 278h-353l35 107h354l173 483h127l-168 -483h264l172 483h127l-170 -483h315l-37 -107h-317l-98 -278h340l-37 -107h-340l-170 -479h-129l172 479h-269l-172 -479h-127l170 479h-327zM612 586h267l96 278h-266z" />
<glyph unicode="$" d="M78 451h143q14 -150 114.5 -234t276.5 -90v543q-496 57 -495 377q0 168 131 276.5t364 118.5v160h107v-160q487 -25 516 -398h-137q-16 125 -114.5 197t-264.5 78v-528q289 -35 409.5 -116t120.5 -259q0 -190 -136 -298t-394 -118v-182h-107v182q-242 8 -380 126 t-154 325zM264 1061q0 -115 80 -170t268 -82v514q-164 -8 -256 -80t-92 -182zM719 127q186 4 286.5 75.5t100.5 194.5q0 127 -84 177.5t-303 74.5v-522z" />
<glyph unicode="%" horiz-adv-x="1718" d="M94 1087.5q0 192.5 85 292t247 99.5t246 -99.5t84 -292t-84 -293t-246 -100.5t-247 100.5t-85 293zM209 1087q0 -295 217 -294q215 0 215 294q0 293 -215 293q-217 0 -217 -293zM367 -39l864 1518h121l-865 -1518h-120zM963 354.5q0 192.5 85 293t246.5 100.5 t245.5 -100.5t84 -293t-84 -293t-245.5 -100.5t-246.5 100.5t-85 293zM1077 354q0 -293 217 -293q215 0 215 293t-215 293q-217 0 -217 -293z" />
<glyph unicode="&#x26;" horiz-adv-x="1523" d="M109 399q0 141 91 249t285 204q-172 168 -172 315q0 143 92.5 227.5t245.5 84.5q150 0 243 -83t93 -212q0 -109 -68.5 -193t-213.5 -166l466 -432q80 160 101 305h135q-12 -203 -133 -401l299 -297h-184l-199 190q-217 -229 -537 -229q-244 0 -394 125t-150 313zM256 406 q0 -135 107.5 -226.5t283.5 -91.5q255 0 445 193l-510 477q-170 -82 -248 -164t-78 -188zM442 1176q0 -129 166 -254q244 125 244 262q0 74 -57.5 123t-147.5 49q-92 0 -148.5 -49.5t-56.5 -130.5z" />
<glyph unicode="'" horiz-adv-x="294" d="M98 881v553h101v-553h-101z" />
<glyph unicode="(" horiz-adv-x="626" d="M125 545q0 438 383 934h106q-334 -485 -333 -934q0 -451 333 -936h-106q-383 496 -383 936z" />
<glyph unicode=")" horiz-adv-x="626" d="M10 -391q336 487 336 936q0 446 -336 934h107q383 -496 383 -934q0 -440 -383 -936h-107z" />
<glyph unicode="*" horiz-adv-x="1024" d="M164 1227l33 98l264 -84v277h102v-277l264 84l33 -98l-264 -86l164 -223l-86 -62l-162 223l-162 -223l-86 62l164 223z" />
<glyph unicode="+" horiz-adv-x="1705" d="M254 561v98h551v562h98v-562h549v-98h-549v-561h-98v561h-551z" />
<glyph unicode="," horiz-adv-x="663" d="M250 0v180h166v-239q0 -111 -36 -170.5t-130 -89.5v94q74 39 74 137v88h-74z" />
<glyph unicode="-" horiz-adv-x="948" d="M113 477v131h723v-131h-723z" />
<glyph unicode="." horiz-adv-x="663" d="M250 0v180h166v-180h-166z" />
<glyph unicode="/" horiz-adv-x="569" d="M-18 -190l577 1708h113l-578 -1708h-112z" />
<glyph unicode="0" d="M104 721q0 371 145.5 564.5t414 193.5t414 -193.5t145.5 -564.5t-145.5 -565.5t-414 -194.5t-414 194.5t-145.5 565.5zM252 720.5q0 -616.5 411.5 -616.5t411.5 616.5t-411.5 616.5t-411.5 -616.5z" />
<glyph unicode="1" d="M211 1081v123h145q170 0 242 61.5t74 213.5h119v-1479h-144v1081h-436z" />
<glyph unicode="2" d="M100 0v8q0 211 150 369q70 74 409 264l93.5 51t86 48.5t57.5 37t50 37.5q98 92 98 225q0 141 -97 222t-271 81q-201 0 -307.5 -98t-106.5 -284h-141v8q0 238 147.5 375t403.5 137q242 0 381 -121t139 -324q0 -74 -21.5 -134t-51 -104t-93 -93.5t-117 -81t-151.5 -86.5 q-266 -147 -376 -228.5t-118 -165.5h916v-143h-1080z" />
<glyph unicode="3" d="M100 459h152q6 -356 416 -357q197 0 300 80t103 230q0 152 -106.5 215t-348.5 63h-53v131h35q213 0 313.5 61.5t100.5 198.5q0 268 -355 269q-166 0 -262 -94.5t-98 -262.5h-150q14 238 147.5 362t373.5 124q238 0 365.5 -101.5t127.5 -281.5q0 -129 -64.5 -215 t-185.5 -117q147 -16 228.5 -108.5t81.5 -243.5q0 -213 -143.5 -332t-407.5 -119q-272 0 -419 129t-151 369z" />
<glyph unicode="4" d="M82 375v145l766 953h137v-965h252v-133h-252v-375h-143v375h-760zM225 508h617v766z" />
<glyph unicode="5" d="M100 375h150q47 -272 399 -273q197 0 311.5 100.5t114.5 264.5q0 172 -106.5 262t-309.5 90q-156 0 -254 -49t-120 -133h-146l140 805h843v-144h-733l-80 -462q154 123 383 122q244 0 387.5 -130t143.5 -353q0 -238 -155 -376t-427 -138q-469 0 -541 414z" />
<glyph unicode="6" d="M102 711q0 387 147.5 577.5t448.5 190.5q215 0 351.5 -103.5t148.5 -269.5h-145q-43 238 -361 237q-223 0 -330.5 -143t-107.5 -438v-41q141 233 469 233q240 0 380 -132t140 -357q0 -231 -152.5 -367.5t-416.5 -136.5q-295 0 -433.5 184.5t-138.5 565.5zM279 463 q0 -164 108.5 -261.5t294.5 -97.5q193 0 304.5 97.5t111.5 265.5q0 166 -102.5 259t-286.5 93q-201 0 -315.5 -95t-114.5 -261z" />
<glyph unicode="7" d="M115 1298v144h1061v-168q-506 -625 -598 -1274h-177q135 713 646 1298h-932z" />
<glyph unicode="8" d="M102 397q1 319 316 389q-248 90 -248 328q0 168 131 266.5t362.5 98.5t362.5 -98.5t131 -266.5q0 -238 -248 -328q315 -70 316 -389q0 -205 -146.5 -320.5t-415 -115.5t-415 116t-146.5 320zM250 414q0 -147 106.5 -227.5t307 -80.5t307 80t106.5 228q0 141 -110.5 224 t-303 83t-303 -83t-110.5 -224zM315 1096q0 -240 348.5 -240t348.5 240q0 248 -348.5 248t-348.5 -248z" />
<glyph unicode="9" d="M82 977q0 231 153.5 366.5t417.5 135.5q295 0 433.5 -183.5t138.5 -564.5q0 -387 -147.5 -578.5t-448.5 -191.5q-215 0 -352.5 104.5t-149.5 270.5h147q45 -240 361 -240q438 0 438 584v41q-139 -233 -469 -234q-240 0 -381 132.5t-141 357.5zM229 975q0 -166 102.5 -259 t289.5 -93q203 0 314.5 96t111.5 270q0 156 -110 252t-292 96q-193 0 -304.5 -97t-111.5 -265z" />
<glyph unicode=":" horiz-adv-x="638" d="M238 0v180h165v-180h-165zM238 840v180h165v-180h-165z" />
<glyph unicode=";" horiz-adv-x="638" d="M238 0v180h165v-239q0 -111 -35.5 -170.5t-129.5 -89.5v94q76 39 75 137v88h-75zM238 840v180h165v-180h-165z" />
<glyph unicode="&#x3c;" horiz-adv-x="1705" d="M264 569v82l1178 484v-109l-1022 -416l1022 -413v-109z" />
<glyph unicode="=" horiz-adv-x="1705" d="M254 375v98h1198v-98h-1198zM254 748v98h1198v-98h-1198z" />
<glyph unicode="&#x3e;" horiz-adv-x="1705" d="M264 88v109l1022 413l-1022 416v109l1178 -484v-82z" />
<glyph unicode="?" horiz-adv-x="1200" d="M47 1010v26q0 223 138.5 352.5t379.5 129.5q244 0 384.5 -121t140.5 -322q0 -137 -68 -231q-25 -35 -61.5 -71t-63.5 -56.5t-80 -59.5t-74 -55q-70 -53 -99.5 -99t-29.5 -114q0 -4 1 -15.5t1 -17.5h-149q-2 20 -2 60q0 104 40 161.5t144 137.5q16 12 73.5 56t73 57.5 t52.5 49t48 59.5t23.5 61.5t12.5 78.5q0 139 -96.5 221t-264.5 82q-170 0 -270 -99t-100 -267v-4h-154zM459 0v180h166v-180h-166z" />
<glyph unicode="@" horiz-adv-x="2048" d="M117 537q0 418 338 696q268 221 659 221q338 0 557 -168q260 -201 260 -508q0 -350 -243 -542q-141 -111 -310 -111q-193 0 -192 151q0 4 1 13.5t1 15.5q-104 -180 -295 -180q-154 0 -233.5 84t-79.5 244q0 231 136 388.5t328 157.5q188 1 254 -163l60 125h94l-139 -562 q-16 -72 -17 -92q0 -43 28 -67.5t79 -24.5q109 0 211 82q96 76 150.5 204t54.5 283q0 250 -197 415t-510 165q-350 0 -582 -199q-297 -254 -297 -653q0 -340 244 -537q213 -174 545 -174q352 0 635 193l39 -55q-295 -221 -654 -222q-383 0 -622 185q-303 231 -303 635z M702 444q0 -113 55.5 -174t151.5 -61q106 0 189 70.5t112 189.5l62 248q-18 94 -75.5 146t-139.5 52q-156 0 -255.5 -135t-99.5 -336z" />
<glyph unicode="A" horiz-adv-x="1560" d="M16 0l682 1479h170l674 -1479h-149l-207 457h-809l-209 -457h-152zM442 600h678l-338 756z" />
<glyph unicode="B" horiz-adv-x="1517" d="M174 0v1479h719q229 0 347 -95.5t118 -277.5q0 -233 -232 -326q287 -57 287 -350q0 -221 -128 -325.5t-394 -104.5h-717zM324 147h553q197 0 290 62.5t93 206.5q0 156 -84 225.5t-267 69.5h-585v-564zM324 844h524q188 0 273 55t85 195q0 135 -83 192t-261 57h-538v-499z " />
<glyph unicode="C" horiz-adv-x="1658" d="M102 739q0 362 207 570.5t570 208.5q287 0 469 -139.5t217 -383.5h-150q-43 182 -182 280.5t-356 98.5q-291 0 -458 -169t-167 -466q0 -291 163 -462t433 -171q223 0 380.5 121t203.5 328h157q-51 -274 -248.5 -434t-488.5 -160q-340 0 -545 211t-205 567z" />
<glyph unicode="D" horiz-adv-x="1658" d="M174 0v1479h539q223 0 362 -26t244 -107q238 -184 238 -605q0 -424 -238 -608q-104 -82 -243.5 -107.5t-362.5 -25.5h-539zM322 141h391q176 0 288.5 19.5t196.5 75.5q207 137 207 514q0 367 -207 503q-86 57 -203.5 75t-314.5 18h-358v-1205z" />
<glyph unicode="E" horiz-adv-x="1406" d="M174 0v1479h1137v-138h-989v-518h913v-139h-913v-545h989v-139h-1137z" />
<glyph unicode="F" horiz-adv-x="1335" d="M174 0v1479h1094v-140h-946v-510h843v-145h-843v-684h-148z" />
<glyph unicode="G" horiz-adv-x="1701" d="M102 739q0 362 207 570.5t570 208.5q281 0 461 -140.5t202 -369.5h-156q-35 178 -167 271t-349 93q-287 0 -452.5 -169t-165.5 -464q0 -293 166 -464t442 -171q238 0 397.5 136.5t159.5 322.5v74h-465v129h615v-766h-119l-16 268q-158 -307 -574 -307q-344 0 -550 211 t-206 567z" />
<glyph unicode="H" horiz-adv-x="1607" d="M174 0v1479h148v-617h962v617h148v-1479h-148v721h-962v-721h-148z" />
<glyph unicode="I" horiz-adv-x="516" d="M184 0v1479h148v-1479h-148z" />
<glyph unicode="J" horiz-adv-x="1210" d="M92 438q0 40 2 58h148q-4 -49 -4 -70q0 -328 319 -328q182 0 254 92.5t72 305.5v983h147v-955q0 -152 -14.5 -238.5t-67.5 -156.5q-125 -168 -373 -168q-238 0 -360.5 121t-122.5 356z" />
<glyph unicode="K" horiz-adv-x="1460" d="M174 0v1479h148v-809l915 809h205l-697 -619l697 -860h-189l-618 764l-313 -275v-489h-148z" />
<glyph unicode="L" horiz-adv-x="1308" d="M174 0v1479h148v-1340h929v-139h-1077z" />
<glyph unicode="M" horiz-adv-x="2062" d="M176 0v1479h236l624 -1342l633 1342h217v-1479h-145l6 1352l-627 -1352h-170l-643 1352l15 -1352h-146z" />
<glyph unicode="N" horiz-adv-x="1716" d="M174 0v1479h188l1035 -1327v1327h143v-1479h-197l-1026 1327v-1327h-143z" />
<glyph unicode="O" horiz-adv-x="1759" d="M102 739.5q0 362.5 207 570.5t569.5 208t570.5 -208t208 -570.5t-208 -570.5t-570.5 -208t-569.5 208t-207 570.5zM252 739q0 -297 167 -466t459.5 -169t459.5 169t167 466t-167 466t-459.5 169t-459.5 -169t-167 -466z" />
<glyph unicode="P" horiz-adv-x="1406" d="M174 0v1479h602q274 0 409.5 -106.5t135.5 -330t-135 -330t-410 -106.5h-454v-606h-148zM322 750h428q225 0 320 62t95 232t-96 233.5t-319 63.5h-428v-591z" />
<glyph unicode="Q" horiz-adv-x="1759" d="M102 739.5q0 362.5 207 570.5t569.5 208t570.5 -208t208 -571q0 -373 -240 -598l221 -176l-94 -104l-239 196q-178 -96 -426 -96q-362 0 -569.5 208t-207.5 570.5zM252 739q0 -297 167 -466t460 -169q207 1 303 58l-178 143l98 109l211 -181q192 189 192 503 q0 300 -167 469t-459.5 169t-459.5 -169t-167 -466z" />
<glyph unicode="R" horiz-adv-x="1550" d="M174 0v1479h709q530 0 530 -398q0 -145 -61.5 -234t-194.5 -134q121 -18 166 -80t61 -201q6 -55 12.5 -136t9.5 -125t15.5 -92t34.5 -79h-172q-20 59 -28.5 131t-12.5 161t-10 140q-14 113 -81 158t-208 45h-622v-635h-148zM322 774h544q209 0 303.5 65.5t94.5 219.5 q0 160 -97.5 221t-318.5 61h-526v-567z" />
<glyph unicode="S" horiz-adv-x="1472" d="M119 465v22h149v-8q0 -168 128 -270.5t341 -102.5t336 83t123 221q0 119 -82 169t-287 87l-315 55q-350 61 -350 369q0 193 150.5 310.5t412.5 117.5q268 0 421.5 -121t160.5 -334h-148q-14 156 -123.5 237.5t-306.5 81.5q-195 0 -305.5 -77.5t-110.5 -206.5 q0 -111 85 -164t284 -88l281 -49q203 -35 296 -126t93 -255q0 -213 -158 -334t-442 -121q-295 0 -464 136t-169 368z" />
<glyph unicode="T" horiz-adv-x="1298" d="M4 1343v136h1290v-136h-571v-1343h-148v1343h-571z" />
<glyph unicode="U" horiz-adv-x="1640" d="M176 539v940h150v-908q0 -242 118.5 -354.5t374.5 -112.5q258 0 377 114t119 353v908h149v-947q0 -276 -165.5 -423.5t-479.5 -147.5q-315 0 -479 147.5t-164 430.5z" />
<glyph unicode="V" horiz-adv-x="1531" d="M10 1479h162l594 -1352l594 1352h162l-664 -1479h-186z" />
<glyph unicode="W" horiz-adv-x="2285" d="M39 1479h158l432 -1348l424 1348h178l418 -1348l442 1348h154l-500 -1479h-195l-411 1321l-418 -1321h-193z" />
<glyph unicode="X" horiz-adv-x="1421" d="M14 0l607 760l-564 719h189l473 -619l475 619h184l-575 -717l604 -762h-193l-501 659l-506 -659h-193z" />
<glyph unicode="Y" horiz-adv-x="1472" d="M25 1479h188l522 -721l529 721h182l-637 -840v-639h-147v639z" />
<glyph unicode="Z" horiz-adv-x="1425" d="M66 0v145l1087 1196h-1034v138h1239v-138l-1108 -1196h1108v-145h-1292z" />
<glyph unicode="[" horiz-adv-x="626" d="M152 -389v1868h417v-123h-284v-1622h284v-123h-417z" />
<glyph unicode="\" horiz-adv-x="569" d="M-102 1518h112l578 -1708h-113z" />
<glyph unicode="]" horiz-adv-x="626" d="M55 -266h285v1622h-285v123h418v-1868h-418v123z" />
<glyph unicode="^" horiz-adv-x="2048" d="M422 901l532 557h140l530 -557h-143l-457 455l-459 -455h-143z" />
<glyph unicode="_" horiz-adv-x="1024" d="M0 -383h1024v-100h-1024v100z" />
<glyph unicode="`" horiz-adv-x="1024" d="M268 1538h187l176 -303h-121z" />
<glyph unicode="a" d="M119 299q0 145 114 231q82 61 385 103q35 4 82.5 10t73 9t59 8.5t52 10.5t40 13t32 18.5t20.5 23.5t14 31.5t4 43.5q0 182 -301 182q-371 0 -387 -252h-141q25 381 510 381q295 0 399 -129q41 -51 52.5 -110.5t11.5 -155.5v-481q0 -33 1 -48.5t7 -32t18.5 -22.5t32.5 -6 q31 0 62 10v-123q-66 -20 -121 -20q-72 0 -103.5 39t-40.5 133q-90 -102 -200.5 -147.5t-264.5 -45.5q-199 0 -305 85t-106 241zM262 295q0 -86 75 -139.5t206 -53.5q201 0 326.5 94.5t125.5 243.5v148q-72 -39 -374 -86q-205 -31 -282 -69t-77 -138z" />
<glyph unicode="b" horiz-adv-x="1384" d="M154 0v1479h143v-576q162 213 430 213q256 0 416 -157.5t160 -411.5t-160 -412t-416 -158q-274 0 -430 216v-193h-143zM297 546.5q0 -198.5 115.5 -316t312.5 -117.5t313.5 118.5t116.5 315t-116.5 316.5t-313.5 120t-312.5 -119t-115.5 -317.5z" />
<glyph unicode="c" horiz-adv-x="1251" d="M84 543q0 260 159.5 420.5t420.5 160.5q207 0 350 -110.5t172 -286.5h-148q-39 127 -137 194.5t-242 67.5q-193 0 -311.5 -123t-118.5 -323q0 -203 118 -323t317 -120q150 0 254 81t133 214h145q-23 -193 -171 -313.5t-361 -120.5q-260 0 -420 161t-160 421z" />
<glyph unicode="d" horiz-adv-x="1384" d="M84 547q0 254 158.5 411.5t414.5 157.5q266 0 433 -213v576h141v-1479h-141v193q-156 -215 -433 -216q-256 0 -414.5 158t-158.5 412zM229 546.5q0 -196.5 117 -315t313.5 -118.5t313.5 117.5t117 316t-117 317.5t-313.5 119t-313.5 -120t-117 -316.5z" />
<glyph unicode="e" horiz-adv-x="1318" d="M84 543q0 260 159.5 420.5t420 160.5t419 -157.5t158.5 -421.5v-33h-1003q12 -197 123.5 -304.5t302.5 -107.5q139 0 237 64.5t139 181.5h160q-43 -178 -187.5 -281.5t-348.5 -103.5q-262 0 -421 161t-159 421zM242 631h837q-12 162 -125.5 260t-289.5 98 q-178 0 -293 -98t-129 -260z" />
<glyph unicode="f" horiz-adv-x="612" d="M29 967v118h184v86q0 170 44 240t185 70q68 0 160 -25v-125q-78 18 -121 19q-82 0 -103.5 -33t-21.5 -125v-107h246v-118h-246v-967h-143v967h-184z" />
<glyph unicode="g" horiz-adv-x="1384" d="M84 543q0 254 158.5 411.5t414.5 157.5q266 0 433 -215v188h141v-1003q0 -127 -24.5 -205t-102.5 -141q-156 -125 -440 -125q-223 0 -353.5 86t-144.5 235h147q31 -194 343 -194h3q233 0 332 76.5t99 253.5v120q-168 -215 -433 -215q-256 0 -414.5 158t-158.5 412z M229 542.5q0 -196.5 117 -315t313.5 -118.5t313.5 117.5t117 316t-117 316.5t-313.5 118t-313.5 -119t-117 -315.5z" />
<glyph unicode="h" horiz-adv-x="1304" d="M150 0v1479h137v-594q162 223 454 223q215 0 316.5 -99.5t101.5 -306.5v-702h-141v610q0 199 -64.5 284t-236.5 85q-186 0 -306 -100.5t-120 -260.5v-618h-141z" />
<glyph unicode="i" horiz-adv-x="460" d="M160 0v1085h141v-1085h-141zM160 1311v168h141v-168h-141z" />
<glyph unicode="j" horiz-adv-x="460" d="M-66 -250q51 -8 111 -8q86 0 108.5 35t22.5 131v1177h143v-1206q0 -145 -52 -206.5t-189 -61.5q-80 0 -144 14v125zM176 1311v168h143v-168h-143z" />
<glyph unicode="k" horiz-adv-x="1208" d="M154 0v1479h143v-899l625 505h211l-494 -399l575 -686h-190l-502 596l-225 -184v-412h-143z" />
<glyph unicode="l" horiz-adv-x="460" d="M160 0v1479h141v-1479h-141z" />
<glyph unicode="m" horiz-adv-x="2158" d="M150 0v1085h137v-200q162 223 454 223q309 0 402 -223q162 223 454 223q215 0 316.5 -99.5t101.5 -306.5v-702h-143v610q0 199 -63.5 284t-235.5 85q-186 0 -306 -100.5t-120 -260.5v-618h-129v610q0 199 -64.5 284t-236.5 85q-186 0 -306 -100.5t-120 -260.5v-618h-141z " />
<glyph unicode="n" horiz-adv-x="1304" d="M150 0v1085h137v-200q162 223 454 223q215 0 316.5 -99.5t101.5 -306.5v-702h-141v610q0 199 -64.5 284t-236.5 85q-186 0 -306 -100.5t-120 -260.5v-618h-141z" />
<glyph unicode="o" d="M84 543q0 260 159.5 420.5t420 160.5t421 -160.5t160.5 -420.5t-160.5 -421t-421 -161t-420 161t-159.5 421zM229 542.5q0 -202.5 118 -322.5t316.5 -120t316.5 120t118 322.5t-118 322.5t-316.5 120t-316.5 -120t-118 -322.5z" />
<glyph unicode="p" horiz-adv-x="1384" d="M154 -389v1474h143v-190q158 215 430 215q258 0 417 -156.5t159 -410.5t-160 -412t-416 -158q-268 0 -430 213v-575h-143zM297 542.5q0 -198.5 115.5 -316t312.5 -117.5t313.5 118.5t116.5 315t-116.5 315.5t-313.5 119t-312.5 -118t-115.5 -316.5z" />
<glyph unicode="q" horiz-adv-x="1384" d="M84 543q0 254 157.5 410.5t415.5 156.5q274 0 433 -215v190h141v-1474h-141v575q-166 -213 -433 -213q-256 0 -414.5 158t-158.5 412zM229 542.5q0 -196.5 117 -315t313.5 -118.5t313.5 117.5t117 316t-117 316.5t-313.5 118t-313.5 -119t-117 -315.5z" />
<glyph unicode="r" horiz-adv-x="761" d="M154 0v1085h143v-180q47 102 134 160.5t192 58.5q70 0 143 -30v-138q-70 20 -127 21q-252 0 -342 -275v-702h-143z" />
<glyph unicode="s" horiz-adv-x="1161" d="M59 342h144q31 -244 377 -244q374 0 374 200q0 73 -49 109.5t-153 53.5l-316 47q-182 27 -265 95.5t-83 201.5q0 145 128 232t355.5 87t356.5 -94t133 -258h-143q-31 221 -367 221q-152 0 -233.5 -48t-81.5 -132q0 -76 58 -110.5t191 -55.5l279 -43q176 -27 257 -94.5 t81 -196.5q0 -172 -136.5 -262t-400.5 -90q-231 0 -362.5 100.5t-143.5 280.5z" />
<glyph unicode="t" horiz-adv-x="612" d="M29 967v118h184v318h143v-318h246v-118h-246v-678q0 -57 2 -82t14.5 -51.5t39 -34.5t73.5 -8q45 0 115 16v-123q-94 -24 -170 -24h-6q-119 0 -165 68.5t-46 219.5v697h-184z" />
<glyph unicode="u" horiz-adv-x="1304" d="M150 383v702h141v-610q0 -199 64.5 -284t236.5 -85q186 0 306 100.5t120 260.5v618h141v-1085h-137v201q-162 -223 -455 -224q-215 0 -316 99.5t-101 306.5z" />
<glyph unicode="v" horiz-adv-x="1103" d="M-25 1085h164l406 -940l409 940h158l-496 -1085h-147z" />
<glyph unicode="w" horiz-adv-x="1759" d="M23 1085h155l318 -952l290 952h183l307 -952l303 952h152l-373 -1085h-168l-311 967l-304 -967h-172z" />
<glyph unicode="x" horiz-adv-x="1159" d="M4 0l492 578l-433 507h183l342 -407l334 407h184l-430 -512l479 -573h-168l-403 471l-406 -471h-174z" />
<glyph unicode="y" horiz-adv-x="1103" d="M-25 1085h164l406 -940l409 940h158l-559 -1216q-66 -145 -134.5 -202.5t-219.5 -57.5q-47 0 -123 20v135q90 -18 139 -18q90 0 142.5 56.5t113.5 201.5z" />
<glyph unicode="z" horiz-adv-x="1150" d="M66 0v141l819 811h-781v133h953v-137l-817 -811h845v-137h-1019z" />
<glyph unicode="{" horiz-adv-x="1024" d="M174 477v109q8 0 23.5 -1t21.5 -1q139 0 195.5 63.5t56.5 216.5v242q0 215 66.5 293t269.5 78h47v-107h-37q-137 0 -180 -53t-43 -201v-242q0 -158 -40 -234.5t-157 -109.5q117 -33 157 -109.5t40 -234.5v-241q0 -147 41 -200.5t174 -53.5q6 0 21.5 1t23.5 1v-107h-47 q-205 0 -270.5 77t-65.5 292v244q0 154 -56.5 217t-195.5 63q-6 0 -21.5 -1t-23.5 -1z" />
<glyph unicode="|" horiz-adv-x="1024" d="M459 -483v2048h108v-2048h-108z" />
<glyph unicode="}" horiz-adv-x="1024" d="M172 -307h39q135 0 178 52t43 200v241q0 158 39 235t158 109q-119 33 -158 110t-39 234v242q0 150 -41 203t-174 53q-6 0 -21.5 -1t-23.5 -1v107h47q203 0 269.5 -78t66.5 -293v-242q0 -154 56.5 -217t195.5 -63q6 0 21.5 1t23.5 1v-109q-8 0 -23.5 1t-21.5 1 q-139 0 -195.5 -63.5t-56.5 -216.5v-244q0 -215 -65.5 -292t-270.5 -77h-47v107z" />
<glyph unicode="~" horiz-adv-x="1705" d="M178 471v113q211 145 387 145q102 0 289 -67q8 -2 41 -14.5t43 -15.5t38 -12.5t43 -12.5t38.5 -8t44 -7t41.5 -2q164 0 387 160v-113q-201 -143 -387 -143q-23 0 -45.5 2t-46 6t-40 8t-43 12t-36.5 11.5t-41 14.5t-37 13q-193 70 -289 70q-160 0 -387 -160z" />
<glyph unicode="&#xa1;" horiz-adv-x="638" d="M238 1298v181h165v-181h-165zM246 0v541l28 592h93l28 -592v-541h-149z" />
<glyph unicode="&#xa2;" d="M84 579.5q0 243.5 141.5 400.5t378.5 177v186h101v-184q197 -14 325.5 -120.5t155.5 -274.5h-148q-29 111 -115.5 180.5t-217.5 79.5v-885q137 10 227 87t119 206h145q-25 -184 -154 -298t-337 -134v-227h-101v227q-238 20 -379 178t-141 401.5zM229 579.5 q0 -186.5 101.5 -305.5t273.5 -135v885q-172 -20 -273.5 -139t-101.5 -305.5z" />
<glyph unicode="&#xa3;" d="M61 647v109h158q-70 170 -69 284q0 190 151.5 315.5t394.5 125.5q258 0 404.5 -127t146.5 -348v-17h-137q-4 172 -110.5 264.5t-301.5 92.5q-182 0 -290.5 -86t-108.5 -228q0 -100 74 -276h469v-109h-426q37 -111 37 -190q0 -96 -44 -172t-147 -164q131 51 223 51 q59 0 198.5 -36t219.5 -36q154 0 314 109l57 -125q-160 -123 -361 -123q-102 0 -266 42t-227 42q-129 0 -260 -76l-78 133q225 137 225 338q0 96 -49 207h-197z" />
<glyph unicode="&#xa4;" d="M23 547l34 84h129q-2 29 -2 88q0 66 2 96h-149l35 84h121q37 276 183 428t372 152q209 0 342 -126t155 -333h-149q-59 317 -351 317q-170 0 -272 -112.5t-131 -325.5h725l-37 -84h-696q-2 -31 -2 -94q0 -61 2 -90h622l-36 -84h-580q29 -213 131 -329t264 -116 q139 0 236.5 93.5t130.5 263.5h149q-45 -227 -185 -362.5t-329 -135.5q-223 0 -366.5 153.5t-177.5 432.5h-170z" />
<glyph unicode="&#xa5;" d="M-29 1442h183l510 -709l514 709h178l-363 -475h289v-84h-352l-135 -172h487v-84h-549v-627h-143v627h-545v84h481l-131 172h-350v84h287z" />
<glyph unicode="&#xa6;" horiz-adv-x="1024" d="M459 -350v758h108v-758h-108zM459 674v758h108v-758h-108z" />
<glyph unicode="&#xa7;" d="M84 670q0 205 219 295q-113 92 -113 223q0 145 121 237.5t334 92.5q225 0 346 -95.5t121 -271.5v-8h-139v4q0 246 -334 246q-299 0 -299 -201q0 -63 27.5 -94t95.5 -62q16 -6 295 -104q313 -109 352 -137q135 -96 135 -258q0 -195 -213 -287q109 -76 109 -234 q0 -166 -128 -261t-361.5 -95t-359.5 100.5t-128 284.5h141q2 -131 88 -192.5t266 -61.5q338 0 338 215q0 82 -39 127q-8 8 -20 17.5t-32.5 18.5t-40 17.5t-53.5 20.5t-60.5 21.5t-73.5 25.5t-82 29q-346 123 -397 163q-115 90 -115 224zM227 690q0 -76 42 -118t147 -78 l516 -183q174 72 174 213q0 80 -47 126t-154 83l-522 180q-156 -98 -156 -223z" />
<glyph unicode="&#xa8;" horiz-adv-x="1024" d="M178 1303v167h141v-167h-141zM705 1303v167h141v-167h-141z" />
<glyph unicode="&#xa9;" horiz-adv-x="1705" d="M121 723q0 299 219 522q207 211 512 211q307 0 522 -215q211 -211 211 -518t-211 -514q-223 -219 -522 -219t-516 217q-215 215 -215 516zM200.5 723q0.5 -266 193 -458.5t458.5 -192.5q268 0 467 194q186 183 186 457q0 272 -188 461q-193 193 -465 192.5t-457 -188.5 q-195 -199 -194.5 -465zM469 727q0 205 108.5 327t282.5 122q135 0 226.5 -72t103.5 -189h-117q-18 80 -75.5 124t-141.5 44q-121 0 -189.5 -94t-68.5 -268q0 -168 69.5 -261t188.5 -93q90 0 151.5 50t77.5 138h115q-10 -125 -108.5 -205t-241.5 -80q-176 0 -278.5 121 t-102.5 336z" />
<glyph unicode="&#xaa;" horiz-adv-x="995" d="M90 928q0 104 86 162q61 45 289 71q27 4 61.5 8.5t54 6.5t45 6t39 7t30 9t24.5 13.5t15 16.5t10.5 22.5t3.5 29.5q0 127 -228 127q-279 0 -289 -176h-106q18 266 383 266q221 0 299 -90q47 -53 47 -186v-338q0 -43 7 -59.5t38 -16.5q20 0 45 8v-86q-51 -14 -90 -14 q-53 0 -77.5 27.5t-28.5 93.5q-127 -135 -351 -136q-147 0 -227 59.5t-80 168.5zM197 926q0 -61 56 -98t155 -37q152 0 246 65.5t94 169.5v104q-57 -29 -283 -61q-152 -20 -210 -47t-58 -96z" />
<glyph unicode="&#xab;" horiz-adv-x="1067" d="M129 442v201l358 272v-161l-276 -211l276 -211v-162zM559 442v201l361 272v-161l-277 -211l277 -211v-162z" />
<glyph unicode="&#xac;" horiz-adv-x="1705" d="M254 758v100h1198v-502h-96v402h-1102z" />
<glyph unicode="&#xad;" horiz-adv-x="948" d="M113 477v131h723v-131h-723z" />
<glyph unicode="&#xae;" horiz-adv-x="1705" d="M121 723q0 299 219 522q207 211 512 211q311 0 522 -215q211 -211 211 -518t-211 -514q-223 -219 -522 -219q-303 0 -516 217q-215 215 -215 516zM201 723q0 -266 192.5 -458.5t458.5 -192.5q268 0 467 194q186 181 186 455q0 276 -186 463q-193 193 -467 192 q-266 0 -455 -188q-197 -201 -196 -465zM565 313v844h309q176 0 262.5 -56.5t86.5 -176.5q0 -88 -53.5 -148.5t-145.5 -73.5l188 -389h-145l-178 371h-197v-371h-127zM692 768h158q129 0 185.5 31.5t56.5 115.5t-57.5 120t-184.5 36h-158v-303z" />
<glyph unicode="&#xaf;" horiz-adv-x="1024" d="M127 1325v123h768v-123h-768z" />
<glyph unicode="&#xb0;" horiz-adv-x="673" d="M59 1173.5q0 116.5 82 197.5t197 81t195.5 -82t80.5 -196.5t-80.5 -196.5t-197.5 -82t-197 81t-80 197.5zM129 1173.5q0 -86.5 61.5 -146.5t147.5 -60q88 0 147.5 60t59.5 146.5t-60.5 147.5t-146.5 61t-147.5 -61t-61.5 -147.5z" />
<glyph unicode="&#xb1;" horiz-adv-x="1705" d="M254 51v99h1198v-99h-1198zM254 723v98h551v348h98v-348h549v-98h-549v-348h-98v348h-551z" />
<glyph unicode="&#xb2;" horiz-adv-x="876" d="M66 575v5q0 127 100 221q45 47 270 160q172 90 189 104q66 55 65 135q0 84 -64.5 133t-179.5 49q-133 0 -203.5 -59t-70.5 -172h-92v6q0 143 97 225t265 82q160 0 252 -72.5t92 -193.5q0 -104 -63.5 -161.5t-222.5 -139.5q-176 -88 -248 -137t-78 -98h604v-87h-712z" />
<glyph unicode="&#xb3;" horiz-adv-x="876" d="M66 850h100q6 -213 274 -213q266 0 267 186q0 90 -71 128t-228 38h-35v80h22q141 0 207 37t66 119q0 160 -234 159q-109 0 -172 -56t-65 -157h-99q8 143 96.5 217t246 74t241.5 -60.5t84 -168.5q0 -162 -164 -199q96 -10 149.5 -65.5t53.5 -145.5q0 -129 -94.5 -199.5 t-268.5 -70.5q-180 0 -276 77t-100 220z" />
<glyph unicode="&#xb4;" horiz-adv-x="1024" d="M393 1235l176 303h187l-242 -303h-121z" />
<glyph unicode="&#xb6;" horiz-adv-x="1024" d="M84 1130q0 156 106.5 252.5t286.5 96.5h463v-70h-127v-1409h-82v1409h-188v-1409h-82v782q-174 8 -275.5 102.5t-101.5 245.5z" />
<glyph unicode="&#xb7;" horiz-adv-x="663" d="M225 721q0 45 31 74.5t76 29.5t75.5 -29.5t30.5 -74.5t-30.5 -76t-75.5 -31t-76 31t-31 76z" />
<glyph unicode="&#xb8;" horiz-adv-x="1024" d="M289 -401l24 65q125 -37 211 -37q143 0 144 97q0 80 -97 79q-31 0 -112 -18l-41 31l104 184h80l-72 -127q43 12 86 12q88 0 135.5 -43t47.5 -121q0 -82 -61.5 -128t-176.5 -46q-112 1 -272 52z" />
<glyph unicode="&#xb9;" horiz-adv-x="876" d="M139 1225v73h97q113 0 159.5 37t48.5 127h78v-887h-94v650h-289z" />
<glyph unicode="&#xba;" horiz-adv-x="995" d="M63 1097.5q0 182.5 120 295t314.5 112.5t315.5 -112.5t121 -295t-121 -294t-315.5 -111.5t-314.5 111.5t-120 294zM172 1098q0 -141 88 -225.5t237.5 -84.5t237.5 84t88 225.5t-88 226.5t-237.5 85t-237.5 -84t-88 -227z" />
<glyph unicode="&#xbb;" horiz-adv-x="1067" d="M147 170v162l277 211l-277 211v161l359 -272v-201zM580 170v162l276 211l-276 211v161l358 -272v-201z" />
<glyph unicode="&#xbc;" horiz-adv-x="2099" d="M133 1239v68h92q106 0 151.5 34.5t47.5 118.5h74v-827h-90v606h-275zM410 -39l1146 1518h134l-1149 -1518h-131zM1313 209v82l483 534h86v-540h160v-76h-160v-209h-90v209h-479zM1403 285h389v428z" />
<glyph unicode="&#xbd;" horiz-adv-x="2099" d="M133 1239v68h92q106 0 151.5 34.5t47.5 118.5h74v-827h-90v606h-275zM410 -39l1146 1518h134l-1149 -1518h-131zM1325 0v4q0 119 94 207q41 39 258 147q168 88 181 99q61 51 61 125q0 80 -60.5 125t-170.5 45q-125 0 -193 -55.5t-68 -157.5h-90v4q0 133 93.5 209.5 t255.5 76.5q152 0 239.5 -68.5t87.5 -180.5q0 -96 -61.5 -150.5t-212.5 -128.5q-168 -84 -236.5 -129t-75.5 -92h578v-80h-680z" />
<glyph unicode="&#xbe;" horiz-adv-x="2097" d="M63 889h95q6 -199 262 -199q254 0 254 174q0 84 -66.5 120t-218.5 36h-35v74h23q135 0 197.5 33.5t62.5 111.5q0 150 -223 150q-104 0 -164 -52.5t-64 -146.5h-94q23 270 328 270q152 0 231.5 -56t79.5 -157q0 -152 -158 -186q92 -8 143.5 -60.5t51.5 -136.5 q0 -119 -90 -186.5t-256 -67.5q-172 0 -264.5 73t-94.5 206zM410 -39l1146 1518h134l-1149 -1518h-131zM1313 209v82l483 534h86v-540h160v-76h-160v-209h-90v209h-479zM1403 285h389v428z" />
<glyph unicode="&#xbf;" horiz-adv-x="1200" d="M96 403q0 135 70 232q25 35 61.5 70.5t63 56t80 59.5t73.5 56q70 53 99.5 99t29.5 116q0 4 -1 15t-1 17h150q2 -20 2 -57q0 -106 -41 -164.5t-145 -138.5q-18 -14 -64.5 -49t-63 -48.5t-49 -43t-45 -49t-30 -48t-23.5 -59.5t-6 -66q0 -139 96.5 -221t264 -82t268 99.5 t100.5 267.5v4h156v-27q0 -221 -139.5 -351t-380.5 -130q-244 0 -384.5 121t-140.5 321zM563 1298v181h166v-181h-166z" />
<glyph unicode="&#xc0;" horiz-adv-x="1560" d="M16 0l682 1479h170l674 -1479h-149l-207 457h-809l-209 -457h-152zM442 600h678l-338 756zM553 1931h187l176 -303h-121z" />
<glyph unicode="&#xc1;" horiz-adv-x="1560" d="M16 0l682 1479h170l674 -1479h-149l-207 457h-809l-209 -457h-152zM442 600h678l-338 756zM678 1628l176 303h187l-242 -303h-121z" />
<glyph unicode="&#xc2;" horiz-adv-x="1560" d="M16 0l682 1479h170l674 -1479h-149l-207 457h-809l-209 -457h-152zM428 1628l285 303h168l285 -303h-158l-211 217l-211 -217h-158zM442 600h678l-338 756z" />
<glyph unicode="&#xc3;" horiz-adv-x="1560" d="M16 0l682 1479h170l674 -1479h-149l-207 457h-809l-209 -457h-152zM410 1659q12 115 71.5 178t147.5 63q51 0 129 -39l92 -47q8 -4 27.5 -14t30 -14t28 -9.5t33.5 -5.5q94 0 117 129h98q-12 -115 -71.5 -178t-147.5 -63q-51 0 -129 39l-94 47q-86 41 -117 41 q-96 0 -117 -127h-98zM442 600h678l-338 756z" />
<glyph unicode="&#xc4;" horiz-adv-x="1560" d="M16 0l682 1479h170l674 -1479h-149l-207 457h-809l-209 -457h-152zM442 600h678l-338 756zM463 1696v167h141v-167h-141zM990 1696v167h141v-167h-141z" />
<glyph unicode="&#xc5;" horiz-adv-x="1560" d="M16 0l682 1479h170l674 -1479h-149l-207 457h-809l-209 -457h-152zM442 600h678l-338 756zM553 1745q0 92 62.5 145.5t169 53.5t168 -53.5t61.5 -145.5t-61.5 -145.5t-168 -53.5t-169 53.5t-62.5 145.5zM655 1745q0 -53 35 -85t92.5 -32t93 32t35.5 85t-34.5 85t-94 32 t-93.5 -32t-34 -85z" />
<glyph unicode="&#xc6;" horiz-adv-x="2353" d="M8 0l807 1479h1440v-138h-989v-518h913v-139h-913v-545h989v-139h-1135v457h-690l-258 -457h-164zM508 600h600v746h-195z" />
<glyph unicode="&#xc7;" horiz-adv-x="1658" d="M102 739q0 362 207 570.5t570 208.5q287 0 469 -139.5t217 -383.5h-150q-43 182 -182 280.5t-356 98.5q-291 0 -458 -169t-167 -466q0 -291 163 -462t433 -171q223 0 380.5 121t203.5 328h157q-51 -274 -248.5 -434t-488.5 -160q-340 0 -545 211t-205 567zM606 -401 l24 65q125 -37 211 -37q143 0 144 97q0 80 -97 79q-31 0 -112 -18l-41 31l104 184h80l-72 -127q43 12 86 12q88 0 135.5 -43t47.5 -121q0 -82 -61.5 -128t-176.5 -46q-112 1 -272 52z" />
<glyph unicode="&#xc8;" horiz-adv-x="1406" d="M174 0v1479h1137v-138h-989v-518h913v-139h-913v-545h989v-139h-1137zM497 1931h187l176 -303h-121z" />
<glyph unicode="&#xc9;" horiz-adv-x="1406" d="M174 0v1479h1137v-138h-989v-518h913v-139h-913v-545h989v-139h-1137zM622 1628l176 303h187l-242 -303h-121z" />
<glyph unicode="&#xca;" horiz-adv-x="1406" d="M174 0v1479h1137v-138h-989v-518h913v-139h-913v-545h989v-139h-1137zM372 1628l285 303h168l285 -303h-158l-211 217l-211 -217h-158z" />
<glyph unicode="&#xcb;" horiz-adv-x="1406" d="M174 0v1479h1137v-138h-989v-518h913v-139h-913v-545h989v-139h-1137zM407 1696v167h141v-167h-141zM934 1696v167h141v-167h-141z" />
<glyph unicode="&#xcc;" horiz-adv-x="516" d="M14 1931h187l176 -303h-121zM184 0v1479h148v-1479h-148z" />
<glyph unicode="&#xcd;" horiz-adv-x="516" d="M139 1628l176 303h187l-242 -303h-121zM184 0v1479h148v-1479h-148z" />
<glyph unicode="&#xce;" horiz-adv-x="516" d="M-111 1628l285 303h168l285 -303h-158l-211 217l-211 -217h-158zM184 0v1479h148v-1479h-148z" />
<glyph unicode="&#xcf;" horiz-adv-x="516" d="M-76 1696v167h141v-167h-141zM184 0v1479h148v-1479h-148zM451 1696v167h141v-167h-141z" />
<glyph unicode="&#xd0;" horiz-adv-x="1669" d="M0 735v109h184v635h537q223 0 362.5 -26t243.5 -107q240 -186 240 -606.5t-240 -606.5q-104 -82 -243.5 -107.5t-362.5 -25.5h-537v735h-184zM332 141h389q176 0 289.5 19.5t197.5 75.5q207 137 207 514q0 367 -207 503q-86 57 -204.5 75t-315.5 18h-356v-502h524v-109 h-524v-594z" />
<glyph unicode="&#xd1;" horiz-adv-x="1716" d="M174 0v1479h188l1035 -1327v1327h143v-1479h-197l-1026 1327v-1327h-143zM471 1659q12 115 71.5 178t147.5 63q51 0 129 -39l92 -47q8 -4 27.5 -14t30 -14t28 -9.5t33.5 -5.5q94 0 117 129h98q-12 -115 -71.5 -178t-147.5 -63q-51 0 -129 39l-94 47q-86 41 -117 41 q-96 0 -117 -127h-98z" />
<glyph unicode="&#xd2;" horiz-adv-x="1759" d="M102 739.5q0 362.5 207 570.5t569.5 208t570.5 -208t208 -570.5t-208 -570.5t-570.5 -208t-569.5 208t-207 570.5zM252 739q0 -297 167 -466t459.5 -169t459.5 169t167 466t-167 466t-459.5 169t-459.5 -169t-167 -466zM637 1931h187l176 -303h-121z" />
<glyph unicode="&#xd3;" horiz-adv-x="1759" d="M102 739.5q0 362.5 207 570.5t569.5 208t570.5 -208t208 -570.5t-208 -570.5t-570.5 -208t-569.5 208t-207 570.5zM252 739q0 -297 167 -466t459.5 -169t459.5 169t167 466t-167 466t-459.5 169t-459.5 -169t-167 -466zM762 1628l176 303h187l-242 -303h-121z" />
<glyph unicode="&#xd4;" horiz-adv-x="1759" d="M102 739.5q0 362.5 207 570.5t569.5 208t570.5 -208t208 -570.5t-208 -570.5t-570.5 -208t-569.5 208t-207 570.5zM252 739q0 -297 167 -466t459.5 -169t459.5 169t167 466t-167 466t-459.5 169t-459.5 -169t-167 -466zM512 1628l285 303h168l285 -303h-158l-211 217 l-211 -217h-158z" />
<glyph unicode="&#xd5;" horiz-adv-x="1759" d="M102 739.5q0 362.5 207 570.5t569.5 208t570.5 -208t208 -570.5t-208 -570.5t-570.5 -208t-569.5 208t-207 570.5zM252 739q0 -297 167 -466t459.5 -169t459.5 169t167 466t-167 466t-459.5 169t-459.5 -169t-167 -466zM494 1659q12 115 71.5 178t147.5 63q51 0 129 -39 l92 -47q8 -4 27.5 -14t30 -14t28 -9.5t33.5 -5.5q94 0 117 129h98q-12 -115 -71.5 -178t-147.5 -63q-51 0 -129 39l-94 47q-86 41 -117 41q-96 0 -117 -127h-98z" />
<glyph unicode="&#xd6;" horiz-adv-x="1759" d="M102 739.5q0 362.5 207 570.5t569.5 208t570.5 -208t208 -570.5t-208 -570.5t-570.5 -208t-569.5 208t-207 570.5zM252 739q0 -297 167 -466t459.5 -169t459.5 169t167 466t-167 466t-459.5 169t-459.5 -169t-167 -466zM547 1696v167h141v-167h-141zM1074 1696v167h141 v-167h-141z" />
<glyph unicode="&#xd7;" horiz-adv-x="1705" d="M305 129l481 481l-481 482l70 69l481 -481l481 481l70 -69l-481 -482l481 -481l-70 -70l-481 482l-481 -482z" />
<glyph unicode="&#xd8;" horiz-adv-x="1759" d="M96 0l195 199q-188 193 -189 540q0 362 207 570.5t570 208.5q350 0 544 -189l179 180l61 -57l-178 -182q172 -213 172 -531q0 -365 -208 -571.5t-579 -206.5q-299 0 -524 176l-190 -192zM252 739q0 -270 145 -438l920 922q-158 152 -438 151q-293 0 -460 -169t-167 -466z M451 242q172 -137 428 -138q291 0 458.5 168t167.5 455q0 270 -133 432z" />
<glyph unicode="&#xd9;" horiz-adv-x="1640" d="M176 539v940h150v-908q0 -242 118.5 -354.5t374.5 -112.5q258 0 377 114t119 353v908h149v-947q0 -276 -165.5 -423.5t-479.5 -147.5q-315 0 -479 147.5t-164 430.5zM577 1931h187l176 -303h-121z" />
<glyph unicode="&#xda;" horiz-adv-x="1640" d="M176 539v940h150v-908q0 -242 118.5 -354.5t374.5 -112.5q258 0 377 114t119 353v908h149v-947q0 -276 -165.5 -423.5t-479.5 -147.5q-315 0 -479 147.5t-164 430.5zM702 1628l176 303h187l-242 -303h-121z" />
<glyph unicode="&#xdb;" horiz-adv-x="1640" d="M176 539v940h150v-908q0 -242 118.5 -354.5t374.5 -112.5q258 0 377 114t119 353v908h149v-947q0 -276 -165.5 -423.5t-479.5 -147.5q-315 0 -479 147.5t-164 430.5zM452 1628l285 303h168l285 -303h-158l-211 217l-211 -217h-158z" />
<glyph unicode="&#xdc;" horiz-adv-x="1640" d="M176 539v940h150v-908q0 -242 118.5 -354.5t374.5 -112.5q258 0 377 114t119 353v908h149v-947q0 -276 -165.5 -423.5t-479.5 -147.5q-315 0 -479 147.5t-164 430.5zM487 1696v167h141v-167h-141zM1014 1696v167h141v-167h-141z" />
<glyph unicode="&#xdd;" horiz-adv-x="1472" d="M25 1479h188l522 -721l529 721h182l-637 -840v-639h-147v639zM618 1628l176 303h187l-242 -303h-121z" />
<glyph unicode="&#xde;" horiz-adv-x="1406" d="M174 0v1479h148v-289h454q274 0 409.5 -106.5t135.5 -330t-135 -330t-410 -106.5h-454v-317h-148zM322 461h428q225 0 320 62.5t95 232.5t-95 232.5t-320 62.5h-428v-590z" />
<glyph unicode="&#xdf;" horiz-adv-x="1263" d="M168 0v1016q0 248 107.5 355.5t373.5 107.5q225 0 352 -101.5t127 -273.5q0 -102 -59 -180t-170 -117q293 -61 293 -367q0 -213 -136 -334.5t-380 -121.5q-82 0 -164 16v131q119 -16 174 -16q170 0 266.5 88t96.5 241.5t-109 223t-342 69.5q-55 0 -86 -2v127 q12 0 36.5 -1t37.5 -1q207 0 302 57.5t95 188.5q0 117 -85 180.5t-247 63.5q-188 0 -264 -76t-76 -258v-1016h-143z" />
<glyph unicode="&#xe0;" d="M119 299q0 145 114 231q82 61 385 103q35 4 82.5 10t73 9t59 8.5t52 10.5t40 13t32 18.5t20.5 23.5t14 31.5t4 43.5q0 182 -301 182q-371 0 -387 -252h-141q25 381 510 381q295 0 399 -129q41 -51 52.5 -110.5t11.5 -155.5v-481q0 -33 1 -48.5t7 -32t18.5 -22.5t32.5 -6 q31 0 62 10v-123q-66 -20 -121 -20q-72 0 -103.5 39t-40.5 133q-90 -102 -200.5 -147.5t-264.5 -45.5q-199 0 -305 85t-106 241zM262 295q0 -86 75 -139.5t206 -53.5q201 0 326.5 94.5t125.5 243.5v148q-72 -39 -374 -86q-205 -31 -282 -69t-77 -138zM450 1538h187l176 -303 h-121z" />
<glyph unicode="&#xe1;" d="M119 299q0 145 114 231q82 61 385 103q35 4 82.5 10t73 9t59 8.5t52 10.5t40 13t32 18.5t20.5 23.5t14 31.5t4 43.5q0 182 -301 182q-371 0 -387 -252h-141q25 381 510 381q295 0 399 -129q41 -51 52.5 -110.5t11.5 -155.5v-481q0 -33 1 -48.5t7 -32t18.5 -22.5t32.5 -6 q31 0 62 10v-123q-66 -20 -121 -20q-72 0 -103.5 39t-40.5 133q-90 -102 -200.5 -147.5t-264.5 -45.5q-199 0 -305 85t-106 241zM262 295q0 -86 75 -139.5t206 -53.5q201 0 326.5 94.5t125.5 243.5v148q-72 -39 -374 -86q-205 -31 -282 -69t-77 -138zM575 1235l176 303h187 l-242 -303h-121z" />
<glyph unicode="&#xe2;" d="M119 299q0 145 114 231q82 61 385 103q35 4 82.5 10t73 9t59 8.5t52 10.5t40 13t32 18.5t20.5 23.5t14 31.5t4 43.5q0 182 -301 182q-371 0 -387 -252h-141q25 381 510 381q295 0 399 -129q41 -51 52.5 -110.5t11.5 -155.5v-481q0 -33 1 -48.5t7 -32t18.5 -22.5t32.5 -6 q31 0 62 10v-123q-66 -20 -121 -20q-72 0 -103.5 39t-40.5 133q-90 -102 -200.5 -147.5t-264.5 -45.5q-199 0 -305 85t-106 241zM262 295q0 -86 75 -139.5t206 -53.5q201 0 326.5 94.5t125.5 243.5v148q-72 -39 -374 -86q-205 -31 -282 -69t-77 -138zM325 1235l285 303h168 l285 -303h-158l-211 217l-211 -217h-158z" />
<glyph unicode="&#xe3;" d="M119 299q0 145 114 231q82 61 385 103q35 4 82.5 10t73 9t59 8.5t52 10.5t40 13t32 18.5t20.5 23.5t14 31.5t4 43.5q0 182 -301 182q-371 0 -387 -252h-141q25 381 510 381q295 0 399 -129q41 -51 52.5 -110.5t11.5 -155.5v-481q0 -33 1 -48.5t7 -32t18.5 -22.5t32.5 -6 q31 0 62 10v-123q-66 -20 -121 -20q-72 0 -103.5 39t-40.5 133q-90 -102 -200.5 -147.5t-264.5 -45.5q-199 0 -305 85t-106 241zM262 295q0 -86 75 -139.5t206 -53.5q201 0 326.5 94.5t125.5 243.5v148q-72 -39 -374 -86q-205 -31 -282 -69t-77 -138zM307 1266 q12 115 71.5 178t147.5 63q51 0 129 -39l92 -47q8 -4 27.5 -14t30 -14t28 -9.5t33.5 -5.5q94 0 117 129h98q-12 -115 -71.5 -178t-147.5 -63q-51 0 -129 39l-94 47q-86 41 -117 41q-96 0 -117 -127h-98z" />
<glyph unicode="&#xe4;" d="M119 299q0 145 114 231q82 61 385 103q35 4 82.5 10t73 9t59 8.5t52 10.5t40 13t32 18.5t20.5 23.5t14 31.5t4 43.5q0 182 -301 182q-371 0 -387 -252h-141q25 381 510 381q295 0 399 -129q41 -51 52.5 -110.5t11.5 -155.5v-481q0 -33 1 -48.5t7 -32t18.5 -22.5t32.5 -6 q31 0 62 10v-123q-66 -20 -121 -20q-72 0 -103.5 39t-40.5 133q-90 -102 -200.5 -147.5t-264.5 -45.5q-199 0 -305 85t-106 241zM262 295q0 -86 75 -139.5t206 -53.5q201 0 326.5 94.5t125.5 243.5v148q-72 -39 -374 -86q-205 -31 -282 -69t-77 -138zM360 1303v167h141v-167 h-141zM887 1303v167h141v-167h-141z" />
<glyph unicode="&#xe5;" d="M119 299q0 145 114 231q82 61 385 103q35 4 82.5 10t73 9t59 8.5t52 10.5t40 13t32 18.5t20.5 23.5t14 31.5t4 43.5q0 182 -301 182q-371 0 -387 -252h-141q25 381 510 381q295 0 399 -129q41 -51 52.5 -110.5t11.5 -155.5v-481q0 -33 1 -48.5t7 -32t18.5 -22.5t32.5 -6 q31 0 62 10v-123q-66 -20 -121 -20q-72 0 -103.5 39t-40.5 133q-90 -102 -200.5 -147.5t-264.5 -45.5q-199 0 -305 85t-106 241zM262 295q0 -86 75 -139.5t206 -53.5q201 0 326.5 94.5t125.5 243.5v148q-72 -39 -374 -86q-205 -31 -282 -69t-77 -138zM463 1388.5 q0 92.5 62.5 145.5t169 53t168 -53t61.5 -145.5t-61.5 -145.5t-168 -53t-169 53t-62.5 145.5zM565 1388.5q0 -53.5 35 -85t92.5 -31.5t93 31.5t35.5 85t-34.5 85t-94 31.5t-93.5 -31.5t-34 -85z" />
<glyph unicode="&#xe6;" horiz-adv-x="2164" d="M59 289q0 145 115 231q82 61 385 103q35 4 82 10t72.5 9t59.5 8t52.5 10.5t40 13.5t31.5 18t20.5 23.5t14.5 32t4 43.5q0 180 -301 180q-373 0 -387 -252h-139q25 383 507 383q176 0 280.5 -43t154.5 -139q172 205 456 204q262 0 420 -158.5t158 -424.5v-29h-1004 q12 -195 123 -304.5t291 -109.5q141 0 237.5 64.5t135.5 183.5h162q-43 -174 -186.5 -279.5t-336.5 -105.5q-346 0 -489 256q-184 -256 -549 -256q-195 0 -302.5 87t-107.5 241zM205 287q0 -86 75.5 -139.5t206.5 -53.5q207 0 330 94.5t123 247.5v144q-72 -39 -377 -86 q-205 -31 -281.5 -69t-76.5 -138zM1085 631h834q-6 160 -121 259t-291 99q-174 0 -291 -99t-131 -259z" />
<glyph unicode="&#xe7;" horiz-adv-x="1251" d="M84 543q0 260 159.5 420.5t420.5 160.5q207 0 350 -110.5t172 -286.5h-148q-39 127 -137 194.5t-242 67.5q-193 0 -311.5 -123t-118.5 -323q0 -203 118 -323t317 -120q150 0 254 81t133 214h145q-23 -193 -171 -313.5t-361 -120.5q-260 0 -420 161t-160 421zM430 -401 l24 65q125 -37 211 -37q143 0 144 97q0 80 -97 79q-31 0 -112 -18l-41 31l104 184h80l-72 -127q43 12 86 12q88 0 135.5 -43t47.5 -121q0 -82 -61.5 -128t-176.5 -46q-112 1 -272 52z" />
<glyph unicode="&#xe8;" horiz-adv-x="1318" d="M84 543q0 260 159.5 420.5t420 160.5t419 -157.5t158.5 -421.5v-33h-1003q12 -197 123.5 -304.5t302.5 -107.5q139 0 237 64.5t139 181.5h160q-43 -178 -187.5 -281.5t-348.5 -103.5q-262 0 -421 161t-159 421zM242 631h837q-12 162 -125.5 260t-289.5 98 q-178 0 -293 -98t-129 -260zM436 1538h187l176 -303h-121z" />
<glyph unicode="&#xe9;" horiz-adv-x="1318" d="M84 543q0 260 159.5 420.5t420 160.5t419 -157.5t158.5 -421.5v-33h-1003q12 -197 123.5 -304.5t302.5 -107.5q139 0 237 64.5t139 181.5h160q-43 -178 -187.5 -281.5t-348.5 -103.5q-262 0 -421 161t-159 421zM242 631h837q-12 162 -125.5 260t-289.5 98 q-178 0 -293 -98t-129 -260zM561 1235l176 303h187l-242 -303h-121z" />
<glyph unicode="&#xea;" horiz-adv-x="1318" d="M84 543q0 260 159.5 420.5t420 160.5t419 -157.5t158.5 -421.5v-33h-1003q12 -197 123.5 -304.5t302.5 -107.5q139 0 237 64.5t139 181.5h160q-43 -178 -187.5 -281.5t-348.5 -103.5q-262 0 -421 161t-159 421zM242 631h837q-12 162 -125.5 260t-289.5 98 q-178 0 -293 -98t-129 -260zM311 1235l285 303h168l285 -303h-158l-211 217l-211 -217h-158z" />
<glyph unicode="&#xeb;" horiz-adv-x="1318" d="M84 543q0 260 159.5 420.5t420 160.5t419 -157.5t158.5 -421.5v-33h-1003q12 -197 123.5 -304.5t302.5 -107.5q139 0 237 64.5t139 181.5h160q-43 -178 -187.5 -281.5t-348.5 -103.5q-262 0 -421 161t-159 421zM242 631h837q-12 162 -125.5 260t-289.5 98 q-178 0 -293 -98t-129 -260zM346 1303v167h141v-167h-141zM873 1303v167h141v-167h-141z" />
<glyph unicode="&#xec;" horiz-adv-x="460" d="M-13 1538h187l176 -303h-121zM160 0v1085h141v-1085h-141z" />
<glyph unicode="&#xed;" horiz-adv-x="460" d="M112 1235l176 303h187l-242 -303h-121zM160 0v1085h141v-1085h-141z" />
<glyph unicode="&#xee;" horiz-adv-x="460" d="M-138 1235l285 303h168l285 -303h-158l-211 217l-211 -217h-158zM160 0v1085h141v-1085h-141z" />
<glyph unicode="&#xef;" horiz-adv-x="460" d="M-103 1303v167h141v-167h-141zM160 0v1085h141v-1085h-141zM424 1303v167h141v-167h-141z" />
<glyph unicode="&#xf0;" d="M84 485q0 242 158.5 392.5t412.5 150.5q191 0 289 -72q-131 197 -215 281l-367 -147l-36 77l340 138q-80 88 -136 129l84 86q102 -84 187 -170l315 127l35 -78l-289 -115q381 -436 381 -778q0 -244 -158.5 -393.5t-412.5 -149.5q-266 0 -427 146.5t-161 375.5zM229 500 q0 -180 117 -290t318 -110q199 0 316.5 109.5t117.5 290t-118 290t-316.5 109.5t-316.5 -108.5t-118 -290.5z" />
<glyph unicode="&#xf1;" horiz-adv-x="1304" d="M150 0v1085h137v-200q162 223 454 223q215 0 316.5 -99.5t101.5 -306.5v-702h-141v610q0 199 -64.5 284t-236.5 85q-186 0 -306 -100.5t-120 -260.5v-618h-141zM301 1266q12 115 71.5 178t147.5 63q51 0 129 -39l92 -47q8 -4 27.5 -14t30 -14t28 -9.5t33.5 -5.5 q94 0 117 129h98q-12 -115 -71.5 -178t-147.5 -63q-51 0 -129 39l-94 47q-86 41 -117 41q-96 0 -117 -127h-98z" />
<glyph unicode="&#xf2;" d="M84 543q0 260 159.5 420.5t420 160.5t421 -160.5t160.5 -420.5t-160.5 -421t-421 -161t-420 161t-159.5 421zM229 542.5q0 -202.5 118 -322.5t316.5 -120t316.5 120t118 322.5t-118 322.5t-316.5 120t-316.5 -120t-118 -322.5zM420 1538h187l176 -303h-121z" />
<glyph unicode="&#xf3;" d="M84 543q0 260 159.5 420.5t420 160.5t421 -160.5t160.5 -420.5t-160.5 -421t-421 -161t-420 161t-159.5 421zM229 542.5q0 -202.5 118 -322.5t316.5 -120t316.5 120t118 322.5t-118 322.5t-316.5 120t-316.5 -120t-118 -322.5zM545 1235l176 303h187l-242 -303h-121z" />
<glyph unicode="&#xf4;" d="M84 543q0 260 159.5 420.5t420 160.5t421 -160.5t160.5 -420.5t-160.5 -421t-421 -161t-420 161t-159.5 421zM229 542.5q0 -202.5 118 -322.5t316.5 -120t316.5 120t118 322.5t-118 322.5t-316.5 120t-316.5 -120t-118 -322.5zM295 1235l285 303h168l285 -303h-158 l-211 217l-211 -217h-158z" />
<glyph unicode="&#xf5;" d="M84 543q0 260 159.5 420.5t420 160.5t421 -160.5t160.5 -420.5t-160.5 -421t-421 -161t-420 161t-159.5 421zM229 542.5q0 -202.5 118 -322.5t316.5 -120t316.5 120t118 322.5t-118 322.5t-316.5 120t-316.5 -120t-118 -322.5zM277 1266q12 115 71.5 178t147.5 63 q51 0 129 -39l92 -47q8 -4 27.5 -14t30 -14t28 -9.5t33.5 -5.5q94 0 117 129h98q-12 -115 -71.5 -178t-147.5 -63q-51 0 -129 39l-94 47q-86 41 -117 41q-96 0 -117 -127h-98z" />
<glyph unicode="&#xf6;" d="M84 543q0 260 159.5 420.5t420 160.5t421 -160.5t160.5 -420.5t-160.5 -421t-421 -161t-420 161t-159.5 421zM229 542.5q0 -202.5 118 -322.5t316.5 -120t316.5 120t118 322.5t-118 322.5t-316.5 120t-316.5 -120t-118 -322.5zM330 1303v167h141v-167h-141zM857 1303v167 h141v-167h-141z" />
<glyph unicode="&#xf7;" horiz-adv-x="1705" d="M254 561v98h1198v-98h-1198zM748 258q0 45 31.5 76t74.5 31q45 0 76 -31t31 -76q0 -43 -31 -74.5t-76 -31.5t-75.5 30.5t-30.5 75.5zM748 963q0 45 31.5 76.5t74.5 31.5q45 0 76 -31.5t31 -76.5q0 -43 -31 -75t-76 -32t-75.5 31t-30.5 76z" />
<glyph unicode="&#xf8;" d="M84 543q0 260 159.5 420.5t420.5 160.5q238 0 399 -141l123 125l55 -57l-125 -125q129 -160 129 -383q0 -260 -160.5 -421t-420.5 -161q-221 0 -385 131l-140 -139l-53 57l135 137q-137 160 -137 396zM229 543q1 -187 95 -293l637 633q-111 102 -297 102 q-199 0 -317 -120t-118 -322zM379 195q98 -94 285 -95q199 0 316.5 121t117.5 322q0 167 -84 278z" />
<glyph unicode="&#xf9;" horiz-adv-x="1304" d="M150 383v702h141v-610q0 -199 64.5 -284t236.5 -85q186 0 306 100.5t120 260.5v618h141v-1085h-137v201q-162 -223 -455 -224q-215 0 -316 99.5t-101 306.5zM434 1538h187l176 -303h-121z" />
<glyph unicode="&#xfa;" horiz-adv-x="1304" d="M150 383v702h141v-610q0 -199 64.5 -284t236.5 -85q186 0 306 100.5t120 260.5v618h141v-1085h-137v201q-162 -223 -455 -224q-215 0 -316 99.5t-101 306.5zM559 1235l176 303h187l-242 -303h-121z" />
<glyph unicode="&#xfb;" horiz-adv-x="1304" d="M150 383v702h141v-610q0 -199 64.5 -284t236.5 -85q186 0 306 100.5t120 260.5v618h141v-1085h-137v201q-162 -223 -455 -224q-215 0 -316 99.5t-101 306.5zM309 1235l285 303h168l285 -303h-158l-211 217l-211 -217h-158z" />
<glyph unicode="&#xfc;" horiz-adv-x="1304" d="M150 383v702h141v-610q0 -199 64.5 -284t236.5 -85q186 0 306 100.5t120 260.5v618h141v-1085h-137v201q-162 -223 -455 -224q-215 0 -316 99.5t-101 306.5zM344 1303v167h141v-167h-141zM871 1303v167h141v-167h-141z" />
<glyph unicode="&#xfd;" horiz-adv-x="1103" d="M-25 1085h164l406 -940l409 940h158l-559 -1216q-66 -145 -134.5 -202.5t-219.5 -57.5q-47 0 -123 20v135q90 -18 139 -18q90 0 142.5 56.5t113.5 201.5zM434 1235l176 303h187l-242 -303h-121z" />
<glyph unicode="&#xfe;" horiz-adv-x="1384" d="M154 -389v1868h143v-584q158 215 430 215q258 0 417 -156.5t159 -410.5t-160 -412t-416 -158q-268 0 -430 213v-575h-143zM297 542.5q0 -198.5 115.5 -316t312.5 -117.5t313.5 118.5t116.5 315t-116.5 315.5t-313.5 119t-312.5 -118t-115.5 -316.5z" />
<glyph unicode="&#xff;" horiz-adv-x="1103" d="M-25 1085h164l406 -940l409 940h158l-559 -1216q-66 -145 -134.5 -202.5t-219.5 -57.5q-47 0 -123 20v135q90 -18 139 -18q90 0 142.5 56.5t113.5 201.5zM219 1303v167h141v-167h-141zM746 1303v167h141v-167h-141z" />
<glyph unicode="&#x152;" horiz-adv-x="2570" d="M102 739q0 354 205 566.5t543 212.5q162 0 288 -59.5t199 -166.5v187h1137v-133h-989v-523h913v-139h-913v-534h989v-150h-1137v160q-178 -197 -495 -197q-334 0 -537 212t-203 564zM252 739q0 -293 164 -461.5t442 -168.5q141 0 244 43q141 60 235 210v728 q-141 283 -479 282q-276 0 -441 -170t-165 -463z" />
<glyph unicode="&#x153;" horiz-adv-x="2324" d="M84 543q0 260 159.5 420.5t420.5 160.5q347 0 503 -270q162 270 502 270q260 0 418 -157.5t158 -421.5v-33h-1004q8 -193 121 -303.5t293 -110.5q141 0 238.5 64.5t136.5 183.5h159q-39 -172 -183 -278.5t-337 -106.5q-334 0 -502 270q-164 -270 -503 -270 q-260 0 -420 161t-160 421zM229 542.5q0 -202.5 118 -322.5t316.5 -120t316.5 120t118 322.5t-118 322.5t-316.5 120t-316.5 -120t-118 -322.5zM1247 631h834q-10 162 -123 260t-289 98q-174 0 -291 -99t-131 -259z" />
<glyph unicode="&#x178;" horiz-adv-x="1472" d="M25 1479h188l522 -721l529 721h182l-637 -840v-639h-147v639zM403 1696v167h141v-167h-141zM930 1696v167h141v-167h-141z" />
<glyph unicode="&#x2c6;" horiz-adv-x="1024" d="M143 1235l285 303h168l285 -303h-158l-211 217l-211 -217h-158z" />
<glyph unicode="&#x2dc;" horiz-adv-x="1024" d="M125 1266q12 115 71.5 178t147.5 63q51 0 129 -39l92 -47q8 -4 27.5 -14t30 -14t28 -9.5t33.5 -5.5q94 0 117 129h98q-12 -115 -71.5 -178t-147.5 -63q-51 0 -129 39l-94 47q-86 41 -117 41q-96 0 -117 -127h-98z" />
<glyph unicode="&#x2000;" horiz-adv-x="972" />
<glyph unicode="&#x2001;" horiz-adv-x="1944" />
<glyph unicode="&#x2002;" horiz-adv-x="972" />
<glyph unicode="&#x2003;" horiz-adv-x="1944" />
<glyph unicode="&#x2004;" horiz-adv-x="648" />
<glyph unicode="&#x2005;" horiz-adv-x="486" />
<glyph unicode="&#x2006;" horiz-adv-x="324" />
<glyph unicode="&#x2007;" horiz-adv-x="324" />
<glyph unicode="&#x2008;" horiz-adv-x="243" />
<glyph unicode="&#x2009;" horiz-adv-x="388" />
<glyph unicode="&#x200a;" horiz-adv-x="108" />
<glyph unicode="&#x2010;" horiz-adv-x="948" d="M113 477v131h723v-131h-723z" />
<glyph unicode="&#x2011;" horiz-adv-x="948" d="M113 477v131h723v-131h-723z" />
<glyph unicode="&#x2012;" horiz-adv-x="948" d="M113 477v131h723v-131h-723z" />
<glyph unicode="&#x2013;" horiz-adv-x="1024" d="M0 492v104h1024v-104h-1024z" />
<glyph unicode="&#x2014;" horiz-adv-x="2048" d="M0 492v104h2048v-104h-2048z" />
<glyph unicode="&#x2018;" horiz-adv-x="591" d="M213 1018v237q0 111 36 171.5t130 91.5v-97q-76 -39 -76 -137v-88h76v-178h-166z" />
<glyph unicode="&#x2019;" horiz-adv-x="591" d="M213 979v94q76 39 76 137v88h-76v181h166v-240q0 -111 -36 -170t-130 -90z" />
<glyph unicode="&#x201a;" horiz-adv-x="591" d="M213 0v180h166v-239q0 -111 -36 -170.5t-130 -89.5v94q76 39 76 137v88h-76z" />
<glyph unicode="&#x201c;" horiz-adv-x="923" d="M213 1018v237q0 111 36 171.5t130 91.5v-97q-76 -39 -76 -137v-88h76v-178h-166zM545 1018v237q0 111 35.5 171.5t130.5 91.5v-97q-76 -39 -76 -137v-88h76v-178h-166z" />
<glyph unicode="&#x201d;" horiz-adv-x="923" d="M213 979v94q76 39 76 137v88h-76v181h166v-240q0 -111 -36 -170t-130 -90zM545 979v94q76 39 76 137v88h-76v181h166v-240q0 -111 -36 -170t-130 -90z" />
<glyph unicode="&#x201e;" horiz-adv-x="923" d="M213 0v180h166v-239q0 -111 -36 -170.5t-130 -89.5v94q76 39 76 137v88h-76zM545 0v180h166v-239q0 -111 -36 -170.5t-130 -89.5v94q76 39 76 137v88h-76z" />
<glyph unicode="&#x2022;" horiz-adv-x="1208" d="M307 762q0 123 87 209t210 86q121 0 208 -86t87 -209q0 -121 -87 -209t-210 -88t-209 87t-86 210z" />
<glyph unicode="&#x2026;" horiz-adv-x="2048" d="M260 0v180h166v-180h-166zM942 0v180h166v-180h-166zM1626 0v180h166v-180h-166z" />
<glyph unicode="&#x202f;" horiz-adv-x="388" />
<glyph unicode="&#x2039;" horiz-adv-x="634" d="M129 442v201l358 272v-161l-276 -211l276 -211v-162z" />
<glyph unicode="&#x203a;" horiz-adv-x="634" d="M147 170v162l277 211l-277 211v161l359 -272v-201z" />
<glyph unicode="&#x205f;" horiz-adv-x="486" />
<glyph unicode="&#x2122;" horiz-adv-x="1705" d="M264 1397v57h430v-57h-172v-473h-82v473h-176zM821 924v530h117l166 -422l156 422h116v-530h-71v467l-177 -467h-49l-186 467v-467h-72z" />
<glyph unicode="&#xe000;" horiz-adv-x="1085" d="M0 0v1085h1085v-1085h-1085z" />
<glyph unicode="&#xfb01;" horiz-adv-x="1067" d="M29 967v118h184v86q0 170 44 240t185 70q68 0 160 -25v-125q-78 18 -121 19q-82 0 -103.5 -33t-21.5 -125v-107h246v-118h-246v-967h-143v967h-184zM766 0v1085h141v-1085h-141zM766 1311v168h141v-168h-141z" />
<glyph unicode="&#xfb02;" horiz-adv-x="1067" d="M29 967v118h184v86q0 170 44 240t185 70q68 0 160 -25v-125q-78 18 -121 19q-82 0 -103.5 -33t-21.5 -125v-107h246v-118h-246v-967h-143v967h-184zM766 0v1479h141v-1479h-141z" />
</font>
</defs>
</svg>
