<?xml version="1.0" standalone="no"?>
<!DOCTYPE svg PUBLIC "-//W3C//DTD SVG 1.1//EN" "http://www.w3.org/Graphics/SVG/1.1/DTD/svg11.dtd" >
<svg xmlns="http://www.w3.org/2000/svg">
<metadata></metadata>
<defs>
<font id="camingodos_regularregular" horiz-adv-x="1085" >
<font-face units-per-em="2048" ascent="1536" descent="-512" />
<missing-glyph horiz-adv-x="530" />
<glyph unicode="&#xfb01;" horiz-adv-x="1148" d="M43 864v144h158v137q0 202 104 298.5t348 96.5q140 0 265 -33l-23 -141q-132 27 -246 27q-139 0 -198.5 -56t-59.5 -176v-153h584v-1008h-189v864h-395v-864h-190v864h-158z" />
<glyph unicode="&#xfb02;" horiz-adv-x="1148" d="M43 864v144h158v159q0 202 100 287.5t322 85.5q179 0 352 -39v-1501h-189v1374q-93 19 -178 19q-111 0 -164 -49.5t-53 -167.5v-168h244v-144h-244v-864h-190v864h-158z" />
<glyph horiz-adv-x="1024" />
<glyph horiz-adv-x="1024" />
<glyph horiz-adv-x="682" />
<glyph unicode="&#xd;" horiz-adv-x="0" />
<glyph unicode=" "  horiz-adv-x="530" />
<glyph unicode="&#x09;" horiz-adv-x="530" />
<glyph unicode="&#xa0;" horiz-adv-x="530" />
<glyph unicode="!" horiz-adv-x="612" d="M188 98q0 65 24.5 89t92.5 24t92.5 -24t24.5 -89t-24.5 -89.5t-92.5 -24.5t-92.5 24.5t-24.5 89.5zM205 1511h203l-23 -1124h-158z" />
<glyph unicode="&#x22;" horiz-adv-x="729" d="M113 1511h180l-21 -440h-139zM436 1511h180l-20 -440h-139z" />
<glyph unicode="#" d="M39 350v133h192l68 359h-178v133h196l64 344h156l-64 -344h234l63 344h156l-64 -344h187v-133h-205l-70 -359h191v-133h-209l-66 -350h-153l65 350h-235l-66 -350h-154l66 350h-174zM385 483h236l67 359h-235z" />
<glyph unicode="$" d="M152 952q0 59 18 110t57 95t107 74.5t160 42.5v237h153v-227q137 -3 275 -41l-23 -145q-140 39 -289 39q-278 0 -278 -172q0 -54 22.5 -88.5t81 -68t185.5 -85.5q94 -39 152 -68.5t104 -61.5t68 -68t33 -79t11 -104q0 -140 -88 -230t-272 -112v-227h-154v219 q-151 6 -313 49l20 147q177 -47 344 -47q135 0 208 50t73 141q0 54 -23 89t-84 70t-192 89q-213 89 -284.5 162t-71.5 210z" />
<glyph unicode="%" horiz-adv-x="1628" d="M74 1063q0 109 18.5 183t56 116.5t88.5 60t123 17.5q71 0 120 -17t85.5 -58.5t54 -115t17.5 -182.5t-18.5 -183t-56 -116.5t-87.5 -60t-121 -17.5q-72 0 -121.5 17t-86.5 58.5t-54.5 115t-17.5 182.5zM221 1067q0 -81 9 -134t27.5 -80.5t41.5 -37.5t57 -10 q46 0 72.5 17.5t43.5 75.5t17 165q0 81 -9 134t-27.5 80.5t-41 37.5t-55.5 10q-47 0 -74 -17.5t-44 -75.5t-17 -165zM281 31l946 1431l108 -69l-946 -1432zM991 354q0 109 18.5 183t56.5 116.5t89 60t123 17.5q71 0 119.5 -17t85 -58.5t54 -115t17.5 -182.5t-18 -183 t-56 -116t-87.5 -59.5t-120.5 -17.5q-72 0 -121.5 17t-86.5 58t-55 114.5t-18 182.5zM1139 358q0 -81 9 -134t27.5 -80.5t41.5 -37.5t57 -10q46 0 72.5 17.5t43.5 75.5t17 165q0 81 -9 134t-27.5 80.5t-41 37.5t-55.5 10q-47 0 -74 -17.5t-44 -75.5t-17 -165z" />
<glyph unicode="&#x26;" horiz-adv-x="1292" d="M92 350q0 93 37 172t93.5 136.5t150.5 127.5q-45 49 -75 87.5t-61.5 90.5t-47 110t-15.5 122q0 160 100 252t281 92q178 0 271.5 -80t93.5 -221q0 -60 -18 -116t-44 -98t-70.5 -88.5t-81.5 -77.5t-94 -75l353 -362q68 135 79 319h162q-24 -235 -131 -434l215 -219 l-125 -117l-196 203q-180 -203 -437 -203q-211 0 -325.5 104.5t-114.5 274.5zM272 367q0 -109 72 -179.5t203 -70.5q183 0 317 164l-387 401q-51 -39 -84 -69t-63 -68.5t-44 -82t-14 -95.5zM348 1198q0 -84 42.5 -155t119.5 -154q76 56 122.5 101t78.5 105t32 124 q0 82 -50 129t-146 47q-98 0 -148.5 -53.5t-50.5 -143.5z" />
<glyph unicode="'" horiz-adv-x="405" d="M113 1511h180l-21 -440h-139z" />
<glyph unicode="(" horiz-adv-x="606" d="M139 631q0 274 76.5 517t222.5 478l129 -72q-254 -452 -254 -923q0 -472 254 -924l-129 -72q-299 476 -299 996z" />
<glyph unicode=")" horiz-adv-x="606" d="M39 -293q254 452 254 924q0 471 -254 923l131 72q144 -236 220.5 -479t76.5 -516q0 -518 -297 -996z" />
<glyph unicode="*" horiz-adv-x="837" d="M104 1102l220 98l-220 98l72 125l195 -143l-25 231h146l-27 -231l194 143l74 -125l-221 -98l221 -98l-74 -125l-194 141l27 -229h-146l25 229l-195 -141z" />
<glyph unicode="+" d="M88 514v145h375v392h158v-392h376v-145h-376v-393h-158v393h-375z" />
<glyph unicode="," horiz-adv-x="479" d="M39 -248q73 129 129 240q-26 13 -38.5 36.5t-12.5 73.5q0 68 25.5 92.5t97.5 24.5q73 0 97.5 -24.5t24.5 -92.5q0 -69 -28 -118q-62 -107 -219 -281z" />
<glyph unicode="-" horiz-adv-x="909" d="M158 459v164h594v-164h-594z" />
<glyph unicode="." horiz-adv-x="479" d="M117 102q0 68 25.5 92.5t97.5 24.5q73 0 97.5 -24.5t24.5 -92.5q0 -70 -24.5 -94t-97.5 -24q-72 0 -97.5 24.5t-25.5 93.5z" />
<glyph unicode="/" horiz-adv-x="821" d="M-27 -227l660 1738h174l-657 -1738h-177z" />
<glyph unicode="0" d="M106 539q0 160 28 271.5t85 179.5t138 98t194 30q151 0 242.5 -51t138.5 -175.5t47 -336.5q0 -160 -27.5 -272.5t-85 -181t-138.5 -99.5t-193 -31q-90 0 -157.5 18t-120 58t-85 106t-49.5 161.5t-17 224.5zM293 547q0 -169 29 -264t81 -129.5t140 -34.5t140 34.5 t81 129.5t29 264q0 168 -29 262t-81 128t-140 34t-140 -34t-81 -128t-29 -262z" />
<glyph unicode="1" d="M162 0v152h336v749l-277 -115l-47 121l361 183h145v-938h276v-152h-794z" />
<glyph unicode="2" d="M127 0v127l352 322q91 81 140.5 132.5t83.5 110t34 111.5q0 164 -233 164q-161 0 -320 -49l-22 145q174 51 379 51q391 0 391 -283q0 -65 -20 -122.5t-64 -113.5t-91 -101.5t-122 -108.5l-256 -225h569v-160h-821z" />
<glyph unicode="3" d="M109 -221l20 147q139 -32 307 -32q158 0 241 70.5t83 191.5q0 64 -19 106t-68.5 73t-138.5 44.5t-227 13.5v146q115 0 201.5 23t133.5 61.5t69 81t22 88.5q0 90 -62.5 132t-191.5 42q-146 0 -291 -43l-22 145q178 45 358 45q394 0 394 -283q0 -125 -69.5 -212.5 t-191.5 -135.5q131 -22 211 -98t80 -217q0 -192 -129.5 -308t-374.5 -116q-183 0 -335 35z" />
<glyph unicode="4" d="M72 80v145l520 865h250v-850h162v-160h-162v-307h-170v307h-600zM246 240h426v688z" />
<glyph unicode="5" d="M139 -221l19 145q160 -30 293 -30q175 0 249 71.5t74 208.5q0 123 -67 177.5t-209 54.5q-101 0 -289 -23v707h686v-160h-530v-387q122 12 198 12q194 0 294.5 -87.5t100.5 -277.5q0 -212 -127 -329t-389 -117q-132 0 -303 35z" />
<glyph unicode="6" d="M137 518q0 143 8.5 249.5t30.5 204t60.5 163.5t97.5 115.5t143.5 72.5t196.5 23q125 0 246 -31l-25 -144q-112 25 -225 25q-51 0 -93 -8t-73.5 -20.5t-57 -36.5t-43 -46.5t-30.5 -60t-21 -68t-13.5 -80t-8.5 -86t-6 -94.5q151 92 292 92q175 0 269 -96.5t94 -283.5 q0 -202 -111.5 -319.5t-318.5 -117.5q-209 0 -310.5 132.5t-101.5 414.5zM322 489q0 -190 56.5 -280t182.5 -90q114 0 175 75t61 203q0 244 -222 244q-64 0 -122 -22.5t-131 -73.5v-56z" />
<glyph unicode="7" d="M121 930v160h860v-127q-253 -592 -471 -1190h-197q195 513 475 1157h-667z" />
<glyph unicode="8" d="M123 322q0 90 40.5 162t99.5 117t145 85q-119 65 -179.5 144.5t-60.5 199.5q0 138 104.5 228t290.5 90q187 0 284 -80.5t97 -218.5q0 -122 -60.5 -204t-178.5 -147q65 -32 110.5 -62.5t86 -71.5t61 -93.5t20.5 -116.5q0 -173 -115.5 -278t-322.5 -105q-205 0 -313.5 95.5 t-108.5 255.5zM309 342q0 -101 66.5 -162t179.5 -61q116 0 180 61t64 162q0 87 -66.5 148t-197.5 120q-226 -95 -226 -268zM350 1024q0 -81 53 -136t168 -114q101 48 148 106.5t47 141.5q0 76 -55 127t-156 51q-100 0 -152.5 -50t-52.5 -126z" />
<glyph unicode="9" d="M106 682q0 202 112 319t319 117q209 0 310 -132t101 -415q0 -173 -12.5 -294.5t-46.5 -228t-93.5 -170t-154.5 -99t-229 -35.5q-143 0 -287 39l22 143q128 -32 269 -32q51 0 93 8t73.5 20.5t57 36t43 46t30.5 60t21 68t13.5 80t8.5 86.5t6 96q-145 -92 -293 -92 q-175 0 -269 96t-94 283zM289 692q0 -241 221 -241q65 0 123.5 21.5t130.5 72.5v57q0 189 -57 279t-183 90q-114 0 -174.5 -75t-60.5 -204z" />
<glyph unicode=":" horiz-adv-x="417" d="M117 102q0 68 25.5 92.5t97.5 24.5q73 0 97.5 -24.5t24.5 -92.5q0 -70 -24.5 -94t-97.5 -24q-72 0 -97.5 24.5t-25.5 93.5zM117 786q0 68 25.5 92.5t97.5 24.5q73 0 97.5 -24.5t24.5 -92.5q0 -70 -24.5 -94t-97.5 -24q-72 0 -97.5 24.5t-25.5 93.5z" />
<glyph unicode=";" horiz-adv-x="417" d="M39 -248q59 100 129 240q-26 13 -38.5 36.5t-12.5 73.5q0 68 25.5 92.5t97.5 24.5q73 0 97.5 -24.5t24.5 -92.5q0 -69 -28 -118q-62 -107 -219 -281zM117 786q0 68 25.5 92.5t97.5 24.5q73 0 97.5 -24.5t24.5 -92.5q0 -70 -24.5 -94t-97.5 -24q-72 0 -97.5 24.5 t-25.5 93.5z" />
<glyph unicode="&#x3c;" d="M141 504v166l772 432v-170l-606 -344l606 -350v-170z" />
<glyph unicode="=" d="M109 319v146h868v-146h-868zM109 711v145h868v-145h-868z" />
<glyph unicode="&#x3e;" d="M172 68v170l606 344l-606 352v168l772 -436v-166z" />
<glyph unicode="?" horiz-adv-x="808" d="M57 1483q169 45 312 45q374 0 374 -283q0 -125 -39.5 -204t-156.5 -207q-82 -91 -112.5 -150.5t-33.5 -146.5v-150h-159l-2 143q-2 125 26 198.5t129 189.5q95 106 127.5 164t32.5 139q0 159 -229 159q-112 0 -248 -39zM205 98q0 65 24.5 89t92.5 24t92 -24t24 -89 t-24 -89.5t-92 -24.5t-92.5 24.5t-24.5 89.5z" />
<glyph unicode="@" horiz-adv-x="2150" d="M164 481q0 240 74.5 427.5t207 305t309 178t386.5 60.5q421 0 642.5 -178.5t221.5 -495.5q0 -132 -31 -243t-82 -185t-116 -126t-132.5 -75.5t-132.5 -23.5q-99 0 -154.5 46.5t-68.5 127.5q-183 -174 -370 -174q-133 0 -211 93t-78 271q0 125 38 230t103 174.5t151 108 t181 38.5q131 0 235 -71l19 51h145l-65 -621q-9 -80 16 -114.5t82 -34.5q44 0 93 32t94.5 92.5t75.5 165t30 232.5q0 259 -173 396t-519 137q-140 0 -260 -29.5t-220 -93.5t-170 -158.5t-109 -230.5t-38 -304q3 -632 627 -632q279 0 483 55l22 -145q-235 -56 -512 -56 q-390 0 -592 198.5t-202 571.5zM811 508q0 -246 160 -246q125 0 291 178l43 400q-60 37 -102.5 53t-96.5 16q-124 0 -209.5 -110t-85.5 -291z" />
<glyph unicode="A" horiz-adv-x="1245" d="M29 0l452 1423h279l457 -1423h-203l-123 387h-549l-123 -387h-190zM379 537h475l-119 374q-54 168 -119 385h-2q-70 -237 -118 -389z" />
<glyph unicode="B" horiz-adv-x="1210" d="M180 0v1423h393q272 0 383 -71t111 -262q0 -257 -223 -334q119 -21 192.5 -103t73.5 -237q0 -211 -126.5 -313.5t-397.5 -102.5h-406zM373 147h221q175 0 248 63.5t73 199.5q0 91 -29 144.5t-104.5 81.5t-208.5 28h-200v-517zM373 809h198q152 0 229 57.5t77 194.5 q0 127 -67 171t-243 44h-194v-467z" />
<glyph unicode="C" horiz-adv-x="1069" d="M127 707q0 178 24.5 307.5t69 212t116.5 132t156.5 68.5t198.5 19q166 0 309 -43l-22 -148q-134 39 -277 39q-82 0 -138 -12.5t-105.5 -48.5t-78.5 -100t-45 -167.5t-16 -250.5q0 -150 15.5 -254t43 -169t77 -101t106.5 -49t141 -13q122 0 277 43l22 -147 q-184 -48 -325 -48q-119 0 -202 18t-152.5 65t-110 129.5t-62.5 210t-22 307.5z" />
<glyph unicode="D" horiz-adv-x="1333" d="M180 0v1423h443q94 0 165.5 -8.5t134.5 -28.5t107 -56t79 -88t55.5 -126.5t31 -171t10.5 -221.5q0 -173 -22 -296t-65.5 -206.5t-116.5 -132t-166 -68.5t-224 -20h-432zM373 152h241q75 0 129 8.5t101 32t77 63t52 102.5t31.5 150.5t9.5 206.5q0 143 -14.5 240.5 t-42 160.5t-78 97t-111.5 46.5t-154 12.5h-241v-1120z" />
<glyph unicode="E" horiz-adv-x="1058" d="M180 0v1423h774v-151h-581v-463h538v-150h-538v-507h581v-152h-774z" />
<glyph unicode="F" horiz-adv-x="993" d="M180 0v1423h756v-151h-563v-463h514v-150h-514v-659h-193z" />
<glyph unicode="G" horiz-adv-x="1245" d="M127 705q0 178 26.5 308t74 213t123.5 132.5t163.5 68.5t206.5 19q182 0 354 -47l-22 -148q-177 43 -326 43q-72 0 -124 -8.5t-100.5 -31.5t-80.5 -64.5t-56.5 -105.5t-35.5 -156t-11 -215q0 -149 15.5 -253t42.5 -169t75 -101.5t103 -49.5t135 -13q121 0 228 39v489 h-295v152h479v-760q-183 -72 -412 -72q-103 0 -178.5 12t-141.5 43t-109.5 83.5t-74.5 134t-45 194t-14 263.5z" />
<glyph unicode="H" horiz-adv-x="1366" d="M180 0v1423h193v-608h622v608h191v-1423h-191v657h-622v-657h-193z" />
<glyph unicode="I" horiz-adv-x="552" d="M180 0v1423h193v-1423h-193z" />
<glyph unicode="J" horiz-adv-x="679" d="M-18 8l22 148q97 -19 156 -19q91 0 125 43.5t34 159.5v1083h193v-1075q0 -201 -79 -281.5t-251 -80.5q-104 0 -200 22z" />
<glyph unicode="K" horiz-adv-x="1120" d="M180 0v1423h193v-678l504 678h229l-535 -688l557 -735h-233l-522 702v-702h-193z" />
<glyph unicode="L" horiz-adv-x="948" d="M180 0v1423h193v-1267h555v-156h-748z" />
<glyph unicode="M" horiz-adv-x="1837" d="M133 0l123 1423h297l244 -817q62 -210 121 -456h4q64 276 116 456l244 817h299l123 -1423h-203l-63 850q-15 238 -23 442l-4 2q-61 -228 -123 -444l-248 -850h-252l-247 850q-17 62 -59.5 210.5t-65.5 231.5h-2q-10 -244 -25 -442l-63 -850h-193z" />
<glyph unicode="N" horiz-adv-x="1415" d="M180 0v1423h246l461 -835q111 -208 190 -379h4q-16 216 -16 379v835h170v-1423h-250l-457 836q-115 214 -190 378h-4q16 -266 16 -378v-836h-170z" />
<glyph unicode="O" horiz-adv-x="1370" d="M127 705q0 182 24.5 313t68 214.5t115.5 132.5t156.5 68t200.5 19t198 -18t152 -65t111.5 -129.5t64.5 -212t23 -310.5t-24.5 -311.5t-68 -214.5t-115.5 -133t-156.5 -68t-200.5 -19t-198 18t-152 65.5t-111.5 129.5t-64.5 211t-23 310zM319 713q0 -148 15 -252 t42.5 -170t74 -103t101 -51t132.5 -14t132 13.5t101 50t74.5 102t42.5 169t15 251.5t-15 252.5t-42.5 170.5t-74.5 103.5t-101 51t-132 13.5t-132 -13t-101 -50t-74.5 -102.5t-42.5 -169.5t-15 -252z" />
<glyph unicode="P" horiz-adv-x="1107" d="M180 0v1423h395q130 0 213.5 -16t143.5 -58.5t86 -118t26 -194.5q0 -231 -117 -332.5t-374 -101.5h-180v-602h-193zM373 752h188q154 0 223.5 64t69.5 212q0 147 -62.5 197.5t-224.5 50.5h-194v-524z" />
<glyph unicode="Q" horiz-adv-x="1370" d="M127 705q0 182 24.5 313t68 214.5t115.5 132.5t156.5 68t200.5 19t198 -18t152 -65t111.5 -129.5t64.5 -212t23 -310.5q0 -230 -36 -372.5t-107 -223.5l213 -246l-150 -113l-215 258q-101 -49 -270 -49q-82 0 -145.5 8.5t-122.5 30t-101.5 58t-78 92.5t-57 133t-33 179.5 t-11.5 232.5zM319 713q0 -148 15 -252.5t42.5 -170.5t74.5 -103t101 -50.5t132 -13.5t132 13.5t101 50t74.5 102t42.5 169t15 251.5t-15 252.5t-42.5 170.5t-74.5 103.5t-101 51t-132 13.5t-132 -13t-101 -50t-74.5 -102.5t-42.5 -169.5t-15 -252z" />
<glyph unicode="R" horiz-adv-x="1175" d="M180 0v1423h406q112 0 189.5 -10.5t137.5 -34t94 -65.5t51 -103t17 -147q0 -178 -87.5 -268.5t-285.5 -110.5l414 -684h-223l-391 662h-129v-662h-193zM373 809h207q118 0 185 27t93.5 79.5t26.5 141.5q0 129 -64.5 174t-240.5 45h-207v-467z" />
<glyph unicode="S" horiz-adv-x="1079" d="M109 1083q0 170 121.5 267.5t367.5 97.5q167 0 320 -45l-23 -146q-154 41 -301 41q-303 0 -303 -200q0 -88 59 -142.5t256 -150.5q96 -47 154 -80.5t107 -71t73 -76.5t36.5 -87t12.5 -113q0 -190 -128.5 -296t-379.5 -106q-174 0 -362 52l20 145q186 -47 346 -47 q161 0 241.5 61t80.5 170q0 95 -60.5 150.5t-265.5 155.5q-91 44 -147.5 76.5t-104 69.5t-71.5 76t-36.5 87t-12.5 112z" />
<glyph unicode="T" horiz-adv-x="1062" d="M25 1268v155h1013v-155h-409v-1268h-193v1268h-411z" />
<glyph unicode="U" horiz-adv-x="1335" d="M147 543v880h191v-874q0 -92 8.5 -157t30.5 -118.5t59.5 -85t95 -48.5t138.5 -17q100 0 164.5 25t100 81t49 131t13.5 191v872h193v-864q0 -153 -26.5 -259.5t-87 -182t-163 -111t-251.5 -35.5q-148 0 -247 33t-158.5 105.5t-84.5 176.5t-25 257z" />
<glyph unicode="V" horiz-adv-x="1241" d="M29 1423h202l261 -817q64 -202 135 -475h4q60 245 131 475l260 817h190l-450 -1423h-279z" />
<glyph unicode="W" horiz-adv-x="1951" d="M61 1423h203l197 -817q18 -74 96 -473h4q8 43 22.5 123t23 124.5t21.5 107.5t27 118l191 817h272l189 -817q33 -135 96 -473h4q69 350 98 473l195 817h190l-346 -1423h-282l-197 852q-41 183 -86 440h-2q-43 -229 -90 -440l-197 -852h-282z" />
<glyph unicode="X" horiz-adv-x="1269" d="M16 0l486 725l-469 698h219l391 -581h4q47 80 121 192l258 389h203l-467 -696l491 -727h-221l-411 608h-5q-74 -119 -116 -184l-281 -424h-203z" />
<glyph unicode="Y" horiz-adv-x="1099" d="M4 1423h199l221 -413q53 -96 131 -271h6q66 160 125 273l215 411h197l-455 -872v-551h-190v553z" />
<glyph unicode="Z" horiz-adv-x="1017" d="M59 0v125l664 1141h-635v157h860v-125l-665 -1140h682v-158h-906z" />
<glyph unicode="[" horiz-adv-x="659" d="M188 -334v1845h424v-135h-256v-1575h256v-135h-424z" />
<glyph unicode="\" horiz-adv-x="821" d="M12 1511h176l660 -1738h-176z" />
<glyph unicode="]" horiz-adv-x="659" d="M47 -199h256v1575h-256v135h424v-1845h-424v135z" />
<glyph unicode="^" d="M70 737l374 686h197l375 -686h-180l-295 531l-293 -531h-178z" />
<glyph unicode="_" d="M0 -313h1085v-158h-1085v158z" />
<glyph unicode="`" horiz-adv-x="794" d="M207 1423l119 123l270 -293l-88 -94z" />
<glyph unicode="a" horiz-adv-x="1032" d="M96 270q0 165 115.5 248.5t380.5 83.5h92v103q0 90 -46 133t-146 43q-105 0 -283 -37l-19 141q179 41 334 41q187 0 268.5 -75t81.5 -236v-715h-155l-12 94q-63 -38 -103.5 -58.5t-101 -38t-121.5 -17.5q-129 0 -207 74t-78 216zM268 285q0 -83 41 -122.5t111 -39.5 q63 0 122.5 25t141.5 79v248h-82q-127 0 -201 -21.5t-103.5 -62t-29.5 -106.5z" />
<glyph unicode="b" horiz-adv-x="1136" d="M172 0v1511h190v-360q0 -119 -8 -236l2 -2q88 54 162 83.5t156 29.5q86 0 148.5 -24.5t110 -81.5t71.5 -157.5t24 -246.5q0 -144 -34 -251t-94.5 -167.5t-134.5 -89t-163 -28.5q-130 0 -264 75l-8 -55h-158zM362 197q117 -68 216 -68q54 0 97.5 17.5t81.5 58t59.5 118 t21.5 185.5q0 89 -9.5 153.5t-26.5 105t-44 64t-58.5 32.5t-74.5 9q-104 0 -263 -108v-567z" />
<glyph unicode="c" horiz-adv-x="862" d="M115 500q0 122 21 214t57.5 151t92.5 95.5t119.5 51t145.5 14.5q108 0 244 -33l-19 -141q-110 29 -213 29q-64 0 -108 -14.5t-80.5 -54t-54 -115.5t-17.5 -193q0 -116 15 -190t49 -115t80 -56.5t118 -15.5q88 0 205 31l16 -142q-133 -36 -249 -36q-88 0 -153 14.5 t-117.5 49.5t-85 94t-49.5 149t-17 213z" />
<glyph unicode="d" horiz-adv-x="1136" d="M109 492q0 116 22.5 208t61 152.5t93.5 100t116.5 56.5t132.5 17q123 0 247 -65l2 2q-10 105 -10 231v317h191v-1511h-158l-12 104q-94 -61 -171.5 -92.5t-160.5 -31.5q-86 0 -148.5 24.5t-110 82t-71.5 158.5t-24 247zM299 500q0 -111 13.5 -184t42.5 -112.5t66 -55 t91 -15.5q99 0 262 111v567q-120 68 -215 68q-54 0 -97.5 -17.5t-81.5 -58t-59.5 -118t-21.5 -185.5z" />
<glyph unicode="e" horiz-adv-x="1040" d="M115 500q0 154 30 260t89 165t135 84t180 25q103 0 171 -20.5t116.5 -73t70 -142.5t21.5 -229q0 -28 -4 -110h-621q1 -72 9 -125t24.5 -89.5t38 -59.5t55 -36t69.5 -17.5t87 -4.5q108 0 276 35l17 -142q-166 -40 -328 -40q-87 0 -150.5 12t-120 45.5t-91 91t-54.5 150 t-20 221.5zM305 586h449q-1 124 -24.5 190.5t-67 90.5t-121.5 24q-57 0 -97.5 -13.5t-71.5 -47t-47.5 -94t-19.5 -150.5z" />
<glyph unicode="f" horiz-adv-x="661" d="M43 864v144h158v151q0 199 81 290t279 91q90 0 178 -20l-18 -142q-64 15 -143 15q-100 0 -143.5 -51.5t-43.5 -165.5v-168h281v-144h-281v-864h-190v864h-158z" />
<glyph unicode="g" d="M76 -178q0 166 188 256q-121 51 -121 151q0 88 99 152q-115 90 -115 291q0 192 98.5 277t306.5 85q127 0 203 -26h314v-121q-27 -3 -86 -8.5t-86 -8.5q57 -60 57 -196q0 -192 -98.5 -278.5t-305.5 -86.5q-89 0 -151 25q-53 -36 -53 -74q0 -32 31 -53t126 -41 q219 -47 291 -62q122 -28 174.5 -82t52.5 -159q0 -150 -117 -239t-362 -89q-237 0 -341.5 73.5t-104.5 213.5zM260 -160q0 -84 60 -128t208 -44q153 0 221 49.5t68 128.5q0 53 -32 82.5t-101 44.5q-42 9 -126 28t-126 28q-172 -59 -172 -189zM311 674q0 -131 49 -181.5 t170 -50.5t171.5 49.5t50.5 180.5q0 130 -51 180.5t-171 50.5q-121 0 -170 -49t-49 -180z" />
<glyph unicode="h" horiz-adv-x="1181" d="M172 0v1511h190v-360q0 -90 -10 -240l2 -2q204 117 365 117q159 0 232 -79t73 -253v-694h-188v662q0 117 -40.5 163.5t-131.5 46.5q-125 0 -302 -112v-760h-190z" />
<glyph unicode="i" horiz-adv-x="534" d="M150 1339q0 66 23.5 89.5t92.5 23.5q70 0 94.5 -23.5t24.5 -89.5t-24.5 -89t-94.5 -23q-69 0 -92.5 23t-23.5 89zM172 0v1008h190v-1008h-190z" />
<glyph unicode="j" horiz-adv-x="534" d="M-145 -440l16 141q54 -10 127 -10q98 0 136 55t38 174v1088h190v-1071q0 -101 -16.5 -171t-55.5 -122t-106.5 -76.5t-167.5 -24.5q-68 0 -161 17zM150 1339q0 66 23.5 89.5t92.5 23.5q70 0 94.5 -23.5t24.5 -89.5t-24.5 -89t-94.5 -23q-69 0 -92.5 23t-23.5 89z" />
<glyph unicode="k" horiz-adv-x="999" d="M172 0v1511h190v-950l379 447h220l-410 -465l422 -543h-228l-383 504v-504h-190z" />
<glyph unicode="l" horiz-adv-x="534" d="M172 0v1511h190v-1511h-190z" />
<glyph unicode="m" horiz-adv-x="1785" d="M172 0v1008h158l12 -107q211 125 363 125q184 0 253 -135q112 68 201.5 101.5t177.5 33.5q149 0 220 -79.5t71 -252.5v-694h-188v662q0 116 -38.5 163t-121.5 47q-107 0 -293 -116q8 -36 8 -90v-666h-190v662q0 116 -38 163t-118 47q-110 0 -287 -112v-760h-190z" />
<glyph unicode="n" horiz-adv-x="1181" d="M172 0v1008h158l12 -107q211 125 377 125q159 0 232 -79t73 -253v-694h-188v662q0 117 -40.5 163.5t-131.5 46.5q-125 0 -302 -112v-760h-190z" />
<glyph unicode="o" horiz-adv-x="1114" d="M115 500q0 155 29.5 260.5t89 164.5t138 84t189.5 25q89 0 154.5 -14t121.5 -49t90.5 -94.5t54 -151t19.5 -217.5q0 -124 -20 -217t-56.5 -153.5t-93 -98t-123.5 -53t-155 -15.5q-89 0 -155 14t-121 50t-89.5 95.5t-53.5 151.5t-19 218zM303 506q0 -120 15.5 -197 t50 -118.5t78.5 -56.5t112 -15q53 0 90.5 9t69.5 33t51.5 67t30 110.5t10.5 163.5q0 120 -15.5 197t-50 118.5t-78.5 56.5t-112 15q-53 0 -90.5 -9t-69.5 -34t-51.5 -67.5t-30 -110t-10.5 -162.5z" />
<glyph unicode="p" horiz-adv-x="1136" d="M172 -436v1444h158l12 -105q94 61 171 92t161 31q86 0 148.5 -24.5t110 -81.5t71.5 -157.5t24 -246.5q0 -144 -34 -251t-94.5 -167.5t-134.5 -89t-163 -28.5q-118 0 -248 65l-2 -2q10 -137 10 -231v-248h-190zM362 197q117 -68 216 -68q54 0 97.5 17.5t81.5 58t59.5 118 t21.5 185.5q0 89 -9.5 153.5t-26.5 105t-44 64t-58.5 32.5t-74.5 9q-104 0 -263 -108v-567z" />
<glyph unicode="q" horiz-adv-x="1136" d="M109 492q0 116 22.5 208t61 152.5t93.5 100t116.5 56.5t132.5 17q123 0 264 -74l8 56h158v-1444h-191v293q0 118 8 235l-2 2q-85 -54 -160 -84t-157 -30q-86 0 -148.5 24.5t-110 82t-71.5 158.5t-24 247zM299 500q0 -111 13.5 -184t42.5 -112.5t66 -55t91 -15.5 q99 0 262 111v567q-120 68 -215 68q-54 0 -97.5 -17.5t-81.5 -58t-59.5 -118t-21.5 -185.5z" />
<glyph unicode="r" horiz-adv-x="696" d="M172 0v1008h158l12 -113q60 47 93 70.5t83.5 46t93.5 22.5q46 0 80 -18l-26 -174q-37 18 -84 18q-40 0 -91 -25t-129 -77v-758h-190z" />
<glyph unicode="s" horiz-adv-x="856" d="M92 16l19 142q158 -37 258 -37q233 0 233 147q0 60 -42.5 93t-186.5 90q-157 63 -215 120.5t-58 167.5q0 287 394 287q111 0 239 -33l-20 -139q-131 31 -228 31q-206 0 -206 -133q0 -51 42 -83t175 -85q86 -35 134 -60t86 -59.5t52 -77.5t14 -106q0 -301 -422 -301 q-127 0 -268 36z" />
<glyph unicode="t" horiz-adv-x="677" d="M41 864v144h152v295l188 26v-321h229v-144h-229v-596q0 -77 25.5 -108t85.5 -31q50 0 118 21l19 -140q-89 -26 -189 -26q-135 0 -191 55t-56 182v643h-152z" />
<glyph unicode="u" horiz-adv-x="1183" d="M158 313v695h190v-662q0 -118 40.5 -165.5t131.5 -47.5q119 0 301 115v760h189v-1008h-156l-12 106q-207 -126 -379 -126q-158 0 -231.5 79.5t-73.5 253.5z" />
<glyph unicode="v" horiz-adv-x="991" d="M31 1008h194l176 -539q65 -215 97 -340h4q62 232 98 340l176 539h185l-334 -1008h-262z" />
<glyph unicode="w" horiz-adv-x="1638" d="M41 1008h197l149 -539q31 -109 82 -340h2q26 128 80 340l143 539h258l148 -539q46 -176 82 -340h2q61 268 80 340l145 539h188l-284 -1008h-260l-154 539q-17 66 -80 338h-2q-40 -207 -76 -336l-149 -541h-258z" />
<glyph unicode="x" horiz-adv-x="1019" d="M20 0l359 516l-344 492h215l274 -394h2q40 66 76 119l184 275h203l-350 -496l360 -512h-223l-284 418h-3q-59 -98 -77 -125l-191 -293h-201z" />
<glyph unicode="y" horiz-adv-x="991" d="M27 1008h202l172 -512q47 -147 99 -340h2q48 182 98 340l174 512h197l-408 -1139q-69 -193 -144.5 -259.5t-225.5 -66.5q-71 0 -154 17l18 141q58 -10 117 -10q75 0 123 36.5t88 145.5l49 127h-63z" />
<glyph unicode="z" horiz-adv-x="860" d="M76 0v109l477 749h-449v150h674v-105l-479 -753h492v-150h-715z" />
<glyph unicode="{" horiz-adv-x="634" d="M55 530v142q93 39 133.5 104.5t40.5 181.5v246q0 155 67.5 231t205.5 76q33 0 73 -4v-131q-103 0 -139.5 -38.5t-36.5 -139.5v-252q0 -132 -43.5 -211t-138.5 -133q95 -54 138.5 -133t43.5 -211v-276q0 -103 36.5 -142t139.5 -39v-131q-40 -4 -73 -4q-138 0 -205.5 76 t-67.5 231v271q0 117 -40.5 182t-133.5 104z" />
<glyph unicode="|" horiz-adv-x="544" d="M180 -436v1947h185v-1947h-185z" />
<glyph unicode="}" horiz-adv-x="634" d="M59 -199q103 0 140 39t37 142v276q0 132 43.5 211t138.5 133q-95 54 -138.5 133t-43.5 211v252q0 101 -37 139.5t-140 38.5v131q36 4 74 4q138 0 204 -75.5t66 -231.5v-246q0 -115 41.5 -181t135.5 -105v-142q-94 -39 -135.5 -104t-41.5 -182v-271q0 -156 -66 -231.5 t-204 -75.5q-38 0 -74 4v131z" />
<glyph unicode="~" d="M102 928q-6 160 64.5 256t191.5 96q58 0 105.5 -21.5t78.5 -52t58.5 -61.5t59 -52.5t67.5 -21.5q53 0 85 50.5t32 148.5h139q6 -161 -64.5 -258t-191.5 -97q-58 0 -105.5 21.5t-78.5 53t-58.5 62.5t-59 52.5t-67.5 21.5q-53 0 -84.5 -50t-31.5 -148h-140z" />
<glyph unicode="&#xa1;" horiz-adv-x="585" d="M176 993q0 65 24.5 89t92.5 24t92.5 -24t24.5 -89t-24.5 -89.5t-92.5 -24.5t-92.5 24.5t-24.5 89.5zM190 -436l23 1141h160l20 -1141h-203z" />
<glyph unicode="&#xa2;" d="M154 657q0 125 28 215t82 144t121.5 82t157.5 39v182h153v-178q99 -2 234 -37l-23 -148q-128 35 -248 35q-85 0 -141.5 -14t-98 -49.5t-60.5 -99.5t-19 -162q0 -99 19 -164.5t61 -102.5t99.5 -52t142.5 -15q105 0 245 35l23 -146q-131 -34 -234 -37v-184h-153v186 q-132 12 -215 58.5t-128.5 148t-45.5 264.5z" />
<glyph unicode="&#xa3;" d="M96 0v154h119q65 113 94 205t29 194q0 9 -1 28.5t-1 28.5h-189v150h170q-7 28 -24 82.5t-26 96.5t-9 89q0 147 111 232.5t315 85.5q148 0 281 -35l-21 -144q-149 29 -256 29q-121 0 -182.5 -48.5t-61.5 -139.5q0 -53 27.5 -143.5t30.5 -104.5h397v-150h-379q4 -36 4 -53 q0 -101 -27.5 -194t-90.5 -209h569v-154h-879z" />
<glyph unicode="&#xa4;" horiz-adv-x="1265" d="M74 219l186 187q-70 108 -70 268q0 153 66 262l-180 182l108 109l178 -178q111 79 271 79q166 0 270 -79l180 178l109 -109l-180 -180q65 -117 65 -264q0 -159 -69 -271l182 -184l-109 -108l-182 182q-113 -76 -266 -76q-157 0 -264 78l-187 -184zM344 674 q0 -154 72.5 -237t216.5 -83q145 0 217 83t72 237q0 152 -72 234.5t-217 82.5q-144 0 -216.5 -82t-72.5 -235z" />
<glyph unicode="&#xa5;" d="M84 1319h201l151 -315q77 -159 115 -254h4q22 57 59 140.5t50 115.5l147 313h193l-340 -698h270v-132h-297v-161h297v-133h-297v-195h-188v195h-297v133h297v161h-297v132h270z" />
<glyph unicode="&#xa6;" horiz-adv-x="544" d="M180 334h185v-770h-185v770zM180 713v798h185v-798h-185z" />
<glyph unicode="&#xa7;" horiz-adv-x="1153" d="M123 606q0 74 29 135.5t71.5 102t108.5 82.5q-61 48 -87 99.5t-26 131.5q0 293 414 293q151 0 287 -39l-27 -141q-137 30 -260 30q-232 0 -232 -145q0 -26 4.5 -46t20 -41t33.5 -37.5t57.5 -42t77.5 -47t108 -60.5q105 -59 168 -103.5t99.5 -91t48.5 -91.5t12 -110 q0 -109 -54.5 -182.5t-156.5 -138.5q64 -51 89.5 -104t25.5 -123q0 -293 -412 -293q-142 0 -286 37l24 143q130 -31 260 -31q114 0 173 34.5t59 111.5q0 26 -4 45.5t-20 41t-33 37t-57 41.5t-77 47.5t-108 61.5q-140 78 -209.5 136t-95 114.5t-25.5 142.5zM297 618 q0 -83 50 -138.5t208 -145.5q107 -61 139 -80q81 48 121.5 99t40.5 122q0 83 -50 139t-206 144q-121 69 -141 82q-82 -50 -122 -100.5t-40 -121.5z" />
<glyph unicode="&#xa8;" horiz-adv-x="1105" d="M225 1339q0 62 24 85.5t89 23.5t89 -23.5t24 -85.5q0 -61 -24 -83.5t-89 -22.5t-89 22.5t-24 83.5zM651 1339q0 62 24 85.5t89 23.5t89 -23.5t24 -85.5q0 -61 -24 -83.5t-89 -22.5t-89 22.5t-24 83.5z" />
<glyph unicode="&#xa9;" horiz-adv-x="1902" d="M164 756q0 369 208.5 576.5t579.5 207.5q374 0 580.5 -205.5t206.5 -578.5q0 -369 -209 -577t-580 -208q-374 0 -580 206t-206 579zM309 756q0 -319 164 -490.5t479 -171.5t479 171.5t164 490.5t-163.5 490t-479.5 171t-479.5 -171t-163.5 -490zM530 752q0 138 30 234 t89 150.5t136 78.5t182 24q133 0 264 -35l-21 -117q-127 31 -235 31q-70 0 -118.5 -14.5t-88.5 -52t-60 -110t-20 -181.5q0 -110 20.5 -183.5t61.5 -112.5t90.5 -54t118.5 -15q106 0 231 33l19 -117q-152 -37 -273 -37q-84 0 -147.5 13t-117.5 46t-88.5 87t-53.5 137 t-19 195z" />
<glyph unicode="&#xaa;" horiz-adv-x="743" d="M61 899q0 246 340 246h97v82q0 108 -138 108q-101 0 -213 -28l-18 110q148 31 254 31q129 0 193.5 -51t64.5 -158v-526h-119l-8 65q-66 -43 -122 -64.5t-124 -21.5q-88 0 -147.5 53.5t-59.5 153.5zM66 451v122h589v-122h-589zM201 913q0 -110 106 -110q45 0 88.5 19 t102.5 59v161h-86q-115 0 -163 -32t-48 -97z" />
<glyph unicode="&#xab;" horiz-adv-x="1024" d="M74 502l299 463l141 -76l-231 -385l233 -387l-143 -78zM500 502l288 446l144 -76l-223 -368l223 -371l-144 -78z" />
<glyph unicode="&#xac;" d="M117 514v145h831v-407h-155v262h-676z" />
<glyph unicode="&#xad;" horiz-adv-x="909" d="M158 459v164h594v-164h-594z" />
<glyph unicode="&#xae;" horiz-adv-x="983" d="M106 1077q0 173 104.5 274t281.5 101t281 -101t104 -274t-104 -274t-281 -101t-281.5 101t-104.5 274zM205 1077q0 -141 73 -216t214 -75t213.5 75t72.5 216t-72.5 216t-213.5 75t-214 -75t-73 -216zM340 868v422h156q90 0 130 -27t40 -87q0 -112 -103 -129l111 -179 h-107l-102 170h-37v-170h-88zM428 1104h55q52 0 71 14.5t19 48.5q0 31 -16 42.5t-65 11.5h-64v-117z" />
<glyph unicode="&#xaf;" horiz-adv-x="1140" d="M295 1264v141h569v-141h-569z" />
<glyph unicode="&#xb0;" horiz-adv-x="796" d="M90 1231q0 139 85.5 218t225.5 79q141 0 223.5 -76t82.5 -215t-86 -219t-226 -80t-222.5 77t-82.5 216zM240 1235q0 -78 42 -125t117 -47t117.5 46t42.5 124t-43.5 125t-118.5 47t-116 -46t-41 -124z" />
<glyph unicode="&#xb1;" d="M109 0v143h868v-143h-868zM109 678v145h354v369h158v-369h356v-145h-356v-373h-158v373h-354z" />
<glyph unicode="&#xb2;" horiz-adv-x="583" d="M43 713v106l160 168q72 77 103.5 127t31.5 100q0 49 -30.5 76t-84.5 27q-53 0 -143 -23l-14 117q108 27 204 27q114 0 177 -51.5t63 -139.5q0 -82 -41 -148t-129 -147l-117 -116h299v-123h-479z" />
<glyph unicode="&#xb3;" horiz-adv-x="559" d="M35 717l14 112q75 -16 135 -16q152 0 152 115q0 53 -44 78.5t-165 25.5v107q98 0 146.5 28.5t48.5 75.5q0 82 -117 82q-65 0 -133 -18l-17 108q94 23 183 23q116 0 176.5 -44t60.5 -124q0 -63 -33.5 -106.5t-89.5 -65.5q63 -13 103.5 -56t40.5 -110q0 -110 -74 -171 t-211 -61q-79 0 -176 17z" />
<glyph unicode="&#xb4;" horiz-adv-x="794" d="M215 1253l270 293l119 -123l-301 -264z" />
<glyph unicode="&#xb5;" horiz-adv-x="1198" d="M172 -436v1444h190v-662q0 -117 41 -165t132 -48q119 0 301 115v760h188v-1008h-156l-12 106q-197 -124 -328 -124q-110 0 -174 67l-2 -2q10 -140 10 -235v-248h-190z" />
<glyph unicode="&#xb6;" horiz-adv-x="1150" d="M119 969q0 137 23.5 223t83 138.5t149 72.5t231.5 20h496v-104h-156v-1653h-127v1653h-155v-1653h-129v785q-125 2 -203 26.5t-127 86t-67.5 157t-18.5 248.5z" />
<glyph unicode="&#xb7;" horiz-adv-x="479" d="M117 532q0 69 25.5 94t97.5 25q73 0 97.5 -24.5t24.5 -94.5t-24.5 -94t-97.5 -24q-72 0 -97.5 24.5t-25.5 93.5z" />
<glyph unicode="&#xb8;" horiz-adv-x="595" d="M121 -436l12 96q61 -12 117 -12q121 0 121 84q0 38 -28.5 56.5t-96.5 18.5h-56l23 193h121l-12 -104q194 -6 194 -158q0 -89 -67 -140t-185 -51q-66 0 -143 17z" />
<glyph unicode="&#xb9;" horiz-adv-x="448" d="M6 1290l203 135h123v-712h-148v555l-125 -70z" />
<glyph unicode="&#xba;" horiz-adv-x="804" d="M84 1061q0 111 21 187t64 119.5t100 62t137 18.5q82 0 137.5 -17t96.5 -59t60 -116t19 -185t-20.5 -187t-62.5 -119.5t-99 -62t-138 -18.5q-82 0 -137.5 17t-97 58.5t-61 116t-19.5 185.5zM125 451v122h557v-122h-557zM231 1065q0 -108 19 -166.5t54 -79t97 -20.5 q97 0 133.5 53.5t36.5 212.5q0 110 -17 167.5t-52 79t-101 21.5q-62 0 -97 -21t-54 -80t-19 -167z" />
<glyph unicode="&#xbb;" horiz-adv-x="1024" d="M92 131l221 369l-221 370l141 78l289 -446l-289 -447zM508 115l233 385l-233 387l143 78l299 -463l-299 -463z" />
<glyph unicode="&#xbc;" horiz-adv-x="1308" d="M6 1290l203 135h123v-712h-148v555l-125 -70zM96 31l946 1431l109 -69l-946 -1432zM725 139v113l262 461h207v-451h86v-123h-86v-139h-145v139h-324zM860 262h189v328z" />
<glyph unicode="&#xbd;" horiz-adv-x="1402" d="M6 1290l203 135h123v-712h-148v555l-125 -70zM96 31l946 1431l109 -69l-946 -1432zM862 0v106l160 168q71 76 103 127t32 101q0 49 -30.5 75.5t-84.5 26.5q-57 0 -143 -22l-14 116q108 27 205 27q114 0 176.5 -51t62.5 -139q0 -82 -41 -148t-129 -147l-117 -117h299v-123 h-479z" />
<glyph unicode="&#xbe;" horiz-adv-x="1415" d="M70 717l14 112q75 -16 135 -16q152 0 152 115q0 53 -44 78.5t-165 25.5v107q98 0 146 28.5t48 75.5q0 82 -116 82q-66 0 -134 -18l-16 108q94 23 182 23q117 0 177.5 -44.5t60.5 -123.5q0 -63 -33.5 -106.5t-89.5 -65.5q62 -13 102.5 -56t40.5 -110q0 -110 -73.5 -171 t-210.5 -61q-79 0 -176 17zM205 31l946 1431l109 -69l-947 -1432zM831 139v113l263 461h206v-451h86v-123h-86v-139h-145v139h-324zM967 262h188v328z" />
<glyph unicode="&#xbf;" horiz-adv-x="661" d="M-31 -168q0 125 40.5 205t158.5 209q81 91 111.5 153t31.5 150l2 156h160l2 -154q2 -128 -26.5 -200t-131.5 -189q-93 -105 -125 -163t-32 -142q0 -164 227 -164q108 0 248 41l22 -142q-169 -45 -311 -45q-377 0 -377 285zM276 993q0 65 24.5 89t92.5 24t92.5 -24 t24.5 -89t-24.5 -89.5t-92.5 -24.5t-92.5 24.5t-24.5 89.5z" />
<glyph unicode="&#xc0;" horiz-adv-x="1245" d="M29 0l452 1423h279l457 -1423h-203l-123 387h-549l-123 -387h-190zM334 1710l69 150l381 -191l-53 -115zM379 537h475l-119 374q-54 168 -119 385h-2q-70 -237 -118 -389z" />
<glyph unicode="&#xc1;" horiz-adv-x="1245" d="M29 0l452 1423h279l457 -1423h-203l-123 387h-549l-123 -387h-190zM379 537h475l-119 374q-54 168 -119 385h-2q-70 -237 -118 -389zM449 1669l380 191l70 -150l-397 -156z" />
<glyph unicode="&#xc2;" horiz-adv-x="1245" d="M29 0l452 1423h279l457 -1423h-203l-123 387h-549l-123 -387h-190zM305 1673l313 174l308 -174l-60 -112l-254 125l-247 -125zM379 537h475l-119 374q-54 168 -119 385h-2q-70 -237 -118 -389z" />
<glyph unicode="&#xc3;" horiz-adv-x="1245" d="M29 0l452 1423h279l457 -1423h-203l-123 387h-549l-123 -387h-190zM270 1667q82 127 226 127q59 0 137 -37t117 -37q70 0 129 72l84 -82q-83 -125 -226 -125q-59 0 -137 36t-117 36q-72 0 -129 -70zM379 537h475l-119 374q-54 168 -119 385h-2q-70 -237 -118 -389z" />
<glyph unicode="&#xc4;" horiz-adv-x="1245" d="M29 0l452 1423h279l457 -1423h-203l-123 387h-549l-123 -387h-190zM260 1694q0 60 23.5 83t87.5 23q65 0 88.5 -22.5t23.5 -83.5t-23.5 -84t-88.5 -23q-64 0 -87.5 23t-23.5 84zM379 537h475l-119 374q-54 168 -119 385h-2q-70 -237 -118 -389zM756 1694q0 61 23.5 83.5 t88.5 22.5t88 -22.5t23 -83.5t-23 -84t-88 -23t-88.5 23t-23.5 84z" />
<glyph unicode="&#xc5;" horiz-adv-x="1245" d="M29 0l452 1423h279l457 -1423h-203l-123 387h-549l-123 -387h-190zM379 537h475l-119 374q-54 168 -119 385h-2q-70 -237 -118 -389zM389 1706q0 93 63.5 151t163.5 58t164 -58.5t64 -150.5q0 -93 -64 -152t-164 -59t-163.5 58.5t-63.5 152.5zM506 1706q0 -50 29 -79.5 t81 -29.5t81.5 29.5t29.5 79.5q0 48 -29.5 77t-81.5 29t-81 -29t-29 -77z" />
<glyph unicode="&#xc6;" horiz-adv-x="1740" d="M-70 0l813 1423h893v-151h-583v-463h540v-150h-540v-507h583v-152h-776v387h-510l-219 -387h-201zM424 537h436v751h-4z" />
<glyph unicode="&#xc7;" horiz-adv-x="1069" d="M127 707q0 178 24.5 307.5t69 212t116.5 132t156.5 68.5t198.5 19q166 0 309 -43l-22 -148q-134 39 -277 39q-82 0 -138 -12.5t-105.5 -48.5t-78.5 -100t-45 -167.5t-16 -250.5q0 -150 15.5 -254t43 -169t77 -101t106.5 -49t141 -13q122 0 277 43l22 -147 q-184 -48 -311 -48h-31l-8 -81q205 -6 205 -158q0 -91 -69 -142t-191 -51q-70 0 -147 17l12 98q61 -12 121 -12q127 0 127 84q0 38 -29 55.5t-96 17.5h-66l19 179q-85 12 -147 38.5t-113.5 78t-83.5 131.5t-49 198t-17 277z" />
<glyph unicode="&#xc8;" horiz-adv-x="1058" d="M180 0v1423h774v-151h-581v-463h538v-150h-538v-507h581v-152h-774zM274 1710l70 150l381 -191l-53 -115z" />
<glyph unicode="&#xc9;" horiz-adv-x="1058" d="M180 0v1423h774v-151h-581v-463h538v-150h-538v-507h581v-152h-774zM426 1669l381 191l70 -150l-398 -156z" />
<glyph unicode="&#xca;" horiz-adv-x="1058" d="M180 0v1423h774v-151h-581v-463h538v-150h-538v-507h581v-152h-774zM262 1673l313 174l308 -174l-60 -112l-254 125l-247 -125z" />
<glyph unicode="&#xcb;" horiz-adv-x="1058" d="M180 0v1423h774v-151h-581v-463h538v-150h-538v-507h581v-152h-774zM205 1694q0 61 23 83.5t87 22.5q65 0 89 -22.5t24 -83.5t-24 -84t-89 -23q-64 0 -87 23t-23 84zM700 1694q0 61 24 83.5t89 22.5t88 -22.5t23 -83.5t-23 -84t-88 -23t-89 23t-24 84z" />
<glyph unicode="&#xcc;" horiz-adv-x="552" d="M14 1710l70 150l381 -191l-53 -115zM180 0v1423h193v-1423h-193z" />
<glyph unicode="&#xcd;" horiz-adv-x="552" d="M92 1669l381 191l70 -150l-398 -156zM180 0v1423h193v-1423h-193z" />
<glyph unicode="&#xce;" horiz-adv-x="552" d="M-35 1673l314 174l307 -174l-60 -112l-254 125l-247 -125zM180 0v1423h193v-1423h-193z" />
<glyph unicode="&#xcf;" horiz-adv-x="552" d="M-37 1694q0 61 24 83.5t89 22.5q64 0 87 -22.5t23 -83.5t-23 -84t-87 -23q-65 0 -89 23t-24 84zM180 0v1423h193v-1423h-193zM369 1694q0 61 23 83.5t87 22.5q65 0 89 -22.5t24 -83.5t-24 -84t-89 -23q-64 0 -87 23t-23 84z" />
<glyph unicode="&#xd0;" horiz-adv-x="1363" d="M31 676v145h178v602h446q110 0 189.5 -11.5t148 -41t112.5 -79.5t75.5 -128.5t45 -186t13.5 -253.5q0 -173 -22.5 -296t-66 -206.5t-116.5 -132t-166 -68.5t-223 -20h-436v676h-178zM401 152h246q75 0 129 8.5t101 32t77 63t52 102.5t31.5 150.5t9.5 206.5 q0 143 -14.5 240.5t-42 160.5t-78 97t-111.5 46.5t-154 12.5h-246v-451h334v-145h-334v-524z" />
<glyph unicode="&#xd1;" horiz-adv-x="1415" d="M180 0v1423h246l461 -835q111 -208 190 -379h4q-16 216 -16 379v835h170v-1423h-250l-457 836q-115 214 -190 378h-4q16 -266 16 -378v-836h-170zM356 1667q82 127 226 127q59 0 137 -37t117 -37q70 0 129 72l84 -82q-83 -125 -226 -125q-59 0 -137 36t-117 36 q-72 0 -129 -70z" />
<glyph unicode="&#xd2;" horiz-adv-x="1370" d="M127 705q0 182 24.5 313t68 214.5t115.5 132.5t156.5 68t200.5 19t198 -18t152 -65t111.5 -129.5t64.5 -212t23 -310.5t-24.5 -311.5t-68 -214.5t-115.5 -133t-156.5 -68t-200.5 -19t-198 18t-152 65.5t-111.5 129.5t-64.5 211t-23 310zM319 713q0 -148 15 -252 t42.5 -170t74 -103t101 -51t132.5 -14t132 13.5t101 50t74.5 102t42.5 169t15 251.5t-15 252.5t-42.5 170.5t-74.5 103.5t-101 51t-132 13.5t-132 -13t-101 -50t-74.5 -102.5t-42.5 -169.5t-15 -252zM379 1710l70 150l380 -191l-53 -115z" />
<glyph unicode="&#xd3;" horiz-adv-x="1370" d="M127 705q0 182 24.5 313t68 214.5t115.5 132.5t156.5 68t200.5 19t198 -18t152 -65t111.5 -129.5t64.5 -212t23 -310.5t-24.5 -311.5t-68 -214.5t-115.5 -133t-156.5 -68t-200.5 -19t-198 18t-152 65.5t-111.5 129.5t-64.5 211t-23 310zM319 713q0 -148 15 -252 t42.5 -170t74 -103t101 -51t132.5 -14t132 13.5t101 50t74.5 102t42.5 169t15 251.5t-15 252.5t-42.5 170.5t-74.5 103.5t-101 51t-132 13.5t-132 -13t-101 -50t-74.5 -102.5t-42.5 -169.5t-15 -252zM553 1669l381 191l70 -150l-398 -156z" />
<glyph unicode="&#xd4;" horiz-adv-x="1370" d="M127 705q0 182 24.5 313t68 214.5t115.5 132.5t156.5 68t200.5 19t198 -18t152 -65t111.5 -129.5t64.5 -212t23 -310.5t-24.5 -311.5t-68 -214.5t-115.5 -133t-156.5 -68t-200.5 -19t-198 18t-152 65.5t-111.5 129.5t-64.5 211t-23 310zM319 713q0 -148 15 -252 t42.5 -170t74 -103t101 -51t132.5 -14t132 13.5t101 50t74.5 102t42.5 169t15 251.5t-15 252.5t-42.5 170.5t-74.5 103.5t-101 51t-132 13.5t-132 -13t-101 -50t-74.5 -102.5t-42.5 -169.5t-15 -252zM373 1673l313 174l307 -174l-59 -112l-254 125l-248 -125z" />
<glyph unicode="&#xd5;" horiz-adv-x="1370" d="M127 705q0 182 24.5 313t68 214.5t115.5 132.5t156.5 68t200.5 19t198 -18t152 -65t111.5 -129.5t64.5 -212t23 -310.5t-24.5 -311.5t-68 -214.5t-115.5 -133t-156.5 -68t-200.5 -19t-198 18t-152 65.5t-111.5 129.5t-64.5 211t-23 310zM319 713q0 -148 15 -252 t42.5 -170t74 -103t101 -51t132.5 -14t132 13.5t101 50t74.5 102t42.5 169t15 251.5t-15 252.5t-42.5 170.5t-74.5 103.5t-101 51t-132 13.5t-132 -13t-101 -50t-74.5 -102.5t-42.5 -169.5t-15 -252zM328 1667q82 127 225 127q59 0 137 -37t117 -37q70 0 129 72l84 -82 q-83 -125 -225 -125q-59 0 -137 36t-117 36q-72 0 -129 -70z" />
<glyph unicode="&#xd6;" horiz-adv-x="1370" d="M127 705q0 182 24.5 313t68 214.5t115.5 132.5t156.5 68t200.5 19t198 -18t152 -65t111.5 -129.5t64.5 -212t23 -310.5t-24.5 -311.5t-68 -214.5t-115.5 -133t-156.5 -68t-200.5 -19t-198 18t-152 65.5t-111.5 129.5t-64.5 211t-23 310zM319 713q0 -148 15 -252 t42.5 -170t74 -103t101 -51t132.5 -14t132 13.5t101 50t74.5 102t42.5 169t15 251.5t-15 252.5t-42.5 170.5t-74.5 103.5t-101 51t-132 13.5t-132 -13t-101 -50t-74.5 -102.5t-42.5 -169.5t-15 -252zM326 1694q0 61 23 83.5t87 22.5q65 0 89 -22.5t24 -83.5t-24 -84t-89 -23 q-64 0 -87 23t-23 84zM821 1694q0 61 24 83.5t89 22.5t87.5 -22.5t22.5 -83.5t-22.5 -84t-87.5 -23t-89 23t-24 84z" />
<glyph unicode="&#xd7;" d="M109 260l329 328l-329 323l106 107l326 -328l327 330l107 -107l-330 -325l332 -328l-107 -104l-327 327l-330 -329z" />
<glyph unicode="&#xd8;" horiz-adv-x="1388" d="M127 705q0 182 24.5 313t69 214.5t117.5 132.5t158.5 68t203.5 19q152 0 258 -45l97 199l135 -54l-103 -204q89 -83 132 -229.5t43 -401.5q0 -130 -12.5 -233.5t-36 -181t-61 -135t-83 -95t-106.5 -60t-127.5 -32t-149.5 -9.5q-168 0 -264 52l-98 -197l-134 53l103 205 q-36 35 -63 78.5t-52 114t-38 178.5t-13 250zM313 713q0 -297 70 -441l510 990q-70 47 -199 47q-82 0 -138.5 -14t-105.5 -51.5t-77.5 -104t-44 -171.5t-15.5 -255zM483 166q77 -51 211 -51q81 0 137.5 13.5t105.5 51t77.5 103.5t44.5 171.5t16 254.5q0 319 -78 452z" />
<glyph unicode="&#xd9;" horiz-adv-x="1335" d="M147 543v880h191v-874q0 -92 8.5 -157t30.5 -118.5t59.5 -85t95 -48.5t138.5 -17q100 0 164.5 25t100 81t49 131t13.5 191v872h193v-864q0 -153 -26.5 -259.5t-87 -182t-163 -111t-251.5 -35.5q-148 0 -247 33t-158.5 105.5t-84.5 176.5t-25 257zM360 1710l70 150 l381 -191l-53 -115z" />
<glyph unicode="&#xda;" horiz-adv-x="1335" d="M147 543v880h191v-874q0 -92 8.5 -157t30.5 -118.5t59.5 -85t95 -48.5t138.5 -17q100 0 164.5 25t100 81t49 131t13.5 191v872h193v-864q0 -153 -26.5 -259.5t-87 -182t-163 -111t-251.5 -35.5q-148 0 -247 33t-158.5 105.5t-84.5 176.5t-25 257zM530 1669l381 191 l70 -150l-397 -156z" />
<glyph unicode="&#xdb;" horiz-adv-x="1335" d="M147 543v880h191v-874q0 -92 8.5 -157t30.5 -118.5t59.5 -85t95 -48.5t138.5 -17q100 0 164.5 25t100 81t49 131t13.5 191v872h193v-864q0 -153 -26.5 -259.5t-87 -182t-163 -111t-251.5 -35.5q-148 0 -247 33t-158.5 105.5t-84.5 176.5t-25 257zM356 1673l314 174 l307 -174l-59 -112l-254 125l-248 -125z" />
<glyph unicode="&#xdc;" horiz-adv-x="1335" d="M147 543v880h191v-874q0 -92 8.5 -157t30.5 -118.5t59.5 -85t95 -48.5t138.5 -17q100 0 164.5 25t100 81t49 131t13.5 191v872h193v-864q0 -153 -26.5 -259.5t-87 -182t-163 -111t-251.5 -35.5q-148 0 -247 33t-158.5 105.5t-84.5 176.5t-25 257zM305 1694q0 60 23.5 83 t87.5 23q65 0 88.5 -22.5t23.5 -83.5t-23.5 -84t-88.5 -23q-64 0 -87.5 23t-23.5 84zM801 1694q0 61 23.5 83.5t88.5 22.5t88 -22.5t23 -83.5t-23 -84t-88 -23t-88.5 23t-23.5 84z" />
<glyph unicode="&#xdd;" horiz-adv-x="1099" d="M4 1423h199l221 -413q53 -96 131 -271h6q66 160 125 273l215 411h197l-455 -872v-551h-190v553zM399 1669l381 191l70 -150l-397 -156z" />
<glyph unicode="&#xde;" horiz-adv-x="1107" d="M180 0v1423h193v-290h202q130 0 213.5 -16t143.5 -59t86 -118.5t26 -194.5q0 -231 -117 -332.5t-374 -101.5h-180v-311h-193zM373 461h188q154 0 223.5 64t69.5 212q0 147 -62.5 197.5t-224.5 50.5h-194v-524z" />
<glyph unicode="&#xdf;" horiz-adv-x="1150" d="M172 0v1161q0 200 100.5 289.5t309.5 89.5q183 0 272.5 -69t89.5 -197q0 -82 -29 -139t-104 -148q-8 -9 -27 -29.5t-25.5 -28.5t-20 -24t-18 -25.5t-11.5 -24t-9 -28.5t-2 -30q0 -50 36 -85t147 -104q72 -46 112 -77t70.5 -68.5t41.5 -78t11 -97.5q0 -144 -99.5 -224.5 t-287.5 -80.5q-122 0 -237 32l20 138q113 -29 221 -29q98 0 148.5 40.5t50.5 110.5q0 63 -37.5 104t-163.5 118q-123 75 -168 129.5t-45 146.5q0 69 33 128.5t108 152.5q55 63 77 104t22 96q0 67 -47.5 103.5t-141.5 36.5q-109 0 -158 -51.5t-49 -172.5v-1169h-190z" />
<glyph unicode="&#xe0;" horiz-adv-x="1032" d="M96 270q0 165 115.5 248.5t380.5 83.5h92v103q0 90 -46 133t-146 43q-105 0 -283 -37l-19 141q179 41 334 41q187 0 268.5 -75t81.5 -236v-715h-155l-12 94q-63 -38 -103.5 -58.5t-101 -38t-121.5 -17.5q-129 0 -207 74t-78 216zM268 285q0 -83 41 -122.5t111 -39.5 q63 0 122.5 25t141.5 79v248h-82q-127 0 -201 -21.5t-103.5 -62t-29.5 -106.5zM272 1423l119 123l271 -293l-89 -94z" />
<glyph unicode="&#xe1;" horiz-adv-x="1032" d="M96 270q0 165 115.5 248.5t380.5 83.5h92v103q0 90 -46 133t-146 43q-105 0 -283 -37l-19 141q179 41 334 41q187 0 268.5 -75t81.5 -236v-715h-155l-12 94q-63 -38 -103.5 -58.5t-101 -38t-121.5 -17.5q-129 0 -207 74t-78 216zM268 285q0 -83 41 -122.5t111 -39.5 q63 0 122.5 25t141.5 79v248h-82q-127 0 -201 -21.5t-103.5 -62t-29.5 -106.5zM408 1253l270 293l119 -123l-301 -264z" />
<glyph unicode="&#xe2;" horiz-adv-x="1032" d="M96 270q0 165 115.5 248.5t380.5 83.5h92v103q0 90 -46 133t-146 43q-105 0 -283 -37l-19 141q179 41 334 41q187 0 268.5 -75t81.5 -236v-715h-155l-12 94q-63 -38 -103.5 -58.5t-101 -38t-121.5 -17.5q-129 0 -207 74t-78 216zM227 1264l297 266l297 -264l-84 -103 l-217 180l-211 -178zM268 285q0 -83 41 -122.5t111 -39.5q63 0 122.5 25t141.5 79v248h-82q-127 0 -201 -21.5t-103.5 -62t-29.5 -106.5z" />
<glyph unicode="&#xe3;" horiz-adv-x="1032" d="M96 270q0 165 115.5 248.5t380.5 83.5h92v103q0 90 -46 133t-146 43q-105 0 -283 -37l-19 141q179 41 334 41q187 0 268.5 -75t81.5 -236v-715h-155l-12 94q-63 -38 -103.5 -58.5t-101 -38t-121.5 -17.5q-129 0 -207 74t-78 216zM199 1284q34 74 88 122t129 48 q46 0 91.5 -26t84.5 -52t70 -26q34 0 58.5 25.5t47.5 72.5l96 -66q-75 -170 -219 -170q-36 0 -72 16.5t-61 36t-55 36t-54 16.5q-35 0 -60 -25.5t-48 -74.5zM268 285q0 -83 41 -122.5t111 -39.5q63 0 122.5 25t141.5 79v248h-82q-127 0 -201 -21.5t-103.5 -62t-29.5 -106.5z " />
<glyph unicode="&#xe4;" horiz-adv-x="1032" d="M96 270q0 165 115.5 248.5t380.5 83.5h92v103q0 90 -46 133t-146 43q-105 0 -283 -37l-19 141q179 41 334 41q187 0 268.5 -75t81.5 -236v-715h-155l-12 94q-63 -38 -103.5 -58.5t-101 -38t-121.5 -17.5q-129 0 -207 74t-78 216zM193 1339q0 62 23.5 85.5t88.5 23.5 t89 -23.5t24 -85.5q0 -61 -24 -83.5t-89 -22.5t-88.5 22.5t-23.5 83.5zM268 285q0 -83 41 -122.5t111 -39.5q63 0 122.5 25t141.5 79v248h-82q-127 0 -201 -21.5t-103.5 -62t-29.5 -106.5zM618 1339q0 62 24 85.5t89 23.5t89 -23.5t24 -85.5q0 -61 -24 -83.5t-89 -22.5 t-89 22.5t-24 83.5z" />
<glyph unicode="&#xe5;" horiz-adv-x="1032" d="M96 270q0 165 115.5 248.5t380.5 83.5h92v103q0 90 -46 133t-146 43q-105 0 -283 -37l-19 141q179 41 334 41q187 0 268.5 -75t81.5 -236v-715h-155l-12 94q-63 -38 -103.5 -58.5t-101 -38t-121.5 -17.5q-129 0 -207 74t-78 216zM268 285q0 -83 41 -122.5t111 -39.5 q63 0 122.5 25t141.5 79v248h-82q-127 0 -201 -21.5t-103.5 -62t-29.5 -106.5zM309 1354q0 95 63 156t160 61t159.5 -61.5t62.5 -155.5q0 -96 -62.5 -157.5t-159.5 -61.5t-160 61.5t-63 157.5zM426 1354q0 -55 28 -86t78 -31q51 0 79 31.5t28 85.5q0 53 -28 83.5t-79 30.5 q-50 0 -78 -30.5t-28 -83.5z" />
<glyph unicode="&#xe6;" horiz-adv-x="1605" d="M92 268q0 82 26 142t84 103.5t154 65t232 21.5h92v105q0 90 -46.5 133t-146.5 43q-104 0 -282 -37l-19 141q174 41 332 41q217 0 279 -139q42 68 113.5 107.5t203.5 39.5q103 0 171 -20.5t116.5 -73t70 -142.5t21.5 -229q0 -53 -6 -108h-619q1 -73 7.5 -125t21.5 -90 t35 -60.5t53 -36t69.5 -18t90.5 -4.5q115 0 280 35l19 -142q-166 -40 -334 -40q-105 0 -177 20t-110 50.5t-71 80.5q-100 -82 -185.5 -116.5t-191.5 -34.5q-128 0 -205.5 73.5t-77.5 214.5zM264 285q0 -83 40 -122.5t110 -39.5q139 0 266 119v231h-84q-186 0 -259 -44.5 t-73 -143.5zM870 590h449q-1 122 -24.5 188t-67 89.5t-121.5 23.5q-58 0 -97.5 -13t-71 -46t-48 -92.5t-19.5 -149.5z" />
<glyph unicode="&#xe7;" horiz-adv-x="862" d="M115 500q0 122 21 214t57.5 151t92.5 95.5t119.5 51t145.5 14.5q108 0 244 -33l-19 -141q-110 29 -213 29q-64 0 -108 -14.5t-80.5 -54t-54 -115.5t-17.5 -193q0 -116 15 -190t49 -115t80 -56.5t118 -15.5q88 0 205 31l16 -142q-133 -36 -239 -36h-19l-10 -84 q195 -6 195 -158q0 -90 -66.5 -140.5t-185.5 -50.5q-65 0 -142 17l13 96q61 -12 117 -12q118 0 118 84q0 38 -28 56.5t-95 18.5h-55l19 183q-55 10 -97 28.5t-80 55t-62.5 91t-39 139t-14.5 196.5z" />
<glyph unicode="&#xe8;" horiz-adv-x="1040" d="M115 500q0 154 30 260t89 165t135 84t180 25q103 0 171 -20.5t116.5 -73t70 -142.5t21.5 -229q0 -28 -4 -110h-621q1 -72 9 -125t24.5 -89.5t38 -59.5t55 -36t69.5 -17.5t87 -4.5q108 0 276 35l17 -142q-166 -40 -328 -40q-87 0 -150.5 12t-120 45.5t-91 91t-54.5 150 t-20 221.5zM268 1423l119 123l270 -293l-88 -94zM305 586h449q-1 124 -24.5 190.5t-67 90.5t-121.5 24q-57 0 -97.5 -13.5t-71.5 -47t-47.5 -94t-19.5 -150.5z" />
<glyph unicode="&#xe9;" horiz-adv-x="1040" d="M115 500q0 154 30 260t89 165t135 84t180 25q103 0 171 -20.5t116.5 -73t70 -142.5t21.5 -229q0 -28 -4 -110h-621q1 -72 9 -125t24.5 -89.5t38 -59.5t55 -36t69.5 -17.5t87 -4.5q108 0 276 35l17 -142q-166 -40 -328 -40q-87 0 -150.5 12t-120 45.5t-91 91t-54.5 150 t-20 221.5zM305 586h449q-1 124 -24.5 190.5t-67 90.5t-121.5 24q-57 0 -97.5 -13.5t-71.5 -47t-47.5 -94t-19.5 -150.5zM416 1253l270 293l119 -123l-301 -264z" />
<glyph unicode="&#xea;" horiz-adv-x="1040" d="M115 500q0 154 30 260t89 165t135 84t180 25q103 0 171 -20.5t116.5 -73t70 -142.5t21.5 -229q0 -28 -4 -110h-621q1 -72 9 -125t24.5 -89.5t38 -59.5t55 -36t69.5 -17.5t87 -4.5q108 0 276 35l17 -142q-166 -40 -328 -40q-87 0 -150.5 12t-120 45.5t-91 91t-54.5 150 t-20 221.5zM231 1264l297 266l297 -264l-84 -103l-217 180l-211 -178zM305 586h449q-1 124 -24.5 190.5t-67 90.5t-121.5 24q-57 0 -97.5 -13.5t-71.5 -47t-47.5 -94t-19.5 -150.5z" />
<glyph unicode="&#xeb;" horiz-adv-x="1040" d="M115 500q0 154 30 260t89 165t135 84t180 25q103 0 171 -20.5t116.5 -73t70 -142.5t21.5 -229q0 -28 -4 -110h-621q1 -72 9 -125t24.5 -89.5t38 -59.5t55 -36t69.5 -17.5t87 -4.5q108 0 276 35l17 -142q-166 -40 -328 -40q-87 0 -150.5 12t-120 45.5t-91 91t-54.5 150 t-20 221.5zM201 1339q0 62 23.5 85.5t88.5 23.5t89 -23.5t24 -85.5q0 -61 -24 -83.5t-89 -22.5t-88.5 22.5t-23.5 83.5zM305 586h449q-1 124 -24.5 190.5t-67 90.5t-121.5 24q-57 0 -97.5 -13.5t-71.5 -47t-47.5 -94t-19.5 -150.5zM627 1339q0 62 23.5 85.5t88.5 23.5 t89 -23.5t24 -85.5q0 -61 -24 -83.5t-89 -22.5t-88.5 22.5t-23.5 83.5z" />
<glyph unicode="&#xec;" horiz-adv-x="534" d="M37 1423l119 123l270 -293l-88 -94zM172 0v1008h190v-1008h-190z" />
<glyph unicode="&#xed;" horiz-adv-x="534" d="M109 1253l270 293l119 -123l-301 -264zM172 0v1008h190v-1008h-190z" />
<glyph unicode="&#xee;" horiz-adv-x="534" d="M-31 1264l297 266l297 -264l-84 -103l-217 180l-211 -178zM172 0v1008h190v-1008h-190z" />
<glyph unicode="&#xef;" horiz-adv-x="534" d="M-25 1339q0 61 24 84t89 23q64 0 87.5 -23t23.5 -84q0 -60 -23.5 -82t-87.5 -22q-65 0 -89 22.5t-24 81.5zM172 0v1008h190v-1008h-190zM340 1339q0 61 23.5 84t87.5 23q65 0 88.5 -23t23.5 -84q0 -60 -23 -82t-89 -22q-64 0 -87.5 22.5t-23.5 81.5z" />
<glyph unicode="&#xf0;" horiz-adv-x="1097" d="M115 496q0 274 102 395t295 121q130 0 229 -54l2 3q-57 152 -141 274l-196 -105l-78 113l196 105q-59 73 -110 127l155 79q77 -81 113 -129l192 105l80 -113l-194 -104q109 -165 172 -371.5t63 -417.5q0 -155 -29 -263t-87.5 -170.5t-137.5 -90t-188 -27.5q-88 0 -154 15 t-121 51t-90 95.5t-54 149.5t-19 212zM303 498q0 -115 16 -190t50.5 -116t79.5 -57t112 -16q64 0 108 16.5t77.5 58.5t49 117.5t15.5 188.5q0 164 -37 299q-105 65 -229 65q-60 0 -102 -16t-75 -56t-49 -113t-16 -181z" />
<glyph unicode="&#xf1;" horiz-adv-x="1181" d="M172 0v1008h158l12 -107q211 125 377 125q159 0 232 -79t73 -253v-694h-188v662q0 117 -40.5 163.5t-131.5 46.5q-125 0 -302 -112v-760h-190zM262 1284q34 74 88 122t129 48q46 0 91.5 -26t84.5 -52t70 -26q34 0 58.5 25.5t47.5 72.5l97 -66q-75 -170 -219 -170 q-36 0 -72 16.5t-61 36t-55 36t-54 16.5q-62 0 -109 -100z" />
<glyph unicode="&#xf2;" horiz-adv-x="1114" d="M115 500q0 155 29.5 260.5t89 164.5t138 84t189.5 25q89 0 154.5 -14t121.5 -49t90.5 -94.5t54 -151t19.5 -217.5q0 -124 -20 -217t-56.5 -153.5t-93 -98t-123.5 -53t-155 -15.5q-89 0 -155 14t-121 50t-89.5 95.5t-53.5 151.5t-19 218zM287 1423l119 123l270 -293 l-88 -94zM303 506q0 -120 15.5 -197t50 -118.5t78.5 -56.5t112 -15q53 0 90.5 9t69.5 33t51.5 67t30 110.5t10.5 163.5q0 120 -15.5 197t-50 118.5t-78.5 56.5t-112 15q-53 0 -90.5 -9t-69.5 -34t-51.5 -67.5t-30 -110t-10.5 -162.5z" />
<glyph unicode="&#xf3;" horiz-adv-x="1114" d="M115 500q0 155 29.5 260.5t89 164.5t138 84t189.5 25q89 0 154.5 -14t121.5 -49t90.5 -94.5t54 -151t19.5 -217.5q0 -124 -20 -217t-56.5 -153.5t-93 -98t-123.5 -53t-155 -15.5q-89 0 -155 14t-121 50t-89.5 95.5t-53.5 151.5t-19 218zM303 506q0 -120 15.5 -197 t50 -118.5t78.5 -56.5t112 -15q53 0 90.5 9t69.5 33t51.5 67t30 110.5t10.5 163.5q0 120 -15.5 197t-50 118.5t-78.5 56.5t-112 15q-53 0 -90.5 -9t-69.5 -34t-51.5 -67.5t-30 -110t-10.5 -162.5zM434 1253l271 293l118 -123l-301 -264z" />
<glyph unicode="&#xf4;" horiz-adv-x="1114" d="M115 500q0 155 29.5 260.5t89 164.5t138 84t189.5 25q89 0 154.5 -14t121.5 -49t90.5 -94.5t54 -151t19.5 -217.5q0 -124 -20 -217t-56.5 -153.5t-93 -98t-123.5 -53t-155 -15.5q-89 0 -155 14t-121 50t-89.5 95.5t-53.5 151.5t-19 218zM258 1264l297 266l297 -264 l-84 -103l-217 180l-211 -178zM303 506q0 -120 15.5 -197t50 -118.5t78.5 -56.5t112 -15q53 0 90.5 9t69.5 33t51.5 67t30 110.5t10.5 163.5q0 120 -15.5 197t-50 118.5t-78.5 56.5t-112 15q-53 0 -90.5 -9t-69.5 -34t-51.5 -67.5t-30 -110t-10.5 -162.5z" />
<glyph unicode="&#xf5;" horiz-adv-x="1114" d="M115 500q0 155 29.5 260.5t89 164.5t138 84t189.5 25q89 0 154.5 -14t121.5 -49t90.5 -94.5t54 -151t19.5 -217.5q0 -124 -20 -217t-56.5 -153.5t-93 -98t-123.5 -53t-155 -15.5q-89 0 -155 14t-121 50t-89.5 95.5t-53.5 151.5t-19 218zM213 1284q34 74 88 122t129 48 q46 0 91.5 -26t84.5 -52t70 -26q34 0 58.5 25.5t47.5 72.5l97 -66q-33 -75 -88 -122.5t-132 -47.5q-36 0 -72 16.5t-60.5 36t-54.5 36t-54 16.5q-62 0 -109 -100zM303 506q0 -120 15.5 -197t50 -118.5t78.5 -56.5t112 -15q53 0 90.5 9t69.5 33t51.5 67t30 110.5t10.5 163.5 q0 120 -15.5 197t-50 118.5t-78.5 56.5t-112 15q-53 0 -90.5 -9t-69.5 -34t-51.5 -67.5t-30 -110t-10.5 -162.5z" />
<glyph unicode="&#xf6;" horiz-adv-x="1114" d="M115 500q0 155 29.5 260.5t89 164.5t138 84t189.5 25q89 0 154.5 -14t121.5 -49t90.5 -94.5t54 -151t19.5 -217.5q0 -124 -20 -217t-56.5 -153.5t-93 -98t-123.5 -53t-155 -15.5q-89 0 -155 14t-121 50t-89.5 95.5t-53.5 151.5t-19 218zM229 1339q0 62 24 85.5t89 23.5 t89 -23.5t24 -85.5q0 -61 -24 -83.5t-89 -22.5t-89 22.5t-24 83.5zM303 506q0 -120 15.5 -197t50 -118.5t78.5 -56.5t112 -15q53 0 90.5 9t69.5 33t51.5 67t30 110.5t10.5 163.5q0 120 -15.5 197t-50 118.5t-78.5 56.5t-112 15q-53 0 -90.5 -9t-69.5 -34t-51.5 -67.5 t-30 -110t-10.5 -162.5zM655 1339q0 62 24 85.5t89 23.5t89 -23.5t24 -85.5q0 -61 -24 -83.5t-89 -22.5t-89 22.5t-24 83.5z" />
<glyph unicode="&#xf7;" d="M88 514v145h909v-145h-909zM426 270q0 65 24 88t93 23q68 0 91 -22.5t23 -88.5t-23 -88t-91 -22q-69 0 -93 22t-24 88zM426 905q0 65 24 88t93 23q67 0 90.5 -23t23.5 -88q0 -66 -23.5 -89t-90.5 -23q-69 0 -93 23t-24 89z" />
<glyph unicode="&#xf8;" horiz-adv-x="1132" d="M115 500q0 124 20.5 216.5t57.5 153t94.5 97.5t125 52t156.5 15q117 0 185 -30l80 157l124 -53l-79 -156q67 -62 103 -164t36 -280q0 -124 -21 -217t-58 -153.5t-95 -98t-126.5 -53t-156.5 -15.5q-110 0 -182 33l-90 -174l-123 53l88 172q-64 59 -101.5 156.5 t-37.5 288.5zM283 506q0 -191 51 -295l360 663q-47 29 -133 29q-57 0 -97 -9t-76 -34.5t-58 -69.5t-34.5 -114.5t-12.5 -169.5zM436 133q45 -29 135 -29q71 0 118.5 15.5t86 57.5t56.5 122t18 203q0 190 -51 295z" />
<glyph unicode="&#xf9;" horiz-adv-x="1183" d="M158 313v695h190v-662q0 -118 40.5 -165.5t131.5 -47.5q119 0 301 115v760h189v-1008h-156l-12 106q-207 -126 -379 -126q-158 0 -231.5 79.5t-73.5 253.5zM326 1423l118 123l271 -293l-88 -94z" />
<glyph unicode="&#xfa;" horiz-adv-x="1183" d="M158 313v695h190v-662q0 -118 40.5 -165.5t131.5 -47.5q119 0 301 115v760h189v-1008h-156l-12 106q-207 -126 -379 -126q-158 0 -231.5 79.5t-73.5 253.5zM481 1253l271 293l118 -123l-301 -264z" />
<glyph unicode="&#xfb;" horiz-adv-x="1183" d="M158 313v695h190v-662q0 -118 40.5 -165.5t131.5 -47.5q119 0 301 115v760h189v-1008h-156l-12 106q-207 -126 -379 -126q-158 0 -231.5 79.5t-73.5 253.5zM285 1264l297 266l297 -264l-84 -103l-217 180l-211 -178z" />
<glyph unicode="&#xfc;" horiz-adv-x="1183" d="M158 313v695h190v-662q0 -118 40.5 -165.5t131.5 -47.5q119 0 301 115v760h189v-1008h-156l-12 106q-207 -126 -379 -126q-158 0 -231.5 79.5t-73.5 253.5zM262 1339q0 62 24 85.5t89 23.5t88.5 -23.5t23.5 -85.5q0 -61 -23.5 -83.5t-88.5 -22.5t-89 22.5t-24 83.5z M688 1339q0 62 24 85.5t89 23.5t88.5 -23.5t23.5 -85.5q0 -61 -23.5 -83.5t-88.5 -22.5t-89 22.5t-24 83.5z" />
<glyph unicode="&#xfd;" horiz-adv-x="991" d="M27 1008h202l172 -512q47 -147 99 -340h2q48 182 98 340l174 512h197l-408 -1139q-69 -193 -144.5 -259.5t-225.5 -66.5q-71 0 -154 17l18 141q58 -10 117 -10q75 0 123 36.5t88 145.5l49 127h-63zM395 1253l271 293l118 -123l-301 -264z" />
<glyph unicode="&#xfe;" horiz-adv-x="1136" d="M172 -436v1947h190v-360q0 -119 -8 -236l2 -2q88 54 162 83.5t156 29.5q86 0 148.5 -24.5t110 -81.5t71.5 -157.5t24 -246.5q0 -144 -34 -251t-94.5 -167.5t-134.5 -89t-163 -28.5q-118 0 -248 65l-2 -2q10 -137 10 -231v-248h-190zM362 197q117 -68 216 -68 q54 0 97.5 18t81.5 58.5t59.5 117.5t21.5 185q0 89 -9.5 153.5t-26.5 105t-44 64t-58.5 32.5t-74.5 9q-104 0 -263 -108v-567z" />
<glyph unicode="&#xff;" horiz-adv-x="991" d="M27 1008h202l172 -512q47 -147 99 -340h2q48 182 98 340l174 512h197l-408 -1139q-69 -193 -144.5 -259.5t-225.5 -66.5q-71 0 -154 17l18 141q58 -10 117 -10q75 0 123 36.5t88 145.5l49 127h-63zM176 1339q0 62 24 85.5t89 23.5t88.5 -23.5t23.5 -85.5 q0 -61 -23.5 -83.5t-88.5 -22.5t-89 22.5t-24 83.5zM602 1339q0 62 24 85.5t89 23.5t88.5 -23.5t23.5 -85.5q0 -61 -23.5 -83.5t-88.5 -22.5t-89 22.5t-24 83.5z" />
<glyph unicode="&#x152;" horiz-adv-x="1761" d="M127 705q0 182 24.5 313t68 214.5t115.5 132.5t156.5 68t200.5 19q139 0 258 -29h707v-151h-584v-463h541v-150h-541v-507h584v-152h-723q-127 -29 -258 -29q-82 0 -145.5 8.5t-122.5 30t-101.5 58t-78 92.5t-57 133t-33 179.5t-11.5 232.5zM319 713q0 -148 15 -252 t42.5 -170t74 -103t101 -51t132.5 -14q99 0 197 24v1127q-82 26 -197 26q-78 0 -132 -13t-101 -50t-74.5 -102.5t-42.5 -169.5t-15 -252z" />
<glyph unicode="&#x153;" horiz-adv-x="1736" d="M115 500q0 155 29.5 260.5t89 164.5t138 84t189.5 25q148 0 227.5 -42t120.5 -134q43 92 122.5 134t215.5 42q103 0 170.5 -20.5t115.5 -73t69.5 -142.5t21.5 -229q0 -28 -4 -110h-619q1 -87 13 -146.5t32 -96t56.5 -56.5t77.5 -26.5t104 -6.5q107 0 275 35l16 -142 q-166 -40 -328 -40q-149 0 -226.5 41.5t-121.5 130.5q-29 -58 -67 -95t-108.5 -61.5t-170.5 -24.5q-89 0 -155 14t-121 50t-89.5 95.5t-53.5 151.5t-19 218zM303 506q0 -120 15.5 -197t50 -118.5t78.5 -56.5t112 -15q53 0 90.5 9t69.5 33.5t51.5 67t30 111t10.5 164.5 q0 119 -15.5 195.5t-50 118t-78.5 56.5t-112 15q-53 0 -90.5 -9t-69.5 -34t-51.5 -67.5t-30 -110t-10.5 -162.5zM1001 586h449q-1 123 -24.5 190t-66.5 91t-120 24q-58 0 -98.5 -13.5t-72 -47t-48 -94t-19.5 -150.5z" />
<glyph unicode="&#x178;" horiz-adv-x="1099" d="M4 1423h199l221 -413q53 -96 131 -271h6q66 160 125 273l215 411h197l-455 -872v-551h-190v553zM190 1694q0 60 23.5 83t87.5 23q65 0 89 -22.5t24 -83.5t-24 -84t-89 -23q-64 0 -87.5 23t-23.5 84zM686 1694q0 61 24 83.5t89 22.5t87.5 -22.5t22.5 -83.5t-22.5 -84 t-87.5 -23t-89 23t-24 84z" />
<glyph unicode="&#x2c6;" horiz-adv-x="1062" d="M258 1264l297 266l297 -264l-84 -103l-217 180l-211 -178z" />
<glyph unicode="&#x2dc;" horiz-adv-x="1226" d="M279 1284q34 74 88 122t129 48q37 0 73.5 -16t61.5 -36t55 -36t55 -16q59 0 107 98l96 -66q-75 -170 -219 -170q-36 0 -72 16.5t-61 36t-55 36t-54 16.5q-35 0 -60 -25.5t-48 -74.5z" />
<glyph unicode="&#x2000;" horiz-adv-x="957" />
<glyph unicode="&#x2001;" horiz-adv-x="1915" />
<glyph unicode="&#x2002;" horiz-adv-x="957" />
<glyph unicode="&#x2003;" horiz-adv-x="1915" />
<glyph unicode="&#x2004;" horiz-adv-x="638" />
<glyph unicode="&#x2005;" horiz-adv-x="478" />
<glyph unicode="&#x2006;" horiz-adv-x="319" />
<glyph unicode="&#x2007;" horiz-adv-x="319" />
<glyph unicode="&#x2008;" horiz-adv-x="239" />
<glyph unicode="&#x2009;" horiz-adv-x="383" />
<glyph unicode="&#x200a;" horiz-adv-x="106" />
<glyph unicode="&#x2010;" horiz-adv-x="909" d="M158 459v164h594v-164h-594z" />
<glyph unicode="&#x2011;" horiz-adv-x="909" d="M158 459v164h594v-164h-594z" />
<glyph unicode="&#x2012;" horiz-adv-x="909" d="M158 459v164h594v-164h-594z" />
<glyph unicode="&#x2013;" d="M0 459v164h1085v-164h-1085z" />
<glyph unicode="&#x2014;" horiz-adv-x="2048" d="M147 459v164h1754v-164h-1754z" />
<glyph unicode="&#x2018;" horiz-adv-x="448" d="M106 1190q0 66 27 108q60 103 205 265l72 -45q-57 -94 -123 -226q24 -12 35.5 -34t11.5 -68q0 -63 -24 -86t-91 -23t-90 22.5t-23 86.5z" />
<glyph unicode="&#x2019;" horiz-adv-x="448" d="M76 1098q72 123 123 225q-24 12 -35.5 34t-11.5 68q0 64 22.5 86.5t89.5 22.5t90 -22.5t23 -86.5q0 -65 -25 -108q-61 -105 -207 -264z" />
<glyph unicode="&#x201a;" horiz-adv-x="460" d="M53 -223q60 99 123 225q-24 12 -35.5 34t-11.5 68q0 63 24 86t91 23t89.5 -22.5t22.5 -86.5q0 -68 -26 -108q-59 -100 -205 -264z" />
<glyph unicode="&#x201c;" horiz-adv-x="802" d="M109 1190q0 67 24 108q63 107 207 265l70 -45q-69 -118 -123 -226q24 -12 35.5 -34t11.5 -68q0 -64 -23 -86.5t-90 -22.5t-89.5 22.5t-22.5 86.5zM463 1190q0 68 26 108q60 103 205 265l72 -45q-68 -113 -125 -226q25 -11 37 -33t12 -69q0 -63 -24 -86t-91 -23 t-89.5 22.5t-22.5 86.5z" />
<glyph unicode="&#x201d;" horiz-adv-x="802" d="M76 1098q72 123 123 225q-24 12 -35.5 34t-11.5 68q0 64 22.5 86.5t89.5 22.5t90 -22.5t23 -86.5q0 -65 -25 -108q-61 -105 -207 -264zM430 1098q72 123 123 225q-24 12 -35.5 34t-11.5 68q0 63 23 86t89 23q67 0 90 -22.5t23 -86.5q0 -67 -24 -108q-61 -105 -207 -264z " />
<glyph unicode="&#x201e;" horiz-adv-x="815" d="M53 -223q60 99 123 225q-24 12 -35.5 34t-11.5 68q0 63 24 86t91 23t89.5 -22.5t22.5 -86.5q0 -68 -26 -108q-59 -100 -205 -264zM408 -223q66 108 124 225q-25 11 -37 33t-12 69q0 63 24 86t91 23t90 -22.5t23 -86.5q0 -66 -27 -108q-59 -100 -205 -264z" />
<glyph unicode="&#x2022;" horiz-adv-x="841" d="M238 737q0 103 40 144t142 41q104 0 144 -41t40 -144q0 -104 -40 -144t-144 -40q-103 0 -142.5 40t-39.5 144z" />
<glyph unicode="&#x2026;" horiz-adv-x="1445" d="M117 102q0 68 25.5 92.5t97.5 24.5q73 0 97.5 -24.5t24.5 -92.5q0 -70 -24.5 -94t-97.5 -24q-72 0 -97.5 24.5t-25.5 93.5zM600 102q0 68 25 92.5t98 24.5t98 -24.5t25 -92.5q0 -69 -25 -93.5t-98 -24.5t-98 24.5t-25 93.5zM1083 102q0 68 25 92.5t98 24.5q71 0 96 -24.5 t25 -92.5q0 -69 -24.5 -93.5t-96.5 -24.5q-73 0 -98 24.5t-25 93.5z" />
<glyph unicode="&#x202f;" horiz-adv-x="383" />
<glyph unicode="&#x2039;" horiz-adv-x="606" d="M74 502l299 463l141 -76l-231 -385l233 -387l-143 -78z" />
<glyph unicode="&#x203a;" horiz-adv-x="606" d="M90 117l236 383l-234 389l141 76l302 -465l-302 -461z" />
<glyph unicode="&#x205f;" horiz-adv-x="478" />
<glyph unicode="&#x20ac;" d="M70 432v131h143q-2 29 -2 94q0 58 2 91h-143v133h155q19 132 62 223t112 144t156 75.5t205 22.5q137 0 270 -37l-24 -146q-121 31 -244 31q-165 0 -246.5 -71t-101.5 -242h436v-133h-451q-2 -33 -2 -86q0 -70 2 -99h451v-131h-442q11 -93 38.5 -154.5t75 -94.5 t103.5 -45.5t137 -12.5q112 0 250 37l20 -148q-168 -39 -289 -39q-122 0 -206.5 20t-152 70t-106.5 140.5t-53 226.5h-155z" />
<glyph unicode="&#x2122;" horiz-adv-x="1726" d="M14 1307v116h594v-116h-217v-594h-147v594h-230zM692 713l64 710h225l111 -397l53 -215l55 215l111 397h225l66 -710h-146l-37 428l-6 176l-43 -172l-123 -432h-207l-122 426l-46 178l-6 -176l-37 -428h-137z" />
<glyph unicode="&#xe000;" horiz-adv-x="1003" d="M0 0v1004h1004v-1004h-1004z" />
</font>
</defs>
</svg>
