<?xml version="1.0" standalone="no"?>
<!DOCTYPE svg PUBLIC "-//W3C//DTD SVG 1.1//EN" "http://www.w3.org/Graphics/SVG/1.1/DTD/svg11.dtd" >
<svg xmlns="http://www.w3.org/2000/svg">
<metadata></metadata>
<defs>
<font id="purisaoblique" horiz-adv-x="1341" >
<font-face units-per-em="2048" ascent="1638" descent="-410" />
<missing-glyph horiz-adv-x="1325" />
<glyph unicode="&#x2e;&#x2e;&#x2e;" horiz-adv-x="1294" d="M274 111q0 49 26 89t67 40q33 0 108 -60q-29 -61 -61.5 -97t-52 -45t-35.5 -9q-25 0 -38.5 23.5t-13.5 58.5zM569 96q0 51 24.5 91t68.5 40q31 0 106 -59q-29 -59 -60.5 -96t-52 -46.5t-34.5 -9.5q-52 0 -52 80zM874 86q0 51 25 91t68 40q35 0 106 -59q-29 -59 -60.5 -96 t-52 -46.5t-34.5 -9.5q-52 0 -52 80z" />
<glyph unicode="&#xfb01;" horiz-adv-x="1425" d="M350 997q0 31 37 50.5t150 50.5l176 49l26 104q80 315 134.5 473t76 188t70.5 68q51 41 77.5 53.5t73.5 12.5q37 0 146 -10q84 -8 116.5 -23.5t71.5 -62.5q49 -61 62 -144q2 -29 12 -70.5t10 -64.5q0 -45 -24.5 -76.5t-59.5 -31.5q-80 0 -80 133q0 31 5.5 62.5t5.5 47.5 q0 45 -31 72t-111 55q-66 20 -100 21q-90 0 -160 -103q-39 -57 -110.5 -320t-71.5 -333q0 -39 45 -39q25 0 243 53.5t269 53.5q33 0 33 -31q0 -12 -2 -16q0 -2 1 -11.5t1 -15.5q0 -131 -84 -623.5t-113 -521.5q-31 -31 -67 -31q-55 0 -56 45q0 51 70 467t104 592 q-49 -12 -161.5 -28.5t-135.5 -22.5l-186 -51l-92 -400q-68 -287 -68 -397q0 -31 5.5 -65.5t5.5 -49.5q0 -113 -78 -112q-51 0 -51 123q0 127 71.5 482t71.5 392q0 4 -10 4q-25 0 -108 -21.5t-130 -21.5q-80 0 -80 45z" />
<glyph unicode="&#xfb02;" horiz-adv-x="1890" d="M334 924q0 31 37 50t149 50l176 49l43 178q49 213 117 420q55 168 78.5 214t85.5 95q51 41 77.5 53.5t73.5 12.5q37 0 146 -10q84 -8 116.5 -23.5t71.5 -62.5q45 -57 45 -104.5t-44 -99.5t-64 -52q-16 0 -17 28q0 10 5.5 38t5.5 46q0 45 -31 72t-111 55q-66 20 -100 21 q-90 0 -160 -103q-39 -55 -117.5 -358t-78.5 -367q0 -25 10 -33t34.5 -8t105.5 14.5t132 14.5q57 0 58 -29q0 -35 -195 -90l-186 -51l-76 -326q-68 -287 -68 -397q0 -31 5.5 -65.5t5.5 -49.5q0 -113 -78 -112q-51 0 -51 123q0 125 63.5 441t63.5 357q0 6 -9 7 q-25 0 -108.5 -21.5t-130.5 -21.5q-80 0 -80 45zM1614 102q0 53 16.5 174t60.5 436.5t85 635.5q14 118 49 288q33 158 59.5 241t43 105.5t38.5 22.5q29 0 29 -23q0 -49 -66.5 -525t-133 -923.5t-68.5 -459.5q-10 -45 -64 -45q-27 0 -38 14t-11 59z" />
<glyph unicode="&#xfb03;" horiz-adv-x="2236" d="M317 850q0 29 38 49.5t151 50.5l176 49l57 252q49 213 117 420q55 168 78.5 214t85.5 95q51 41 77.5 53.5t73.5 12.5q37 0 146 -10q84 -8 116.5 -23.5t71.5 -62.5q45 -57 45 -104.5t-44 -99.5t-64 -52q-16 0 -17 28q0 10 5.5 38t5.5 46q0 45 -31 72t-111 55 q-66 20 -100 21q-90 0 -160 -103q-37 -55 -125 -395t-88 -403q0 -25 10.5 -33t34.5 -8q61 0 179 24.5t135 24.5h12q23 0 156 37l176 49l26 104q29 113 53.5 205t47 161t37 119t33 88t26.5 59.5t24.5 41t19.5 23.5t20.5 17t19.5 15q51 41 77.5 53.5t73.5 12.5q37 0 146 -10 q84 -8 116.5 -23.5t71.5 -62.5q47 -59 62 -144q2 -29 12 -70.5t10 -64.5q0 -45 -24.5 -76.5t-59.5 -31.5q-80 0 -80 131q0 31 5.5 63.5t5.5 48.5q0 45 -31 72t-111 55q-66 20 -100 21q-90 0 -160 -103q-39 -57 -110.5 -320t-71.5 -333q0 -39 45 -39q25 0 243 53.5t269 53.5 q33 0 33 -31q0 -12 -2 -16q0 -2 1 -11.5t1 -15.5q0 -131 -84 -623.5t-113 -521.5q-31 -31 -67 -31q-55 0 -56 45q0 43 67.5 461t100.5 565l6 33q-49 -12 -161.5 -28.5t-135.5 -22.5l-186 -51l-92 -400q-68 -287 -68 -397q0 -31 5.5 -65.5t5.5 -49.5q0 -113 -78 -112 q-51 0 -51 123q0 127 71.5 482t71.5 392q0 4 -10 4q-90 0 -287 -40t-225 -42q-33 -2 -79 -13t-77 -19l-31 -11l-59 -252q-68 -295 -68 -397q0 -31 5.5 -65.5t5.5 -49.5q0 -113 -78 -112q-51 0 -51 123t56 405.5t56 317.5q0 8 -10 8q-25 0 -108 -21.5t-130 -21.5 q-82 0 -82 45z" />
<glyph unicode="&#xfb04;" horiz-adv-x="2701" d="M317 850q0 29 38 49.5t151 50.5l176 49l57 252q49 213 117 420q55 168 78.5 214t85.5 95q51 41 77.5 53.5t73.5 12.5q37 0 146 -10q84 -8 116.5 -23.5t71.5 -62.5q45 -57 45 -104.5t-44 -99.5t-64 -52q-16 0 -17 28q0 10 5.5 38t5.5 46q0 45 -31 72t-111 55 q-66 20 -100 21q-90 0 -160 -103q-37 -55 -125 -395t-88 -403q0 -25 10.5 -33t34.5 -8q61 0 179 24.5t135 24.5h12q23 0 156 37l176 49l26 104q80 315 134.5 473t76 188t70.5 68q51 41 77.5 53.5t73.5 12.5q37 0 146 -10q84 -8 116.5 -23.5t71.5 -62.5q45 -57 45 -104.5 t-44 -99.5t-64 -52q-16 0 -17 28q0 10 5.5 38t5.5 46q0 45 -31 72t-111 55q-66 20 -100 21q-90 0 -160 -103q-39 -57 -110.5 -320t-71.5 -333q0 -39 45 -39q25 0 105.5 14.5t132.5 14.5q59 0 59 -29q0 -35 -195 -90l-186 -51l-92 -400q-68 -287 -68 -397q0 -31 5.5 -65.5 t5.5 -49.5q0 -113 -78 -112q-51 0 -51 123q0 127 71.5 482t71.5 392q0 4 -10 4q-90 0 -287 -40t-225 -42q-33 -2 -79 -13t-77 -19l-31 -11l-59 -252q-68 -295 -68 -397q0 -31 5.5 -65.5t5.5 -49.5q0 -113 -78 -112q-51 0 -51 123t56 405.5t56 317.5q0 8 -10 8 q-25 0 -108 -21.5t-130 -21.5q-82 0 -82 45zM2425 102q0 53 16.5 174t60.5 436.5t85 635.5q14 118 49 288q33 158 59.5 241t43 105.5t38.5 22.5q29 0 29 -23q0 -49 -66.5 -525t-133 -923.5t-68.5 -459.5q-10 -45 -64 -45q-27 0 -38 14t-11 59z" />
<glyph horiz-adv-x="2048" />
<glyph horiz-adv-x="2048" />
<glyph unicode="&#xd;" horiz-adv-x="681" />
<glyph unicode=" "  horiz-adv-x="1325" />
<glyph unicode="&#x09;" horiz-adv-x="1325" />
<glyph unicode="&#xa0;" horiz-adv-x="1325" />
<glyph unicode="!" horiz-adv-x="1062" d="M434 92q0 29 43 84t74 68q18 8 49 8q94 0 94 -57q0 -47 -45 -119t-88 -72q-16 0 -46 15.5t-38 15.5q-16 0 -29.5 18.5t-13.5 38.5zM606 512q0 27 6 75l16.5 132t18.5 160q0 47 15.5 100t15.5 63q0 8 -6 15.5t-6 17.5q0 25 13 38t21.5 15t14.5 2q29 0 155 -16l70 -8 l-22 -76q-16 -55 -100.5 -219t-137.5 -297q-20 -55 -45 -55q-29 0 -29 53z" />
<glyph unicode="&#x22;" horiz-adv-x="1171" d="M647 1145q0 307 109 307q39 0 52 -60.5t13 -228.5q0 -84 -25.5 -142t-70.5 -58q-20 0 -47 16q-31 21 -31 166zM887 1055q0 94 26.5 272t77.5 178q10 0 22.5 -12t23 -42t10.5 -69q0 -117 -41 -313q-12 -59 -25.5 -82.5t-38.5 -23.5q-55 0 -55 92z" />
<glyph unicode="#" d="M225 328q0 29 53.5 57.5t127.5 34.5q88 8 117.5 35.5t70.5 130.5q31 88 55 137l23 51l-152 -16q-98 -8 -104 -8q-41 0 -41 22q0 33 17.5 52.5t34.5 26.5t60 19q94 25 150 25q49 0 70.5 27.5t56.5 132.5q23 70 41 93t59 23q23 1 23 -26q0 -16 -10.5 -80t-10.5 -80 q0 -31 29 -31q82 0 134 37t69.5 82t40 82t53.5 37q39 0 39 -33q0 -16 -13.5 -64t-13.5 -61q0 -16 9.5 -19t35.5 -3h11q49 0 49 -31q0 -37 -45 -77t-74 -40q-6 0 -12.5 2t-10.5 2q-14 0 -24 -20.5t-41 -97.5q-29 -74 -49 -125l-37 -90l137 12q63 6 92 6q23 0 29 -4t4 -17 q-12 -51 -44 -70.5t-112 -37.5q-135 -35 -164.5 -56.5t-48.5 -99.5q-27 -113 -53.5 -155.5t-77.5 -49.5l-61 -6l90 281h-72q-78 0 -107.5 -27.5t-74.5 -142.5q-70 -186 -119 -186q-6 0 -14 3t-16.5 16t-8.5 36q0 39 29 123l43 137h-117q-125 0 -125 31zM672 444l63 13 q87 20 101 24q25 6 60.5 82t59 145.5t23.5 75.5q4 16 4 23q0 27 -29 27q-18 0 -63 -11q-74 -14 -94.5 -46t-85.5 -220z" />
<glyph unicode="$" horiz-adv-x="1286" d="M365 485q0 90 57 90q25 0 40 -29.5t35.5 -90t43.5 -101.5l28 -49l31 80q14 35 45 102.5t46.5 108.5t15.5 66q0 35 -37 43q-53 16 -94 62t-41 95q0 61 91 171t177 147q59 25 79.5 49t57.5 117q55 141 70 167q16 35 71 35q29 0 37 -4t4 -22q-2 -10 -35.5 -98.5t-56 -164 t-4.5 -75.5q20 0 87 -80t67 -103q0 -4 -2 -10t-10.5 -13t-20.5 -7q-31 0 -94.5 54t-73.5 54q-8 0 -53 -141l-41 -137l59 -33q125 -72 125 -205q0 -117 -101.5 -250t-222.5 -166q-82 -20 -114.5 -64t-83.5 -200q-51 -160 -64 -172q-25 -12 -77 -12q-18 0 -23.5 9t0.5 36 q27 125 90 279l55 145l-59 63q-47 49 -75.5 122t-28.5 132zM657 893q0 -29 32 -72t52 -43q16 0 57.5 132t41.5 204l-88 -90q-94 -100 -95 -131zM684 215q0 -20 10 -20q20 0 80 52t118 138t58 158q0 45 -22.5 78.5t-42.5 46.5l-23 10q-27 0 -102.5 -199.5t-75.5 -263.5z" />
<glyph unicode="%" horiz-adv-x="1503" d="M143 -61q0 53 222 235q168 137 384 336t351 340q96 100 233 202.5t178 102.5q20 0 21 -25q0 -59 -98.5 -157.5t-287 -262t-302.5 -284.5q-76 -82 -341.5 -302t-318.5 -220q-6 0 -14 2t-17.5 11t-9.5 22zM489 788q0 78 44.5 142.5t87.5 64.5q25 0 56.5 -28.5t31.5 -77.5 q0 -66 -51.5 -127.5t-110.5 -61.5q-58 0 -58 88zM936 152q0 41 89 144t144 103q31 0 54.5 -35.5t23.5 -68.5q0 -41 -78.5 -125t-154.5 -84q-33 0 -55.5 21.5t-22.5 44.5z" />
<glyph unicode="&#x26;" horiz-adv-x="1503" d="M258 70q0 152 158 362l129 186l-13 113q-12 86 -12 150q0 127 48 193.5t157 125.5q104 55 147 55q2 0 12.5 -3t25 -5t28.5 -2q18 0 30.5 -41t12.5 -86q0 -63 -65.5 -168.5t-131 -198t-65.5 -120.5q0 -45 79 -134t124 -89q41 0 111.5 78.5t143 156.5t121.5 78 q20 0 38 -17.5t18 -35.5q0 -31 -145.5 -176.5t-151.5 -176.5q-2 -6 2 -9t12 -3q18 0 55 -32.5t76 -32.5q53 0 105.5 -35t52.5 -70q0 -23 -21.5 -43t-62.5 -20q-115 0 -246 114l-65 56l-140 -103q-82 -61 -226 -145t-193 -84q-47 0 -97.5 39t-50.5 123zM389 106q0 -55 37 -55 q31 0 181.5 80t185.5 86q51 10 51 35q0 23 -38 53.5t-90 71.5t-75 78l-31 53l-98 -135q-123 -168 -123 -267zM664 838q0 -29 10 -29q20 0 74 45q41 39 65.5 102.5t28.5 95t4 50.5q0 27 -14.5 26.5t-67.5 -32.5q-39 -20 -54.5 -50t-31.5 -104q-14 -63 -14 -104z" />
<glyph unicode="'" horiz-adv-x="1255" d="M758 1079q0 23 6 60t6 61q0 20 -6 36.5t-6 27.5q0 74 51 137q27 35 74 35q41 0 133 -12.5t104 -20.5q4 -2 4 -14q0 -27 -25.5 -80.5t-56.5 -81.5q-41 -37 -84 -164q-31 -86 -49 -110.5t-51 -24.5q-45 0 -72.5 42.5t-27.5 108.5z" />
<glyph unicode="(" horiz-adv-x="1333" d="M498 502q0 106 32.5 194t237.5 527q70 150 132.5 239.5t152.5 167.5q115 98 180 99q25 0 24 -23q0 -33 -116 -172q-135 -164 -306 -518t-171 -547q0 -106 65.5 -283.5t128.5 -253.5q70 -84 70 -145q0 -39 -29 -56.5t-59 -17.5q-68 0 -149 125t-137 312.5t-56 351.5z" />
<glyph unicode=")" horiz-adv-x="1302" d="M375 -311q0 41 178 282q80 109 125 177.5t112.5 229.5t108.5 351q41 197 41 354q0 152 -35 271t-62.5 160.5t-39.5 48.5q-37 14 -37 84q0 68 59 67q84 0 182.5 -142t112.5 -294q4 -53 4 -88q0 -195 -52 -455t-119.5 -405.5t-140.5 -258t-140.5 -198.5t-96.5 -135 q-45 -80 -116 -80q-29 0 -56.5 9t-27.5 22z" />
<glyph unicode="*" horiz-adv-x="1581" d="M418 612q0 29 47 41q90 27 210 75t120 65q0 14 -43 75.5t-86 139t-43 131.5q0 45 26.5 70.5t59.5 25.5q29 0 48 -19.5t19 -50.5q0 -6 -2 -18t-2 -19q0 -35 19.5 -66.5t37.5 -31.5q16 0 31 66q12 63 52 129.5t81 66.5t41 -78q0 -18 -3 -63t-3 -98q-4 -55 8 -56q10 0 88 86 q84 94 164 151.5t123 57.5q20 0 35.5 -14t15.5 -35q0 -53 -69 -100q-47 -35 -142.5 -158t-95.5 -143q0 -12 96 -13q33 0 84 3.5t72 3.5q43 0 61.5 -9.5t18.5 -42.5q0 -66 -36 -87t-157 -46l-102 -20l76 -72q57 -57 57 -78q0 -27 -41 -77t-67 -50q-33 0 -128.5 83t-115.5 83 q-27 0 -27 -63q0 -29 16.5 -60.5t16.5 -44.5q0 -31 -41 -62.5t-96 -31.5q-12 0 -30.5 3t-31.5 3q-57 0 -123.5 -45t-109.5 -45q-61 0 -62 57q0 43 52.5 100.5t105.5 106.5t53 72q0 29 -108 29q-72 0 -121 23.5t-49 49.5z" />
<glyph unicode="+" horiz-adv-x="1464" d="M322 651q0 4 4 25q10 47 45 64.5t186 43.5l217 41l29 140q31 139 55 182q29 43 88 43q31 0 42 -11.5t11 -52.5q0 -29 -10 -127l-22 -190l155 16q68 6 128.5 14.5t92 13.5t39.5 5q47 0 48 -61q0 -25 -6.5 -40.5t-22 -25.5t-35.5 -15t-57 -10.5t-76 -9.5t-102.5 -13 t-126.5 -21l-76 -15l-146 -606h-135l115 614l-144 -22q-162 -23 -221 -23q-76 0 -75 41z" />
<glyph unicode="," horiz-adv-x="1015" d="M242 -295q0 82 219 387q125 176 183 242.5t87 66.5q55 0 55 -41q0 -68 -202 -344q-178 -238 -225.5 -291t-79.5 -53q-37 0 -37 33z" />
<glyph unicode="-" horiz-adv-x="1906" d="M387 684l33 104q23 72 60.5 92.5t183.5 34.5q184 19 608 19h47q352 0 454.5 -17.5t102.5 -95.5q0 -68 -158.5 -88t-627.5 -33z" />
<glyph unicode="." horiz-adv-x="1116" d="M285 0q0 25 2 33q16 74 142 181.5t161 107.5q33 0 52.5 32.5t55.5 32.5q43 0 43 -37q0 -29 52 -28q45 0 69.5 -35t24.5 -90q0 -129 -141.5 -258t-282.5 -129q-98 0 -138 59t-40 131zM526 43q0 -18 25 -18q37 0 81 33.5t44 47.5q0 8 -25 9q-53 0 -89 -23.5t-36 -48.5z" />
<glyph unicode="/" horiz-adv-x="1581" d="M205 -291q0 37 42 102.5t151.5 215t197.5 280.5l772 1127q51 72 93 168t71 134t80 38q29 0 49 -16.5t20 -45.5q0 -27 -20.5 -60.5t-76.5 -117.5t-109 -180q-49 -86 -214 -317.5t-302.5 -424t-141.5 -209.5q-4 -25 -155 -231l-252 -352q-104 -145 -154 -146q-51 0 -51 35z " />
<glyph unicode="0" horiz-adv-x="1155" d="M227 279q0 86 185.5 370.5t191.5 319.5q6 25 95 101.5t200 145t160 68.5q57 0 113.5 -73.5t56.5 -200.5q0 -289 -316 -707q-100 -133 -189 -201.5t-198 -97.5q-49 -12 -88 -12q-145 0 -190 182q-21 78 -21 105zM371 256q0 -61 35.5 -100t93.5 -39q45 0 87 21.5t118 80.5 q123 98 131 131q4 16 58 96t119.5 208t94.5 261q12 55 12 99q0 113 -100 112q-57 0 -117 -34q-92 -51 -220 -220.5t-220 -349.5t-92 -266z" />
<glyph unicode="1" horiz-adv-x="720" d="M301 795q0 25 13.5 44t59.5 60t72 68l89 90q16 16 67 82.5t94 109.5t70 43q33 0 33 -80q0 -98 -93.5 -615t-117.5 -558q-23 -35 -45 -35q-37 0 -37 88q0 92 78 476t78 446q0 16 -5 16q-16 0 -79.5 -68.5t-134 -136t-105.5 -67.5q-14 0 -25.5 10t-11.5 27z" />
<glyph unicode="2" horiz-adv-x="1581" d="M319 772q0 119 80 156q59 27 68 55q2 10 14.5 23.5t35 29t44 28.5t55 34.5t56.5 36.5q167 106 360 106q92 0 158.5 -35t66.5 -114q0 -68 -37.5 -183.5t-103.5 -226.5q-61 -104 -225 -300t-238 -253q-27 -25 -28 -29q0 -2 8 -2q2 0 106.5 18.5t259 37t277.5 18.5 q92 0 124 -9t32 -32q0 -33 -13.5 -46t-51.5 -18.5t-84 -5.5t-137 -8t-185 -26q-100 -18 -214 -34t-167.5 -25t-71.5 -23q-20 -14 -47 -15q-31 0 -54.5 15.5t-23.5 38.5q0 31 95 124t157 140q102 74 302 367.5t200 424.5q0 45 -35 61.5t-113 16.5q-221 0 -491 -225 q-160 -135 -176 -135q-2 0 -3 14z" />
<glyph unicode="3" horiz-adv-x="1163" d="M328 127q0 51 17 99t44 48q31 0 52.5 -30.5t21.5 -71.5q0 -12 -2 -25.5t-2 -21.5q0 -18 17.5 -24.5t68.5 -6.5q84 0 187.5 50.5t172.5 125.5q45 49 72 130t32 126t5 74q0 59 -25.5 86t-83.5 27q-100 0 -185 -46t-110 -46q-55 0 -55 51q0 16 8 35.5t27 19.5q29 0 98 61 q303 281 309 312q0 4 -10 4q-43 0 -175 -19.5t-249 -40t-121 -20.5q-22 0 -22 16q0 2 2 10.5t2 12.5q0 25 -18 24q-23 0 -19 21q2 14 73.5 34.5t176 41t206 39t185.5 32t92 15.5q25 4 49.5 9t36 7t15.5 2q18 0 33.5 -25.5t15.5 -50.5q0 -31 -178.5 -191.5t-178.5 -168.5 q0 -12 66 -12q57 0 119.5 -74t62.5 -156q0 -66 -44 -177t-120 -200q-94 -113 -242.5 -183t-267.5 -70q-88 0 -123.5 36.5t-35.5 110.5z" />
<glyph unicode="4" horiz-adv-x="1155" d="M213 403q0 43 115 175q195 221 388 418.5t216 199.5q25 0 48.5 28.5t43.5 28.5q18 0 29.5 -13t11.5 -30q0 -43 -64 -96q-43 -39 -58 -78t-46 -182q-35 -166 -35 -209q0 -23 6 -29t21 -6q29 0 93.5 20.5t80.5 31.5q10 8 31 8q29 0 54.5 -16.5t25.5 -43.5q0 -23 -22 -43 t-58 -22q-63 -8 -160 -37l-98 -31l-29 -172q-18 -102 -19 -172q0 -33 4.5 -62.5t4.5 -33.5q0 -25 -31 -48.5t-49 -23.5q-45 0 -45 127q0 70 13 175.5t13 133.5q0 37 -18 37l-170 -35q-170 -35 -231 -34q-66 0 -66 34zM397 492q0 -2 2 -3q21 0 164 29q121 25 148.5 40 t38 66.5t22.5 163.5l14 138l-108 -105q-74 -72 -175.5 -190.5t-105.5 -138.5z" />
<glyph unicode="5" horiz-adv-x="1017" d="M176 195q0 23 6 43t12.5 30.5t10.5 10.5q8 0 22 -48q25 -76 79 -106.5t161 -30.5q94 0 155.5 44t129.5 163q100 176 100 344q0 109 -55 109q-45 0 -137.5 -45t-143.5 -93q-63 -57 -84 -57q-16 0 -41 31q-6 8 -6 39q0 92 47 308t78 234q23 12 254 22.5t297 25.5 q63 14 102 14q43 0 43 -25q0 -37 -183 -84t-292 -47h-33q-76 0 -119.5 -34.5t-43.5 -92.5q0 -6 1 -20.5t1 -22.5q0 -49 -23 -108l-27 -64l80 43q143 80 262 80q43 0 62 -10q78 -35 78 -205q0 -109 -47 -229q-92 -229 -224.5 -334t-328.5 -105q-66 0 -88.5 13.5t-55.5 66.5 q-49 81 -49 140z" />
<glyph unicode="6" horiz-adv-x="907" d="M178 217q0 37 10 92q14 70 112.5 283t191.5 391l90 176q49 109 106 109q18 0 28.5 -10.5t6.5 -28.5q-12 -59 -146.5 -320.5t-146.5 -318.5q-9 -33 16 -33q12 0 82 41t115 41q53 0 116.5 -30.5t90.5 -67.5q23 -35 22 -88q0 -39 -10 -73t-22.5 -52.5t-39 -51t-40.5 -55.5 q-27 -43 -130.5 -120.5t-154.5 -96.5q-55 -18 -129 -18q-76 0 -122 65.5t-46 165.5zM305 221q0 -47 13.5 -77.5t27.5 -40t25 -9.5q31 0 192 84q49 25 123 113t74 151q0 39 -52.5 67t-80.5 28q-43 -2 -113 -35t-125 -78q-29 -25 -40 -36t-27.5 -56t-16.5 -111z" />
<glyph unicode="7" horiz-adv-x="899" d="M385 778q0 23 35 191l47 225l346 63q109 20 152 21q76 0 75 -64q0 -37 -25.5 -119.5t-76.5 -210.5t-101.5 -246t-125 -295t-121.5 -292q-18 -43 -32.5 -55t-45.5 -12q-41 0 -41 20q0 59 172 457q53 121 144.5 367.5t103.5 297.5q2 8 -2 9.5t-43 1.5q-78 0 -129 -4 l-170 -13l-15 -104q-12 -90 -47 -193q-16 -51 -27.5 -68.5t-29.5 -17.5q-43 0 -43 41z" />
<glyph unicode="8" horiz-adv-x="1024" d="M279 266q0 29 88 158t88 164q0 27 -42 108.5t-42 149.5q0 131 103.5 246.5t191.5 115.5q27 0 60.5 22.5t125.5 22.5q61 0 110.5 -16t77 -41t46 -56.5t24.5 -59t6 -52.5q0 -51 -64.5 -119.5t-141 -123t-141 -111t-64.5 -88.5q0 -25 28.5 -75t57 -116.5t28.5 -134.5 q0 -131 -92 -218t-174 -87q-92 0 -183 128t-91 183zM412 274q0 -70 56 -136t105 -66q43 0 90.5 48t47.5 107q0 72 -80 191q-37 57 -68 57q-33 0 -92 -69.5t-59 -131.5zM479 881q0 -35 23.5 -85.5t47 -84t28.5 -33.5q10 0 80.5 53t159.5 117.5t132 83.5q72 34 72 69 q0 41 -67.5 100.5t-125.5 59.5q-12 0 -18 -1t-18.5 -5t-23.5 -9t-43 -19.5t-69 -30.5q-78 -35 -128 -104.5t-50 -110.5z" />
<glyph unicode="9" horiz-adv-x="946" d="M309 772q0 47 31 109q63 127 167.5 208.5t270.5 139.5q96 33 129 33q20 0 47 -5.5t63 -37t36 -84.5q0 -49 -28 -109.5t-91.5 -242t-124.5 -474.5q-39 -186 -39 -231q0 -6 1 -13.5t1 -9.5q0 -31 -24.5 -65.5t-59.5 -34.5q-23 0 -33 11t-10 44q0 78 73 363.5t73 318.5 q0 25 -15 25q-10 0 -100 -58q-45 -31 -82 -40t-105 -9q-74 2 -98 10.5t-47 43.5q-35 53 -35 108zM418 772q0 -72 84 -72q55 0 137 36t166 124t108 203q10 41 11 55q0 18 -14.5 22.5t-59.5 4.5q-147 0 -258 -90q-76 -63 -125 -143.5t-49 -139.5z" />
<glyph unicode=":" horiz-adv-x="821" d="M324 111q0 78 51 121.5t84 43.5q53 0 53 -83q0 -23 -6 -37.5t-23.5 -38t-29.5 -49.5q-35 -72 -74 -72q-27 0 -41 35t-14 80zM473 887q0 47 44 111.5t79 64.5q25 0 50.5 -34t25.5 -73q0 -10 -2 -31.5t-12.5 -50t-26.5 -28.5q-20 0 -44 -45t-57 -45q-20 0 -29 14t-20 57 q-8 35 -8 60z" />
<glyph unicode=";" horiz-adv-x="751" d="M211 -166q0 29 116.5 216.5t141.5 207.5q23 18 43 18q12 0 19.5 -8t7.5 -16v-12q-8 -35 -130 -230.5t-143 -204.5q-12 -4 -20 -4q-35 0 -35 33zM459 711q0 18 6 47q12 59 32.5 84.5t67.5 40.5q49 14 68 14q45 0 45 -76q0 -59 -31 -138t-72 -79q-117 0 -116 107z" />
<glyph unicode="&#x3c;" horiz-adv-x="1116" d="M293 653q0 18 6 33.5t65.5 74t176.5 144.5l381 289q168 129 215 129q35 0 34 -45q0 -16 -10 -31.5t-35.5 -38t-56.5 -44t-85 -63.5t-107 -85l-265 -207q-150 -117 -149 -156q0 -49 113.5 -222t185.5 -228q49 -39 88 -87t39 -73q0 -18 -38 -51t-63 -33q-18 0 -26 27 q-6 25 -117 116q-129 106 -240.5 282.5t-111.5 268.5z" />
<glyph unicode="=" horiz-adv-x="1054" d="M315 440q0 57 131 80q12 2 19 4q55 13 213 13q147 0 196.5 -7.5t49.5 -29.5q0 -41 -131 -65.5t-285 -24.5q-121 0 -157 5t-36 25zM387 748q0 37 14 43q8 4 170 24q168 16 244 16q61 0 83 -6t22 -24q0 -47 -68 -65.5t-279 -37.5q-90 -6 -126.5 -6t-48 9.5t-11.5 46.5z" />
<glyph unicode="&#x3e;" horiz-adv-x="1216" d="M387 -31q0 20 53.5 78.5t74 65t80.5 72t284 315.5q106 121 106 141q0 31 -178 180q-305 258 -305 330q0 25 36 39t54 14q10 0 58 -40t79 -74q88 -96 198.5 -194.5t162 -149t51.5 -84.5q0 -29 -54.5 -91.5t-195.5 -210.5q-43 -43 -66 -67q-256 -266 -280 -311 q-12 -20 -43 -35t-60 -15q-55 0 -55 37z" />
<glyph unicode="?" horiz-adv-x="1294" d="M547 16q0 68 30.5 128.5t59.5 60.5q16 0 66.5 -40t48.5 -52q-8 -16 -24.5 -42t-58.5 -68t-79 -42q-43 0 -43 55zM588 1360q0 129 153.5 246.5t270.5 117.5q100 0 164.5 -90t64.5 -211q0 -117 -71.5 -230.5t-231.5 -274.5l-92 -95l-29 -153q-31 -168 -65 -191 q-8 -6 -17 -6q-37 0 -37 57q0 51 25 162q27 125 59.5 185.5t124.5 132.5q104 76 175 197.5t71 224.5q0 82 -57.5 138t-100.5 56q-74 0 -194.5 -87t-120.5 -148q0 -49 28.5 -129t59.5 -80q43 0 89 52t52 75q2 10 -6 14t-29 4q-18 0 -25 7t-5 20q6 27 38.5 46t55.5 19 q20 0 36.5 -20.5t16.5 -55.5q0 -72 -58.5 -148.5t-148.5 -76.5q-72 0 -134 75t-62 167z" />
<glyph unicode="@" horiz-adv-x="1441" d="M256 297q0 139 31 281q37 172 91 274t171 219q84 84 150.5 120t197.5 71q104 29 236 28q86 0 118 -16q51 -31 104.5 -114t53.5 -163q0 -41 -18 -133q-23 -113 -60 -193.5t-60.5 -114.5t-23.5 -42t15.5 -11t30 -10.5t14.5 -27.5q0 -68 -135.5 -251t-286.5 -241 q-49 -16 -203 -16q-115 0 -158 10q-57 10 -141 74.5t-86 99.5q-4 43 -18 43q-23 0 -23 113zM373 387q0 -55 16 -149q10 -61 104.5 -122t264.5 -61q57 0 141 47q61 35 99 71t94 118q4 4 50 73.5t46 75.5h-2q-2 0 -29 -17t-70 -33.5t-83 -16.5q-45 0 -64.5 10t-38.5 43 q-23 53 -22 72q0 25 -7 24q-12 0 -52 -42t-100.5 -84t-125.5 -42q-49 0 -75.5 40t-26.5 104q0 106 63 198q47 72 174 183.5t162 111.5q51 0 112.5 -71.5t61.5 -143.5q0 -35 -36 -114.5t-36 -141.5q0 -53 29 -53q20 0 77.5 46t61.5 67q4 18 28.5 18t67.5 114.5t43 186.5 q0 109 -7 150t-22.5 59t-66.5 53q-82 53 -147 53q-70 0 -250 -79q-109 -49 -160 -94.5t-129 -159.5q-53 -78 -72.5 -126t-44.5 -165q-29 -139 -28 -203zM594 543q0 -41 26.5 -66.5t49.5 -33t35 -7.5q35 0 54 52.5t32 52.5q23 0 32 57q6 31 16.5 52.5t30 49t31.5 52.5 q18 33 53 32q43 0 43 17q0 20 -53 58t-80 38q-33 0 -103.5 -58.5t-76.5 -90.5q-4 -18 -37 -56.5t-49 -116.5q-4 -25 -4 -32z" />
<glyph unicode="A" horiz-adv-x="1511" d="M135 -23q0 33 60.5 99.5t66.5 95.5q6 39 39 49q25 8 85 111.5t95 136.5t85 109.5t208 341.5q100 166 261 396t192 249q29 14 37 14q12 0 36 -18q16 -12 34 -167t18 -270q0 -43 -4.5 -69.5t-4.5 -69.5q0 -33 4.5 -123t4.5 -143q0 -47 -2 -84t-2 -62q0 -68 10 -196.5 t10 -169.5q0 -100 -43 -101q-20 0 -59 23q-31 20 -39 46t-8 91q0 14 1 56.5t1 70.5q0 14 -1 49t-1 56l-7 161l-102 -12q-117 -16 -250 -26l-145 -13l-84 -112q-213 -285 -318 -449q-69 -110 -124 -110h-1q-53 0 -53 40zM799 737l164 13q150 12 192.5 24t50.5 57 q10 45 11 246q0 233 -23 234q-16 0 -144 -182.5t-214 -327.5z" />
<glyph unicode="B" d="M451 1425q0 68 346 154q135 33 379 33q94 0 124.5 -9.5t55.5 -43.5q31 -45 30 -89q0 -66 -75.5 -177t-153.5 -201.5t-80 -98.5t5.5 -10t21.5 -2q41 0 112.5 -50t88.5 -91q14 -37 14 -103q0 -133 -57.5 -268t-140.5 -230.5t-174 -154.5t-159 -59q-20 0 -50.5 12t-55.5 12 q-27 0 -80 -17.5t-76 -17.5q-57 0 -57 105q0 66 37 310.5t51 416.5q35 309 41 356l25 184h-80q-92 0 -92 39zM604 248q0 -68 31 -86.5t121 -22.5q10 0 26.5 -1t22.5 -1q51 0 82 18.5t112 96.5q88 82 127 141t64 182q12 55 12 105q0 164 -153 164q-51 0 -107.5 -15.5 t-128.5 -45t-96 -38.5q-31 -10 -42 -42.5t-30 -143.5q-8 -55 -14 -88q-27 -166 -27 -223zM700 938q0 -41 8.5 -55.5t28.5 -14.5q45 0 210 154t239 264q8 14 19.5 29.5t17.5 25t13 19.5t10 17t8.5 13.5t7.5 10.5t3 9t2 8t1 7q-1 12 -21 39q-25 33 -143 33q-74 0 -137 -10 q-158 -27 -179 -39q-23 -14 -34 -72l-9 -41q-45 -213 -45 -397z" />
<glyph unicode="C" horiz-adv-x="1488" d="M338 356q0 102 77 416.5t126 413.5q92 188 322.5 330.5t410.5 142.5q86 0 149.5 -51.5t63.5 -118.5q0 -51 -39 -51q-23 0 -43.5 14t-28.5 37q-6 25 -18 35t-37 10q-106 0 -272 -71.5t-265 -159.5q-84 -74 -151.5 -227.5t-132.5 -465.5q-21 -100 -21 -159 q0 -123 66.5 -205t163.5 -82q51 0 157.5 45t155.5 88l127 104q59 47 129 123t113 120t65 44q14 0 14 -26q0 -4 -4 -33q-6 -33 -81.5 -128t-185 -205t-256 -193t-269.5 -83q-92 0 -164 47.5t-105.5 112t-50 111.5t-16.5 65z" />
<glyph unicode="D" horiz-adv-x="1751" d="M412 1366q0 29 36.5 74t61.5 45q27 0 72 49q43 49 215 68q219 20 286 20q84 0 207 -23q293 -53 422 -145t129 -260q0 -59 -16 -137q-45 -215 -160 -407.5t-256 -321.5t-286.5 -214t-272.5 -114q-53 -12 -84 -40t-38 -52.5t-28.5 -44t-60.5 -19.5q-59 0 -59 23v2 q4 14 -8.5 23.5t-28 14.5t-29.5 20.5t-14 39.5q0 74 55 92q43 14 76 174q20 100 38.5 336t49.5 492l43 354l-76 -6q-66 -6 -140.5 -61.5t-84.5 -55.5q-12 0 -30.5 25.5t-18.5 48.5zM737 156h111q184 0 469 258q162 147 239.5 296.5t124.5 364.5q14 63 15 103q0 47 -43 110 q-37 51 -91.5 76t-183.5 51q-231 41 -362 41q-57 0 -81 -14.5t-36 -73.5q-14 -68 -26.5 -299t-35 -466.5t-61.5 -342.5z" />
<glyph unicode="E" horiz-adv-x="1185" d="M242 70q0 63 20.5 208.5t55 370.5t55.5 402q18 152 33 225q12 61 38.5 103t46 55.5t31.5 13.5q23 0 80 27.5t125 60.5t184.5 60.5t241.5 27.5q172 0 172 -53q0 -35 -209 -70q-166 -27 -316.5 -77t-211.5 -97q-16 -12 -25.5 -25.5t-15.5 -27.5t-10.5 -47t-8.5 -65 t-12 -101.5t-16 -136.5q-14 -98 -15 -140q0 -31 13 -30q8 0 16 6q39 20 249 67t261 47t51 -38q0 -45 -77.5 -76t-303.5 -84q-162 -37 -200.5 -54.5t-49.5 -58.5l-49 -256l-30 -176h104q92 0 241.5 38t256.5 89q72 35 92 35q18 0 32.5 -20.5t14.5 -41.5q0 -76 -250 -165 t-459 -89q-74 0 -109.5 14.5t-40.5 30t-5 48.5z" />
<glyph unicode="F" horiz-adv-x="1232" d="M346 76q0 23 21 121q20 94 42.5 365.5t82.5 551.5l73 346l160 53q164 53 252 54q70 0 135.5 24.5t175.5 24.5q78 0 111 -11t33 -38q0 -45 -49.5 -62.5t-231.5 -50.5q-150 -27 -250 -47l-215 -43l-35 -164q-39 -186 -41 -252l-4 -90l135 14q143 16 242 16q152 0 152 -28 q0 -14 -34 -34.5t-121 -47t-210 -49.5l-180 -31l-51 -325q-35 -219 -59 -286t-62 -67q-72 0 -72 56z" />
<glyph unicode="G" horiz-adv-x="1433" d="M252 299q0 115 59 293q55 164 113.5 258t204.5 258q102 115 211.5 196.5t182.5 112.5t133.5 58.5t76.5 48.5q29 35 113 35t134 -33t50 -72q0 -27 -39 -79t-66 -52q-23 0 -26.5 48t-34.5 48q-41 0 -111.5 -23.5t-175 -78.5t-233.5 -173t-248 -280q-86 -119 -113.5 -179 t-56.5 -198q-31 -139 -31 -215q0 -72 29 -101.5t94 -29.5q205 0 375 176q86 92 160.5 202t74.5 161q0 29 -18 48.5t-43 19.5q-16 0 -49 -21.5t-94.5 -21.5t-116.5 20t-55 68q0 43 34.5 64.5t80.5 35.5t61 31q12 16 76 16q80 0 182 -24.5t131 -53.5q41 -41 41 -188 q0 -203 -68 -516q-12 -53 -20 -82t-32 -60.5t-58 -31.5q-55 0 -56 77q0 57 33 209l49 234l-88 -109q-156 -193 -325.5 -300t-309.5 -107q-82 0 -141 39q-31 20 -46 37.5t-29.5 76t-14.5 158.5z" />
<glyph unicode="H" horiz-adv-x="1363" d="M256 -6q0 166 122 870.5t167 775.5q45 74 80 74q14 0 14 -57q0 -78 -40 -370t-40 -369q0 -57 14 -58q4 0 34 11.5t145.5 50.5t289.5 90q152 47 179 69q31 25 84 183q45 147 73.5 197t63.5 50t34 -71q0 -111 -100 -606q-33 -162 -55.5 -286t-33.5 -188.5t-18 -108.5 t-9.5 -58.5t-3.5 -25.5t-3 -22q-6 -29 -27.5 -46t-34.5 -20t-24 -3q-49 0 -49 96q0 88 54.5 383t54.5 363q0 16 -4 16q-16 0 -79 -26.5t-192 -80t-256 -98.5l-186 -65l-68 -371q-37 -209 -65.5 -312.5t-65.5 -103.5q-55 0 -55 117z" />
<glyph unicode="I" horiz-adv-x="1202" d="M274 47q0 43 26 54.5t69 11.5q80 0 192 47l111 47l63 383q63 389 111 606l47 219l-64 -16q-106 -29 -200 -29q-109 0 -109 39q0 29 76 60.5t201 68.5t157 49q27 10 136 10q139 0 176 -14q29 -10 28 -53q0 -45 -44 -64.5t-146 -31.5l-64 -9l-71 -356q-127 -635 -127 -793 q0 -37 8 -36q2 0 13 7t30.5 15t40.5 8q29 0 48 -13t19 -38q0 -29 -27.5 -56.5t-78.5 -52t-106.5 -45t-129.5 -47.5q-16 -6 -24 -8q-133 -47 -186 -47q-33 0 -104 20.5t-71 63.5z" />
<glyph unicode="J" horiz-adv-x="1411" d="M311 498q0 68 35 107.5t92 39.5q41 0 56.5 -12t15.5 -45q0 -29 -12.5 -95.5t-12.5 -109.5q0 -72 37 -164q41 -94 64.5 -131t46.5 -37q25 0 55 31q53 53 155.5 351t162.5 579l22 108q20 102 21 137q0 61 -60 62q-47 0 -260 -51t-260 -51q-37 0 -45 20q-14 37 -8 57 q10 45 129 84t499 125l512 121q12 0 45 -26.5t33 -49.5q0 -33 -85 -64.5t-187 -57t-123 -40.5q-23 -16 -65 -217l-19 -90q-43 -205 -132 -498.5t-142 -410.5q-51 -106 -124 -192.5t-114 -86.5q-51 0 -109.5 35t-58.5 64q0 47 -20 61q-29 23 -86.5 184.5t-57.5 262.5z" />
<glyph unicode="K" horiz-adv-x="1595" d="M274 -20q0 150 85 679t155 857q31 145 51 170q14 16 39 16q20 0 41 -18.5t21 -63.5q0 -76 -40 -287t-44 -295l-7 -114l246 215q250 215 281 215q25 0 90 53t90 53t78 39t92 39q31 0 50.5 -17.5t19.5 -47.5q0 -39 -23.5 -56.5t-85.5 -34.5q-68 -18 -270.5 -171.5 t-375.5 -312.5t-173 -191q0 -14 303 -197q104 -63 188 -117.5t122 -82t67 -48t41 -27t26 -6.5q35 0 100.5 -68.5t65.5 -103.5q0 -12 -9 -27.5t-21 -15.5q-39 0 -169 51.5t-186 88.5q-117 80 -348 212t-252 132q-31 0 -44 -159t-38.5 -316.5t-87.5 -157.5q-43 0 -60.5 25.5 t-17.5 89.5z" />
<glyph unicode="L" horiz-adv-x="1449" d="M289 98q0 125 100 699.5t137 742.5q0 4 3 16.5t5.5 20.5t6.5 17.5t12 14.5t18 5q25 0 41.5 -30.5t16.5 -57.5q0 -109 -91.5 -673t-91.5 -642q0 -35 8.5 -51.5t18.5 -19.5t35 -3q53 0 255 44t382 88t186 44q33 0 47.5 -22.5t14.5 -42.5q0 -18 -50 -55q-76 -53 -408.5 -133 t-520.5 -80q-72 0 -98.5 19t-26.5 99z" />
<glyph unicode="M" horiz-adv-x="1488" d="M162 -70q0 152 157.5 900.5t194.5 785.5q35 39 84 39q27 0 41 -53.5t25 -194.5q14 -223 57 -402.5t78 -179.5t188.5 191.5t364.5 501.5q39 57 89 92t91 35q67 0 67 -112q0 -116 -111.5 -677t-111.5 -711q0 -18 1 -38.5t1 -28.5q0 -102 -75 -103q-33 0 -62 24t-29 60 q0 66 102.5 644.5t102.5 642.5q0 14 -2 14q-18 0 -108 -137q-104 -160 -271 -371q-59 -76 -158.5 -136.5t-164.5 -60.5q-16 0 -48 51.5t-59 127.5l-67 178l-113 -529q-84 -391 -127 -509.5t-100 -118.5q-37 0 -37 75z" />
<glyph unicode="N" horiz-adv-x="1697" d="M213 143q0 115 152.5 744t175.5 672q27 51 94 51q33 0 65 -23q23 -16 109 -190t86 -203q0 -18 25.5 -79.5t82 -212t111.5 -339.5q121 -420 191 -420q14 0 28.5 20.5t58.5 145.5t109 365q162 584 207 684q39 90 92 102q12 2 31 2q47 0 47 -53q0 -31 -8 -66.5t-29.5 -107.5 t-49.5 -157t-81 -257t-111 -366q-90 -315 -136 -406.5t-122 -91.5q-133 0 -217 106.5t-149 335.5q-33 111 -58.5 190t-35 102.5t-14.5 47t-7 62.5q-2 63 -89 263t-89 210q-2 4 -4 4q-20 0 -85 -217t-108 -418q-23 -106 -31 -184t-12 -97q-23 -104 -70.5 -199t-80.5 -95 q-43 2 -60.5 14t-17.5 61z" />
<glyph unicode="O" d="M244 483q0 227 140 460t310 335q141 86 183 86q27 0 95 55.5t103 55.5q39 0 71 27.5t81 27.5q119 0 183.5 -91t64.5 -255q0 -176 -74 -389t-172.5 -377t-196.5 -276.5t-149 -112.5q-31 0 -49 -33q-10 -18 -97.5 -33.5t-177.5 -15.5q-55 0 -86 13t-74 54 q-70 66 -112.5 197t-42.5 272zM399 532q0 -49 13 -137q45 -309 235 -309q51 0 119 25q78 29 215 180.5t172 251.5q31 86 82 198.5t82 186t31 112.5q0 68 -31 166.5t-47 108.5q-23 16 -74 16q-90 0 -244 -47q-162 -47 -287.5 -180t-203.5 -338q-61 -160 -62 -234z" />
<glyph unicode="P" horiz-adv-x="1333" d="M340 -68q0 84 68.5 565.5t103.5 645.5l45 219l-70 -43q-47 -29 -77 -29q-10 0 -20.5 11.5t-10.5 27.5q0 55 158 191q80 68 117.5 91t72.5 23q10 0 34.5 -3t53.5 -3q66 0 165 17.5t161 17.5q25 0 35 -2q72 -10 101.5 -14.5t81.5 -15.5t73.5 -24.5t49 -34t37 -50t9.5 -70.5 q0 -92 -56.5 -232.5t-89.5 -140.5q-29 0 -34 -39q-10 -47 -157 -159.5t-220 -126.5q-55 -14 -85 -34t-57.5 -29t-101.5 -9h-121l-57 -369q-55 -356 -103 -411q-39 -41 -67 -41q-39 0 -39 71zM637 889q0 -35 7 -43t42 -8q66 0 182.5 29.5t192.5 66.5q104 55 123 110 q16 45 108 140.5t92 156.5q0 96 -155 134q-98 24 -141 24h-3q-43 0 -196 -31q-115 -23 -147.5 -55.5t-57.5 -148.5q-47 -213 -47 -375z" />
<glyph unicode="Q" horiz-adv-x="1558" d="M203 406q0 154 84 360.5t188 353.5q147 211 363.5 310.5t572.5 123.5q53 0 92 -54t55.5 -117.5t16.5 -118.5q0 -266 -221 -693l-107 -209l60 -53q88 -80 146 -170t58 -139q0 -37 -36 -37q-23 0 -72 28.5t-76 57.5q-14 14 -113 96l-86 72l-55 -65q-104 -125 -239.5 -195 t-266.5 -70q-156 0 -252 97q-47 47 -79.5 172t-32.5 250zM358 393q0 -39 11 -110q23 -131 76 -183.5t163 -52.5q129 0 270.5 88t141.5 152q0 29 -54.5 99.5t-138.5 145.5q-47 41 -47 60q0 14 31 43t51 29q31 0 144 -89.5t133 -89.5q31 0 170 284t139 368q0 57 -59 133 q-39 53 -90.5 68.5t-225.5 15.5q-106 0 -135 -8q-74 -25 -224.5 -155t-160.5 -179q-12 -49 -43 -76q-25 -23 -88.5 -232.5t-63.5 -310.5z" />
<glyph unicode="R" horiz-adv-x="1302" d="M319 563q0 53 76 84l74 31l35 233q28 180 28 265v6q0 61 -20 61q-6 0 -27.5 -14.5t-48.5 -14.5q-51 1 -51 46q0 43 120 150.5t144 107.5q80 0 334 -33t301 -49q104 -35 105 -140q0 -72 -47.5 -153.5t-104.5 -138t-106.5 -103.5t-51.5 -55q-2 -14 -137 -91t-235 -124 q-84 -41 -84 -51q0 -4 71.5 -30t170 -69t149.5 -84q79 -65 99 -65h1q27 -2 75 -64.5t48 -95.5q-4 -55 -47 -55q-33 0 -100.5 40t-176 106.5t-206.5 109.5l-148 63l-67 -368q-18 -86 -37 -103q-16 -14 -43 -14q-47 0 -47 84q0 49 22.5 168t22.5 182q0 53 -14.5 83t-31 36 t-31 20.5t-14.5 38.5zM639 754l2 -9q29 0 167 69t196 112q72 53 166 182t94 162q0 23 -149.5 58.5t-262.5 35.5h-147l-11 -111q-4 -39 -29.5 -253t-25.5 -246z" />
<glyph unicode="S" horiz-adv-x="1185" d="M242 209q0 98 45 164.5t121 66.5q35 0 34 -39q0 -45 -46 -87t-46 -76q0 -18 4 -31q10 -45 41 -55.5t156 -10.5q104 0 159.5 12.5t114.5 49.5q92 57 120 91t44 116q8 41 8 49q0 31 -23.5 51t-94.5 57q-127 66 -168 66q-86 0 -229.5 144.5t-143.5 226.5q0 80 141.5 235.5 t317.5 230.5q76 35 270 35q86 0 127 -13t80 -52q61 -61 61 -117q0 -18 -8 -37.5t-18 -19.5q-16 0 -39 20.5t-46.5 44t-71.5 44t-112 20.5q-197 0 -369.5 -149.5t-172.5 -260.5q0 -113 368 -240q270 -90 271 -268q0 -76 -45 -162q-82 -160 -208 -221t-411 -80l-186 -12 l-31 115q-14 45 -14 92z" />
<glyph unicode="T" horiz-adv-x="1703" d="M369 1294q0 39 60 56.5t282 50.5q416 61 770 127q236 43 303 43q61 0 118.5 -23.5t57.5 -56.5q0 -35 -62.5 -57.5t-148.5 -22.5q-137 0 -299 -37l-166 -37l-6 -172q-6 -162 -73.5 -616.5t-71.5 -499.5q0 -6 -3.5 -28.5t-4.5 -30.5t-4 -25.5t-8 -25t-13 -17.5t-20.5 -13 t-26.5 -3q-49 0 -49 119q0 111 62 542t62 617q0 84 -12 105.5t-51 21.5q-16 0 -144 -20.5t-198 -20.5q-68 0 -145.5 -16.5t-100.5 -16.5q-47 0 -77.5 15.5t-30.5 41.5z" />
<glyph unicode="U" horiz-adv-x="1386" d="M360 322q0 215 43 541.5t80 494.5q27 125 66 151q33 23 49 23q27 0 27 -62q0 -23 -26 -223t-50.5 -472.5t-24.5 -469.5q0 -96 11 -121q27 -63 100.5 -63t198.5 69q137 76 231 191t186 317q129 274 129 494q0 72 -12 169.5t-12 117.5q0 23 8 39t19.5 24t25.5 12.5 t20.5 5.5t10.5 1q41 0 56 -58.5t20.5 -134.5t19.5 -98q4 -4 4 -21q0 -49 -29 -186q-55 -254 -153 -457t-198.5 -315.5t-210 -188t-182.5 -100.5t-120 -25q-61 0 -136 33t-112 76q-39 47 -39 236z" />
<glyph unicode="V" horiz-adv-x="1519" d="M434 1452q0 49 40 87t69 38q33 0 53 -66.5t37 -66.5q6 0 9 -5t3 -12.5v-15.5t-1 -16.5t-1 -10.5q0 -29 14.5 -99.5t40 -209.5t45.5 -293q68 -518 105 -518q16 0 161.5 234.5t219.5 382.5q106 215 251.5 442t186.5 227q10 0 24.5 -3t29 -17t14.5 -37q0 -39 -55.5 -139.5 t-168 -290t-184.5 -322.5q-90 -160 -289 -458q-111 -164 -160 -218.5t-83 -54.5q-68 0 -94.5 62.5t-63.5 302.5l-92 575q-45 270 -45 303t-33 94.5t-33 104.5z" />
<glyph unicode="W" horiz-adv-x="1798" d="M397 1241q0 51 23 156q18 86 53 86q47 0 65 -135.5t19 -483.5q0 -74 -1 -154.5t-1 -97.5q0 -295 23 -295q14 0 96 144.5t176 313.5t123 208q45 63 106 64q94 0 180.5 -147.5t112.5 -371.5q16 -133 41 -133q23 0 83 125t77 205q12 59 186 480t193 421q43 0 62.5 -12 t19.5 -45q0 -59 -121 -359l-221 -532q-59 -145 -105.5 -248.5t-62 -135.5t-24.5 -58.5t-17 -61.5q-10 -49 -36 -75.5t-56 -26.5q-45 0 -68 46t-33 92t-26 46q-8 0 -15.5 25.5t-7.5 60.5q0 96 -45 254t-86 207l-49 59l-92 -153q-68 -113 -128.5 -218.5t-99.5 -176t-73.5 -134 t-54 -102.5t-39 -72t-29.5 -48t-23.5 -26.5t-25 -14.5t-29.5 -3q-37 0 -49 23.5t-12 101.5v151q0 158 5 355.5t5 259.5q0 68 -3 125t-3 67q0 59 7 100.5t7 47.5q0 16 -13.5 37.5t-13.5 58.5z" />
<glyph unicode="X" horiz-adv-x="1558" d="M334 -18q0 45 265 389t265 381q0 61 -114.5 221t-229 317.5t-114.5 212.5q0 20 16 36.5t35 16.5q35 0 100.5 -66.5t204.5 -236.5q254 -309 258 -309t123 146q102 127 250.5 257t187.5 130q47 0 47 -31q0 -63 -172 -213q-72 -61 -211 -264l-143 -203l69 -98 q45 -61 139.5 -170t148.5 -184.5t54 -123.5q0 -41 -39.5 -60t-62.5 -19q-33 0 -77 46t-156 195l-193 256l-88 -104q-61 -76 -131 -169t-109 -144.5t-49 -57.5q-12 -10 -52 -64.5t-84 -92t-91 -37.5t-47 43z" />
<glyph unicode="Y" horiz-adv-x="1495" d="M457 1464q0 27 19.5 46.5t37.5 19.5q33 0 104.5 -79t258.5 -318q80 -102 149.5 -177t85.5 -75q23 0 47.5 16t60 60t69.5 89.5t98.5 134.5t123.5 165q25 31 42.5 80t25.5 86.5t24.5 65.5t38.5 28q14 0 51.5 -23.5t37.5 -52.5q0 -98 -186.5 -368.5t-309.5 -391.5 q-37 -35 -54.5 -53.5t-45 -58.5t-47 -71.5t-82 -133t-125.5 -203.5l-250 -397q-41 -66 -88 -66q-23 0 -41.5 19.5t-18.5 46.5q0 35 69 148.5t282 428.5l174 258l-265 344q-174 227 -230 309t-56 123z" />
<glyph unicode="Z" horiz-adv-x="1908" d="M340 1200q0 39 174 100.5t434 109.5t467 48q127 0 181.5 -28.5t54.5 -90.5q0 -88 -100.5 -227t-176.5 -203q-205 -170 -436 -415.5t-231 -288.5q0 -31 59 -48.5t149 -17.5q117 0 261.5 37t287.5 43q106 2 140 9.5t68 21.5t108 26q43 6 67 7q49 0 49 -37q0 -47 -43 -77 t-96 -30q-47 0 -124 -35.5t-189 -35.5q-111 -2 -303.5 -38t-366.5 -36q-117 0 -184.5 10t-91 26.5t-23.5 41.5q0 29 37 76t41 67q4 23 133 175.5t150 160.5q20 10 26 39q4 20 124 132t251 220q59 49 156.5 172t97.5 166q0 20 -41 26.5t-178 6.5q-145 0 -228 -13.5 t-181.5 -41t-203.5 -44.5q-168 -31 -184 -53q-14 -16 -45 -16t-60.5 17.5t-29.5 37.5z" />
<glyph unicode="[" horiz-adv-x="993" d="M336 -45q0 72 24.5 231.5t63.5 403.5t61 440q25 225 50.5 278.5t128.5 82.5q168 47 237 47q80 0 80 -41q0 -29 -21.5 -46.5t-44 -21.5t-67.5 -10q-100 -12 -138 -32.5t-75 -20.5q-33 0 -33 -11q0 -2 2 -4q4 -2 4 -34q0 -119 -72.5 -624t-72.5 -536q0 -41 13 -54t46 -13 q12 0 74.5 5t103.5 5q37 0 53.5 -6t16.5 -29q0 -33 -22 -55q-18 -18 -112.5 -30.5t-182.5 -12.5q-47 0 -62.5 1t-32 9t-19.5 25.5t-3 52.5z" />
<glyph unicode="\" horiz-adv-x="1419" d="M389 1319q0 55 55 55q29 0 52.5 -14t23.5 -37q-4 -29 71 -149.5t177 -292.5t147 -289q33 -94 58 -123q29 -37 89 -152.5t77 -171.5q12 -39 28.5 -75.5t26.5 -57t10 -32.5q0 -20 -25.5 -38t-48.5 -18q-59 0 -96 115q-29 80 -135 284.5t-127 251.5q-47 109 -127 238 t-135 213t-57 109q-4 35 -21 34q-14 0 -28.5 53.5t-14.5 96.5z" />
<glyph unicode="]" horiz-adv-x="1101" d="M352 -41q0 27 168 68q23 6 33 8l133 31l51 227q2 6 23 96q45 207 85 473t40 348q0 74 -68 74q-37 0 -110.5 -18.5t-90.5 -18.5q-14 0 -23 7.5t-12 15.5t-1 12q4 16 50 46t81 38q55 10 143 10q117 0 131 -12q12 -8 12 -76q0 -289 -155 -1028l-60 -278l-51 -23 q-68 -25 -233 -25q-145 0 -146 25z" />
<glyph unicode="^" horiz-adv-x="915" d="M399 1198q0 12 23.5 54t42.5 59q20 18 90 102t130.5 149.5t80.5 65.5q33 0 142.5 -150.5t109.5 -207.5q0 -16 -11.5 -38t-27.5 -22q-25 0 -60.5 41t-66.5 89.5t-63.5 89t-51 40.5t-46 -28.5t-83.5 -93.5q-14 -18 -22 -29q-68 -84 -95.5 -108.5t-56.5 -24.5q-35 0 -35 12z " />
<glyph unicode="_" horiz-adv-x="1224" d="M90 0q0 27 55 29q41 0 362.5 32.5t336.5 42.5q4 6 92 7q78 0 119 -3.5t53 -8.5t12 -15q0 -8 -2 -14q-6 -27 -22.5 -33t-102.5 -10q-199 -12 -407 -35q-314 -37 -406 -37q-90 0 -90 45z" />
<glyph unicode="`" horiz-adv-x="860" d="M522 1376q0 14 25.5 32.5t36.5 18.5q6 0 53 -52t93 -117.5t46 -94.5q0 -14 -11 -30.5t-26 -16.5q-39 0 -128 115t-89 145z" />
<glyph unicode="a" horiz-adv-x="1138" d="M236 154q0 137 68.5 218t209.5 150q156 76 266 76q49 0 78 -16.5t42 -34t23.5 -17.5t35 -21.5t28.5 -21.5q6 0 21.5 70t28 162t12.5 145q0 156 -91 156q-123 0 -315 -79t-225 -79q-20 0 -19 21q6 29 22.5 49t52.5 38.5t68.5 31t103.5 36t122 43.5q121 43 197 43 q133 0 178 -147q18 -66 18 -96q0 -55 -63 -375q-31 -156 -49.5 -261.5t-20.5 -133.5l-2 -27q-6 -29 -39 -61.5t-45 -32.5q-37 0 -37 100q0 31 4 82t4 61q0 16 -4 17q-6 0 -22 -23q-57 -70 -197.5 -149.5t-224.5 -79.5q-51 0 -115.5 19.5t-91.5 41.5q-22 22 -22 89v6z M334 174q0 -37 40 -58.5t79 -21.5q70 0 183.5 50.5t119.5 72.5q4 14 81.5 81t77.5 93q0 12 -8 27.5t-26.5 33t-61.5 29t-102 11.5q-170 0 -276.5 -107t-106.5 -211z" />
<glyph unicode="b" d="M313 88q0 23 65.5 414t76.5 557q16 338 63 557q16 76 51 104q37 31 56 31q24 0 24 -55q-1 -49 -27 -245t-34 -331q-14 -219 -23 -282l-14 -113l194 158q195 160 310 194q110 33 151 33q59 0 123 -58.5t64 -183.5q0 -160 -106.5 -350t-270.5 -323q-104 -86 -261 -164 t-224.5 -78t-142.5 47t-75 88zM477 193q0 -66 23.5 -96.5t54.5 -30.5q25 0 70 13t117.5 45t167 104.5t182.5 174.5q76 86 128 215.5t52 233.5q0 127 -98 127q-37 0 -105 -12q-45 -8 -165 -97.5t-222 -191.5q-82 -84 -143.5 -231.5t-61.5 -253.5z" />
<glyph unicode="c" horiz-adv-x="1165" d="M190 319q0 123 31 263q18 82 94 182q82 111 213 213t215 125q63 14 138 14q141 0 235 -85t94 -179q0 -43 -22 -76t-47 -33q-37 0 -37 54v14q0 51 -41 111q-20 29 -33.5 41t-72 26.5t-156.5 14.5q-78 0 -127 -29t-129 -117q-115 -125 -178.5 -241.5t-63.5 -254.5 q0 -41 12.5 -74.5t20.5 -45t35 -43.5q47 -57 74.5 -72.5t84.5 -15.5q88 0 192.5 57t180.5 124.5t148.5 125t105.5 57.5q27 0 19 -39q-4 -23 -66.5 -92.5t-153 -149t-210 -141t-218.5 -61.5q-92 0 -190 55q-76 43 -112 106.5t-36 165.5z" />
<glyph unicode="d" horiz-adv-x="1464" d="M217 285q0 246 185.5 482.5t398.5 309.5q86 31 117 31q53 0 163.5 -69.5t147.5 -135.5q43 -74 67 -74q2 0 2 1t2 1q16 10 76 269.5t123.5 536t85.5 313.5q39 63 94 63h56l-195 -842q-84 -365 -135 -613.5t-62.5 -335.5t-18.5 -148.5t-15 -93.5q-8 -45 -32 -71t-38 -31 t-25 -5q-57 0 -57 98q0 43 13.5 150.5t13.5 154.5q0 33 -6 33q-20 0 -84 -59q-287 -270 -541 -270q-49 0 -101.5 14t-108.5 46t-91 95.5t-35 149.5zM362 283q0 -29 7 -43q12 -37 81.5 -80t147.5 -43q76 0 167 48t228 157q98 78 149.5 131t58.5 69.5t7 34.5q0 72 -58 173.5 t-128 156.5q-106 80 -152 80q-41 0 -214 -139.5t-212 -204.5q-29 -47 -55.5 -157t-26.5 -183z" />
<glyph unicode="e" horiz-adv-x="1263" d="M207 406q0 182 72 315q66 123 230.5 263t283.5 140q33 0 96 -6q96 -8 134 -20.5t81 -50.5q47 -43 77.5 -109t30.5 -119q0 -80 -67.5 -120t-218.5 -72q-199 -43 -387 -54l-195 -10l-16 -82q-8 -35 -9 -75q0 -104 89 -211q84 -102 200 -103q88 0 199 54.5t194.5 120 t158 119.5t97.5 54q6 0 7 -10q0 -35 -79 -123t-145 -137q-258 -190 -471 -190q-145 0 -253.5 111.5t-108.5 314.5zM391 684q0 -18 45 -18q186 0 545 77q68 14 95.5 43t27.5 52q0 24 -70 102q-51 57 -78.5 72.5t-81.5 15.5q-102 0 -156 -19.5t-118 -78.5q-209 -190 -209 -246 z" />
<glyph unicode="f" horiz-adv-x="1277" d="M334 924q0 31 37 50t149 50l176 49l43 178q49 213 117 420q55 168 78.5 214t85.5 95q51 41 77.5 53.5t73.5 12.5q37 0 146 -10q84 -8 116.5 -23.5t71.5 -62.5q45 -57 45 -104.5t-44 -99.5t-64 -52q-16 0 -17 28q0 10 5.5 38t5.5 46q0 45 -31 72t-111 55q-66 20 -100 21 q-90 0 -160 -103q-39 -55 -117.5 -358t-78.5 -367q0 -25 10 -33t34.5 -8t105.5 14.5t132 14.5q57 0 58 -29q0 -35 -195 -90l-186 -51l-76 -326q-68 -287 -68 -397q0 -31 5.5 -65.5t5.5 -49.5q0 -112 -77 -112h-1q-51 0 -51 123q0 125 63.5 441t63.5 357q0 6 -9 7 q-25 0 -108.5 -21.5t-130.5 -21.5q-80 0 -80 45z" />
<glyph unicode="g" horiz-adv-x="1441" d="M246 393q0 145 30 203q27 55 114 172t151 182q55 57 188 134t229 106q100 31 224 31q137 0 224 -42t87 -132q0 -63 -58.5 -175t-72.5 -174q-10 -53 -96 -678l-60 -423l-84 -58q-70 -47 -127 -47q-106 0 -245.5 51t-237.5 120t-98 116q0 45 77.5 131t118.5 86 q29 0 35 -12.5t-1 -28.5t-23 -43q-10 -14 -15.5 -23.5t-11.5 -22.5t-9 -23.5t-3 -20.5q0 -53 63.5 -90t112.5 -37q31 0 93.5 -41t115.5 -41q18 0 34.5 3t27.5 9t20.5 12.5t15.5 15.5t10 16t7 16.5t4 14.5t4 11v6q31 145 42 253t12 184.5t7 113.5q23 162 23 189q0 20 -7 20 q-8 0 -39 -37q-68 -76 -202.5 -170t-216.5 -123q-91 -34 -195 -34h-6q-66 0 -99.5 16t-84.5 70q-45 49 -61.5 89t-16.5 105zM375 457q0 -96 42 -163t118 -67q125 0 293.5 114t293.5 284q72 98 142.5 242.5t70.5 199.5q0 14 -8 23q-37 24 -135 24h-8q-96 0 -166 -20 q-190 -51 -398 -239.5t-235 -311.5q-10 -47 -10 -86z" />
<glyph unicode="h" horiz-adv-x="1101" d="M209 27q0 41 22 149q31 139 79 500.5t92 646.5t77 330q33 43 56 43q32 0 32 -60q0 -44 -10 -124t-39 -277t-51 -365l-33 -241l55 80q61 92 253 241.5t245 149.5q55 0 104.5 -61.5t49.5 -120.5q0 -74 -88 -496q-82 -381 -101 -416q-12 -20 -37 -20q-16 0 -23 8t-7 35 q0 49 58 374.5t58 452.5q0 27 -2 37l-12 102l-141 -110q-119 -92 -221.5 -206t-145.5 -202q-31 -61 -74 -201.5t-80 -230.5t-69 -90q-8 0 -16.5 3t-19.5 21.5t-11 47.5z" />
<glyph unicode="i" horiz-adv-x="567" d="M264 61q0 45 60.5 426t91.5 527q26 126 65 153q35 25 56 25q35 0 34 -84q0 -127 -76.5 -578.5t-107.5 -482.5t-68 -31q-27 0 -41 13.5t-14 31.5zM569 1634q0 35 33 68t53 33q16 0 45 -23.5t29 -58.5t-24.5 -62.5t-57.5 -27.5q-29 0 -53.5 20t-24.5 51z" />
<glyph unicode="j" horiz-adv-x="954" d="M72 -352q0 78 39 173t77 95q29 0 29 -63q0 -33 -8 -82.5t-8 -79.5q0 -18 2 -23q8 -14 75.5 -26.5t135.5 -12.5q61 0 80 13q63 39 141 406.5t78 475.5v80q0 313 41 502q8 31 19 40t34 9q29 0 36 -14.5t7 -81.5q0 -299 -20.5 -526.5t-39 -316.5t-55.5 -234 q-35 -141 -60.5 -218t-54 -136.5t-69.5 -83t-90 -33t-133 -9.5q-96 0 -155.5 18.5t-59.5 47.5q0 27 -20.5 38t-20.5 42zM788 1602q0 35 33 62.5t56 27.5q6 0 15 -4.5t18.5 -18.5t9.5 -35q0 -33 -19.5 -67.5t-40.5 -34.5q-33 2 -52.5 22.5t-19.5 47.5z" />
<glyph unicode="k" horiz-adv-x="1062" d="M223 61q0 76 61.5 437.5t65.5 457.5q2 92 27.5 275.5t50.5 294.5q0 2 3 13t4 17.5t5 18.5t9.5 19.5t11.5 14.5t15.5 11t21.5 4q49 0 49 -70q0 -51 -15.5 -194t-35 -316.5t-25.5 -236.5l-10 -119l284 234q258 213 297 213q12 0 24.5 -16.5t12.5 -35.5q0 -20 -11 -31.5 t-51 -41t-83 -76.5q-82 -92 -207 -184.5t-204 -150.5t-85 -91q-6 -29 27 -47l197 -103q129 -68 214 -137t85 -110q0 -14 -12.5 -32t-39.5 -18q-37 0 -97 50.5t-79 50.5q-22 0 -22 18.5t-226 112.5l-98 41l-22 -170q-16 -117 -31 -155t-47 -38q-35 0 -49.5 19.5t-14.5 70.5z " />
<glyph unicode="l" horiz-adv-x="612" d="M336 102q0 53 16.5 174t60.5 436.5t85 635.5q14 118 49 288q33 158 59.5 241t43 105.5t38.5 22.5q29 0 28 -23q0 -49 -66 -525t-132.5 -923.5t-68.5 -459.5q-10 -45 -64 -45q-27 0 -38 14t-11 59z" />
<glyph unicode="m" horiz-adv-x="1728" d="M322 -98q0 80 75 438q51 238 78 435.5t39 254.5q27 119 57 119q23 0 23 -105q0 -37 -3 -112.5t-3 -102.5q0 -53 8 -53q4 0 19.5 25.5t34 57.5t28.5 40q27 27 78 100q61 88 87.5 107.5t84.5 19.5q63 0 121 -88q47 -74 47 -180q0 -59 -2 -98l-9 -193l62 123q88 178 212 307 t206 129q49 0 79.5 -55t30.5 -143q0 -90 -59 -379q-59 -283 -91 -406t-44.5 -143t-34.5 -25q-6 -2 -14 -2q-14 0 -15 23q0 27 75 388t75 503q0 110 -42 110h-1q-55 0 -178 -176q-102 -145 -194.5 -353t-150.5 -423q-14 -51 -26 -69.5t-33 -18.5q-25 0 -24 35q0 29 46 308 t46 402q0 113 -38 208.5t-73 95.5q-27 0 -77 -70t-173 -270q-53 -86 -74 -177q-10 -47 -39.5 -103t-82.5 -277q-49 -207 -66 -234q-14 -27 -39 -27q-27 0 -26 54z" />
<glyph unicode="n" horiz-adv-x="1267" d="M350 -2q0 41 14.5 136t40 276.5t46.5 375.5q25 236 41 314t57 78q26 0 26 -54q0 -49 -16 -221t-30.5 -323.5t-12.5 -155.5q8 -4 94 166q70 137 112 198.5t138 163.5q193 207 275 207q55 0 86 -72q39 -84 39 -155q0 -61 -32 -243.5t-63 -334.5l-30 -151 q-31 -145 -52.5 -181t-68.5 -38q-23 0 -23 24q0 16 39 177t79 369t40 341q0 39 -12.5 66.5t-24.5 39t-22 11.5q-43 0 -168 -145.5t-228 -309.5q-96 -154 -135 -231.5t-80 -208.5q-68 -209 -78 -209q-14 0 -39 35q-12 16 -12 55z" />
<glyph unicode="o" horiz-adv-x="1333" d="M197 332q0 47 20 149q53 250 291 439q190 150 311 197.5t289 47.5q170 0 231.5 -59t61.5 -174q0 -137 -70.5 -317.5t-190.5 -341t-247 -228.5q-156 -84 -307 -84q-213 0 -307 145q-82 125 -82 226zM352 371q0 -133 83 -213t224 -80q172 0 362.5 237.5t254.5 534.5 q6 31 6 49q0 49 -57.5 88t-120.5 39q-14 0 -31.5 -3t-57.5 -8t-95 -11q-72 -6 -119 -29t-125 -84q-158 -123 -241 -248t-83 -272z" />
<glyph unicode="p" d="M311 881q0 25 71 78t79 89.5t42 89t79 52.5q29 0 44 -32t40 -32q18 0 157.5 32t239.5 32q82 0 182 -23q166 -41 166 -190q0 -174 -229 -510q-123 -180 -263.5 -277.5t-277.5 -97.5q-39 0 -59 4l-93 15v-111q0 -188 -3 -287.5t-16 -149.5t-27.5 -58.5t-49.5 -8.5 q-47 0 -58 37t-11 184q0 246 46 633t46 424q0 45 -11.5 59.5t-35.5 14.5q-57 0 -58 33zM516 344q0 -61 29 -63q31 0 66.5 -26t64.5 -26q86 0 226 120t249 284t109 276q0 45 -15.5 79t-30.5 40q-31 14 -118 14q-190 0 -348 -47l-146 -45l-24 -131q-61 -354 -62 -475z" />
<glyph unicode="q" horiz-adv-x="1355" d="M170 338q0 193 111.5 387.5t298 322.5t385.5 128q57 0 102 -24t45 -77q0 -63 -107.5 -356t-107.5 -363q0 -27 14 -26q25 0 133 86q88 72 177.5 120t130.5 48q18 0 18 -19q0 -23 -170 -161t-190 -138l12 -6q12 -6 29.5 -17.5t27.5 -25.5q37 -49 48.5 -64.5t21.5 -38 t10 -44.5q0 -27 -39 -199q-10 -47 -20 -78t-14.5 -42t-23 -42t-28.5 -47q-45 -78 -87 -118t-64.5 -46t-55.5 -6q-43 0 -63.5 9.5t-35.5 57.5t-15 146q0 123 20 340l29 320l-156 -111q-178 -127 -272 -127q-164 0 -164 211zM289 371q0 -133 80 -133q68 0 220 131t206 209 q45 66 109.5 218t80.5 175q20 33 21 61q0 39 -41 39q-266 -18 -471 -225t-205 -475zM836 -131q0 -102 13 -175t32 -73q10 0 32.5 36t49 83t38.5 61q2 2 3 2q10 8 14 64q4 31 6 51q4 39 9 69.5t8 44t3 21.5q0 23 -34.5 68t-77.5 45q-96 0 -96 -297z" />
<glyph unicode="r" horiz-adv-x="1077" d="M266 -14q0 98 67.5 548.5t100.5 507.5q35 66 72 66q22 0 22 -33l-4 -31q-4 -29 -10 -77.5t-13 -107t-11.5 -127t-4.5 -128.5q0 -53 7 -53q14 0 100 113q100 133 240.5 232t226.5 99q33 0 54.5 -19.5t21.5 -35.5q0 -25 -88 -57q-139 -51 -312.5 -247t-240.5 -378 q-76 -205 -110 -270.5t-69 -65.5q-49 0 -49 64z" />
<glyph unicode="s" horiz-adv-x="1007" d="M195 84q0 39 17 62.5t36 23.5q31 0 45 -57q14 -51 79.5 -92t131.5 -41q90 0 186 114.5t96 169.5q0 86 -90 121q-39 14 -91 39t-87 41t-45 16q-12 0 -54 27t-86 78t-44 100q0 80 140 218t296 175q72 18 182 19q47 0 67.5 -12.5t49.5 -55.5q43 -63 43 -96q0 -4 -2 -9 t-10 -11.5t-21 -6.5q-27 0 -44 15.5t-26.5 33t-36 33t-71.5 15.5q-72 0 -161 -39t-169 -109q-72 -63 -96 -91t-24 -50q0 -35 46 -80t150 -84q158 -57 219.5 -106.5t61.5 -122.5q0 -45 -22.5 -115t-51.5 -115q-39 -59 -128 -133t-159 -74q-55 0 -139 17.5t-125 40.5 q-27 14 -45 56t-18 85z" />
<glyph unicode="t" horiz-adv-x="1062" d="M344 1161q0 47 77 74t180 44.5t134 35.5q43 27 71 270.5t42 276t35.5 52t40.5 19.5q29 0 28 -30q0 -33 -16 -169q-16 -138 -32 -256q-14 -105 -13 -120q0 -4 6 -4q16 0 98 17.5t133 17.5q92 0 93 -39q0 -31 -57.5 -53.5t-188.5 -53.5l-109 -24l-59 -347 q-59 -346 -96 -704q-16 -152 -28.5 -190.5t-53.5 -38.5q-51 0 -51 108q0 49 16 127q16 76 26.5 155t30 246.5t43.5 342.5q8 61 17.5 120.5t12.5 84t3 34.5q0 16 -8 17q-33 0 -163 -23t-161 -23q-51 0 -51 33z" />
<glyph unicode="u" horiz-adv-x="1241" d="M233 123q0 229 76 605t140 376q6 0 15 -3t20.5 -19.5t11.5 -43t-20.5 -97.5t-31.5 -118q-33 -152 -63.5 -378t-30.5 -318q0 -98 53 -98q47 0 162 84q139 104 296 325t247 443q86 215 117 231q23 14 47 14q39 0 39 -41q0 -23 -36 -124t-80 -231t-60 -204 q-20 -102 -21 -209q0 -61 7 -156t7 -124q0 -25 -4 -49q-4 -20 -23.5 -32.5t-31.5 -15.5t-18 -3q-37 0 -50.5 104t-19.5 208.5t-25 104.5q-4 0 -8 -2t-10 -7t-12 -11t-15.5 -16.5t-15.5 -18.5t-19.5 -24.5t-23.5 -26.5q-121 -141 -251 -235.5t-206 -94.5q-90 0 -126 42 t-36 163z" />
<glyph unicode="v" horiz-adv-x="1208" d="M403 1040q0 51 4.5 65.5t20.5 14.5q12 0 21 -2q57 -10 91.5 -264t51 -504t26.5 -250q23 0 129.5 151.5t174.5 278.5q49 90 113.5 204t97 173.5t38.5 89.5q10 47 49.5 94.5t77.5 47.5q37 0 37 -35q0 -49 -94 -226.5t-330 -580.5q-82 -141 -187.5 -260t-148.5 -119 q-25 0 -42 20.5t-29 61.5t-21.5 89t-15.5 120t-11 134.5t-11.5 151.5t-12.5 154q-29 309 -29 391z" />
<glyph unicode="w" horiz-adv-x="1425" d="M319 1047q0 27 25 56.5t43 29.5q23 0 42.5 -34t19.5 -89q0 -35 -8.5 -112t-8.5 -107q0 -29 6 -48q10 -25 13.5 -173t6.5 -282t13 -134q2 0 37 57t80 136t69 130q92 178 160 178q37 0 107.5 -90t87 -159.5t47.5 -122.5l26 -41l33 59q8 16 166 391t207 422q14 14 35 14 q18 0 31.5 -13t13.5 -32q0 -12 -16.5 -41.5t-64.5 -130t-104 -249.5q-59 -154 -162.5 -368t-129.5 -235q-18 -16 -56 -8q-23 2 -53.5 77t-97.5 286q-6 23 -36 64.5t-42 41.5q-10 0 -21.5 -12t-34 -50t-49 -85t-81 -139.5t-113.5 -188.5q-61 -100 -107 -100q-37 0 -49 96 t-12 276v111q0 166 -6 260t-6 111q0 57 5 81.5t5 43.5q0 29 -10.5 68.5t-10.5 54.5z" />
<glyph unicode="x" horiz-adv-x="1193" d="M272 29q0 10 16.5 35.5t43 59.5t48 60.5t47.5 55t28 30.5l194 224l-69 96q-10 16 -85 109.5t-115 160t-40 111.5q0 33 30.5 69.5t57.5 36.5q35 0 43 -55q6 -39 134 -221.5t151 -182.5q8 0 133 148l192 233q61 74 97 74q16 0 30.5 -18.5t14.5 -36.5q0 -25 -64.5 -87.5 t-87.5 -107.5q-12 -29 -71.5 -100.5t-111.5 -133t-52 -71.5q0 -12 140 -174t142 -190q4 -25 -9 -54.5t-48 -29.5q-47 0 -84 55q-43 59 -139.5 160.5t-110.5 101.5q-20 0 -190 -199q-171 -198 -223 -198h-1q-12 0 -26.5 12t-14.5 27z" />
<glyph unicode="y" horiz-adv-x="1077" d="M231 324q0 66 52 307q51 231 84.5 316t76.5 85q27 0 27 -33q0 -37 -59.5 -297t-59.5 -350q0 -76 39 -76t147.5 96.5t163.5 180.5q68 102 128.5 246.5t99.5 220.5t84 76q18 0 32.5 -13.5t14.5 -35.5q0 -35 -38 -110t-94.5 -211t-88.5 -294q-20 -90 -21 -125l2 -59l72 33 q53 22 82 22h2q45 0 45 -31q0 -53 -104 -102l-95 -43l-39 -229q-14 -90 -38.5 -181.5t-42 -142.5t-25.5 -59q-20 -25 -57 -25q-43 0 -121 37q-45 23 -66.5 49.5t-36.5 77.5q-20 70 -20 135q0 47 10 81t20.5 50.5t43 55t53.5 67.5q27 35 73 58.5t60 35.5q20 16 37.5 26.5 t22.5 14.5t8 15v8q2 6 3 16t2 23.5t2 29t1 27.5q0 57 -17 57q-12 0 -66.5 -50t-130 -100t-141.5 -50q-68 0 -97.5 56t-29.5 114zM483 -236q0 -39 41 -92t68 -53q31 0 61 143q8 41 9.5 98.5t3.5 78.5l12 122l-76 -88q-119 -139 -119 -209z" />
<glyph unicode="z" horiz-adv-x="1132" d="M287 840q0 57 253 145t318 98q27 6 62 7q55 0 106 -15.5t66 -38.5q10 -12 10 -45q0 -121 -117 -293l-63 -94l73 -10q86 -6 86 -27q0 -18 -54 -39.5t-109 -27.5q-57 -8 -93.5 -26.5t-95.5 -70.5q-61 -53 -144 -154.5t-89 -127.5q-2 -8 8 -8q6 0 189.5 33.5t289.5 33.5 q100 0 100 -30q0 -25 -46 -42.5t-177 -41.5q-401 -76 -485 -76q-61 0 -62 28q0 37 107.5 179.5t150.5 183.5q70 66 70 78q0 14 -82 14q-94 0 -94 29q0 27 53 44t127 17t99.5 8.5t58.5 42.5q74 84 131 190.5t57 158.5q0 14 -11 18t-44 4q-98 -2 -285.5 -55t-234.5 -94 q-35 -29 -64 -29q-23 0 -44 9t-21 24z" />
<glyph unicode="{" horiz-adv-x="645" d="M250 6q0 47 39 256l49 244l-31 4q-31 6 -26 27q4 18 20 32.5t34.5 27.5t44.5 71.5t46 154.5q23 100 34 186.5t19 125.5t35 84l37 67l45 -8q49 -4 49 -37q0 -29 -24 -29q-14 0 -16.5 12.5t-4.5 12.5q-4 0 -16.5 -14.5t-26.5 -44t-22 -62.5q-4 -18 -16.5 -113.5 t-31.5 -179.5q-29 -139 -59.5 -197.5t-30.5 -62.5v-10t-2 -26.5t-6 -49.5t-14 -86t-25 -125q-45 -211 -41 -241q10 -41 70 -41q14 0 28.5 7t24.5 7q16 0 12 -21q-12 -59 -73 -59h-9q-53 0 -82.5 33t-29.5 55z" />
<glyph unicode="|" horiz-adv-x="745" d="M309 -215q0 47 132 721t132 682q0 2 48 160q40 135 67 141q41 10 45 10t4 -2q2 -20 -161.5 -807.5t-180.5 -834.5q-31 -84 -67 -84q-18 0 -19 14z" />
<glyph unicode="}" horiz-adv-x="690" d="M233 -76q0 16 10.5 36t24.5 20q6 0 16.5 -11.5t18.5 -11.5q27 0 63.5 139.5t75.5 306t64 207.5l29 49l-33 19q-62 37 -62 115q0 63 57.5 265t57.5 224q0 25 -14.5 42t-14.5 28q0 27 31 26q10 0 24.5 -4t34 -23.5t19.5 -52.5q0 -39 -57.5 -222t-57.5 -257 q0 -47 17.5 -68.5t64.5 -21.5q53 0 53 -24q0 -18 -15 -33t-36.5 -35.5t-53.5 -101t-61 -209.5q-4 -25 -14 -74t-17 -83t-18.5 -79t-25 -75.5t-30.5 -59.5t-42 -43t-53 -14q-55 0 -56 26z" />
<glyph unicode="~" horiz-adv-x="1255" d="M512 1307q0 43 111.5 122.5t181.5 79.5q53 0 105.5 -27.5t99.5 -65.5t63 -46l41 -20l64 49q39 31 71.5 69.5t51 57t36.5 18.5q31 0 31 -18q0 -45 -101.5 -142.5t-168.5 -97.5q-47 0 -155.5 76t-158.5 76q-31 0 -75.5 -30t-53 -30t-56.5 -46t-71 -46q-16 1 -16 21z" />
<glyph unicode="&#xa1;" horiz-adv-x="1052" d="M420 -31q0 31 18.5 48.5t22.5 39.5q27 123 33 144q25 74 49 155.5t35.5 122.5t24.5 78t25.5 50.5t28.5 13.5q25 0 25 -48q0 -2 -1 -12t-1 -27.5v-39.5q0 -98 11 -224.5t11 -163.5q0 -20 -4 -57l-10 -76l-74 -8q-33 -2 -89 -9t-70 -7q-35 0 -35 20zM606 965q0 29 26.5 54 t47.5 25q8 0 46 15.5t54 15.5q59 0 60 -119q0 -63 -28 -96t-99 -33q-31 0 -45 9q-20 8 -41 52t-21 77z" />
<glyph unicode="&#xa2;" horiz-adv-x="1165" d="M190 319q0 123 31 263q18 88 85 173t162 150.5t158.5 102t131.5 69.5q0 8 2 18.5t6 28t6 29.5q29 131 41 160.5t33 29.5q8 0 12 -2t8 -17t4 -48q0 -61 -12 -160h23q141 0 235 -85t94 -179q0 -43 -22.5 -76t-46.5 -33q-37 0 -37 54v14q0 51 -41 111q-18 27 -30.5 39 t-60.5 26t-128 17q-12 -76 -44 -265.5t-63.5 -375t-36.5 -207.5q88 45 187.5 127t167 137t102.5 55q27 0 19 -39q-8 -37 -131 -157.5t-203 -169.5q-92 -57 -168 -89q-10 -39 -23.5 -106.5t-24 -99t-24.5 -43.5q-23 -20 -39 -21q-20 0 -6 74q2 12 6 41q16 78 25 131 q-41 -4 -60 -4q-92 0 -190 55q-76 43 -112 106.5t-36 165.5zM303 362q0 -41 12.5 -74.5t20.5 -45t35 -43.5q47 -57 74.5 -72.5t84.5 -15.5q33 0 78 10q115 649 146 878q-20 -4 -37 -10t-39.5 -20.5t-34.5 -22.5t-48 -35.5t-54 -42.5q-76 -55 -125 -130.5t-64.5 -126 t-34.5 -130.5q-14 -70 -14 -119z" />
<glyph unicode="&#xa3;" horiz-adv-x="1351" d="M229 10q0 27 27 64t51 61l27 25q10 14 19 25.5t13.5 16.5t11.5 20.5t19 47.5q53 135 58 152l32 160l45 194q-68 -10 -90 -10q-31 0 -73.5 15.5t-42.5 33.5q0 16 30 27l142 39q31 8 59 12q4 31 11 103.5t14.5 105.5t31 80t64.5 80q154 121 249 158.5t230 37.5 q137 0 187.5 -49t50.5 -145q0 -68 -17 -105q-4 -10 -18 -22.5t-25.5 -18.5t-13.5 -6q-18 0 -23.5 39t-7.5 86t-14 59q-55 51 -121 52q-10 0 -24.5 -2.5t-46 -7.5t-76.5 -9q-57 -8 -95.5 -25.5t-99.5 -64.5q-51 -41 -79.5 -90t-36 -74.5t-10.5 -93.5t-5 -80h31q37 0 64.5 2 t82.5 2q92 0 92 -43q0 -10 -9 -20.5t-33.5 -20.5t-59.5 -10q-20 0 -53 -4t-43 -4q-70 -4 -92 -10l-21 -95q-53 -252 -99 -381t-110 -211q35 0 92.5 24t59.5 24q45 4 61 4q127 0 235.5 -33t204.5 -33l66 6q-4 -12 -12.5 -30.5t-50 -48t-103.5 -29.5q-92 0 -350 51 q-113 -2 -209 -34t-113 -32q-84 0 -84 35z" />
<glyph unicode="&#xa4;" horiz-adv-x="1390" d="M365 647q0 33 217 201q-25 74 -25 168q0 131 80 229q-45 51 -86 113.5t-41 81.5q0 14 25.5 32.5t35.5 18.5q4 0 27 -24.5t56.5 -65.5t60.5 -78q20 20 42.5 36.5t40 28t42 22.5t38 16.5t41 13.5t36 10t39 8t36.5 8q27 0 83 -36.5t99 -83.5q41 37 92.5 77.5t85 65 t37.5 24.5q12 0 26.5 -15t14.5 -30q0 -18 -79.5 -88.5t-131.5 -109.5q19 -47 19 -88q0 -70 -32 -171.5t-91 -176.5q45 -49 86 -112t41 -81q0 -14 -25.5 -32.5t-35.5 -18.5q-4 0 -28 25.5t-59.5 67.5t-60.5 79q-113 -82 -217 -82q-55 0 -119.5 27.5t-105.5 68.5 q-41 -37 -95.5 -80t-90 -68.5t-40.5 -25.5q-12 0 -25 15.5t-13 29.5zM647 985q0 -78 41 -129q70 -80 205 -80q74 0 117 29q84 61 132 170.5t48 210.5q0 16 -2 31.5t-5 24.5t-7.5 17.5t-8.5 12.5t-9 8t-8 5t-7 1l-2 2q-41 25 -41 37q0 10 -31 22.5t-59 12.5q-2 0 -16.5 -2 t-22.5 -1t-6 9q2 14 -10.5 14t-41 -9t-75.5 -35.5t-89 -67.5t-72 -116t-30 -167z" />
<glyph unicode="&#xa5;" horiz-adv-x="1495" d="M426 307q0 6 4 28.5t4 39.5v10q106 2 202.5 7t129.5 5h45l63 92q-61 -2 -108 -4t-66.5 -4t-33 -3t-19.5 -1q-4 0 -65.5 15.5t-61.5 19.5l4 8q2 8 6.5 18.5t7.5 23.5t1 22h63q80 0 146.5 -5.5t91.5 -5.5q23 0 88 -4l80 119l-265 344q-174 227 -230 309t-56 123 q0 27 19.5 46.5t37.5 19.5q33 0 104.5 -79t258.5 -318q80 -102 149.5 -177t85.5 -75q23 0 47.5 16t60 60t69.5 89.5t98.5 134.5t123.5 165q25 31 42.5 80t25.5 86.5t24.5 65.5t38.5 28q14 0 51.5 -23.5t37.5 -52.5q0 -98 -186.5 -368.5t-309.5 -391.5q-53 -53 -79 -86 t-81 -121q37 0 123 13.5t139 13.5q94 0 95 -41q0 -18 -28 -35.5t-75 -17.5q-23 0 -58.5 4t-45.5 4q-20 0 -86 -3t-105 -5l-65 -107h28q37 0 125 14.5t143.5 14.5t92.5 -13.5t37 -30t-47.5 -33.5t-90.5 -17q-20 0 -85.5 -3.5t-75.5 -3.5q-6 0 -176 -6l-289 -458 q-41 -66 -88 -66q-23 0 -41.5 19.5t-18.5 46.5q0 61 269 458q-145 -2 -213 -13t-86 -11q-27 0 -27 20z" />
<glyph unicode="&#xa6;" horiz-adv-x="745" d="M309 -217q0 72 119 653q4 12 26.5 24.5t43.5 12.5q25 0 24 -24q0 -4 -8 -54l-20 -98q-90 -420 -99 -442q-31 -84 -67 -84q-18 0 -19 12zM504 821q70 358 69 367q0 2 48 160q41 135 67 141q41 10 45 10t4 -2q0 -45 -135 -680z" />
<glyph unicode="&#xa7;" horiz-adv-x="1150" d="M195 84q0 39 17 62.5t36 23.5q31 0 45 -57q14 -51 79.5 -92t131.5 -41q90 0 186 114.5t96 169.5q0 86 -90 121q-39 14 -91 39t-87 41t-45 16q-12 0 -54 27t-86 78t-44 100q0 80 128 213t285 170l-43 29l-55 53q-20 35 -20 115q0 82 71 198q35 59 124 133t161 74 q55 0 139 -17.5t125 -39.5q27 -14 46.5 -57.5t19.5 -86.5q0 -39 -17.5 -61.5t-35.5 -22.5q-31 0 -46 58q-14 51 -79.5 92t-130.5 41q-90 0 -186.5 -114.5t-96.5 -170.5q0 -86 90 -121q39 -14 91 -38.5t87 -41t45 -16.5q12 0 54 -26.5t86.5 -77.5t44.5 -101q0 -78 -152 -209 t-283 -161q-10 -4 -10 -6q0 -4 16.5 -12.5t38 -18.5t29.5 -17l57 -81l5 -101q-35 -121 -68 -172q-39 -59 -128 -133t-159 -74q-55 0 -139 17.5t-125 40.5q-27 14 -45 56t-18 85zM406 707q0 -39 34.5 -68t67.5 -39l35 -10l96 -29q94 0 197.5 64.5t166 135t68.5 105.5 q-6 33 -40 61.5t-64 39.5l-29 12l-92 16q-160 0 -320 -139q-14 -12 -43.5 -34.5t-41 -34t-23.5 -34t-12 -46.5z" />
<glyph unicode="&#xa8;" horiz-adv-x="727" d="M418 1393q0 51 24.5 92t65.5 41q33 0 108 -60q-29 -59 -61.5 -96t-53 -46t-34.5 -9q-49 0 -49 78zM723 1382q0 51 24.5 92.5t65.5 41.5q37 0 109 -60q-29 -59 -62 -96t-53.5 -46t-34.5 -9q-49 -1 -49 77z" />
<glyph unicode="&#xa9;" horiz-adv-x="1497" d="M268 338q0 47 21 149q53 250 291 439q190 150 311 197.5t289 47.5q170 0 231.5 -59t61.5 -174q0 -137 -72 -318.5t-191.5 -341t-246.5 -227.5q-156 -84 -306 -84q-213 0 -307 146q-82 125 -82 225zM358 399q0 -143 111 -242.5t262 -99.5q172 0 367.5 213t255.5 494 q27 152 26 162q0 41 -18 63q-33 33 -85 59.5t-91 26.5q-8 0 -32 4t-44 4q-182 0 -405 -180q-158 -123 -252.5 -244.5t-94.5 -259.5zM532 440q0 55 15 121q4 23 35.5 73t84 109.5t136.5 103.5t172 44q86 0 142.5 -51.5t56.5 -108.5q0 -27 -14.5 -45t-29.5 -18 q-4 0 -24.5 -5.5t-28.5 -5.5q-10 0 -11 7.5t-4 27t-18 39.5q-4 4 -4 29q0 35 -90 35q-51 0 -83.5 -16.5t-78.5 -65.5q-55 -59 -73.5 -97t-32.5 -104q-10 -51 -10 -67.5t4 -25.5t15 -20.5t18 -17.5q27 -33 35 -37t40 -4q23 0 43.5 -4t28.5 -4q31 0 104.5 63.5t112.5 63.5 q14 0 0 -58q-10 -45 -118.5 -114.5t-188.5 -69.5q-57 0 -117 33q-39 23 -60.5 41t-39 57t-17.5 92z" />
<glyph unicode="&#xaa;" horiz-adv-x="1138" d="M182 602q111 2 242 18.5t160 16.5q35 0 116.5 -5t114.5 -5h219q92 0 92 -43q0 -10 -9 -20.5t-33.5 -21t-59.5 -10.5q-20 0 -57 4.5t-47 4.5q-29 -2 -89 -2q-53 0 -163.5 4t-163.5 4q-94 0 -149.5 -10.5t-84.5 -10.5q-86 0 -88 76zM426 924q0 109 53 173t170 122 q119 61 213 61q31 0 52.5 -8t29.5 -19.5t16.5 -19.5t16.5 -8q6 0 26.5 -17.5t22.5 -17.5q6 0 18.5 52t22.5 127t10 124q0 123 -71 123q-100 0 -254 -62.5t-179 -62.5q-18 0 -16 16q4 23 17.5 39.5t43 30.5t55 24.5t83 29t98.5 34.5q90 35 154 35q51 0 86.5 -25.5t49 -63.5 t18.5 -62.5t5 -43.5q0 -45 -51 -299q-25 -125 -39 -209t-16 -106l-2 -23q-6 -23 -32 -49t-36 -26q-29 0 -28 77q0 25 3 69t3 52q0 10 -2 10t-21 -18q-45 -55 -156.5 -119.5t-179.5 -64.5q-41 0 -93 15t-73 34q-18 18 -18 76zM506 940q0 -27 31.5 -45t62.5 -18 q57 0 147.5 39.5t94.5 58.5q2 10 65.5 62.5t63.5 74.5q0 14 -10.5 31.5t-49.5 34t-100 16.5q-135 0 -220 -86t-85 -168z" />
<glyph unicode="&#xab;" horiz-adv-x="974" d="M319 795q0 39 148 149l229 174q102 78 129 78q20 0 21 -27q0 -10 -5 -19t-19.5 -22.5t-31 -24.5t-52.5 -38t-68 -53l-160 -125q-88 -70 -88 -92q0 -31 67.5 -135.5t110.5 -135.5q29 -20 52.5 -51t23.5 -45q0 -10 -23 -30.5t-37 -20.5q-4 0 -6 1t-3 4t-5 9t-11 14.5 t-22.5 23.5t-38.5 34q-78 63 -144.5 169.5t-66.5 162.5zM532 760q0 43 125 161.5t232 184.5q29 18 51.5 33.5t32.5 23.5t17 14.5t9 9.5t5.5 4t7.5 1q12 0 26.5 -16.5t14.5 -28.5q0 -27 -119 -100q-66 -39 -180.5 -149t-114.5 -128q0 -29 51 -88l107 -125q18 -20 38.5 -44 t32 -36t21.5 -24.5t14 -21.5t4 -17q0 -12 -9 -26.5t-24 -14.5q-29 0 -98 78l-153 174q-90 96 -91 135z" />
<glyph unicode="&#xac;" horiz-adv-x="1277" d="M240 420q0 27 30 82q14 43 43 145.5t39 136.5q2 6 3 25.5t3 28.5q10 47 52 47q33 0 32 -37q0 -27 -24.5 -80t-28.5 -68l-59 -219q25 0 83 -10t62 -10q84 -6 288 -14.5t271 -12.5q10 0 49 4t60 4q82 0 82 -43q0 -10 -9.5 -20t-37 -20.5t-66.5 -10.5q-55 0 -140 18.5 t-122 18.5l-236 -10l-139 16l-137 10q-18 2 -35.5 3.5t-28 2.5t-19.5 1t-12 3t-3 9z" />
<glyph unicode="&#xad;" horiz-adv-x="1906" d="M387 684l33 104q23 72 60.5 92.5t183.5 34.5q184 19 608 19h41q360 0 461.5 -16.5t101.5 -96.5q0 -68 -158.5 -88t-627.5 -33z" />
<glyph unicode="&#xae;" horiz-adv-x="1722" d="M334 764q0 135 57.5 240.5t151.5 167t202.5 92t221.5 30.5q377 0 600 -364q10 -14 28.5 -44t26.5 -44.5t18.5 -38t14.5 -46t4 -50.5q0 -43 -17 -125q-47 -231 -262 -275q-53 -10 -181 -54t-193 -44q-109 0 -199 20.5t-141.5 41t-104.5 65.5t-65.5 60.5t-46.5 58.5 q-115 143 -115 309zM432 803q0 -106 45 -208.5t133 -172.5q76 -59 111 -74q90 -37 352 -37q109 0 215 80q35 27 135 27q29 0 50.5 5t44 20.5t34 51t11.5 91.5q0 154 -98.5 332t-243.5 253q-55 29 -134 29q-18 0 -49.5 -2t-42.5 -2q-53 0 -204 -41q-135 -39 -234.5 -111.5 t-114.5 -146.5q-10 -51 -10 -94zM752 662q0 31 36 45l37 16l17 117q16 111 16 137q0 29 -10 29q-4 0 -14.5 -7.5t-24.5 -7.5q-29 0 -23 29q4 18 60.5 70.5t68.5 52.5q39 0 167 -16.5t151 -24.5q53 -18 53 -72q0 -47 -38 -98t-78 -86t-40 -39q-2 -12 -114.5 -71.5 t-112.5 -61.5t35 -15.5t84 -35t76 -41.5q41 -33 51 -33q14 0 36.5 -32t22.5 -48q0 -27 -20 -27q-18 0 -52 19.5t-88.5 52.5t-103.5 55l-74 33l-20 -121q-12 -80 -21.5 -101.5t-31.5 -21.5q-25 0 -25 43q0 23 12.5 85.5t12.5 88.5q0 45 -22.5 60.5t-22.5 26.5zM911 756 q14 0 84 34.5t99 55.5q39 29 84 92.5t45 77.5q0 12 -73 30.5t-132 18.5h-74l-4 -55q-2 -12 -11 -84t-14.5 -121t-3.5 -49z" />
<glyph unicode="&#xaf;" horiz-adv-x="1202" d="M446 1612q111 2 242 18.5t160 16.5q35 0 117 -5.5t114 -5.5q37 0 125 14.5t144 14.5q92 0 92 -43q0 -10 -9.5 -20.5t-34 -20.5t-59.5 -10q-20 0 -57 4t-47 4q-70 -4 -277.5 -12t-293.5 -15q-2 0 -52.5 -8t-77.5 -8q-84 0 -86 76z" />
<glyph unicode="&#xb0;" horiz-adv-x="530" d="M348 1343q0 109 77 185t173 76q80 0 127 -55.5t47 -121.5q0 -98 -116.5 -169.5t-182.5 -71.5q-59 0 -92 44.5t-33 112.5zM494 1382q0 -47 51 -47q35 0 57.5 17.5t22.5 36.5q0 27 -33 56.5t-55.5 29.5t-32.5 -35t-10 -58z" />
<glyph unicode="&#xb1;" horiz-adv-x="1464" d="M231 41q12 41 19.5 50t28.5 9q4 0 28.5 -1t44.5 -1q10 0 141.5 9.5t407.5 9.5q123 0 205 5t102 9l19 4q-10 -10 -10 -18t10 -34t10 -38l-4 -47q-6 -27 -76 -32t-448 -15h-461zM322 651q0 4 4 25q10 47 45 64.5t186 43.5l217 41l29 140q31 139 55 182q29 43 88 43 q31 0 42 -11.5t11 -52.5q0 -29 -10 -127l-22 -190l155 16q68 6 128.5 14.5t92 13.5t39.5 5q47 0 48 -61q0 -25 -5.5 -40.5t-22 -26.5t-35.5 -17t-57 -12.5t-76 -9.5t-103.5 -11t-126.5 -18l-76 -15l-107 -395h-135l76 403l-144 -22q-162 -23 -221 -23q-76 0 -75 41z" />
<glyph unicode="&#xb2;" horiz-adv-x="1101" d="M391 1298q0 55 24.5 83t51.5 40.5t29 26.5q2 8 10 17.5t24.5 20.5t30.5 20.5t39 23.5t39 24q33 23 104.5 48.5t147.5 25.5q160 0 160 -108q0 -45 -29 -128t-72 -155q-47 -76 -160.5 -212t-162.5 -175q-20 -16 -21 -21q0 -2 6 -2l74 13q74 14 181.5 27.5t193.5 13.5 q111 0 110 -31q0 -23 -8 -32t-34.5 -12t-58.5 -3t-96.5 -6t-131.5 -19q-70 -14 -150 -24.5t-115.5 -16.5t-50 -16t-35 -10t-37 11t-16.5 26q0 23 71 91t105 95q72 53 212.5 257t140.5 296q0 55 -105 55q-156 0 -344 -158q-117 -94 -125 -94q-2 2 -2 8z" />
<glyph unicode="&#xb3;" horiz-adv-x="835" d="M393 860q0 39 12.5 72t33 33t35.5 -22.5t15 -51.5q0 -6 -1 -14.5t-1 -14.5q0 -14 11.5 -19t48.5 -5q57 0 130 35.5t122 87.5q31 33 49 88t22 88.5t4 54.5q0 80 -75 80q-70 0 -130.5 -33t-76.5 -33q-39 0 -39 35q0 41 25 41q23 0 67 41q213 197 217 219q0 2 -8 2 q-31 0 -122 -14t-172 -27.5t-85 -13.5q-16 0 -16 12v17q0 16 -10 16q-16 0 -13 14q2 14 148.5 46t292.5 57l143 22q12 0 22.5 -17.5t10.5 -35.5q0 -25 -123 -135.5t-125 -116.5q0 -8 45 -8q35 0 80 -46t45 -118q0 -29 -4 -43q-27 -125 -113 -219t-179 -135t-173 -41 q-113 0 -113 102z" />
<glyph unicode="&#xb4;" horiz-adv-x="860" d="M477 1161q0 25 143.5 145.5t184.5 120.5q20 1 20 -32q0 -27 -75.5 -96.5t-151.5 -126t-80 -56.5q-12 0 -26.5 15.5t-14.5 29.5z" />
<glyph unicode="&#xb5;" horiz-adv-x="1486" d="M43 -569q0 14 11.5 52t36 132t48.5 213l60 293q31 145 49 196q16 213 81.5 500t119.5 287q6 0 15 -3t20.5 -19.5t11.5 -43.5q0 -25 -8.5 -54.5t-21.5 -73.5t-39 -180t-52 -337q-25 -178 -25 -258q0 -106 53 -106q47 0 162 84q139 104 296 325t247 443q86 215 117 231 q23 14 47 14q39 0 39 -41q0 -10 -2 -16l-174 -543q-43 -131 -43 -379q0 -131 30 -131l8 -2l3 -2q20 0 112 78t109 78q33 0 32 -47q0 -74 -77 -152q-20 -16 -41 -42.5t-42.5 -35t-78.5 -8.5q-33 0 -45 -1t-15 -1q-23 0 -28.5 19.5t-18.5 19.5q-37 0 -47 108.5t-13 217 t-24 108.5q-4 0 -8 -2t-10 -7t-12 -11t-15.5 -16.5t-15.5 -18.5t-19.5 -24.5t-23.5 -26.5q-121 -141 -251 -235.5t-206 -94.5t-108 27q-45 -229 -45 -264l2 -9q4 0 0 -14q-18 -84 -58.5 -170t-87.5 -86q-55 0 -55 29z" />
<glyph unicode="&#xb6;" horiz-adv-x="1067" d="M350 1014q0 57 11.5 100t19.5 60.5t40 59.5t42 56q43 61 115.5 107.5t132.5 60.5q6 2 57 2q31 0 84 -1t57 -1q37 0 141.5 5t159.5 5q6 0 7 -2q2 -20 -162 -807.5t-181 -834.5q-31 -84 -67 -84q-18 0 -19 12q0 47 159 839.5t159 801.5q-20 0 -38.5 -3.5t-29.5 -3.5 q0 -12 -39 -194l-202 -938q-14 -68 -33 -130.5t-35 -108.5t-30.5 -78.5t-24.5 -55t-10 -24.5q-31 -82 -66 -82q-29 0 -16 45q35 166 137 547t115 440q-25 -12 -46 -12q-29 0 -76.5 32.5t-68.5 32.5q-14 0 -70.5 -20.5t-80.5 -20.5q-6 0 -19.5 4t-35 17.5t-40 34t-33 57.5 t-14.5 82z" />
<glyph unicode="&#xb7;" horiz-adv-x="995" d="M379 674q0 66 73.5 145.5t145.5 127.5t86 48q33 0 52.5 33t56.5 33q43 0 43 -37q0 -29 51 -29q43 0 67.5 -35t24.5 -88q0 -131 -140.5 -260t-281.5 -129q-98 0 -138 59.5t-40 131.5zM621 717q-1 -19 22 -19q37 0 82 33t45 49q0 8 -25 8q-53 0 -88.5 -23.5t-35.5 -47.5z " />
<glyph unicode="&#xb8;" horiz-adv-x="679" d="M162 -184q0 8 8 29.5t14 21.5q12 0 18.5 -2t11.5 -8.5t9 -8.5l39 -24l35 -12q12 0 15 8t7 35l3 18q2 4 2 12q0 18 -24 23.5t-24 19.5q0 4 46 117q20 0 42.5 2t26.5 2q12 0 12 -4l-10 -16q-10 -14 -10 -33t21.5 -50.5t21.5 -60.5q0 -18 -5 -37.5t-12.5 -35t-15.5 -27.5 t-12 -21l-6 -8q-92 -31 -105 -30q-37 0 -72.5 34.5t-35.5 55.5z" />
<glyph unicode="&#xb9;" horiz-adv-x="544" d="M375 1231q0 18 11 31.5t41 40t52 51.5l60 63q10 10 47 57.5t66.5 77t47.5 29.5q25 0 25 -59q0 -53 -42 -295t-81 -418q-23 -113 -41 -125q-6 -4 -14 -4q-27 0 -27 61q0 76 54.5 342.5t54.5 300.5q0 12 -4 13q-12 0 -102.5 -95.5t-123.5 -95.5q-25 0 -24 25z" />
<glyph unicode="&#xba;" horiz-adv-x="1138" d="M182 602q111 2 242 18.5t160 16.5q35 0 116.5 -5t114.5 -5h219q92 0 92 -43q0 -10 -9 -20.5t-33.5 -21t-59.5 -10.5q-20 0 -57 4.5t-47 4.5q-29 -2 -89 -2q-53 0 -163.5 4t-163.5 4q-94 0 -149.5 -10.5t-84.5 -10.5q-86 0 -88 76zM379 1124q0 49 14 109q37 182 219 328 q145 113 234.5 148.5t216.5 35.5q109 0 164 -38t55 -136q0 -160 -119 -375t-262 -291q-116 -63 -231 -63q-141 0 -216 90t-75 192zM496 1149q0 -98 62.5 -158.5t168.5 -60.5q109 0 222.5 123t178 266t64.5 225q0 35 -42 65.5t-91 30.5q-10 0 -46 -6t-91 -10 q-53 -4 -88 -21.5t-95 -62.5q-119 -96 -181 -189.5t-62 -201.5z" />
<glyph unicode="&#xbb;" horiz-adv-x="974" d="M236 399q0 10 4 18.5t18 22t29.5 24.5t52.5 38.5t72 54.5l159 125q88 70 88 92q0 31 -67.5 135.5t-110.5 137.5q-76 59 -75 96q0 12 23.5 30.5t35.5 18.5q6 0 8 -3t5 -11.5t21.5 -28t51.5 -43.5q78 -61 144.5 -166.5t66.5 -163.5q0 -39 -148 -151l-229 -174 q-102 -78 -129 -78q-20 0 -20 26zM473 424q0 14 42 47t77 53q66 39 180.5 146.5t114.5 128.5q0 29 -51 88l-107 125q-18 20 -38.5 43.5t-32 36t-21.5 25.5t-14.5 22.5t-4.5 17.5q0 10 9.5 24.5t23.5 14.5q29 0 99 -78l153 -174q90 -96 90 -133q0 -43 -122.5 -162 t-233.5 -186q-29 -18 -51.5 -33.5t-32.5 -24t-17.5 -14.5t-9.5 -9t-5 -4t-7 -1q-12 0 -26.5 17.5t-14.5 29.5z" />
<glyph unicode="&#xbc;" horiz-adv-x="1736" d="M205 -291q0 39 40 103.5t157.5 224.5t193.5 270l772 1127q51 72 93 168t71 134t80 38q29 0 49 -16.5t20 -45.5q0 -27 -20.5 -60.5t-76.5 -117.5t-109 -180q-49 -88 -213 -318.5t-302.5 -423t-142.5 -209.5q-4 -25 -155 -231l-252 -352q-104 -145 -154 -146q-51 0 -51 35z M375 1231q0 18 11 31.5t41 40t52 51.5l60 63q10 10 47 57.5t66.5 77t47.5 29.5q25 0 25 -59q0 -117 -129 -740q-12 -57 -21.5 -79.5t-27.5 -22.5q-27 0 -27 61q0 76 54.5 342.5t54.5 300.5q0 12 -4 13q-12 0 -102.5 -95.5t-123.5 -95.5q-25 0 -24 25zM940 129q0 31 88 133 q147 166 291.5 313.5t161.5 149.5q18 0 36.5 21.5t33 21.5t24.5 -10t2 -36t-43 -58q-33 -29 -44 -57.5t-34 -137.5q-25 -115 -24 -156q0 -27 18 -26q29 0 88 21.5t64 21.5q20 0 40.5 -12.5t20.5 -32.5q0 -23 -20.5 -34t-75 -21.5t-84.5 -20.5l-76 -23l-21 -129 q-14 -84 -14 -127q0 -25 3 -47t3 -26q0 -20 -22.5 -38t-36.5 -18q-33 1 -33 95q0 53 10.5 134t10.5 99q0 27 -15 27q-4 0 -63.5 -13.5t-131 -26t-106.5 -12.5q-51 0 -51 25zM1079 197q0 -2 2 -2q12 -1 125 22q98 20 115 33q25 20 37 127q2 14 4 43l10 102l-82 -78 q-55 -51 -131 -141t-80 -106z" />
<glyph unicode="&#xbd;" horiz-adv-x="2068" d="M205 -291q0 39 40 103.5t157.5 224.5t193.5 270l772 1127q51 72 93 168t71 134t80 38q29 0 49 -16.5t20 -45.5q0 -27 -20.5 -60.5t-76.5 -117.5t-109 -180q-49 -88 -213 -318.5t-302.5 -423t-142.5 -209.5q-4 -25 -155 -231l-252 -352q-104 -145 -154 -146q-51 0 -51 35z M375 1231q0 18 11 31.5t41 40t52 51.5l60 63q10 10 47 57.5t66.5 77t47.5 29.5q25 0 25 -59q0 -117 -129 -740q-12 -57 -21.5 -79.5t-27.5 -22.5q-27 0 -27 61q0 76 54.5 342.5t54.5 300.5q0 12 -4 13q-12 0 -102.5 -95.5t-123.5 -95.5q-25 0 -24 25zM1053 389q0 6 2 18.5 t4 24.5q10 49 53 70.5t45 38.5q2 6 10.5 15t24.5 20.5t30.5 20.5t39 24.5t38.5 25.5q33 23 105 48.5t147 25.5q160 0 160 -109q0 -45 -28.5 -128t-71.5 -154q-47 -76 -161 -212t-163 -175q-20 -16 -20 -21q6 0 78.5 12.5t179 25.5t196.5 13q66 0 87.5 -6t21.5 -22 q0 -23 -8 -32t-34 -12t-57.5 -4t-96 -7.5t-132.5 -18.5q-70 -14 -149.5 -24.5t-116.5 -16.5t-49 -16q-20 -10 -35 -11q-23 0 -38 11.5t-15 25.5q0 25 68.5 90.5t107.5 96.5q72 51 211 255.5t139 297.5q0 55 -102 55q-156 0 -344 -158q-117 -94 -125 -94q-2 0 -2 6z" />
<glyph unicode="&#xbe;" horiz-adv-x="1794" d="M205 -291q0 39 40 103.5t157.5 224.5t193.5 270l772 1127q51 72 93 168t71 134t80 38q29 0 49 -16.5t20 -45.5q0 -27 -20.5 -60.5t-76.5 -117.5t-109 -180q-49 -88 -213 -318.5t-302.5 -423t-142.5 -209.5q-4 -25 -155 -231l-252 -352q-104 -145 -154 -146q-51 0 -51 35z M393 860q0 39 12.5 72t33 33t35.5 -22.5t15 -51.5q0 -6 -1 -14.5t-1 -14.5q0 -14 11.5 -19t48.5 -5q57 0 130 35.5t122 87.5q31 33 49 88t22 88.5t4 54.5q0 80 -75 80q-70 0 -130.5 -33t-76.5 -33q-39 0 -39 35q0 41 25 41q23 0 67 41q213 197 217 219q0 2 -8 2 q-31 0 -122 -14t-172 -27.5t-85 -13.5q-16 0 -16 12v17q0 16 -10 16q-16 0 -13 14q2 14 148.5 46t292.5 57l143 22q12 0 22.5 -17.5t10.5 -35.5q0 -25 -123 -135.5t-125 -116.5q0 -8 45 -8q35 0 80 -46t45 -118q0 -29 -4 -43q-27 -125 -113 -219t-179 -135t-173 -41 q-113 0 -113 102zM940 129q0 31 88 133q147 166 291.5 313.5t161.5 149.5q18 0 36.5 21.5t33 21.5t24.5 -10t2 -36t-43 -58q-33 -29 -44 -57.5t-34 -137.5q-25 -115 -24 -156q0 -27 18 -26q29 0 88 21.5t64 21.5q20 0 40.5 -12.5t20.5 -32.5q0 -23 -20.5 -34t-75 -21.5 t-84.5 -20.5l-76 -23l-21 -129q-14 -84 -14 -127q0 -25 3 -47t3 -26q0 -20 -22.5 -38t-36.5 -18q-33 1 -33 95q0 53 10.5 134t10.5 99q0 27 -15 27q-4 0 -63.5 -13.5t-131 -26t-106.5 -12.5q-51 0 -51 25zM1079 197q0 -2 2 -2q12 -1 125 22q98 20 115 33q25 20 37 127 q2 14 4 43l10 102l-82 -78q-55 -51 -131 -141t-80 -106z" />
<glyph unicode="&#xbf;" horiz-adv-x="1294" d="M356 262q0 121 68 226.5t238 279.5l90 94l30 154q41 197 82 196q37 0 37 -59q0 -49 -24 -160q-27 -125 -60 -185t-125 -132q-102 -78 -174 -196t-72 -230q0 -66 51.5 -128.5t106.5 -62.5q74 0 196 84t122 152q0 51 -30 130t-61 79q-43 0 -92 -53.5t-49 -73.5 q0 -18 35 -19q31 0 31 -26.5t-35 -46t-59 -19.5q-20 0 -37 20.5t-17 55.5q0 74 56.5 149.5t150.5 75.5q72 0 134.5 -75.5t62.5 -167.5q0 -129 -150.5 -246t-273.5 -117q-100 0 -166 90t-66 211zM848 1573q8 16 24.5 41.5t58.5 67.5t79 42q43 0 43 -57q0 -70 -33.5 -128 t-56.5 -58q-16 0 -65.5 40t-49.5 52z" />
<glyph unicode="&#xc0;" horiz-adv-x="1511" d="M135 -23q0 33 60.5 99.5t66.5 95.5q6 39 39 49q25 8 85 111.5t95 136.5t85 109.5t208 341.5q100 166 261 396t192 249q29 14 37 14q12 0 36 -18q16 -12 34 -167t18 -270q0 -43 -4.5 -69.5t-4.5 -69.5q0 -33 4.5 -123t4.5 -143q0 -47 -2 -84t-2 -62q0 -68 10 -196.5 t10 -169.5q0 -100 -43 -101q-20 0 -59 23q-31 20 -39 46t-8 91q0 14 1 56.5t1 70.5q0 14 -1 49t-1 56l-7 161l-102 -12q-117 -16 -250 -26l-145 -13l-84 -112q-213 -285 -318 -449q-70 -111 -125 -110q-53 0 -53 40zM799 737l164 13q152 12 193.5 25t49.5 56q10 45 11 246 q0 233 -23 234q-16 0 -144 -182.5t-214 -327.5zM1208 2001q0 14 26 32.5t36 18.5q6 0 53 -52t93 -117.5t46 -94.5q0 -14 -11 -30.5t-26 -16.5q-39 0 -128 114.5t-89 145.5z" />
<glyph unicode="&#xc1;" horiz-adv-x="1511" d="M135 -23q0 33 60.5 99.5t66.5 95.5q6 39 39 49q25 8 85 111.5t95 136.5t85 109.5t208 341.5q100 166 261 396t192 249q29 14 37 14q12 0 36 -18q16 -12 34 -167t18 -270q0 -43 -4.5 -69.5t-4.5 -69.5q0 -33 4.5 -123t4.5 -143q0 -47 -2 -84t-2 -62q0 -68 10 -196.5 t10 -169.5q0 -100 -43 -101q-20 0 -59 23q-31 20 -39 46t-8 91q0 14 1 56.5t1 70.5q0 14 -1 49t-1 56l-7 161l-102 -12q-117 -16 -250 -26l-145 -13l-84 -112q-213 -285 -318 -449q-70 -111 -125 -110q-53 0 -53 40zM799 737l164 13q150 12 192.5 24t50.5 57q10 45 11 246 q0 233 -23 234q-16 0 -144 -182.5t-214 -327.5zM1237 1868q0 25 145.5 145.5t184.5 120.5q20 0 20 -35q0 -25 -75.5 -93.5t-151.5 -125.5t-80 -57q-12 0 -27.5 15t-15.5 30z" />
<glyph unicode="&#xc2;" horiz-adv-x="1511" d="M135 -23q0 33 60.5 99.5t66.5 95.5q6 39 39 49q25 8 85 111.5t95 136.5t85 109.5t208 341.5q100 166 261 396t192 249q29 14 37 14q12 0 36 -18q16 -12 34 -167t18 -270q0 -43 -4.5 -69.5t-4.5 -69.5q0 -33 4.5 -123t4.5 -143q0 -47 -2 -84t-2 -62q0 -68 10 -196.5 t10 -169.5q0 -100 -43 -101q-20 0 -59 23q-31 20 -39 46t-8 91q0 14 1 56.5t1 70.5q0 14 -1 49t-1 56l-7 161l-102 -12q-117 -16 -250 -26l-145 -13l-84 -112q-213 -285 -318 -449q-70 -111 -125 -110q-53 0 -53 40zM799 737l164 13q150 12 192.5 24t50.5 57q10 45 11 246 q0 233 -23 234q-16 0 -144 -182.5t-214 -327.5zM981 1704q4 16 28.5 56t39.5 52q18 18 88.5 102.5t131 150t81.5 65.5q33 0 141 -150.5t108 -207.5q0 -16 -11 -38t-27 -22q-29 0 -77 65.5t-94.5 130t-69 64.5t-63 -44t-78.5 -98t-84 -98t-77 -44q-23 0 -31 3t-6 13z" />
<glyph unicode="&#xc3;" horiz-adv-x="1511" d="M135 -23q0 33 60.5 99.5t66.5 95.5q6 39 39 49q25 8 85 111.5t95 136.5t85 109.5t208 341.5q100 166 261 396t192 249q29 14 37 14q12 0 36 -18q16 -12 34 -167t18 -270q0 -43 -4.5 -69.5t-4.5 -69.5q0 -33 4.5 -123t4.5 -143q0 -47 -2 -84t-2 -62q0 -68 10 -196.5 t10 -169.5q0 -100 -43 -101q-20 0 -59 23q-31 20 -39 46t-8 91q0 14 1 56.5t1 70.5q0 14 -1 49t-1 56l-7 161l-102 -12q-117 -16 -250 -26l-145 -13l-84 -112q-213 -285 -318 -449q-70 -111 -125 -110q-53 0 -53 40zM799 737l164 13q150 12 192.5 24t50.5 57q10 45 11 246 q0 233 -23 234q-16 0 -144 -182.5t-214 -327.5zM920 1823q8 35 113.5 111.5t176.5 76.5q53 0 105.5 -27.5t100.5 -65.5t63 -46l41 -21l63 50q39 31 73 69.5t53.5 58t37.5 19.5q29 0 29 -18q0 -45 -100.5 -142.5t-168.5 -97.5q-47 0 -156.5 76t-158.5 76q-31 0 -76 -31 t-53 -31t-55 -45t-70 -45q-25 0 -18 33z" />
<glyph unicode="&#xc4;" horiz-adv-x="1511" d="M135 -23q0 33 60.5 99.5t66.5 95.5q6 39 39 49q25 8 85 111.5t95 136.5t85 109.5t208 341.5q100 166 261 396t192 249q29 14 37 14q12 0 36 -18q16 -12 34 -167t18 -270q0 -43 -4.5 -69.5t-4.5 -69.5q0 -33 4.5 -123t4.5 -143q0 -47 -2 -84t-2 -62q0 -68 10 -196.5 t10 -169.5q0 -100 -43 -101q-20 0 -59 23q-31 20 -39 46t-8 91q0 14 1 56.5t1 70.5q0 14 -1 49t-1 56l-7 161l-102 -12q-117 -16 -250 -26l-145 -13l-84 -112q-213 -285 -318 -449q-70 -111 -125 -110q-53 0 -53 40zM799 737l164 13q150 12 192.5 24t50.5 57q10 45 11 246 q0 233 -23 234q-16 0 -144 -182.5t-214 -327.5zM1106 1907q0 51 25.5 92t66.5 41q33 0 107 -62q-29 -57 -61 -94t-52.5 -47t-34.5 -10q-51 0 -51 80zM1411 1898q0 51 24.5 90.5t65.5 39.5t109 -58q-29 -59 -61.5 -96t-52 -46t-34.5 -9q-51 -1 -51 79z" />
<glyph unicode="&#xc5;" horiz-adv-x="1511" d="M135 -23q0 33 60.5 99.5t66.5 95.5q6 39 39 49q25 8 85 111.5t95 136.5t85 109.5t208 341.5q100 166 261 396t192 249q29 14 37 14q12 0 36 -18q16 -12 34 -167t18 -270q0 -43 -4.5 -69.5t-4.5 -69.5q0 -33 4.5 -123t4.5 -143q0 -47 -2 -84t-2 -62q0 -68 10 -196.5 t10 -169.5q0 -100 -43 -101q-20 0 -59 23q-31 20 -39 46t-8 91q0 14 1 56.5t1 70.5q0 14 -1 49t-1 56l-7 161l-102 -12q-117 -16 -250 -26l-145 -13l-84 -112q-213 -285 -318 -449q-70 -111 -125 -110q-53 0 -53 40zM799 737l164 13q150 12 192.5 24t50.5 57q10 45 11 246 q0 233 -23 234q-16 0 -144 -182.5t-214 -327.5zM1178 1874q0 45 33.5 113.5t72.5 105.5t125 37q66 0 115 -29t49 -80q0 -63 -75 -175.5t-185 -112.5q-63 0 -99 44t-36 97zM1294 1884q0 -49 49 -49q31 0 58 47t47 47q16 0 31.5 14.5t15.5 38.5q0 27 -18.5 48.5t-42.5 21.5 q-39 0 -89.5 -54t-50.5 -114z" />
<glyph unicode="&#xc6;" horiz-adv-x="1550" d="M170 78q0 33 47 102.5t53 95.5q6 39 31 50q14 6 36.5 52t52.5 106.5t52 88.5q12 14 23.5 40t58.5 113t135 224q86 135 257 342t200 224q12 6 25 6q8 0 11 -8.5t15 -8.5q55 10 102.5 38t109 46.5t173.5 18.5q119 0 119 -52q0 -23 -47 -53t-100 -43q-51 -10 -97.5 -14 t-68 -3t-44 -7.5t-42.5 -30.5q-55 -61 -78 -160q-45 -215 -45 -395l2 -16q6 0 140 49t192 49q33 0 33 -35q0 -47 -55.5 -78t-221.5 -86q-39 -12 -65.5 -24.5t-42 -19.5t-26.5 -22.5t-14.5 -19.5t-8.5 -23.5t-7 -23.5q-4 -10 -41 -221l-33 -191l91 25q86 0 173 35t142 68.5 t63 33.5q12 0 21.5 -18.5t9.5 -38.5q0 -29 -29.5 -56.5t-92 -56t-116 -48t-143.5 -50.5t-133 -47q-29 -12 -61 -12q-41 0 -58.5 16t-17.5 57q0 27 7 69t22.5 124t25.5 139l29 166l-70 4q-16 0 -77.5 7t-90.5 9l-84 4l-30 -86q-43 -72 -99.5 -162.5t-87 -142t-51.5 -94.5 q-49 -92 -141 -92q-33 0 -33 37zM676 745l112 -16q76 -10 103 -10q43 0 58.5 23.5t31.5 101.5q70 328 70 401q0 16 -4 17q-14 0 -130 -160t-204 -299z" />
<glyph unicode="&#xc7;" horiz-adv-x="1488" d="M338 356q0 102 77 416.5t126 413.5q92 188 322.5 330.5t410.5 142.5q86 0 149.5 -51.5t63.5 -118.5q0 -51 -39 -51q-23 0 -43.5 14t-28.5 37q-6 25 -18 35t-37 10q-106 0 -272 -71.5t-265 -159.5q-84 -74 -151.5 -227.5t-132.5 -465.5q-20 -100 -21 -159 q0 -123 66.5 -205t163.5 -82q51 0 157.5 45t155.5 88l127 104q59 47 129 123t113 120t65 44q14 0 14 -26q0 -4 -4 -33q-12 -55 -226 -259t-400 -317q-14 -8 -39 -8q-47 -6 -49 -51q0 -18 21.5 -50t21.5 -61q0 -18 -5.5 -37.5t-12.5 -35t-15 -27.5t-12 -21l-7 -8 q-92 -31 -104 -30q-37 0 -72 34.5t-35 55.5q0 8 8.5 29.5t14.5 21.5q16 0 45 -22.5t70 -32.5q16 0 20 40q2 12 2 21q2 6 2 12q0 18 -22.5 23.5t-22.5 19.5q0 8 2 13l23 81q-92 0 -164 47.5t-105.5 112t-50 111.5t-16.5 65z" />
<glyph unicode="&#xc8;" horiz-adv-x="1185" d="M242 70q0 63 20.5 208.5t55 370.5t55.5 402q18 152 33 225q12 61 38.5 103t46 55.5t31.5 13.5q23 0 80 27.5t125 60.5t184.5 60.5t241.5 27.5q172 0 172 -53q0 -35 -209 -70q-166 -27 -316.5 -77t-211.5 -97q-12 -10 -20.5 -19.5t-15.5 -26.5t-11 -31.5t-8.5 -49.5 t-7.5 -65.5t-10 -92t-15 -118.5q-14 -98 -15 -140q0 -31 13 -30q8 0 16 6q39 20 249 67t261 47t51 -38q0 -45 -77.5 -76t-303.5 -84q-162 -37 -200.5 -54.5t-49.5 -58.5q-14 -59 -49 -256l-30 -176h104q92 0 241.5 38t256.5 89q72 35 92 35q18 0 32.5 -20.5t14.5 -41.5 q0 -76 -250 -165t-459 -89q-74 0 -109.5 14.5t-40.5 30t-5 48.5zM856 2138q0 12 24.5 32.5t39 20.5t103.5 -114.5t89 -145.5q0 -20 -12.5 -35.5t-28.5 -15.5q-37 0 -126 114.5t-89 143.5z" />
<glyph unicode="&#xc9;" horiz-adv-x="1185" d="M242 70q0 63 20.5 208.5t55 370.5t55.5 402q18 152 33 225q12 61 38.5 103t46 55.5t31.5 13.5q23 0 80 27.5t125 60.5t184.5 60.5t241.5 27.5q172 0 172 -53q0 -35 -209 -70q-166 -27 -316.5 -77t-211.5 -97q-12 -10 -20.5 -19.5t-15.5 -26.5t-11 -31.5t-8.5 -49.5 t-7.5 -65.5t-10 -92t-15 -118.5q-14 -98 -15 -140q0 -31 13 -30q8 0 16 6q39 20 249 67t261 47t51 -38q0 -45 -77.5 -76t-303.5 -84q-162 -37 -200.5 -54.5t-49.5 -58.5q-14 -59 -49 -256l-30 -176h104q92 0 241.5 38t256.5 89q72 35 92 35q18 0 32.5 -20.5t14.5 -41.5 q0 -76 -250 -165t-459 -89q-74 0 -109.5 14.5t-40.5 30t-5 48.5zM920 1837q0 25 142 145.5t183 120.5q23 0 23 -28.5t-76 -99t-151.5 -127t-82.5 -56.5q-10 0 -24 15.5t-14 29.5z" />
<glyph unicode="&#xca;" horiz-adv-x="1185" d="M242 70q0 63 20.5 208.5t55 370.5t55.5 402q18 152 33 225q12 61 38.5 103t46 55.5t31.5 13.5q23 0 80 27.5t125 60.5t184.5 60.5t241.5 27.5q172 0 172 -53q0 -35 -209 -70q-166 -27 -316.5 -77t-211.5 -97q-12 -10 -20.5 -19.5t-15.5 -26.5t-11 -31.5t-8.5 -49.5 t-7.5 -65.5t-10 -92t-15 -118.5q-14 -98 -15 -140q0 -31 13 -30q8 0 16 6q39 20 249 67t261 47t51 -38q0 -45 -77.5 -76t-303.5 -84q-162 -37 -200.5 -54.5t-49.5 -58.5q-14 -59 -49 -256l-30 -176h104q92 0 241.5 38t256.5 89q72 35 92 35q18 0 32.5 -20.5t14.5 -41.5 q0 -76 -250 -165t-459 -89q-74 0 -109.5 14.5t-40.5 30t-5 48.5zM672 1780q0 16 26.5 59t38.5 53q20 18 91 103.5t131.5 151t80.5 65.5q33 0 141.5 -149.5t108.5 -211.5q0 -16 -11 -36.5t-28 -20.5q-31 0 -79 64.5t-94 129t-68 64.5q-18 0 -46 -28.5t-83 -94.5 q-14 -18 -23 -28q-66 -82 -93.5 -107t-55.5 -25q-37 0 -37 11z" />
<glyph unicode="&#xcb;" horiz-adv-x="1185" d="M242 70q0 63 20.5 208.5t55 370.5t55.5 402q18 152 33 225q12 61 38.5 103t46 55.5t31.5 13.5q23 0 80 27.5t125 60.5t184.5 60.5t241.5 27.5q172 0 172 -53q0 -35 -209 -70q-166 -27 -316.5 -77t-211.5 -97q-12 -10 -20.5 -19.5t-15.5 -26.5t-11 -31.5t-8.5 -49.5 t-7.5 -65.5t-10 -92t-15 -118.5q-14 -98 -15 -140q0 -31 13 -30q8 0 16 6q39 20 249 67t261 47t51 -38q0 -45 -77.5 -76t-303.5 -84q-162 -37 -200.5 -54.5t-49.5 -58.5q-14 -59 -49 -256l-30 -176h104q92 0 241.5 38t256.5 89q72 35 92 35q18 0 32.5 -20.5t14.5 -41.5 q0 -76 -250 -165t-459 -89q-74 0 -109.5 14.5t-40.5 30t-5 48.5zM737 1925q0 51 24.5 92t65.5 41q33 0 109 -59q-41 -84 -82 -118t-68 -34q-49 0 -49 78zM1042 1915q0 51 25 92t66 41q35 0 108 -59q-41 -84 -82 -118t-67 -34q-50 0 -50 78z" />
<glyph unicode="&#xcc;" horiz-adv-x="1202" d="M274 47q0 43 26 54.5t69 11.5q80 0 192 47l111 47l63 383q63 389 111 606l47 219l-64 -16q-106 -29 -200 -29q-109 0 -109 39q0 29 76 60.5t201 68.5t157 49q27 10 136 10q139 0 176 -14q29 -10 28 -53q0 -45 -44 -64.5t-146 -31.5l-64 -9l-71 -356q-127 -635 -127 -793 q0 -37 8 -36q2 0 13 7t30.5 15t40.5 8q29 0 48 -13t19 -38q0 -29 -27.5 -56.5t-78.5 -52t-106.5 -45t-129.5 -47.5q-16 -6 -24 -8q-133 -47 -186 -47q-33 0 -104 20.5t-71 63.5zM915 2007q0 12 25 31.5t39 19.5t102 -111.5t88 -144.5q0 -20 -11 -36.5t-28 -16.5 q-37 0 -126 114.5t-89 143.5z" />
<glyph unicode="&#xcd;" horiz-adv-x="1202" d="M274 47q0 43 26 54.5t69 11.5q80 0 192 47l111 47l63 383q63 389 111 606l47 219l-64 -16q-106 -29 -200 -29q-109 0 -109 39q0 29 76 60.5t201 68.5t157 49q27 10 136 10q139 0 176 -14q29 -10 28 -53q0 -45 -44 -64.5t-146 -31.5l-64 -9l-71 -356q-127 -635 -127 -793 q0 -37 8 -36q2 0 13 7t30.5 15t40.5 8q29 0 48 -13t19 -38q0 -29 -27.5 -56.5t-78.5 -52t-106.5 -45t-129.5 -47.5q-16 -6 -24 -8q-133 -47 -186 -47q-33 0 -104 20.5t-71 63.5zM971 1864q0 25 143 145.5t184 120.5q21 0 21 -33q0 -27 -76 -96.5t-151.5 -125.5t-79.5 -56 q-12 0 -26.5 15t-14.5 30z" />
<glyph unicode="&#xce;" horiz-adv-x="1202" d="M274 47q0 43 26 54.5t69 11.5q80 0 192 47l111 47l63 383q63 389 111 606l47 219l-64 -16q-106 -29 -200 -29q-109 0 -109 39q0 29 76 60.5t201 68.5t157 49q27 10 136 10q139 0 176 -14q29 -10 28 -53q0 -45 -44 -64.5t-146 -31.5l-64 -9l-71 -356q-127 -635 -127 -793 q0 -37 8 -36q2 0 13 7t30.5 15t40.5 8q29 0 48 -13t19 -38q0 -29 -27.5 -56.5t-78.5 -52t-106.5 -45t-129.5 -47.5q-16 -6 -24 -8q-133 -47 -186 -47q-33 0 -104 20.5t-71 63.5zM705 1772q0 14 28.5 59t38.5 53q20 18 89 102.5t129.5 150t80.5 65.5q33 0 142.5 -150.5 t109.5 -208.5q0 -16 -11.5 -37.5t-27.5 -21.5q-25 0 -60.5 41t-66.5 89t-63.5 89t-51 41t-46 -28.5t-83.5 -94.5q-14 -18 -22 -29q-68 -84 -95.5 -108.5t-54.5 -24.5q-37 0 -36 13z" />
<glyph unicode="&#xcf;" horiz-adv-x="1202" d="M274 47q0 43 26 54.5t69 11.5q80 0 192 47l111 47l63 383q63 389 111 606l47 219l-64 -16q-106 -29 -200 -29q-109 0 -109 39q0 29 76 60.5t201 68.5t157 49q27 10 136 10q139 0 176 -14q29 -10 28 -53q0 -45 -44 -64.5t-146 -31.5l-64 -9l-71 -356q-127 -635 -127 -793 q0 -37 8 -36q2 0 13 7t30.5 15t40.5 8q29 0 48 -13t19 -38q0 -29 -27.5 -56.5t-78.5 -52t-106.5 -45t-129.5 -47.5q-16 -6 -24 -8q-133 -47 -186 -47q-33 0 -104 20.5t-71 63.5zM805 1892q0 51 24.5 91t67.5 40q33 0 109 -59q-29 -59 -62 -96t-53.5 -46.5t-34.5 -9.5 q-51 0 -51 80zM1110 1882q0 51 24.5 91t67.5 40q37 0 109 -59q-29 -59 -61.5 -96t-53 -46.5t-35.5 -9.5q-51 0 -51 80z" />
<glyph unicode="&#xd0;" horiz-adv-x="1751" d="M313 860q106 2 235.5 17.5t151.5 15.5q10 82 19 168l43 354l-76 -6q-66 -6 -140.5 -61.5t-84.5 -55.5q-12 0 -30.5 25.5t-18.5 48.5q0 29 36.5 74t61.5 45q27 0 72 49q43 49 215 68q219 20 286 20q84 0 207 -23q295 -55 423 -146t128 -259q0 -59 -16 -137 q-45 -215 -160 -407.5t-256 -321.5t-286.5 -214t-272.5 -114q-53 -12 -84 -40t-38 -52.5t-28.5 -44t-60.5 -19.5q-59 0 -59 22.5t-40 41t-40 59.5q0 74 55 92q29 10 50.5 69.5t35.5 158t21.5 177.5t14.5 182.5t9 117.5q-158 -6 -209 -16.5t-78 -10.5q-33 0 -59.5 38 t-26.5 85zM737 156h111q184 0 469 258q162 147 239.5 296.5t124.5 364.5q14 63 15 103q0 53 -43 110q-37 51 -91.5 76t-183.5 51q-231 41 -362 41q-88 0 -107.5 -56.5t-44.5 -389.5q-6 -80 -10 -123q33 -2 92 -2q35 0 123 14t145 14q92 0 93 -43q0 -20 -30 -58t-73 -38 q-23 0 -58.5 4t-45.5 4q-27 -2 -254 -12q-31 -408 -70 -510z" />
<glyph unicode="&#xd1;" horiz-adv-x="1697" d="M213 143q0 115 152.5 744t175.5 672q33 51 94 51q33 0 65 -23q23 -16 109 -190t86 -203q0 -18 25.5 -79.5t82 -212t111.5 -339.5q121 -420 191 -420q16 0 30.5 19.5t58.5 145.5t107 366q162 584 207 684q39 90 92 102q12 2 31 2q47 0 47 -53q0 -31 -8 -66.5t-29.5 -107.5 t-49.5 -157t-81 -257t-111 -366q-88 -313 -135 -405.5t-123 -92.5q-133 0 -218 106.5t-148 335.5q-33 111 -58.5 190t-35 102.5t-14.5 47t-7 62.5q-2 63 -89 263t-89 210q-2 4 -4 4q-20 0 -85 -217t-108 -418q-23 -106 -31 -184t-12 -97q-23 -104 -70.5 -199t-80.5 -95 q-43 2 -60.5 14t-17.5 61zM1034 1827q8 35 113.5 113.5t177.5 78.5q53 0 105.5 -27.5t100.5 -65.5t62 -46l41 -20l64 49q39 31 71.5 68.5t51 56t37.5 18.5q30 0 30 -18q0 -47 -100 -143.5t-170 -96.5q-47 0 -155.5 76t-157.5 76q-31 0 -76 -29t-53.5 -29t-56.5 -47 t-70.5 -47t-14.5 33z" />
<glyph unicode="&#xd2;" d="M244 483q0 227 140 460t310 335q141 86 183 86q27 0 95 55.5t103 55.5q39 0 71 27.5t81 27.5q119 0 183.5 -91t64.5 -255q0 -176 -74 -389t-172.5 -377t-196.5 -276.5t-149 -112.5q-31 0 -49 -33q-10 -18 -97.5 -33.5t-177.5 -15.5q-55 0 -85 13t-75 54 q-70 66 -112.5 197t-42.5 272zM399 532q0 -49 13 -137q45 -309 235 -309q51 0 119 25q78 29 215 180.5t172 251.5q31 86 82 198.5t82 186t31 112.5q0 68 -31 166.5t-47 108.5q-23 16 -74 16q-90 0 -244 -47q-162 -47 -287.5 -180t-203.5 -338q-61 -160 -62 -234zM1165 2001 q0 12 25 31.5t37 19.5q14 0 103 -111.5t89 -152.5q0 -23 -13 -34t-26 -11q-37 0 -126 114.5t-89 143.5z" />
<glyph unicode="&#xd3;" d="M244 483q0 227 140 460t310 335q141 86 183 86q27 0 95 55.5t103 55.5q39 0 71 27.5t81 27.5q119 0 183.5 -91t64.5 -255q0 -176 -74 -389t-172.5 -377t-196.5 -276.5t-149 -112.5q-31 0 -49 -33q-10 -18 -97.5 -33.5t-177.5 -15.5q-55 0 -85 13t-75 54 q-70 66 -112.5 197t-42.5 272zM399 532q0 -49 13 -137q45 -309 235 -309q51 0 119 25q78 29 215 180.5t172 251.5q31 86 82 198.5t82 186t31 112.5q0 68 -31 166.5t-47 108.5q-23 16 -74 16q-90 0 -244 -47q-162 -47 -287.5 -180t-203.5 -338q-61 -160 -62 -234zM1028 1720 q0 25 143.5 146t184.5 121q20 0 20 -33q0 -27 -75.5 -96.5t-151.5 -126t-80 -56.5q-12 0 -26.5 15.5t-14.5 29.5z" />
<glyph unicode="&#xd4;" d="M244 483q0 227 140 460t310 335q141 86 183 86q27 0 95 55.5t103 55.5q39 0 71 27.5t81 27.5q119 0 183.5 -91t64.5 -255q0 -176 -74 -389t-172.5 -377t-196.5 -276.5t-149 -112.5q-31 0 -49 -33q-10 -18 -97.5 -33.5t-177.5 -15.5q-55 0 -85 13t-75 54 q-70 66 -112.5 197t-42.5 272zM399 532q0 -49 13 -137q45 -309 235 -309q51 0 119 25q78 29 215 180.5t172 251.5q31 86 82 198.5t82 186t31 112.5q0 68 -31 166.5t-47 108.5q-23 16 -74 16q-90 0 -244 -47q-162 -47 -287.5 -180t-203.5 -338q-61 -160 -62 -234zM913 1704 q0 14 29 59t39 54q20 18 89 102t129.5 149.5t80.5 65.5q33 0 142.5 -150.5t109.5 -207.5q0 -16 -11.5 -38t-27.5 -22q-31 0 -79 65.5t-94 130t-69 64.5q-18 0 -45.5 -28.5t-83.5 -94.5q-14 -18 -22 -28q-68 -84 -95.5 -108.5t-54.5 -24.5q-37 0 -37 12z" />
<glyph unicode="&#xd5;" d="M244 483q0 227 140 460t310 335q141 86 183 86q27 0 95 55.5t103 55.5q39 0 71 27.5t81 27.5q119 0 183.5 -91t64.5 -255q0 -176 -74 -389t-172.5 -377t-196.5 -276.5t-149 -112.5q-31 0 -49 -33q-10 -18 -97.5 -33.5t-177.5 -15.5q-55 0 -85 13t-75 54 q-70 66 -112.5 197t-42.5 272zM399 532q0 -49 13 -137q45 -309 235 -309q51 0 119 25q78 27 214 179.5t173 252.5q31 86 83 200.5t82 186t30 110.5q0 68 -31 166.5t-47 108.5q-23 16 -74 16q-90 0 -244 -47q-162 -47 -287.5 -180t-203.5 -338q-61 -160 -62 -234zM815 1860 q8 35 113.5 112.5t177.5 77.5q53 0 105.5 -27.5t99.5 -65.5t63 -46l41 -21l64 49q39 31 71.5 70t51 57.5t36.5 18.5q31 -1 31 -19q0 -45 -100.5 -142t-167.5 -97q-47 0 -156.5 75.5t-159.5 75.5q-31 0 -75.5 -29.5t-53 -29.5t-55.5 -46t-69.5 -46t-16.5 33z" />
<glyph unicode="&#xd6;" d="M244 483q0 227 140 460t310 335q141 86 183 86q27 0 95 55.5t103 55.5q39 0 71 27.5t81 27.5q119 0 183.5 -91t64.5 -255q0 -176 -74 -389t-172.5 -377t-196.5 -276.5t-149 -112.5q-31 0 -49 -33q-10 -18 -97.5 -33.5t-177.5 -15.5q-55 0 -85 13t-75 54 q-70 66 -112.5 197t-42.5 272zM399 532q0 -49 13 -137q45 -309 235 -309q51 0 119 25q78 29 215 180.5t172 251.5q31 86 82 198.5t82 186t31 112.5q0 68 -31 166.5t-47 108.5q-23 16 -74 16q-90 0 -244 -47q-162 -47 -287.5 -180t-203.5 -338q-61 -160 -62 -234zM1010 1872 q0 51 24.5 91t67.5 40q33 0 108 -59q-29 -59 -61.5 -96.5t-53 -46.5t-34.5 -9q-51 0 -51 80zM1315 1862q0 51 24.5 91t67.5 40q37 0 109 -60q-29 -59 -62 -96t-53.5 -46t-34.5 -9q-51 0 -51 80z" />
<glyph unicode="&#xd7;" d="M362 84q0 45 132.5 219t132.5 223q0 66 -99.5 216.5t-99.5 207.5q0 33 18.5 47.5t32.5 14.5q20 0 49 -27t67 -70t64 -63l107 -139q2 0 21.5 17.5t54.5 53t65 72.5q94 115 183.5 176.5t136.5 61.5q45 0 45 -29q0 -49 -187 -262q-8 -8 -20 -21.5t-20.5 -22.5t-29 -37 t-50.5 -75l-99 -115l70 -98q35 -49 64.5 -80.5t43 -42t21.5 -18.5t8 -19q0 -4 -1 -10t-3 -16t-4 -19q-6 -29 -41 -47t-70 -18q-25 0 -40 5t-41.5 31.5t-63.5 82.5l-59 90l-88 -103q-84 -96 -93 -123q6 0 6 5q-8 -12 -24 -31t-60.5 -49.5t-80.5 -30.5q-47 0 -48 43z" />
<glyph unicode="&#xd8;" d="M156 -201q0 10 3 22.5t10 27t14 28.5t20.5 34.5t23 35t26.5 38t26.5 37t29 39t27.5 37.5q-92 162 -92 383q0 233 142 464t308 333q141 86 183 86q27 0 95 55.5t103 55.5q39 0 71 27.5t81 27.5q39 0 86 -14q57 82 101 180t70.5 133t78.5 35q29 0 49 -16.5t20 -45.5 q0 -27 -20.5 -60.5t-79.5 -121.5t-117 -193q59 -90 60 -247q0 -176 -74 -389t-173.5 -376t-197.5 -274.5t-147 -111.5q-31 0 -49 -33q-10 -18 -97.5 -33.5t-177.5 -15.5q-78 0 -135 49l-62 -86q-104 -145 -153 -146q-53 0 -53 35zM399 528q0 -150 47 -278l742 1081 q-92 -4 -236 -47q-162 -47 -287.5 -180t-203.5 -338q-2 -6 -11.5 -29.5t-11.5 -29t-9 -24.5t-8 -24.5t-6 -20.5t-6 -22.5t-4.5 -20.5t-3.5 -21.5t-1 -20.5t-1 -25zM520 133q53 -47 127 -47q51 0 119 25q78 29 215 180t172 252q31 86 82 198.5t82 186t31 112.5q0 88 -48 213 q-76 -109 -217 -306t-227 -318t-88 -135q-4 -25 -156 -232z" />
<glyph unicode="&#xd9;" horiz-adv-x="1386" d="M360 322q0 215 43 541.5t80 494.5q27 125 66 151q33 23 49 23q27 0 27 -62q0 -23 -26 -223t-50.5 -472.5t-24.5 -469.5q0 -96 11 -121q27 -63 100.5 -63t198.5 69q137 76 231 191t186 317q129 274 129 494q0 72 -12 169.5t-12 117.5q0 23 8 39t19.5 24t25.5 12.5 t20.5 5.5t10.5 1q41 0 56 -58.5t20.5 -134.5t19.5 -98q4 -4 4 -21q0 -49 -29 -186q-55 -254 -153 -457t-198.5 -315.5t-210 -188t-182.5 -100.5t-120 -25q-61 0 -136 33t-112 76q-39 47 -39 236zM958 1982q0 12 25 33t39 21t103 -114t89 -144q0 -20 -13 -37t-27 -17 q-37 0 -126.5 115t-89.5 143z" />
<glyph unicode="&#xda;" horiz-adv-x="1386" d="M360 322q0 215 43 541.5t80 494.5q27 125 66 151q33 23 49 23q27 0 27 -62q0 -23 -26 -223t-50.5 -472.5t-24.5 -469.5q0 -96 11 -121q27 -63 100.5 -63t198.5 69q137 76 231 191t186 317q129 274 129 494q0 72 -12 169.5t-12 117.5q0 23 8 39t19.5 24t25.5 12.5 t20.5 5.5t10.5 1q41 0 56 -58.5t20.5 -134.5t19.5 -98q4 -4 4 -21q0 -49 -29 -186q-55 -254 -153 -457t-198.5 -315.5t-210 -188t-182.5 -100.5t-120 -25q-61 0 -136 33t-112 76q-39 47 -39 236zM1006 1765q0 25 143 146t184 121q21 0 21 -33q0 -27 -76 -96.5t-151.5 -126 t-79.5 -56.5q-12 0 -26.5 15.5t-14.5 29.5z" />
<glyph unicode="&#xdb;" horiz-adv-x="1386" d="M360 322q0 215 43 541.5t80 494.5q27 125 66 151q33 23 49 23q27 0 27 -62q0 -23 -26 -223t-50.5 -472.5t-24.5 -469.5q0 -96 11 -121q27 -63 100.5 -63t198.5 69q137 76 231 191t186 317q129 274 129 494q0 72 -12 169.5t-12 117.5q0 23 8 39t19.5 24t25.5 12.5 t20.5 5.5t10.5 1q41 0 56 -58.5t20.5 -134.5t19.5 -98q4 -4 4 -21q0 -49 -29 -186q-55 -254 -153 -457t-198.5 -315.5t-210 -188t-182.5 -100.5t-120 -25q-61 0 -136 33t-112 76q-39 47 -39 236zM739 1738.5q0 12.5 23.5 54.5t42.5 58q20 18 90 102.5t130.5 150t80.5 65.5 q33 0 142.5 -150.5t109.5 -208.5q0 -16 -11.5 -37.5t-27.5 -21.5q-25 0 -60.5 41t-66.5 89t-63.5 89t-51 41t-46 -28.5t-83.5 -94.5q-14 -18 -22 -28q-68 -84 -95.5 -109t-56.5 -25q-35 0 -35 12.5z" />
<glyph unicode="&#xdc;" horiz-adv-x="1386" d="M360 322q0 215 43 541.5t80 494.5q27 125 66 151q33 23 49 23q27 0 27 -62q0 -23 -26 -223t-50.5 -472.5t-24.5 -469.5q0 -96 11 -121q27 -63 100.5 -63t198.5 69q137 76 231 191t186 317q129 274 129 494q0 72 -12 169.5t-12 117.5q0 23 8 39t19.5 24t25.5 12.5 t20.5 5.5t10.5 1q41 0 56 -58.5t20.5 -134.5t19.5 -98q4 -4 4 -21q0 -49 -29 -186q-55 -254 -153 -457t-198.5 -315.5t-210 -188t-182.5 -100.5t-120 -25q-61 0 -136 33t-112 76q-39 47 -39 236zM854 1888q0 51 24.5 91t67.5 40q31 0 107 -59q-29 -59 -60.5 -96t-52 -46.5 t-35.5 -9.5q-51 0 -51 80zM1159 1878q0 51 24.5 91t67.5 40q35 0 107 -59q-29 -59 -60.5 -96t-52 -46.5t-35.5 -9.5q-51 0 -51 80z" />
<glyph unicode="&#xdd;" horiz-adv-x="1495" d="M457 1464q0 27 19.5 46.5t37.5 19.5q33 0 104.5 -79t258.5 -318q80 -102 149.5 -177t85.5 -75q23 0 47.5 16t60 60t69.5 89.5t98.5 134.5t123.5 165q25 31 42.5 80t25.5 86.5t24.5 65.5t38.5 28q14 0 51.5 -23.5t37.5 -52.5q0 -98 -186.5 -368.5t-309.5 -391.5 q-37 -35 -54.5 -53.5t-45 -58.5t-47 -71.5t-82 -133t-125.5 -203.5l-250 -397q-41 -66 -88 -66q-23 0 -41.5 19.5t-18.5 46.5q0 35 69 148.5t282 428.5l174 258l-265 344q-174 227 -230 309t-56 123zM1143 1810q0 25 145.5 146t184.5 121q20 0 20 -29t-77 -99.5t-152.5 -127 t-79.5 -56.5q-12 0 -26.5 15.5t-14.5 29.5z" />
<glyph unicode="&#xde;" horiz-adv-x="1429" d="M295 104q0 43 25.5 54.5t68.5 11.5q72 0 193 47l49 -8l61 383q63 389 111 606l47 219l-64 -16q-106 -29 -200 -29q-109 0 -109 39q0 29 76 60.5t201 68.5t157 49q27 10 136 10q141 0 178 -14q27 -12 26 -51q0 -47 -45 -66.5t-145 -31.5l-64 -9l-47 -241h17q31 0 109.5 2 t101.5 2q66 0 124 -64.5t86.5 -137.5t28.5 -120q0 -27 -4 -43q-8 -39 -18.5 -71.5t-18.5 -57t-22.5 -47t-22.5 -37t-26.5 -30t-25.5 -22.5t-28.5 -18.5t-29 -14.5t-31 -13t-29.5 -12q-84 -39 -149 -39q-18 0 -50 -3t-53 -3q-29 0 -110 10q-6 -117 -6 -152q0 -104 14 -104 q2 0 13 7t30.5 15.5t40.5 8.5q29 0 48 -13.5t19 -38.5q0 -45 -43 -63t-172 -43l-88 -16q-45 -8 -104 -28t-82 -20q-33 0 -103.5 20.5t-70.5 63.5zM825 569q35 -4 68 -11t54.5 -10t51.5 -3q72 0 100.5 10t84.5 53q12 10 46 23.5t53.5 39t31.5 83.5q8 33 8 73q0 84 -53 191 q-31 61 -56.5 81.5t-80.5 20.5q-66 0 -94.5 -3t-51 -9t-53.5 -10q-54 -146 -109 -529z" />
<glyph unicode="&#xdf;" horiz-adv-x="948" d="M190 -96q0 43 12.5 138t48.5 351t68 506q20 158 68 373q16 80 45 139q31 70 49.5 102.5t51 69.5t76.5 50.5t108 13.5q160 0 254 -96.5t94 -215.5q0 -27 -6 -51q-45 -209 -110.5 -297t-162.5 -131q55 -16 88 -67.5t64 -151.5q20 -59 20 -94q0 -31 -30 -140 q-41 -152 -66.5 -192.5t-122.5 -83.5q-98 -43 -170 -43q-10 0 -23.5 -1t-15.5 -1q-23 0 -98 37q-41 22 -41 53q0 2 21 74q0 4 4 4q6 0 32.5 -31t30.5 -31h99q45 0 73.5 12.5t85.5 59.5q6 6 18.5 14.5t14.5 10.5l8 8t7 13t4.5 16.5t7.5 27.5l16 72q8 35 8 78q0 96 -63 223 q-35 72 -51.5 85t-77.5 13l22 86h27.5t20 5.5t15.5 8.5t22.5 19t35.5 29q39 31 56.5 47t42 63t38.5 115q8 35 9 78q0 96 -64 223q-27 10 -48.5 22.5t-30.5 16.5t-26.5 8t-48.5 4q-16 -4 -36.5 -7t-26.5 -4t-14.5 -3t-13.5 -6t-10 -7t-15 -14q-14 -12 -22.5 -28.5t-16.5 -39 t-15 -36.5l-249 -1507q-10 -49 -52 -50q-20 0 -29.5 11.5t-9.5 48.5z" />
<glyph unicode="&#xe0;" horiz-adv-x="1138" d="M233 164q0 74 24 133t71 102t87 68t99 55q152 76 270 76q47 0 75 -16.5t40 -34t25 -17.5q10 0 31.5 -20.5t29.5 -20.5q10 0 19 39q45 205 45 332q0 160 -93 160q-39 0 -115.5 -14.5t-123.5 -34.5l-62 -25q-209 -84 -239 -84q-18 0 -19 15q0 29 18.5 52t59.5 42.5t79 34 t104.5 37t109.5 38.5q113 43 199 43q59 0 101 -28.5t59.5 -73.5t24.5 -82t7 -74q0 -55 -66.5 -382.5t-66.5 -379.5v-22q-6 -27 -40 -59.5t-44 -32.5q-4 0 -11 5t-16.5 27.5t-9.5 59.5q0 29 4 82t4 65q0 18 -4 19q-8 0 -22 -21q-66 -78 -204 -153.5t-218 -75.5 q-47 0 -113.5 17.5t-93.5 43.5q-25 25 -25 105zM336 172q0 -37 37 -56.5t86 -19.5q66 0 179.5 49.5t117.5 71.5q4 16 83 82t79 92q0 12 -8.5 27.5t-28 33t-63.5 29t-105 11.5q-164 0 -270.5 -105.5t-106.5 -214.5zM756 1462q0 12 24.5 31.5t36.5 19.5q14 0 103.5 -111.5 t89.5 -148.5q0 -18 -11.5 -33.5t-29.5 -15.5q-37 0 -125 115t-88 143z" />
<glyph unicode="&#xe1;" horiz-adv-x="1138" d="M233 164q0 74 24 133t71 102t87 68t99 55q152 76 270 76q47 0 75 -16.5t40 -34t25 -17.5q10 0 31.5 -20.5t29.5 -20.5q10 0 19 39q45 205 45 332q0 160 -93 160q-39 0 -115.5 -14.5t-123.5 -34.5l-62 -25q-209 -84 -239 -84q-18 0 -19 15q0 29 18.5 52t59.5 42.5t79 34 t104.5 37t109.5 38.5q113 43 199 43q59 0 101 -28.5t59.5 -73.5t24.5 -82t7 -74q0 -55 -66.5 -382.5t-66.5 -379.5v-22q-6 -27 -40 -59.5t-44 -32.5q-4 0 -11 5t-16.5 27.5t-9.5 59.5q0 29 4 82t4 65q0 18 -4 19q-8 0 -22 -21q-66 -78 -204 -153.5t-218 -75.5 q-47 0 -113.5 17.5t-93.5 43.5q-25 25 -25 105zM336 172q0 -37 37 -56.5t86 -19.5q66 0 179.5 49.5t117.5 71.5q4 16 83 82t79 92q0 12 -8.5 27.5t-28 33t-63.5 29t-105 11.5q-164 0 -270.5 -105.5t-106.5 -214.5zM797 1286q0 25 143 144.5t182 119.5q23 0 23 -28 q0 -27 -25 -52q-33 -35 -151.5 -132t-131 -97t-26.5 15.5t-14 29.5z" />
<glyph unicode="&#xe2;" horiz-adv-x="1138" d="M233 164q0 74 24 133t71 102t87 68t99 55q152 76 270 76q47 0 75 -16.5t40 -34t25 -17.5q10 0 31.5 -20.5t29.5 -20.5q10 0 19 39q45 205 45 332q0 160 -93 160q-39 0 -115.5 -14.5t-123.5 -34.5l-62 -25q-209 -84 -239 -84q-18 0 -19 15q0 29 18.5 52t59.5 42.5t79 34 t104.5 37t109.5 38.5q113 43 199 43q59 0 101 -28.5t59.5 -73.5t24.5 -82t7 -74q0 -55 -66.5 -382.5t-66.5 -379.5v-22q-6 -27 -40 -59.5t-44 -32.5q-4 0 -11 5t-16.5 27.5t-9.5 59.5q0 29 4 82t4 65q0 18 -4 19q-8 0 -22 -21q-66 -78 -204 -153.5t-218 -75.5 q-47 0 -113.5 17.5t-93.5 43.5q-25 25 -25 105zM336 172q0 -37 37 -56.5t86 -19.5q66 0 179.5 49.5t117.5 71.5q4 16 83 82t79 92q0 12 -8.5 27.5t-28 33t-63.5 29t-105 11.5q-164 0 -270.5 -105.5t-106.5 -214.5zM635 1323q0 14 27.5 58t39.5 57q20 18 90 102t131 149.5 t81 65.5q33 0 142 -150.5t109 -207.5q0 -16 -12 -39t-29 -23q-31 0 -79 65.5t-94 131t-68 65.5q-18 0 -46 -28.5t-83 -93.5q-14 -18 -23 -29q-70 -86 -96.5 -110.5t-52.5 -24.5q-37 0 -37 12z" />
<glyph unicode="&#xe3;" horiz-adv-x="1138" d="M233 164q0 74 24 133t71 102t87 68t99 55q152 76 270 76q47 0 75 -16.5t40 -34t25 -17.5q10 0 31.5 -20.5t29.5 -20.5q10 0 19 39q45 205 45 332q0 160 -93 160q-39 0 -115.5 -14.5t-123.5 -34.5l-62 -25q-209 -84 -239 -84q-18 0 -19 15q0 29 18.5 52t59.5 42.5t79 34 t104.5 37t109.5 38.5q113 43 199 43q59 0 101 -28.5t59.5 -73.5t24.5 -82t7 -74q0 -55 -66.5 -382.5t-66.5 -379.5v-22q-6 -27 -40 -59.5t-44 -32.5q-4 0 -11 5t-16.5 27.5t-9.5 59.5q0 29 4 82t4 65q0 18 -4 19q-8 0 -22 -21q-66 -78 -204 -153.5t-218 -75.5 q-47 0 -113.5 17.5t-93.5 43.5q-25 25 -25 105zM336 172q0 -37 37 -56.5t86 -19.5q66 0 179.5 49.5t117.5 71.5q4 16 83 82t79 92q0 12 -8.5 27.5t-28 33t-63.5 29t-105 11.5q-164 0 -270.5 -105.5t-106.5 -214.5zM547 1427q0 41 109.5 120t181.5 79q53 0 104 -27.5 t98 -65.5t66 -46l41 -21l63 50q39 31 72 69.5t51.5 58t36.5 19.5q33 0 33 -21q0 -45 -100.5 -141t-172.5 -96q-47 0 -154.5 75.5t-156.5 75.5q-33 0 -79 -30.5t-54 -30.5t-55 -45t-70 -45q-14 -1 -14 22z" />
<glyph unicode="&#xe4;" horiz-adv-x="1138" d="M236 154q0 137 68.5 218t209.5 150q152 76 266 76q49 0 78 -16.5t42 -34t23.5 -17.5t35 -21.5t28.5 -21.5q6 0 21.5 70t28 162t12.5 145q0 156 -91 156q-123 0 -315 -79t-225 -79q-18 0 -19 15q0 29 17.5 51t58.5 42.5t78 34t105.5 37t109.5 39.5q113 43 197 43 q133 0 178 -147q18 -66 18 -96q0 -55 -63 -375q-31 -156 -49.5 -261.5t-20.5 -133.5l-2 -27q-6 -29 -39 -61.5t-45 -32.5q-37 0 -37 100q0 31 4 82t4 61q0 16 -4 17q-6 0 -22 -23q-57 -70 -197.5 -149.5t-224.5 -79.5q-51 0 -115.5 19.5t-91.5 41.5q-23 23 -22 95zM334 174 q0 -37 40 -58.5t79 -21.5q70 0 183.5 50.5t119.5 72.5q4 14 81.5 81t77.5 93q0 12 -8 27.5t-26.5 33t-61.5 29t-102 11.5q-170 0 -276.5 -107t-106.5 -211zM799 1597q0 51 23.5 91.5t64.5 40.5q33 0 110 -58q-31 -59 -62.5 -96t-51 -46t-35.5 -9q-49 -1 -49 77zM1104 1583 q0 51 24.5 94t65.5 43q33 0 109 -61q-41 -84 -83 -118t-69 -34q-47 0 -47 76z" />
<glyph unicode="&#xe5;" horiz-adv-x="1138" d="M236 154q0 137 68.5 218t209.5 150q152 76 266 76q49 0 78 -16.5t42 -34t23.5 -17.5t35 -21.5t28.5 -21.5q6 0 21.5 70t28 162t12.5 145q0 156 -91 156q-123 0 -315 -79t-225 -79q-18 0 -19 15q0 29 17.5 51t58.5 42.5t78 34t105.5 37t109.5 39.5q113 43 197 43 q133 0 178 -147q18 -66 18 -96q0 -55 -63 -375q-31 -156 -49.5 -261.5t-20.5 -133.5l-2 -27q-6 -29 -39 -61.5t-45 -32.5q-37 0 -37 100q0 31 4 82t4 61q0 16 -4 17q-6 0 -22 -23q-57 -70 -197.5 -149.5t-224.5 -79.5q-51 0 -115.5 19.5t-91.5 41.5q-23 23 -22 95zM334 174 q0 -37 40 -58.5t79 -21.5q70 0 183.5 50.5t119.5 72.5q4 14 81.5 81t77.5 93q0 12 -8 27.5t-26.5 33t-61.5 29t-102 11.5q-170 0 -276.5 -107t-106.5 -211zM815 1524q0 45 33 112.5t71.5 106.5t127.5 39q66 0 113.5 -30t47.5 -81q0 -66 -74.5 -177.5t-185.5 -111.5 q-63 0 -98 43t-35 99zM932 1534q0 -49 47 -49q31 0 57 48t49 48q18 0 33 15.5t15 37.5q0 27 -18.5 48.5t-43.5 21.5q-41 0 -90 -55.5t-49 -114.5z" />
<glyph unicode="&#xe6;" horiz-adv-x="1701" d="M172 141q0 82 20.5 145.5t62.5 108.5t78 71t91 58q129 76 235 76q43 0 67 -17.5t35 -34t21 -16.5q8 0 30 -21.5t24 -21.5q6 0 21 75t28.5 171t13.5 150q0 137 -74 137q-109 0 -276.5 -79t-196.5 -79q-16 0 -16 15q0 29 16.5 51t53 42.5t68.5 35t93.5 38t94.5 37.5 q104 43 172 43q92 0 135 -41t61 -170q98 117 178 181.5t160 64.5q20 0 68 -6q66 -8 90 -20.5t53 -51.5q66 -90 66 -213q0 -92 -54.5 -134t-160.5 -72q-141 -41 -277 -54l-135 -10l-17 -82q-12 -51 -12 -100q0 -94 52.5 -191.5t129.5 -97.5q61 0 143.5 54.5t145 120 t118.5 119.5t73 54q2 0 2 -6q0 -43 -78 -150.5t-204 -206t-232 -98.5q-80 0 -125 46.5t-111 177.5q-14 -8 -41.5 -20.5t-44 -22t-20.5 -15.5q-45 -61 -182.5 -120.5t-217.5 -59.5q-47 0 -116.5 18.5t-92.5 40.5q-16 20 -16 80zM260 172q0 -33 34 -54.5t66 -21.5 q59 0 160 50.5t107 72.5q4 14 73.5 81t69.5 93q0 18 -10 39t-52 41.5t-108 20.5q-150 0 -245 -110t-95 -212zM1059 719q0 -16 31 -17q129 0 387 78q47 14 69.5 45t22.5 54q0 18 -45 98q-31 57 -49.5 72.5t-55.5 15.5q-70 0 -109.5 -19.5t-88.5 -78.5q-162 -193 -162 -248z " />
<glyph unicode="&#xe7;" horiz-adv-x="1165" d="M188 315q0 111 33 267q27 123 190.5 300t331.5 220q63 14 138 14q141 0 235 -85t94 -179q0 -43 -22.5 -76t-46.5 -33q-37 0 -37 54v14q0 51 -41 111q-20 29 -33.5 41t-72 26.5t-156.5 14.5q-78 0 -127 -29t-129 -117q-115 -125 -178.5 -241.5t-63.5 -254.5 q0 -41 12.5 -74.5t20.5 -45t35 -43.5q47 -57 74.5 -72.5t84.5 -15.5q88 0 192.5 57t180.5 124.5t148.5 125t105.5 57.5q27 0 19 -39q-8 -37 -131 -157.5t-203 -169.5l-23 -11q-10 -4 -69 -43q-109 -37 -119 -37h-17.5t-12.5 1t-8 -1t-7 -4t-6 -8q-18 -27 -19 -43 q0 -18 21.5 -50t21.5 -60q0 -18 -5 -38t-13 -35.5t-15.5 -27.5t-13.5 -20l-4 -8q-92 -31 -104 -31q-37 0 -72 34.5t-35 55.5q0 8 8 29.5t15 21.5q16 0 44.5 -22.5t67.5 -32.5q6 0 10.5 2t6.5 8t2 12t1 17.5t3 21.5q2 6 2 13q0 18 -22.5 23t-22.5 20q0 8 2 12l14 67 q0 2 1 5.5t1 5.5q0 23 -27.5 40t-62.5 25t-72 28.5t-53 49.5q-10 18 -28.5 49t-24.5 44.5t-12.5 38t-6.5 54.5z" />
<glyph unicode="&#xe8;" horiz-adv-x="1236" d="M186 408q0 98 19.5 178t57.5 143.5t67.5 99t79.5 84.5q209 211 374 211q57 0 88 -1t83.5 -11t85 -30.5t69.5 -60.5t61 -99q23 -55 23 -95q0 -84 -66.5 -123.5t-222.5 -74.5q-207 -45 -387 -54l-192 -10l-19 -82q-6 -32 -6 -67q0 -115 82 -217.5t207 -102.5q113 0 256 87 t253.5 173t137.5 86q8 0 8 -12q0 -31 -63.5 -103.5t-158.5 -150.5t-226 -136t-248 -58q-154 0 -258.5 114.5t-104.5 311.5zM373 688q0 -20 45 -20q201 0 543 77q61 14 90.5 40t29.5 51q0 37 -62.5 102.5t-88.5 79.5q-29 12 -78 12q-100 0 -155.5 -21.5t-116.5 -76.5 q-207 -189 -207 -244zM678 1516q0 12 24.5 32.5t39 20.5t91 -97.5t93.5 -132.5q6 -16 6 -30q0 -49 -39 -49q-37 0 -126 115.5t-89 140.5z" />
<glyph unicode="&#xe9;" horiz-adv-x="1269" d="M207 406q0 182 72 315q66 123 230.5 263t283.5 140q33 0 96 -6q96 -8 134 -20.5t81 -50.5q47 -43 77.5 -109t30.5 -119q0 -80 -67.5 -120t-218.5 -72q-199 -43 -387 -54l-195 -10l-16 -82q-8 -35 -9 -75q0 -104 89 -211q84 -102 200 -103q88 0 199 54.5t194.5 120 t158 119.5t97.5 54q6 0 7 -10q0 -35 -79 -123t-145 -137q-258 -190 -471 -190q-145 0 -253.5 111.5t-108.5 314.5zM391 684q0 -18 45 -18q186 0 545 77q68 14 95.5 43t27.5 52q0 30 -70 102q-51 57 -78.5 72.5t-81.5 15.5q-102 0 -156 -19.5t-118 -78.5q-209 -190 -209 -246 zM752 1288q0 23 28.5 51.5t116.5 102.5q146 125 164 125q10 0 25.5 -15.5t15.5 -29.5q0 -23 -143.5 -144t-182.5 -121q-25 0 -24 31z" />
<glyph unicode="&#xea;" horiz-adv-x="1263" d="M207 406q0 182 72 315q66 123 230.5 263t283.5 140q33 0 96 -6q96 -8 134 -20.5t81 -50.5q47 -43 77.5 -109t30.5 -119q0 -80 -67.5 -120t-218.5 -72q-199 -43 -387 -54l-195 -10l-16 -82q-8 -35 -9 -75q0 -104 89 -211q84 -102 200 -103q88 0 199 54.5t194.5 120 t158 119.5t97.5 54q8 0 7 -16q-8 -37 -80 -119t-144 -135q-258 -190 -471 -190q-145 0 -253.5 111.5t-108.5 314.5zM391 684q0 -18 45 -18q186 0 545 77q68 16 95.5 44t27.5 51q0 30 -70 102q-51 57 -78.5 72.5t-81.5 15.5q-102 0 -156 -19.5t-118 -78.5 q-209 -190 -209 -246zM649 1345.5q0 12.5 23.5 54.5t42.5 58q20 18 89.5 102.5t130.5 150t81 65.5q33 0 142.5 -150.5t109.5 -208.5q0 -16 -11.5 -37.5t-27.5 -21.5q-25 0 -60.5 41t-66.5 89t-63.5 89t-51 41t-46.5 -28.5t-83 -94.5q-14 -18 -22 -29q-68 -84 -95.5 -108.5 t-56.5 -24.5q-35 0 -35 12.5z" />
<glyph unicode="&#xeb;" horiz-adv-x="1263" d="M207 406q0 182 72 315q66 123 230.5 263t283.5 140q33 0 96 -6q96 -8 134 -20.5t81 -50.5q47 -43 77.5 -109t30.5 -119q0 -80 -67.5 -120t-218.5 -72q-199 -43 -387 -54l-195 -10l-16 -82q-8 -35 -9 -75q0 -104 89 -211q84 -102 200 -103q88 0 199 54.5t194.5 120 t158 119.5t97.5 54q6 0 7 -10q0 -35 -79 -123t-145 -137q-258 -190 -471 -190q-145 0 -253.5 111.5t-108.5 314.5zM391 684q0 -18 45 -18q186 0 545 77q68 16 95.5 44t27.5 51q0 30 -70 102q-51 57 -78.5 72.5t-81.5 15.5q-102 0 -156 -19.5t-118 -78.5q-209 -190 -209 -246 zM752 1624q0 51 24.5 92t65.5 41q33 0 108 -59q-29 -59 -61.5 -96t-53 -46.5t-34.5 -9.5q-49 0 -49 78zM1057 1614q0 51 24.5 92t65.5 41q37 0 108 -59q-29 -59 -61.5 -96.5t-53 -46.5t-34.5 -9q-49 0 -49 78z" />
<glyph unicode="&#xec;" horiz-adv-x="567" d="M264 61q0 45 60.5 426t91.5 527q26 126 65 153q35 25 56 25q35 0 34 -84q0 -127 -76.5 -578.5t-107.5 -482.5t-68 -31q-27 0 -41 13.5t-14 31.5zM508 1729q0 14 25.5 32.5t35.5 18.5q6 0 53.5 -52.5t93.5 -117.5t46 -94q0 -14 -12.5 -31t-26.5 -17q-39 0 -127 115 t-88 146z" />
<glyph unicode="&#xed;" horiz-adv-x="567" d="M264 61q0 45 60.5 426t91.5 527q26 126 65 153q35 25 56 25q35 0 34 -84q0 -127 -76.5 -578.5t-107.5 -482.5t-68 -31q-27 0 -41 13.5t-14 31.5zM463 1505.5q0 28.5 76.5 99t152.5 127t80 56.5q12 0 25.5 -15.5t13.5 -29.5q0 -25 -143.5 -145.5t-184.5 -120.5 q-20 0 -20 28.5z" />
<glyph unicode="&#xee;" horiz-adv-x="702" d="M264 61q0 45 60.5 426t91.5 527q26 126 65 153q35 25 56 25q35 0 34 -84q0 -127 -76.5 -578.5t-107.5 -482.5t-68 -31q-27 0 -41 13.5t-14 31.5zM319 1351.5q0 12.5 24 54.5t42 58q20 18 90 102.5t130.5 150t80.5 65.5q33 0 142.5 -150.5t109.5 -208.5q0 -16 -11.5 -37.5 t-27.5 -21.5q-31 0 -79 65.5t-94 130t-69 64.5q-18 0 -45.5 -28.5t-83.5 -94.5q-14 -18 -22 -28q-68 -84 -95.5 -109t-56.5 -25q-35 0 -35 12.5z" />
<glyph unicode="&#xef;" horiz-adv-x="567" d="M264 61q0 45 60.5 426t91.5 527q26 126 65 153q35 25 56 25q35 0 34 -84q0 -127 -76.5 -578.5t-107.5 -482.5t-68 -31q-27 0 -41 13.5t-14 31.5zM383 1604q0 51 24.5 91t67.5 40q33 0 109 -60q-29 -59 -62 -96t-53 -46t-35 -9q-51 0 -51 80zM688 1593q0 51 24.5 91 t67.5 40q37 0 109 -59q-29 -59 -61.5 -96t-53 -46.5t-35.5 -9.5q-51 0 -51 80z" />
<glyph unicode="&#xf0;" horiz-adv-x="1333" d="M197 332q0 47 20 149q53 250 291 439q184 145 334.5 196t331.5 51q2 4 4 9l2 2q0 2 -8.5 6t-37 24.5t-65.5 53.5q-8 6 -72 59q-35 -8 -173 -60.5t-171 -52.5q-51 0 -59 64q90 18 183 61t116 47q-53 25 -123 44.5t-72 19.5q-31 10 -55.5 41.5t-24.5 64.5q0 25 15.5 44.5 t40.5 19.5q18 -2 52 -8.5t132 -50.5t191 -117q12 2 105 33.5t132 31.5q53 0 53 -33q0 -20 -16 -33.5t-39.5 -19.5t-46.5 -9t-41 -3l-18 -2q-8 -2 -32 -7t-36 -7q57 -49 98 -85t74 -71t53.5 -54.5t37 -46t23.5 -37t12 -37t6 -34.5t3 -42t2 -48v-25q0 -29 -8 -69l-10 -54 q-39 -211 -191.5 -432t-316.5 -309q-156 -84 -307 -84q-213 0 -307 145q-82 125 -82 226zM352 371q0 -133 83 -212t224 -81q172 0 362.5 237.5t254.5 534.5q6 31 6 49q0 49 -57.5 88t-120.5 39q-14 0 -31.5 -3t-57.5 -8t-95 -11q-72 -6 -119 -29t-125 -84 q-158 -123 -241 -248t-83 -272z" />
<glyph unicode="&#xf1;" horiz-adv-x="1267" d="M350 -2q0 41 14.5 136t40 276.5t46.5 375.5q25 236 41 314t57 78q27 0 26 -58q0 -45 -16 -217t-30.5 -323.5t-12.5 -155.5q12 6 94 166q70 137 112 198.5t138 163.5q193 207 275 207q55 0 86 -72q39 -84 39 -155q0 -61 -32 -243.5t-63 -334.5l-30 -151 q-31 -145 -52.5 -181t-68.5 -38q-23 0 -23 24q0 16 39 177t79 369t40 341q0 39 -12.5 66.5t-24.5 39t-22 11.5q-43 0 -168 -145.5t-228 -309.5q-96 -154 -135 -231.5t-80 -208.5q-68 -209 -78 -209q-14 0 -39 35q-12 16 -12 55zM604 1499q0 43 111.5 123t181.5 80 q53 0 105.5 -27.5t99.5 -65.5t63 -46l41 -21l64 49q39 31 71.5 70t51 57.5t37.5 18.5q31 0 30 -19q0 -45 -101.5 -142t-168.5 -97q-47 0 -155.5 75.5t-157.5 75.5q-31 0 -76 -29.5t-53.5 -29.5t-56.5 -46t-70 -46q-17 0 -17 20z" />
<glyph unicode="&#xf2;" horiz-adv-x="1333" d="M197 332q0 47 20 149q53 250 291 439q190 150 311 197.5t289 47.5q170 0 231.5 -59t61.5 -174q0 -137 -70.5 -317.5t-190.5 -341t-247 -228.5q-156 -84 -307 -84q-213 0 -307 145q-82 125 -82 226zM352 371q0 -133 83 -212t224 -81q172 0 362.5 237.5t254.5 534.5 q6 31 6 49q0 49 -57.5 88t-120.5 39q-14 0 -31.5 -3t-57.5 -8t-95 -11q-72 -6 -119 -29t-125 -84q-158 -123 -241 -248t-83 -272zM979 1651q0 12 24.5 31.5t36.5 19.5q16 0 103.5 -111.5t87.5 -154.5q0 -14 -10.5 -28.5t-26.5 -14.5q-37 0 -126 114.5t-89 143.5z" />
<glyph unicode="&#xf3;" horiz-adv-x="1333" d="M197 332q0 47 20 149q53 250 291 439q190 150 311 197.5t289 47.5q170 0 231.5 -59t61.5 -174q0 -137 -70.5 -317.5t-190.5 -341t-247 -228.5q-156 -84 -307 -84q-213 0 -307 145q-82 125 -82 226zM352 371q0 -133 83 -212t224 -81q172 0 362.5 237.5t254.5 534.5 q6 31 6 49q0 49 -57.5 88t-120.5 39q-14 0 -31.5 -3t-57.5 -8t-95 -11q-72 -6 -119 -29t-125 -84q-158 -123 -241 -248t-83 -272zM1055 1491q0 18 26 49q33 35 152 132t131 97t26.5 -15t14.5 -30q0 -25 -143.5 -144.5t-182.5 -119.5q-25 0 -24 31z" />
<glyph unicode="&#xf4;" horiz-adv-x="1333" d="M197 332q0 47 20 149q53 250 291 439q190 150 311 197.5t289 47.5q170 0 231.5 -59t61.5 -174q0 -137 -70.5 -317.5t-190.5 -341t-247 -228.5q-156 -84 -307 -84q-213 0 -307 145q-82 125 -82 226zM352 371q0 -133 83 -212t224 -81q172 0 362.5 237.5t254.5 534.5 q6 31 6 49q0 49 -57.5 88t-120.5 39q-14 0 -31.5 -3t-57.5 -8t-95 -11q-72 -6 -119 -29t-125 -84q-158 -123 -241 -248t-83 -272zM801 1454q0 14 28.5 59.5t38.5 53.5q20 18 90 102t130.5 149.5t80.5 65.5q33 0 142.5 -150.5t109.5 -207.5q0 -16 -12 -38t-29 -22 q-31 0 -79 65.5t-94 130t-68 64.5q-18 0 -46 -28.5t-83 -93.5q-14 -18 -23 -29q-68 -84 -95.5 -108.5t-53.5 -24.5q-37 0 -37 12z" />
<glyph unicode="&#xf5;" horiz-adv-x="1333" d="M197 332q0 47 20 149q53 250 291 439q190 150 311 197.5t289 47.5q170 0 231.5 -59t61.5 -174q0 -137 -70.5 -317.5t-190.5 -341t-247 -228.5q-156 -84 -307 -84q-213 0 -307 145q-82 125 -82 226zM352 371q0 -133 83 -212t224 -81q172 0 362.5 237.5t254.5 534.5 q6 31 6 49q0 49 -57.5 88t-120.5 39q-14 0 -31.5 -3t-57.5 -8t-95 -11q-72 -6 -119 -29t-125 -84q-158 -123 -241 -248t-83 -272zM700 1546q0 43 112 123t181 80q53 0 105.5 -27.5t99.5 -65.5t64 -46l41 -21l63 49q39 31 71.5 70t51 57.5t37.5 18.5q31 0 30 -19 q0 -45 -101 -142t-169 -97q-47 0 -155.5 75.5t-157.5 75.5q-31 0 -76 -29.5t-53 -29.5t-56.5 -46t-70.5 -46q-17 0 -17 20z" />
<glyph unicode="&#xf6;" horiz-adv-x="1333" d="M197 332q0 47 20 149q53 250 291 439q190 150 311 197.5t289 47.5q170 0 231.5 -59t61.5 -174q0 -137 -70.5 -317.5t-190.5 -341t-247 -228.5q-156 -84 -307 -84q-213 0 -307 145q-82 125 -82 226zM352 371q0 -133 83 -212t224 -81q172 0 362.5 237.5t254.5 534.5 q6 31 6 49q0 49 -57.5 88t-120.5 39q-14 0 -31.5 -3t-57.5 -8t-95 -11q-72 -6 -119 -29t-125 -84q-158 -123 -241 -248t-83 -272zM895 1497q0 51 24.5 92t65.5 41q33 0 109 -59q-29 -59 -62 -96t-53.5 -46.5t-34.5 -9.5q-49 0 -49 78zM1200 1487q0 51 24.5 92t65.5 41 q37 0 109 -59q-29 -59 -61.5 -96.5t-53 -46.5t-35.5 -9q-49 0 -49 78z" />
<glyph unicode="&#xf7;" horiz-adv-x="821" d="M236 623q66 2 102.5 3t42.5 2t17.5 1h37.5q35 0 70 10t67 10q37 0 73 18.5t91 18.5q92 0 92 -43q0 -10 -9 -20.5t-33.5 -20.5t-59.5 -10q-20 0 -52 -4t-42 -4q-43 -4 -169 -20.5t-142 -16.5q-84 0 -86 76zM317 162q0 47 44.5 111.5t78.5 64.5q25 0 50.5 -36t25.5 -75 q-4 -106 -41 -106q-20 0 -43.5 -45t-56.5 -45q-20 0 -29.5 14t-19.5 57q-9 35 -9 60zM498 920q0 78 51 121.5t84 43.5q53 0 53 -84q0 -23 -6 -37t-23.5 -37.5t-29.5 -49.5q-35 -72 -74 -72q-27 0 -41 35t-14 80z" />
<glyph unicode="&#xf8;" horiz-adv-x="1333" d="M197 332q0 47 20 149q53 250 291 439q190 150 311 197.5t289 47.5q33 0 86 -4l35 49l80 76q10 -2 22 -3t17.5 -2t13.5 -2t12 -4t10.5 -7t10.5 -10.5t10 -14.5q-29 -35 -80 -127q76 -51 76 -180q0 -221 -159 -505t-349 -386q-156 -84 -307 -84q-41 0 -80 6l-41 -51 q-70 -88 -99.5 -116.5t-54.5 -28.5q-51 0 -51 34q0 49 107 189q10 12 14 18q-70 37 -127 131.5t-57 188.5zM352 371q0 -162 119 -242q111 158 125 178l502 719q-10 0 -59.5 -8t-118.5 -14q-72 -8 -120 -31t-124 -82q-158 -123 -241 -248t-83 -272zM594 84q34 -6 65 -6 q172 0 362.5 237.5t254.5 534.5q6 31 6 49q0 41 -47 80q-66 -92 -173.5 -236.5t-175 -235.5t-69.5 -104q-4 -25 -155 -231z" />
<glyph unicode="&#xf9;" horiz-adv-x="1241" d="M233 123q0 229 76 605t140 376q6 0 15 -3t20.5 -19.5t11.5 -43t-20.5 -97.5t-31.5 -118q-33 -152 -63.5 -378t-30.5 -318q0 -98 53 -98q47 0 162 84q139 104 296 325t247 443q86 215 117 231q23 14 47 14q39 0 39 -41q0 -23 -36 -124t-80 -231t-60 -204 q-20 -102 -21 -209q0 -61 7 -156t7 -124q0 -25 -4 -49q-4 -20 -23.5 -32.5t-31.5 -15.5t-18 -3q-37 0 -50.5 104t-19.5 208.5t-25 104.5q-4 0 -8 -2t-10 -7t-12 -11t-15.5 -16.5t-15.5 -18.5t-19.5 -24.5t-23.5 -26.5q-121 -141 -251 -235.5t-206 -94.5q-90 0 -126 42 t-36 163zM817 1489q0 14 25.5 32.5t36.5 18.5q6 0 53 -52t93 -117.5t46 -94.5q0 -14 -11 -30.5t-26 -16.5q-39 0 -128 114.5t-89 145.5z" />
<glyph unicode="&#xfa;" horiz-adv-x="1241" d="M233 123q0 229 76 605t140 376q6 0 15 -3t20.5 -19.5t11.5 -43t-20.5 -97.5t-31.5 -118q-33 -152 -63.5 -378t-30.5 -318q0 -98 53 -98q47 0 162 84q139 104 296 325t247 443q86 215 117 231q23 14 47 14q39 0 39 -41q0 -23 -36 -124t-80 -231t-60 -204 q-20 -102 -21 -209q0 -61 7 -156t7 -124q0 -25 -4 -49q-4 -20 -23.5 -32.5t-31.5 -15.5t-18 -3q-37 0 -50.5 104t-19.5 208.5t-25 104.5q-4 0 -8 -2t-10 -7t-12 -11t-15.5 -16.5t-15.5 -18.5t-19.5 -24.5t-23.5 -26.5q-121 -141 -251 -235.5t-206 -94.5q-90 0 -126 42 t-36 163zM842 1300q0 25 143 146t184 121q20 0 21 -27q0 -4 -2 -8v-6q-8 -37 -150.5 -154t-156.5 -117q-10 0 -24.5 15.5t-14.5 29.5z" />
<glyph unicode="&#xfb;" horiz-adv-x="1241" d="M233 123q0 229 76 605t140 376q6 0 15 -3t20.5 -19.5t11.5 -43t-20.5 -97.5t-31.5 -118q-33 -152 -63.5 -378t-30.5 -318q0 -98 53 -98q47 0 162 84q139 104 296 325t247 443q86 215 117 231q23 14 47 14q39 0 39 -41q0 -23 -36 -124t-80 -231t-60 -204 q-20 -102 -21 -209q0 -61 7 -156t7 -124q0 -25 -4 -49q-4 -20 -23.5 -32.5t-31.5 -15.5t-18 -3q-37 0 -50.5 104t-19.5 208.5t-25 104.5q-4 0 -8 -2t-10 -7t-12 -11t-15.5 -16.5t-15.5 -18.5t-19.5 -24.5t-23.5 -26.5q-121 -141 -251 -235.5t-206 -94.5q-90 0 -126 42 t-36 163zM608 1321q0 14 29 56t41 55q18 18 89 102t131.5 149.5t80.5 65.5q31 0 139.5 -150.5t108.5 -207.5q0 -18 -11.5 -39t-27.5 -21q-29 0 -77 65.5t-93 130t-70 64.5q-6 0 -11 -2t-11 -6t-12.5 -8t-14.5 -13.5t-15 -16.5t-18.5 -21.5t-19.5 -23.5t-23.5 -28.5 t-25.5 -31.5q-68 -84 -95.5 -108.5t-54.5 -24.5q-39 0 -39 14z" />
<glyph unicode="&#xfc;" horiz-adv-x="1241" d="M233 123q0 229 76 605t140 376q6 0 15 -3t20.5 -19.5t11.5 -43t-20.5 -97.5t-31.5 -118q-33 -152 -63.5 -378t-30.5 -318q0 -98 53 -98q47 0 162 84q139 104 296 325t247 443q86 215 117 231q23 14 47 14q39 0 39 -41q0 -23 -36 -124t-80 -231t-60 -204 q-20 -102 -21 -209q0 -61 7 -156t7 -124q0 -25 -4 -49q-4 -20 -23.5 -32.5t-31.5 -15.5t-18 -3q-37 0 -50.5 104t-19.5 208.5t-25 104.5q-4 0 -8 -2t-10 -7t-12 -11t-15.5 -16.5t-15.5 -18.5t-19.5 -24.5t-23.5 -26.5q-121 -141 -251 -235.5t-206 -94.5q-90 0 -126 42 t-36 163zM752 1493q0 51 24.5 91t67.5 40q31 0 106 -59q-29 -59 -60.5 -96t-52 -46.5t-34.5 -9.5q-51 0 -51 80zM1057 1483q0 49 24.5 90t65.5 41q37 0 108 -60q-29 -59 -60.5 -96t-52 -46t-34.5 -9q-51 0 -51 80z" />
<glyph unicode="&#xfd;" horiz-adv-x="1077" d="M231 324q0 66 52 307q51 231 84.5 316t76.5 85q27 0 27 -33q0 -37 -59.5 -297t-59.5 -350q0 -76 39 -76t147.5 96.5t163.5 180.5q68 102 128.5 246.5t99.5 220.5t84 76q18 0 32.5 -13.5t14.5 -35.5q0 -33 -51.5 -136.5t-111.5 -268.5t-79 -335l2 -59l72 33q55 23 84 22 q45 0 45 -31q0 -53 -104 -102l-95 -43l-39 -229q-86 -358 -106.5 -383t-56.5 -25q-43 0 -121 37q-45 23 -66.5 49.5t-36.5 77.5q-20 70 -20 135q0 47 10 81t20.5 50.5t43 55t53.5 67.5q27 35 73 58.5t60 35.5q20 16 37.5 26.5t22.5 14.5t8 15v8q2 6 3 16t2 23.5t2 29t1 27.5 q0 57 -17 57q-12 0 -66.5 -50t-130 -100t-141.5 -50q-68 0 -97.5 56t-29.5 114zM483 -236q0 -39 41 -92t68 -53q31 0 61 143q6 41 8.5 97.5t4.5 79.5l12 122l-76 -88q-119 -139 -119 -209zM698 1360q0 25 143.5 145.5t184.5 120.5q21 0 21 -33q0 -27 -77 -96.5t-153 -125.5 t-80 -56q-12 0 -25.5 15.5t-13.5 29.5z" />
<glyph unicode="&#xfe;" horiz-adv-x="1411" d="M254 -217q0 47 132 721t132 682q0 2 47 160q41 137 66 141q41 10 45 10q6 0 6 -2q0 -35 -113 -549q41 55 82 98t82 73t72 49.5t76 32.5l67.5 19.5t72.5 15.5t69 13q41 -10 108.5 -56t122.5 -104q53 -57 75.5 -103t22.5 -107q0 -59 -22 -168q-43 -201 -143.5 -326 t-274.5 -195q-86 -33 -152 -32q-94 0 -209 57q-94 47 -114.5 77.5t-30.5 147.5q-115 -537 -133 -585q-31 -84 -68 -84q-18 0 -18 14zM559 520q0 -82 37 -121q47 -51 125 -80.5t160 -29.5q98 0 159 41q119 82 185.5 233.5t66.5 298.5q0 20 -2 39t-5 31t-9 23.5t-10 16.5 t-11.5 11t-11.5 8t-10 6t-8 4q-55 33 -56 48q0 20 -45 35.5t-80 15.5q-4 0 -19 -2t-24 -2q-10 0 -14 5t-5 11t-4 11t-9 5q-10 0 -40 -9t-81 -36.5t-99.5 -68.5t-92.5 -115t-64 -164q-33 -156 -33 -215z" />
<glyph unicode="&#xff;" horiz-adv-x="1077" d="M231 324q0 66 52 307q51 231 84.5 316t76.5 85q27 0 27 -33q0 -37 -59.5 -297t-59.5 -350q0 -76 39 -76t147.5 96.5t163.5 180.5q68 102 128.5 246.5t99.5 220.5t84 76q18 0 32.5 -13.5t14.5 -35.5q0 -33 -51.5 -136.5t-111.5 -268.5t-79 -335l2 -59l72 33q55 23 84 22 q45 0 45 -31q0 -53 -104 -102l-95 -43l-39 -229q-86 -358 -106.5 -383t-56.5 -25q-43 0 -121 37q-45 23 -66.5 49.5t-36.5 77.5q-20 70 -20 135q0 47 10 81t20.5 50.5t43 55t53.5 67.5q27 35 73 58.5t60 35.5q20 16 37.5 26.5t22.5 14.5t8 15v8q2 6 3 16t2 23.5t2 29t1 27.5 q0 57 -17 57q-12 0 -66.5 -50t-130 -100t-141.5 -50q-68 0 -97.5 56t-29.5 114zM483 -236q0 -39 41 -92t68 -53q31 0 61 143q6 41 8.5 97.5t4.5 79.5l12 122l-76 -88q-119 -139 -119 -209zM616 1497q0 51 25 92t66 41q33 0 108 -59q-29 -59 -61.5 -96t-53 -46.5t-34.5 -9.5 q-50 0 -50 78zM922 1487q0 51 24.5 92t65.5 41q37 0 108 -59q-29 -59 -61.5 -96.5t-53 -46.5t-34.5 -9q-49 0 -49 78z" />
<glyph unicode="&#x152;" horiz-adv-x="1492" d="M244 483q0 184 111.5 456.5t279.5 375.5q68 41 182 41q57 0 119.5 18.5t101.5 22.5q37 4 66 8q25 4 156 4h137q174 0 174 -53q0 -37 -211 -70q-63 -10 -128 -17t-85.5 -10.5t-46 -13.5t-53.5 -35q-53 -45 -54 -98q0 -2 3 -18t3 -39q0 -45 -13 -149.5t-13 -129.5 q0 -31 12 -31q6 0 16 7q39 20 201 56t213 36t51 -39q0 -51 -47 -71.5t-237 -65.5q-160 -37 -199 -54.5t-49 -58.5q-2 -12 -11.5 -55t-19.5 -93.5t-20 -107.5l-31 -176h104q45 0 80 8t90.5 26.5t108.5 30.5q27 6 55.5 20.5t36.5 14.5q18 0 32.5 -20.5t14.5 -40.5 q0 -27 -25.5 -49.5t-85 -44t-104.5 -33.5t-140 -33.5t-134 -32.5q-96 -25 -203 -24q-18 0 -59 1t-64 1q-55 0 -86 13t-74 54q-70 66 -112.5 197t-42.5 272zM369 539q0 -47 12 -138q25 -172 61.5 -239.5t126.5 -67.5q20 0 52 4t74 24.5t50 55.5q4 16 5.5 65.5t7.5 82.5 q2 4 18.5 56t28.5 112q14 72 27.5 178t17.5 127q27 133 27 207q0 170 -103 170q-41 0 -75.5 -11.5t-60.5 -24t-52.5 -47t-41 -56t-40 -79t-35.5 -85t-39 -101.5q-61 -160 -61 -233z" />
<glyph unicode="&#x153;" horiz-adv-x="1742" d="M197 332q0 47 20 149q53 250 291 439q190 150 311 197.5t289 47.5q78 0 113.5 -5t68.5 -20.5t60 -21.5q23 -6 76 -15t82.5 -20.5t56.5 -35.5q47 -43 77.5 -109t30.5 -119q0 -80 -67.5 -120t-219.5 -72q-184 -39 -286 -45l-193 -11l-24 -122q-10 -51 -11 -72 q0 -27 13 -113q8 -68 65.5 -120t118.5 -52q88 0 198.5 54.5t194.5 120t159 119.5t97 54q6 0 6 -10q0 -23 -34.5 -72t-102 -112.5t-151.5 -120.5t-199.5 -96t-230.5 -39q-49 0 -98.5 7t-71.5 7q-47 0 -128 -21.5t-122 -21.5q-213 0 -307 145q-82 125 -82 226zM352 371 q0 -131 82 -210t225 -83l148 45l-55 178q-2 12 -2 39q0 33 5 64.5t13 57t16.5 44t14.5 31.5l6 12q4 16 5 39.5t3 32.5q8 33 19.5 59.5t29 56t27.5 49.5q6 12 52 67.5t46 92.5q0 27 -14.5 48.5t-46.5 21.5q-84 0 -281 -158q-143 -113 -200.5 -193.5t-82.5 -197.5 q-10 -41 -10 -96zM954 692q0 -18 45 -18q121 0 443 69q68 16 95.5 44t27.5 51q0 30 -70 102q-51 57 -78.5 72.5t-81.5 15.5q-104 0 -151 -21.5t-94 -97.5q-29 -49 -59 -91t-44 -60.5t-23.5 -34.5t-9.5 -31z" />
<glyph unicode="&#x178;" horiz-adv-x="1495" d="M457 1464q0 27 19.5 46.5t37.5 19.5q33 0 104.5 -79t258.5 -318q80 -102 149.5 -177t85.5 -75q23 0 47.5 16t60 60t69.5 89.5t98.5 134.5t123.5 165q25 31 42.5 80t25.5 86.5t24.5 65.5t38.5 28q14 0 51.5 -23.5t37.5 -52.5q0 -98 -186.5 -368.5t-309.5 -391.5 q-37 -35 -54.5 -53.5t-45 -58.5t-47 -71.5t-82 -133t-125.5 -203.5l-250 -397q-41 -66 -88 -66q-23 0 -41.5 19.5t-18.5 46.5q0 35 69 148.5t282 428.5l174 258l-265 344q-174 227 -230 309t-56 123zM936 1901q0 51 24.5 91t65.5 40q31 0 109 -58q-29 -59 -62 -96t-53.5 -46 t-34.5 -9q-49 0 -49 78zM1239 1890q0 51 25.5 92t66.5 41q35 0 109 -61q-29 -57 -61.5 -94t-53 -47.5t-35.5 -10.5q-51 0 -51 80z" />
<glyph unicode="&#x2c6;" horiz-adv-x="915" d="M399 1198q0 12 23.5 54t42.5 59q20 18 90 102t130.5 149.5t80.5 65.5q33 0 142.5 -150.5t109.5 -207.5q0 -16 -11.5 -38t-27.5 -22q-25 0 -60.5 41t-66.5 89.5t-63.5 89t-51 40.5t-46 -28.5t-83.5 -93.5q-14 -18 -22 -29q-68 -84 -95.5 -108.5t-56.5 -24.5q-35 0 -35 12z " />
<glyph unicode="&#x2dc;" horiz-adv-x="1255" d="M510 1300q0 39 109.5 120t181.5 81q53 0 105 -27.5t99.5 -65.5t63.5 -46l41 -21l64 50q39 31 71.5 69.5t51 57t36.5 18.5q31 0 31 -18q0 -45 -100.5 -142.5t-167.5 -97.5q-47 0 -157 76t-159 76t-147 -76t-107 -76q-16 0 -16 22z" />
<glyph unicode="&#x2000;" horiz-adv-x="1106" />
<glyph unicode="&#x2001;" horiz-adv-x="2212" />
<glyph unicode="&#x2002;" horiz-adv-x="1106" />
<glyph unicode="&#x2003;" horiz-adv-x="2212" />
<glyph unicode="&#x2004;" horiz-adv-x="737" />
<glyph unicode="&#x2005;" horiz-adv-x="553" />
<glyph unicode="&#x2006;" horiz-adv-x="368" />
<glyph unicode="&#x2007;" horiz-adv-x="368" />
<glyph unicode="&#x2008;" horiz-adv-x="276" />
<glyph unicode="&#x2009;" horiz-adv-x="442" />
<glyph unicode="&#x200a;" horiz-adv-x="122" />
<glyph unicode="&#x2010;" horiz-adv-x="1906" d="M387 684l33 104q23 72 60.5 92.5t183.5 34.5q184 19 608 19h47q352 0 454.5 -17.5t102.5 -95.5q0 -68 -158.5 -88t-627.5 -33z" />
<glyph unicode="&#x2011;" horiz-adv-x="1906" d="M387 684l33 104q23 72 60.5 92.5t183.5 34.5q184 19 608 19h47q352 0 454.5 -17.5t102.5 -95.5q0 -68 -158.5 -88t-627.5 -33z" />
<glyph unicode="&#x2012;" horiz-adv-x="1906" d="M387 684l33 104q23 72 60.5 92.5t183.5 34.5q184 19 608 19h47q352 0 454.5 -17.5t102.5 -95.5q0 -68 -158.5 -88t-627.5 -33z" />
<glyph unicode="&#x2013;" horiz-adv-x="1202" d="M225 575q111 2 241 18.5t159 16.5q35 0 116.5 -5t114.5 -5q37 0 125 14.5t143 14.5q92 0 93 -43q0 -10 -9.5 -20.5t-34 -20.5t-59.5 -10q-20 0 -57 4t-47 4q-70 -4 -277 -12.5t-293 -14.5q-2 0 -52 -8t-77 -8q-84 0 -86 75z" />
<glyph unicode="&#x2014;" horiz-adv-x="1445" d="M203 637q131 2 275.5 19.5t154.5 17.5q51 0 206.5 -18.5t207.5 -18.5q20 0 118.5 15.5t159.5 15.5q106 0 107 -43q0 -10 -8.5 -20.5t-36 -21t-68.5 -10.5q-23 0 -65 4.5t-56 4.5q-82 -4 -154 -4q-63 0 -208 2t-211 2q-150 0 -221.5 -10.5t-100.5 -10.5q-94 0 -100 76z " />
<glyph unicode="&#x2018;" horiz-adv-x="659" d="M459 1386q0 51 23.5 73t52.5 22q70 0 105.5 -148.5t35.5 -281.5q0 -33 -2 -41l-47 -17q-39 35 -103.5 170t-64.5 223z" />
<glyph unicode="&#x2019;" horiz-adv-x="645" d="M428 1051q0 80 121 230.5t194 150.5q41 -1 41 -46q0 -84 -122.5 -229t-196.5 -145q-37 0 -37 39z" />
<glyph unicode="&#x201a;" horiz-adv-x="645" d="M209 33q0 80 121 230.5t194 150.5q43 0 43 -47q0 -84 -124 -228.5t-197 -144.5q-37 0 -37 39z" />
<glyph unicode="&#x201c;" horiz-adv-x="714" d="M412 1296q0 61 21.5 91t45.5 30q57 0 111.5 -109.5t54.5 -207.5q0 -59 -22.5 -84t-51.5 -25q-59 0 -109 103.5t-50 201.5zM664 1473q0 49 4 77l47 15q35 -41 91 -175.5t56 -222.5q0 -98 -74 -98q-66 0 -95 130t-29 274z" />
<glyph unicode="&#x201d;" horiz-adv-x="815" d="M436 1149q0 84 121 229.5t193 145.5q39 0 38 -43q0 -82 -119.5 -230.5t-189.5 -148.5q-43 0 -43 47zM580 1016q0 78 154.5 228.5t234.5 197.5l28 -31q-33 -84 -166.5 -263t-205.5 -179q-16 0 -30.5 12t-14.5 35z" />
<glyph unicode="&#x201e;" horiz-adv-x="815" d="M225 152q0 80 119 226t195 146q39 0 39 -43q0 -82 -119 -230.5t-189 -148.5q-45 1 -45 50zM369 16q0 78 154.5 228.5t234.5 197.5l30 -30q-33 -84 -167.5 -263.5t-206.5 -179.5q-16 0 -30.5 12.5t-14.5 34.5z" />
<glyph unicode="&#x2022;" horiz-adv-x="1380" d="M530 606q0 133 87.5 203t195.5 70q123 0 198.5 -91.5t75.5 -205.5q0 -106 -69.5 -178t-210.5 -72q-129 0 -203 81.5t-74 192.5z" />
<glyph unicode="&#x202f;" horiz-adv-x="442" />
<glyph unicode="&#x2039;" horiz-adv-x="974" d="M319 795q0 39 148 149l229 174q102 78 129 78q20 0 21 -27q0 -10 -5 -19t-19.5 -22.5t-31 -24.5t-52.5 -38t-68 -53l-160 -125q-88 -70 -88 -92q0 -31 67.5 -135.5t110.5 -135.5q76 -61 76 -96q0 -12 -24 -31.5t-36 -19.5q-4 0 -6 1t-3 4t-5 9t-11 14.5t-22.5 23.5 t-38.5 34q-78 63 -144.5 169.5t-66.5 162.5z" />
<glyph unicode="&#x203a;" horiz-adv-x="974" d="M252 424q0 14 40 47t77 53q66 37 181.5 145.5t115.5 129.5q0 25 -52 88l-106 125q-18 20 -38.5 43.5t-32 36t-21.5 25.5t-14.5 22.5t-4.5 17.5q0 12 9.5 25.5t23.5 13.5q31 0 96 -78l156 -174q88 -100 88 -133q0 -43 -123 -162t-233 -186q-29 -18 -51.5 -33.5t-33 -24 t-17.5 -14.5t-9 -9t-5 -4t-7 -1q-12 0 -25.5 17.5t-13.5 29.5z" />
<glyph unicode="&#x205f;" horiz-adv-x="553" />
<glyph unicode="&#x20ac;" horiz-adv-x="1449" d="M268 551q90 2 236 16l6 29q33 152 78 264q-33 -2 -102.5 -13t-100.5 -11q-23 0 -30 8t-7 28v46q94 2 277 22q51 113 131 205t142.5 135t129 81t72.5 44q29 0 75 21.5t74 23.5q117 6 154 6q35 0 54.5 -7t60.5 -11q20 -2 20 -52q0 -35 -35 -52t-57 -17q-12 0 -37 5t-37 5 q-84 0 -244 -49q-207 -59 -350 -326q27 0 98.5 -5t104.5 -5q37 0 79 8t97 8q94 0 94 -43q0 -10 -9 -20t-33.5 -20.5t-59.5 -10.5q-20 0 -88 -6t-78 -6q-25 -2 -70 -2q-37 0 -99 4t-83 4q-31 -63 -47 -114.5t-19 -71t-4.5 -53t-1.5 -37.5q31 0 121 8t125 8q37 0 73 -4t91 -4 q92 0 92 -43q0 -10 -9 -20.5t-33.5 -20.5t-59.5 -10q-20 0 -57 4t-48 4l-307 -6q-2 -10 -2 -31q0 -25 6 -78q23 -147 79.5 -201.5t160.5 -54.5q12 0 143 16.5t164 16.5q16 0 26.5 -11.5t10.5 -27.5q0 -2 -1 -5t-1 -5q-2 -14 -63.5 -41t-77.5 -27q-18 -12 -103.5 -24.5 t-171.5 -12.5q-55 0 -86 13.5t-74 54.5q-162 156 -161 391v21q-18 0 -66.5 -8.5t-75.5 -8.5q-84 0 -86 76z" />
<glyph unicode="&#x2122;" horiz-adv-x="1867" d="M393 1411q0 10 2 16q6 29 24.5 45.5t69 27.5t105.5 18.5t171 24t228 36.5q147 25 160 25q25 0 48.5 -4.5t50 -20.5t26.5 -45q0 -90 -158 -90q-70 0 -184 -29q-4 -86 -39 -335t-37 -275q0 -8 -1 -21.5t-3 -21.5q0 -6 -6 -20.5t-27.5 -33t-50.5 -18.5q-61 0 -61 92 q0 51 34 273q31 190 31 307q0 6 -1 16.5t-1 12.5q-18 -2 -77.5 -11.5t-92.5 -9.5q-27 0 -63.5 -8t-57.5 -8q-90 0 -90 57zM1223 739q0 59 39 242l98 461q23 113 48.5 158t84.5 45q43 0 55.5 -61.5t18.5 -168t30 -168.5q53 55 125 163t126.5 169t109.5 61q70 0 70 -86 q0 -53 -56.5 -326.5t-56.5 -355.5q0 -14 2 -26.5t2 -18.5q0 -43 -28.5 -73.5t-61.5 -30.5q-76 0 -76 82q0 41 14 123q10 61 70 389q-35 -49 -55.5 -77t-65.5 -77t-91 -74.5t-93 -25.5q-14 0 -24.5 4t-17.5 14.5t-11 17.5t-9.5 20.5t-7.5 17.5q-14 -66 -41 -199 q-33 -154 -60.5 -213t-84.5 -59q-53 0 -53 73z" />
<glyph unicode="&#xe000;" horiz-adv-x="1075" d="M0 0v1075h1075v-1075h-1075z" />
</font>
</defs>
</svg>
