<?xml version="1.0" standalone="no"?>
<!DOCTYPE svg PUBLIC "-//W3C//DTD SVG 1.1//EN" "http://www.w3.org/Graphics/SVG/1.1/DTD/svg11.dtd" >
<svg xmlns="http://www.w3.org/2000/svg">
<metadata></metadata>
<defs>
<font id="purisabold" horiz-adv-x="1447" >
<font-face units-per-em="2048" ascent="1638" descent="-410" />
<missing-glyph horiz-adv-x="1325" />
<glyph unicode="&#x2e;&#x2e;&#x2e;" horiz-adv-x="1294" d="M221 147q0 53 25.5 86t68.5 33q52 1 152 -73q-47 -190 -148 -191q-49 0 -73.5 47t-24.5 98zM518 135q0 53 25.5 86t68.5 33q16 0 35 -6t37 -16.5t31.5 -18.5t30 -19.5t18.5 -13.5q-27 -96 -67 -143t-81 -47t-69.5 41t-28.5 104zM825 125q0 53 26 86t68.5 33t151.5 -76 q-27 -96 -66.5 -142t-80.5 -46t-70 40.5t-29 104.5z" />
<glyph unicode="&#xfb01;" horiz-adv-x="1531" d="M137 987q0 20 12.5 35.5t42 29t54 21.5t76.5 23l147 45l4 86q12 307 33.5 471t38 198.5t53.5 65.5l10 10q51 45 84 59.5t92 14.5q39 0 166 -10q100 -8 144.5 -26.5t95.5 -67.5q70 -66 98 -154q10 -31 25.5 -66.5t22.5 -58.5t7 -53q0 -39 -24.5 -70t-65.5 -31 q-53 0 -88 46.5t-45 93.5t-10 88q0 53 -33 82.5t-141 62.5q-68 18 -107 19q-80 0 -127 -89q-20 -41 -35.5 -208.5t-15.5 -311.5q0 -94 6.5 -113.5t30.5 -19.5q27 0 253 53.5t280 53.5q25 0 45 -16.5t22 -53.5q23 -66 44.5 -377t21.5 -547q0 -195 -19 -217q-33 -39 -82 -39 q-74 0 -90 62q-12 43 -31.5 444.5t-19.5 538.5q-51 -10 -155.5 -23.5t-125.5 -17.5l-176 -45l-6 -361q0 -25 -1 -63.5t-1 -54.5q0 -115 10.5 -191t21.5 -101.5t21.5 -56t10.5 -67.5q0 -47 -29 -66.5t-59 -19.5q-41 0 -62 22q-51 49 -67.5 208t-16.5 399.5t-6 324.5 q-12 -2 -92 -21.5t-127 -19.5q-59 0 -87 24.5t-28 55.5z" />
<glyph unicode="&#xfb02;" horiz-adv-x="1890" d="M137 915q0 70 185 109l198 43l6 158q4 188 29 422q20 178 35.5 226t71.5 99q53 45 86.5 59.5t93.5 14.5q43 0 172 -10q96 -8 137 -26.5t92 -67.5q78 -78 78 -146q-2 -57 -39 -106.5t-72 -49.5q-47 0 -47 97q0 53 -30.5 82.5t-135.5 62.5q-68 18 -108 19q-82 0 -129 -89 q-20 -39 -37.5 -237.5t-17.5 -353.5q0 -96 6 -116t32 -20q20 0 111.5 14.5t140.5 14.5q113 0 113 -57q0 -55 -219 -109l-178 -43l-6 -291q0 -25 -2.5 -63.5t-2.5 -54.5q0 -115 10.5 -191t22.5 -101.5t22.5 -56t10.5 -67.5q0 -47 -28.5 -66.5t-59.5 -19.5q-43 0 -64 22 q-53 51 -69.5 231.5t-15.5 384.5t-7 245q-33 -2 -127 -20.5t-139 -18.5q-63 0 -91 23.5t-28 53.5zM1477 1653q0 150 12 229.5t29.5 101t48.5 21.5q49 0 59 -41q10 -43 44 -522t63.5 -932t29.5 -463q0 -72 -77 -72q-70 0 -89.5 85t-48.5 499q-33 436 -59 760q-12 172 -12 334 z" />
<glyph unicode="&#xfb03;" horiz-adv-x="2383" d="M137 850q0 39 43 60.5t142 50.5l147 43l4 221q4 188 29 422q20 180 35.5 228t68.5 97q51 45 82 59.5t88 14.5q39 0 162 -10q98 -8 143 -26.5t99 -67.5q82 -76 82 -146q-4 -57 -42 -106.5t-75 -49.5q-53 0 -53 97q0 53 -31 82.5t-135 62.5q-66 18 -105 19q-76 0 -121 -89 q-18 -33 -34.5 -262t-16.5 -399q0 -100 5 -119.5t30 -19.5q66 0 187.5 24.5t138.5 24.5h14q25 0 152 35l157 45l4 86q12 309 34 472t39 199.5t52 65.5q6 6 11 8q51 45 83.5 59.5t92.5 14.5q39 0 166 -10q100 -8 144 -26.5t95 -67.5q61 -59 98 -154q10 -31 25.5 -66.5 t23 -58.5t7.5 -53q0 -39 -24.5 -70t-65.5 -31q-53 0 -88 46.5t-45.5 93.5t-10.5 88q0 53 -32.5 82.5t-141.5 62.5q-68 18 -106 19q-80 0 -127 -89q-20 -41 -35.5 -208.5t-15.5 -311.5q0 -94 6 -113.5t30 -19.5q27 0 253.5 53.5t279.5 53.5q25 0 45 -16.5t22 -53.5 q25 -72 25 -369q0 -141 -6 -362t-6 -242q0 -145 -19 -168q-33 -39 -82 -39q-74 0 -90 62q-6 29 -6 219q0 145 4 434t4 330q-51 -10 -155.5 -23.5t-124.5 -17.5l-176 -45l-7 -361q0 -25 -4 -63.5t-4 -54.5q0 -115 9.5 -191t19.5 -101.5t19.5 -56t9.5 -67.5q0 -45 -26 -65.5 t-54 -20.5q-35 0 -58 22q-51 51 -68.5 226.5t-17.5 425.5t-6 327q-90 -2 -284.5 -41t-231.5 -41q-59 -6 -164 -34l-6 -234q-2 -47 -2 -125q0 -121 9.5 -199.5t21.5 -105.5t21.5 -59.5t9.5 -71.5q0 -45 -25 -67.5t-59 -22.5q-53 0 -86 60.5t-43.5 161.5t-12.5 203.5t-3 219.5 t-7 174q-14 -2 -93 -21.5t-126 -19.5q-59 0 -87 24.5t-28 53.5z" />
<glyph unicode="&#xfb04;" horiz-adv-x="2701" d="M137 850q0 39 43 60.5t142 50.5l147 43l4 221q4 188 29 422q20 178 35.5 226t68.5 99q47 45 79 59.5t91 14.5q39 0 162 -10q98 -8 143 -26.5t99 -67.5q82 -76 82 -146q-4 -57 -42 -106.5t-75 -49.5q-53 0 -53 97q0 53 -31 82.5t-135 62.5q-66 18 -105 19q-76 0 -121 -89 q-18 -33 -34.5 -262t-16.5 -399q0 -100 5 -119.5t30 -19.5q66 0 187.5 24.5t138.5 24.5h14q25 0 152 35l157 45l4 86q4 102 9.5 189t10.5 151.5t12 118t11 89t14.5 66.5t13.5 46.5t15.5 31.5t15.5 20.5t16 17.5l15 15q47 45 76 59.5t82 14.5q37 0 150 -10q90 -8 131 -26.5 t92 -67.5q78 -78 78 -146q-2 -57 -39 -106.5t-72 -49.5q-47 0 -47 97q0 53 -28.5 82.5t-127.5 62.5q-59 18 -96 19q-72 0 -113 -89q-18 -41 -32.5 -209.5t-14.5 -310.5q0 -68 3.5 -95.5t8.5 -32.5t21 -5q20 0 100 14.5t121 14.5q55 0 79 -17.5t24 -40.5q0 -33 -45 -57 t-150 -53l-158 -43l-6 -363q0 -25 -1 -63.5t-1 -54.5q0 -115 9.5 -191t19.5 -101.5t19.5 -56t9.5 -67.5q0 -45 -26 -65.5t-54 -20.5q-35 0 -58 22q-51 51 -68.5 226.5t-17.5 425.5t-6 327q-90 -2 -284.5 -41t-231.5 -41q-59 -6 -164 -34l-6 -234q-2 -47 -2 -125 q0 -121 9.5 -199.5t21.5 -105.5t21.5 -59.5t9.5 -71.5q0 -45 -25 -67.5t-59 -22.5q-53 0 -86 60.5t-43.5 161.5t-12.5 203.5t-3 219.5t-7 174q-14 -2 -93 -21.5t-126 -19.5q-59 0 -87 24.5t-28 53.5zM2288 1653q0 150 12 229.5t29.5 101t48.5 21.5q49 0 59 -41 q10 -43 44 -522t63.5 -932t29.5 -463q0 -72 -77 -72q-70 0 -89.5 85t-48.5 499q-33 436 -59 760q-12 172 -12 334z" />
<glyph horiz-adv-x="2048" />
<glyph horiz-adv-x="2048" />
<glyph unicode="&#xd;" horiz-adv-x="681" />
<glyph unicode=" "  horiz-adv-x="1325" />
<glyph unicode="&#x09;" horiz-adv-x="1325" />
<glyph unicode="&#xa0;" horiz-adv-x="1325" />
<glyph unicode="!" horiz-adv-x="1062" d="M385 102q0 45 36 97.5t66 68.5q20 10 60 11q133 0 133 -107q0 -66 -33 -130.5t-82 -64.5q-23 0 -51.5 17.5t-34.5 17.5t-10 -4q-35 4 -59.5 34t-24.5 60zM408 1096v6q0 55 67 55q16 0 72.5 -7t87.5 -9l98 -13l-8 -100q-4 -59 -53 -220t-74 -298q-14 -78 -63 -78 q-25 0 -39.5 16.5t-22.5 58.5t-12 85t-11.5 128t-15.5 154q-6 37 -6 84q0 10 2 33t2 31q0 10 -12 26.5t-12 47.5z" />
<glyph unicode="&#x22;" horiz-adv-x="1171" d="M354 1339q0 139 95 140q53 0 79.5 -56.5t59.5 -199.5q23 -76 22.5 -143.5t-25 -105.5t-65.5 -38q-49 0 -80 35q-37 43 -61.5 161.5t-24.5 206.5zM604 1384q0 147 68 148q27 0 49 -24.5t33 -43.5q25 -41 38 -156t13 -221q0 -78 -12.5 -114.5t-53.5 -36.5q-59 0 -88 59 q-20 41 -33.5 168t-13.5 221z" />
<glyph unicode="#" horiz-adv-x="1341" d="M127 332q0 51 60.5 79.5t125.5 34.5q76 8 94.5 29t34.5 115q10 76 31 153l-113 -12q-86 -8 -106 -8q-39 0 -55.5 14.5t-16.5 53.5q0 27 4 41t30 32.5t79 32.5q51 14 98 21.5t62.5 4.5t30 13t17.5 36.5t11 86.5q6 45 11 68.5t25.5 47t57.5 23.5q70 0 70 -121v-49 q0 -47 14 -47q59 0 95 21.5t46.5 46t21.5 66.5t19 61q20 45 72 45q29 0 48.5 -22.5t19.5 -68.5l20 -92h10q82 0 82 -69q-4 -53 -45 -92t-75 -39q-8 0 -17 2h-2q-10 -29 -41 -219l-10 -56l98 8q66 6 94 7q63 0 64 -48q0 -33 -10.5 -56t-36 -38.5t-40.5 -20.5t-52 -16 q-10 -2 -15 -4q-119 -31 -138 -47t-21 -82q-2 -119 -27 -171t-86 -60l-92 -10l31 284h-41q-66 0 -83.5 -21.5t-35.5 -125.5q0 -2 -3 -18.5t-5 -25.5t-6.5 -28.5t-8.5 -33t-10 -31t-13 -28.5t-16.5 -22.5t-20 -16.5t-22.5 -5q-35 0 -59.5 28.5t-24.5 90.5q0 33 6 88l13 108 h-88q-53 0 -84 3t-53.5 17.5t-22.5 41.5zM608 477l25 6q80 18 92 23q20 12 39.5 119.5t19.5 169.5q0 14 -12 14t-49 -12q-53 -12 -64 -27q-16 -23 -41 -209v-8z" />
<glyph unicode="$" horiz-adv-x="1445" d="M240 537q0 16 9 32.5t9 18.5q0 14 31 14q23 0 45 -16q8 -6 47 -34t67.5 -49.5t67.5 -57t68 -70.5l4 20q6 35 6 86l-10 174q-6 16 -43 23q-100 18 -164 75.5t-64 118.5q0 82 80 182.5t191 133.5q49 23 59 41q14 20 33 100q33 141 46 171t56 42q29 8 64 8q80 0 80 -53 q0 -14 -21.5 -125t-21.5 -162v-20q39 -14 125 -92t86 -109q0 -53 -54 -53q-29 2 -61.5 18.5t-70.5 42t-52 33.5q-12 -57 -18 -102l-13 -117l62 -25q92 -45 143 -117.5t51 -158.5q0 -106 -72.5 -224t-185.5 -149q-68 -18 -87 -55t-38 -180q-20 -170 -37 -187q-33 -16 -84 -16 q-41 0 -53 17.5t-12 52.5q0 109 31 274l22 127l-61 53q-59 49 -91 79t-74 78t-77 103q-18 29 -18 54zM512 899q0 -18 94 -86q20 88 21 193q0 6 -1 18t-1 18l-27 -34q-86 -84 -86 -109zM758 229q49 37 100 113t51 162q0 92 -110 141q-41 -76 -41 -377v-39z" />
<glyph unicode="%" horiz-adv-x="1609" d="M156 -27q0 61 180 234q143 129 326.5 318.5t300.5 326.5q88 104 210.5 203.5t167.5 99.5q59 0 60 -76q0 -53 -90 -155.5t-244 -255t-236 -252.5q-90 -111 -321 -310q-16 -14 -43 -37.5t-40 -34.5t-35.5 -30.5t-35 -30t-30 -23.5t-28.5 -19.5t-24.5 -13.5t-23.5 -10 t-19 -3q-29 0 -52 20.5t-23 48.5zM315 836q0 80 36 133t83 53q45 0 95.5 -47t50.5 -117t-44 -127t-112 -57q-47 0 -78 47t-31 115zM940 160q0 57 77 161.5t148 104.5q57 0 92 -51t35 -88q0 -55 -66.5 -141.5t-156.5 -86.5q-45 0 -87 31t-42 70z" />
<glyph unicode="&#x26;" horiz-adv-x="1503" d="M211 133q0 129 88 311l86 177l-33 102q-57 168 -57 258q0 80 38 135t122 107q100 59 151 59q80 -10 92 -18q31 -20 53.5 -84t22.5 -101q0 -66 -82 -241.5t-82 -200.5q0 -31 94.5 -117t131.5 -86q27 2 64.5 52.5t70.5 107.5t81 105.5t93 48.5q33 0 63.5 -27t30.5 -59 q0 -39 -103.5 -173.5t-115.5 -160.5q23 -4 62.5 -33t68.5 -31q78 -2 143.5 -48t65.5 -89q0 -33 -21.5 -58.5t-76.5 -25.5q-123 0 -287 119l-60 43l-100 -88q-74 -66 -203 -151t-186 -85q-68 0 -141.5 61.5t-73.5 190.5zM389 145q0 -66 27 -67q23 0 152.5 77.5t172.5 88.5 q16 4 23 6q-6 14 -102.5 77.5t-137.5 110.5l-18 21l-49 -99q-68 -129 -68 -215zM504 942.5q0 -67.5 8 -100.5q78 53 78 168q0 74 -4 90q-4 -2 -41 -27q-27 -16 -34 -39.5t-7 -91z" />
<glyph unicode="'" horiz-adv-x="1255" d="M461 1294q0 55 20.5 106.5t65.5 59.5q6 2 28 2q55 0 149.5 -14t111.5 -23q23 -23 22 -55q0 -37 -15.5 -86t-39.5 -76q-18 -20 -39 -131.5t-31 -132.5q-18 -43 -71 -43q-61 0 -111.5 64.5t-54.5 160.5q-4 74 -19.5 102.5t-15.5 65.5z" />
<glyph unicode="(" horiz-adv-x="1333" d="M348 618q0 82 107 506q16 68 26 105q39 152 85 246t122 174q104 106 178 106q57 0 58 -57q0 -45 -86 -178q-86 -137 -172 -434.5t-86 -479.5q0 -98 18 -161.5t82 -184.5q47 -90 108.5 -180t102.5 -129q111 -109 110 -180q-4 -43 -34 -64q-33 -20 -66 -20q-90 0 -224 170 t-231.5 394t-97.5 367z" />
<glyph unicode=")" horiz-adv-x="1302" d="M387 1671q0 31 20.5 50.5t53.5 19.5q96 0 230 -147.5t181 -307.5q70 -217 70 -596q0 -233 -33 -366q-37 -145 -87 -260t-99 -200t-68 -134q-37 -100 -125 -101q-35 0 -75.5 15.5t-40.5 48.5q0 57 121 291q57 109 85.5 173t62.5 224t34 348q0 162 -25.5 302t-59.5 226 t-75 155t-64.5 93.5t-35.5 34.5q-29 14 -49.5 53t-20.5 78z" />
<glyph unicode="*" horiz-adv-x="1581" d="M260 618q0 41 57 60q176 55 277 119q-8 10 -76.5 85.5t-118 150.5t-49.5 130q0 45 30 72t66 27q45 0 78 -33t33 -82q2 -51 41 -84q0 10 1 27.5t8 61.5t18.5 78t35 61.5t56.5 27.5q18 0 31.5 -5t23.5 -19.5t16.5 -29t12.5 -42t10 -50t10 -62.5t13 -69q2 2 29.5 42t55 74 t65.5 74t78 63.5t74.5 23.5t61.5 -24.5t27 -63.5q0 -59 -60 -109q-29 -29 -84 -122t-73 -142q14 -2 67 -2q33 0 81 3t81 3q59 0 86 -25.5t27 -95.5q0 -51 -39 -72.5t-150 -43.5l-41 -9l45 -36q84 -68 84 -105t-32.5 -92t-77.5 -55q-27 0 -79 32.5t-109.5 74.5t-76.5 52 q2 -45 30 -80.5t28 -62.5q0 -47 -45 -80t-101 -33q-12 0 -32.5 3.5t-28.5 3.5q-47 0 -105.5 -45.5t-109.5 -45.5q-45 0 -73.5 29t-28.5 76q0 43 38.5 99.5t77.5 98.5t39 52q-10 8 -66.5 9t-121 14.5t-96.5 49.5q-18 18 -19 43z" />
<glyph unicode="+" horiz-adv-x="1464" d="M156 674q0 66 37.5 86t193.5 51l184 37v117q0 141 19 192q33 61 106 62q41 0 64.5 -29t29 -61.5t11.5 -100.5q2 -18 2 -27l16 -163l125 14q63 8 126 16.5t91.5 12.5t38.5 4q43 -2 67.5 -35t24.5 -74q0 -35 -16 -55.5t-56 -30.5t-84 -15t-123 -15.5t-147 -24.5l-49 -10 l-16 -611h-189l-16 611l-109 -19q-127 -23 -217 -22q-61 0 -87.5 19.5t-26.5 70.5z" />
<glyph unicode="," horiz-adv-x="1015" d="M274 -274q0 96 142 378q100 199 145 261.5t90 62.5q33 0 59.5 -19.5t26.5 -64.5q0 -86 -135 -340q-129 -246 -169 -302t-85 -56q-74 0 -74 80z" />
<glyph unicode="-" horiz-adv-x="1906" d="M213 657l12 134q8 86 50 110.5t192 40.5q184 19 606 19q371 0 483.5 -14.5t145.5 -65.5q27 -45 27 -74q0 -76 -156 -98.5t-633 -34.5z" />
<glyph unicode="." horiz-adv-x="1116" d="M254 33q4 90 112.5 202.5t155.5 112.5q12 0 15.5 3t5.5 13.5t8 20.5q23 29 65 29q29 0 51.5 -15.5t24.5 -40.5q10 -10 33 -10q66 0 109 -59.5t43 -138.5q0 -123 -114 -245t-259 -122q-66 0 -118 28.5t-78.5 70.5t-40 81t-13.5 70zM543 51h2q29 0 65 37q-61 -6 -67 -37z " />
<glyph unicode="/" horiz-adv-x="1581" d="M238 -274q0 45 30.5 113.5t105.5 208.5t132 269l532 1129q33 70 56.5 170t50 142t90.5 42q43 0 77 -28.5t34 -75.5q0 -29 -17.5 -69t-53.5 -116.5t-65 -164.5q-43 -119 -244.5 -517.5t-209.5 -433.5q-8 -45 -107 -235l-176 -353q-45 -90 -76.5 -124.5t-74.5 -34.5 q-84 0 -84 78z" />
<glyph unicode="0" horiz-adv-x="1261" d="M166 324q0 92 115.5 347.5t115.5 284.5q0 33 86 113t199 147.5t174 67.5q90 0 183.5 -109.5t93.5 -297.5q0 -266 -181 -572q-190 -313 -479 -313q-166 0 -260 190q-47 94 -47 142zM365 315q0 -59 43 -102t104 -43q70 0 180 90q97 80 107 109q2 23 44 96.5t83 190 t41 247.5q0 94 -31 132t-88 38q-53 0 -103 -29q-109 -59 -244.5 -313t-135.5 -416z" />
<glyph unicode="1" horiz-adv-x="774" d="M131 805q0 27 12.5 45t46 53t56.5 64l69 90q25 29 63 96.5t69.5 103t72.5 35.5q2 0 6 -1t9 -1q53 -14 67 -129q10 -86 24.5 -426t14.5 -542q0 -121 -8 -150q-25 -39 -62 -39q-35 0 -53 20.5t-31.5 86t-18.5 175t-5 302.5q0 289 -12 381q-10 -10 -64.5 -82t-100.5 -114 t-83 -42q-29 0 -50.5 20.5t-21.5 53.5z" />
<glyph unicode="2" horiz-adv-x="1740" d="M150 801q0 47 15 75.5t34.5 39t37 22.5t21.5 29q2 14 11.5 27.5t27.5 28.5t35.5 27.5t52.5 37t59 40.5q47 37 156 75t236 38q211 0 284 -111q35 -53 35 -139q0 -162 -80 -321q-180 -356 -340 -516q393 61 637 61q98 0 146.5 -15.5t48.5 -66.5q0 -35 -14.5 -50 t-55.5 -20.5t-91 -5.5t-146.5 -8t-196.5 -24q-121 -20 -241 -35t-170 -21t-64 -18q-29 -20 -74 -21q-47 0 -87 25t-40 57q0 43 86 135.5t143 131.5q76 53 216.5 299.5t140.5 400.5q0 49 -30 67.5t-126 18.5q-100 0 -195.5 -37t-163 -90t-122.5 -106.5t-94 -90t-56 -36.5 q-2 4 -10 6t-13 6t-9 25.5t-4 58.5z" />
<glyph unicode="3" horiz-adv-x="1269" d="M152 1087q4 23 20 33q29 18 145.5 45t234.5 46.5t238.5 38t131.5 20.5q100 18 104 18q35 0 64.5 -38t29.5 -66q0 -14 -16.5 -40t-49 -61.5t-62 -65.5t-77 -77t-71.5 -74h28q72 0 156 -74.5t107 -154.5q8 -33 8 -82q0 -176 -92 -317q-74 -115 -228 -186.5t-295 -71.5 q-236 0 -235 239q0 109 65 109q51 0 91 -51.5t40 -104.5q0 -18 7.5 -21.5t44.5 -3.5q98 0 185 38t121 67t54 53q49 57 49 187q0 121 -31.5 157.5t-99.5 36.5q-104 0 -186 -46t-119 -46q-49 0 -75.5 26.5t-26.5 63.5q0 27 14 45.5t39 18.5q35 8 160 136t159 173 q-76 -6 -203.5 -24.5t-224 -34t-104.5 -15.5q-27 0 -39 13.5t-14 31.5l-2 16q-18 2 -31.5 13.5t-13.5 29.5z" />
<glyph unicode="4" horiz-adv-x="1261" d="M127 422q0 55 82 172q139 186 309 376.5t217 219.5q16 8 23 8q10 0 28.5 27.5t51.5 27.5q35 0 56 -24.5t21 -50.5q0 -49 -53 -103q-29 -33 -35 -63.5t-6 -141.5q0 -236 19 -235q45 0 108.5 28.5t79.5 28.5q51 0 87 -28.5t36 -65.5q0 -29 -23.5 -50.5t-68.5 -25.5 q-35 -2 -146 -35l-73 -22l8 -148q4 -88 16.5 -146t22.5 -84t10 -36q0 -27 -28.5 -56.5t-63.5 -29.5q-57 0 -85 94.5t-39 215t-22 143.5q-23 -4 -116.5 -21.5t-180 -31t-137.5 -13.5q-98 0 -98 70zM373 522q111 16 168 26.5t86.5 23t35 20.5t5.5 29q0 27 -15 165l-8 74 l-53 -55q-121 -129 -219 -283z" />
<glyph unicode="5" horiz-adv-x="1124" d="M129 256q0 76 43 76q2 0 9 -2t7 -3t5.5 -4.5t7.5 -6.5t7 -9t9 -15t12 -22q37 -72 94.5 -97.5t168.5 -25.5q100 0 150 38t95 143q43 98 43 217q0 78 -21.5 130t-49.5 52q-43 0 -132.5 -42t-132.5 -87q-66 -66 -100 -66q-31 0 -70 39q-45 55 -45 322q0 254 43 276 q33 16 284 25.5t321 24.5q49 12 100 12q80 0 80 -47q0 -18 -13 -31q-39 -39 -206.5 -77t-282.5 -38h-37q-129 0 -129 -69q0 -14 11.5 -48t11.5 -75q0 -18 -6 -55l20 10q156 84 295 84q53 0 80 -13q68 -29 108.5 -132t40.5 -214q0 -49 -10 -104q-45 -233 -171 -340t-357 -107 q-80 0 -113 15.5t-80 75.5q-90 109 -90 190z" />
<glyph unicode="6" horiz-adv-x="1013" d="M123 322q0 43 22.5 141t55 209.5t64.5 215t57.5 179.5t25.5 78q41 123 121 123q31 0 54.5 -18.5t23.5 -45.5q0 -61 -87 -311t-87 -307q10 4 44 25.5t74.5 38t79.5 16.5q66 0 146 -31t119 -72q53 -59 53 -153q0 -39 -8.5 -63.5t-30 -57.5t-33.5 -62q-20 -45 -116.5 -122.5 t-155.5 -98.5q-57 -20 -154 -20q-119 0 -193.5 99t-74.5 237zM307 317q0 -78 21.5 -126t39 -59t25.5 -11q27 0 185 80q43 20 93 95t50 116q0 45 -53.5 71.5t-92.5 26.5q-39 -2 -103 -30.5t-116 -73.5q-33 -29 -41 -44.5t-8 -44.5z" />
<glyph unicode="7" horiz-adv-x="1005" d="M213 860v330l393 67q123 20 166 21q119 0 119 -127q0 -51 -12.5 -138t-39 -217t-47 -228.5t-58.5 -265.5t-52 -232q-10 -47 -32.5 -66.5t-69.5 -19.5q-49 0 -67.5 13t-18.5 52q0 104 88 420q33 117 74.5 330t48.5 284h-25q-90 0 -148 -4l-159 -10l6 -78q2 -20 2 -65 q0 -139 -21.5 -190.5t-60.5 -51.5q-53 0 -69.5 34t-16.5 142z" />
<glyph unicode="8" horiz-adv-x="1183" d="M184 895q0 117 105.5 216t199.5 99q16 0 27.5 7.5t21 14.5t44 14t92.5 7q106 0 187 -31.5t122 -77.5t59.5 -86t18.5 -71q-2 -49 -59.5 -113.5t-125 -113.5t-124 -97.5t-56.5 -69t45 -76.5t90.5 -140t45.5 -168q0 -111 -79 -182.5t-167 -71.5q-68 2 -145.5 46t-133 100.5 t-93.5 108.5t-38 73q0 53 59.5 153.5t104.5 136.5q0 20 -31.5 53t-68.5 66t-69 88.5t-32 114.5zM397 897q0 -31 43 -93.5t78 -94.5q8 6 81 64t143.5 109.5t119.5 71.5q56 25 56 41q0 12 -39 45t-102.5 64t-119.5 31q-8 0 -16 -2.5t-16.5 -7.5t-39 -20t-69.5 -34 q-45 -20 -74.5 -62t-37 -70t-7.5 -42zM412 328q0 -63 80.5 -133t132.5 -70q31 0 62.5 31.5t31.5 68.5q0 57 -86 152.5t-121 95.5q-18 0 -58 -49t-42 -96z" />
<glyph unicode="9" horiz-adv-x="1052" d="M141 801q0 31 15 78q41 127 139 209.5t278 140.5q106 33 146 33q25 0 54.5 -7.5t65 -26t59.5 -58.5t24 -95q0 -45 -18.5 -112.5t-36 -224t-17.5 -416.5q0 -88 3 -142.5t6 -68t6 -24.5t3 -24q0 -57 -27.5 -82.5t-62.5 -25.5q-33 0 -53 17.5t-28.5 58.5t-9.5 67.5t-1 81.5 q0 92 7 255t7 202t-2 47l-73 -47q-49 -31 -91 -42t-114 -11q-102 0 -140 12t-71 49q-68 74 -68 156zM311 805q0 -78 86 -78q57 0 133 33t143.5 114.5t67.5 188.5q0 41 -2 51q-26 4 -63 4q-92 0 -167 -35.5t-116 -89t-61.5 -102.5t-20.5 -86z" />
<glyph unicode=":" horiz-adv-x="821" d="M256 905q0 55 33 120t80 65t90 -55.5t43 -129.5q0 -86 -47 -86q-6 -4 -12.5 -28.5t-21.5 -43t-48 -18.5q-31 0 -50.5 17.5t-41.5 70.5q-25 55 -25 88zM268 154q4 57 44 103t87 46q51 0 76 -47t25 -84q0 -20 -14.5 -53t-20.5 -58q-25 -92 -86 -92q-53 0 -82 67.5 t-29 117.5z" />
<glyph unicode=";" horiz-adv-x="751" d="M219 -145q8 41 81 221t95 200q27 27 57.5 27t46 -20.5t15.5 -40.5q0 -49 -84 -250t-115 -211q-12 -6 -26 -6q-70 0 -70 80zM276 758q0 63 19.5 97t73.5 52q53 17 73 17q51 0 73 -54.5t22 -117.5q0 -70 -24 -122t-67 -52q-66 0 -118 40.5t-52 139.5z" />
<glyph unicode="&#x3c;" horiz-adv-x="1116" d="M125 674q0 63 205 252l319 288q152 136 203 136q23 0 49.5 -18.5t26.5 -61.5q0 -23 -8.5 -40.5t-31 -42t-45 -45t-72.5 -63.5t-91 -82l-221 -206q-92 -88 -109 -134q8 -41 154.5 -208.5t228.5 -223.5q174 -121 174 -186q0 -29 -35.5 -68t-72.5 -39q-35 0 -58 41 q-23 31 -133 107q-166 117 -324.5 308.5t-158.5 285.5z" />
<glyph unicode="=" horiz-adv-x="1054" d="M195 455q0 49 49 69q100 41 342 41q109 0 169 -10t75.5 -24.5t15.5 -36.5q0 -27 -29 -47.5t-80 -32t-97 -18.5t-105.5 -9t-81 -3t-45.5 -1q-129 0 -171 11.5t-42 60.5zM197 776q0 29 28.5 38t118.5 22q31 4 49 6q176 16 250 16q72 0 102.5 -14.5t30.5 -55.5 q0 -45 -41 -67q-45 -25 -194.5 -40t-243.5 -15q-43 0 -61.5 11t-28.5 46q-10 51 -10 53z" />
<glyph unicode="&#x3e;" horiz-adv-x="1216" d="M229 1157q0 33 35 53.5t70 20.5q18 0 64 -31t79 -57.5t39 -32.5q117 -104 258 -209.5t197.5 -155t56.5 -92.5q0 -35 -39 -94t-155 -217q-31 -43 -50 -66q-51 -70 -102 -144.5t-79 -115.5t-30 -43q-33 -68 -118 -67q-37 0 -62.5 18.5t-25.5 46.5q0 37 44 96.5t68 69.5 q20 10 172 231.5t168 268.5q-33 39 -186.5 148.5t-278.5 215t-125 156.5z" />
<glyph unicode="?" horiz-adv-x="1294" d="M266 1407q0 121 130 232.5t249 111.5q131 0 230.5 -130t99.5 -278q0 -94 -50.5 -195t-160.5 -247l-66 -86l2 -145v-66q0 -158 -63 -158q-55 0 -71.5 58.5t-16.5 187.5q0 133 21.5 198.5t103.5 139.5q72 63 112.5 157.5t40.5 178.5q0 61 -18 102q-16 41 -72.5 86t-87.5 45 q-61 0 -151 -73.5t-90 -122.5q2 -33 44 -111t64 -84q27 2 51.5 33t34.5 59q-8 0 -21.5 2.5t-33 14.5t-19.5 35q0 39 37 66.5t72 27.5q39 0 68.5 -38t29.5 -99q0 -43 -14 -88t-59.5 -87t-114.5 -42q-92 0 -186.5 100t-94.5 215zM512 70q0 82 24.5 121.5t55.5 39.5 q35 0 98.5 -46t63.5 -72q0 -10 -14.5 -49t-53.5 -84.5t-86 -45.5q-88 1 -88 136z" />
<glyph unicode="@" horiz-adv-x="1441" d="M137 578q0 176 35 283.5t129 225.5q68 86 128 124t192 75q113 31 237 31q102 0 135 -19q59 -31 125 -107.5t90.5 -144t24.5 -174.5q0 -39 -2 -74.5t-5 -62t-9.5 -54.5t-10.5 -44t-10 -37.5t-10 -30t-10.5 -25t-8.5 -18.5q68 -12 68 -75q0 -45 -34 -140.5t-115.5 -208 t-184.5 -153.5q-47 -18 -211 -19q-111 0 -166 11q-68 14 -167 79.5t-115 112.5q-2 6 -13 27q-47 12 -69.5 166.5t-22.5 251.5zM303 590q0 -121 11.5 -183.5t47.5 -158.5q18 -51 119 -108.5t264 -57.5q49 0 117 43q51 31 78 65.5t66 112.5l34 74q-61 -31 -116 -31 q-53 0 -80 14.5t-56 49.5q-26 34 -38 71l-9 -10q-8 -12 -17 -24.5t-24.5 -30t-34 -31.5t-41 -27.5t-50 -21.5t-56.5 -8q-74 0 -120 67.5t-46 165.5q0 82 31 146q37 80 143.5 195.5t153.5 115.5q72 0 161 -91t89 -177q0 -33 -13.5 -81t-13.5 -96q0 -74 21 -79q16 6 49 37.5 t39 48.5q0 35 43 45q35 57 35 206q0 41 -7 62q-39 150 -54 177.5t-85 68.5q-84 49 -145 49q-63 0 -221 -78q-92 -47 -131 -88t-91 -154q-37 -76 -45 -121t-8 -157zM502 575q0 -43 27.5 -71.5t49 -34.5t34 -6t18.5 47t35 55q4 8 4 33q0 35 6 59.5t20.5 53t20.5 49.5 q16 47 67 51q-74 59 -110 59q-31 -8 -77 -57t-46 -65q0 -31 -24.5 -66t-24.5 -107z" />
<glyph unicode="A" horiz-adv-x="1671" d="M139 -12q0 39 43 101.5t43 82.5q0 74 45 98q8 4 25.5 48t42 101.5t49.5 84.5q55 57 211 426q68 158 188.5 379t157.5 254q49 16 60 16q33 0 67 -20q35 -41 124 -245t89 -261q2 -41 39 -183.5t51 -226.5q10 -78 63.5 -262t53.5 -231q0 -23 -10.5 -33.5t-44.5 -10.5 q-27 0 -76 23q-33 16 -50.5 43t-24.5 55.5t-26.5 110.5t-41.5 160l-39 133l-88 -10q-129 -16 -279 -27l-147 -10l-60 -88q-160 -233 -250 -449q-47 -110 -127 -110q-27 0 -57.5 12t-30.5 39zM754 768l135 8q127 8 160.5 16t33.5 39q0 39 -35.5 198t-62.5 222 q-55 -78 -112.5 -198.5t-88.5 -202.5z" />
<glyph unicode="B" d="M145 1411q0 86 344 168q141 33 414 33q51 0 79 -1t55.5 -12.5t36.5 -16.5t50 -30q27 -16 42.5 -52t15.5 -58q-2 -70 -31 -145.5t-58.5 -124t-70.5 -105.5t-47 -66q53 -2 140 -54t114 -95q53 -84 53 -242q0 -246 -148.5 -415.5t-291.5 -169.5q-25 0 -63 12t-56 12 q-23 0 -77 -17.5t-83 -17.5q-35 0 -59.5 18.5t-39.5 59.5t-23.5 90t-14.5 125t-11 150.5t-14.5 181t-23.5 203.5q-16 123 -35 344l-12 155h-56q-129 0 -129 70zM526 1335q0 -102 20.5 -246.5t33.5 -177.5q6 -16 16 -16q39 6 175 147.5t194 253.5q53 109 53 121 q0 10 -9.5 20.5t-47 21.5t-97.5 11q-86 0 -190.5 -14t-130.5 -26q-16 -6 -17 -54v-41zM592 659q0 -43 6 -172q4 -82 7 -122.5t13.5 -79.5t17.5 -52.5t31.5 -24.5t46 -12t68.5 -3q10 0 27.5 -1.5t26.5 -1.5q47 0 70 14.5t91 86.5q47 47 68.5 75.5t38 84t16.5 135.5 q0 231 -178 231q-53 0 -108.5 -14.5t-132 -44t-91.5 -33.5q-18 -6 -18 -66z" />
<glyph unicode="C" horiz-adv-x="1595" d="M248 621q0 422 41 561q55 190 275 333.5t423 143.5q115 0 204 -68.5t89 -152.5q0 -53 -57 -54q-37 0 -69 21.5t-44 44.5l-12 20q-8 10 -31 11q-104 0 -260 -65.5t-240 -147.5q-70 -68 -104.5 -213.5t-34.5 -433.5q0 -137 39 -222q37 -80 108.5 -131t147.5 -51 q47 0 145.5 43t139.5 82l112 104q51 47 107.5 126t94.5 124t69 45l21 -6t17.5 -22.5t10.5 -55.5q0 -43 -59.5 -144t-153.5 -213t-233.5 -196t-274.5 -84q-285 0 -449 320q-22 43 -22 262v19z" />
<glyph unicode="D" horiz-adv-x="1857" d="M119 1356q4 49 37.5 91t64.5 42q20 6 39 35q39 59 221 78q215 20 295 20q94 0 230 -23q387 -61 543.5 -183t156.5 -367q0 -213 -78 -403.5t-200.5 -319.5t-261 -213t-271.5 -113q-45 -12 -67.5 -33.5t-24.5 -42t-16.5 -42t-45.5 -32.5q-20 -6 -43 -6q-37 0 -62.5 13.5 t-27.5 36.5l-30 12q-33 14 -53.5 39.5t-20.5 68.5q0 72 55 92q23 16 23 146q0 80 -10.5 164t-34 255t-43.5 380l-31 317l-47 -4q-63 -8 -120.5 -60.5t-82.5 -52.5q-27 0 -60.5 36t-33.5 69zM666 1339q0 -66 58 -480.5t58 -543.5q0 -45 -4 -86l-12 -73h84q182 0 424 250 q137 141 184 286.5t47 356.5q0 84 -12 114.5t-59 79.5q-49 49 -107.5 71.5t-196.5 47.5q-260 41 -389 41q-51 0 -63 -10.5t-12 -53.5z" />
<glyph unicode="E" horiz-adv-x="1292" d="M135 1225q0 121 33 175t74 54q16 0 70.5 26.5t123 58.5t190.5 58.5t259 26.5q215 0 215 -82q0 -55 -221 -88q-178 -27 -325.5 -74t-195.5 -88q-26 -24 -26 -62q0 -6 10 -108q10 -100 22.5 -208.5t16.5 -122.5q51 23 257 65.5t284 42.5q43 0 63.5 -22.5t20.5 -49.5 q0 -33 -25 -53q-47 -45 -301 -101.5t-279 -70.5q-12 -8 -12 -27q0 -150 4 -245l6 -146h86q96 0 246 37t248 86q70 39 96 39q35 0 62.5 -32.5t27.5 -63.5q0 -63 -123.5 -129t-292.5 -105t-307 -39q-162 0 -196 60q-23 39 -35 174t-27.5 390t-33.5 439q-15 173 -15 185z" />
<glyph unicode="F" horiz-adv-x="1339" d="M254 1114v340l170 59q170 53 274 54q68 0 137.5 24.5t188.5 24.5q182 0 182 -66q0 -23 -3 -38t-14 -27t-24.5 -21.5t-40 -17.5t-53.5 -14.5t-73 -14.5t-90 -15t-113.5 -20.5t-135.5 -25.5l-204 -39v-117q0 -168 14 -248l12 -65l117 12q137 16 272 15q188 0 189 -56 q0 -33 -54.5 -62.5t-133 -49t-128 -29.5t-75.5 -15l-168 -26l18 -301q6 -154 6 -187q0 -102 -15 -135t-69 -33q-80 0 -102 41q-12 35 -12 136q0 94 -36 364t-36 553z" />
<glyph unicode="G" horiz-adv-x="1540" d="M174 457q0 66 12 166q20 168 59.5 265t157.5 261q84 115 182.5 198t169 115.5t128 59t69.5 43.5q37 49 131 49q86 0 165 -42t79 -97q0 -41 -29.5 -96.5t-72.5 -55.5q-31 0 -45.5 24.5t-20.5 48t-16 23.5q-39 0 -105.5 -22.5t-162 -74.5t-205 -168t-199.5 -275 q-66 -115 -79 -172.5t-13 -192.5q0 -195 29.5 -257t117.5 -62q209 0 340 157q72 86 118 177.5t46 136.5q0 20 -17.5 37.5t-35.5 17.5q-4 0 -39 -21.5t-104 -21.5q-35 0 -72 6t-75 19.5t-62.5 41t-24.5 64.5q4 47 35 69.5t74 35t55 24.5q29 29 100 29q82 0 203 -23.5 t164 -58.5q72 -59 102.5 -265t30.5 -444q0 -86 -12.5 -130t-57.5 -56q-18 -6 -28 -6q-39 0 -62.5 19.5t-35 67.5t-13.5 92t-2 128v137l-16 -27q-127 -193 -291 -303t-322 -110q-86 0 -172 43q-61 33 -90 76t-57 147q-31 109 -31 203z" />
<glyph unicode="H" horiz-adv-x="1470" d="M180 1423q0 176 19 217q39 74 92 74q16 0 31 -10q27 -49 56.5 -406.5t51.5 -406.5q201 72 453 145q123 25 164 41q20 27 42.5 198t45.5 210q15 26 60 26h3q49 0 66 -30q29 -59 36 -463q2 -76 5 -184q2 -162 5 -286t6 -188.5t5 -108.5t4 -58.5t3 -25.5t1 -22 q0 -33 -28.5 -51t-67.5 -18q-37 0 -62 18q-39 45 -51 197.5t-16 343t-19 268.5q-14 -4 -173.5 -73.5t-319.5 -124.5l-166 -60l12 -350q4 -148 4 -193q0 -100 -10 -151t-24.5 -62.5t-40.5 -11.5q-92 0 -118 177t-52 773q-16 375 -17 596z" />
<glyph unicode="I" horiz-adv-x="1359" d="M219 1393q0 27 25.5 48t78 39.5t103.5 33t129 35t131 36.5q29 12 197 12q172 0 207 -26q39 -33 38 -80q0 -49 -44 -71.5t-148 -33.5l-39 -4l4 -321q10 -647 41 -766q33 18 68 18q43 0 74.5 -24.5t31.5 -63.5q0 -59 -87 -104t-306 -109q-135 -49 -231 -49q-12 0 -43 5 t-76 16.5t-77 38t-32 63.5q0 47 24.5 63.5t82.5 16.5q86 0 204 43l107 39l-18 350q-18 369 -19 586v178l-37 -6q-166 -29 -241 -29q-147 0 -148 66z" />
<glyph unicode="J" horiz-adv-x="1517" d="M141 1280q0 59 117 99t535 128l499 117q35 -6 78 -40t43 -64q-4 -45 -80 -79t-172 -57.5t-117 -33.5q-12 -55 -12 -193v-88q0 -203 -25.5 -487.5t-56.5 -399.5q-35 -129 -97 -210t-118 -81q-76 0 -161 43t-85 86q0 18 -30 39q-55 41 -156.5 219.5t-101.5 268.5 q0 61 34.5 95t92.5 34q43 0 68.5 -10.5t36.5 -40t13.5 -51t4.5 -74.5q4 -129 92 -248q110 -150 143 -150q63 0 110.5 325t47.5 579v104q0 109 -11.5 138.5t-52.5 29.5q-49 0 -272 -50t-270 -50q-53 0 -72 32q-25 43 -25 70z" />
<glyph unicode="K" horiz-adv-x="1701" d="M193 1493v47q0 86 14 124t61 38q59 0 97 -68q25 -45 33 -287.5t20 -306.5l10 -59l172 168q57 55 102.5 96t70 62.5t46 35t27.5 16.5t16 5l10 2q12 4 69.5 52t92.5 48q14 0 63.5 38t98.5 38q53 0 86 -31.5t33 -72.5q0 -66 -115 -97q-94 -29 -378.5 -284.5t-319.5 -331.5 q45 -27 350 -176q119 -57 216 -108.5t145.5 -78t84 -47t50 -26.5t24.5 -6q55 -4 141 -82t86 -117q0 -70 -45 -70q-47 0 -197.5 54.5t-213.5 89.5q-139 78 -382 195.5t-310 142.5q0 -2 -1 -10.5t-1 -14.5q0 -12 20 -186.5t20 -264.5q0 -80 -17 -117.5t-64 -37.5 q-88 0 -119 98q-23 70 -47 381q-4 41 -6 72q-43 539 -43 1077z" />
<glyph unicode="L" horiz-adv-x="1556" d="M199 1534q0 80 57 80q27 0 50.5 -22.5t33.5 -43t14 -32.5q27 -86 57.5 -677t61.5 -642q6 -12 43 -13q63 0 264 43t378 85t185 42q35 0 70 -27.5t35 -66.5q0 -31 -47 -67q-70 -55 -408 -134t-542 -79q-143 0 -173 107.5t-55 678.5q-2 29 -2 43q-22 524 -22 725z" />
<glyph unicode="M" horiz-adv-x="1595" d="M145 950q0 360 6.5 495.5t24.5 160.5q39 49 92 49q45 0 77 -58.5t77 -207.5q66 -219 139.5 -377t108.5 -185q23 14 70.5 83t137 224.5t195.5 368.5q29 59 83 100.5t106 41.5q37 0 63 -25q53 -47 67.5 -189.5t17.5 -586.5q2 -268 13 -434t22 -209t19.5 -74t8.5 -61 q0 -90 -84 -91q-41 0 -79 25t-53 66q-14 39 -26 298t-22.5 562t-20.5 397q-14 -27 -66.5 -136.5t-179.5 -320.5q-47 -78 -146.5 -144.5t-179.5 -66.5q-31 0 -81 56.5t-97 134.5l-57 94v-430q0 -281 -11.5 -420t-35.5 -187t-72 -48q-80 0 -98.5 186t-18.5 909z" />
<glyph unicode="N" horiz-adv-x="1804" d="M168 397q0 238 13.5 667t27.5 476q2 8 8 19.5t35 31t67 19.5q41 0 84 -27q37 -27 171.5 -202t134.5 -203q4 -10 47 -72t134 -204t189 -320q201 -365 269 -392q31 49 61 488q37 543 59 645q25 119 88 137q18 6 43 6q92 0 93 -141q0 -47 -10.5 -142.5t-32 -295 t-39.5 -424.5q-8 -113 -14.5 -171.5t-16.5 -127t-20.5 -99t-29 -60.5t-42 -39t-57.5 -9q-154 0 -272 107.5t-238 334.5q-57 106 -102.5 183t-62 100t-27.5 48.5t-21 64.5q-10 37 -55.5 108.5t-122 178t-89.5 124.5q-39 -190 -39 -559q0 -98 8.5 -172t8.5 -96 q0 -123 -33 -219.5t-82 -96.5q-86 0 -110.5 61.5t-24.5 272.5z" />
<glyph unicode="O" d="M125 655q0 193 88 385.5t229 286.5q131 86 197 90q16 4 75.5 57.5t106.5 53.5q29 0 56.5 27.5t91.5 27.5q174 0 277.5 -158.5t103.5 -425.5q0 -170 -43 -351t-105.5 -314t-134.5 -219t-125 -86q-8 0 -17.5 -14.5t-17.5 -20.5q-31 -20 -119 -33.5t-170 -13.5 q-61 0 -101 15t-101 58q-119 90 -205 278.5t-86 356.5zM336 627q0 -68 49 -197q109 -291 295 -291q47 0 111 23q66 25 173 171t121 240q12 92 55.5 257t43.5 204q0 51 -54.5 154.5t-80.5 130.5q-20 12 -68 12q-92 0 -240 -45q-311 -94 -385 -498q-20 -127 -20 -161z" />
<glyph unicode="P" horiz-adv-x="1439" d="M96 1323q0 63 125 193q66 68 103.5 93t81.5 25q16 0 40.5 -3t55.5 -3q68 0 170 17.5t172 17.5q29 0 45 -2q78 -10 110.5 -14.5t93 -16.5t86 -24.5t62.5 -35t52.5 -52t27.5 -72.5t12 -98q0 -88 -25.5 -196t-72.5 -110q-2 -4 -3 -16t-1 -14q-23 -63 -150 -168t-204 -119 q-45 -12 -62.5 -18.5t-26 -15.5t-10.5 -9q-41 -27 -155 -27h-99l19 -329q10 -174 10 -246q0 -100 -18.5 -145.5t-69.5 -67.5q-14 -6 -31 -6q-70 0 -84 114q-23 156 -52.5 582t-29.5 576v161l-20 -12q-45 -33 -86 -33q-23 0 -44.5 20.5t-21.5 53.5zM473 1237 q0 -111 13.5 -241t27.5 -156q6 -2 25 -2q63 0 180 26.5t192 65.5q39 20 66 48t29 44q6 51 77.5 138t71.5 132q0 92 -178 129q-117 25 -156 25q-37 0 -196 -31q-106 -20 -129 -44.5t-23 -133.5z" />
<glyph unicode="Q" horiz-adv-x="1665" d="M102 557q0 147 37.5 312t100.5 290q63 123 171.5 214t210 134t225.5 67.5t186.5 29t127.5 4.5q70 0 131.5 -72t102.5 -182q32 -83 32 -222v-8q0 -236 -90 -534l-57 -191l57 -43q104 -78 192.5 -180t88.5 -162q0 -23 -15.5 -37t-39.5 -14q-29 0 -88.5 30t-96.5 62 q-14 14 -131 95l-84 55l-26 -41q-86 -131 -219.5 -204t-278.5 -73q-172 0 -305 103q-82 66 -157 248t-75 319zM317 541q0 -94 50 -222q49 -123 109.5 -171t168.5 -48q115 0 233.5 72t120.5 137q-4 12 -29.5 41t-84 81t-134 107.5t-75.5 86.5q0 27 29.5 59.5t68.5 32.5 q41 0 179.5 -86t146.5 -90q37 57 100.5 275t63.5 302q0 47 -20.5 80t-69.5 80q-51 49 -102.5 62.5t-227.5 13.5q-115 0 -133 -6q-68 -23 -190 -148t-122 -162q0 -51 -34 -92q-14 -25 -31 -159t-17 -246z" />
<glyph unicode="R" horiz-adv-x="1409" d="M117 1300q4 53 101 162t134 109q88 0 374 -34t341 -50q156 -47 156 -205q0 -94 -49.5 -184t-108.5 -155.5t-64 -74.5q0 -12 -30.5 -36.5t-74.5 -52t-98.5 -57.5t-98.5 -52.5t-77.5 -40t-35.5 -17.5q338 -104 436 -166q84 -53 102 -61q47 -8 116 -80t69 -110 q0 -78 -64 -78q-39 0 -118.5 39t-212 106.5t-255.5 112.5l-133 49l6 -201q4 -88 5 -145q0 -39 -4.5 -61.5t-25 -44t-58.5 -21.5q-59 0 -82 71.5t-23 204.5q0 248 -68 277q-77 35 -77 96t75 98l50 23l-15 215q-18 264 -37 303q-31 -25 -67.5 -25t-62 24.5t-25.5 61.5z M479 1337l13 -80q20 -152 43 -479q61 20 164.5 73.5t154.5 94.5q53 43 121 154.5t74 156.5q-43 20 -181.5 50t-261.5 30h-127z" />
<glyph unicode="S" horiz-adv-x="1292" d="M125 1042q0 121 121 267.5t270 212.5q84 37 301 37q96 0 145.5 -14.5t102.5 -57.5q98 -82 98 -146q0 -75 -42 -75h-1q-23 0 -51.5 20.5t-57 44t-81.5 44t-119 20.5q-174 0 -320.5 -117t-146.5 -252q0 -45 122 -108.5t316 -120.5q365 -109 365 -351q0 -53 -19 -112 q-51 -170 -175 -235.5t-435 -84.5l-221 -14l-64 131q-45 88 -45 180q0 82 42 132.5t112 50.5q80 0 80 -86q0 -41 -34 -77t-34 -44q0 -14 15 -43q16 -35 43.5 -42t156.5 -7q111 0 164 11t105 44q80 53 98 81.5t18 104.5q0 53 -19.5 71.5t-119.5 61.5q-129 57 -186 64 q-109 0 -306.5 160.5t-197.5 248.5z" />
<glyph unicode="T" horiz-adv-x="1810" d="M92 1286q0 47 60 68q49 16 415 69q328 47 650 105q252 43 307 43q88 0 157.5 -33t69.5 -78q0 -35 -28.5 -58.5t-73.5 -31.5t-71 -10t-48 -2q-133 0 -299 -35l-139 -31l26 -141q25 -154 57.5 -592t38.5 -483q6 -37 8 -72q0 -98 -85 -98q-39 0 -62.5 26.5t-43 106.5 t-31 197.5t-25.5 328.5q-14 209 -33.5 371t-37 237.5t-32.5 86.5q-12 8 -36 8q-16 0 -145.5 -20.5t-205.5 -20.5q-47 0 -135 -15.5t-123 -15.5q-57 0 -96 25.5t-39 64.5z" />
<glyph unicode="U" horiz-adv-x="1492" d="M195 1384q0 92 13 131t60 62q20 8 31 8q47 0 63.5 -65.5t26.5 -190.5v-10q27 -340 80 -693.5t88 -400.5l4 -6q4 -6 7 -11t11.5 -11.5t17.5 -11.5t24.5 -8t33.5 -3q72 0 181 66q125 74 196.5 185.5t122.5 305.5q45 166 45 297q0 104 -28.5 213t-57.5 185.5t-29 107.5 q0 43 36 62.5t63 19.5q53 0 89 -62.5t58.5 -143.5t34.5 -95q27 -35 27 -211q0 -188 -31 -351t-80 -275.5t-113.5 -203t-130 -144.5t-133 -90t-118 -49.5t-87.5 -13.5q-70 0 -162 34t-145 83q-98 94 -148 554t-50 736z" />
<glyph unicode="V" horiz-adv-x="1626" d="M123 1475q4 51 43 77q36 25 63 25h4q37 -4 60.5 -32.5t38 -61.5t24.5 -39q47 0 47 -41q0 -20 28 -84t91.5 -212.5t124.5 -315.5q139 -373 199 -469q41 72 123 263t116 304q57 174 151.5 397t156.5 260l8 2q8 2 16 2q33 0 71 -17t38 -58q0 -47 -34 -146.5t-102.5 -278 t-115.5 -317.5q-51 -154 -203 -450q-80 -154 -125 -213.5t-98 -59.5q-86 0 -134 64.5t-143 300.5l-227 565q-111 276 -111 315q-2 -2 -2 -4q-2 4 -55 86.5t-53 137.5z" />
<glyph unicode="W" horiz-adv-x="1904" d="M123 1393q0 51 11 70.5t48 19.5q29 0 49 -13q53 -45 111.5 -255.5t116 -476t88.5 -355.5q27 57 120 312t119 300q43 51 121 52q115 0 243 -149.5t206 -360.5q23 -53 45 -88q23 43 45 130t22 146q2 68 81 451t108 442q16 8 29 8q63 0 93.5 -22.5t30.5 -79.5 q0 -68 -49 -324l-106 -528q-31 -150 -54.5 -254.5t-31.5 -133t-12.5 -51t-4.5 -59.5q0 -47 -27.5 -74.5t-72.5 -27.5q-55 4 -92 42t-58.5 86t-31.5 56q-23 4 -27 6q-20 20 -35 80q-20 94 -102 245.5t-131 196.5l-35 31l-47 -117q-47 -113 -87 -216t-65.5 -172.5t-47 -131 t-34 -98.5t-24.5 -68.5t-19.5 -47t-18.5 -27t-21.5 -15.5t-28.5 -6q-8 -2 -29 -2q-49 0 -78 23q-29 33 -67.5 217t-84.5 429.5t-75 352.5q-31 109 -31 168q0 33 -9 50t-20.5 27.5t-20.5 64t-9 147.5z" />
<glyph unicode="X" horiz-adv-x="1665" d="M84 1513q0 14 18.5 28.5t49.5 14.5q43 0 115.5 -56t224.5 -191q41 -37 61 -56l317 -268l78 105q98 133 222 260t178 127q79 0 79 -42t-33.5 -101.5t-68.5 -98.5l-35 -39q-74 -70 -160 -240l-94 -186l82 -84q61 -61 195.5 -180t201 -192.5t66.5 -127.5q0 -37 -42 -56 t-71 -19q-10 0 -20 2t-22.5 8t-23.5 13t-27.5 20.5t-31 24.5t-38 32.5t-42 39t-51 47.5t-59.5 54l-235 213l-50 -61q-53 -82 -103 -171t-76.5 -136t-43.5 -62q-2 -2 -40 -63.5t-81 -97t-96 -35.5q-33 0 -62.5 13t-29.5 34q2 70 192.5 391t196.5 360v2q-2 49 -155.5 207 t-312.5 323t-171 224q0 2 -1 10t-1 10z" />
<glyph unicode="Y" horiz-adv-x="1601" d="M145 1470q0 23 18.5 41.5t51.5 18.5q41 0 117 -62.5t366 -334.5q225 -195 293 -226q18 2 37 20.5t45.5 60.5t51 87t69.5 124t86 147q31 53 31 145q0 68 16 91.5t53 23.5q20 0 67.5 -21.5t59.5 -42.5q8 -14 9 -35q0 -135 -131.5 -394t-221.5 -359q-31 -35 -44 -50.5 t-33.5 -54.5t-33 -67.5t-55.5 -130t-88 -201.5l-176 -397q-31 -66 -104 -66q-41 0 -74 24.5t-33 55.5q0 117 244 586l119 229l-344 332q-244 238 -320 322.5t-76 133.5z" />
<glyph unicode="Z" horiz-adv-x="2068" d="M84 1223q0 18 6 30q45 82 419 170t673 88q150 0 227.5 -40.5t77.5 -145.5q0 -74 -69.5 -203t-137.5 -204q-154 -172 -324 -396.5t-184 -281.5v-4q2 -8 25.5 -17.5t74 -17.5t109.5 -8q117 0 260 36.5t297 42.5q86 2 125 7.5t47 11.5t42 17t97 22q35 6 64 6q94 0 94 -84 q0 -49 -43 -81t-102 -32q-43 0 -74 -18.5t-85 -35.5t-151 -17q-113 -2 -307 -38t-380.5 -36t-276.5 26.5t-90 94.5q0 25 31.5 69.5t31.5 57.5q4 41 99.5 190.5t127.5 167.5q4 2 5.5 6t2.5 11.5t3 13.5q16 43 110.5 160.5t177.5 195.5q51 49 118 165t67 148q-20 12 -211 13 q-152 0 -236 -13.5t-181 -41t-206 -44.5q-143 -27 -164 -43q-24 -26 -60 -26h-3q-43 0 -85 24.5t-42 53.5z" />
<glyph unicode="[" horiz-adv-x="993" d="M225 1235q0 86 28 121t107 59q162 49 236 49q25 0 48.5 -5t47 -23.5t23.5 -51.5q0 -23 -10.5 -38t-21.5 -24t-34.5 -15.5t-36 -8.5t-41.5 -6q-90 -10 -125.5 -31.5t-72.5 -21.5q33 -117 78 -850q20 -313 28 -344q12 -29 45 -29q29 0 88.5 5.5t85.5 5.5q106 0 107 -76 q0 -43 -25 -64q-23 -18 -112.5 -32.5t-178.5 -14.5q-109 0 -131 21q-39 37 -53 172t-28.5 446.5t-36.5 548.5q-14 158 -15 207z" />
<glyph unicode="\" horiz-adv-x="1419" d="M80 1343q0 58 72 58q41 0 76.5 -21.5t37.5 -54.5q2 -20 102.5 -141t238.5 -292t206 -286q57 -98 78 -119q35 -35 121 -154.5t118 -174.5q23 -39 51.5 -81t42 -64.5t13.5 -39.5q0 -29 -27.5 -52t-62.5 -23q-74 0 -143 129q-43 76 -194 279.5t-183 254.5 q-82 125 -188.5 251t-173 203t-79.5 111q0 8 -10 19q-31 6 -63.5 83t-32.5 115z" />
<glyph unicode="]" horiz-adv-x="1101" d="M281 1282q0 31 47 66.5t86 44.5q51 10 161 10q125 0 146 -29q43 -57 67.5 -405t24.5 -709v-295l-63 -31q-66 -27 -248 -26q-88 0 -128 10t-40 41q0 37 47 57.5t158 44.5l106 25l4 207q0 14 1 47t1 49q0 240 -17.5 510t-33.5 320q-14 39 -55 38q-33 0 -103 -18t-88 -18 q-33 0 -53 19.5t-20 41.5z" />
<glyph unicode="^" horiz-adv-x="915" d="M117 1202q0 18 17.5 62.5t31.5 62.5q27 33 80 122t98 147.5t78 58.5q45 0 199.5 -166t154.5 -227q0 -35 -15 -56.5t-38 -21.5q-41 0 -104.5 62.5t-120 128t-74.5 69.5q-14 0 -91 -129t-114 -148q-20 -8 -43 -8q-59 0 -59 43z" />
<glyph unicode="_" horiz-adv-x="1224" d="M61 6q8 47 78 49q59 2 349 32t321 40q10 10 98 10q139 0 181 -9t42 -52q0 -49 -24.5 -60.5t-140.5 -17.5q-199 -12 -373 -33q-319 -37 -404 -37q-82 0 -112 41q-14 18 -15 37z" />
<glyph unicode="`" horiz-adv-x="860" d="M203 1376q0 27 26.5 52.5t51.5 25.5q10 0 18 -6q43 -31 150.5 -137.5t107.5 -153.5q-8 -67 -53 -67q-55 0 -178 123.5t-123 162.5z" />
<glyph unicode="a" horiz-adv-x="1245" d="M193 262q0 90 51 155.5t184 131.5q150 76 281 76q57 0 95 -14.5t59.5 -34t23.5 -19.5q33 -6 57 -27q0 135 -11 226.5t-31.5 134.5t-41 59.5t-49.5 16.5q-98 0 -212 -39t-205 -79t-132 -40q-51 0 -51 47q0 29 12.5 52.5t29.5 40t55 33.5t70 28.5t93 33t107 37.5 q123 43 215 43q166 0 247 -155q37 -70 44.5 -127.5t11.5 -333.5q4 -261 18 -404q-4 -47 -35.5 -80.5t-52.5 -33.5q-12 0 -23.5 4t-20.5 15t-16.5 20.5t-12.5 28t-9 29.5t-8 33.5t-5 33t-5 33t-4 28.5q-66 -76 -194 -146.5t-218 -70.5q-57 0 -137 18.5t-117 44.5 q-63 47 -63 201zM352 244q0 -41 7.5 -52.5t37.5 -25.5q47 -18 76 -19q45 0 112.5 23t114.5 43l45 23q0 25 68 82t70 73q0 8 -12.5 22.5t-64.5 33t-136 18.5q-90 0 -157 -26.5t-99.5 -65.5t-47 -72t-14.5 -57z" />
<glyph unicode="b" d="M174 1589q0 115 76 154q14 8 29 8q47 0 62 -68.5t27.5 -257t34.5 -327.5q33 -209 39 -283l4 -57l129 119q100 92 166 136t136 64q118 33 165 33q37 0 82 -18.5t92.5 -56.5t78 -112.5t30.5 -170.5q0 -145 -67.5 -297t-190.5 -265q-90 -80 -246.5 -158.5t-240.5 -78.5 q-100 2 -188.5 56t-96.5 95q-6 27 -22.5 404t-43.5 539q-55 340 -55 542zM484 305q0 -72 20 -117t39.5 -57t36.5 -12q37 0 100 18.5t176 93t201 193.5q96 129 96 313q0 188 -117 189q-45 0 -102 -11q-35 -6 -137.5 -81.5t-196.5 -180.5q-51 -55 -83.5 -153.5t-32.5 -194.5z " />
<glyph unicode="c" horiz-adv-x="1271" d="M98 580q0 158 163 324.5t292 197.5q57 14 149 14q176 0 307.5 -106.5t131.5 -216.5q0 -37 -21.5 -70t-56.5 -33q-8 0 -18.5 2t-32 22.5t-25.5 57.5q-2 14 -23.5 49t-41.5 56q-25 27 -38.5 37t-74.5 23t-166 13q-78 0 -117 -23.5t-100 -101.5q-154 -190 -154 -340 q0 -78 20.5 -130t35 -66.5t57.5 -48.5q57 -49 88 -62.5t86 -13.5q176 0 395 233q124 131 187 131q49 0 49 -63q0 -49 -102.5 -175t-178.5 -177q-182 -121 -327 -121q-106 0 -230 55q-125 55 -180 150.5t-68 275.5q0 18 -3 54t-3 53z" />
<glyph unicode="d" horiz-adv-x="1570" d="M143 416q0 125 44 238.5t113 194.5t149.5 140.5t156.5 89t131 29.5q63 0 202.5 -73.5t197.5 -141.5q33 -41 49 -53q8 72 14 558t27 535q33 80 104 80h82l-16 -868q-6 -299 -6 -535q0 -317 14 -453.5t14 -150.5q0 -43 -22.5 -88t-75.5 -45q-66 0 -92.5 75t-33.5 197.5 t-15 153.5q-2 -2 -42 -44t-88.5 -83t-115 -88t-154.5 -75.5t-178 -28.5q-78 0 -170 30q-289 98 -289 406zM348 451q0 -137 25 -179q18 -29 97 -65.5t151 -36.5q137 0 356 184q154 129 170 178q0 51 -85 154t-179 158q-117 69 -161 69h-1q-29 0 -176.5 -120.5t-177.5 -184.5 q-18 -37 -19 -157z" />
<glyph unicode="e" horiz-adv-x="1370" d="M104 571q0 78 23 150q43 127 192.5 265t286.5 138q37 0 109 -6q111 -8 157 -21.5t105 -52.5q66 -43 119 -121.5t53 -138.5q0 -78 -63.5 -114.5t-215.5 -67.5q-199 -39 -409 -51l-178 -8v-54q0 -76 33.5 -133t109.5 -120q109 -90 221 -91q90 0 190.5 54.5t171 120t137 120 t97.5 54.5q37 0 37 -43q0 -47 -59.5 -134.5t-118.5 -140.5q-228 -196 -471 -196h-2q-201 0 -363 157.5t-162 433.5zM303 694q8 -2 37 -2q199 0 551 70q88 16 88 55q0 16 -90 84q-66 49 -93.5 61.5t-78.5 12.5q-102 0 -150.5 -15.5t-101.5 -66.5q-160 -156 -160 -201z" />
<glyph unicode="f" horiz-adv-x="1437" d="M137 915q0 70 185 109l198 43l6 158q4 188 29 422q20 178 35.5 226t71.5 99q53 45 86.5 59.5t93.5 14.5q43 0 172 -10q96 -8 137 -26.5t92 -67.5q78 -78 78 -146q-2 -57 -39 -106.5t-72 -49.5q-47 0 -47 97q0 53 -30.5 82.5t-135.5 62.5q-68 18 -108 19q-82 0 -129 -89 q-20 -39 -37.5 -237.5t-17.5 -353.5q0 -96 6 -116t32 -20q20 0 111.5 14.5t140.5 14.5q113 0 113 -57q0 -55 -219 -109l-178 -43l-6 -291q0 -25 -2.5 -63.5t-2.5 -54.5q0 -115 10.5 -191t22.5 -101.5t22.5 -56t10.5 -67.5q0 -47 -28.5 -66.5t-59.5 -19.5q-43 0 -64 22 q-53 51 -70 232q-15 170 -15 361v23v43q0 166 -7 202q-33 -2 -127 -20.5t-139 -18.5q-63 0 -91 23.5t-28 53.5z" />
<glyph unicode="g" horiz-adv-x="1548" d="M143 537q0 82 76 214t129 197q49 61 178 136t228 104q104 33 237 33q166 0 277.5 -55.5t111.5 -176.5q0 -63 -29.5 -150t-29.5 -149q0 -37 5 -105.5t18.5 -229t23.5 -320.5l31 -424l-82 -66q-63 -53 -133 -53q-123 0 -294 55.5t-295 133t-124 133.5q0 72 68.5 153.5 t119.5 81.5q78 0 78 -57q0 -25 -20.5 -61.5t-20.5 -65.5q0 -43 71 -80t120 -37q41 0 115.5 -41t123.5 -41q76 0 76 62q0 158 -10 259t-25.5 172.5t-19.5 114.5q-6 96 -14 150q-57 -76 -180.5 -167t-209.5 -122q-100 -35 -219 -35q-74 0 -120 16.5t-113 71.5q-63 53 -91 99.5 t-42 120.5q-14 76 -15 129zM328 516q0 -106 56 -197.5t142 -91.5q123 0 271.5 108.5t240.5 274.5q53 96 89 217t36 187q0 20 -4 28q-37 18 -141 19q-92 0 -164 -19q-180 -49 -353 -231t-173 -295z" />
<glyph unicode="h" horiz-adv-x="1208" d="M115 1497q0 117 16 141q35 57 72 58q55 0 70 -85t40 -448q14 -195 23 -317l10 -141q59 102 234.5 248.5t245 146.5t137 -59.5t88.5 -131.5q18 -63 18 -481v-43q0 -399 -82 -399q-43 0 -54 63.5t-18 261.5q-2 66 -4 103q-12 389 -53 497l-22 64l-99 -82 q-104 -86 -188 -198.5t-115 -198.5q-14 -51 -29.5 -198.5t-40 -246t-71.5 -98.5q-20 0 -51 24q-47 38 -47 218q0 166 -40 660.5t-40 641.5z" />
<glyph unicode="i" horiz-adv-x="620" d="M201 1014q0 124 43 153q35 25 67.5 25t55.5 -27q33 -61 54 -356t21 -551q0 -184 -12 -209q-41 -33 -88 -33q-72 0 -88 43q-10 33 -31.5 427.5t-21.5 527.5zM221 1647q4 39 34 63.5t58.5 24.5t73.5 -27t45 -72q0 -49 -24.5 -88t-65.5 -39q-43 0 -82 40.5t-39 97.5z" />
<glyph unicode="j" horiz-adv-x="1060" d="M141 -250q0 113 28 166t64.5 53t58 -64.5t23.5 -129.5l4 -64q14 -10 89 -19t141 -9q47 0 72 6q12 0 24 30.5t22.5 125t10.5 239.5q0 336 -29 434q-100 324 -100 555q0 47 14.5 64.5t69.5 17.5q59 0 74.5 -34t50.5 -206q92 -459 92 -755q0 -45 -4 -152 q-4 -121 -10.5 -190.5t-21.5 -134t-36.5 -94t-63.5 -52t-94.5 -29t-134.5 -6.5q-111 0 -176 15.5t-79.5 34t-22.5 38t-17 21.5q-27 8 -38 34.5t-11 104.5zM461 1589q0 47 39 75t78 28q29 0 66.5 -27t37.5 -82q0 -53 -26.5 -78.5t-63.5 -25.5q-47 0 -89 33.5t-42 76.5z" />
<glyph unicode="k" horiz-adv-x="1169" d="M104 1518q0 106 74 106q57 0 82 -63q12 -31 28.5 -182.5t35 -336t30.5 -258.5l11 -65l221 194q16 14 43.5 39t43 38.5t39 33.5t37 31.5t33 27t31.5 22.5t25.5 15t23.5 11.5t19 3.5q33 -4 54 -30t21 -54q0 -25 -11 -37.5t-44 -40t-63 -70.5q-86 -121 -367 -311 q-78 -53 -82 -80q0 -14 25 -25l248 -98l14 -8q16 -6 33.5 -13.5t44 -19.5t52 -25.5t55.5 -30t55.5 -31.5t49 -33.5t41 -35t27.5 -34t10 -33.5q0 -31 -18 -49.5t-49 -18.5q-51 4 -120 50.5t-81 46.5q-23 0 -36 8t-15 16l-4 8q-29 20 -266 95l-78 24l12 -123q8 -70 8 -100 q0 -111 -78 -111q-86 0 -106 98.5t-35 462.5q-16 334 -31 412q-43 221 -43 574z" />
<glyph unicode="l" horiz-adv-x="665" d="M199 1653q0 150 12 229.5t29.5 101t48.5 21.5q49 0 59 -41q10 -43 44 -522t63.5 -932t28.5 -463q0 -72 -76 -72q-70 0 -89.5 85t-48.5 499q-33 436 -59 760q-12 172 -12 334z" />
<glyph unicode="m" horiz-adv-x="1888" d="M295 1012q0 137 59 137q20 0 36 -22.5t26 -62.5t17 -79t15.5 -90t14.5 -76q12 31 19 45.5t13.5 19.5t23 30.5t40.5 70.5q51 94 82 117.5t107 23.5q82 0 176 -98q53 -59 73.5 -111.5t40.5 -179.5l15 -75q57 182 170.5 323t226.5 141q70 0 120 -63.5t70 -153.5 q21 -96 21 -463q0 -168 -3 -259t-14.5 -140t-25.5 -61.5t-43 -12.5q-35 0 -47 37q-8 29 -9 284t-18.5 479t-66.5 224q-35 0 -104.5 -112.5t-140.5 -339t-85 -475.5q-8 -113 -72 -113q-45 0 -56 43t-18 178q-2 35 -2 55q-14 313 -42.5 436.5t-106.5 221.5q-43 61 -62 61 q-33 -8 -172 -307q-38 -80 -38 -154q0 -53 -19.5 -106t-26.5 -262q0 -20 -1 -59t-1 -58.5t-3 -50.5t-8 -45t-13 -30.5t-21.5 -24t-31.5 -7.5q-55 0 -69.5 95.5t-14.5 402.5q0 197 -15.5 415t-15.5 251z" />
<glyph unicode="n" horiz-adv-x="1374" d="M258 1071q0 106 68 107q45 -2 59 -55.5t41 -299.5q6 -55 10 -86l29 -233l22 67q43 133 75 194.5t118 174.5q166 219 281 219q76 0 131 -84q66 -92 81 -184t21 -422q4 -209 4 -254q0 -135 -18.5 -183t-75.5 -48q-39 0 -51.5 21.5t-12.5 86.5q0 31 4.5 127t4.5 160 q0 174 -14.5 325.5t-33.5 190.5q-8 16 -20 31.5t-21.5 23.5t-13.5 8q-33 0 -134 -137t-171 -280q-72 -152 -95.5 -221.5t-37.5 -188.5q-23 -190 -37 -211q-10 -12 -22 -12q-31 4 -66 43q-18 20 -27.5 52t-15.5 98.5t-10 143.5t-16.5 223t-30.5 304q-25 246 -25 299z" />
<glyph unicode="o" horiz-adv-x="1439" d="M115 485q0 257 211 439q172 147 293.5 194t306.5 47q285 0 356 -159q41 -90 41 -224q0 -211 -101.5 -430t-256.5 -307q-152 -84 -322 -84q-250 0 -381 148q-92 102 -119.5 174.5t-27.5 201.5zM322 471q0 -150 104 -245t270 -95q168 0 310.5 214t142.5 486q0 29 -5 45.5 t-11.5 23.5t-22.5 20q-74 53 -156 53q-12 0 -33.5 -3t-63.5 -8.5t-91 -9.5q-68 -6 -110 -25.5t-107 -74.5q-123 -104 -175 -191.5t-52 -189.5z" />
<glyph unicode="p" d="M123 858q0 37 57.5 87t57.5 77q0 45 28.5 106.5t89.5 61.5q41 0 67 -32t36 -32q18 0 159.5 32t253.5 32q94 0 207 -23q238 -51 238 -280q0 -174 -129 -434q-88 -180 -225.5 -278.5t-294.5 -98.5q-41 0 -68 4l-61 8l16 -70q80 -336 80 -436q0 -88 -92 -88q-59 0 -88 35 q-37 47 -85 285.5t-83 615.5q-12 131 -19.5 204t-15.5 108.5t-14.5 44t-18.5 8.5q-96 0 -96 63zM459 905l4 -112q6 -156 25.5 -334t35.5 -178q41 0 86 -26t66 -26q78 0 185.5 100.5t185 245t77.5 254.5q0 41 -14 77t-27.5 51.5t-19.5 19.5q-25 12 -121 12q-199 0 -354 -45z " />
<glyph unicode="q" horiz-adv-x="1462" d="M86 471q0 285 208 495t497 210q51 0 104 -19q53 -20 76.5 -55t23.5 -105q0 -72 -38.5 -295t-43.5 -303q0 -31 5 -47q18 10 97 76t158.5 117t133.5 51q23 0 37 -13.5t14 -31.5q0 -29 -107.5 -135.5t-167.5 -151.5q25 -12 47 -35q86 -86 105.5 -118.5t19.5 -112.5 q0 -10 -1 -43t-1 -57q0 -39 -1 -63.5t-5 -45t-8 -31t-13 -35t-16 -42.5q-41 -115 -84 -152t-108 -37q-47 0 -71.5 6t-55.5 34t-50.5 87t-42 163.5t-42.5 268.5l-35 262l-98 -75q-174 -131 -281 -132q-74 0 -127 34t-79.5 91.5t-38 117t-11.5 122.5zM254 481 q0 -94 22.5 -168.5t75.5 -74.5q59 0 188.5 121.5t176.5 201.5q31 61 66.5 216t50.5 179q8 16 8 33q0 29 -23 29q-80 0 -174 -35t-183 -98.5t-148.5 -170t-59.5 -233.5zM934 113q0 -121 33.5 -247t66.5 -179q4 10 27 69t41 86l-15 228q-2 18 -44 57t-74 39q-35 0 -35 -53z " />
<glyph unicode="r" horiz-adv-x="1183" d="M205 918q0 68 8 105.5t41 66.5q20 18 45 18q27 0 45 -21.5t18 -56.5q0 -76 22 -214t40 -216q16 23 47 70q78 127 217.5 228t239.5 101q39 0 67.5 -17t37.5 -33.5t9 -28.5q0 -41 -94 -76q-125 -47 -271.5 -231.5t-176.5 -346.5q-39 -207 -65.5 -275.5t-78.5 -68.5 q-20 0 -35.5 5t-25.5 19.5t-16.5 25t-11.5 34t-6 34.5t-4 38.5t-3 34.5q-49 479 -49 805z" />
<glyph unicode="s" horiz-adv-x="1114" d="M139 702.5q0 81.5 117 210.5t289 166l205 19q55 0 83.5 -13.5t71.5 -62.5q70 -80 70 -117q0 -51 -53 -51q-45 0 -91.5 48t-113.5 48q-92 0 -191.5 -52t-157 -108.5t-57.5 -80.5q0 -16 23.5 -38t80 -50.5t134.5 -51.5q215 -63 297 -124.5t82 -172.5q0 -96 -35 -174 q-29 -68 -113 -140.5t-172 -72.5q-63 0 -164.5 17.5t-156.5 42.5q-45 23 -80 81t-35 111q0 35 18.5 60.5t45.5 25.5q51 0 90 -71q23 -43 98.5 -81t140.5 -38q82 0 150.5 91t68.5 140q0 8 -6 23.5t-33.5 42t-70.5 39.5q-70 20 -152 52t-121 40q-61 12 -161.5 86t-100.5 155.5 z" />
<glyph unicode="t" horiz-adv-x="1222" d="M96 1147q0 55 78 84t185.5 45t138.5 33q16 16 16 88q0 74 -18.5 192.5t-18.5 214.5q0 66 35 97.5t76 31.5q45 0 63 -37q10 -31 35 -267t31 -273q16 2 109.5 17.5t142.5 16.5q70 0 98.5 -23.5t28.5 -49.5q0 -39 -53.5 -65.5t-192.5 -61.5l-117 -19l17 -311 q16 -289 57 -540.5t41 -290.5q0 -90 -94 -90q-55 0 -82 20q-61 55 -62 231q0 72 -8 147t-27.5 233.5t-35.5 328.5q-21 213 -23 221q-66 -4 -179.5 -23.5t-152.5 -19.5q-88 0 -88 70z" />
<glyph unicode="u" horiz-adv-x="1347" d="M156 745q0 193 18.5 276t65.5 83q37 0 66.5 -31t29.5 -94q0 -23 -4 -68t-4 -100q0 -53 6 -191.5t27.5 -322.5t54.5 -209q10 -6 20 -6q41 0 135 74q123 94 239 301t161 413q35 158 62.5 207t74.5 49q37 0 58.5 -22.5t21.5 -59.5q0 -29 -30 -229.5t-30 -288.5 q0 -119 52.5 -302t52.5 -210q-6 -45 -39 -63q-20 -12 -45 -12q-53 0 -89 80.5t-62.5 189t-45.5 137.5q-6 -6 -15 -19.5t-22.5 -33t-23.5 -33.5q-94 -139 -218 -240.5t-220 -101.5q-147 0 -198.5 92t-84.5 396q-14 129 -14 339z" />
<glyph unicode="v" horiz-adv-x="1314" d="M174 1075q0 45 43 45q12 0 25 -2h2q68 -16 150 -217t159.5 -468t97.5 -314q39 53 100.5 171t96.5 222q33 94 77 204.5t65.5 169t21.5 85.5q0 57 35.5 112.5t89.5 55.5q14 0 28.5 -5.5t28.5 -23.5t14 -51q0 -55 -52 -208t-210 -554q-59 -152 -151.5 -265.5t-153.5 -113.5 q-33 0 -60.5 18.5t-54 59.5t-47 84t-45 115.5t-42 130t-46.5 152.5t-49 157q-123 389 -123 440z" />
<glyph unicode="w" horiz-adv-x="1531" d="M96 1036q4 39 25.5 68t50.5 29q20 0 39 -13q51 -37 71 -110.5t25.5 -152.5t22.5 -105q14 -27 40.5 -126.5t57.5 -224.5t45 -176q63 158 96 260q66 197 156 197q55 0 155.5 -96.5t137.5 -169.5q33 -70 80 -121q18 51 95 404.5t120 404.5q23 25 51 24q31 0 57.5 -23.5 t26.5 -53.5q0 -16 -12.5 -50t-36 -126.5t-47.5 -225.5q-33 -180 -90.5 -381.5t-83.5 -226.5q-18 -18 -58 -18q-51 0 -98 63.5t-191 314.5q-25 43 -79 86q-10 -14 -27.5 -56t-60.5 -147.5t-99 -226.5q-47 -112 -113 -112h-1q-37 0 -62 28q-31 37 -67.5 171.5t-75.5 308.5 t-58 233q-41 143 -41 182t-25.5 92t-25.5 76z" />
<glyph unicode="x" horiz-adv-x="1300" d="M133 963q4 47 32 80.5t62 33.5q51 0 82 -71q14 -33 161.5 -184.5t207.5 -194.5q49 61 92 127l154 233q59 86 104 86q29 0 57.5 -27.5t28.5 -58.5q0 -29 -50 -91t-60 -93q-12 -41 -93.5 -156t-87.5 -125q14 -16 185.5 -163.5t181.5 -180.5q8 -29 8 -39q0 -33 -19.5 -53 t-52.5 -20q-59 0 -116 61q-51 51 -152.5 131t-146.5 107q-31 -27 -103.5 -126.5t-140.5 -174t-113 -74.5q-23 0 -54.5 16.5t-31.5 50.5q0 45 146 240l147 195l-82 77q-27 25 -82 75t-94 87t-82 82t-65.5 83t-22.5 67z" />
<glyph unicode="y" horiz-adv-x="1183" d="M150 555q0 258 17 367.5t85 109.5q47 0 60.5 -37t13.5 -108q0 -90 -2 -184.5t-2 -157.5q0 -268 47 -269q29 0 121 88.5t133 172.5q43 86 72.5 198.5t43 184t43 124t78.5 52.5q35 0 60.5 -24.5t25.5 -63.5q0 -35 -46 -208t-46 -364q0 -63 6 -117l6 -22l37 16q49 25 90 25 q37 0 58.5 -17.5t21.5 -44.5q0 -63 -100 -114l-70 -33l10 -205q-12 -373 -30 -397q-25 -37 -76 -37q-49 0 -154 39q-59 25 -93 53.5t-64 85.5q-66 123 -66 221q0 33 9.5 52.5t37 53.5t47.5 64q25 37 74 60.5t53 27.5q10 8 54 35q0 63 -23 113q-6 -6 -47 -46t-74 -67.5 t-89 -54.5t-110 -27q-106 0 -167 111q-29 51 -37 112.5t-8 231.5zM618 -197q0 -27 49 -73t74 -56q10 23 11 72q0 39 -7.5 91t-15.5 88t-8 38l-4 47l-19 -24q-80 -111 -80 -183z" />
<glyph unicode="z" horiz-adv-x="1239" d="M106 817q0 20 15 37q45 63 254 135t311 94q33 6 74 7q154 0 211 -60q33 -35 33 -112q0 -113 -62 -236l-31 -59l39 -5q119 -12 119 -53q0 -27 -50 -52.5t-128 -33.5q-57 -6 -88 -20.5t-84 -61.5q-45 -41 -101.5 -112.5t-78.5 -114.5q373 63 477 62q143 0 143 -62 q0 -39 -51 -61.5t-176 -42.5q-428 -76 -526 -76q-96 0 -97 59q0 45 75 177t116 175q25 25 39 41q-10 2 -42 3t-51.5 3.5t-42 8.5t-35 17t-12.5 30q0 86 222 86q76 0 97 6t42 31q57 70 91 150.5t34 129.5q0 16 -2 23q-8 2 -31 2q-100 0 -295 -52.5t-229 -88.5 q-29 -37 -84 -37q-37 0 -66 17t-29 46z" />
<glyph unicode="{" horiz-adv-x="645" d="M139 539q0 27 13.5 41t30 26t29.5 66.5t13 150.5q0 70 -7 184.5t-7 120.5q0 39 20 99l29 90l68 -12q82 -10 82 -74q0 -45 -48 -45q-12 0 -24 6q-14 -33 -14 -76q0 -14 8 -110.5t8 -182.5q0 -98 -8 -153.5t-17.5 -76t-9.5 -28.5q12 -100 13 -294.5t10 -235.5 q14 -25 53 -25q10 0 23.5 7.5t27.5 7.5q43 0 43 -48q-2 -47 -22.5 -66.5t-71.5 -19.5q-63 0 -107.5 38t-50.5 69q-12 45 -16 264l-4 221q-63 8 -64 56z" />
<glyph unicode="|" horiz-adv-x="745" d="M295 1186q0 16 3 73.5t13.5 136.5t24.5 99q8 12 27.5 19.5t33.5 9.5l17 2q2 0 17 -13.5t15 -15.5q10 -106 11 -1200v-229q0 -180 -9.5 -237.5t-46.5 -78.5q-16 -8 -24 -8q-39 0 -47 35q-12 53 -23.5 663.5t-11.5 743.5z" />
<glyph unicode="}" horiz-adv-x="690" d="M211 1356q0 49 53 49q37 0 80 -33t43 -102q0 -55 -12.5 -184.5t-12.5 -182.5q0 -100 29 -129h2q18 -16 56 -17t60.5 -15.5t22.5 -41.5q0 -25 -13 -43t-29.5 -37.5t-30 -94t-13.5 -199.5q0 -55 2.5 -120t2.5 -79q0 -74 -21 -143q-18 -59 -44 -86t-75 -27q-90 0 -90 63 q0 72 51 72q23 -6 33 -16q16 45 21.5 313t25.5 318l10 26q-78 39 -100 94.5t-22 139.5q0 59 9 197.5t9 170.5q-2 41 -24.5 62.5t-22.5 44.5z" />
<glyph unicode="~" horiz-adv-x="1255" d="M207 1313q0 55 98 139t178 84q57 0 118 -28.5t117 -66.5t75 -46l30 -15l41 39q31 25 52.5 55.5t30.5 50t24.5 33t38.5 13.5q61 -4 61 -55q0 -61 -84 -158.5t-162 -97.5q-55 0 -180 75.5t-166 75.5q-27 -2 -58.5 -28.5t-49.5 -28.5q-4 -4 -23.5 -30t-43 -45t-48.5 -19 q-2 0 -5 1t-11.5 4t-15.5 8t-12 16.5t-5 23.5z" />
<glyph unicode="&#xa1;" horiz-adv-x="1052" d="M377 977q0 39 27.5 66.5t54.5 27.5q2 0 34.5 15.5t57.5 15.5q57 0 88 -68.5t31 -124.5q0 -109 -133 -108q-39 0 -60 10q-27 12 -63.5 64.5t-36.5 101.5zM397 -20q0 35 12.5 50t12.5 27q0 8 -2 30t-2 34q0 10 6 84q8 63 15 146t11.5 127t11.5 88t21.5 62.5t36.5 18.5 q55 0 68 -78q25 -137 74 -297.5t53 -220.5l8 -100l-98 -12q-25 -2 -79 -9.5t-79 -7.5q-70 0 -70 58z" />
<glyph unicode="&#xa2;" horiz-adv-x="1165" d="M72 582q0 76 34.5 149.5t82 126.5t114 104.5t109.5 78t88 51.5v75q0 135 12 169t55 34q18 0 28.5 -8t25 -61.5t24.5 -157.5q96 0 179 -37t132.5 -89t77 -105.5t27.5 -92.5q0 -41 -21.5 -71.5t-56.5 -30.5q-8 0 -18.5 2t-32 22.5t-25.5 57.5q-2 14 -22.5 49t-38.5 55 q-20 23 -28.5 31t-50.5 22.5t-108 18.5q8 -127 33 -772q66 45 141.5 124t129 127t94.5 48q8 0 17 -2t22.5 -18.5t13.5 -43.5q0 -53 -103.5 -179t-172.5 -173q-82 -55 -138 -82v-76q0 -100 -7 -134t-36 -56q-18 -14 -37 -14q-33 8 -41 32.5t-10 120.5q0 55 -2 90q-6 0 -16 -1 t-17 -1q-96 0 -215 58q-119 59 -172 159.5t-65 286.5q0 18 -3 57t-3 56zM242 481q0 -27 2 -50t4 -40.5t7 -36t8 -29t12.5 -24.5t11.5 -20.5t14 -19.5t14 -15l17 -17l14 -12q53 -51 81 -65.5t81 -14.5q14 0 47 4q-20 573 -39 824q-14 -6 -29.5 -16.5t-26.5 -22t-38 -36 t-47 -42.5q-59 -53 -90 -122t-37 -118t-6 -127z" />
<glyph unicode="&#xa3;" horiz-adv-x="1351" d="M125 817q6 31 45 49l133 39q27 8 35 10q-16 158 -16 181q0 117 69 184q131 125 223.5 165t233.5 40q219 0 278 -137q35 -86 35 -160q0 -45 -23.5 -74t-52.5 -29q-41 0 -68.5 92.5t-33.5 98.5q-55 45 -115 45q-6 0 -21.5 -3t-47 -7t-70.5 -8q-53 -4 -84 -20.5t-78 -61.5 q-70 -68 -69 -158q0 -20 14 -135h8q10 0 50 2t67 2q160 0 160 -74q-6 -74 -119 -74l-158 -14v-72q0 -403 -63 -555q23 8 46 20.5t43.5 16.5t65.5 4q127 0 245 -32.5t206 -32.5q37 0 57 4l37 -27q-2 -43 -42 -88t-128 -45q-94 0 -362 51q-109 -2 -195 -33.5t-111 -31.5 q-121 0 -120 65q0 29 11 59.5t23.5 48t28.5 34.5l14 18q8 16 19 31q6 12 16 61q2 6 2 8q6 39 12.5 67t8.5 35t3 17t1 29v160l2 163q-37 -4 -55 -4q-68 0 -114 22.5t-46 53.5z" />
<glyph unicode="&#xa4;" horiz-adv-x="1390" d="M176 1440q0 18 22.5 48t53.5 30q10 0 20 -7q47 -31 162 -149q51 51 123 84t119 41l45 6q76 -6 203 -111q147 158 180 158q20 0 50 -23.5t30 -52.5q0 -43 -162 -198q37 -66 37 -189q0 -135 -51 -237q164 -158 163 -199q0 -18 -22.5 -48t-52.5 -30q-10 0 -21 6 q-47 33 -168 156q-98 -72 -198 -72q-121 0 -242 86q-164 -164 -188 -164q-20 0 -50 22.5t-30 53.5q0 47 170 203q-66 131 -66 244q0 68 37 141q-164 158 -164 201zM455 1098q0 -156 69 -224q74 -72 203 -71q68 0 94 22q98 82 99 252q0 78 -17.5 131.5t-42.5 53.5 q-59 33 -65 51q-23 18 -76 18l-29 -2q-25 0 -39 23q-25 -6 -50.5 -18.5t-61 -40t-59 -79t-25.5 -116.5z" />
<glyph unicode="&#xa5;" horiz-adv-x="1495" d="M119 1477q0 31 20.5 55t48.5 24q39 0 123 -72.5t342 -332.5q221 -219 277 -244q16 2 34.5 21.5t43 62.5t48 89t66.5 128t80 150q16 31 23.5 103.5t21 121.5t49.5 49q27 0 73 -26.5t58 -53.5q8 -18 9 -45q0 -133 -128 -391t-216 -362q-57 -68 -95 -162l80 12q82 12 129 12 q135 0 135 -71q0 -29 -30.5 -52.5t-85.5 -23.5q-23 0 -60 4t-45 4q-14 0 -69.5 -3t-102.5 -5l-22 -53q10 0 106 14t152 14q80 0 118.5 -22t38.5 -49q-8 -41 -59 -58.5t-94 -17.5q-20 0 -84 -3t-76 -3q-29 0 -87 -3t-69 -3l-186 -443q-35 -82 -98 -82q-39 0 -70 33t-31 74 q0 86 156 418q-115 -4 -170 -14.5t-82 -10.5q-35 2 -46 16.5t-13 50t-6 52.5l-9 33h35q106 2 200.5 7t129.5 5h29l16 37q-61 -2 -103 -5t-56.5 -4t-22.5 -1q-160 29 -160 61q0 6 3 20.5t3 24.5q0 12 -16 53h102q82 0 149.5 -5t90.5 -5q49 0 74 -2l38 84l-323 332 q-297 305 -344 368q-43 57 -43 95z" />
<glyph unicode="&#xa6;" horiz-adv-x="745" d="M295 1186v2q10 264 41 307q8 12 27.5 19.5t33.5 9.5l17 2q2 0 17 -13.5t15 -15.5q8 -90 9 -680v-29l-152 9v24q-4 182 -6 314q-2 43 -2 51zM309 424q0 33 22.5 51.5t38 21.5t27.5 3q39 -2 49.5 -25.5t10.5 -79.5v-327q0 -180 -9.5 -237.5t-46.5 -78.5q-10 -8 -24 -8 q-39 0 -47 35q-6 35 -13.5 270.5t-7.5 374.5z" />
<glyph unicode="&#xa7;" horiz-adv-x="1150" d="M113 709q0 76 83 194.5t214 171.5l-70 58q-12 18 -33.5 70t-21.5 85q0 96 34 187q27 68 107 145.5t160 77.5q57 0 148 -17.5t140 -42.5q45 -23 79 -82t34 -112q0 -37 -18.5 -60.5t-44.5 -23.5q-49 0 -84 72q-20 43 -89 80.5t-126 37.5q-74 0 -135.5 -96t-61.5 -147 q0 -10 5 -26.5t29.5 -43.5t63.5 -41q61 -20 134 -53t112 -43q59 -16 153.5 -92t94.5 -160q0 -68 -103.5 -188.5t-224.5 -170.5q39 -16 47 -22l80 -90l29 -111q-14 -133 -35 -184q-27 -68 -106.5 -145.5t-159.5 -77.5q-57 0 -148.5 17.5t-140.5 41.5q-45 23 -79 82.5 t-34 112.5q0 37 18.5 60.5t45.5 23.5q49 0 84 -72q20 -43 89 -81t126 -38q74 0 135.5 96.5t61.5 147.5q0 10 -5.5 26.5t-30 43t-63.5 40.5q-61 20 -134 53t-112 44q-59 16 -153 92t-94 160zM281 725q0 -33 34.5 -59.5t67.5 -38t41 -11.5l100 -28q121 2 223.5 105.5 t112.5 168.5q-16 33 -60 57.5t-75 32.5l-92 17q-147 0 -271 -131q-18 -18 -37.5 -37t-26.5 -26t-12 -19.5t-5 -30.5z" />
<glyph unicode="&#xa8;" horiz-adv-x="727" d="M90 1434q0 53 25.5 85.5t68.5 32.5q16 0 35 -6t37 -16t31.5 -18.5t30 -19.5t18.5 -13q-27 -96 -67 -143.5t-81 -47.5t-69.5 41t-28.5 105zM397 1423q0 53 26 86t68.5 33t151.5 -76q-27 -96 -66.5 -142t-80.5 -46t-70 41t-29 104z" />
<glyph unicode="&#xa9;" horiz-adv-x="1497" d="M158 487q0 262 207 457q162 154 277.5 204t287.5 50q186 0 284.5 -87t98.5 -312q0 -221 -98.5 -450.5t-247.5 -319.5q-145 -88 -303 -88q-225 0 -359 155q-92 106 -119.5 181t-27.5 210zM293 471q0 -156 131 -271.5t295 -115.5q160 0 303 206t143 474q0 178 -30 205 q-37 31 -92.5 55.5t-86.5 24.5q-8 0 -32.5 4t-42.5 4q-174 0 -351 -172q-125 -117 -181 -213.5t-56 -200.5zM401 561q0 29 24 83t67 117.5t121.5 110t172.5 46.5q102 0 181.5 -67t79.5 -136q-4 -74 -58 -74q-4 0 -21.5 -5t-29.5 -5q-31 0 -41 35q-6 23 -23.5 42t-19.5 35v2 q0 2 -1 3.5t-2 3.5t-3 4t-5 4t-8.5 3t-12.5 2t-17.5 2t-22.5 1q-45 0 -68.5 -14.5t-54.5 -57.5q-59 -84 -59 -166q0 -45 3 -65.5t4 -27.5t16.5 -19t21.5 -19q33 -33 53 -32q37 0 58.5 -4.5t36.5 -4.5l2 2q16 4 74.5 64.5t105.5 60.5l16 -8q16 -8 19.5 -21.5t3.5 -45.5 q0 -70 -103.5 -145t-191.5 -75q-68 0 -135 35q-92 47 -137.5 117t-45.5 219z" />
<glyph unicode="&#xaa;" horiz-adv-x="1138" d="M23 629h32q111 2 238 18.5t156 16.5q37 0 118.5 -5.5t114.5 -5.5h219q129 -3 129 -73q-6 -74 -119 -74q-23 0 -57.5 4t-48.5 4t-43 -1t-45 -1q-55 0 -167 4t-163 4q-96 0 -144 -10t-85 -10q-109 0 -129 96zM195 997q0 76 40.5 131.5t143.5 112.5q115 66 211 66 q43 0 69.5 -10.5t43 -28t18.5 -17.5q23 -8 33 -14q0 352 -92 352q-94 0 -234.5 -62.5t-171.5 -62.5q-45 0 -45 43q0 29 11 50.5t41 38t55.5 27.5t80 31.5t90.5 35.5q88 37 158 36q129 0 195 -131q43 -84 43 -254v-112q0 -186 16 -361q-4 -37 -27.5 -69.5t-52.5 -32.5 q-61 0 -82 176q-53 -61 -144 -115.5t-155 -54.5q-45 0 -104.5 15.5t-87.5 39.5q-53 45 -53 170zM330 981q0 -35 4 -43t26 -20q25 -14 54 -15q43 0 110.5 31t85.5 51q6 23 51.5 66t47.5 55q0 6 -8.5 18.5t-46.5 27.5t-97 15q-84 0 -140.5 -41t-71.5 -79.5t-15 -65.5z" />
<glyph unicode="&#xab;" horiz-adv-x="974" d="M123 803v4q8 53 125 158l192 174q90 84 133 84q20 0 36 -18.5t16 -41.5q0 -18 -11.5 -35.5t-26 -32t-50 -45t-64.5 -57.5l-133 -125q-49 -49 -61 -73q14 -33 96 -125t129 -123q109 -70 108 -121q-4 -29 -27.5 -52.5t-47.5 -23.5q-10 0 -17.5 4t-13.5 12.5t-29.5 29 t-58.5 44.5q-106 76 -198.5 189.5t-96.5 173.5zM344 764q0 59 100.5 179t194.5 185q37 25 59.5 46.5t28.5 28.5t12 11.5t19 4.5q31 -6 54.5 -28.5t23.5 -47.5q0 -39 -111 -119q-51 -37 -130 -127t-93 -123q8 -23 61 -72l133 -127q25 -23 53.5 -48t43 -38.5t29 -29 t20.5 -26.5t6 -23q0 -20 -12.5 -42t-40.5 -22q-39 0 -133 84l-191 174q-127 117 -127 160z" />
<glyph unicode="&#xac;" horiz-adv-x="1277" d="M123 426q0 12 3 28.5t7 33t4 18.5q2 16 23 280q0 4 -3 21.5t-3 30.5q0 35 20.5 54t47 19t48 -19.5t21.5 -60.5q0 -33 -12.5 -73.5t-12.5 -57.5l-10 -194q25 -2 68 -10.5t55 -8.5l565 -26q4 0 41 4t62 4q121 0 120 -74q0 -31 -33.5 -52t-95.5 -21q-59 0 -147 18t-123 18 l-233 -10l-146 17l-139 10q-14 2 -38 3t-37 2t-26.5 5t-19.5 14.5t-6 26.5z" />
<glyph unicode="&#xad;" horiz-adv-x="1906" d="M213 657l12 134q8 86 50 110.5t192 40.5q184 19 606 19q371 0 483.5 -14.5t145.5 -65.5q27 -45 27 -74q0 -76 -156 -98.5t-633 -34.5z" />
<glyph unicode="&#xae;" horiz-adv-x="1722" d="M66 893q0 100 36.5 182t97 136.5t141.5 92t165 54t172 16.5q424 1 762 -409q12 -14 46 -53.5t44 -53.5t32.5 -50t29.5 -64.5t14.5 -74.5t7.5 -104q0 -276 -246 -327q-53 -10 -186 -59.5t-209 -49.5q-121 0 -227.5 22.5t-169 46t-131 74t-90 69.5t-68.5 67 q-221 219 -221 485zM207 913q0 -129 75.5 -271t213.5 -239q4 -4 29.5 -21t29.5 -20.5t27.5 -16.5t34 -16t37 -13.5t48 -11.5t56.5 -7t72.5 -7t87 -3t108.5 -2q107 0 203 84q39 35 164 34q57 0 77.5 19.5t20.5 66.5q0 162 -161 388.5t-355 318.5q-68 31 -146 31 q-23 0 -54.5 -2t-45.5 -2q-59 0 -213 -45q-139 -41 -224 -118t-85 -147zM543 1018q0 31 52 91t77 60q33 0 169 -17t167 -26q88 -29 88 -118q0 -51 -22.5 -94.5t-54.5 -76t-36 -38.5q-4 -25 -166 -119q119 -41 165 -70.5t65 -36.5q27 -10 58.5 -47t31.5 -59q0 -51 -43 -51 q-25 0 -62 19.5t-98.5 53t-120.5 56.5l-41 16l2 -78q2 -26 2 -65q0 -86 -53 -86q-37 0 -51.5 35.5t-16.5 115.5q0 63 -9 95t-20.5 35t-23.5 11.5t-16 28.5q-2 6 -2 19q0 8 1 15t6 13.5t7 10.5t10 9t11.5 7t12.5 7t11 5l-6 99q0 72 -12 131q-12 -4 -27 -4q-23 2 -36 14 t-16 21.5t-3 17.5zM748 1038l4 -24q8 -47 20 -223q68 33 123 75q23 18 49.5 64.5t34.5 73.5q-96 35 -188 34h-43z" />
<glyph unicode="&#xaf;" horiz-adv-x="1202" d="M72 1638h32q113 0 241 17.5t153 17.5q37 0 118.5 -5t114.5 -5q12 0 106.5 13.5t149.5 13.5q135 0 135 -72q-6 -74 -118 -74q-23 0 -59 4t-44 4q-463 -18 -567 -26q-12 0 -56.5 -8.5t-70.5 -8.5q-111 0 -129 97z" />
<glyph unicode="&#xb0;" horiz-adv-x="530" d="M31 1397q0 106 69.5 169.5t157.5 63.5q98 0 169 -76.5t71 -156.5q0 -96 -101.5 -167t-175.5 -71q-86 0 -138 74t-52 164zM221 1409q0 -47 39 -47q43 0 43 22q0 10 -24.5 33t-49.5 29l-2 2q-6 -18 -6 -39z" />
<glyph unicode="&#xb1;" horiz-adv-x="1464" d="M156 674q0 63 38.5 84.5t192.5 52.5l184 37v117q0 156 19 192q33 61 106 62q41 0 64.5 -29t29 -61.5t11.5 -100.5q2 -18 2 -27l16 -163l125 14q63 8 126 16.5t91.5 12.5t38.5 4q43 -2 67.5 -35t24.5 -74q0 -35 -15 -55.5t-54 -30.5t-81 -15t-123 -15.5t-153 -24.5 l-51 -10l-22 -400h-187l-10 400l-109 -19q-127 -23 -217 -22q-61 0 -87.5 19.5t-26.5 70.5zM197 37q10 70 24 80q12 10 37 10q4 0 28.5 -1t45.5 -1q8 0 138 9t407 9q268 0 311 17q68 -94 67 -123q0 -6 2.5 -19.5t2.5 -21.5q0 -43 -61.5 -52.5t-342.5 -15.5q-86 -2 -137 -4 h-479z" />
<glyph unicode="&#xb2;" horiz-adv-x="1101" d="M86 1327q0 49 14.5 73.5t37 35t24.5 12.5q2 14 7 24.5t17.5 22.5t23.5 20.5t36.5 27t46.5 32.5q109 80 252 80q72 0 118 -18.5t64 -51.5t24.5 -59.5t6.5 -61.5q0 -121 -45 -237q-29 -68 -96.5 -179.5t-122.5 -183.5q248 45 385 45q74 0 106.5 -15t32.5 -56 q0 -39 -27.5 -49.5t-124 -14.5t-184.5 -22q-57 -12 -131 -21.5t-113 -15.5t-49 -15q-25 -16 -53 -16q-33 0 -58.5 21.5t-25.5 48.5q0 39 54 103.5t93 96.5q55 49 141.5 231.5t86.5 270.5q0 35 -18.5 47.5t-73.5 12.5q-76 0 -150 -39t-120 -87.5t-87 -87t-59 -38.5 q-2 4 -11.5 9t-15.5 16t-6 38z" />
<glyph unicode="&#xb3;" horiz-adv-x="835" d="M80 1546q0 20 20 33q41 25 272.5 70t291.5 51q39 -8 56 -37t17 -49q-4 -25 -33.5 -64t-81 -94.5t-63.5 -69.5q61 -2 127 -70.5t66 -162.5q0 -195 -133.5 -308.5t-274.5 -113.5q-90 0 -128 51.5t-38 120.5q0 88 55 88q33 0 64 -34.5t31 -82.5q0 -10 41 -10q49 0 107.5 32 t94.5 81q31 43 31 133q0 84 -17.5 109.5t-56.5 25.5q-63 0 -114.5 -32.5t-77.5 -32.5q-35 0 -54.5 22.5t-19.5 50.5q0 51 41 56q39 10 184 207q-45 -6 -124.5 -19.5t-139 -24t-65.5 -10.5q-45 0 -45 47q-33 6 -33 37z" />
<glyph unicode="&#xb4;" horiz-adv-x="860" d="M203 1165q0 39 124 164t175 125q6 0 15 -2t24.5 -18.5t15.5 -42.5q0 -51 -112.5 -163t-145.5 -132q-6 -4 -18 -4q-27 0 -52.5 23.5t-25.5 49.5z" />
<glyph unicode="&#xb5;" horiz-adv-x="1486" d="M129 717q0 225 17.5 319t66.5 94q35 0 63.5 -31.5t28.5 -99.5q0 -23 -4 -70.5t-4 -105.5q0 -178 20.5 -449.5t59.5 -310.5q8 -8 20 -8q37 0 125 78q113 98 221.5 316.5t151.5 435.5q33 166 58.5 217t74.5 51q33 0 56.5 -20.5t23.5 -65.5l-59 -543q2 -162 29.5 -323.5 t51.5 -161.5q29 12 89 82q43 74 100 74q31 0 51.5 -28t20.5 -81q0 -29 -20.5 -75t-37.5 -60q-14 -14 -28.5 -35.5t-23.5 -32t-35.5 -18.5t-74.5 -8q-16 0 -36.5 -1t-26.5 -1q-23 0 -32 6t-25 33q-47 10 -80 95t-55.5 193.5t-36.5 136.5q-23 -27 -58 -86 q-88 -141 -202.5 -241.5t-204.5 -100.5q-55 0 -88 11q2 -154 9 -204t7 -56q0 -90 -28 -178.5t-87 -88.5q-55 0 -73.5 19.5t-18.5 56.5q0 6 7.5 126t7.5 251q0 41 -2.5 136t-2.5 157q0 133 9 196q-25 193 -25 400z" />
<glyph unicode="&#xb6;" horiz-adv-x="1067" d="M96 1137q0 18 9.5 45.5t19.5 48t24.5 45t14.5 27.5q35 70 103.5 117.5t125.5 62.5q25 4 64 4q31 0 85 -1t58 -1q35 0 138.5 5t160.5 5q2 0 17.5 -13.5t15.5 -15.5q10 -106 10 -1200v-229q0 -180 -9 -237.5t-46 -78.5q-16 -8 -25 -8q-39 0 -47 37q-8 41 -14 394.5 t-10.5 753.5t-6.5 466q-2 0 -6 -1t-6 -1v-170q0 -102 -1 -434t-1 -504q0 -70 -4 -134.5t-11 -109.5t-14.5 -76.5t-13.5 -55t-6 -25.5q-2 -12 -6 -30t-23.5 -46.5t-44.5 -28.5q-53 0 -53 72q0 164 20.5 546t20.5 402q-51 0 -106.5 33t-67.5 33q-10 0 -61.5 -20.5t-82.5 -20.5 q-55 2 -131.5 69.5t-85.5 204.5q-4 31 -4 70z" />
<glyph unicode="&#xb7;" horiz-adv-x="995" d="M205 707q4 90 112.5 202.5t155.5 112.5q12 0 15.5 3t5.5 13.5t8 20.5q23 29 65 28q29 0 51.5 -15t24.5 -40q10 -10 33 -10q66 0 108.5 -59.5t42.5 -139.5q0 -123 -113.5 -244.5t-258.5 -121.5q-66 0 -118 28.5t-79 70.5t-40 81t-13 70zM494 725q30 0 67 37 q-59 -8 -67 -37z" />
<glyph unicode="&#xb8;" horiz-adv-x="679" d="M174 -182q0 76 37 76q18 0 26.5 -2.5t16.5 -9.5t14 -11l41 -23l15 -4q-2 14 -2 37q-2 0 -14.5 4t-19.5 7.5t-14.5 15.5t-7.5 31l23 133h22q20 0 43 2t27 2q39 0 39 -31q0 -8 -5 -19.5t-5 -19.5q0 -10 34.5 -52t34.5 -93q0 -31 -7 -60.5t-14 -43t-9 -15.5 q-23 -16 -65 -29.5t-54 -13.5q-51 0 -103.5 44t-52.5 75z" />
<glyph unicode="&#xb9;" horiz-adv-x="544" d="M86 1241q0 16 6 30.5t14.5 25t28 33t33.5 40.5l49 64q6 6 36 57t58.5 84t55.5 33q55 0 65 -115q25 -190 25 -684q0 -86 -9.5 -121t-46.5 -35q-51 0 -67.5 90.5t-16.5 257.5v154q0 106 -6 193q-8 -10 -26.5 -37t-33.5 -46.5t-33.5 -41t-38 -32.5t-36.5 -11q-25 0 -41 18.5 t-16 42.5z" />
<glyph unicode="&#xba;" horiz-adv-x="1138" d="M23 629h32q113 0 241 17.5t153 17.5q37 0 118.5 -5.5t114.5 -5.5h219q72 0 100.5 -22.5t28.5 -50.5q0 -74 -119 -74q-23 0 -58.5 4t-43.5 4q-2 0 -14.5 -1t-33 -1h-44.5q-55 0 -167 4t-163 4q-96 0 -144 -10t-85 -10q-111 0 -129 96zM104 1233q0 197 158 346 q125 119 212 156t218 37q141 0 217 -67t76 -239q0 -166 -74.5 -341t-187.5 -242.5t-231 -67.5q-174 0 -275 119q-70 82 -91.5 140.5t-21.5 158.5zM270 1221q0 -117 72 -191t186.5 -74t214 168t99.5 383q0 45 -27 66q-51 41 -104 41q-8 0 -22.5 -2t-45.5 -6t-65 -9 q-51 -8 -79 -22t-69 -53q-88 -84 -124 -153t-36 -148z" />
<glyph unicode="&#xbb;" horiz-adv-x="974" d="M123 403q0 25 16.5 47.5t69.5 67.5t65 57l134 125q49 49 61 74q-16 33 -98 125t-127 125q-109 72 -109 121q8 31 30.5 52.5t45.5 21.5q10 0 18.5 -5.5t15.5 -13.5t29.5 -28.5t55.5 -43.5q100 -72 197.5 -188.5t97.5 -175.5q0 -47 -125 -160l-193 -174q-90 -84 -133 -84 q-20 0 -35.5 19.5t-15.5 37.5zM344 1159q0 23 12.5 43.5t40.5 20.5q39 0 133 -84l191 -174q127 -117 127 -158q0 -61 -99.5 -180t-193.5 -187q-39 -27 -62.5 -48t-28.5 -28.5t-11.5 -10.5t-18.5 -3q-31 6 -54.5 28.5t-23.5 47.5q0 47 111 121q49 35 128 125t95 123 q-8 23 -61 71l-133 127q-29 27 -64 58.5l-50 45t-26.5 31t-11.5 31.5z" />
<glyph unicode="&#xbc;" horiz-adv-x="1736" d="M86 1241q0 16 6 30.5t14.5 25t28 33t33.5 40.5l49 64q6 6 36 57t58.5 84t55.5 33q47 0 65 -115q25 -203 25 -705q0 -72 -10.5 -103.5t-43.5 -31.5q-51 0 -68.5 90.5t-17.5 343.5v87q0 115 -6 176q-6 -8 -33.5 -47t-44 -59.5t-43 -42t-47.5 -21.5q-25 0 -41 18.5t-16 42.5 zM238 -274q0 47 28.5 112.5t106.5 213t133 265.5l532 1129q33 68 56.5 170t50 143t90.5 41q43 0 77 -28.5t34 -75.5q0 -29 -17.5 -69t-53.5 -116.5t-65 -164.5q-43 -119 -244.5 -517.5t-209.5 -433.5q-8 -45 -107 -235l-176 -353q-45 -90 -75.5 -124.5t-73.5 -34.5 q-86 0 -86 78zM887 139q0 41 63 137q106 158 214 300.5t141 166.5q10 8 20 9l18 22q18 20 43 20.5t45.5 -19t20.5 -48.5q0 -41 -39 -82q-20 -23 -25.5 -45t-5.5 -100q0 -152 11 -187q29 2 77 22.5t70 20.5q35 0 62.5 -24.5t27.5 -55t-20.5 -45t-80 -26.5t-83.5 -21l-51 -16 l6 -109q4 -68 13 -114.5t16.5 -68t7.5 -30.5q0 -20 -24.5 -45.5t-51.5 -25.5q-43 0 -66.5 70.5t-34 172t-12.5 111.5q-2 0 -108.5 -25.5t-161.5 -25.5q-92 0 -92 61zM1081 227q127 27 150.5 35t23.5 33q0 10 -10 123l-4 39l-24 -29q-58 -66 -136 -201z" />
<glyph unicode="&#xbd;" horiz-adv-x="2068" d="M86 1241q0 16 6 30.5t14.5 25t28 33t33.5 40.5l49 64q6 6 36 57t58.5 84t55.5 33q47 0 65 -115q25 -203 25 -705q0 -72 -10.5 -103.5t-43.5 -31.5q-51 0 -68.5 90.5t-17.5 343.5v87q0 115 -6 176q-6 -8 -33.5 -47t-44 -59.5t-43 -42t-47.5 -21.5q-25 0 -41 18.5t-16 42.5 zM238 -274q0 47 28.5 112.5t106.5 213t133 265.5l532 1129q33 68 56.5 170t50 143t90.5 41q43 0 77 -28.5t34 -75.5q0 -29 -17.5 -69t-53.5 -116.5t-65 -164.5q-43 -119 -244.5 -517.5t-209.5 -433.5q-8 -45 -107 -235l-176 -353q-45 -90 -75.5 -124.5t-73.5 -34.5 q-86 0 -86 78zM940 420q0 49 14.5 73.5t37 35t24.5 12.5q2 12 6 22t16.5 21.5t22.5 19.5t37.5 28.5t48.5 35.5q109 80 252 80q72 0 118 -18.5t64 -51.5t24.5 -59.5t6.5 -61.5q0 -121 -45 -238q-25 -61 -94.5 -176.5t-122.5 -181.5q229 41 383 41q76 0 107.5 -15.5 t31.5 -56.5q0 -39 -27.5 -49t-124 -14t-184.5 -23q-72 -14 -142.5 -23t-102 -14.5t-50.5 -15.5q-27 -14 -53 -14q-35 0 -58.5 21.5t-23.5 47.5q8 72 147 201q49 41 138.5 226.5t89.5 275.5q0 37 -18.5 48t-73.5 11q-76 0 -151 -39t-120 -87t-86 -87t-59 -39q-2 4 -11.5 9.5 t-15.5 16.5t-6 38z" />
<glyph unicode="&#xbe;" horiz-adv-x="1794" d="M80 1546q0 20 20 33q41 25 272.5 70t291.5 51q39 -8 56 -37t17 -49q-4 -25 -33.5 -64t-81 -94t-63.5 -70q68 -4 130.5 -72.5t62.5 -160.5q0 -195 -133.5 -308.5t-274.5 -113.5q-90 0 -128 51.5t-38 120.5q0 88 55 88q43 0 70 -45t27 -80q2 0 6 -1t12 -1h21q49 0 107.5 32 t94.5 81q31 43 31 133q0 84 -17.5 109.5t-56.5 25.5q-63 0 -114.5 -32.5t-77.5 -32.5q-35 0 -54.5 22.5t-19.5 50.5q0 51 41 56q41 12 184 204q-45 -6 -124.5 -18t-139 -22.5t-65.5 -10.5q-45 0 -45 45q-33 8 -33 39zM238 -274q0 47 28.5 112.5t106.5 213t133 265.5 l532 1129q33 68 56.5 170t50 143t90.5 41q43 0 77 -28.5t34 -75.5q0 -29 -17.5 -69t-53.5 -116.5t-65 -164.5q-43 -119 -244.5 -517.5t-209.5 -433.5q-8 -45 -107 -235l-176 -353q-45 -90 -75.5 -124.5t-73.5 -34.5q-86 0 -86 78zM887 139q0 41 63 137q106 158 214 300.5 t141 166.5q10 8 20 9l18 22q18 20 43 20.5t45.5 -19t20.5 -48.5q0 -41 -39 -82q-20 -23 -25.5 -45t-5.5 -100q0 -152 11 -187q29 2 77 22.5t70 20.5q35 0 62.5 -24.5t27.5 -55t-20.5 -45t-80 -26.5t-83.5 -21l-51 -16l6 -109q4 -68 13 -114.5t16.5 -68t7.5 -30.5 q0 -20 -24.5 -45.5t-51.5 -25.5q-43 0 -66.5 70.5t-34 172t-12.5 111.5q-2 0 -108.5 -25.5t-161.5 -25.5q-92 0 -92 61zM1081 227q127 27 150.5 35t23.5 33q0 10 -10 123l-4 39l-24 -29q-58 -66 -136 -201z" />
<glyph unicode="&#xbf;" horiz-adv-x="1294" d="M266 342q0 94 50.5 195.5t160.5 246.5l66 86l-2 146q0 8 -1 26.5t-1 28.5q0 168 67 168q55 0 70.5 -62.5t15.5 -189.5q0 -129 -22.5 -193.5t-102.5 -138.5q-72 -66 -112.5 -160t-40.5 -176q0 -88 57 -160.5t121 -72.5q61 0 151.5 73.5t90.5 123.5q0 27 -43 107.5 t-66 86.5q-47 0 -86 -92q74 0 74 -57q0 -33 -36 -60.5t-75 -27.5q-41 0 -68.5 42t-27.5 101q0 82 50 146.5t138 64.5q92 0 186.5 -100.5t94.5 -214.5q0 -121 -130 -233t-249 -112q-131 0 -230.5 130.5t-99.5 277.5zM487 1573q2 16 17.5 53t54.5 81t84 44q43 0 65.5 -40 t22.5 -97q0 -63 -24.5 -111.5t-57.5 -48.5q-45 0 -99 46t-63 73z" />
<glyph unicode="&#xc0;" horiz-adv-x="1671" d="M139 -12q0 39 43 101.5t43 82.5q0 74 45 98q8 4 25.5 48t42 101.5t49.5 84.5q29 27 65.5 99.5t145.5 326.5q68 158 188.5 379t157.5 254q49 16 60 16q33 0 67 -20q35 -41 124 -245t89 -261q2 -41 39 -183.5t51 -226.5q10 -78 63.5 -262t53.5 -231q0 -23 -10.5 -33.5 t-44.5 -10.5q-27 0 -76 23q-27 14 -42 28.5t-27.5 46.5t-18.5 59.5t-22.5 99t-32.5 135.5l-39 133l-88 -10q-129 -16 -279 -27l-147 -10l-60 -88q-199 -326 -250 -449q-53 -110 -127 -110q-27 0 -57.5 12t-30.5 39zM754 768l135 8q180 14 180 25q0 2 -2 2q16 6 16 28 q0 39 -35.5 196t-62.5 222q-43 -61 -113.5 -202.5t-107.5 -255.5zM817 1993q0 27 27.5 43t58.5 16q12 0 17 -2q53 -29 184 -128t131 -142q-16 -47 -68 -72q-14 -20 -30 -20q-55 0 -187.5 132t-132.5 173z" />
<glyph unicode="&#xc1;" horiz-adv-x="1671" d="M139 -12q0 39 43 101.5t43 82.5q0 74 45 98q8 4 25.5 48t42 101.5t49.5 84.5q29 27 65.5 99.5t145.5 326.5q68 158 188.5 379t157.5 254q49 16 60 16q33 0 67 -20q35 -41 124 -245t89 -261q2 -41 39 -183.5t51 -226.5q10 -78 63.5 -262t53.5 -231q0 -23 -10.5 -33.5 t-44.5 -10.5q-27 0 -76 23q-27 14 -42 28.5t-27.5 46.5t-18.5 59.5t-22.5 99t-32.5 135.5l-39 133l-88 -10q-129 -16 -279 -27l-147 -10l-60 -88q-199 -326 -250 -449q-53 -110 -127 -110q-27 0 -57.5 12t-30.5 39zM754 768l135 8q180 14 180 25q0 2 -2 2q16 6 16 28 q0 39 -35.5 196t-62.5 222q-43 -61 -113.5 -202.5t-107.5 -255.5zM879 1866q0 23 64.5 87t155.5 122.5t148 58.5q27 0 41.5 -13.5t14.5 -27.5q0 -37 -85 -119t-139.5 -124t-95.5 -70q-10 -10 -22 -11q-27 0 -54.5 34t-27.5 63z" />
<glyph unicode="&#xc2;" horiz-adv-x="1671" d="M139 14q0 39 43 98.5t43 80.5q0 57 45 71q8 4 25.5 48t42 101.5t49.5 84.5q31 29 69 103.5t142 322.5q74 170 197 394t155 243q25 18 58 18q35 0 63 -31q35 -41 124 -243.5t89 -260.5q2 -39 39 -177t51 -220q10 -84 63.5 -255t53.5 -224q0 -68 -55 -68q-27 0 -76 27 q-27 14 -42 28.5t-27.5 47.5t-18.5 60.5t-22.5 100t-32.5 136.5l-39 135l-88 -10q-96 -12 -279 -25l-147 -12l-60 -96q-211 -342 -250 -433q-51 -122 -125 -122q-31 0 -60.5 18t-29.5 59zM637 1677q0 18 19.5 63.5t37.5 63.5q27 33 86.5 124t107.5 146.5t83 55.5 q47 0 230 -167t183 -226q0 -35 -15 -56.5t-38 -21.5q-55 0 -133 62.5t-142.5 128t-82.5 69.5q-18 -2 -60.5 -72.5t-96.5 -141.5t-105 -71q-74 0 -74 43zM754 768l135 8q180 14 180 25q0 2 -2 2q16 6 16 28q0 92 -102 431q-47 -72 -114.5 -214.5t-102.5 -256.5z" />
<glyph unicode="&#xc3;" horiz-adv-x="1671" d="M139 14q0 39 43 98.5t43 80.5q0 57 45 71q8 4 25.5 48t42 101.5t49.5 84.5q29 27 63.5 97.5t147.5 328.5q74 170 197 394t155 243q25 18 58 18q35 0 63 -31q35 -41 124 -243.5t89 -260.5q2 -39 39 -177t51 -220q10 -84 63.5 -255t53.5 -224q0 -68 -55 -68q-27 0 -76 27 q-27 14 -42 28.5t-27.5 47.5t-18.5 60.5t-23.5 100t-34.5 136.5l-38 135l-86 -10q-94 -12 -281 -25l-145 -12l-62 -96q-205 -330 -248 -433q-51 -122 -125 -122q-31 0 -60.5 18t-29.5 59zM545 1790q0 57 106.5 139t192.5 82q61 0 127.5 -28.5t127 -67.5t72.5 -45l78 -15 l47 39q37 29 61.5 70t41 62.5t45.5 21.5q59 -6 59 -55q0 -61 -84 -158.5t-159 -97.5q-86 0 -233.5 75.5t-186.5 75.5q-27 0 -62 -27.5t-55 -31.5q-8 -6 -28.5 -30.5t-45 -43t-49.5 -18.5q-55 4 -55 53zM752 768l137 8q180 14 180 25l-2 2q16 6 16 28q0 92 -102 431 q-45 -68 -113.5 -211.5t-103.5 -259.5z" />
<glyph unicode="&#xc4;" horiz-adv-x="1671" d="M139 14q0 39 43 98.5t43 80.5q0 57 45 71q8 4 25.5 48t42 101.5t49.5 84.5q29 27 63.5 97.5t147.5 328.5q74 170 197 394t155 243q25 18 58 18q35 0 63 -31q35 -41 124 -243.5t89 -260.5q2 -39 39 -177t51 -220q10 -84 63.5 -255t53.5 -224q0 -68 -55 -68q-27 0 -76 27 q-27 14 -42 28.5t-27.5 47.5t-18.5 60.5t-22.5 100t-32.5 136.5l-39 135l-88 -10q-96 -12 -279 -25l-147 -12l-60 -96q-203 -324 -250 -433q-51 -122 -125 -122q-31 0 -60.5 18t-29.5 59zM723 1919q0 53 27.5 87t72.5 34q16 0 37 -6t41.5 -17.5t35.5 -20.5t31.5 -20.5 t18.5 -13.5q-57 -188 -158 -188q-43 0 -74.5 40.5t-31.5 104.5zM754 768l135 8q180 14 180 25q0 2 -2 2q16 6 16 28q0 92 -102 431q-45 -68 -113.5 -211.5t-103.5 -259.5zM1055 1911q0 45 24.5 81t71.5 36q103 0 205 -74q-12 -41 -23.5 -68.5t-33 -58.5t-57.5 -46.5 t-87 -15.5q-43 0 -71.5 45t-28.5 101z" />
<glyph unicode="&#xc5;" horiz-adv-x="1671" d="M139 14q0 39 43 98.5t43 80.5q0 57 45 71q8 4 25.5 48t42 101.5t49.5 84.5q29 27 63.5 97.5t147.5 328.5q74 170 197 394t155 243q25 18 58 18q35 0 63 -31q35 -41 124 -243.5t89 -260.5q2 -39 39 -177t51 -220q10 -84 63.5 -255t53.5 -224q0 -68 -55 -68q-27 0 -76 27 q-27 14 -42 28.5t-27.5 47.5t-18.5 60.5t-22.5 100t-32.5 136.5l-39 135l-88 -10q-96 -12 -279 -25l-147 -12l-60 -96q-203 -324 -250 -433q-51 -122 -125 -122q-31 0 -60.5 18t-29.5 59zM754 768l135 8q180 14 180 25q0 2 -2 2q16 6 16 28q0 92 -102 431 q-45 -68 -113.5 -211.5t-103.5 -259.5zM809 1874q0 59 23.5 121.5t52.5 89.5q47 45 147 45q98 0 186.5 -45t88.5 -113q0 -31 -12.5 -74t-40 -95t-89 -88t-145.5 -36q-90 0 -150.5 63.5t-60.5 131.5zM989 1878q0 -43 39 -43q12 0 19.5 13.5t11.5 29.5t19.5 31.5t39.5 19.5 q10 2 10 15q0 16 -17 35.5t-36 19.5q-31 -2 -58.5 -43t-27.5 -78z" />
<glyph unicode="&#xc6;" horiz-adv-x="1656" d="M152 115q0 35 29.5 97t29.5 83q0 49 31 67q8 10 32.5 102.5t49.5 129.5q6 10 13 29.5t16 50.5t41 106.5t81 175.5q59 121 204.5 330t180.5 227q16 10 37 11q27 -6 35 -15q45 10 85 36t99.5 44.5t171.5 18.5q86 0 123 -27t37 -57q0 -35 -46 -70t-104 -47q-59 -14 -112 -15 t-74.5 -4.5t-36.5 -23.5q-39 -55 -39 -135q0 -178 35 -365q6 2 55.5 21.5t82 31t78.5 23.5t77 12t50.5 -20.5t19.5 -52.5q0 -47 -53.5 -79t-209.5 -85q-55 -18 -80.5 -34.5t-30.5 -27t-5 -30.5q0 -33 3 -102.5t3 -121.5l4 -149l61 16q90 2 165 36t120 67.5t68 33.5 q25 0 46 -30.5t21 -65.5q0 -33 -24.5 -61.5t-77.5 -56t-101.5 -47t-135.5 -52.5t-138 -53q-39 -14 -68 -14q-33 0 -54 7t-35.5 26.5t-21.5 40t-11.5 61.5t-4.5 74.5t-2 96t-4 111.5l-6 138l-51 2q-100 4 -193 16l-63 2l-10 -63q-33 -72 -73 -159t-63.5 -138.5t-35.5 -90.5 q-20 -59 -66.5 -82.5t-85.5 -23.5q-27 0 -48 19.5t-21 54.5zM612 766l88 -10q86 -11 113 -11q29 0 35 13.5t6 68.5q0 254 -10 371q-102 -162 -219 -405z" />
<glyph unicode="&#xc7;" horiz-adv-x="1595" d="M248 621q0 422 41 561q55 190 275 333.5t423 143.5q115 0 204 -68.5t89 -152.5q0 -53 -57 -54q-37 0 -69 21.5t-44 44.5l-12 20q-8 10 -31 11q-104 0 -260 -66.5t-240 -148.5q-68 -68 -103.5 -215.5t-35.5 -438.5q0 -135 39 -221q37 -80 108.5 -132t147.5 -52 q49 0 148.5 42t136.5 79l112 100q55 49 111.5 125t91.5 118t68 42q51 -13 51 -68q0 -61 -118 -207.5t-266.5 -271.5t-219.5 -125q0 -29 36.5 -66.5t36.5 -89.5q0 -31 -8 -60.5t-15 -42.5t-9 -15q-23 -14 -70 -28.5t-59 -14.5q-61 2 -112.5 46t-51.5 72q0 76 43 76 q25 0 55.5 -20.5t60.5 -30.5q-2 10 -4 39q-2 0 -11 2t-15 5t-14.5 8t-12.5 16.5t-4 27.5l4 58q-266 18 -418 317q-23 45 -22 281z" />
<glyph unicode="&#xc8;" horiz-adv-x="1292" d="M135 1225q0 121 33 175t74 54q16 0 70.5 26.5t123 58.5t190.5 58.5t259 26.5q215 0 215 -82q0 -55 -221 -88q-178 -27 -325.5 -74t-195.5 -88q-27 -25 -26 -65q37 -373 51 -436q96 35 280.5 71.5t260.5 36.5q43 0 62.5 -22.5t19.5 -49.5q0 -33 -25 -53 q-47 -45 -301 -101.5t-279 -70.5q-12 -8 -12 -27q0 -23 1 -54.5t2 -88.5t1 -102l6 -146h86q96 0 246 37t248 86q70 39 96 39q35 0 62.5 -32.5t27.5 -63.5q0 -70 -135 -135.5t-303 -101.5t-287 -36q-160 0 -194 60q-23 39 -35 174t-27.5 390t-33.5 439q-15 173 -15 185z M414 2111q0 27 27.5 53.5t56.5 26.5q14 0 20 -4q27 -14 127 -105t133 -132q20 -27 21 -58q0 -27 -18.5 -46t-41.5 -19q-57 0 -191 124t-134 160z" />
<glyph unicode="&#xc9;" horiz-adv-x="1292" d="M135 1225q0 121 33 175t74 54q16 0 70.5 26.5t123 58.5t190.5 58.5t259 26.5q215 0 215 -86q0 -55 -221 -90q-178 -27 -325.5 -73t-195.5 -87q-27 -25 -26 -65q37 -375 51 -437q94 35 280.5 73t260.5 38q43 0 62.5 -22.5t19.5 -49.5q0 -31 -25 -53q-47 -45 -301 -101.5 t-279 -70.5q-12 -8 -12 -27q0 -23 1 -54.5t2 -88.5t1 -102l6 -144h86q96 0 246 37t248 86q70 39 96 39q35 0 62.5 -32.5t27.5 -63.5q0 -70 -135 -135.5t-303 -101.5t-287 -36q-160 0 -194 60q-23 39 -35 174t-27.5 390t-33.5 439q-15 173 -15 185zM551 1812q0 39 134 165 t189 126l7 -2q8 0 16 -4t17.5 -10t14.5 -19.5t5 -31.5q0 -55 -135 -176t-164 -121q-31 4 -57.5 26.5t-26.5 46.5z" />
<glyph unicode="&#xca;" horiz-adv-x="1292" d="M135 1225q0 121 33 175t74 54q16 0 70.5 26.5t123 58.5t190.5 58.5t259 26.5q215 0 215 -82q0 -55 -221 -88q-178 -27 -325.5 -74t-195.5 -88q-27 -25 -26 -65q37 -373 51 -436q96 35 280.5 71.5t260.5 36.5q43 0 62.5 -22.5t19.5 -49.5q0 -33 -25 -53 q-47 -45 -301 -101.5t-279 -70.5q-12 -8 -12 -27q0 -23 1 -54.5t2 -88.5t1 -102l6 -146h86q96 0 246 37t248 86q70 39 96 39q35 0 62.5 -32.5t27.5 -63.5q0 -70 -135 -135.5t-303 -101.5t-287 -36q-160 0 -194 60q-23 39 -35 174t-27.5 390t-33.5 439q-15 173 -15 185z M295 1759q0 18 18.5 61.5t34.5 61.5q29 33 88.5 123t107.5 148.5t85 58.5q49 0 213 -166t164 -229q0 -39 -17 -57.5t-37 -18.5q-41 0 -110.5 61.5t-131 127t-81.5 69.5q-14 0 -99.5 -133t-134.5 -146q-18 -6 -39 -6q-61 0 -61 45z" />
<glyph unicode="&#xcb;" horiz-adv-x="1292" d="M135 1225q0 121 33 175t74 54q16 0 70.5 26.5t123 58.5t190.5 58.5t259 26.5q215 0 215 -82q0 -55 -221 -88q-178 -27 -325.5 -74t-195.5 -88q-27 -25 -26 -65q37 -373 51 -436q96 35 280.5 71.5t260.5 36.5q43 0 62.5 -22.5t19.5 -49.5q0 -33 -25 -53 q-47 -45 -301 -101.5t-279 -70.5q-12 -8 -12 -27q0 -23 1 -54.5t2 -88.5t1 -102l6 -146h86q96 0 246 37t248 86q70 39 96 39q35 0 62.5 -32.5t27.5 -63.5q0 -70 -135 -135.5t-303 -101.5t-287 -36q-160 0 -194 60q-23 39 -35 174t-27.5 390t-33.5 439q-15 173 -15 185z M330 1935q0 51 24.5 87t73.5 36q33 0 62.5 -14t105.5 -62q-31 -98 -75 -143t-89 -45q-49 0 -75.5 43t-26.5 98zM664 1925q0 51 25.5 87t74.5 36q51 0 166 -76q-27 -96 -71 -142t-91 -46q-49 0 -76.5 44t-27.5 97z" />
<glyph unicode="&#xcc;" horiz-adv-x="1361" d="M219 1393q0 27 26.5 48t78 39.5t104.5 33t130 35t128 36.5q29 12 197 12q172 0 207 -26q39 -33 38 -80q0 -49 -43 -70.5t-149 -34.5l-39 -4l4 -321q10 -647 41 -766q33 18 68 18q43 0 74.5 -24.5t31.5 -63.5q0 -59 -87 -104t-306 -109q-135 -49 -231 -49q-12 0 -43 5 t-76 16.5t-77 38t-32 63.5q0 47 24.5 63.5t82.5 16.5q55 0 204 43l107 39l-18 350q-18 369 -19 586v178l-37 -6q-145 -29 -237 -29q-152 0 -152 66zM498 1982q0 25 36.5 50.5t73.5 25.5q18 0 27 -4q33 -16 151.5 -109.5t143.5 -129.5q18 -27 18 -56q0 -27 -16.5 -45 t-36.5 -18q-59 0 -157.5 64.5t-169 133t-70.5 88.5z" />
<glyph unicode="&#xcd;" horiz-adv-x="1361" d="M219 1386q0 27 26.5 49.5t79 41t104.5 34t129 36t128 38.5q29 12 197 12q172 0 207 -26q39 -33 38 -80q0 -49 -43 -70.5t-149 -34.5l-39 -4l4 -321q10 -647 41 -766q33 18 68 18q43 0 74.5 -24.5t31.5 -63.5q0 -59 -87 -104t-306 -109q-135 -49 -231 -49q-12 0 -43 5 t-76 16.5t-77 38t-32 63.5q0 47 24.5 63.5t82.5 16.5q55 0 204 43l107 37l-18 350q-18 369 -19 580v178l-37 -8q-145 -29 -237 -29q-152 0 -152 69zM618 1841q2 35 156 162t205 127q23 -6 33 -14q27 -27 22 -54q-4 -55 -153.5 -176t-175.5 -121q-16 0 -46 19.5t-38 46.5 q-1 14 -3 10z" />
<glyph unicode="&#xce;" horiz-adv-x="1361" d="M219 1393q0 27 26.5 48t78 39.5t104.5 33t130 35t128 36.5q29 12 197 12q172 0 207 -26q39 -33 38 -80q0 -49 -43 -70.5t-149 -34.5l-39 -4l4 -321q10 -707 47 -782l-16 4h-8q47 31 86 30q43 0 74.5 -24.5t31.5 -63.5q0 -59 -87 -104t-306 -109q-135 -49 -231 -49 q-12 0 -43 5t-76 16.5t-77 38t-32 63.5q0 47 24.5 63.5t82.5 16.5q55 0 204 43l107 39l-18 350q-18 369 -19 586v178l-37 -6q-145 -29 -237 -29q-152 0 -152 66zM328 1749q0 18 17 62t32 63q8 8 85 112.5t132 160t92 55.5q27 0 126 -79t190.5 -176.5t91.5 -138.5 q0 -35 -15.5 -56t-38.5 -21q-39 0 -115.5 62t-147 128t-89.5 70q-12 0 -63.5 -72t-119 -142.5t-116.5 -70.5q-61 0 -61 43z" />
<glyph unicode="&#xcf;" horiz-adv-x="1361" d="M219 1393q0 27 26.5 48t78 39.5t104.5 33t130 35t128 36.5q29 12 197 12q172 0 207 -26q39 -33 38 -80q0 -49 -44 -69.5t-148 -35.5l-39 -4l4 -321q10 -647 41 -766q33 18 68 18q43 0 74.5 -24.5t31.5 -63.5q0 -59 -87 -104t-306 -109q-135 -49 -231 -49q-12 0 -43 5 t-76 16.5t-77 38t-32 63.5q0 47 24.5 63.5t82.5 16.5q55 0 204 43l107 39l-18 350q-18 369 -19 586v178l-37 -6q-145 -29 -237 -29q-152 0 -152 66zM399 1905q0 55 29 86.5t78 31.5q81 1 192 -73q-16 -59 -41.5 -101.5t-53.5 -59.5t-47 -23.5t-40 -6.5q-66 0 -91.5 46 t-25.5 100zM760 1894q0 119 147 119q43 0 152 -76q-51 -188 -148 -188q-61 2 -106 37t-45 108z" />
<glyph unicode="&#xd0;" horiz-adv-x="1857" d="M119 1356q4 49 37.5 91t64.5 42q16 6 28.5 23.5t26 32t65.5 31.5t140 26q215 20 295 20q94 0 230 -23q387 -63 543.5 -184t156.5 -366q0 -213 -78 -403.5t-200.5 -319.5t-261 -213t-271.5 -113q-45 -12 -67.5 -33.5t-24.5 -42t-16.5 -42t-45.5 -32.5q-20 -6 -43 -6 q-37 0 -62.5 13.5t-27.5 36.5l-30 12q-33 14 -53.5 39.5t-20.5 68.5q0 70 55 92q23 12 23 146q0 49 -4.5 102.5t-9.5 93t-18 129t-22 158.5q-135 -6 -180 -15t-80 -9q-43 0 -84 42t-53 101l-6 33h33q76 0 143.5 6t124.5 14t82 11q-2 12 -7 59t-7 76l-31 315l-47 -4 q-63 -8 -120.5 -60.5t-82.5 -52.5q-37 6 -65.5 41t-28.5 64zM666 1343q0 -55 57 -432h72q37 0 124.5 14.5t155.5 14.5q74 0 104.5 -23.5t30.5 -54.5t-29.5 -72.5t-88.5 -41.5q-25 0 -62 4t-47 4l-244 -11q43 -281 43 -403q0 -45 -4 -86l-12 -74h84q182 0 424 250 q137 141 184 282.5t47 348.5q0 82 -12 110.5t-59 75.5q-49 47 -107.5 69.5t-196.5 45.5q-246 39 -389 39q-53 0 -64 -9.5t-11 -50.5z" />
<glyph unicode="&#xd1;" horiz-adv-x="1804" d="M168 397q0 201 13.5 655.5t29.5 491.5q29 66 108 66q41 0 84 -27q37 -25 171.5 -199t134.5 -202q4 -12 47 -72.5t134 -202t189 -319.5q203 -367 269 -391q31 47 61 505q37 561 59 666q25 123 88 141q18 6 43 7q92 0 93 -146q0 -47 -10.5 -146.5t-32 -305t-39.5 -439.5 q-8 -117 -14.5 -177t-16.5 -131t-20.5 -102.5t-29 -62.5t-42 -40t-57.5 -9q-154 0 -272 107.5t-238 334.5q-57 106 -102.5 183t-62 100t-27.5 48.5t-21 64.5q-10 37 -55.5 108.5t-122 178t-89.5 124.5q-39 -190 -39 -559q0 -98 8.5 -172t8.5 -96q0 -123 -33 -219.5 t-82 -96.5q-86 0 -110.5 61.5t-24.5 272.5zM657 1800q6 51 106.5 135t184.5 84q59 0 126 -29.5t126.5 -67.5t75.5 -44l31 -14l43 39q39 31 64.5 70.5t42 59t44.5 19.5q61 0 62 -55q0 -61 -85 -158.5t-167 -97.5q-57 0 -189.5 75.5t-177.5 75.5q-29 0 -62.5 -25.5 t-52.5 -29.5q-6 -4 -26.5 -29.5t-44.5 -46t-49 -20.5q-6 0 -14.5 2t-23 17.5t-14.5 39.5z" />
<glyph unicode="&#xd2;" d="M125 655q0 193 88 385.5t229 286.5q111 74 197 90q16 4 75.5 57.5t106.5 53.5q29 0 56.5 27.5t91.5 27.5q174 0 277.5 -158.5t103.5 -425.5q0 -170 -43 -351t-105.5 -314t-134.5 -219t-125 -86q-6 0 -12 -16.5t-23 -18.5q-31 -20 -119 -33.5t-170 -13.5q-63 0 -104 14 t-98 59q-119 90 -205 278.5t-86 356.5zM336 627q0 -68 49 -197q109 -291 295 -291q47 0 111 23q68 25 174 171t120 240q12 92 55.5 257t43.5 204q0 51 -54.5 154.5t-80.5 130.5q-20 12 -68 12q-92 0 -240 -45q-311 -94 -385 -498q-20 -127 -20 -161zM768 1976 q0 25 26.5 50.5t55.5 25.5q37 0 166 -126t129 -171q0 -25 -17.5 -45t-42.5 -20q-55 0 -186 124.5t-131 161.5z" />
<glyph unicode="&#xd3;" d="M125 655q0 193 88 385.5t229 286.5q111 74 197 90q16 4 75.5 57.5t106.5 53.5q29 0 56.5 27.5t91.5 27.5q174 0 277.5 -158.5t103.5 -425.5q0 -170 -43 -351t-105.5 -314t-134.5 -219t-125 -86q-6 0 -12 -16.5t-23 -18.5q-31 -20 -119 -33.5t-170 -13.5q-61 0 -101 15 t-101 58q-119 90 -205 278.5t-86 356.5zM336 627q0 -68 49 -197q109 -291 295 -291q47 0 111 23q68 25 174 171t120 240q12 92 55.5 257t43.5 204q0 51 -54.5 154.5t-80.5 130.5q-20 12 -68 12q-92 0 -240 -45q-311 -94 -385 -498q-20 -127 -20 -161zM686 1696 q0 39 132.5 165t185.5 126q6 0 15 -3.5t25.5 -19.5t16.5 -41q0 -37 -73 -113.5t-123 -118.5t-79 -63q-8 -6 -18 -6q-27 0 -54.5 24.5t-27.5 49.5z" />
<glyph unicode="&#xd4;" d="M125 655q0 193 88 385.5t229 286.5q111 74 197 90q16 4 75.5 57.5t106.5 53.5q29 0 56.5 27.5t91.5 27.5q174 0 277.5 -158.5t103.5 -425.5q0 -170 -43 -351t-105.5 -314t-134.5 -219t-125 -86q-6 0 -12 -16.5t-23 -18.5q-31 -20 -119 -33.5t-170 -13.5q-61 0 -101 15 t-101 58q-119 90 -205 278.5t-86 356.5zM336 627q0 -68 49 -197q109 -291 295 -291q47 0 111 23q68 25 174 171t120 240q12 92 55.5 257t43.5 204q0 51 -54.5 154.5t-80.5 130.5q-20 12 -68 12q-92 0 -240 -45q-311 -94 -385 -498q-20 -127 -20 -161zM567 1681 q0 18 18.5 62.5t35.5 62.5q29 33 85 122t104 147.5t83 58.5q47 0 209 -166t162 -227q0 -35 -15.5 -56.5t-38.5 -21.5q-41 0 -108.5 62.5t-128 128t-78.5 69.5q-16 0 -100 -135t-133 -148q-10 -2 -31 -2q-63 0 -64 43z" />
<glyph unicode="&#xd5;" d="M125 655q0 193 88 385.5t229 286.5q111 74 197 90q16 4 75.5 57.5t106.5 53.5q29 0 56.5 27.5t91.5 27.5q174 0 277.5 -158.5t103.5 -425.5q0 -170 -43 -351t-105.5 -314t-134.5 -219t-125 -86q-6 0 -12 -16.5t-23 -18.5q-31 -20 -119 -33.5t-170 -13.5q-61 0 -101 15 t-101 58q-119 90 -205 278.5t-86 356.5zM336 627q0 -68 49 -197q109 -291 295 -291q47 0 111 23q68 25 174 171t120 240q12 92 55.5 257t43.5 204q0 51 -54.5 154.5t-80.5 130.5q-20 12 -68 12q-92 0 -240 -45q-311 -94 -385 -498q-20 -127 -20 -161zM428 1827 q0 55 104.5 139t190.5 84q61 0 125.5 -28.5t123 -66.5t79.5 -46l32 -15l43 39q39 31 63.5 71t41 60.5t45.5 20.5q61 0 61 -55q0 -61 -85 -158.5t-167 -97.5q-57 0 -190 75.5t-176 75.5q-29 0 -62.5 -27.5t-54.5 -29.5q-6 -4 -26.5 -30t-45 -45t-49.5 -19q-6 0 -15 3 t-23.5 16.5t-14.5 33.5z" />
<glyph unicode="&#xd6;" d="M125 655q0 193 88 385.5t229 286.5q111 74 197 90q16 4 75.5 57.5t106.5 53.5q29 0 56.5 27.5t91.5 27.5q174 0 277.5 -158.5t103.5 -425.5q0 -170 -43 -351t-105.5 -314t-134.5 -219t-125 -86q-6 0 -12 -16.5t-23 -18.5q-31 -20 -119 -33.5t-170 -13.5q-61 0 -101 15 t-101 58q-119 90 -205 278.5t-86 356.5zM336 627q0 -68 49 -197q109 -291 295 -291q47 0 111 23q68 25 174 171t120 240q12 92 55.5 257t43.5 204q0 51 -54.5 154.5t-80.5 130.5q-20 12 -68 12q-92 0 -240 -45q-311 -94 -385 -498q-20 -127 -20 -161zM629 1884q0 53 27.5 86 t72.5 33q16 0 35.5 -6t40 -16.5t34 -18.5t31 -19.5t21.5 -13.5q-27 -96 -70 -143t-88 -47q-43 0 -73.5 41t-30.5 104zM954 1874q0 53 28 86t73 33q53 0 159 -76q-27 -96 -67.5 -142t-85.5 -46q-43 0 -75 40.5t-32 104.5z" />
<glyph unicode="&#xd7;" d="M223 950q0 23 19.5 44.5t48 21.5t64.5 -25.5t86.5 -67.5t88.5 -65l136 -117q49 45 98 115q80 111 166 174.5t143 63.5q80 0 80 -68q0 -57 -135 -252q-6 -10 -20.5 -25.5t-28 -40t-39.5 -79.5l-68 -94l82 -78q43 -43 80 -75t53.5 -41t28.5 -20.5t14 -22.5t2 -40 q0 -39 -24.5 -63.5t-49 -30.5t-49.5 -6q-41 0 -79.5 20.5t-122.5 100.5l-66 61l-53 -70q-57 -72 -70 -106q-4 -4 -9 -13.5t-23.5 -30t-39 -36.5t-50 -29.5t-58.5 -13.5q-45 0 -64.5 24.5t-19.5 47.5q0 59 90 213.5t90 181.5q0 39 -47 99.5t-103.5 115.5t-103.5 119.5 t-47 107.5z" />
<glyph unicode="&#xd8;" d="M125 635q0 188 88 374.5t229 278.5q115 74 197 90q16 4 75.5 55.5t106.5 51.5q29 0 56.5 26.5t91.5 26.5q47 0 80 -8q33 70 58.5 168t51 132t88.5 34q43 0 77 -29t34 -76q0 -31 -14.5 -64.5t-51.5 -110.5t-69 -171q127 -160 127 -450q0 -221 -73 -449.5t-168 -365 t-167 -136.5q-6 0 -12 -8t-23 -10q-31 -20 -119 -33.5t-170 -13.5q-84 0 -145 37l-33 -60q-49 -90 -82.5 -125t-74.5 -35q-86 0 -86 78q0 59 116 273q-82 106 -135 249.5t-53 270.5zM336 600q0 -111 92 -291l498 991q-86 -10 -185 -40q-311 -94 -385 -498q-20 -127 -20 -162 zM569 168q53 -29 111 -29q47 0 111 23q66 25 173 171t121 240q12 92 55.5 257t43.5 204q0 59 -72 189q-72 -137 -171 -321.5t-145 -273.5t-53 -116q-12 -52 -114 -236z" />
<glyph unicode="&#xd9;" horiz-adv-x="1492" d="M195 1384q0 92 13 131t60 62q20 8 31 8q47 0 63.5 -65.5t26.5 -190.5v-10q27 -330 81 -686.5t87 -407.5l4 -6q4 -6 7 -11t11.5 -11.5t17.5 -11.5t24.5 -8t33.5 -3q72 0 181 66q125 74 196.5 185.5t122.5 305.5q45 166 45 297q0 104 -28.5 213t-57.5 185.5t-29 107.5 q0 43 36 62.5t63 19.5q53 0 89 -62.5t58.5 -143.5t34.5 -95q27 -35 27 -211q0 -188 -31 -351t-80 -275.5t-113.5 -203t-130 -144.5t-133 -90t-118 -49.5t-87.5 -13.5q-70 0 -162 34t-145 83q-98 94 -148 554t-50 736zM551 1956q0 27 26.5 53.5t55.5 26.5q14 0 20 -4 q27 -14 125.5 -105.5t128.5 -132.5q20 -27 21 -55q0 -27 -17.5 -47.5t-40.5 -20.5q-57 0 -188 124t-131 161z" />
<glyph unicode="&#xda;" horiz-adv-x="1492" d="M195 1384q0 92 13 131t60 62q20 8 31 8q47 0 63.5 -65.5t26.5 -190.5v-10q27 -330 81 -686.5t87 -407.5l4 -6q4 -6 7 -11t11.5 -11.5t17.5 -11.5t24.5 -8t33.5 -3q72 0 181 66q125 74 196.5 185.5t122.5 305.5q45 166 45 297q0 104 -28.5 213t-57.5 185.5t-29 107.5 q0 43 36 62.5t63 19.5q53 0 89 -62.5t58.5 -143.5t34.5 -95q27 -35 27 -211q0 -188 -31 -351t-80 -275.5t-113.5 -203t-130 -144.5t-133 -90t-118 -49.5t-87.5 -13.5q-70 0 -162 34t-145 83q-98 94 -148 554t-50 736zM647 1741q0 39 133.5 165t186.5 126q25 -6 34 -15 q25 -23 25 -53q0 -53 -111.5 -154.5t-164.5 -136.5q-8 -6 -19 -6q-27 0 -55.5 24.5t-28.5 49.5z" />
<glyph unicode="&#xdb;" horiz-adv-x="1492" d="M195 1384q0 92 13 131t60 62q20 8 31 8q47 0 63.5 -65.5t26.5 -190.5v-10q27 -330 81 -686.5t87 -407.5l4 -6q4 -6 7 -11t11.5 -11.5t17.5 -11.5t24.5 -8t33.5 -3q72 0 181 66q125 74 196.5 185.5t122.5 305.5q45 166 45 297q0 104 -28.5 213t-57.5 185.5t-29 107.5 q0 43 36 62.5t63 19.5q53 0 89 -62.5t58.5 -143.5t34.5 -95q27 -35 27 -211q0 -188 -31 -351t-80 -275.5t-113.5 -203t-130 -144.5t-133 -90t-118 -49.5t-87.5 -13.5q-70 0 -162 34t-145 83q-98 94 -148 554t-50 736zM371 1716q0 18 18.5 62.5t34.5 62.5q29 33 85 122 t104.5 147.5t82.5 58.5q47 0 212 -165t165 -228q0 -41 -17.5 -59.5t-37.5 -18.5q-41 0 -109.5 62.5t-130 128t-80.5 69.5q-14 0 -99 -136t-134 -147q-10 -2 -31 -2q-63 0 -63 43z" />
<glyph unicode="&#xdc;" horiz-adv-x="1492" d="M195 1384q0 92 13 131t60 62q20 8 31 8q47 0 63.5 -65.5t26.5 -190.5v-10q27 -330 81 -686.5t87 -407.5l4 -6q4 -6 7 -11t11.5 -11.5t17.5 -11.5t24.5 -8t33.5 -3q72 0 181 66q125 74 196.5 185.5t122.5 305.5q45 166 45 297q0 104 -28.5 213t-57.5 185.5t-29 107.5 q0 43 36 62.5t63 19.5q53 0 89 -62.5t58.5 -143.5t34.5 -95q27 -35 27 -211q0 -188 -31 -351t-80 -275.5t-113.5 -203t-130 -144.5t-133 -90t-118 -49.5t-87.5 -13.5q-70 0 -162 34t-145 83q-98 94 -148 554t-50 736zM457 1901q0 53 27.5 85.5t72.5 32.5q16 0 35.5 -6 t40 -16t34 -18.5t31 -19.5t21.5 -13q-27 -96 -70 -143.5t-88 -47.5q-43 0 -73.5 41t-30.5 105zM784 1890q0 53 28 86t73 33q42 0 159 -76q-27 -96 -68.5 -142t-86.5 -46q-43 0 -74 41t-31 104z" />
<glyph unicode="&#xdd;" horiz-adv-x="1601" d="M145 1473q0 25 19.5 41t50.5 16q41 0 117 -62.5t366 -334.5q100 -86 172 -142.5t95 -68.5l22 -15q18 0 37.5 17.5t45.5 59.5t51.5 87t71.5 126t87 149q27 43 32 129t11 102q16 29 53 29q35 0 78 -23.5t53 -40.5q8 -14 9 -35q0 -135 -131.5 -394t-221.5 -359 q-31 -35 -44 -50.5t-33.5 -54.5t-33 -67.5t-55.5 -130t-88 -201.5l-176 -397q-37 -66 -104 -66q-41 0 -74 24.5t-33 55.5q0 117 244 586l119 229l-344 332q-119 115 -172.5 168t-116 120.5t-85 104.5t-22.5 66zM780 1808q0 33 132.5 151t185.5 118q59 0 59 -43 q0 -57 -115.5 -170t-158.5 -142q-8 -8 -21 -8q-27 0 -54.5 30t-27.5 64z" />
<glyph unicode="&#xde;" horiz-adv-x="1536" d="M176 1397q0 39 65.5 70.5t186.5 67.5t162 52q29 12 147 12q197 0 232 -26q43 -33 43 -78q0 -41 -37 -64.5t-74 -30.5t-104 -14l-43 -4l4 -188q37 0 118.5 2t106.5 2q55 0 111.5 -28.5t97.5 -72.5t67.5 -80t43.5 -65q41 -78 40 -135q0 -117 -30.5 -189.5t-59 -92 t-94.5 -48.5q-14 -6 -20 -10q-94 -41 -170 -41q-16 0 -51 -3t-62 -3q-35 0 -90 6q20 -113 43 -176q41 18 78 19q55 0 87 -28t32 -63q0 -47 -51.5 -66.5t-192.5 -41.5q-55 -8 -88 -14.5t-95.5 -26t-86.5 -19.5q-18 0 -62.5 7.5t-101 38t-56.5 77.5t25 63.5t82 16.5 q66 0 178 47l27 -4l-17 336q-18 369 -18 586v176l-25 -6q-102 -29 -200 -29q-147 0 -148 68zM748 915q0 -127 16 -323q147 -20 170 -21q76 0 100.5 8.5t71.5 47.5q16 14 48 26.5t43 32t11 68.5q0 113 -108 250q-45 57 -70.5 73.5t-81.5 16.5q-53 0 -82.5 -2t-40 -4.5 t-28 -7.5t-39.5 -7q-10 -76 -10 -158z" />
<glyph unicode="&#xdf;" horiz-adv-x="1054" d="M117 1245q0 80 16 146q14 57 21.5 82.5t27 66.5t44 59.5t68.5 33t103 14.5q217 0 356.5 -124t139.5 -266q0 -325 -154 -423q84 -47 168 -211q29 -57 38 -85t9 -73q0 -35 -6 -90q-8 -160 -28.5 -207t-114.5 -92q-96 -45 -195 -45q-10 0 -25.5 -1t-19.5 -1q-37 0 -133 39 q-80 31 -80 94q0 10 3 30.5t3 26.5q0 2 16.5 16.5t18.5 14.5q20 -4 38 -16.5t34 -26.5t22 -19h105q51 0 74.5 12.5t99.5 73.5q10 8 10 50v71q0 127 -131 287q-6 8 -17.5 22.5t-14.5 18.5t-10 13t-11 11.5t-10.5 8.5t-11.5 6t-12 3t-16.5 3h-18.5h-23h-33l8 139h49 q14 0 19.5 2t9.5 5.5t18.5 16.5t32.5 30q35 29 47.5 40t29.5 56t17 110q0 125 -125 279q-33 10 -57 21.5t-33.5 15.5t-26 7t-48.5 3q-18 -4 -43 -8q-37 -6 -48 -17q-4 -4 -6 -8q-8 -10 -11 -21.5t-5 -30.5t-8 -38l69 -1450q0 -76 -67 -76q-59 0 -74.5 70t-40.5 397 q-25 328 -45 570q-10 84 -10 223q0 35 -1 81t-1 60z" />
<glyph unicode="&#xe0;" horiz-adv-x="1245" d="M190 258q0 90 52.5 156.5t185.5 134.5q150 76 291 76q55 -2 91 -16.5t55.5 -32t21.5 -19.5q31 -4 57 -27q0 178 -21.5 279.5t-48 129.5t-65.5 28t-117 -14.5t-123 -32.5l-59 -25q-6 -4 -52 -23.5t-107.5 -41t-90.5 -21.5q-49 0 -49 49q0 35 14.5 60.5t52 46t71.5 34 t106.5 39t122.5 43.5q113 43 217 43q80 0 140 -36.5t90 -91t44 -94.5t16 -66q8 -63 11.5 -367.5t13.5 -335.5q4 -8 4 -20q-2 -43 -31.5 -83t-58.5 -40q-23 0 -45 26q-37 39 -57 199q-68 -80 -196 -148.5t-216 -68.5q-53 0 -133 16.5t-121 46.5q-31 23 -48.5 83.5 t-17.5 113.5zM352 244q0 -43 10 -58q47 -37 117 -36q57 0 154 37t115 57q8 25 71.5 79t65.5 68q0 4 -4 10.5t-17.5 18.5t-36 21.5t-64.5 16.5t-97 7q-160 0 -237 -77t-77 -144zM459 1438q0 25 26.5 50t55.5 25q31 0 141.5 -103t138.5 -140q21 -27 21 -58q0 -25 -16.5 -42 t-41.5 -17q-70 0 -188.5 118t-132.5 150q-4 12 -4 17z" />
<glyph unicode="&#xe1;" horiz-adv-x="1245" d="M190 258q0 90 52.5 156.5t185.5 134.5q150 76 291 76q55 -2 91 -16.5t55.5 -32t21.5 -19.5q31 -4 57 -27q0 135 -11 226.5t-31.5 134.5t-42 59.5t-50.5 16.5q-39 0 -117 -14.5t-123 -32.5l-59 -25q-6 -4 -52 -23.5t-107.5 -41t-90.5 -21.5q-49 0 -49 49q0 35 14.5 60.5 t52 46t71.5 34t106.5 39t122.5 43.5q123 43 217 43q80 0 140 -36.5t90 -91t44 -94.5t16 -66q8 -63 11.5 -367.5t13.5 -335.5q4 -8 4 -20q-2 -43 -31.5 -83t-58.5 -40q-23 0 -45 26q-12 14 -21.5 32t-15.5 44.5t-9 39.5t-7 47t-4 38q-68 -82 -196 -150.5t-216 -68.5 q-53 0 -133 16.5t-121 46.5q-31 23 -48.5 83.5t-17.5 113.5zM352 244q0 -43 10 -58q47 -37 117 -36q57 0 150 34.5t116 57.5q6 25 72 80t68 69q0 4 -4 10.5t-17.5 18.5t-36 21.5t-64.5 16.5t-97 7q-160 0 -237 -77t-77 -144zM543 1264q0 39 135 162.5t188 123.5q6 0 16.5 -2 t28 -18.5t17.5 -40.5q0 -29 -23 -59q-27 -37 -138 -139.5t-138 -102.5q-25 0 -55.5 23.5t-30.5 52.5z" />
<glyph unicode="&#xe2;" horiz-adv-x="1245" d="M190 258q0 90 52.5 156.5t185.5 134.5q150 76 291 76q55 -2 91 -16.5t55.5 -32t21.5 -19.5q31 -4 57 -27q0 135 -11 226.5t-31.5 134.5t-42 59.5t-50.5 16.5q-39 0 -117 -14.5t-123 -32.5l-59 -25q-6 -4 -52 -23.5t-107.5 -41t-90.5 -21.5q-49 0 -49 49q0 35 14.5 60.5 t52 46t71.5 34t106.5 39t122.5 43.5q123 43 217 43q80 0 140 -36.5t90 -91t44 -94.5t16 -66q8 -63 11.5 -367.5t13.5 -335.5q4 -8 4 -20q-2 -43 -31.5 -83t-58.5 -40q-23 0 -45 26q-12 14 -21.5 32t-15.5 44.5t-9 39.5t-7 47t-4 38q-68 -82 -196 -150.5t-216 -68.5 q-53 0 -133 16.5t-121 46.5q-31 23 -48.5 83.5t-17.5 113.5zM352 244q0 -43 10 -58q47 -37 117 -36q57 0 150 34.5t116 57.5q6 25 72 80t68 69q0 4 -4 10.5t-17.5 18.5t-36 21.5t-64.5 16.5t-97 7q-160 0 -237 -77t-77 -144zM358 1303q0 18 18.5 62t35.5 62q29 33 87 121 t107 146.5t86 58.5q49 0 212 -165t163 -226q0 -35 -15 -57.5t-38 -22.5q-41 0 -109.5 62.5t-130 129t-82.5 70.5q-16 0 -101 -135t-136 -147q-20 -4 -31 -5q-66 0 -66 46z" />
<glyph unicode="&#xe3;" horiz-adv-x="1245" d="M190 258q0 90 52.5 156.5t185.5 134.5q150 76 291 76q55 -2 91 -16.5t55.5 -32t21.5 -19.5q31 -4 57 -27q0 178 -21.5 279.5t-48 129.5t-65.5 28t-117 -14.5t-123 -32.5l-59 -25q-6 -4 -52 -23.5t-107.5 -41t-90.5 -21.5q-49 0 -49 49q0 35 14.5 60.5t52 46t71.5 34 t106.5 39t122.5 43.5q123 43 217 43q80 0 140 -36.5t90 -91t44 -94.5t16 -66q8 -63 11.5 -367.5t13.5 -335.5q4 -8 4 -20q-2 -43 -31.5 -83t-58.5 -40q-23 0 -45 26q-37 39 -57 199q-68 -80 -196 -148.5t-216 -68.5q-53 0 -133 16.5t-121 46.5q-31 23 -48.5 83.5 t-17.5 113.5zM242 1407q0 53 105.5 136t191.5 83q61 0 128.5 -27.5t130 -67.5t79.5 -46l30 -15l45 39q35 31 58.5 71t39 61.5t42.5 21.5q68 0 67 -55q0 -61 -84 -158.5t-166 -97.5q-59 0 -194 75.5t-180 75.5q-31 -2 -66 -29.5t-57 -29.5q-8 -6 -29 -30.5t-44.5 -43 t-47.5 -18.5q-49 0 -49 55zM352 244q0 -43 10 -58q47 -37 117 -36q57 0 154 37t115 57q8 25 71.5 79t65.5 68q0 4 -4 10.5t-17.5 18.5t-36 21.5t-64.5 16.5t-97 7q-160 0 -237 -77t-77 -144z" />
<glyph unicode="&#xe4;" horiz-adv-x="1245" d="M193 262q0 90 51 155.5t184 131.5q150 76 281 76q57 0 95 -14.5t59.5 -34t23.5 -19.5q33 -6 57 -27v2q0 135 -11 225.5t-31.5 133.5t-41 59.5t-49.5 16.5q-98 0 -212 -39t-205 -79t-132 -40q-51 0 -51 47q0 29 12.5 52.5t29.5 40t55 33.5t70 28.5t93 33t107 37.5 q123 43 215 43q166 0 247 -155q37 -70 44.5 -127.5t11.5 -333.5q4 -261 18 -404q-4 -47 -35.5 -80.5t-52.5 -33.5q-12 0 -23.5 4t-20.5 15t-16.5 20.5t-12.5 28t-9 29.5t-8 33.5t-5 33t-5 33t-4 28.5q-66 -76 -194 -146.5t-218 -70.5q-57 0 -137 18.5t-117 44.5 q-63 47 -63 201zM352 244q0 -41 7.5 -52.5t37.5 -25.5q47 -18 76 -19q59 0 152 35t120 60q6 25 71 79t67 70q0 8 -12.5 22.5t-64.5 33t-136 18.5q-90 0 -157 -26.5t-99.5 -65.5t-47 -72t-14.5 -57zM469 1612q0 45 24.5 81t75.5 36q45 0 168 -72q-55 -191 -164 -191 q-53 0 -78.5 47.5t-25.5 98.5zM803 1595q0 51 26.5 88t73.5 37q43 0 158 -78q-56 -188 -150 -188q-51 0 -79.5 43t-28.5 98z" />
<glyph unicode="&#xe5;" horiz-adv-x="1245" d="M193 262q0 90 51 155.5t184 131.5q150 76 281 76q57 0 95 -14.5t59.5 -34t23.5 -19.5q37 -8 57 -25q0 135 -11 225.5t-31.5 133.5t-41 59.5t-49.5 16.5q-98 0 -212 -39t-205 -79t-132 -40q-51 0 -51 47q0 29 12.5 52.5t29.5 40t55 33.5t70 28.5t93 33t107 37.5 q123 43 215 43q166 0 247 -155q39 -70 45.5 -129.5t10.5 -331.5q4 -261 18 -404q-4 -47 -35.5 -80.5t-52.5 -33.5q-47 0 -68.5 58t-33.5 149q-2 12 -2 18q-66 -76 -194 -146.5t-218 -70.5q-57 0 -137 18.5t-117 44.5q-63 47 -63 201zM352 244q0 -41 7.5 -52.5t37.5 -25.5 q47 -18 76 -19q59 0 152 36t120 61q6 25 71 77t67 70q0 8 -12.5 22.5t-64.5 33t-136 18.5q-90 0 -157 -26.5t-99.5 -65.5t-47 -72t-14.5 -57zM504 1526q0 45 21.5 108.5t52.5 98.5q51 49 151 49q96 0 165 -45t69 -115q0 -31 -11.5 -75t-36 -96t-76.5 -87t-122 -35 q-94 0 -153.5 64.5t-59.5 132.5zM688 1528q0 -43 33 -43q14 0 22.5 14t12.5 31.5t19.5 33t43.5 17.5q10 0 10 14q0 16 -19 36t-36 20h-2q-33 -2 -58.5 -43t-25.5 -80z" />
<glyph unicode="&#xe6;" horiz-adv-x="1808" d="M131 264q0 90 52.5 154.5t195.5 130.5q172 78 233 78q45 -2 74 -16.5t45.5 -32t20.5 -19.5q23 -6 39 -18q0 428 -103 428q-78 0 -168 -40t-162.5 -79t-109.5 -39q-18 0 -32.5 11.5t-14.5 35.5q0 35 11 59.5t43 46t58.5 35t88 39t100.5 43.5q96 45 172 45q61 0 101 -11 t68.5 -43t40 -51.5t38.5 -72.5q141 213 278 213q29 0 74 -6q72 -8 103.5 -23.5t72.5 -56.5q47 -49 84 -125t37 -133q0 -70 -41 -108.5t-154 -71.5q-131 -39 -270 -51l-109 -8v-54q0 -133 97 -256q68 -86 133 -86q57 0 122.5 54.5t112.5 120t94.5 119.5t71.5 54q33 0 33 -43 q0 -63 -58.5 -171.5t-167 -204t-221.5 -95.5q-88 6 -146 51.5t-144 163.5q-49 -27 -64 -36q-39 -70 -180 -131.5t-236 -61.5q-47 0 -135 17.5t-125 46.5q-53 43 -53 198zM279 246q0 -43 5 -54.5t33 -25.5q35 -16 64 -16q53 0 142 39.5t95 60.5q6 18 62.5 72.5t56.5 70.5 q0 2 -3 7.5t-14 18.5t-29.5 22.5t-54.5 17.5t-83 8q-143 0 -208.5 -78t-65.5 -143zM1012 729q145 0 370 70q54 16 54 55q0 16 -60 86q-39 47 -56 59.5t-48 12.5q-61 0 -91 -14.5t-63 -63.5q-106 -164 -106 -205z" />
<glyph unicode="&#xe7;" horiz-adv-x="1271" d="M98 580q0 127 137.5 303t317.5 219q57 14 149 14q176 0 307.5 -106.5t131.5 -216.5q0 -37 -21.5 -70t-56.5 -33q-8 0 -18.5 2t-32 22.5t-25.5 57.5q-2 14 -23.5 49t-41.5 56q-25 27 -38.5 37t-74.5 23t-166 13q-78 0 -117 -23.5t-100 -101.5q-154 -190 -154 -340 q0 -78 20.5 -130t35 -66.5t57.5 -48.5q57 -49 88 -62.5t86 -13.5q176 0 395 233q124 131 187 131q49 0 49 -63q0 -53 -103.5 -178t-179.5 -174l-24 -13q-16 -8 -68 -43q-6 -4 -61.5 -21.5t-67.5 -17.5h-29q-4 -12 -4 -18q0 -10 37 -52t37 -93q0 -31 -8 -61t-15.5 -43 t-9.5 -15q-20 -16 -68 -29.5t-61 -13.5q-61 2 -113.5 46t-52.5 73q0 76 45 75q20 0 57.5 -22.5t59.5 -28.5q-2 16 -4 39q-2 0 -11 2t-15.5 5t-14.5 8.5t-12 16.5t-4 27v68q-2 18 -51.5 32.5t-114 38t-94.5 60.5q-14 16 -38 44t-32 39t-22.5 37t-20.5 51.5t-12 67.5t-11 101 q0 18 -3 54t-3 53z" />
<glyph unicode="&#xe8;" horiz-adv-x="1343" d="M84 571q0 102 30.5 180t106.5 162q186 211 379 211q63 0 97 -1t95.5 -12t102.5 -30.5t91 -60.5t91 -100q51 -70 51 -134q0 -76 -62 -113.5t-216 -68.5q-219 -43 -410 -51l-178 -8v-53q0 -133 144 -254q102 -88 221 -88q92 0 192.5 54t170 118.5t136 119t97.5 54.5 q16 0 27.5 -13.5t11.5 -31.5q0 -43 -52.5 -120t-136.5 -156t-211 -136t-254 -57q-211 0 -367.5 161.5t-156.5 427.5zM283 696q8 -2 41 -2q211 0 546 70q88 18 88 53q0 18 -72.5 75.5t-117.5 76.5q-23 8 -74 8q-100 0 -150 -16.5t-100 -65.5q-159 -156 -159 -201zM369 1489 q0 27 26.5 53.5t55.5 26.5q33 0 143.5 -104.5t132.5 -137.5q21 -26 21 -59q0 -59 -56 -60q-49 0 -130 67.5t-130 124t-59 73.5q-4 8 -4 16z" />
<glyph unicode="&#xe9;" horiz-adv-x="1376" d="M104 571q0 78 23 150q43 127 192.5 265t286.5 138q37 0 109 -6q115 -8 161 -20.5t101 -53.5q66 -47 119 -123.5t53 -136.5q0 -78 -63.5 -114.5t-215.5 -67.5q-199 -39 -409 -51l-178 -8v-54q0 -76 33.5 -133t109.5 -120q109 -90 221 -91q90 0 190.5 54.5t171 120t137 120 t97.5 54.5q37 0 37 -43q0 -47 -59.5 -134.5t-118.5 -140.5q-229 -197 -473 -196q-201 0 -363 157.5t-162 433.5zM303 694q8 -2 37 -2q199 0 551 70q88 16 88 55q0 16 -90 84q-66 49 -93.5 61.5t-78.5 12.5q-102 0 -150.5 -15.5t-101.5 -66.5q-160 -156 -160 -201zM496 1268 q0 45 112 147l19 19q8 8 31.5 30.5t40 37t36 30.5t35 25.5t23.5 9.5q20 0 52 -22.5t32 -53.5q0 -39 -133.5 -163t-186.5 -124q-6 0 -16.5 2t-27.5 18.5t-17 43.5z" />
<glyph unicode="&#xea;" horiz-adv-x="1370" d="M104 571q0 78 23 150q43 127 192.5 265t286.5 138q37 0 109 -6q115 -8 161 -20.5t101 -53.5q66 -47 119 -123.5t53 -136.5q0 -78 -63.5 -114.5t-215.5 -67.5q-199 -39 -409 -51l-178 -8v-54q0 -76 33.5 -133t109.5 -120q109 -90 221 -91q90 0 190.5 54.5t171 120t137 120 t97.5 54.5q37 0 37 -43q0 -47 -59.5 -134.5t-118.5 -140.5q-229 -197 -473 -196q-201 0 -363 157.5t-162 433.5zM303 694q8 -2 37 -2q199 0 551 70q88 16 88 55q0 16 -90 84q-66 49 -93.5 61.5t-78.5 12.5q-102 0 -150.5 -15.5t-101.5 -66.5q-160 -156 -160 -201zM373 1323 q0 18 18.5 62.5t34.5 62.5q29 33 86 122t105.5 147.5t84.5 58.5q47 0 210 -165t163 -229q0 -35 -15 -56t-38 -21q-41 0 -109.5 62.5t-129 128t-81.5 69.5q-16 0 -100 -135.5t-135 -147.5q-10 -2 -31 -2q-63 0 -63 43z" />
<glyph unicode="&#xeb;" horiz-adv-x="1370" d="M104 571q0 78 23 150q43 127 192.5 265t286.5 138q37 0 109 -6q115 -8 161 -20.5t101 -53.5q66 -47 119 -123.5t53 -136.5q0 -78 -63.5 -114.5t-215.5 -67.5q-199 -39 -409 -51l-178 -8v-54q0 -76 33.5 -133t109.5 -120q109 -90 221 -91q90 0 190.5 54.5t171 120t137 120 t97.5 54.5q37 0 37 -43q0 -47 -59.5 -134.5t-118.5 -140.5q-229 -197 -473 -196q-201 0 -363 157.5t-162 433.5zM303 694q8 -2 37 -2q199 0 551 70q88 16 88 55q0 16 -90 84q-66 49 -93.5 61.5t-78.5 12.5q-102 0 -150.5 -15.5t-101.5 -66.5q-160 -156 -160 -201zM416 1638 q0 53 27.5 86t72.5 33q16 0 36.5 -6t41 -16.5t34 -18.5t32 -19.5t20.5 -13.5q-27 -96 -71 -143t-89 -47q-43 0 -73.5 41t-30.5 104zM745 1628q0 53 28 86t73 33q51 0 162 -76q-27 -96 -69 -142t-87 -46q-43 0 -75 41t-32 104z" />
<glyph unicode="&#xec;" horiz-adv-x="620" d="M139 1724q0 18 24.5 37t55.5 19q12 0 17 -2q39 -23 148.5 -125.5t109.5 -145.5q-4 -47 -20.5 -69.5t-33.5 -22.5q-53 0 -177 133t-124 176zM201 1014q0 124 43 153q35 25 67.5 25t55.5 -27q33 -61 54 -356t21 -551q0 -184 -12 -209q-41 -33 -88 -33q-72 0 -88 43 q-10 33 -31.5 427.5t-21.5 527.5z" />
<glyph unicode="&#xed;" horiz-adv-x="620" d="M141 1511q0 47 122 162t151 115q27 0 54.5 -16.5t27.5 -32.5q0 -18 -4 -27q-20 -49 -133 -169t-162 -120q-27 10 -33 21q-23 25 -23 67zM201 1014q0 124 43 153q35 25 67.5 25t55.5 -27q33 -61 54 -356t21 -551q0 -184 -12 -209q-41 -33 -88 -33q-72 0 -88 43 q-10 33 -31.5 427.5t-21.5 527.5z" />
<glyph unicode="&#xee;" horiz-adv-x="806" d="M31 1329q0 18 17.5 62.5t31.5 62.5q27 33 80 121t98 147.5t78 59.5q55 0 231 -165t176 -228q0 -35 -15 -56.5t-38 -21.5q-39 0 -115.5 62.5t-147.5 128t-89 69.5q-14 0 -93 -135.5t-126 -147.5q-8 -2 -29 -2q-59 0 -59 43zM201 995q0 133 43 166q39 31 67 31q33 0 56 -41 q57 -76 92 -412t35 -514q0 -150 -35 -170q-66 -39 -117 -39q-70 0 -88 60q-10 31 -31.5 410.5t-21.5 508.5z" />
<glyph unicode="&#xef;" horiz-adv-x="620" d="M39 1616q0 53 25.5 86t68.5 33q16 0 34.5 -6.5t37 -16.5t32 -18t30 -19.5t18.5 -13.5q-27 -96 -67 -143.5t-81 -47.5t-69.5 41t-28.5 105zM201 995q0 133 43 166q39 31 67 31q33 0 56 -41q31 -55 53 -337t22 -529q0 -207 -18 -230q-33 -39 -82 -39q-70 0 -88 60 q-10 31 -31.5 410.5t-21.5 508.5zM346 1606q0 53 25.5 85.5t68.5 33t152 -75.5q-27 -96 -67 -142.5t-81 -46.5t-69.5 41t-28.5 105z" />
<glyph unicode="&#xf0;" horiz-adv-x="1439" d="M115 485q0 256 211 439q150 127 289 180t305 61q-14 8 -61.5 40t-90.5 61q-25 -6 -160 -58.5t-174 -52.5q-74 0 -104 82l-11 29l31 6q90 16 221 82q-35 10 -86 21t-67 18q-49 16 -88 59t-39 86q0 31 20.5 53.5t53.5 22.5q16 0 59 -7.5t155.5 -51.5t227.5 -115 q10 2 60.5 20.5t95.5 30.5t79 12q39 0 66 -18t27 -47q-4 -35 -28 -53.5t-47.5 -22.5t-61 -7t-52.5 -5q61 -43 106.5 -75t82 -62.5t60.5 -47t44.5 -43t29.5 -35t20 -36t13.5 -33.5t11.5 -42t13 -46q12 -45 12 -96v-52q0 -209 -108.5 -429t-265.5 -308q-152 -84 -322 -84 q-250 0 -381 148q-92 102 -119.5 174.5t-27.5 201.5zM322 471q0 -150 104 -245t270 -95q168 0 310.5 214t142.5 486q0 29 -5 45.5t-11.5 23.5t-22.5 20q-74 53 -156 53q-12 0 -33.5 -3t-63.5 -8.5t-91 -9.5q-68 -6 -110 -25.5t-107 -74.5q-123 -104 -175 -191.5t-52 -189.5z " />
<glyph unicode="&#xf1;" horiz-adv-x="1374" d="M258 1071q0 106 68 107q43 -2 56 -50.5t38 -253.5q10 -86 16 -137l29 -231l22 65q45 135 76 196.5t117 172.5q166 219 281 219q76 0 131 -84q66 -92 81 -184t21 -422q4 -209 4 -254q0 -135 -18.5 -183t-75.5 -48q-39 0 -51.5 21.5t-12.5 86.5q0 31 4.5 127t4.5 160 q0 174 -14.5 325.5t-33.5 190.5q-8 16 -20 31.5t-21.5 23.5t-13.5 8q-33 0 -134 -137t-171 -280q-72 -152 -95.5 -221.5t-37.5 -188.5q-23 -190 -37 -211q-10 -12 -22 -12q-31 4 -66 43q-18 20 -27.5 52t-15.5 98.5t-10 143.5t-16.5 223t-30.5 304q-25 246 -25 299z M285 1479q0 55 99 139t183 84q63 0 131 -28.5t130.5 -66.5t82.5 -46l33 -15l45 39q39 31 64.5 71t42 60.5t45.5 20.5q61 -4 61 -56q0 -61 -85 -158.5t-169 -97.5q-59 0 -199.5 76t-185.5 76q-31 -2 -63.5 -27.5t-50.5 -29.5q-4 -4 -23.5 -30t-43.5 -45.5t-48 -19.5 q-2 0 -5 1t-11.5 4.5t-15.5 8.5t-12 16.5t-5 23.5z" />
<glyph unicode="&#xf2;" horiz-adv-x="1439" d="M115 485q0 257 211 439q172 147 293.5 194t306.5 47q285 0 356 -159q41 -90 41 -224q0 -211 -101.5 -430t-256.5 -307q-152 -84 -322 -84q-250 0 -381 148q-92 102 -119.5 174.5t-27.5 201.5zM322 471q0 -150 104 -245t270 -95q168 0 310.5 214t142.5 486q0 29 -5 45.5 t-11.5 23.5t-22.5 20q-74 53 -156 53q-12 0 -33.5 -3t-63.5 -8.5t-91 -9.5q-70 -8 -111 -27.5t-106 -72.5q-123 -104 -175 -191.5t-52 -189.5zM649 1626q0 27 30 51.5t54 24.5q14 -4 19 -6q41 -23 157.5 -134.5t116.5 -158.5q-6 -64 -57 -64q-57 0 -188.5 125t-131.5 162z " />
<glyph unicode="&#xf3;" horiz-adv-x="1439" d="M115 485q0 257 211 439q172 147 293.5 194t306.5 47q285 0 356 -159q41 -90 41 -224q0 -211 -101.5 -430t-256.5 -307q-152 -84 -322 -84q-250 0 -381 148q-92 102 -119.5 174.5t-27.5 201.5zM322 471q0 -150 104 -245t270 -95q168 0 310.5 214t142.5 486q0 29 -5 45.5 t-11.5 23.5t-22.5 20q-74 53 -156 53q-12 0 -33.5 -3t-63.5 -8.5t-91 -9.5q-70 -8 -111 -27.5t-106 -72.5q-123 -104 -175 -191.5t-52 -189.5zM768 1468.5q0 26.5 23 59.5q27 35 133 137t137 102q27 0 55.5 -23.5t28.5 -49.5q0 -39 -131.5 -163t-184.5 -124q-6 0 -16 2 t-27.5 17.5t-17.5 42z" />
<glyph unicode="&#xf4;" horiz-adv-x="1439" d="M115 485q0 257 211 439q172 147 293.5 194t306.5 47q285 0 356 -159q41 -90 41 -224q0 -211 -101.5 -430t-256.5 -307q-152 -84 -322 -84q-250 0 -381 148q-92 102 -119.5 174.5t-27.5 201.5zM322 471q0 -150 104 -245t270 -95q168 0 310.5 214t142.5 486q0 29 -5 45.5 t-11.5 23.5t-22.5 20q-74 53 -156 53q-12 0 -33.5 -3t-63.5 -8.5t-91 -9.5q-70 -8 -111 -27.5t-106 -72.5q-123 -104 -175 -191.5t-52 -189.5zM506 1432q0 18 18.5 62t34.5 62q29 33 85 122t104.5 147.5t82.5 58.5q47 0 210 -165t163 -228q0 -35 -15 -56.5t-38 -21.5 q-43 0 -110.5 62.5t-128 128t-78.5 69.5q-14 0 -99.5 -135t-134.5 -147q-10 -2 -31 -2q-63 0 -63 43z" />
<glyph unicode="&#xf5;" horiz-adv-x="1439" d="M115 485q0 257 211 439q172 147 293.5 194t306.5 47q285 0 356 -159q41 -90 41 -224q0 -211 -101.5 -430t-256.5 -307q-152 -84 -322 -84q-250 0 -381 148q-92 102 -119.5 174.5t-27.5 201.5zM322 471q0 -150 104 -245t270 -95q168 0 310.5 214t142.5 486q0 29 -5 45.5 t-11.5 23.5t-22.5 20q-74 53 -156 53q-12 0 -33.5 -3t-63.5 -8.5t-91 -9.5q-70 -8 -111 -27.5t-106 -72.5q-123 -104 -175 -191.5t-52 -189.5zM377 1526q0 55 104.5 139t190.5 84q61 0 125.5 -28.5t124 -66.5t79.5 -46l31 -15l43 39q39 31 64.5 72t41 60.5t46.5 19.5 q61 -4 61 -55q0 -61 -85 -158.5t-167 -97.5q-57 0 -191 75.5t-177 75.5q-29 0 -63 -27.5t-54 -29.5q-6 -4 -26.5 -30t-45 -45t-49.5 -19q-6 0 -15 3t-23.5 16.5t-14.5 33.5z" />
<glyph unicode="&#xf6;" horiz-adv-x="1439" d="M115 485q0 257 211 439q172 147 293.5 194t306.5 47q285 0 356 -159q41 -90 41 -224q0 -211 -101.5 -430t-256.5 -307q-152 -84 -322 -84q-250 0 -381 148q-92 102 -119.5 174.5t-27.5 201.5zM322 471q0 -150 104 -245t270 -95q168 0 310.5 214t142.5 486q0 29 -5 45.5 t-11.5 23.5t-22.5 20q-74 53 -156 53q-12 0 -33.5 -3t-63.5 -8.5t-91 -9.5q-70 -8 -111 -27.5t-106 -72.5q-123 -104 -175 -191.5t-52 -189.5zM592 1511q0 53 27.5 86t72.5 33q20 0 47 -10t43.5 -19.5t42.5 -27.5l27 -17q-29 -96 -70 -143t-86 -47q-43 0 -73.5 41t-30.5 104 zM918 1501q0 53 27.5 86t72.5 33q54 0 160 -76q-27 -96 -68 -142t-86 -46q-43 0 -74.5 41t-31.5 104z" />
<glyph unicode="&#xf7;" horiz-adv-x="874" d="M102 649h33q113 0 144.5 3t56.5 3q29 0 64.5 10.5t68.5 10.5q31 0 63.5 18.5t92.5 18.5q68 0 98.5 -23.5t30.5 -50.5q-6 -74 -119 -74q-20 0 -49 -4t-43 -4q-39 -2 -162 -19.5t-143 -17.5q-106 0 -127 96zM287 207q0 55 33.5 119.5t80.5 64.5q41 0 86 -53t45 -131 q0 -86 -47 -86q-6 -4 -12 -28.5t-21.5 -43t-48 -18.5t-51 17.5t-41.5 70.5q-25 55 -24 88zM303 936q2 61 44 105t89 44q51 0 75 -47t24 -84q0 -20 -14.5 -53t-20.5 -57q-25 -92 -86 -92q-53 0 -82 67.5t-29 116.5z" />
<glyph unicode="&#xf8;" horiz-adv-x="1439" d="M115 481q0 254 211 441q174 147 294.5 195t305.5 48q53 0 75 -2l19 35l82 90q12 -2 31.5 -4t26.5 -2t19.5 -3t17.5 -7t15.5 -11.5t19.5 -17.5t21 -24q-25 -39 -53 -119q123 -86 123 -320q0 -211 -101.5 -429t-256.5 -306q-152 -84 -322 -84q-27 0 -72 4l-20 -35 q-49 -90 -84 -124.5t-76 -34.5q-90 0 -90 77q0 55 74 172q-68 35 -113 84q-92 102 -119.5 175t-27.5 202zM322 467q0 -199 151 -299q74 141 78 149l348 676q-39 -6 -93 -11t-74.5 -8t-53.5 -14.5t-61.5 -32t-67.5 -55.5q-123 -111 -175 -204t-52 -201zM670 104h26 q168 0 310.5 227.5t142.5 518.5q0 61 -35 88q-57 -111 -133 -241t-117 -202.5t-47 -99.5q-10 -45 -117 -235z" />
<glyph unicode="&#xf9;" horiz-adv-x="1347" d="M156 745q0 193 18.5 276t65.5 83q37 0 66.5 -31t29.5 -94q0 -23 -4 -68t-4 -100q0 -53 6 -191.5t27.5 -322.5t54.5 -209q10 -6 20 -6q41 0 135 74q123 94 239 301t161 413q35 158 62.5 207t74.5 49q37 0 58.5 -22.5t21.5 -59.5q0 -29 -30 -229.5t-30 -288.5 q0 -119 52.5 -302t52.5 -210q-6 -45 -39 -63q-20 -12 -45 -12q-53 0 -90 80.5t-63.5 189t-43.5 137.5q-37 -49 -61 -86q-94 -139 -218 -240.5t-220 -101.5q-147 0 -199.5 93t-83.5 395q-14 129 -14 339zM518 1462q0 27 27.5 52.5t54.5 25.5q10 0 18 -6q47 -29 163 -136.5 t116 -154.5q-8 -67 -57 -67q-59 0 -190.5 123.5t-131.5 162.5z" />
<glyph unicode="&#xfa;" horiz-adv-x="1347" d="M156 745q0 193 18.5 276t65.5 83q37 0 66.5 -31t29.5 -94q0 -23 -4 -68t-4 -100q0 -53 6 -191.5t27.5 -322.5t54.5 -209q10 -6 20 -6q41 0 135 74q123 94 239 301t161 413q35 158 62.5 207t74.5 49q37 0 58.5 -22.5t21.5 -59.5q0 -29 -30 -229.5t-30 -288.5 q0 -119 52.5 -302t52.5 -210q-6 -45 -39 -63q-20 -12 -45 -12q-53 0 -89 80.5t-62.5 189t-45.5 137.5q-6 -6 -15 -19.5t-22.5 -33t-23.5 -33.5q-94 -139 -218 -240.5t-220 -101.5q-147 0 -198.5 92t-84.5 396q-14 129 -14 339zM588 1278q0 39 132 164t185 125q59 0 60 -68 q0 -55 -117 -161.5t-160 -129.5q-12 -6 -20 -6q-29 4 -54.5 27.5t-25.5 48.5z" />
<glyph unicode="&#xfb;" horiz-adv-x="1347" d="M156 745q0 193 18.5 276t65.5 83q35 0 65.5 -31t30.5 -94q0 -23 -4 -68t-4 -100q0 -53 6 -191.5t27.5 -322.5t54.5 -209q10 -6 20 -6q41 0 135 74q123 94 239 301t161 413q35 158 62.5 207t74.5 49q37 0 58.5 -22.5t21.5 -59.5q0 -29 -30 -229.5t-30 -288.5 q0 -119 52.5 -302t52.5 -210q-6 -45 -39 -63q-20 -12 -45 -12q-53 0 -90 80.5t-63.5 189t-43.5 137.5q-37 -49 -61 -86q-94 -139 -218 -240.5t-220 -101.5q-147 0 -199.5 93t-83.5 395q-14 129 -14 339zM332 1296q0 20 18.5 64.5t36.5 62.5q29 33 87 124t105.5 146.5 t82.5 55.5q47 0 212.5 -166t165.5 -227q0 -41 -18.5 -59.5t-38.5 -18.5q-41 0 -109.5 62.5t-129 128t-80.5 69.5q-18 -2 -59.5 -72.5t-94.5 -141.5t-104 -71q-74 0 -74 43z" />
<glyph unicode="&#xfc;" horiz-adv-x="1347" d="M156 745q0 193 18.5 276t65.5 83q35 0 65.5 -31t30.5 -94q0 -23 -4 -68t-4 -100q0 -53 6 -191.5t27.5 -322.5t54.5 -209q10 -6 20 -6q41 0 135 74q123 94 239 301t161 413q35 158 62.5 207t74.5 49q37 0 58.5 -22.5t21.5 -59.5q0 -29 -30 -229.5t-30 -288.5 q0 -119 52.5 -302t52.5 -210q-6 -45 -39 -63q-20 -12 -45 -12q-53 0 -90 80.5t-63.5 189t-43.5 137.5q-37 -49 -61 -86q-94 -139 -218 -240.5t-220 -101.5q-147 0 -199.5 93t-83.5 395q-14 129 -14 339zM442 1505q0 53 28 86t73 33q16 0 36.5 -6t41 -16.5t34 -18.5t32 -19.5 t20.5 -13.5q-27 -96 -71 -143t-89 -47q-43 0 -74 41t-31 104zM772 1495q0 53 27.5 86t72.5 33q49 0 164 -76q-27 -96 -69.5 -142t-87.5 -46q-43 0 -75 41t-32 104z" />
<glyph unicode="&#xfd;" horiz-adv-x="1183" d="M150 555q0 258 17 367.5t85 109.5q47 0 60.5 -37t13.5 -108q0 -90 -2 -184.5t-2 -157.5q0 -268 47 -269q29 0 121 88.5t133 172.5q43 86 72.5 198.5t43 184t43 124t78.5 52.5q35 0 60.5 -24.5t25.5 -63.5q0 -35 -46 -208t-46 -364q0 -63 6 -117l6 -22l37 16q49 25 90 25 q37 0 58.5 -17.5t21.5 -44.5q0 -63 -100 -114l-70 -33l10 -205q-12 -373 -30 -397q-25 -37 -76 -37q-49 0 -154 39q-59 25 -93 53.5t-64 85.5q-66 123 -66 221q0 33 9.5 52.5t37 53.5t47.5 64q25 37 74 60.5t53 27.5q10 8 54 35q0 63 -23 113q-6 -6 -47 -46t-74 -67.5 t-89 -54.5t-110 -27q-106 0 -167 111q-29 51 -37 112.5t-8 231.5zM422 1335q0 39 138.5 165t193.5 126q6 0 16 -3t26.5 -19.5t16.5 -40.5q0 -82 -285 -295q-8 -6 -20 -6q-29 0 -57.5 24.5t-28.5 48.5zM618 -197q0 -27 49 -73t74 -56q10 23 11 72q0 39 -7.5 91t-15.5 88 t-8 38l-4 47l-19 -24q-80 -104 -80 -183z" />
<glyph unicode="&#xfe;" horiz-adv-x="1517" d="M266 1157v2q10 264 41 307q8 12 27.5 19.5t34.5 9.5l16 2q2 0 19.5 -13.5t17.5 -15.5q4 -30 4 -452q35 47 75 82t68.5 55.5t80.5 37.5t71.5 22.5t85 18.5t80.5 15q66 -14 151.5 -65.5t147.5 -100.5q100 -82 133 -155.5t33 -227.5q0 -201 -80 -325.5t-254 -194.5 q-90 -35 -164 -35q-111 0 -250 58q-78 33 -111.5 52t-54.5 50q-4 -399 -10 -428q-8 -49 -32.5 -77.5t-51.5 -28.5q-37 0 -43 34q-10 47 -21.5 696.5t-13.5 657.5zM498 709q0 -143 12 -208t59 -108q51 -45 136.5 -74.5t173.5 -29.5q98 0 145 35q72 51 112 147t40 211 q0 109 -19.5 170t-44.5 76.5t-60.5 33t-54.5 37.5q-8 10 -8 17q-33 27 -119 31q-2 0 -18 -2.5t-27 -2.5q-43 0 -51 31q-33 -8 -67.5 -24.5t-88 -54.5t-87 -112.5t-33.5 -172.5z" />
<glyph unicode="&#xff;" horiz-adv-x="1183" d="M150 555q0 258 17 367.5t85 109.5q47 0 60.5 -37t13.5 -108q0 -90 -2 -184.5t-2 -157.5q0 -268 47 -269q29 0 121 88.5t133 172.5q43 86 72.5 198.5t43 184t43 124t78.5 52.5q35 0 60.5 -24.5t25.5 -63.5q0 -35 -46 -208t-46 -364q0 -63 6 -117l6 -22l37 16q49 25 90 25 q37 0 58.5 -17.5t21.5 -44.5q0 -63 -100 -114l-70 -33l10 -205q-12 -373 -30 -397q-25 -37 -76 -37q-49 0 -154 39q-59 25 -93 53.5t-64 85.5q-66 123 -66 221q0 33 9.5 52.5t37 53.5t47.5 64q25 37 74 60.5t53 27.5q10 8 54 35q0 63 -23 113q-6 -6 -47 -46t-74 -67.5 t-89 -54.5t-110 -27q-106 0 -167 111q-29 51 -37 112.5t-8 231.5zM297 1511q0 53 27.5 86t74.5 33t168 -74q-29 -96 -71.5 -143t-89.5 -47q-45 0 -77 41t-32 104zM618 -197q0 -27 49 -73t74 -56q10 23 11 72q0 39 -7.5 91t-15.5 88t-8 38l-4 47l-19 -24q-80 -104 -80 -183z M635 1501q0 53 28.5 86t75.5 33q54 0 160 -76q-27 -96 -69 -142t-87 -46t-76.5 41t-31.5 104z" />
<glyph unicode="&#x152;" horiz-adv-x="1599" d="M125 655q0 207 58.5 412t199.5 297q72 45 211 45q61 0 125.5 18.5t99.5 22.5q20 2 37.5 4t22 3t15.5 2t14 2t25.5 1h40h66.5h138q213 -2 213 -84q0 -57 -220 -92q-66 -10 -127 -17t-79.5 -10.5t-38 -11.5t-39.5 -28q-23 -23 -23 -70q0 -6 5 -18.5t13.5 -59.5t16.5 -127 q0 -4 3 -32.5t6 -59.5t7 -47q94 39 223.5 65.5t180.5 26.5q43 0 63.5 -24.5t20.5 -53.5q0 -41 -12.5 -58.5t-67.5 -38t-197 -54.5q-143 -35 -173.5 -48.5t-30.5 -37.5q0 -2 4 -256l6 -150h78q43 0 72.5 7t80.5 25.5t105 33.5q23 6 50.5 20t41.5 14q27 0 57.5 -30.5 t30.5 -65.5q0 -33 -28.5 -60.5t-90 -51t-106.5 -37t-132 -35t-114 -27.5q-94 -25 -203 -24q-20 0 -65 1t-70 1q-68 0 -110 14t-103 59q-125 90 -213 278.5t-88 356.5zM305 633q0 -66 53 -197q66 -164 117 -226.5t139 -62.5q147 4 148 58q0 10 -11.5 62t-11.5 85 q0 12 7.5 62.5t7.5 105.5q0 70 -10.5 176.5t-10.5 128.5q0 350 -145 351q-41 0 -72 -9.5t-53.5 -19.5t-41 -40t-29.5 -51.5t-24.5 -72.5t-19.5 -84t-20 -104q-23 -119 -23 -162z" />
<glyph unicode="&#x153;" horiz-adv-x="1849" d="M115 485q0 266 215 439q182 145 309 193t309 48q84 0 128 -6t87 -20.5t68 -20.5q27 -6 88 -15t98 -20.5t74 -38.5q66 -47 119 -123.5t53 -136.5q0 -78 -64.5 -114.5t-216.5 -67.5q-203 -37 -305 -43l-180 -8q-4 -94 -4 -105q0 -47 41 -155q23 -59 83 -102.5t109 -43.5 q86 0 183.5 54.5t165 120t133 120t96.5 54.5q37 0 37 -43t-46 -117t-125 -152t-209 -135t-274 -57q-51 0 -102 7t-70 7q-41 0 -121.5 -21.5t-125.5 -21.5q-272 0 -406 148q-92 102 -119.5 174.5t-27.5 201.5zM324 440q0 -160 109.5 -258t285.5 -104l102 35l-78 151 q-20 76 -20 137q0 43 10 86l8 43q0 12 -3 34t-3 30q0 35 6.5 63.5t17.5 59.5t15 49q6 23 36 68t30 69q0 20 -13.5 40t-35.5 20q-74 0 -250 -150q-129 -111 -173 -186.5t-44 -186.5zM918 702q20 -4 40 -4q35 0 90.5 7.5t113 17.5t106.5 19.5t90 18.5t45 9q90 18 90 59 q0 16 -90 91q-63 53 -94 67t-82 14q-104 0 -143.5 -18t-67.5 -84q-25 -57 -46.5 -98t-30.5 -54.5t-14 -23.5t-5 -23z" />
<glyph unicode="&#x178;" horiz-adv-x="1601" d="M145 1454q0 31 19.5 54.5t50.5 23.5q39 0 119 -65.5t364 -327.5q223 -201 289 -236q18 0 36.5 17.5t45.5 59.5t52.5 86t71.5 124.5t87 148.5q14 25 22.5 74t11.5 89t18.5 72t43.5 32q12 0 42 -9.5t64 -40t34 -73.5q0 -129 -131.5 -380t-221.5 -351q-31 -35 -44 -50.5 t-32.5 -53.5t-33 -68.5t-56.5 -128t-88 -197.5l-176 -385q-37 -82 -104 -82q-41 0 -74 33t-33 74q0 53 53.5 169.5t190.5 387.5l119 233l-344 322q-238 223 -317 311t-79 137zM535 1915q0 45 25.5 81t74.5 36q41 0 160 -72q-29 -96 -70 -143.5t-86 -47.5q-43 0 -73.5 41 t-30.5 105zM860 1903q0 53 27.5 86.5t72.5 34t162 -77.5q-27 -94 -70.5 -141.5t-86.5 -47.5t-74 41t-31 105z" />
<glyph unicode="&#x2c6;" horiz-adv-x="915" d="M117 1202q0 18 17.5 62.5t31.5 62.5q27 33 80 122t98 147.5t78 58.5q45 0 199.5 -166t154.5 -227q0 -35 -15.5 -56.5t-37.5 -21.5q-41 0 -104.5 62.5t-120 128t-74.5 69.5q-18 0 -55 -72t-88.5 -142.5t-104.5 -70.5q-59 0 -59 43z" />
<glyph unicode="&#x2dc;" horiz-adv-x="1255" d="M205 1307q0 51 98 136t178 85q57 0 117.5 -29t117 -66.5t75.5 -46.5l30 -14l41 39q31 25 52.5 55.5t30.5 50t24.5 33t38.5 13.5q61 -4 61 -56q0 -61 -84 -158.5t-162 -97.5q-55 0 -180 76t-166 76q-43 0 -124 -76t-97 -76q-8 0 -18.5 4.5t-21.5 18t-11 33.5z" />
<glyph unicode="&#x2000;" horiz-adv-x="1106" />
<glyph unicode="&#x2001;" horiz-adv-x="2212" />
<glyph unicode="&#x2002;" horiz-adv-x="1106" />
<glyph unicode="&#x2003;" horiz-adv-x="2212" />
<glyph unicode="&#x2004;" horiz-adv-x="737" />
<glyph unicode="&#x2005;" horiz-adv-x="553" />
<glyph unicode="&#x2006;" horiz-adv-x="368" />
<glyph unicode="&#x2007;" horiz-adv-x="368" />
<glyph unicode="&#x2008;" horiz-adv-x="276" />
<glyph unicode="&#x2009;" horiz-adv-x="442" />
<glyph unicode="&#x200a;" horiz-adv-x="122" />
<glyph unicode="&#x2010;" horiz-adv-x="1906" d="M213 657l12 134q8 86 50 110.5t192 40.5q184 19 606 19q371 0 483.5 -14.5t145.5 -65.5q27 -45 27 -74q0 -76 -156 -98.5t-633 -34.5z" />
<glyph unicode="&#x2011;" horiz-adv-x="1906" d="M213 657l12 134q8 86 50 110.5t192 40.5q184 19 606 19q371 0 483.5 -14.5t145.5 -65.5q27 -45 27 -74q0 -76 -156 -98.5t-633 -34.5z" />
<glyph unicode="&#x2012;" horiz-adv-x="1906" d="M213 657l12 134q8 86 50 110.5t192 40.5q184 19 606 19q371 0 483.5 -14.5t145.5 -65.5q27 -45 27 -74q0 -76 -156 -98.5t-633 -34.5z" />
<glyph unicode="&#x2013;" horiz-adv-x="1202" d="M70 602h32q113 0 241 17.5t153 17.5q37 0 118.5 -5t114.5 -5q37 0 121 14t137 14q72 0 102.5 -22t30.5 -51q0 -74 -119 -74q-23 0 -58.5 4t-43.5 4q-463 -18 -567 -27q-12 0 -56.5 -8t-70.5 -8q-111 0 -129 96z" />
<glyph unicode="&#x2014;" horiz-adv-x="1445" d="M33 664h35q131 0 270 18t151 18q53 0 214 -18t208 -18q14 0 112.5 15t158.5 15q145 0 145 -73q0 -29 -36 -51.5t-95 -22.5q-25 0 -66 4t-51 4q-2 0 -61.5 -2t-95.5 -2q-63 0 -209 2t-211 2q-147 0 -219 -10t-99 -10q-117 0 -143 96z" />
<glyph unicode="&#x2018;" horiz-adv-x="659" d="M135 1419q0 43 25.5 65.5t58.5 22.5q92 0 175 -192.5t93 -323.5l-75 -28q-76 57 -176.5 213.5t-100.5 242.5z" />
<glyph unicode="&#x2019;" horiz-adv-x="645" d="M176 1075q0 100 91 241.5t171 141.5q45 0 63.5 -29.5t18.5 -66.5q0 -100 -94 -238.5t-176 -138.5q-74 0 -74 90z" />
<glyph unicode="&#x201a;" horiz-adv-x="645" d="M174 57q0 100 91 241.5t171 141.5q45 0 63.5 -29.5t18.5 -66.5q0 -100 -94 -238.5t-176 -138.5q-74 0 -74 90z" />
<glyph unicode="&#x201c;" horiz-adv-x="714" d="M102 1346q0 51 24 74.5t52 23.5q80 0 172 -142.5t92 -242.5q0 -51 -26.5 -72.5t-55.5 -21.5q-78 0 -168 136t-90 245zM309 1569l80 26q74 -68 165 -222.5t91 -244.5q0 -45 -25.5 -65.5t-58.5 -20.5q-51 0 -98 62.5t-78 153t-50.5 173t-25.5 138.5z" />
<glyph unicode="&#x201d;" horiz-adv-x="815" d="M162 1174q0 102 91 239t173 137q76 0 76 -90q0 -98 -87 -241.5t-171 -143.5q-31 0 -56.5 24.5t-25.5 74.5zM336 1032q0 86 115.5 230.5t212.5 212.5l63 -54q-10 -61 -57 -170.5t-120 -209t-132 -99.5q-37 0 -59.5 28.5t-22.5 61.5z" />
<glyph unicode="&#x201e;" horiz-adv-x="815" d="M164 174q0 102 91 239.5t173 137.5q76 0 76 -90q0 -98 -87 -241.5t-171 -143.5q-31 0 -56.5 24.5t-25.5 73.5zM338 33q0 86 115.5 230.5t212.5 211.5l63 -53q-10 -61 -57 -171t-120 -209t-132 -99q-37 0 -59.5 28.5t-22.5 61.5z" />
<glyph unicode="&#x2022;" horiz-adv-x="1380" d="M369 668q0 125 81 181t177 56q152 0 261 -123t109 -260q0 -82 -43 -133t-97 -67.5t-120 -16.5q-162 0 -265 113.5t-103 249.5z" />
<glyph unicode="&#x202f;" horiz-adv-x="442" />
<glyph unicode="&#x2039;" horiz-adv-x="974" d="M123 803q0 51 125 162l192 174q90 84 133 84q20 0 36 -18.5t16 -41.5q0 -18 -11.5 -35.5t-26 -32t-50 -45t-64.5 -57.5l-133 -125q-53 -53 -61 -73q12 -31 95 -124t130 -124q109 -80 108 -121q0 -27 -25.5 -51.5t-49.5 -24.5q-10 0 -17.5 4t-13.5 12.5t-29.5 29 t-58.5 44.5q-109 78 -202 191.5t-93 171.5z" />
<glyph unicode="&#x203a;" horiz-adv-x="974" d="M123 1165.5q0 18.5 15.5 38t35.5 19.5q43 0 133 -84l193 -174q125 -113 125 -158q0 -59 -96.5 -177t-198.5 -190q-39 -27 -62.5 -48t-27.5 -28.5t-10.5 -10.5t-18.5 -3q-20 0 -48 24.5t-28 51.5q0 23 35 58.5t74 62.5q53 35 133 126t92 122q-8 23 -61 73l-134 125 q-20 20 -54 50t-51 46.5t-31.5 37t-14.5 39z" />
<glyph unicode="&#x205f;" horiz-adv-x="553" />
<glyph unicode="&#x20ac;" horiz-adv-x="1449" d="M119 578h33q96 2 204 14q0 129 17 237q-16 -2 -74.5 -11t-85.5 -9q-18 0 -31.5 4t-21.5 8t-13.5 16.5t-7.5 18.5t-6 26.5t-6 28.5l-6 33h33q102 2 249 21q53 203 197 325q92 80 133 102.5t58 39.5q33 0 73.5 21.5t75.5 23.5q117 6 154 6q39 0 59.5 -7.5t60.5 -11.5 q33 -14 39 -28q10 -18 19 -70q-8 -29 -40 -52.5t-67 -23.5q-16 0 -40.5 5t-34.5 5q-78 0 -226 -47q-168 -53 -252 -276q115 -8 168 -8q4 0 31 3t63.5 7t69.5 4q139 0 139 -72q0 -31 -30.5 -52t-87.5 -21q-18 0 -82 -6.5t-78 -6.5q-25 -2 -68 -2q-39 0 -98 4t-70 4 q-23 -104 -22 -141q0 -33 12 -82q20 2 102 9.5t117 7.5q39 0 76 -4.5t90 -4.5q68 0 98.5 -23t30.5 -50q0 -31 -30.5 -52.5t-88.5 -21.5q-23 0 -58.5 4t-43.5 4h-17.5t-26.5 -1t-78.5 -2t-158.5 -3q8 -33 23 -74q49 -139 111.5 -188t156.5 -49q12 0 140 16.5t161 16.5 q29 0 50.5 -21.5t21.5 -54.5q-8 -25 -12 -29q-18 -18 -59.5 -38.5t-136.5 -42t-212 -21.5q-59 0 -97 14t-93 59q-201 160 -254 404l-45 -8q-45 -6 -72 -6q-109 0 -129 96z" />
<glyph unicode="&#x2122;" horiz-adv-x="1921" d="M92 1427q0 39 19.5 61.5t73 37t110.5 21.5t171 23.5t214 35.5q141 25 159.5 24.5t39 -3.5t53.5 -12t53.5 -34t20.5 -61q0 -102 -166 -103q-49 0 -148 -22q12 -90 28.5 -320.5t20.5 -265.5q6 -43 7 -47q0 -10 -4.5 -28.5t-28 -44t-64.5 -25.5q-20 0 -37.5 6t-30 19 t-20.5 27.5t-14 40t-10 46t-6.5 55.5t-3.5 59.5t-3 66.5t-4 69q-12 205 -37 309q-129 -18 -145 -19q-23 0 -57.5 -8t-61.5 -8q-25 0 -49.5 5t-52 29.5t-27.5 65.5zM1053 981v461q0 59 2 89t12 68.5t35.5 55t66.5 16.5q55 0 87 -59.5t58.5 -165t47.5 -148.5q25 37 73 146.5 t93 166t108 56.5q25 0 43.5 -6t31.5 -20.5t22.5 -30t14.5 -44t8 -51t4 -65.5t2 -72.5t1 -85v-92.5q0 -59 4 -137q4 -145 17.5 -192.5t13.5 -73.5q0 -45 -29.5 -73t-66.5 -28q-43 0 -69.5 14.5t-39 56.5t-14.5 58.5t-6 79.5q-2 14 -2 21q-6 141 -10 286q-100 -176 -228 -176 q-35 0 -59 21q0 -23 1 -62t1 -57q0 -55 -1 -82t-3 -70t-10.5 -63.5t-20.5 -43t-31.5 -31.5t-48.5 -9q-27 0 -46 9t-30.5 33t-18.5 45.5t-9 70.5t-3 81.5t-1 102.5z" />
<glyph unicode="&#xe000;" horiz-adv-x="1075" d="M0 0v1075h1075v-1075h-1075z" />
</font>
</defs>
</svg>
