<?xml version="1.0" standalone="no"?>
<!DOCTYPE svg PUBLIC "-//W3C//DTD SVG 1.1//EN" "http://www.w3.org/Graphics/SVG/1.1/DTD/svg11.dtd" >
<svg xmlns="http://www.w3.org/2000/svg">
<metadata></metadata>
<defs>
<font id="swiss_721blackextended" horiz-adv-x="1705" >
<font-face units-per-em="2048" ascent="1638" descent="-410" />
<missing-glyph horiz-adv-x="978" />
<glyph horiz-adv-x="2048" />
<glyph horiz-adv-x="2048" />
<glyph unicode="&#xd;" horiz-adv-x="681" />
<glyph unicode=" "  horiz-adv-x="978" />
<glyph unicode="&#x09;" horiz-adv-x="978" />
<glyph unicode="&#xa0;" horiz-adv-x="978" />
<glyph unicode="!" horiz-adv-x="901" d="M164 1479h571l-51 -904h-467zM182 0v473h537v-473h-537z" />
<glyph unicode="&#x22;" horiz-adv-x="757" d="M68 877v563h258v-563h-258zM430 877v563h260v-563h-260z" />
<glyph unicode="#" horiz-adv-x="1574" d="M-6 350l100 271h254l74 213h-258l98 270h258l129 366h289l-129 -366h227l129 366h289l-129 -366h256l-100 -270h-252l-76 -213h258l-100 -271h-254l-131 -366h-289l131 366h-227l-131 -366h-289l131 366h-258zM629 621h239l78 213h-239z" />
<glyph unicode="$" horiz-adv-x="1957" d="M131 481h612q18 -135 164 -137v213q-416 33 -592 124t-176 302q0 209 187.5 330t543.5 129v133h211v-133q334 -6 507 -117t194 -336h-586q-18 123 -154 131v-198q418 -23 601.5 -119t183.5 -316q0 -473 -746 -489v-150h-211v150h-36q-317 0 -497.5 125t-205.5 358z M739 1032q0 -92 168 -94v190q-168 0 -168 -96zM1042 340q170 4 170 100q0 102 -161 103h-9v-203z" />
<glyph unicode="%" horiz-adv-x="2318" d="M76 1083.5q0 188.5 132 292t378 103.5q244 0 376 -103.5t132 -292t-132.5 -293t-376 -104.5t-376.5 104.5t-133 293zM391 1081q0 -90 51.5 -141t141.5 -51t142 51t52 141t-52 143.5t-142 53.5q-88 0 -140.5 -53.5t-52.5 -143.5zM418 -39l1227 1518h256l-1227 -1518h-256z M1225 358.5q0 188.5 133 293t376.5 104.5t376 -104.5t132.5 -293t-132.5 -293t-376 -104.5t-376.5 104.5t-133 293zM1540 358.5q0 -90.5 51 -142.5t141.5 -52t142.5 52t52 142.5t-52 142.5t-142 52q-88 0 -140.5 -52t-52.5 -142.5z" />
<glyph unicode="&#x26;" horiz-adv-x="2148" d="M96 440q0 176 109.5 299t302.5 156q-127 86 -127 246q0 174 154.5 269t447.5 95q301 0 463 -96t162 -268q0 -133 -93.5 -214t-271.5 -102l250 -221q162 98 307 287l250 -223q-113 -158 -289 -297l412 -371h-696l-117 115q-256 -160 -629 -160q-291 0 -463 136t-172 349z M655 508q0 -84 73 -145.5t177 -61.5q95 0 189 57l-338 310q-100 -57 -101 -160zM903 1161q0 -65 119 -139q137 45 137 129q0 39 -34.5 63.5t-94.5 24.5q-127 0 -127 -78z" />
<glyph unicode="'" horiz-adv-x="393" d="M68 877v563h258v-563h-258z" />
<glyph unicode="(" horiz-adv-x="1052" d="M70 532q0 469 224 715t652 246q8 0 28.5 -1t29.5 -1v-416h-31q-375 0 -375 -543q0 -272 92 -406t283 -134h31v-416q-8 0 -29 -1t-29 -1q-428 0 -652 244.5t-224 713.5z" />
<glyph unicode=")" horiz-adv-x="1052" d="M49 -8h31q190 0 282.5 134t92.5 406q0 543 -375 543h-31v416q8 0 28.5 1t28.5 1q428 0 652.5 -246t224.5 -715t-224 -713.5t-653 -244.5q-8 0 -28.5 1t-28.5 1v416z" />
<glyph unicode="*" horiz-adv-x="1327" d="M152 1049l81 254l297 -97v312h267v-312l297 97l82 -254l-295 -97l182 -254l-217 -155l-182 252l-183 -252l-217 155l185 254z" />
<glyph unicode="+" d="M254 475v273h459v473h280v-473h459v-273h-459v-475h-280v475h-459z" />
<glyph unicode="," horiz-adv-x="978" d="M221 0v473h537v-313q0 -117 -24.5 -187.5t-98.5 -128.5q-127 -100 -346 -163l-45 188q131 43 133 131h-156z" />
<glyph unicode="-" horiz-adv-x="995" d="M127 373v401h743v-401h-743z" />
<glyph unicode="." horiz-adv-x="978" d="M221 0v473h537v-473h-537z" />
<glyph unicode="/" horiz-adv-x="976" d="M-74 -190l801 1708h254l-795 -1708h-260z" />
<glyph unicode="0" horiz-adv-x="1957" d="M72 720.5q0 360.5 235.5 559.5t671.5 199t671.5 -199t235.5 -559.5t-235.5 -560t-671.5 -199.5t-671.5 199.5t-235.5 560zM633 721q0 -178 94 -283.5t252 -105.5t252 104.5t94 284.5t-94 283.5t-252 103.5t-252 -104.5t-94 -282.5z" />
<glyph unicode="1" horiz-adv-x="1957" d="M504 879v362q268 45 381 201h411v-1442h-512v932q-147 -47 -280 -53z" />
<glyph unicode="2" horiz-adv-x="1957" d="M37 0q16 352 185 535.5t542 271.5q76 18 175 38.5t145 31t96.5 27t69 39t18.5 54.5q0 117 -244 117q-162 0 -238.5 -47t-76.5 -149v-5h-619q25 565 889 566q891 0 891 -473q0 -184 -115 -284.5t-373 -158.5q-96 -20 -237 -45.5t-215 -40t-151 -43t-117 -67.5h1177v-367 h-1802z" />
<glyph unicode="3" horiz-adv-x="1957" d="M57 489h594q43 -150 326 -149q293 0 293 129q0 72 -63.5 97.5t-209.5 25.5h-317v340h293q141 0 199.5 17.5t58.5 76.5q0 111 -266 111q-209 0 -230 -78h-624q16 221 222 320.5t623 99.5q455 0 669 -95.5t214 -306.5q0 -240 -254 -293q297 -57 297 -335q0 -246 -222 -365 t-675 -119q-469 0 -692.5 121.5t-235.5 402.5z" />
<glyph unicode="4" horiz-adv-x="1957" d="M74 227v373l825 842h727v-860h260v-355h-260v-227h-510v227h-1042zM594 573h528v537z" />
<glyph unicode="5" horiz-adv-x="1957" d="M59 479h605q14 -137 313 -137q301 0 301 162q0 168 -317 168q-150 0 -267 -47h-567l145 817h1518v-348h-1149l-29 -160q186 57 443 57q403 0 612 -127t209 -366q0 -260 -231.5 -396.5t-683.5 -136.5q-461 0 -676.5 119t-225.5 395z" />
<glyph unicode="6" horiz-adv-x="1957" d="M92 717q0 389 226.5 576.5t689.5 187.5q801 0 856 -459h-582q-27 98 -256 98q-326 0 -369 -256q197 86 443 86q383 0 582.5 -124t199.5 -359q0 -508 -831 -508q-498 0 -728.5 179t-230.5 579zM711 467q0 -145 288 -145q287 0 287 145t-287 145q-288 0 -288 -145z" />
<glyph unicode="7" horiz-adv-x="1957" d="M92 1081v361h1811q-4 -242 -107 -424q-37 -63 -99.5 -133t-106.5 -110t-142 -124q-12 -10 -51 -44t-55.5 -47t-49 -44t-51 -51.5t-43 -50t-43.5 -58.5q-104 -158 -111 -356h-745q16 207 96 336q47 76 118 148.5t125 116.5t153 120q41 33 127 95.5t126.5 94t92 79.5 t82.5 91h-1127z" />
<glyph unicode="8" horiz-adv-x="1957" d="M88 461q0 217 172 305q-156 72 -156 266q0 229 215.5 337t659.5 108t659 -107.5t215 -337.5q0 -195 -155 -266q172 -88 172 -305q0 -260 -216 -378t-675 -118t-675 118t-216 378zM678 455q0 -68 71.5 -94.5t229.5 -26.5t229.5 26.5t71.5 94.5q0 66 -71.5 93t-229.5 27 t-229.5 -27t-71.5 -93zM696 1013.5q0 -57.5 67.5 -81t215 -23.5t215.5 23.5t68 81t-68 81t-215.5 23.5t-215 -23.5t-67.5 -81z" />
<glyph unicode="9" horiz-adv-x="1957" d="M76 973q0 508 829 508q498 0 729.5 -179.5t231.5 -578.5q0 -389 -226.5 -576.5t-689.5 -187.5q-801 0 -856 459h580q25 -96 258 -96q326 0 366 253q-190 -84 -442 -83q-383 0 -581.5 122.5t-198.5 358.5zM670 973q0 -143 288 -144q287 0 287 144q0 145 -287 145 q-288 0 -288 -145z" />
<glyph unicode=":" horiz-adv-x="901" d="M182 0v473h537v-473h-537zM182 674v473h537v-473h-537z" />
<glyph unicode=";" horiz-adv-x="901" d="M182 0v473h537v-313q0 -117 -24.5 -187.5t-98.5 -128.5q-127 -100 -346 -163l-45 188q131 43 133 131h-156zM182 674v473h537v-473h-537z" />
<glyph unicode="&#x3c;" d="M264 471v281l1178 487v-301l-801 -328l801 -327v-299z" />
<glyph unicode="=" d="M254 240v272h1198v-272h-1198zM254 711v272h1198v-272h-1198z" />
<glyph unicode="&#x3e;" d="M264 -16v299l801 327l-801 328v301l1178 -487v-281z" />
<glyph unicode="?" horiz-adv-x="1744" d="M31 948q0 301 197.5 436.5t625.5 135.5q424 0 629 -108.5t205 -338.5q0 -133 -69 -210t-233 -142q-31 -12 -90 -33.5t-82.5 -32t-51 -32t-40.5 -50.5h-534v25q0 102 50 164.5t163 109.5q43 18 117.5 41t97.5 37q72 45 71 117q0 121 -210 121q-268 0 -269 -230v-10h-577z M588 0v473h536v-473h-536z" />
<glyph unicode="@" horiz-adv-x="2048" d="M70 520q0 356 219 617q150 176 361.5 271t461.5 95q387 0 626.5 -206.5t239.5 -532.5q0 -354 -264 -557q-143 -113 -328 -113q-215 0 -233 154q-113 -152 -289 -152q-344 0 -344 350q0 248 144.5 412t355.5 164q151 0 221 -111l49 82h242l-156 -626q-4 -20 -4 -31 q0 -49 47 -49q125 0 229.5 140t104.5 333q0 233 -173 379.5t-464 146.5q-287 0 -491 -141q-154 -109 -238 -269.5t-84 -349.5q0 -295 198.5 -469t536.5 -174q322 0 586 187l115 -160q-322 -240 -723 -240q-387 0 -649 211q-297 238 -297 639zM801 440q0 -74 30.5 -112.5 t86.5 -38.5q72 0 128.5 54.5t79.5 150.5l48 194q-16 143 -134 143q-96 0 -167.5 -116.5t-71.5 -274.5z" />
<glyph unicode="A" horiz-adv-x="1849" d="M-59 0l641 1479h727l598 -1479h-621l-49 145h-629l-53 -145h-614zM743 510h367l-178 520z" />
<glyph unicode="B" horiz-adv-x="2062" d="M162 0v1479h1190q299 0 433 -81t134 -288q0 -221 -197 -324q258 -84 258 -364q0 -422 -553 -422h-1265zM735 369h406q125 0 174 21.5t49 99t-49 100t-174 22.5h-406v-243zM735 924h385q113 0 156 19.5t43 84.5q0 70 -42 87.5t-157 17.5h-385v-209z" />
<glyph unicode="C" horiz-adv-x="2105" d="M76 739q0 385 251 582t744 197q461 0 712 -171t267 -489h-655q-14 137 -97.5 209t-226.5 72q-184 0 -281.5 -102.5t-97.5 -297.5q0 -193 97.5 -295t281.5 -102q268 0 322 240h661q-45 -305 -294 -463t-689 -158q-494 0 -744.5 196.5t-250.5 581.5z" />
<glyph unicode="D" horiz-adv-x="2131" d="M162 0v1481h948q463 0 702.5 -190.5t239.5 -551t-239.5 -550t-702.5 -189.5h-948zM735 393h285q217 0 316.5 82t99.5 279q0 195 -99.5 277.5t-316.5 82.5h-285v-721z" />
<glyph unicode="E" horiz-adv-x="1800" d="M162 0v1479h1567v-363h-994v-176h805v-365h-805v-194h1043v-381h-1616z" />
<glyph unicode="F" horiz-adv-x="1658" d="M162 0v1479h1476v-363h-903v-201h738v-364h-738v-551h-573z" />
<glyph unicode="G" horiz-adv-x="2152" d="M76 739q0 385 251 582t744 197q422 0 669 -142.5t279 -390.5h-628q-90 178 -304 178q-178 0 -286.5 -114.5t-108.5 -309.5q0 -197 106.5 -305t297.5 -108q145 0 239.5 53t114.5 141h-238v320h826v-840h-258l-62 131q-195 -170 -647 -170q-494 0 -744.5 196.5 t-250.5 581.5z" />
<glyph unicode="H" horiz-adv-x="2123" d="M162 0v1479h573v-512h654v512h573v-1479h-573v598h-654v-598h-573z" />
<glyph unicode="I" horiz-adv-x="894" d="M162 0v1479h573v-1479h-573z" />
<glyph unicode="J" horiz-adv-x="1658" d="M33 565q0 43 2 68h573v-21q0 -262 176 -262q113 0 148 69.5t35 239.5v820h573v-762q0 -147 -4 -223t-27.5 -166t-70.5 -154q-162 -215 -621 -215q-416 0 -600 139.5t-184 466.5z" />
<glyph unicode="K" horiz-adv-x="2000" d="M162 0v1479h573v-512l527 512h774l-617 -535l678 -944h-713l-399 600l-250 -203v-397h-573z" />
<glyph unicode="L" horiz-adv-x="1656" d="M162 0v1479h573v-1073h903v-406h-1476z" />
<glyph unicode="M" horiz-adv-x="2531" d="M162 0v1479h850l250 -901l270 901h838v-1479h-531v1155l-352 -1155h-447l-348 1155v-1155h-530z" />
<glyph unicode="N" horiz-adv-x="2125" d="M160 0v1479h678l571 -852v852h555v-1479h-643l-621 866v-866h-540z" />
<glyph unicode="O" horiz-adv-x="2142" d="M76 739q0 385 251 582t744.5 197t744 -197t250.5 -582t-250.5 -581.5t-744 -196.5t-744.5 196.5t-251 581.5zM692 739q0 -193 97.5 -295t281.5 -102t281.5 102.5t97.5 294.5q0 195 -97.5 297.5t-281.5 102.5t-281.5 -102.5t-97.5 -297.5z" />
<glyph unicode="P" horiz-adv-x="1955" d="M162 0v1479h1106q315 0 485 -126t170 -353.5t-170 -353.5t-485 -126h-533v-520h-573zM735 842h314q135 0 191 33.5t56 126t-56 126t-191 33.5h-314v-319z" />
<glyph unicode="Q" horiz-adv-x="2142" d="M327 1321q251 197 744.5 197t744 -197t250.5 -582q0 -391 -260 -585l179 -181l-271 -264l-278 285q-143 -33 -349 -33q-1011 0 -1011 776q0 387 251 584zM692 739q0 -193 97.5 -295t275.5 -102h29l-97 98l269 265l151 -156q33 74 33 190q0 195 -97.5 297.5t-281.5 102.5 t-281.5 -102.5t-97.5 -297.5z" />
<glyph unicode="R" horiz-adv-x="2029" d="M162 0v1479h1126q365 0 490 -76q170 -100 170 -322q0 -131 -64.5 -230t-179.5 -144q111 -45 144.5 -111t39.5 -205q12 -248 29 -301q16 -51 51 -67v-23h-637q-20 33 -26.5 77t-7.5 113.5t-5 112.5q-8 82 -54 115t-153 33h-342v-451h-581zM743 840h334q125 0 181.5 29.5 t56.5 105.5q0 80 -57.5 104.5t-194.5 24.5h-320v-264z" />
<glyph unicode="S" horiz-adv-x="2004" d="M70 451h694q16 -125 258 -125q231 0 231 106q0 92 -204 117l-428 53q-535 66 -535 440q0 250 207 363t645 113q457 0 684 -113t246 -356h-666q-23 141 -289 141q-98 0 -152 -26.5t-54 -71.5q0 -47 49 -67.5t170 -37.5l522 -74q487 -70 487 -432q0 -274 -244.5 -400 t-760.5 -126q-418 0 -637 129t-223 367z" />
<glyph unicode="T" horiz-adv-x="1652" d="M4 1104v375h1645v-375h-537v-1104h-573v1104h-535z" />
<glyph unicode="U" horiz-adv-x="2070" d="M162 702v777h573v-723q0 -215 64.5 -305.5t236.5 -90.5t235.5 90.5t63.5 305.5v723h574v-777q0 -387 -211 -565t-661.5 -178t-662.5 179t-212 564z" />
<glyph unicode="V" horiz-adv-x="1751" d="M-90 1479h647l313 -990l330 990h641l-680 -1479h-598z" />
<glyph unicode="W" horiz-adv-x="2510" d="M-123 1479h617l256 -1033l274 1033h473l277 -1033l241 1033h619l-508 -1479h-623l-250 956l-254 -956h-616z" />
<glyph unicode="X" horiz-adv-x="1849" d="M-51 0l659 780l-565 699h692l203 -320l219 320h684l-573 -699l647 -780h-717l-264 397l-270 -397h-715z" />
<glyph unicode="Y" d="M-88 1479h674l266 -609l283 609h659l-659 -1061v-418h-574v418z" />
<glyph unicode="Z" horiz-adv-x="1746" d="M51 0v328l867 780h-816v371h1594v-336l-862 -754h833v-389h-1616z" />
<glyph unicode="[" horiz-adv-x="1052" d="M127 -377v1868h881v-393h-359v-1082h359v-393h-881z" />
<glyph unicode="\" horiz-adv-x="976" d="M-74 1518h254l801 -1708h-260z" />
<glyph unicode="]" horiz-adv-x="1052" d="M45 16h358v1082h-358v393h881v-1868h-881v393z" />
<glyph unicode="^" horiz-adv-x="2048" d="M412 897l442 565h338l442 -565h-303l-307 309l-309 -309h-303z" />
<glyph unicode="_" horiz-adv-x="1024" d="M0 -201h1024v-282h-1024v282z" />
<glyph unicode="`" horiz-adv-x="1024" d="M-18 1612h602l188 -314h-487z" />
<glyph unicode="a" horiz-adv-x="1824" d="M41 340q0 127 61 205q51 63 137.5 98t161 44t230.5 20q66 4 140.5 8t120.5 5t95 4t76 7t50.5 13.5t32.5 21.5t9 33q0 47 -59.5 75.5t-167.5 28.5q-129 0 -190.5 -24.5t-71.5 -90.5h-529q16 215 201.5 302.5t585.5 87.5q453 0 612 -125q92 -72 125 -171.5t33 -260.5v-443 q0 -115 51 -153v-25h-533q-28 68 -32 158q-100 -106 -237.5 -150.5t-338.5 -44.5q-563 0 -563 377zM623 371q0 -53 48 -83t138 -30q172 0 271.5 68.5t99.5 179.5q0 19 -2 29q-37 -18 -84 -29.5t-79 -15t-101.5 -8.5t-96.5 -7q-106 -10 -150 -31.5t-44 -72.5z" />
<glyph unicode="b" horiz-adv-x="1777" d="M139 0v1491h512v-438q182 123 426 123q293 0 465 -163t172 -440q0 -274 -171 -438t-458 -164q-270 0 -454 142l-4 -113h-488zM651 573.5q0 -116.5 73 -185.5t189 -69q119 0 191 69t72 185.5t-72 185t-191 68.5q-117 0 -189.5 -68.5t-72.5 -185z" />
<glyph unicode="c" horiz-adv-x="1767" d="M61 573q0 289 213 451t609 162q737 0 809 -496h-549q-61 158 -248 158q-137 0 -215 -73t-78 -200q0 -125 76 -197.5t205 -72.5q109 0 181.5 53.5t90.5 145.5h547q-55 -543 -819 -543q-395 0 -608.5 161t-213.5 451z" />
<glyph unicode="d" horiz-adv-x="1777" d="M63 573q0 276 172.5 439.5t464.5 163.5q244 0 426 -123v438h512v-1491h-487l-4 113q-184 -141 -455 -142q-287 0 -458 164t-171 438zM602 573.5q0 -116.5 71.5 -185.5t190.5 -69q117 0 189.5 69t72.5 185.5t-72.5 185t-189.5 68.5q-119 0 -190.5 -68.5t-71.5 -185z" />
<glyph unicode="e" horiz-adv-x="1775" d="M61 573.5q0 290.5 211 451.5t605 161q416 0 628.5 -180.5t212.5 -530.5v-20h-1108q0 -92 77 -143.5t220 -51.5q188 0 244 90h557q-117 -389 -831 -389q-393 0 -604.5 161t-211.5 451.5zM584 700h608q-10 94 -85 146.5t-202 52.5q-280 0 -321 -199z" />
<glyph unicode="f" horiz-adv-x="954" d="M0 815v322h190q-2 20 -2 59q0 178 97.5 251t324.5 73q86 0 305 -11v-270h-110q-55 0 -79 -19.5t-24 -68.5v-14h213v-322h-204v-815h-521v815h-190z" />
<glyph unicode="g" horiz-adv-x="1777" d="M63 624.5q0 247.5 167 399.5t448 152q291 0 469 -140l4 111h487v-893q0 -254 -45 -330q-96 -162 -278 -233.5t-477 -71.5q-342 0 -523.5 91t-218.5 290h686q23 -74 131 -74q117 0 166 50.5t49 164.5q0 39 -2 62q-172 -127 -450 -127q-281 0 -447 150.5t-166 398z M602 614.5q0 -98.5 70.5 -157t191.5 -58.5t191.5 58.5t70.5 157t-71.5 157.5t-190.5 59t-190.5 -59t-71.5 -157.5z" />
<glyph unicode="h" horiz-adv-x="1720" d="M139 0v1491h512v-463q201 141 453 141q256 0 371.5 -130t115.5 -404v-635h-512v539q0 123 -40 174t-146 51q-113 0 -177.5 -54.5t-64.5 -148.5v-561h-512z" />
<glyph unicode="i" horiz-adv-x="827" d="M154 0v1147h522v-1147h-522zM154 1241v291h522v-291h-522z" />
<glyph unicode="j" horiz-adv-x="817" d="M-51 25h76q98 0 119.5 46t21.5 195v881h516v-1124q0 -119 -16.5 -181.5t-79.5 -117.5q-106 -90 -383 -91q-125 0 -254 25v367zM166 1241v291h516v-291h-516z" />
<glyph unicode="k" horiz-adv-x="1701" d="M139 0v1491h512v-705l369 361h686l-453 -397l506 -750h-614l-275 446l-219 -188v-258h-512z" />
<glyph unicode="l" horiz-adv-x="827" d="M154 0v1491h522v-1491h-522z" />
<glyph unicode="m" horiz-adv-x="2588" d="M135 0v1147h508v-119q199 141 440 141q137 0 231.5 -49t162.5 -157q218 206 509 206h3q246 0 357.5 -130t111.5 -404v-635h-506v539q0 123 -38 174t-138 51q-109 0 -169.5 -54.5t-60.5 -148.5v-561h-497v539q0 123 -38 174t-139 51q-109 0 -169 -54.5t-60 -148.5v-561 h-508z" />
<glyph unicode="n" horiz-adv-x="1716" d="M135 0v1147h512v-119q201 141 453 141q256 0 370.5 -130t114.5 -404v-635h-512v539q0 123 -39 174t-145 51q-113 0 -177.5 -54.5t-64.5 -148.5v-561h-512z" />
<glyph unicode="o" horiz-adv-x="1734" d="M61 573.5q0 288.5 209 450.5t598 162t597 -161t208 -451.5t-208 -451.5t-597 -161t-598 162t-209 450.5zM602 573.5q0 -118.5 71.5 -188.5t192.5 -70t192.5 70t71.5 188.5t-71.5 188t-192.5 69.5t-192.5 -69.5t-71.5 -188z" />
<glyph unicode="p" horiz-adv-x="1777" d="M139 -371v1518h488l4 -111q182 139 454 140q287 0 458 -164t171 -439q0 -276 -172 -439t-465 -163q-244 0 -426 123v-465h-512zM651 573.5q0 -116.5 73 -185.5t189 -69q119 0 191 69t72 185.5t-72 185t-191 68.5q-117 0 -189.5 -68.5t-72.5 -185z" />
<glyph unicode="q" horiz-adv-x="1777" d="M63 573q0 274 171.5 438.5t457.5 164.5q272 0 455 -140l4 111h487v-1518h-512v465q-182 -123 -426 -123q-293 0 -465 163t-172 439zM602 573.5q0 -116.5 71.5 -185.5t190.5 -69q117 0 189.5 69t72.5 185.5t-72.5 185t-189.5 68.5q-119 0 -190.5 -68.5t-71.5 -185z" />
<glyph unicode="r" horiz-adv-x="1402" d="M141 0v1147h508l6 -88q117 117 318 117t292 -109t91 -338v-100h-453v8q0 172 -121 172q-68 0 -94 -51t-26 -166v-592h-521z" />
<glyph unicode="s" horiz-adv-x="1716" d="M51 367h625q6 -61 54 -87t149 -26q176 0 176 78q0 47 -48.5 62.5t-185.5 27.5q-45 4 -69 6q-135 14 -203 21.5t-157 27t-152 47.5q-160 72 -160 279q0 203 185.5 293t576.5 90q373 0 558 -93.5t197 -291.5h-589q-4 59 -54.5 84.5t-154.5 25.5q-176 0 -176 -80 q0 -51 67 -67q23 -4 197 -21q453 -41 520 -63q129 -45 184.5 -112.5t55.5 -190.5q0 -223 -198 -319.5t-630 -96.5q-387 0 -573.5 96.5t-194.5 309.5z" />
<glyph unicode="t" horiz-adv-x="952" d="M12 797v321h183v375h516v-375h184v-321h-184v-238q0 -150 18.5 -196t106.5 -46h73v-315q-129 -22 -242 -22h-10q-190 0 -307 47q-94 39 -124.5 111.5t-30.5 209.5v449h-183z" />
<glyph unicode="u" horiz-adv-x="1716" d="M131 512v635h512v-539q0 -123 39 -174t145 -51q113 0 177.5 54.5t64.5 148.5v561h512v-1147h-512v119q-201 -141 -453 -142q-256 0 -370.5 130.5t-114.5 404.5z" />
<glyph unicode="v" horiz-adv-x="1564" d="M-43 1147h590l182 -512q31 -84 47 -180q16 80 49 170l183 522h583l-534 -1147h-565z" />
<glyph unicode="w" horiz-adv-x="2396" d="M-14 1147h555l135 -492q25 -92 49 -245q14 59 74 211l202 526h383l209 -522q25 -61 62 -185q10 68 53 215l145 492h557l-397 -1147h-588l-188 467q-31 72 -49 158q-18 -88 -45 -150l-193 -475h-575z" />
<glyph unicode="x" horiz-adv-x="1579" d="M-104 0l532 602l-481 545h641l139 -215q41 -63 53 -103q18 47 56 101l153 217h629l-485 -543l528 -604h-660l-161 233q-45 66 -58 109q-23 -59 -49 -96l-176 -246h-661z" />
<glyph unicode="y" horiz-adv-x="1478" d="M-59 1147h559l186 -408q45 -98 66 -182q16 68 53 154l184 436h545l-485 -993q-156 -319 -234 -394q-68 -66 -143.5 -88t-192.5 -22h-356v334h113q109 0 158.5 36.5t74.5 139.5z" />
<glyph unicode="z" horiz-adv-x="1445" d="M25 0v303l630 494h-563v350h1290v-301l-616 -481h602v-365h-1343z" />
<glyph unicode="{" horiz-adv-x="1024" d="M145 389v283q6 0 18.5 -1t16.5 -1q113 0 159 53t46 178v258q0 117 20.5 177.5t88.5 95.5q90 45 331 45h80v-285q-8 0 -22.5 1t-20.5 1q-92 0 -119.5 -32t-27.5 -126v-239q0 -129 -44 -186.5t-173 -80.5q129 -25 173 -81t44 -183v-241q0 -92 27.5 -124t117.5 -32 q6 0 21.5 1t23.5 1v-285h-80q-244 0 -331 45q-68 35 -88.5 94.5t-20.5 176.5v258q0 125 -46 178t-159 53q-4 0 -16 -1t-19 -1z" />
<glyph unicode="|" horiz-adv-x="1024" d="M373 -483v2048h280v-2048h-280z" />
<glyph unicode="}" horiz-adv-x="1024" d="M121 -131h43q92 0 119.5 31.5t27.5 124.5v241q0 127 44 183.5t173 80.5q-129 23 -173 80.5t-44 184.5v241q0 94 -27.5 126t-119.5 32q-6 0 -20.5 -1t-22.5 -1v285h80q242 0 329 -45q68 -35 89.5 -96.5t21.5 -176.5v-258q0 -125 46 -178t159 -53q4 0 16 1t19 1v-283 q-6 0 -18.5 1t-16.5 1q-113 0 -159 -53t-46 -178v-258q0 -115 -21.5 -176.5t-89.5 -96.5q-86 -43 -315 -43h-94v283z" />
<glyph unicode="~" d="M178 379v299q225 143 408 143q113 0 278 -53q20 -6 71.5 -24.5t78 -26.5t69.5 -16.5t80 -8.5q168 0 367 150v-299q-199 -133 -371 -133q-102 0 -266 57q-205 70 -332 70q-162 0 -383 -158z" />
<glyph unicode="&#xa1;" horiz-adv-x="901" d="M164 0l53 905h467l51 -905h-571zM182 1006v473h535v-473h-535z" />
<glyph unicode="&#xa2;" horiz-adv-x="1802" d="M61 614.5q0 272.5 190.5 434t541.5 180.5v213h190v-213q313 -12 495.5 -141.5t213.5 -356.5h-549q-51 137 -195 154v-535q172 31 207 195h547q-25 -252 -208 -391.5t-511 -153.5v-217h-190v217q-348 14 -540 178t-192 436.5zM602 616q0 -221 223 -268v537 q-104 -16 -163.5 -87t-59.5 -182z" />
<glyph unicode="&#xa3;" horiz-adv-x="1957" d="M205 338q127 100 127 221q0 27 -6 57h-121v246h100q-8 51 -8 113q0 498 747 498q403 0 597 -124t196 -391h-596q-10 145 -170 146q-164 0 -164 -164q0 -12 4 -78h377v-246h-385q0 -76 -78 -172q84 14 156 15q74 0 216 -24.5t212 -24.5q180 0 326 116l118 -401 q-199 -158 -462 -158q-94 0 -254 27q-63 10 -221 45t-224 35q-143 -1 -315 -105z" />
<glyph unicode="&#xa4;" horiz-adv-x="1957" d="M-43 549l61 102h148q-2 23 -2 68v33h-203l62 102h149q43 313 283.5 469t648.5 156q328 0 558 -140.5t290 -394.5h-584q-43 76 -120 120t-171 44q-133 0 -222 -64.5t-116 -189.5h676l-63 -102h-625v-31q0 -47 4 -70h553l-63 -102h-469q35 -106 122 -161.5t203 -55.5 q170 0 264 123h601q-78 -240 -300.5 -367t-537.5 -127q-393 0 -632 147.5t-294 440.5h-221z" />
<glyph unicode="&#xa5;" d="M-57 1442h643l266 -594l283 594h630l-307 -484h203v-145h-301l-109 -178h410v-146h-506l-49 -81v-408h-514v408l-53 81h-502v146h409l-108 178h-301v145h209z" />
<glyph unicode="&#xa6;" horiz-adv-x="1024" d="M373 -350v758h280v-758h-280zM373 674v758h280v-758h-280z" />
<glyph unicode="&#xa7;" horiz-adv-x="1945" d="M39 676q0 231 207 301q-57 72 -58 166q0 375 734 375q786 0 815 -424h-549q-8 72 -68.5 96t-195.5 24q-106 0 -153.5 -15t-47.5 -56q0 -27 26.5 -39t92.5 -25l483 -90q258 -49 346 -80q236 -82 236 -329q0 -233 -195 -295q86 -74 86 -199q0 -207 -201.5 -304t-621.5 -97 q-391 0 -602 114.5t-234 333.5h551q20 -137 271 -137q260 0 260 76q0 31 -28 42t-112 27l-407 80q-287 57 -393 101q-242 96 -242 354zM514 702q0 -43 28.5 -63.5t100.5 -34.5l662 -129q57 -10 106 -26q18 70 19 79q0 43 -29 64.5t-96 34.5l-662 129q-76 14 -108 26 q-20 -43 -21 -80z" />
<glyph unicode="&#xa8;" horiz-adv-x="1024" d="M39 1309v290h407v-290h-407zM575 1309v290h408v-290h-408z" />
<glyph unicode="&#xa9;" d="M102 741q0 309 224 537q211 215 526 215q317 0 537 -219q217 -217 217 -532.5t-217 -526.5q-229 -225 -537 -225q-305 0 -528 223q-221 221 -222 528zM256 743q0 -246 176 -422t422 -176q244 0 426 179q172 167 172 419q0 248 -174 422q-176 176 -424 176 q-252 0 -420 -172q-178 -182 -178 -426zM440 737q0 203 112 325t288 122q178 0 279.5 -80t109.5 -221h-242q-4 63 -39 99t-92 36q-72 0 -114 -70.5t-42 -202.5q0 -262 164 -262q121 0 127 144h248q-6 -150 -109.5 -238t-271.5 -88q-195 0 -306.5 115.5t-111.5 320.5z" />
<glyph unicode="&#xaa;" horiz-adv-x="1368" d="M31 913q0 90 47 144q53 63 139 82.5t256 29.5q49 4 105.5 6.5t91.5 3.5t70.5 3t56 5t38 9t24.5 15.5t7 23.5q0 33 -44 53.5t-126 20.5q-96 0 -142 -17.5t-54 -64.5h-398q14 152 152.5 212t437.5 60q340 0 461 -86q70 -51 93.5 -119.5t23.5 -183.5v-309q0 -80 39 -109v-16 h-400q-20 49 -24 110q-137 -137 -432 -137q-422 0 -422 264zM467 936q0 -80 139 -80q129 0 204 48t75 126q0 13 -2 21q-27 -12 -62 -20.5t-60.5 -11.5t-74.5 -6t-74 -5q-80 -6 -112.5 -21.5t-32.5 -50.5z" />
<glyph unicode="&#xab;" horiz-adv-x="1394" d="M131 436v275l506 397v-416l-162 -119l162 -118v-416zM748 436v275l505 397v-416l-161 -119l161 -118v-416z" />
<glyph unicode="&#xac;" d="M254 602v266h1198v-501h-272v235h-926z" />
<glyph unicode="&#xad;" horiz-adv-x="995" d="M127 373v401h743v-401h-743z" />
<glyph unicode="&#xae;" d="M102 741q0 309 224 537q211 215 526 215q317 0 537 -219q217 -217 217 -532.5t-217 -526.5q-229 -225 -537 -225q-305 0 -528 223q-221 221 -222 528zM256 743q0 -246 176 -422t422 -176q244 0 426 179q172 167 172 419q0 248 -174 422q-176 176 -424 176 q-252 0 -420 -172q-178 -182 -178 -426zM528 352v813h334q176 0 266.5 -61.5t90.5 -177.5q0 -162 -164 -219l178 -355h-279l-145 312h-25v-312h-256zM784 813h54q119 0 118 98q0 95 -133 95h-39v-193z" />
<glyph unicode="&#xaf;" horiz-adv-x="1024" d="M41 1319v270h942v-270h-942z" />
<glyph unicode="&#xb0;" horiz-adv-x="673" d="M14 1149q0 135 95.5 229.5t228.5 94.5t227 -94.5t94 -229.5q0 -131 -94 -226.5t-229 -95.5q-133 0 -227.5 93.5t-94.5 228.5zM186 1150.5q0 -63.5 44 -108.5t108 -45q61 0 106 46.5t45 107.5t-45 106.5t-108 45.5q-61 0 -105.5 -44.5t-44.5 -108z" />
<glyph unicode="&#xb1;" d="M254 -41v272h1198v-272h-1198zM254 680v272h459v310h280v-310h459v-272h-459v-309h-280v309h-459z" />
<glyph unicode="&#xb2;" horiz-adv-x="1292" d="M25 575q10 211 121.5 321t357.5 163q49 10 114.5 22.5t97.5 18.5t64.5 16t45 23.5t12.5 34.5q0 70 -162 69q-209 0 -209 -117v-2h-408q14 338 586 338q590 0 590 -282q0 -111 -76 -171.5t-246 -95.5q-63 -12 -157 -27.5t-142.5 -23.5t-99.5 -25.5t-78 -41.5h778v-220 h-1189z" />
<glyph unicode="&#xb3;" horiz-adv-x="1292" d="M37 868h393q29 -88 215 -88q193 0 193 76q0 43 -42 58.5t-139 15.5h-208v205h194q94 0 132 10t38 47q0 66 -176 65q-137 0 -152 -47h-411q10 133 145 192.5t412 59.5q301 0 442 -56t141 -183q0 -145 -167 -176q197 -37 196 -203q0 -289 -594 -289q-309 0 -456.5 72.5 t-155.5 240.5z" />
<glyph unicode="&#xb4;" horiz-adv-x="1024" d="M252 1298l188 314h602l-303 -314h-487z" />
<glyph unicode="&#xb6;" horiz-adv-x="1024" d="M10 1130q0 156 105.5 252.5t283.5 96.5h615v-142h-101v-1337h-202v1337h-140v-1337h-202v784q-164 8 -261.5 103.5t-97.5 242.5z" />
<glyph unicode="&#xb7;" horiz-adv-x="978" d="M201 721q0 121 84 205t204.5 84t204.5 -84t84 -205t-84 -205t-204.5 -84t-204.5 84t-84 205z" />
<glyph unicode="&#xb8;" horiz-adv-x="1024" d="M195 -408l47 109q152 -55 229 -55q45 0 71.5 19.5t26.5 53.5q0 23 -19.5 40.5t-45.5 17.5q-33 0 -70 -25l-78 51l107 197h149l-90 -127q72 16 119 16q94 0 147.5 -48t53.5 -132q0 -193 -285 -192q-147 0 -362 75z" />
<glyph unicode="&#xb9;" horiz-adv-x="1292" d="M332 1102v219q176 27 252 119h270v-865h-338v560q-92 -27 -184 -33z" />
<glyph unicode="&#xba;" horiz-adv-x="1300" d="M47 1077q0 203 156.5 315.5t447.5 112.5t447.5 -112.5t156.5 -315.5t-156.5 -315.5t-447.5 -112.5t-447.5 112.5t-156.5 315.5zM453 1077q0 -84 53 -132t143 -48q92 0 145.5 48t53.5 132t-53.5 132t-145.5 48q-90 0 -143 -48t-53 -132z" />
<glyph unicode="&#xbb;" horiz-adv-x="1394" d="M141 39v416l162 118l-162 119v416l504 -397v-275zM758 39v416l162 118l-162 119v416l504 -397v-275z" />
<glyph unicode="&#xbc;" horiz-adv-x="2940" d="M317 1124v203q170 29 240 113h258v-807h-321v522q-92 -29 -177 -31zM748 -39l1208 1518h237l-1210 -1518h-235zM1753 127v209l520 471h457v-481h164v-199h-164v-127h-322v127h-655zM2081 322h332v301z" />
<glyph unicode="&#xbd;" horiz-adv-x="2940" d="M317 1124v203q170 29 240 113h258v-807h-321v522q-92 -29 -177 -31zM748 -39l1208 1518h237l-1210 -1518h-235zM1729 0q10 197 116.5 300t341.5 153q47 10 109.5 21t92.5 16.5t61.5 15.5t43 22.5t11.5 30.5q0 66 -154 66q-199 0 -199 -111v-2h-389q14 315 559 315 q561 0 562 -264q0 -102 -73 -159.5t-235 -88.5q-61 -12 -150 -26.5t-135 -22.5t-94.5 -23.5t-74.5 -37.5h743v-205h-1136z" />
<glyph unicode="&#xbe;" horiz-adv-x="2940" d="M37 907h373q29 -84 206 -84q184 0 185 72q0 41 -40 55.5t-132 14.5h-201v190h184q90 0 127 10.5t37 42.5q0 61 -168 62q-131 0 -145 -43h-393q10 123 140 178t392 55q287 0 422 -53t135 -170q0 -135 -160 -166q186 -31 187 -186q0 -272 -565 -273q-295 0 -435.5 68.5 t-148.5 226.5zM748 -39l1208 1518h237l-1210 -1518h-235zM1753 127v209l520 471h457v-481h164v-199h-164v-127h-322v127h-655zM2081 322h332v301z" />
<glyph unicode="&#xbf;" horiz-adv-x="1744" d="M29 408q0 133 68.5 209.5t232.5 142.5q31 12 90 33.5t82.5 32t51.5 32t40 49.5h534v-24q0 -102 -50 -166t-163 -111q-45 -18 -118.5 -39.5t-96.5 -36.5q-70 -43 -69 -116q0 -121 209 -121q270 0 270 227v10h578q0 -299 -199 -434t-627 -135q-424 0 -628.5 108.5 t-204.5 338.5zM594 1006v475h534v-475h-534z" />
<glyph unicode="&#xc0;" horiz-adv-x="1849" d="M-59 0l641 1479h727l598 -1479h-621l-49 145h-629l-53 -145h-614zM414 1944h602l188 -314h-487zM743 510h367l-178 520z" />
<glyph unicode="&#xc1;" horiz-adv-x="1849" d="M-59 0l641 1479h727l598 -1479h-621l-49 145h-629l-53 -145h-614zM684 1630l188 314h602l-303 -314h-487zM743 510h367l-178 520z" />
<glyph unicode="&#xc2;" horiz-adv-x="1849" d="M-59 0l641 1479h727l598 -1479h-621l-49 145h-629l-53 -145h-614zM336 1628l325 314h576l315 -314h-506l-102 148l-102 -148h-506zM743 510h367l-178 520z" />
<glyph unicode="&#xc3;" horiz-adv-x="1849" d="M-59 0l641 1479h727l598 -1479h-621l-49 145h-629l-53 -145h-614zM405 1635q18 154 99.5 234.5t214.5 80.5q96 0 209.5 -38t138.5 -38q80 0 84 74h332q-18 -154 -99.5 -235t-214.5 -81q-96 0 -209.5 38t-138.5 38q-80 0 -84 -73h-332zM743 510h367l-178 520z" />
<glyph unicode="&#xc4;" horiz-adv-x="1849" d="M-59 0l641 1479h727l598 -1479h-621l-49 145h-629l-53 -145h-614zM471 1641v290h407v-290h-407zM743 510h367l-178 520zM1007 1641v290h408v-290h-408z" />
<glyph unicode="&#xc5;" horiz-adv-x="1849" d="M-59 0l632 1454h744l590 -1454h-621l-49 145h-629l-53 -145h-614zM621 1746.5q0 104.5 79.5 165t223 60.5t223.5 -60.5t80 -165t-80 -165.5t-223.5 -61t-223 61t-79.5 165.5zM743 510h367l-178 520zM825 1747q0 -41 26 -65.5t71 -24.5t72.5 24.5t27.5 65.5t-27.5 64.5 t-72.5 23.5t-71 -23.5t-26 -64.5z" />
<glyph unicode="&#xc6;" horiz-adv-x="2725" d="M-160 0l926 1479h1886v-363h-993v-176h807v-365h-807v-194h1044v-381h-1599v250h-563l-140 -250h-561zM731 596h373v543h-66z" />
<glyph unicode="&#xc7;" horiz-adv-x="2105" d="M76 739q0 385 251 582t744 197q461 0 712 -171t267 -489h-655q-14 137 -97.5 209t-226.5 72q-184 0 -281.5 -102.5t-97.5 -297.5q0 -193 97.5 -295t281.5 -102q268 0 322 240h661q-45 -305 -294 -463t-689 -158q-494 0 -744.5 196.5t-250.5 581.5zM846 -408l47 109 q152 -55 229 -55q45 0 71.5 19.5t26.5 53.5q0 23 -19.5 40.5t-45.5 17.5q-33 0 -70 -25l-78 51l107 197h149l-90 -127q72 16 119 16q94 0 147.5 -48t53.5 -132q0 -193 -285 -192q-147 0 -362 75z" />
<glyph unicode="&#xc8;" horiz-adv-x="1800" d="M162 0v1479h1567v-363h-994v-176h805v-365h-805v-194h1043v-381h-1616zM414 1944h602l188 -314h-487z" />
<glyph unicode="&#xc9;" horiz-adv-x="1800" d="M162 0v1479h1567v-363h-994v-176h805v-365h-805v-194h1043v-381h-1616zM684 1630l188 314h602l-303 -314h-487z" />
<glyph unicode="&#xca;" horiz-adv-x="1800" d="M162 0v1479h1567v-363h-994v-176h805v-365h-805v-194h1043v-381h-1616zM336 1628l325 314h576l315 -314h-506l-102 148l-102 -148h-506z" />
<glyph unicode="&#xcb;" horiz-adv-x="1800" d="M162 0v1479h1567v-363h-994v-176h805v-365h-805v-194h1043v-381h-1616zM471 1641v290h407v-290h-407zM1007 1641v290h408v-290h-408z" />
<glyph unicode="&#xcc;" horiz-adv-x="894" d="M-81 1944h602l188 -314h-487zM162 0v1479h573v-1479h-573z" />
<glyph unicode="&#xcd;" horiz-adv-x="894" d="M162 0v1479h573v-1479h-573zM189 1630l188 314h602l-303 -314h-487z" />
<glyph unicode="&#xce;" horiz-adv-x="894" d="M-159 1628l325 314h576l315 -314h-506l-102 148l-102 -148h-506zM162 0v1479h573v-1479h-573z" />
<glyph unicode="&#xcf;" horiz-adv-x="894" d="M-24 1641v290h407v-290h-407zM162 0v1479h573v-1479h-573zM512 1641v290h408v-290h-408z" />
<glyph unicode="&#xd0;" horiz-adv-x="2142" d="M10 645v238h160v598h950q463 0 701.5 -190.5t238.5 -551t-238.5 -550t-701.5 -189.5h-950v645h-160zM743 393h287q217 0 315.5 82t98.5 279q0 193 -98.5 276.5t-315.5 83.5h-287v-231h342v-238h-342v-252z" />
<glyph unicode="&#xd1;" horiz-adv-x="2125" d="M160 0v1479h678l571 -852v852h555v-1479h-643l-621 866v-866h-540zM524 1635q18 154 99.5 234.5t214.5 80.5q96 0 209.5 -38t138.5 -38q80 0 84 74h332q-18 -154 -99.5 -235t-214.5 -81q-96 0 -209.5 38t-138.5 38q-80 0 -84 -73h-332z" />
<glyph unicode="&#xd2;" horiz-adv-x="2142" d="M76 739q0 385 251 582t744.5 197t744 -197t250.5 -582t-250.5 -581.5t-744 -196.5t-744.5 196.5t-251 581.5zM541 1944h602l188 -314h-487zM692 739q0 -193 97.5 -295t281.5 -102t281.5 102.5t97.5 294.5q0 195 -97.5 297.5t-281.5 102.5t-281.5 -102.5t-97.5 -297.5z " />
<glyph unicode="&#xd3;" horiz-adv-x="2142" d="M76 739q0 385 251 582t744.5 197t744 -197t250.5 -582t-250.5 -581.5t-744 -196.5t-744.5 196.5t-251 581.5zM692 739q0 -193 97.5 -295t281.5 -102t281.5 102.5t97.5 294.5q0 195 -97.5 297.5t-281.5 102.5t-281.5 -102.5t-97.5 -297.5zM811 1630l188 314h602l-303 -314 h-487z" />
<glyph unicode="&#xd4;" horiz-adv-x="2142" d="M76 739q0 385 251 582t744.5 197t744 -197t250.5 -582t-250.5 -581.5t-744 -196.5t-744.5 196.5t-251 581.5zM463 1628l325 314h576l315 -314h-506l-102 148l-102 -148h-506zM692 739q0 -193 97.5 -295t281.5 -102t281.5 102.5t97.5 294.5q0 195 -97.5 297.5 t-281.5 102.5t-281.5 -102.5t-97.5 -297.5z" />
<glyph unicode="&#xd5;" horiz-adv-x="2142" d="M76 739q0 385 251 582t744.5 197t744 -197t250.5 -582t-250.5 -581.5t-744 -196.5t-744.5 196.5t-251 581.5zM532 1635q18 154 99.5 234.5t214.5 80.5q96 0 209.5 -38t138.5 -38q80 0 84 74h332q-18 -154 -99.5 -235t-214.5 -81q-96 0 -209.5 38t-138.5 38q-80 0 -84 -73 h-332zM692 739q0 -193 97.5 -295t281.5 -102t281.5 102.5t97.5 294.5q0 195 -97.5 297.5t-281.5 102.5t-281.5 -102.5t-97.5 -297.5z" />
<glyph unicode="&#xd6;" horiz-adv-x="2142" d="M76 739q0 385 251 582t744.5 197t744 -197t250.5 -582t-250.5 -581.5t-744 -196.5t-744.5 196.5t-251 581.5zM598 1641v290h407v-290h-407zM692 739q0 -193 97.5 -295t281.5 -102t281.5 102.5t97.5 294.5q0 195 -97.5 297.5t-281.5 102.5t-281.5 -102.5t-97.5 -297.5z M1134 1641v290h408v-290h-408z" />
<glyph unicode="&#xd7;" d="M254 184l426 426l-426 426l195 195l425 -426l426 426l195 -195l-426 -426l426 -426l-195 -194l-426 426l-425 -426z" />
<glyph unicode="&#xd8;" horiz-adv-x="2142" d="M76 25l205 176q-205 190 -205 538q0 385 251 582t744 197q418 0 635 -127l205 170l123 -142l-170 -143q203 -190 202 -537q0 -385 -250.5 -581.5t-744.5 -196.5q-399 0 -627 123l-243 -207zM692 748q0 -81 25 -183l604 502q-86 72 -250 72q-182 0 -280.5 -102.5 t-98.5 -288.5zM829 408q88 -66 242 -66q186 0 283.5 104.5t97.5 301.5q0 89 -29 159z" />
<glyph unicode="&#xd9;" horiz-adv-x="2070" d="M162 702v777h573v-723q0 -215 64.5 -305.5t236.5 -90.5t235.5 90.5t63.5 305.5v723h574v-777q0 -387 -211 -565t-661.5 -178t-662.5 179t-212 564zM506 1944h602l188 -314h-487z" />
<glyph unicode="&#xda;" horiz-adv-x="2070" d="M162 702v777h573v-723q0 -215 64.5 -305.5t236.5 -90.5t235.5 90.5t63.5 305.5v723h574v-777q0 -387 -211 -565t-661.5 -178t-662.5 179t-212 564zM776 1630l188 314h602l-303 -314h-487z" />
<glyph unicode="&#xdb;" horiz-adv-x="2070" d="M162 702v777h573v-723q0 -215 64.5 -305.5t236.5 -90.5t235.5 90.5t63.5 305.5v723h574v-777q0 -387 -211 -565t-661.5 -178t-662.5 179t-212 564zM428 1628l325 314h576l315 -314h-506l-102 148l-102 -148h-506z" />
<glyph unicode="&#xdc;" horiz-adv-x="2070" d="M162 702v777h573v-723q0 -215 64.5 -305.5t236.5 -90.5t235.5 90.5t63.5 305.5v723h574v-777q0 -387 -211 -565t-661.5 -178t-662.5 179t-212 564zM563 1641v290h407v-290h-407zM1099 1641v290h408v-290h-408z" />
<glyph unicode="&#xdd;" d="M-88 1479h674l266 -609l283 609h659l-659 -1061v-418h-574v418zM594 1630l188 314h602l-303 -314h-487z" />
<glyph unicode="&#xde;" horiz-adv-x="1955" d="M162 0v1479h573v-246h533q315 0 485 -126t170 -353.5t-170 -353.5t-485 -126h-533v-274h-573zM735 596h314q135 0 191 34t56 126t-56 125.5t-191 33.5h-314v-319z" />
<glyph unicode="&#xdf;" horiz-adv-x="1865" d="M135 0v946q0 172 41 274.5t158 182.5q180 125 627 125q381 0 562 -95.5t181 -304.5q0 -203 -191 -268q281 -66 281 -385q0 -504 -688 -504q-180 0 -344 47v359q133 -29 233 -29q250 0 250 164q0 102 -83 135t-290 33h-63v270h94q123 0 177.5 27t54.5 92q0 115 -187 115 q-176 0 -239 -66q-59 -63 -60 -315v-803h-514z" />
<glyph unicode="&#xe0;" horiz-adv-x="1824" d="M41 340q0 127 61 205q51 63 137.5 98t161 44t230.5 20q66 4 140.5 8t120.5 5t95 4t76 7t50.5 13.5t32.5 21.5t9 33q0 47 -59.5 75.5t-167.5 28.5q-129 0 -190.5 -24.5t-71.5 -90.5h-529q16 215 201.5 302.5t585.5 87.5q453 0 612 -125q92 -72 125 -171.5t33 -260.5v-443 q0 -115 51 -153v-25h-533q-28 68 -32 158q-100 -106 -237.5 -150.5t-338.5 -44.5q-563 0 -563 377zM404 1612h602l188 -314h-487zM623 371q0 -53 48 -83t138 -30q172 0 271.5 68.5t99.5 179.5q0 19 -2 29q-37 -18 -84 -29.5t-79 -15t-101.5 -8.5t-96.5 -7 q-106 -10 -150 -31.5t-44 -72.5z" />
<glyph unicode="&#xe1;" horiz-adv-x="1824" d="M41 340q0 127 61 205q51 63 137.5 98t161 44t230.5 20q66 4 140.5 8t120.5 5t95 4t76 7t50.5 13.5t32.5 21.5t9 33q0 47 -59.5 75.5t-167.5 28.5q-129 0 -190.5 -24.5t-71.5 -90.5h-529q16 215 201.5 302.5t585.5 87.5q453 0 612 -125q92 -72 125 -171.5t33 -260.5v-443 q0 -115 51 -153v-25h-533q-28 68 -32 158q-100 -106 -237.5 -150.5t-338.5 -44.5q-563 0 -563 377zM623 371q0 -53 48 -83t138 -30q172 0 271.5 68.5t99.5 179.5q0 19 -2 29q-37 -18 -84 -29.5t-79 -15t-101.5 -8.5t-96.5 -7q-106 -10 -150 -31.5t-44 -72.5zM674 1298 l188 314h602l-303 -314h-487z" />
<glyph unicode="&#xe2;" horiz-adv-x="1824" d="M41 340q0 127 61 205q51 63 137.5 98t161 44t230.5 20q66 4 140.5 8t120.5 5t95 4t76 7t50.5 13.5t32.5 21.5t9 33q0 47 -59.5 75.5t-167.5 28.5q-129 0 -190.5 -24.5t-71.5 -90.5h-529q16 215 201.5 302.5t585.5 87.5q453 0 612 -125q92 -72 125 -171.5t33 -260.5v-443 q0 -115 51 -153v-25h-533q-28 68 -32 158q-100 -106 -237.5 -150.5t-338.5 -44.5q-563 0 -563 377zM326 1296l325 314h576l315 -314h-506l-102 148l-102 -148h-506zM623 371q0 -53 48 -83t138 -30q172 0 271.5 68.5t99.5 179.5q0 19 -2 29q-37 -18 -84 -29.5t-79 -15 t-101.5 -8.5t-96.5 -7q-106 -10 -150 -31.5t-44 -72.5z" />
<glyph unicode="&#xe3;" horiz-adv-x="1824" d="M41 340q0 127 61 205q51 63 137.5 98t161 44t230.5 20q66 4 140.5 8t120.5 5t95 4t76 7t50.5 13.5t32.5 21.5t9 33q0 47 -59.5 75.5t-167.5 28.5q-129 0 -190.5 -24.5t-71.5 -90.5h-529q16 215 201.5 302.5t585.5 87.5q453 0 612 -125q92 -72 125 -171.5t33 -260.5v-443 q0 -115 51 -153v-25h-533q-28 68 -32 158q-100 -106 -237.5 -150.5t-338.5 -44.5q-563 0 -563 377zM395 1303q18 154 99.5 234.5t214.5 80.5q96 0 209.5 -38t138.5 -38q80 0 84 74h332q-18 -154 -99.5 -235t-214.5 -81q-96 0 -209.5 38t-138.5 38q-80 0 -84 -73h-332z M623 371q0 -53 48 -83t138 -30q172 0 271.5 68.5t99.5 179.5q0 19 -2 29q-37 -18 -84 -29.5t-79 -15t-101.5 -8.5t-96.5 -7q-106 -10 -150 -31.5t-44 -72.5z" />
<glyph unicode="&#xe4;" horiz-adv-x="1824" d="M41 340q0 127 61 205q51 63 137.5 98t161 44t230.5 20q66 4 140.5 8t120.5 5t95 4t76 7t50.5 13.5t32.5 21.5t9 33q0 47 -59.5 75.5t-167.5 28.5q-129 0 -190.5 -24.5t-71.5 -90.5h-529q16 215 201.5 302.5t585.5 87.5q453 0 612 -125q92 -72 125 -171.5t33 -260.5v-443 q0 -115 51 -153v-25h-533q-28 68 -32 158q-100 -106 -237.5 -150.5t-338.5 -44.5q-563 0 -563 377zM461 1309v290h407v-290h-407zM623 371q0 -53 48 -83t138 -30q172 0 271.5 68.5t99.5 179.5q0 19 -2 29q-37 -18 -84 -29.5t-79 -15t-101.5 -8.5t-96.5 -7 q-106 -10 -150 -31.5t-44 -72.5zM997 1309v290h408v-290h-408z" />
<glyph unicode="&#xe5;" horiz-adv-x="1824" d="M41 340q0 127 61 205q51 63 137.5 98t161 44t230.5 20q66 4 140.5 8t120.5 5t95 4t76 7t50.5 13.5t32.5 21.5t9 33q0 47 -59.5 75.5t-167.5 28.5q-129 0 -190.5 -24.5t-71.5 -90.5h-529q16 215 201.5 302.5t585.5 87.5q453 0 612 -125q92 -72 125 -171.5t33 -260.5v-443 q0 -115 51 -153v-25h-533q-28 68 -32 158q-100 -106 -237.5 -150.5t-338.5 -44.5q-563 0 -563 377zM621 1470.5q0 104.5 79.5 165t223 60.5t223.5 -60.5t80 -165t-80 -166t-223.5 -61.5t-223 61.5t-79.5 166zM623 371q0 -53 48 -83t138 -30q172 0 271.5 68.5t99.5 179.5 q0 19 -2 29q-37 -18 -84 -29.5t-79 -15t-101.5 -8.5t-96.5 -7q-106 -10 -150 -31.5t-44 -72.5zM825 1470.5q0 -40.5 26 -65.5t71 -25t72.5 25t27.5 65.5t-27.5 65.5t-72.5 25t-71 -25t-26 -65.5z" />
<glyph unicode="&#xe6;" horiz-adv-x="2789" d="M41 340q0 127 61 205q51 63 137.5 98t161 44t230.5 20q66 4 140.5 8t120.5 5t95 4t76 7t50.5 13.5t32.5 21.5t9 33q0 47 -59.5 75.5t-167.5 28.5q-129 0 -190.5 -24.5t-71.5 -90.5h-529q14 205 193.5 297.5t543.5 92.5q188 0 311.5 -29t203.5 -102q178 139 526 139 q395 0 606 -182.5t211 -520.5v-28h-1108q0 -92 77 -143.5t220 -51.5q188 0 244 90h557q-117 -389 -832 -389q-458 0 -622 209q-238 -209 -678 -209q-270 0 -409.5 97.5t-139.5 281.5zM623 371q0 -53 48 -83t138 -30q172 0 271.5 68.5t99.5 179.5q0 19 -2 29 q-37 -18 -84 -29.5t-79 -15t-101.5 -8.5t-96.5 -7q-106 -10 -150 -31.5t-44 -72.5zM1599 700h609q-10 94 -85 146.5t-204 52.5q-279 0 -320 -199z" />
<glyph unicode="&#xe7;" horiz-adv-x="1767" d="M61 573q0 289 213 451t609 162q737 0 809 -496h-549q-61 158 -248 158q-137 0 -215 -73t-78 -200q0 -125 76 -197.5t205 -72.5q109 0 181.5 53.5t90.5 145.5h547q-55 -543 -819 -543q-395 0 -608.5 161t-213.5 451zM414 -408l47 109q152 -55 229 -55q45 0 71.5 19.5 t26.5 53.5q0 23 -19.5 40.5t-45.5 17.5q-33 0 -70 -25l-78 51l107 197h149l-90 -127q72 16 119 16q94 0 147.5 -48t53.5 -132q0 -193 -285 -192q-147 0 -362 75z" />
<glyph unicode="&#xe8;" horiz-adv-x="1775" d="M61 573.5q0 290.5 211 451.5t605 161q416 0 628.5 -180.5t212.5 -530.5v-20h-1108q0 -92 77 -143.5t220 -51.5q188 0 244 90h557q-117 -389 -831 -389q-393 0 -604.5 161t-211.5 451.5zM359 1612h602l188 -314h-487zM584 700h608q-10 94 -85 146.5t-202 52.5 q-280 0 -321 -199z" />
<glyph unicode="&#xe9;" horiz-adv-x="1775" d="M61 573.5q0 290.5 211 451.5t605 161q416 0 628.5 -180.5t212.5 -530.5v-20h-1108q0 -92 77 -143.5t220 -51.5q188 0 244 90h557q-117 -389 -831 -389q-393 0 -604.5 161t-211.5 451.5zM584 700h608q-10 94 -85 146.5t-202 52.5q-280 0 -321 -199zM629 1298l188 314h602 l-303 -314h-487z" />
<glyph unicode="&#xea;" horiz-adv-x="1775" d="M61 573.5q0 290.5 211 451.5t605 161q416 0 628.5 -180.5t212.5 -530.5v-20h-1108q0 -92 77 -143.5t220 -51.5q188 0 244 90h557q-117 -389 -831 -389q-393 0 -604.5 161t-211.5 451.5zM281 1296l325 314h576l315 -314h-506l-102 148l-102 -148h-506zM584 700h608 q-10 94 -85 146.5t-202 52.5q-280 0 -321 -199z" />
<glyph unicode="&#xeb;" horiz-adv-x="1775" d="M61 573.5q0 290.5 211 451.5t605 161q416 0 628.5 -180.5t212.5 -530.5v-20h-1108q0 -92 77 -143.5t220 -51.5q188 0 244 90h557q-117 -389 -831 -389q-393 0 -604.5 161t-211.5 451.5zM416 1309v290h407v-290h-407zM584 700h608q-10 94 -85 146.5t-202 52.5 q-280 0 -321 -199zM952 1309v290h408v-290h-408z" />
<glyph unicode="&#xec;" horiz-adv-x="827" d="M-116 1612h602l188 -314h-487zM154 0v1147h522v-1147h-522z" />
<glyph unicode="&#xed;" horiz-adv-x="827" d="M154 0v1147h522v-1147h-522zM154 1298l188 314h602l-303 -314h-487z" />
<glyph unicode="&#xee;" horiz-adv-x="827" d="M-194 1296l325 314h576l315 -314h-506l-102 148l-102 -148h-506zM154 0v1147h522v-1147h-522z" />
<glyph unicode="&#xef;" horiz-adv-x="827" d="M-59 1309v290h407v-290h-407zM154 0v1147h522v-1147h-522zM477 1309v290h408v-290h-408z" />
<glyph unicode="&#xf0;" horiz-adv-x="1574" d="M61 512q0 244 185.5 375t541.5 131q33 0 127 -8q-43 76 -102 145l-438 -96l-29 133l361 82q-20 27 -64 69l209 197q72 -51 211 -197l346 72l33 -131l-271 -57q340 -385 340 -715q0 -260 -188 -405.5t-536.5 -145.5t-537 145.5t-188.5 405.5zM549 512q0 -106 64.5 -168.5 t172.5 -62.5q106 0 172 62.5t66 168.5t-65.5 169.5t-172.5 63.5q-109 0 -173 -63.5t-64 -169.5z" />
<glyph unicode="&#xf1;" horiz-adv-x="1716" d="M135 0v1147h512v-119q201 141 453 141q256 0 370.5 -130t114.5 -404v-635h-512v539q0 123 -39 174t-145 51q-113 0 -177.5 -54.5t-64.5 -148.5v-561h-512zM319 1303q18 154 99.5 234.5t214.5 80.5q96 0 209.5 -38t138.5 -38q80 0 84 74h332q-18 -154 -99.5 -235 t-214.5 -81q-96 0 -209.5 38t-138.5 38q-80 0 -84 -73h-332z" />
<glyph unicode="&#xf2;" horiz-adv-x="1734" d="M61 573.5q0 288.5 209 450.5t598 162t597 -161t208 -451.5t-208 -451.5t-597 -161t-598 162t-209 450.5zM338 1612h602l188 -314h-487zM602 573.5q0 -118.5 71.5 -188.5t192.5 -70t192.5 70t71.5 188.5t-71.5 188t-192.5 69.5t-192.5 -69.5t-71.5 -188z" />
<glyph unicode="&#xf3;" horiz-adv-x="1734" d="M61 573.5q0 288.5 209 450.5t598 162t597 -161t208 -451.5t-208 -451.5t-597 -161t-598 162t-209 450.5zM602 573.5q0 -118.5 71.5 -188.5t192.5 -70t192.5 70t71.5 188.5t-71.5 188t-192.5 69.5t-192.5 -69.5t-71.5 -188zM608 1298l188 314h602l-303 -314h-487z" />
<glyph unicode="&#xf4;" horiz-adv-x="1734" d="M61 573.5q0 288.5 209 450.5t598 162t597 -161t208 -451.5t-208 -451.5t-597 -161t-598 162t-209 450.5zM260 1296l325 314h576l315 -314h-506l-102 148l-102 -148h-506zM602 573.5q0 -118.5 71.5 -188.5t192.5 -70t192.5 70t71.5 188.5t-71.5 188t-192.5 69.5 t-192.5 -69.5t-71.5 -188z" />
<glyph unicode="&#xf5;" horiz-adv-x="1734" d="M61 573.5q0 288.5 209 450.5t598 162t597 -161t208 -451.5t-208 -451.5t-597 -161t-598 162t-209 450.5zM329 1303q18 154 99.5 234.5t214.5 80.5q96 0 209.5 -38t138.5 -38q80 0 84 74h332q-18 -154 -99.5 -235t-214.5 -81q-96 0 -209.5 38t-138.5 38q-80 0 -84 -73 h-332zM602 573.5q0 -118.5 71.5 -188.5t192.5 -70t192.5 70t71.5 188.5t-71.5 188t-192.5 69.5t-192.5 -69.5t-71.5 -188z" />
<glyph unicode="&#xf6;" horiz-adv-x="1734" d="M61 573.5q0 288.5 209 450.5t598 162t597 -161t208 -451.5t-208 -451.5t-597 -161t-598 162t-209 450.5zM395 1309v290h407v-290h-407zM602 573.5q0 -118.5 71.5 -188.5t192.5 -70t192.5 70t71.5 188.5t-71.5 188t-192.5 69.5t-192.5 -69.5t-71.5 -188zM931 1309v290h408 v-290h-408z" />
<glyph unicode="&#xf7;" d="M254 475v273h1198v-273h-1198zM670 188q0 78 54 130.5t130 52.5q74 0 128 -53.5t54 -129.5q0 -74 -53 -128t-131 -54q-76 0 -129 53.5t-53 128.5zM670 1032q0 78 54 131.5t130 53.5q74 0 128 -54.5t54 -130.5q0 -74 -53 -128t-131 -54q-76 0 -129 53t-53 129z" />
<glyph unicode="&#xf8;" horiz-adv-x="1734" d="M57 45l158 129q-154 166 -154 399q0 289 209 451t598 162q324 0 512 -105l187 148l100 -129l-151 -121q158 -164 157 -406q0 -291 -208 -451.5t-597 -160.5q-330 0 -520 109l-192 -154zM596 575q0 -55 14 -106l418 328q-74 43 -160 43q-123 0 -197.5 -73t-74.5 -192z M700 354q82 -47 168 -47q123 0 197 72t74 194q-1 64 -17 111z" />
<glyph unicode="&#xf9;" horiz-adv-x="1716" d="M131 512v635h512v-539q0 -123 39 -174t145 -51q113 0 177.5 54.5t64.5 148.5v561h512v-1147h-512v119q-201 -141 -453 -142q-256 0 -370.5 130.5t-114.5 404.5zM328 1612h602l188 -314h-487z" />
<glyph unicode="&#xfa;" horiz-adv-x="1716" d="M131 512v635h512v-539q0 -123 39 -174t145 -51q113 0 177.5 54.5t64.5 148.5v561h512v-1147h-512v119q-201 -141 -453 -142q-256 0 -370.5 130.5t-114.5 404.5zM598 1298l188 314h602l-303 -314h-487z" />
<glyph unicode="&#xfb;" horiz-adv-x="1716" d="M131 512v635h512v-539q0 -123 39 -174t145 -51q113 0 177.5 54.5t64.5 148.5v561h512v-1147h-512v119q-201 -141 -453 -142q-256 0 -370.5 130.5t-114.5 404.5zM250 1296l325 314h576l315 -314h-506l-102 148l-102 -148h-506z" />
<glyph unicode="&#xfc;" horiz-adv-x="1716" d="M131 512v635h512v-539q0 -123 39 -174t145 -51q113 0 177.5 54.5t64.5 148.5v561h512v-1147h-512v119q-201 -141 -453 -142q-256 0 -370.5 130.5t-114.5 404.5zM385 1309v290h407v-290h-407zM921 1309v290h408v-290h-408z" />
<glyph unicode="&#xfd;" horiz-adv-x="1478" d="M-59 1147h559l186 -408q45 -98 66 -182q16 68 53 154l184 436h545l-485 -993q-156 -319 -234 -394q-68 -66 -143.5 -88t-192.5 -22h-356v334h113q109 0 158.5 36.5t74.5 139.5zM479 1298l188 314h602l-303 -314h-487z" />
<glyph unicode="&#xfe;" horiz-adv-x="1777" d="M139 -371v1862h512v-436q188 121 432 121q289 0 460 -164t171 -439q0 -276 -172 -439t-465 -163q-244 0 -426 123v-465h-512zM651 573.5q0 -116.5 72 -185.5t190.5 -69t190.5 69t72 185.5t-73 185t-189.5 68.5t-189.5 -68.5t-73 -185z" />
<glyph unicode="&#xff;" horiz-adv-x="1478" d="M-59 1147h559l186 -408q45 -98 66 -182q16 68 53 154l184 436h545l-485 -993q-156 -319 -234 -394q-68 -66 -143.5 -88t-192.5 -22h-356v334h113q109 0 158.5 36.5t74.5 139.5zM266 1309v290h407v-290h-407zM802 1309v290h408v-290h-408z" />
<glyph unicode="&#x152;" horiz-adv-x="3039" d="M76 711q0 389 219 599t627 210q317 0 477 -152v111h1567v-363h-994v-176h805v-365h-805v-194h1043v-381h-1616v119q-160 -160 -510 -160q-387 0 -600 197.5t-213 554.5zM692 739q0 -193 97.5 -295t281.5 -102q328 0 328 287v223q0 139 -84 213t-244 74 q-184 0 -281.5 -102.5t-97.5 -297.5z" />
<glyph unicode="&#x153;" horiz-adv-x="2740" d="M61 573q0 283 206 448t573 165q319 0 516 -170q172 170 518 170q389 0 599 -183.5t210 -519.5v-28h-1108q0 -92 77 -143.5t220 -51.5q188 0 244 90h557q-53 -182 -259 -285.5t-534 -103.5q-319 0 -526 180q-213 -180 -537 -180q-350 0 -553 167t-203 445zM602 573.5 q0 -118.5 71.5 -188.5t192.5 -70t192.5 70t71.5 188.5t-71.5 188t-192.5 69.5t-192.5 -69.5t-71.5 -188zM1550 700h609q-10 94 -85 146.5t-204 52.5q-279 0 -320 -199z" />
<glyph unicode="&#x178;" d="M-88 1479h674l266 -609l283 609h659l-659 -1061v-418h-574v418zM381 1641v290h407v-290h-407zM917 1641v290h408v-290h-408z" />
<glyph unicode="&#x2c6;" horiz-adv-x="1024" d="M-96 1296l325 314h576l315 -314h-506l-102 148l-102 -148h-506z" />
<glyph unicode="&#x2dc;" horiz-adv-x="1024" d="M-27 1303q18 154 99.5 234.5t214.5 80.5q96 0 209.5 -38t138.5 -38q80 0 84 74h332q-18 -154 -99.5 -235t-214.5 -81q-96 0 -209.5 38t-138.5 38q-80 0 -84 -73h-332z" />
<glyph unicode="&#x2000;" horiz-adv-x="986" />
<glyph unicode="&#x2001;" horiz-adv-x="1972" />
<glyph unicode="&#x2002;" horiz-adv-x="986" />
<glyph unicode="&#x2003;" horiz-adv-x="1972" />
<glyph unicode="&#x2004;" horiz-adv-x="657" />
<glyph unicode="&#x2005;" horiz-adv-x="493" />
<glyph unicode="&#x2006;" horiz-adv-x="328" />
<glyph unicode="&#x2007;" horiz-adv-x="328" />
<glyph unicode="&#x2008;" horiz-adv-x="246" />
<glyph unicode="&#x2009;" horiz-adv-x="394" />
<glyph unicode="&#x200a;" horiz-adv-x="109" />
<glyph unicode="&#x2010;" horiz-adv-x="995" d="M127 373v401h743v-401h-743z" />
<glyph unicode="&#x2011;" horiz-adv-x="995" d="M127 373v401h743v-401h-743z" />
<glyph unicode="&#x2012;" horiz-adv-x="995" d="M127 373v401h743v-401h-743z" />
<glyph unicode="&#x2013;" horiz-adv-x="1024" d="M0 420v332h1024v-332h-1024z" />
<glyph unicode="&#x2014;" horiz-adv-x="2048" d="M0 420v332h2048v-332h-2048z" />
<glyph unicode="&#x2018;" horiz-adv-x="854" d="M158 723v313q0 117 24.5 188.5t98.5 129.5q127 100 346 164l45 -189q-131 -43 -133 -131h155v-475h-536z" />
<glyph unicode="&#x2019;" horiz-adv-x="854" d="M160 1006v473h534v-314q0 -117 -23.5 -187.5t-97.5 -127.5q-127 -100 -346 -164l-45 186q129 41 131 134h-153z" />
<glyph unicode="&#x201a;" horiz-adv-x="854" d="M160 0v473h534v-313q0 -117 -23.5 -187.5t-97.5 -128.5q-127 -100 -346 -163l-45 188q129 41 131 131h-153z" />
<glyph unicode="&#x201c;" horiz-adv-x="1550" d="M158 723v313q0 117 24.5 188.5t98.5 129.5q127 100 346 164l45 -189q-131 -43 -133 -131h155v-475h-536zM856 723v313q0 117 23.5 188.5t97.5 129.5q127 100 346 164l45 -189q-129 -41 -131 -131h154v-475h-535z" />
<glyph unicode="&#x201d;" horiz-adv-x="1550" d="M154 1006v473h536v-314q0 -117 -24.5 -187.5t-98.5 -127.5q-129 -100 -344 -164l-45 186q129 41 131 134h-155zM852 1006v473h534v-314q0 -117 -23.5 -187.5t-96.5 -127.5q-127 -100 -346 -164l-46 186q129 41 132 134h-154z" />
<glyph unicode="&#x201e;" horiz-adv-x="1550" d="M154 0v473h536v-313q0 -117 -24.5 -187.5t-98.5 -128.5q-129 -100 -344 -163l-45 188q129 41 131 131h-155zM852 0v473h534v-313q0 -117 -23.5 -187.5t-96.5 -128.5q-127 -100 -346 -163l-46 188q129 41 132 131h-154z" />
<glyph unicode="&#x2022;" horiz-adv-x="1208" d="M307 762q0 123 87 209t210 86q121 0 208 -86t87 -209q0 -121 -87 -209t-210 -88t-209 87t-86 210z" />
<glyph unicode="&#x2026;" horiz-adv-x="2048" d="M74 0v473h536v-473h-536zM756 0v473h536v-473h-536zM1440 0v473h536v-473h-536z" />
<glyph unicode="&#x202f;" horiz-adv-x="394" />
<glyph unicode="&#x2039;" horiz-adv-x="782" d="M137 436v275l504 397v-416l-162 -119l162 -118v-416z" />
<glyph unicode="&#x203a;" horiz-adv-x="782" d="M141 39v416l162 118l-162 119v416l504 -397v-275z" />
<glyph unicode="&#x205f;" horiz-adv-x="493" />
<glyph unicode="&#x2122;" d="M164 1317v151h526v-151h-162v-408h-202v408h-162zM788 909v559h256l99 -266l98 266h256v-559h-182v367l-137 -367h-70l-137 367v-367h-183z" />
<glyph unicode="&#xe000;" horiz-adv-x="1146" d="M0 0v1147h1147v-1147h-1147z" />
<glyph unicode="&#xfb01;" horiz-adv-x="1748" d="M0 815v322h190q-2 20 -2 59q0 178 97.5 251t324.5 73q86 0 305 -11v-270h-110q-55 0 -79 -19.5t-24 -68.5v-14h213v-322h-204v-815h-521v815h-190zM1079 0v1147h520v-1147h-520zM1079 1241v291h520v-291h-520z" />
<glyph unicode="&#xfb02;" horiz-adv-x="1738" d="M0 815v322h190q-2 20 -2 59q0 178 97.5 251t324.5 73q86 0 305 -11v-270h-110q-55 0 -79 -19.5t-24 -68.5v-14h213v-322h-204v-815h-521v815h-190zM1067 0v1491h520v-1491h-520z" />
</font>
</defs>
</svg>
