<?xml version="1.0" standalone="no"?>
<!DOCTYPE svg PUBLIC "-//W3C//DTD SVG 1.1//EN" "http://www.w3.org/Graphics/SVG/1.1/DTD/svg11.dtd" >
<svg xmlns="http://www.w3.org/2000/svg">
<metadata></metadata>
<defs>
<font id="swiss_721romanextended" horiz-adv-x="1374" >
<font-face units-per-em="2048" ascent="1638" descent="-410" />
<missing-glyph horiz-adv-x="681" />
<glyph horiz-adv-x="2048" />
<glyph horiz-adv-x="2048" />
<glyph unicode="&#xd;" horiz-adv-x="681" />
<glyph unicode=" "  horiz-adv-x="681" />
<glyph unicode="&#x09;" horiz-adv-x="681" />
<glyph unicode="&#xa0;" horiz-adv-x="681" />
<glyph unicode="!" horiz-adv-x="663" d="M209 0v246h246v-246h-246zM223 940v539h217v-533l-47 -577h-123z" />
<glyph unicode="&#x22;" horiz-adv-x="614" d="M90 881v555h139v-555h-139zM385 881v555h139v-555h-139z" />
<glyph unicode="#" horiz-adv-x="1574" d="M88 449l53 145h310l92 264h-330l51 146h332l162 454h166l-162 -454h256l164 454h164l-160 -454h301l-51 -146h-303l-93 -264h322l-51 -145h-322l-162 -453h-165l161 453h-258l-162 -453h-165l159 453h-309zM616 594h261l92 264h-260z" />
<glyph unicode="$" horiz-adv-x="1366" d="M68 457h211q16 -268 348 -287v487q-268 41 -393 134.5t-125 263.5q0 168 135 272.5t383 114.5v157h118v-155q240 -8 376 -113.5t147 -279.5h-209q-31 207 -314 221v-455q295 -49 423 -139t128 -268q0 -186 -142 -293t-409 -115v-174h-118v174q-260 6 -409.5 130 t-149.5 325zM317 1061q1 -180 310 -219v438q-150 -8 -230 -66.5t-80 -152.5zM745 170q342 12 342 227q0 102 -78.5 153.5t-263.5 84.5v-465z" />
<glyph unicode="%" horiz-adv-x="1759" d="M86 1087.5q0 190.5 91 291t263 100.5t264.5 -100.5t92.5 -291t-92.5 -292t-264.5 -101.5t-263 101.5t-91 292zM233 1087q0 -270 207 -270q209 0 209 270q0 268 -209 269q-207 -1 -207 -269zM338 -39l932 1518h149l-932 -1518h-149zM961 354.5q0 190.5 92 292t264 101.5 t264 -101.5t92 -292t-92 -292t-264 -101.5t-264 101.5t-92 292zM1108 354.5q0 -270.5 209 -270.5q207 0 207 270.5t-207 270.5q-209 0 -209 -270.5z" />
<glyph unicode="&#x26;" horiz-adv-x="1611" d="M106 389q0 315 400 461q-178 154 -178 311q0 143 102 231.5t281 88.5q176 0 275 -83t99 -222q0 -227 -278 -357l387 -360q61 104 68 231h182q0 -203 -113 -358l355 -332h-275l-194 182q-207 -221 -558 -221q-246 0 -399.5 123t-153.5 305zM317 426q0 -121 110 -205 t284 -84q214 0 376 166l-466 436q-160 -76 -232 -146.5t-72 -166.5zM524 1163q0 -59 38 -111t124 -126q109 49 159 103t50 126q0 74 -49 117t-137 43q-82 0 -133.5 -44t-51.5 -108z" />
<glyph unicode="'" horiz-adv-x="317" d="M90 881v555h139v-555h-139z" />
<glyph unicode="(" horiz-adv-x="663" d="M119 544.5q0 243.5 95 470t292 464.5h151q-319 -428 -319 -934t319 -934h-151q-197 238 -292 464t-95 469.5z" />
<glyph unicode=")" horiz-adv-x="663" d="M6 -389q319 428 319.5 934t-319.5 934h152q197 -238 292 -464.5t95 -470t-95.5 -470t-291.5 -463.5h-152z" />
<glyph unicode="*" horiz-adv-x="1064" d="M152 1188l45 139l262 -86v277h147v-277l262 86l45 -139l-262 -86l162 -223l-119 -86l-162 223l-161 -223l-119 86l160 223z" />
<glyph unicode="+" horiz-adv-x="1705" d="M254 541v139h528v541h142v-541h528v-139h-528v-541h-142v541h-528z" />
<glyph unicode="," horiz-adv-x="681" d="M209 0v246h246v-246q0 -139 -53.5 -215t-192.5 -125v133q121 45 121 176q0 6 -1 16.5t-1 14.5h-119z" />
<glyph unicode="-" horiz-adv-x="948" d="M98 457v180h752v-180h-752z" />
<glyph unicode="." horiz-adv-x="681" d="M217 0v246h248v-246h-248z" />
<glyph unicode="/" horiz-adv-x="569" d="M-23 -190l560 1708h135l-559 -1708h-136z" />
<glyph unicode="0" horiz-adv-x="1366" d="M90 720.5q0 366.5 154.5 562.5t437.5 196q285 0 439.5 -196t154.5 -562.5t-154.5 -563t-439.5 -196.5q-283 0 -437.5 196.5t-154.5 563zM303 721q0 -569 381 -569q379 0 379 569t-379 569q-381 0 -381 -569z" />
<glyph unicode="1" horiz-adv-x="1366" d="M201 1040v170h32q219 0 329 64.5t124 204.5h156v-1479h-201v1040h-440z" />
<glyph unicode="2" horiz-adv-x="1366" d="M90 0v27q0 164 92 280.5t299 235.5q25 14 193 100t239 143q113 86 113 230q0 123 -96 201.5t-248 78.5q-164 0 -254 -87t-92 -255h-221v15q0 246 147.5 378t421.5 132q260 0 408.5 -125t148.5 -336q0 -150 -90 -268q-41 -53 -100.5 -99.5t-103.5 -72t-134 -70.5 q-37 -18 -114.5 -57t-113.5 -59.5t-88.5 -53.5t-87 -66.5t-59.5 -72.5h867v-199h-1127z" />
<glyph unicode="3" horiz-adv-x="1366" d="M102 449v10h207q4 -315 363 -316q178 0 278.5 72t100.5 195q0 256 -408 256q-57 0 -88 -2v170q29 -2 80 -3q360 0 360 218q0 111 -83 176t-228 65q-160 0 -249 -78.5t-89 -218.5v-8h-213v14q0 229 142.5 354.5t404.5 125.5q242 0 386 -114t144 -290q0 -246 -264 -313 q158 -14 242 -101.5t84 -232.5q0 -213 -158 -340t-434 -127q-578 0 -578 488z" />
<glyph unicode="4" horiz-adv-x="1366" d="M80 362v195l772 885h192v-899h244v-181h-244v-362h-213v362h-751zM283 543h548l13 680z" />
<glyph unicode="5" horiz-adv-x="1366" d="M94 397h211q41 -246 346 -245q176 0 283.5 92t107.5 239q0 143 -105.5 233.5t-274.5 90.5q-225 0 -324 -156h-205l129 791h887v-187h-729l-70 -407q131 131 369 131q190 0 323 -86q102 -66 160 -170.5t58 -224.5q0 -236 -166 -386.5t-441 -150.5q-240 0 -388 115.5 t-171 320.5z" />
<glyph unicode="6" horiz-adv-x="1366" d="M82 680q0 385 168 592t477 207q211 0 343 -95.5t161 -265.5h-209q-59 182 -295 182q-424 0 -424 -569q170 225 473 225q233 0 376.5 -133t143.5 -344q0 -229 -165.5 -373.5t-438.5 -144.5q-295 0 -452.5 185.5t-157.5 533.5zM330 463q0 -135 99 -220t267 -85 q178 0 283.5 86t105.5 223q0 139 -103 226t-275 87q-168 0 -272.5 -90t-104.5 -227z" />
<glyph unicode="7" horiz-adv-x="1366" d="M106 1251v191h1108v-197q-473 -569 -585 -1245h-240q178 805 647 1251h-930z" />
<glyph unicode="8" horiz-adv-x="1366" d="M92 418q0 152 85 250t241 125q-266 70 -266 297q0 178 144 283.5t402 105.5q238 0 378.5 -107.5t140.5 -281.5q0 -227 -267 -297q324 -68 324 -375q0 -211 -155.5 -334t-434 -123t-435.5 125t-157 332zM301 436q0 -129 99.5 -205.5t273.5 -76.5q182 0 282.5 75.5 t100.5 206.5q0 125 -98.5 195.5t-278.5 70.5q-182 0 -280.5 -70.5t-98.5 -195.5zM367 1090q0 -100 84 -162t233 -62q147 0 231 61t84 163q0 100 -80.5 156.5t-228.5 56.5q-158 0 -240.5 -55.5t-82.5 -157.5z" />
<glyph unicode="9" horiz-adv-x="1366" d="M76 961q0 223 153 364q170 154 433 154q309 0 468.5 -182.5t159.5 -534.5q0 -387 -169 -595t-478 -208q-211 0 -343 96.5t-159 268.5h207q59 -186 297 -187q422 0 422 565v9q-170 -225 -471 -226q-233 0 -376.5 132.5t-143.5 343.5zM285 975q0 -141 104.5 -227t276.5 -86 q168 0 272 89t104 228q0 135 -99 220t-267 85q-178 0 -284.5 -86t-106.5 -223z" />
<glyph unicode=":" horiz-adv-x="663" d="M209 0v246h246v-246h-246zM209 848v248h246v-248h-246z" />
<glyph unicode=";" horiz-adv-x="663" d="M201 0v246h248v-246q0 -137 -54.5 -213t-193.5 -127v133q121 45 121 176q0 6 -1.5 16.5t-1.5 14.5h-118zM201 848v248h248v-248h-248z" />
<glyph unicode="&#x3c;" horiz-adv-x="1705" d="M264 547v129l1178 483v-153l-969 -396l969 -393v-154z" />
<glyph unicode="=" horiz-adv-x="1705" d="M254 342v139h1198v-139h-1198zM254 739v140h1198v-140h-1198z" />
<glyph unicode="&#x3e;" horiz-adv-x="1705" d="M264 63v154l971 393l-971 396v153l1178 -483v-129z" />
<glyph unicode="?" horiz-adv-x="1214" d="M53 1016q8 236 157.5 369t407.5 133q231 0 373 -123t142 -324q0 -137 -72 -240q-27 -39 -67 -75.5t-68.5 -58t-84 -58.5t-77.5 -51q-96 -70 -96 -172q0 -6 1 -14.5t1 -14.5h-209q0 6 -1 18.5t-1 18.5q0 92 35.5 151.5t117.5 126.5q23 18 93.5 69.5t109.5 84.5 q98 86 98 209q0 121 -84 192.5t-233 71.5q-154 0 -238 -81t-86 -232h-219zM444 0v246h238v-246h-238z" />
<glyph unicode="@" horiz-adv-x="2048" d="M106 522q0 336 203 582q297 362 807 362q340 0 563 -172q264 -205 265 -514q0 -356 -248 -551q-141 -113 -316 -112q-201 0 -200 157v19q-109 -174 -301 -174q-152 0 -233 85t-81 247q0 236 138.5 394.5t338.5 158.5q170 0 242 -150l57 115h132l-146 -576q-8 -33 -8 -59 q0 -94 100.5 -94t208.5 102q170 160 170 420q0 258 -189.5 419.5t-500.5 161.5q-264 0 -457 -114q-190 -115 -295.5 -300.5t-105.5 -408.5q0 -344 254 -538q209 -160 524 -160q348 0 621 190l55 -82q-297 -223 -664 -223q-383 0 -628 187q-305 236 -306 628zM725 446 q0 -106 48 -162.5t138 -56.5q96 0 174 68.5t105 179.5l59 236q-16 88 -68.5 136t-129.5 48q-137 0 -231.5 -130t-94.5 -319z" />
<glyph unicode="A" horiz-adv-x="1570" d="M-12 0l702 1479h219l658 -1479h-217l-189 422h-755l-197 -422h-221zM494 614h581l-282 631z" />
<glyph unicode="B" horiz-adv-x="1591" d="M170 0v1479h823q217 0 333 -97.5t116 -275.5q0 -233 -234 -326q139 -29 214 -118t75 -232q0 -221 -129 -325.5t-395 -104.5h-803zM379 201h545q180 0 266 51t86 172q0 131 -78 189.5t-244 58.5h-575v-471zM379 864h526q174 0 251 47t77 168q0 113 -68 163t-215 50h-571 v-428z" />
<glyph unicode="C" horiz-adv-x="1720" d="M88 739.5q0 356.5 217 567.5t594 211q309 0 509 -159t222 -417h-217q-31 176 -168 277.5t-348 101.5q-281 0 -436.5 -154.5t-155.5 -427t156.5 -427t437.5 -154.5q217 0 360.5 113.5t170.5 299.5h217q-29 -276 -233 -443t-517 -167q-375 0 -592 211t-217 567.5z" />
<glyph unicode="D" horiz-adv-x="1751" d="M170 0v1479h651q217 0 350.5 -24.5t245.5 -113.5q246 -193 246 -602t-246 -602q-113 -88 -246 -112.5t-350 -24.5h-651zM379 186h510q272 0 391 103q76 66 121 184.5t45 268t-45 267t-121 183.5q-119 102 -391 102h-510v-1108z" />
<glyph unicode="E" horiz-adv-x="1456" d="M170 0v1479h1176v-189h-967v-436h907v-195h-907v-460h981v-199h-1190z" />
<glyph unicode="F" horiz-adv-x="1320" d="M170 0v1479h1128v-189h-919v-436h817v-201h-817v-653h-209z" />
<glyph unicode="G" horiz-adv-x="1763" d="M88 739q0 356 210 567.5t574 211.5q287 0 482.5 -143.5t218.5 -362.5h-213q-41 147 -172 228t-332 81q-258 0 -407.5 -156.5t-149.5 -425t149.5 -425t401.5 -156.5q227 0 374.5 119.5t168.5 320.5h-469v195h663v-793h-145l-21 248q-176 -287 -573 -287q-344 0 -552 214 t-208 564z" />
<glyph unicode="H" horiz-adv-x="1658" d="M170 0v1479h209v-596h901v596h209v-1479h-209v688h-901v-688h-209z" />
<glyph unicode="I" horiz-adv-x="577" d="M184 0v1479h209v-1479h-209z" />
<glyph unicode="J" horiz-adv-x="1165" d="M39 436v64h211v-33q0 -164 66.5 -238.5t213.5 -74.5q188 0 256 127q31 57 31 288v910h211v-979q0 -133 -16.5 -216t-67.5 -149q-135 -174 -401 -174q-504 0 -504 475z" />
<glyph unicode="K" horiz-adv-x="1517" d="M170 0v1479h209v-760l864 760h268l-702 -615l704 -864h-245l-600 739l-289 -247v-492h-209z" />
<glyph unicode="L" horiz-adv-x="1312" d="M170 0v1479h209v-1280h905v-199h-1114z" />
<glyph unicode="M" horiz-adv-x="2123" d="M170 0v1479h315l572 -1289l585 1289h312v-1479h-205l12 1325l-598 -1325h-213l-588 1325l13 -1325h-205z" />
<glyph unicode="N" horiz-adv-x="1759" d="M170 0v1479h283l931 -1262v1262h203v-1479h-282l-930 1262v-1262h-205z" />
<glyph unicode="O" horiz-adv-x="1796" d="M88 739.5q0 356.5 217 567.5t594 211q375 0 592 -211t217 -567.5t-217 -567.5t-594 -211q-375 0 -592 211t-217 567.5zM305 739.5q0 -272.5 156.5 -427t437.5 -154.5t436.5 154.5t155.5 427t-156.5 427t-437.5 154.5t-436.5 -154.5t-155.5 -427z" />
<glyph unicode="P" horiz-adv-x="1460" d="M170 0v1479h682q274 0 408.5 -106.5t134.5 -330t-134.5 -330t-408.5 -106.5h-473v-606h-209zM379 780h389q223 0 320.5 54.5t97.5 201.5q0 150 -94.5 204t-309.5 54h-403v-514z" />
<glyph unicode="Q" horiz-adv-x="1796" d="M88 739.5q0 356.5 217 567.5t594 211q375 0 592 -211t217 -568q0 -379 -242 -587l201 -160l-117 -150l-247 203q-150 -84 -406 -84q-375 0 -592 211t-217 567.5zM305 739q0 -276 158 -428.5t448 -152.5h8q129 0 209 32l-155 125l114 146l218 -176q186 147 186 454 q0 272 -156.5 427t-437.5 155t-436.5 -154.5t-155.5 -427.5z" />
<glyph unicode="R" horiz-adv-x="1615" d="M170 0v1479h778q258 0 391.5 -103.5t133.5 -300.5q0 -283 -254 -362q115 -16 166 -82t61 -199l18 -239q10 -133 54 -193h-244q-20 47 -27 154l-18 219q-12 152 -73.5 207t-223.5 55h-555v-635h-207zM377 817h489q211 0 304.5 52.5t93.5 189.5q0 143 -94.5 192t-321.5 49 h-471v-483z" />
<glyph unicode="S" horiz-adv-x="1517" d="M102 500h222q12 -344 464 -344q199 0 304.5 65.5t105.5 184.5q0 90 -60.5 137t-193.5 71l-366 66q-219 39 -323.5 132t-104.5 259q0 211 160.5 329t463.5 118q283 0 434.5 -121t155.5 -348h-209q-10 143 -107.5 209.5t-289.5 66.5q-190 0 -288.5 -61.5t-98.5 -173.5 q0 -86 60.5 -130.5t201.5 -70.5l325 -64q244 -47 351.5 -134t107.5 -267q0 -217 -166 -340t-475 -123q-664 0 -674 539z" />
<glyph unicode="T" horiz-adv-x="1312" d="M-10 1286v193h1333v-193h-563v-1286h-209v1286h-561z" />
<glyph unicode="U" horiz-adv-x="1646" d="M166 551v928h209v-840q0 -244 107.5 -360.5t336.5 -116.5q231 0 338 116.5t107 360.5v840h209v-928q0 -289 -166 -439.5t-487.5 -150.5t-487.5 150.5t-166 439.5z" />
<glyph unicode="V" horiz-adv-x="1517" d="M-12 1479h223l547 -1291l545 1291h227l-653 -1479h-242z" />
<glyph unicode="W" horiz-adv-x="2328" d="M6 1479h221l412 -1295l403 1295h242l404 -1295l411 1295h221l-497 -1479h-248l-414 1276l-409 -1276h-248z" />
<glyph unicode="X" horiz-adv-x="1472" d="M10 0l608 758l-548 721h262l413 -561l447 561h252l-578 -719l594 -760h-266l-459 608l-456 -608h-269z" />
<glyph unicode="Y" horiz-adv-x="1464" d="M-31 1479h254l510 -688l514 688h250l-657 -863v-616h-209v616z" />
<glyph unicode="Z" horiz-adv-x="1413" d="M35 0v205l1063 1085h-996v189h1258v-207l-1049 -1067h1067v-205h-1343z" />
<glyph unicode="[" horiz-adv-x="663" d="M135 -389v1868h488v-160h-291v-1546h291v-162h-488z" />
<glyph unicode="\" horiz-adv-x="569" d="M-102 1518h135l559 -1708h-135z" />
<glyph unicode="]" horiz-adv-x="663" d="M41 -227h291v1546h-291v160h487v-1868h-487v162z" />
<glyph unicode="^" horiz-adv-x="2048" d="M420 901l510 557h186l510 -557h-180l-422 420l-424 -420h-180z" />
<glyph unicode="_" horiz-adv-x="1024" d="M0 -340h1024v-143h-1024v143z" />
<glyph unicode="`" horiz-adv-x="1024" d="M221 1548h250l182 -305h-145z" />
<glyph unicode="a" d="M102 303q0 170 158 266q72 43 352 74q231 25 267 35q88 25 96 96q2 10 2 21q0 88 -67.5 127t-217.5 39q-168 0 -247.5 -50.5t-88.5 -165.5h-206q23 387 528 388q274 0 388 -82t114 -283v-442q0 -88 20.5 -125t77.5 -37q25 0 57 6v-160q-80 -10 -153 -10q-86 0 -133.5 41 t-61.5 129q-152 -197 -461 -197q-205 0 -314.5 87t-109.5 243zM319 311q0 -80 62.5 -125t177.5 -45q186 0 304 76t118 182v164q-78 -47 -332 -76q-96 -10 -144 -19t-97.5 -27.5t-69 -49.5t-19.5 -80z" />
<glyph unicode="b" horiz-adv-x="1433" d="M152 0v1479h198v-551q164 188 422 188q262 0 425 -158.5t163 -414.5t-163 -416t-423 -160q-262 0 -424 193v-160h-198zM350 542.5q0 -182.5 107.5 -287.5t294 -105t293 104t106.5 288.5t-106.5 289t-293 104.5t-294 -105.5t-107.5 -288z" />
<glyph unicode="c" horiz-adv-x="1312" d="M74 547q0 262 164.5 424t431.5 162q215 0 362.5 -107.5t181.5 -292.5h-206q-29 100 -114 157.5t-206 57.5q-188 0 -297.5 -107.5t-109.5 -293.5q0 -182 108.5 -291t284.5 -109q135 0 227 72t113 191h209q-35 -207 -184.5 -328t-372.5 -121q-262 0 -427 163t-165 423z" />
<glyph unicode="d" horiz-adv-x="1433" d="M74 543q0 256 162.5 414.5t425.5 158.5q258 0 421 -188v551h201v-1479h-201v160q-162 -193 -424 -193q-260 0 -422.5 160t-162.5 416zM283 542.5q0 -184.5 106.5 -288.5t292.5 -104t293.5 105t107.5 287.5t-107.5 288t-293.5 105.5t-292.5 -104.5t-106.5 -289z" />
<glyph unicode="e" d="M86 547q0 266 164 426t438 160q281 0 439.5 -156t158.5 -430v-39h-991v-8q0 -156 109.5 -254.5t283.5 -98.5q129 0 221 52.5t127 142.5h232q-59 -180 -211 -280.5t-369 -100.5q-274 0 -438 160t-164 426zM301 649h772q-23 139 -125 219t-260 80q-156 0 -259 -80 t-128 -219z" />
<glyph unicode="f" horiz-adv-x="667" d="M35 924v172h192v114q0 139 67.5 204t217.5 65q102 0 182 -17v-178q-72 14 -131 14q-76 0 -106.5 -28.5t-30.5 -100.5v-73h268v-172h-268v-924h-199v924h-192z" />
<glyph unicode="g" horiz-adv-x="1429" d="M74 547q0 256 163.5 415.5t421.5 159.5q291 0 426 -204v178h199v-955q0 -279 -145.5 -404.5t-466.5 -125.5q-238 0 -373 91t-152 263h224q31 -176 303 -176q223 0 317 78t94 258v37q-168 -188 -423 -189q-262 0 -425 159t-163 415zM283 546.5q0 -186.5 108.5 -293 t298.5 -106.5q188 0 299 106.5t111 293t-109.5 294t-300.5 107.5q-188 0 -297.5 -107.5t-109.5 -294z" />
<glyph unicode="h" horiz-adv-x="1351" d="M145 0v1479h199v-572q174 217 451 217q221 0 329 -125q55 -63 70.5 -145t15.5 -225v-629h-198v637q0 170 -58.5 244.5t-203.5 74.5q-178 0 -292 -109.5t-114 -289.5v-557h-199z" />
<glyph unicode="i" horiz-adv-x="516" d="M160 0v1096h198v-1096h-198zM160 1239v240h198v-240h-198z" />
<glyph unicode="j" horiz-adv-x="516" d="M-84 -203q25 -4 68 -4q176 0 176 154v1149h198v-1157q0 -184 -77.5 -257t-278.5 -73q-55 0 -86 2v186zM160 1239v240h198v-240h-198z" />
<glyph unicode="k" horiz-adv-x="1214" d="M160 0v1479h198v-863l576 480h295l-520 -418l559 -678h-269l-438 557l-203 -162v-395h-198z" />
<glyph unicode="l" horiz-adv-x="516" d="M160 0v1479h198v-1479h-198z" />
<glyph unicode="m" horiz-adv-x="2209" d="M145 0v1096h197v-189q178 217 453 217q154 0 255 -61.5t136 -173.5q187 235 467 235h2q221 0 330 -125q55 -63 70.5 -145t15.5 -225v-629h-199v637q0 170 -58.5 244.5t-203.5 74.5q-178 0 -292 -109.5t-114 -289.5v-557h-192v637q0 170 -58.5 244.5t-203.5 74.5 q-178 0 -292 -109.5t-114 -289.5v-557h-199z" />
<glyph unicode="n" horiz-adv-x="1351" d="M145 0v1096h197v-189q178 217 453 217q221 0 329 -125q55 -63 70.5 -145t15.5 -225v-629h-198v637q0 170 -58.5 244.5t-203.5 74.5q-178 0 -292 -109.5t-114 -289.5v-557h-199z" />
<glyph unicode="o" d="M74 547q0 266 167 426t447.5 160t446 -160t165.5 -426t-165.5 -426t-446 -160t-447.5 160t-167 426zM281 547q0 -184 109.5 -292t298 -108t297 106.5t108.5 293t-108.5 294t-297 107.5t-298 -107.5t-109.5 -293.5z" />
<glyph unicode="p" horiz-adv-x="1433" d="M150 -389v1485h198v-164q158 190 424 190q260 0 424 -159.5t164 -415.5t-164 -415t-426 -159q-258 0 -422 189v-551h-198zM348 547q0 -182 107.5 -287.5t294 -105.5t294 104t107.5 288.5t-107.5 289t-294 104.5t-294 -105.5t-107.5 -287.5z" />
<glyph unicode="q" horiz-adv-x="1433" d="M74 547q0 256 162.5 415.5t422.5 159.5q264 0 424 -190v164h199v-1485h-199v551q-164 -188 -421 -189q-262 0 -425 159t-163 415zM283 546.5q0 -184.5 106.5 -288.5t292.5 -104t293.5 105.5t107.5 287.5t-107.5 287.5t-293.5 105.5t-292.5 -104.5t-106.5 -289z" />
<glyph unicode="r" horiz-adv-x="817" d="M145 0v1096h197v-185q154 221 403 222q53 0 89 -19v-209q-76 23 -142 23q-145 0 -246.5 -109.5t-101.5 -281.5v-537h-199z" />
<glyph unicode="s" horiz-adv-x="1210" d="M63 356h218q14 -104 97 -161.5t224 -57.5q164 0 253 45t89 121q0 61 -45 89t-154 46l-245 43q-207 35 -296 96.5t-89 204.5q0 172 125 261.5t368.5 89.5t371.5 -92.5t128 -266.5v-8h-193q-20 199 -317 199q-283 0 -283 -148q0 -74 53.5 -101.5t192.5 -51.5l238 -39 q188 -33 269 -99.5t81 -210.5q0 -170 -140.5 -262t-406.5 -92q-256 0 -388.5 97t-150.5 298z" />
<glyph unicode="t" horiz-adv-x="763" d="M70 924v172h190v278h199v-278h268v-172h-268v-654q0 -70 30.5 -99.5t104.5 -29.5q53 0 133 19v-180q-121 -18 -182 -19q-285 0 -285 252v711h-190z" />
<glyph unicode="u" horiz-adv-x="1351" d="M145 467v629h199v-637q0 -170 58.5 -245t203.5 -75q178 0 292 109.5t114 290.5v557h198v-1096h-196v186q-178 -217 -453 -217q-219 0 -330 127q-55 63 -70.5 145.5t-15.5 225.5z" />
<glyph unicode="v" horiz-adv-x="1165" d="M-20 1096h237l373 -924l364 924h232l-488 -1096h-221z" />
<glyph unicode="w" horiz-adv-x="1810" d="M-4 1096h242l282 -910l277 910h229l260 -910l295 910h234l-424 -1096h-226l-258 899l-270 -899h-227z" />
<glyph unicode="x" horiz-adv-x="1214" d="M-8 0l487 557l-440 539h270l309 -418l324 418h266l-469 -539l490 -557h-277l-334 428l-366 -428h-260z" />
<glyph unicode="y" horiz-adv-x="1165" d="M-20 1096h237l373 -924l364 924h232l-486 -1088q-123 -276 -204 -336q-84 -61 -244 -61q-55 0 -137 8v186q78 -12 116 -12q106 0 158.5 45t87.5 162z" />
<glyph unicode="z" horiz-adv-x="1214" d="M66 0v197l815 725h-772v174h1019v-174l-800 -746h821v-176h-1083z" />
<glyph unicode="{" horiz-adv-x="1024" d="M168 457v149q8 0 23.5 -1t21.5 -1q131 0 184.5 60.5t53.5 207.5v246q0 131 18 199.5t82 107.5q84 51 278 52h37v-150h-41q-125 0 -163.5 -47t-38.5 -182v-242q0 -150 -41 -222.5t-160 -103.5q121 -31 161 -102.5t40 -222.5v-242q0 -135 38.5 -182t165.5 -47h39v-148h-43 q-195 0 -272 49q-63 39 -81.5 108t-18.5 200v245q0 147 -53.5 209t-186.5 62q-6 0 -20.5 -1t-22.5 -1z" />
<glyph unicode="|" horiz-adv-x="1024" d="M438 -483v2048h150v-2048h-150z" />
<glyph unicode="}" horiz-adv-x="1024" d="M160 -266h39q125 0 164.5 48t39.5 183v240q0 150 41 222.5t160 102.5q-119 31 -160 104t-41 222v242q0 135 -39.5 182t-164.5 47h-39v150h37q197 0 278 -52q63 -39 81.5 -107.5t18.5 -199.5v-246q0 -147 53.5 -207.5t184.5 -60.5q6 0 21.5 1t23.5 1v-149q-8 0 -22.5 1 t-20.5 1q-133 0 -186.5 -61.5t-53.5 -209.5v-245q0 -131 -18 -200t-82 -108q-78 -49 -272 -49h-43v148z" />
<glyph unicode="~" horiz-adv-x="1705" d="M178 451v155q211 143 387 144q119 0 291 -62q8 -4 47 -17.5t51.5 -17.5t45 -13t50 -13t44 -7.5t49.5 -3.5q170 0 387 154v-156q-203 -141 -389 -141q-25 0 -52.5 3t-46 6t-52.5 13.5t-43 13.5t-50 17.5t-45 16.5q-193 66 -289 65q-162 0 -385 -157z" />
<glyph unicode="&#xa1;" horiz-adv-x="663" d="M209 1233v246h246v-246h-246zM223 0v532l47 578h123l47 -571v-539h-217z" />
<glyph unicode="&#xa2;" horiz-adv-x="1366" d="M74 583.5q0 247.5 146.5 405.5t395.5 178v189h101v-187q197 -8 328 -114.5t169 -284.5h-206q-59 197 -291 213v-797q125 14 202.5 83t94.5 177h209q-35 -197 -166 -313.5t-340 -130.5v-203h-101v203q-244 12 -393 173t-149 408.5zM281 584q0 -166 86.5 -268.5 t248.5 -129.5v795q-160 -23 -247.5 -127t-87.5 -270z" />
<glyph unicode="&#xa3;" horiz-adv-x="1366" d="M86 141q113 31 175.5 113t62.5 195q0 82 -48 194h-190v137h141q-70 139 -69 244q0 127 88 244q162 211 518 211q254 0 393 -125t148 -359h-203q-23 309 -344 310q-170 0 -274.5 -87.5t-104.5 -218.5q0 -86 61 -219h459v-137h-397q37 -80 37 -149q0 -158 -172 -306 q123 41 215 41q59 0 178 -30.5t182 -30.5q168 0 307 98l68 -186q-117 -117 -332 -117q-90 0 -259 41t-251 41q-139 0 -272 -84z" />
<glyph unicode="&#xa4;" horiz-adv-x="1366" d="M16 530l47 105h130q-2 29 -3 86q0 61 3 90h-170l45 104h133q39 274 188.5 419t403.5 145q225 0 361 -116t167 -314h-215q-14 104 -94 172.5t-217 68.5q-338 0 -381 -375h712l-47 -104h-673q-2 -29 -3 -90q0 -59 3 -86h600l-45 -105h-547q39 -379 379 -378q131 0 208.5 59 t106.5 188h215q-39 -186 -169 -312t-363 -126q-252 0 -402.5 145.5t-187.5 423.5h-185z" />
<glyph unicode="&#xa5;" horiz-adv-x="1366" d="M-57 1442h247l498 -672l500 672h233l-356 -469h272v-105h-354l-119 -157h473v-105h-557v-606h-190v606h-553v105h469l-121 157h-348v105h268z" />
<glyph unicode="&#xa6;" horiz-adv-x="1024" d="M438 -350v758h150v-758h-150zM438 674v758h150v-758h-150z" />
<glyph unicode="&#xa7;" horiz-adv-x="1359" d="M84 664q0 199 217 292q-96 88 -96 220q0 150 127 246t344 96q231 0 354 -96.5t123 -270.5v-12h-205q-2 197 -284 196q-250 0 -250 -157q0 -80 114 -138q59 -31 273 -108q279 -102 313 -123q88 -55 125 -118.5t37 -160.5q0 -193 -209 -284q100 -84 100 -221 q0 -172 -129 -267.5t-370 -95.5q-240 0 -370 102.5t-138 292.5h211v-8q0 -100 79.5 -153.5t233.5 -53.5q268 0 268 170q0 74 -55 113q-33 25 -79 43t-118.5 40.5t-115.5 39.5q-272 102 -342 149q-86 57 -122 114.5t-36 152.5zM281 711q0 -76 53 -124t172 -93l321 -121 q50 -17 134 -58q121 68 120 187q0 63 -38.5 104t-122.5 72l-400 151q-10 4 -112 52q-127 -70 -127 -170z" />
<glyph unicode="&#xa8;" horiz-adv-x="1024" d="M172 1282v227h199v-227h-199zM653 1282v227h199v-227h-199z" />
<glyph unicode="&#xa9;" horiz-adv-x="1705" d="M117 727q0 301 219 524q213 213 516 213q309 0 524 -215t215 -522t-213 -516q-227 -221 -526 -221t-518 219q-217 217 -217 518zM213 727q0 -260 190 -451q188 -188 451 -188q258 0 455 191q184 180 184 448t-184 453q-188 188 -455 188q-264 0 -448 -184 q-193 -193 -193 -457zM463 733q0 201 109.5 323t285.5 122q143 0 237.5 -75t104.5 -196h-147q-12 76 -65.5 118t-139.5 42q-102 0 -163.5 -89t-61.5 -251q0 -158 62.5 -245t172.5 -87q82 0 136.5 47t68.5 129h145q-10 -131 -108.5 -211.5t-247.5 -80.5q-180 0 -284.5 119.5 t-104.5 334.5z" />
<glyph unicode="&#xaa;" horiz-adv-x="1030" d="M78 926q0 119 117 186q49 27 264 51q188 18 217 29q57 20 57 78q0 61 -51 87.5t-162 26.5q-127 0 -187.5 -34.5t-64.5 -114.5h-155q14 270 395 270q207 0 292 -57t85 -199v-309q0 -61 15 -87t58 -26q10 0 43 4v-112q-72 -6 -114 -6q-126 -1 -146 118q-115 -137 -346 -137 q-154 0 -235.5 61.5t-81.5 170.5zM240 930q0 -55 48 -87t132 -32q139 0 227 53.5t88 126.5v115q-63 -33 -248 -51q-139 -16 -193 -38t-54 -87z" />
<glyph unicode="&#xab;" horiz-adv-x="1138" d="M143 428v240l369 282v-217l-240 -186l240 -185v-217zM618 428v240l367 282v-217l-240 -186l240 -185v-217z" />
<glyph unicode="&#xac;" horiz-adv-x="1705" d="M254 721v139h1198v-502h-137v363h-1061z" />
<glyph unicode="&#xad;" horiz-adv-x="948" d="M98 457v180h752v-180h-752z" />
<glyph unicode="&#xae;" horiz-adv-x="1705" d="M117 727q0 301 223 528q205 209 512 209q311 0 526 -219q213 -217 213 -518q0 -309 -215 -518q-225 -219 -524 -219q-303 0 -520 221q-215 219 -215 516zM213 727q0 -256 188 -448q186 -190 447 -191q264 0 459 188q186 181 186 445q0 274 -182 457q-186 190 -457 190 q-268 0 -446 -182q-195 -199 -195 -459zM557 324v835h315q348 0 349 -229q0 -88 -50.5 -147.5t-140.5 -77.5l187 -381h-177l-170 356h-155v-356h-158zM715 780h133q111 0 161 31t50 102q0 76 -51 110t-164 34h-129v-277z" />
<glyph unicode="&#xaf;" horiz-adv-x="1024" d="M119 1319v154h786v-154h-786z" />
<glyph unicode="&#xb0;" horiz-adv-x="673" d="M49 1167.5q0 120.5 85 204.5t204 84t203 -85t84 -203.5t-84 -202.5t-205 -84t-204 83t-83 203.5zM143 1169q0 -82 56.5 -139t138.5 -57t137 57t55 139q0 80 -55 136.5t-137 56.5q-80 0 -137.5 -56.5t-57.5 -136.5z" />
<glyph unicode="&#xb1;" horiz-adv-x="1705" d="M254 29v141h1198v-141h-1198zM254 713v139h528v340h142v-340h528v-139h-528v-340h-142v340h-528z" />
<glyph unicode="&#xb2;" horiz-adv-x="901" d="M59 575v17q0 98 61.5 168.5t196.5 140.5q18 8 128 59.5t157 86.5q76 55 76 139q0 74 -63.5 121t-163.5 47q-223 0 -230 -205h-145v8q0 147 97 226t278 79q172 0 270 -74.5t98 -201.5q0 -90 -59 -160q-61 -72 -223 -145q-23 -10 -76 -35t-76 -36t-57.5 -31.5t-57 -40 t-39.5 -44.5h572v-119h-744z" />
<glyph unicode="&#xb3;" horiz-adv-x="901" d="M68 844v6h137q0 -188 237 -188q119 0 185.5 43t66.5 116q0 154 -270 154q-37 0 -57 -2v102h53q238 0 237 129q0 68 -55 107t-151 39q-104 0 -163 -47.5t-59 -131.5v-4h-141v9q0 137 94 211.5t267 74.5q160 0 255 -67.5t95 -173.5q0 -147 -174 -189q104 -8 159.5 -60 t55.5 -141q0 -127 -104.5 -202.5t-286.5 -75.5q-381 0 -381 291z" />
<glyph unicode="&#xb4;" horiz-adv-x="1024" d="M369 1243l182 305h250l-287 -305h-145z" />
<glyph unicode="&#xb6;" horiz-adv-x="1024" d="M66 1130q0 156 106.5 252.5t286.5 96.5h499v-86h-120v-1393h-111v1393h-178v-1393h-111v782q-172 8 -272 103.5t-100 244.5z" />
<glyph unicode="&#xb7;" horiz-adv-x="681" d="M190 720.5q0 63.5 44.5 106.5t108 43t106.5 -43t43 -106.5t-43 -107.5t-106.5 -44t-108 44t-44.5 107.5z" />
<glyph unicode="&#xb8;" horiz-adv-x="1024" d="M250 -403l39 86q123 -37 192 -37q123 0 123 78q0 74 -88 73q-41 0 -80 -16l-45 35l103 184h86l-72 -127q43 14 76 14q90 0 141 -45t51 -121q0 -176 -239 -176q-142 1 -287 52z" />
<glyph unicode="&#xb9;" horiz-adv-x="901" d="M133 1200v103h23q145 0 217.5 37.5t81.5 121.5h102v-887h-133v625h-291z" />
<glyph unicode="&#xba;" horiz-adv-x="1030" d="M55 1096q0 184 125 296.5t336 112.5t335 -111.5t124 -298t-124 -298t-335 -111.5t-336 112t-125 298zM211 1096q0 -131 82 -206t223 -75t223 75t82 206t-82 205.5t-223 74.5t-223 -74.5t-82 -205.5z" />
<glyph unicode="&#xbb;" horiz-adv-x="1138" d="M152 145v217l239 185l-239 186v217l368 -282v-240zM627 145v217l239 185l-239 186v217l366 -282v-240z" />
<glyph unicode="&#xbc;" horiz-adv-x="2156" d="M125 1214v97h22q137 0 207 35.5t78 113.5h98v-827h-127v581h-278zM430 -39l1137 1518h159l-1136 -1518h-160zM1348 203v108l485 496h121v-504h153v-100h-153v-203h-133v203h-473zM1475 303h346l8 381z" />
<glyph unicode="&#xbd;" horiz-adv-x="2156" d="M125 1214v97h22q137 0 207 35.5t78 113.5h98v-827h-127v581h-278zM430 -39l1137 1518h159l-1136 -1518h-160zM1354 0v14q0 92 58 158t187 131q14 8 120 57.5t153 79.5q72 49 72 129q0 68 -60.5 112t-157.5 44q-213 0 -219 -190h-139v8q0 137 93 210.5t265 73.5 q164 0 258.5 -69.5t94.5 -188.5q0 -82 -58 -149q-53 -63 -213 -135q-23 -10 -71.5 -33t-71.5 -33t-55.5 -29.5t-54 -38t-37.5 -40.5h544v-111h-708z" />
<glyph unicode="&#xbe;" horiz-adv-x="2156" d="M63 885v4h132q4 -176 229 -176q113 0 175.5 41t62.5 108q0 143 -256 144q-37 0 -56 -2v96q18 -2 49 -2q227 0 228 123q0 61 -52.5 98t-144.5 37q-100 0 -156.5 -44t-56.5 -122v-6h-133v8q0 129 90 198.5t254 69.5q152 0 243 -63.5t91 -161.5q0 -137 -166 -176 q98 -8 151.5 -56.5t53.5 -130.5q0 -119 -99.5 -190.5t-273.5 -71.5q-365 0 -365 275zM430 -39l1137 1518h159l-1136 -1518h-160zM1348 203v108l485 496h121v-504h153v-100h-153v-203h-133v203h-473zM1475 303h346l8 381z" />
<glyph unicode="&#xbf;" horiz-adv-x="1214" d="M98 410q0 137 72 239q27 39 66.5 76t69.5 57.5t83 56t78 52.5q96 70 96 172q0 6 -1 14t-1 15h209q0 -6 1 -18.5t1 -18.5q0 -92 -36 -151.5t-118 -127.5q-23 -18 -93 -69.5t-109 -83.5q-98 -86 -99 -209q0 -121 84 -192.5t234 -71.5q154 0 236.5 81.5t86.5 233.5h220 q-8 -236 -158 -370t-408 -134q-231 0 -372.5 124t-141.5 325zM549 1233v246h237v-246h-237z" />
<glyph unicode="&#xc0;" horiz-adv-x="1570" d="M-12 0l702 1479h219l658 -1479h-217l-189 422h-755l-197 -422h-221zM494 614h581l-282 631zM510 1933h250l182 -305h-145z" />
<glyph unicode="&#xc1;" horiz-adv-x="1570" d="M-12 0l702 1479h219l658 -1479h-217l-189 422h-755l-197 -422h-221zM494 614h581l-282 631zM658 1628l182 305h250l-287 -305h-145z" />
<glyph unicode="&#xc2;" horiz-adv-x="1570" d="M-12 0l702 1479h219l658 -1479h-217l-189 422h-755l-197 -422h-221zM416 1628l274 305h222l274 -305h-211l-174 191l-174 -191h-211zM494 614h581l-282 631z" />
<glyph unicode="&#xc3;" horiz-adv-x="1570" d="M-12 0l702 1479h219l658 -1479h-217l-189 422h-755l-197 -422h-221zM408 1657q4 115 64.5 182.5t154.5 67.5q59 0 141 -35l94 -39q86 -37 111 -37q74 0 92 109h127q-4 -115 -63.5 -182.5t-153.5 -67.5q-61 0 -143 35l-92 38q-90 37 -111 37q-76 0 -94 -108h-127zM494 614 h581l-282 631z" />
<glyph unicode="&#xc4;" horiz-adv-x="1570" d="M-12 0l702 1479h219l658 -1479h-217l-189 422h-755l-197 -422h-221zM461 1667v227h199v-227h-199zM494 614h581l-282 631zM942 1667v227h199v-227h-199z" />
<glyph unicode="&#xc5;" horiz-adv-x="1570" d="M-12 0l702 1479h219l658 -1479h-217l-189 422h-755l-197 -422h-221zM494 614h581l-282 631zM569 1751q0 94 63.5 149.5t174.5 55.5q113 0 175 -54.5t62 -150.5t-62 -150.5t-175 -54.5t-175.5 54.5t-62.5 150.5zM696 1751q0 -45 30 -72.5t81 -27.5t83 28.5t32 71.5 q0 45 -32 71.5t-83 26.5t-81 -26.5t-30 -71.5z" />
<glyph unicode="&#xc6;" horiz-adv-x="2365" d="M27 0l766 1479h1458v-189h-967v-436h907v-201h-907v-454h981v-199h-1190v422h-608l-221 -422h-219zM565 614h510v676h-155z" />
<glyph unicode="&#xc7;" horiz-adv-x="1720" d="M88 739.5q0 356.5 217 567.5t594 211q309 0 509 -159t222 -417h-217q-31 176 -168 277.5t-348 101.5q-281 0 -436.5 -154.5t-155.5 -427t156.5 -427t437.5 -154.5q217 0 360.5 113.5t170.5 299.5h217q-29 -276 -233 -443t-517 -167q-375 0 -592 211t-217 567.5zM621 -403 l39 86q123 -37 192 -37q123 0 123 78q0 74 -88 73q-41 0 -80 -16l-45 35l103 184h86l-72 -127q43 14 76 14q90 0 141 -45t51 -121q0 -176 -239 -176q-142 1 -287 52z" />
<glyph unicode="&#xc8;" horiz-adv-x="1456" d="M170 0v1479h1176v-189h-967v-436h907v-195h-907v-460h981v-199h-1190zM491 1933h250l182 -305h-145z" />
<glyph unicode="&#xc9;" horiz-adv-x="1456" d="M170 0v1479h1176v-189h-967v-436h907v-195h-907v-460h981v-199h-1190zM639 1628l182 305h250l-287 -305h-145z" />
<glyph unicode="&#xca;" horiz-adv-x="1456" d="M170 0v1479h1176v-189h-967v-436h907v-195h-907v-460h981v-199h-1190zM397 1628l274 305h222l274 -305h-211l-174 191l-174 -191h-211z" />
<glyph unicode="&#xcb;" horiz-adv-x="1456" d="M170 0v1479h1176v-189h-967v-436h907v-195h-907v-460h981v-199h-1190zM442 1667v227h199v-227h-199zM923 1667v227h199v-227h-199z" />
<glyph unicode="&#xcc;" horiz-adv-x="577" d="M-2 1933h250l182 -305h-145zM184 0v1479h209v-1479h-209z" />
<glyph unicode="&#xcd;" horiz-adv-x="577" d="M146 1628l182 305h250l-287 -305h-145zM184 0v1479h209v-1479h-209z" />
<glyph unicode="&#xce;" horiz-adv-x="577" d="M-96 1628l274 305h222l274 -305h-211l-174 191l-174 -191h-211zM184 0v1479h209v-1479h-209z" />
<glyph unicode="&#xcf;" horiz-adv-x="577" d="M-51 1667v227h199v-227h-199zM184 0v1479h209v-1479h-209zM430 1667v227h199v-227h-199z" />
<glyph unicode="&#xd0;" horiz-adv-x="1761" d="M0 721v133h180v625h651q217 0 350.5 -24.5t245.5 -113.5q246 -193 246 -602t-246 -602q-113 -88 -245.5 -112.5t-350.5 -24.5h-651v721h-180zM389 186h506q274 0 393 103q76 66 122 185.5t46 267t-46 266t-122 184.5q-119 102 -393 102h-506v-440h506v-133h-506v-535z " />
<glyph unicode="&#xd1;" horiz-adv-x="1759" d="M170 0v1479h283l931 -1262v1262h203v-1479h-282l-930 1262v-1262h-205zM488 1657q4 115 64.5 182.5t154.5 67.5q59 0 141 -35l94 -39q86 -37 111 -37q74 0 92 109h127q-4 -115 -63.5 -182.5t-153.5 -67.5q-61 0 -143 35l-92 38q-90 37 -111 37q-76 0 -94 -108h-127z" />
<glyph unicode="&#xd2;" horiz-adv-x="1796" d="M88 739.5q0 356.5 217 567.5t594 211q375 0 592 -211t217 -567.5t-217 -567.5t-594 -211q-375 0 -592 211t-217 567.5zM305 739.5q0 -272.5 156.5 -427t437.5 -154.5t436.5 154.5t155.5 427t-156.5 427t-437.5 154.5t-436.5 -154.5t-155.5 -427zM608 1933h250l182 -305 h-145z" />
<glyph unicode="&#xd3;" horiz-adv-x="1796" d="M88 739.5q0 356.5 217 567.5t594 211q375 0 592 -211t217 -567.5t-217 -567.5t-594 -211q-375 0 -592 211t-217 567.5zM305 739.5q0 -272.5 156.5 -427t437.5 -154.5t436.5 154.5t155.5 427t-156.5 427t-437.5 154.5t-436.5 -154.5t-155.5 -427zM756 1628l182 305h250 l-287 -305h-145z" />
<glyph unicode="&#xd4;" horiz-adv-x="1796" d="M88 739.5q0 356.5 217 567.5t594 211q375 0 592 -211t217 -567.5t-217 -567.5t-594 -211q-375 0 -592 211t-217 567.5zM305 739.5q0 -272.5 156.5 -427t437.5 -154.5t436.5 154.5t155.5 427t-156.5 427t-437.5 154.5t-436.5 -154.5t-155.5 -427zM514 1628l274 305h222 l274 -305h-211l-174 191l-174 -191h-211z" />
<glyph unicode="&#xd5;" horiz-adv-x="1796" d="M88 739.5q0 356.5 217 567.5t594 211q375 0 592 -211t217 -567.5t-217 -567.5t-594 -211q-375 0 -592 211t-217 567.5zM305 739.5q0 -272.5 156.5 -427t437.5 -154.5t436.5 154.5t155.5 427t-156.5 427t-437.5 154.5t-436.5 -154.5t-155.5 -427zM506 1657 q4 115 64.5 182.5t154.5 67.5q59 0 141 -35l94 -39q86 -37 111 -37q74 0 92 109h127q-4 -115 -63.5 -182.5t-153.5 -67.5q-61 0 -143 35l-92 38q-90 37 -111 37q-76 0 -94 -108h-127z" />
<glyph unicode="&#xd6;" horiz-adv-x="1796" d="M88 739.5q0 356.5 217 567.5t594 211q375 0 592 -211t217 -567.5t-217 -567.5t-594 -211q-375 0 -592 211t-217 567.5zM305 739.5q0 -272.5 156.5 -427t437.5 -154.5t436.5 154.5t155.5 427t-156.5 427t-437.5 154.5t-436.5 -154.5t-155.5 -427zM559 1667v227h199v-227 h-199zM1040 1667v227h199v-227h-199z" />
<glyph unicode="&#xd7;" horiz-adv-x="1705" d="M293 141l469 469l-469 469l98 99l469 -469l469 469l98 -99l-469 -469l469 -469l-98 -96l-469 467l-469 -467z" />
<glyph unicode="&#xd8;" horiz-adv-x="1796" d="M88 739q0 356 217 567.5t594 211.5q365 0 549 -175l184 179l78 -78l-184 -178q182 -205 182 -527q0 -356 -217 -567t-594 -211q-348 0 -549 174l-182 -174l-76 80l180 172q-182 213 -182 526zM305 739q0 -240 115 -377l876 838q-133 121 -399 121q-281 0 -436.5 -154.5 t-155.5 -427.5zM498 283q129 -129 399 -129q276 0 435 157.5t159 427.5q0 225 -117 379z" />
<glyph unicode="&#xd9;" horiz-adv-x="1646" d="M166 551v928h209v-840q0 -244 107.5 -360.5t336.5 -116.5q231 0 338 116.5t107 360.5v840h209v-928q0 -289 -166 -439.5t-487.5 -150.5t-487.5 150.5t-166 439.5zM532 1933h250l182 -305h-145z" />
<glyph unicode="&#xda;" horiz-adv-x="1646" d="M166 551v928h209v-840q0 -244 107.5 -360.5t336.5 -116.5q231 0 338 116.5t107 360.5v840h209v-928q0 -289 -166 -439.5t-487.5 -150.5t-487.5 150.5t-166 439.5zM680 1628l182 305h250l-287 -305h-145z" />
<glyph unicode="&#xdb;" horiz-adv-x="1646" d="M166 551v928h209v-840q0 -244 107.5 -360.5t336.5 -116.5q231 0 338 116.5t107 360.5v840h209v-928q0 -289 -166 -439.5t-487.5 -150.5t-487.5 150.5t-166 439.5zM438 1628l274 305h222l274 -305h-211l-174 191l-174 -191h-211z" />
<glyph unicode="&#xdc;" horiz-adv-x="1646" d="M166 551v928h209v-840q0 -244 107.5 -360.5t336.5 -116.5q231 0 338 116.5t107 360.5v840h209v-928q0 -289 -166 -439.5t-487.5 -150.5t-487.5 150.5t-166 439.5zM483 1667v227h199v-227h-199zM964 1667v227h199v-227h-199z" />
<glyph unicode="&#xdd;" horiz-adv-x="1464" d="M-31 1479h254l510 -688l514 688h250l-657 -863v-616h-209v616zM590 1628l182 305h250l-287 -305h-145z" />
<glyph unicode="&#xde;" horiz-adv-x="1460" d="M170 0v1479h209v-289h473q274 0 408.5 -106.5t134.5 -330t-134.5 -330t-408.5 -106.5h-473v-317h-209zM379 492h389q223 0 320.5 54t97.5 202q0 150 -94.5 204t-309.5 54h-403v-514z" />
<glyph unicode="&#xdf;" horiz-adv-x="1310" d="M145 0v1024q0 455 498 455q254 0 388 -95.5t134 -269.5q0 -236 -223 -309q293 -55 293 -373q0 -201 -139.5 -329t-362.5 -128q-86 0 -186 25v166q78 -16 151 -16q158 0 245 77.5t87 212.5q0 145 -94 208t-299 63h-78v170h129q274 0 275 213q0 102 -77 158.5t-222 56.5 q-188 0 -254 -79t-66 -274v-956h-199z" />
<glyph unicode="&#xe0;" d="M102 303q0 170 158 266q72 43 352 74q231 25 267 35q88 25 96 96q2 10 2 21q0 88 -67.5 127t-217.5 39q-168 0 -247.5 -50.5t-88.5 -165.5h-206q23 387 528 388q274 0 388 -82t114 -283v-442q0 -88 20.5 -125t77.5 -37q25 0 57 6v-160q-80 -10 -153 -10q-86 0 -133.5 41 t-61.5 129q-152 -197 -461 -197q-205 0 -314.5 87t-109.5 243zM319 311q0 -80 62.5 -125t177.5 -45q186 0 304 76t118 182v164q-78 -47 -332 -76q-96 -10 -144 -19t-97.5 -27.5t-69 -49.5t-19.5 -80zM395 1548h250l182 -305h-145z" />
<glyph unicode="&#xe1;" d="M102 303q0 170 158 266q72 43 352 74q231 25 267 35q88 25 96 96q2 10 2 21q0 88 -67.5 127t-217.5 39q-168 0 -247.5 -50.5t-88.5 -165.5h-206q23 387 528 388q274 0 388 -82t114 -283v-442q0 -88 20.5 -125t77.5 -37q25 0 57 6v-160q-80 -10 -153 -10q-86 0 -133.5 41 t-61.5 129q-152 -197 -461 -197q-205 0 -314.5 87t-109.5 243zM319 311q0 -80 62.5 -125t177.5 -45q186 0 304 76t118 182v164q-78 -47 -332 -76q-96 -10 -144 -19t-97.5 -27.5t-69 -49.5t-19.5 -80zM543 1243l182 305h250l-287 -305h-145z" />
<glyph unicode="&#xe2;" d="M102 303q0 170 158 266q72 43 352 74q231 25 267 35q88 25 96 96q2 10 2 21q0 88 -67.5 127t-217.5 39q-168 0 -247.5 -50.5t-88.5 -165.5h-206q23 387 528 388q274 0 388 -82t114 -283v-442q0 -88 20.5 -125t77.5 -37q25 0 57 6v-160q-80 -10 -153 -10q-86 0 -133.5 41 t-61.5 129q-152 -197 -461 -197q-205 0 -314.5 87t-109.5 243zM301 1243l274 305h222l274 -305h-211l-174 191l-174 -191h-211zM319 311q0 -80 62.5 -125t177.5 -45q186 0 304 76t118 182v164q-78 -47 -332 -76q-96 -10 -144 -19t-97.5 -27.5t-69 -49.5t-19.5 -80z" />
<glyph unicode="&#xe3;" d="M102 303q0 170 158 266q72 43 352 74q231 25 267 35q88 25 96 96q2 10 2 21q0 88 -67.5 127t-217.5 39q-168 0 -247.5 -50.5t-88.5 -165.5h-206q23 387 528 388q274 0 388 -82t114 -283v-442q0 -88 20.5 -125t77.5 -37q25 0 57 6v-160q-80 -10 -153 -10q-86 0 -133.5 41 t-61.5 129q-152 -197 -461 -197q-205 0 -314.5 87t-109.5 243zM293 1272q4 115 64.5 182.5t154.5 67.5q59 0 141 -35l94 -39q86 -37 111 -37q74 0 92 109h127q-4 -115 -63.5 -182.5t-153.5 -67.5q-61 0 -143 35l-92 38q-90 37 -111 37q-76 0 -94 -108h-127zM319 311 q0 -80 62.5 -125t177.5 -45q186 0 304 76t118 182v164q-78 -47 -332 -76q-96 -10 -144 -19t-97.5 -27.5t-69 -49.5t-19.5 -80z" />
<glyph unicode="&#xe4;" d="M102 303q0 170 158 266q72 43 352 74q231 25 267 35q88 25 96 96q2 10 2 21q0 88 -67.5 127t-217.5 39q-168 0 -247.5 -50.5t-88.5 -165.5h-206q23 387 528 388q274 0 388 -82t114 -283v-442q0 -88 20.5 -125t77.5 -37q25 0 57 6v-160q-80 -10 -153 -10q-86 0 -133.5 41 t-61.5 129q-152 -197 -461 -197q-205 0 -314.5 87t-109.5 243zM319 311q0 -80 62.5 -125t177.5 -45q186 0 304 76t118 182v164q-78 -47 -332 -76q-96 -10 -144 -19t-97.5 -27.5t-69 -49.5t-19.5 -80zM346 1282v227h199v-227h-199zM827 1282v227h199v-227h-199z" />
<glyph unicode="&#xe5;" d="M102 303q0 170 158 266q72 43 352 74q231 25 267 35q88 25 96 96q2 10 2 21q0 88 -67.5 127t-217.5 39q-168 0 -247.5 -50.5t-88.5 -165.5h-206q23 387 528 388q274 0 388 -82t114 -283v-442q0 -88 20.5 -125t77.5 -37q25 0 57 6v-160q-80 -10 -153 -10q-86 0 -133.5 41 t-61.5 129q-152 -197 -461 -197q-205 0 -314.5 87t-109.5 243zM319 311q0 -80 62.5 -125t177.5 -45q186 0 304 76t118 182v164q-78 -47 -332 -76q-96 -10 -144 -19t-97.5 -27.5t-69 -49.5t-19.5 -80zM459 1405q0 94 63.5 149.5t173.5 55.5q113 0 175.5 -54.5t62.5 -150.5 t-62.5 -150.5t-175 -54.5t-175 54.5t-62.5 150.5zM586 1405q0 -45 29.5 -72.5t80.5 -27.5q49 0 81 28.5t32 71.5q0 45 -30.5 71.5t-82 26.5t-81 -26.5t-29.5 -71.5z" />
<glyph unicode="&#xe6;" horiz-adv-x="2269" d="M119 301q0 168 157 264q78 47 351 74q231 23 276 37q90 29 90 117t-67.5 125.5t-216.5 37.5q-168 0 -248 -50t-88 -165h-207q25 391 541 392q350 0 444 -168q156 168 430 168q260 0 416 -142q186 -168 186 -416q0 -18 -4 -67h-989v-8q0 -156 108.5 -255.5t282.5 -99.5 q129 0 221 52.5t127 144.5h232q-59 -180 -211 -280.5t-369 -100.5q-332 0 -506 244q-182 -233 -534 -234q-201 0 -311.5 89.5t-110.5 240.5zM334 311q0 -78 62.5 -122t176.5 -44q186 0 304 74t118 180v164q-78 -47 -331 -76q-96 -10 -144.5 -19t-97.5 -27.5t-68.5 -49.5 t-19.5 -80zM1196 649h770q-23 139 -125 219t-260 80t-263.5 -82t-121.5 -217z" />
<glyph unicode="&#xe7;" horiz-adv-x="1312" d="M74 547q0 262 164.5 424t431.5 162q215 0 362.5 -107.5t181.5 -292.5h-206q-29 100 -114 157.5t-206 57.5q-188 0 -297.5 -107.5t-109.5 -293.5q0 -182 108.5 -291t284.5 -109q135 0 227 72t113 191h209q-35 -207 -184.5 -328t-372.5 -121q-262 0 -427 163t-165 423z M383 -403l39 86q123 -37 192 -37q123 0 123 78q0 74 -88 73q-41 0 -80 -16l-45 35l103 184h86l-72 -127q43 14 76 14q90 0 141 -45t51 -121q0 -176 -239 -176q-142 1 -287 52z" />
<glyph unicode="&#xe8;" d="M86 547q0 266 164 426t438 160q281 0 439.5 -156t158.5 -430v-39h-991v-8q0 -156 109.5 -254.5t283.5 -98.5q129 0 221 52.5t127 142.5h232q-59 -180 -211 -280.5t-369 -100.5q-274 0 -438 160t-164 426zM301 649h772q-23 139 -125 219t-260 80q-156 0 -259 -80 t-128 -219zM428 1548h250l182 -305h-145z" />
<glyph unicode="&#xe9;" d="M86 547q0 266 164 426t438 160q281 0 439.5 -156t158.5 -430v-39h-991v-8q0 -156 109.5 -254.5t283.5 -98.5q129 0 221 52.5t127 142.5h232q-59 -180 -211 -280.5t-369 -100.5q-274 0 -438 160t-164 426zM301 649h772q-23 139 -125 219t-260 80q-156 0 -259 -80 t-128 -219zM576 1243l182 305h250l-287 -305h-145z" />
<glyph unicode="&#xea;" d="M86 547q0 266 164 426t438 160q281 0 439.5 -156t158.5 -430v-39h-991v-8q0 -156 109.5 -254.5t283.5 -98.5q129 0 221 52.5t127 142.5h232q-59 -180 -211 -280.5t-369 -100.5q-274 0 -438 160t-164 426zM301 649h772q-23 139 -125 219t-260 80q-156 0 -259 -80 t-128 -219zM334 1243l274 305h222l274 -305h-211l-174 191l-174 -191h-211z" />
<glyph unicode="&#xeb;" d="M86 547q0 266 164 426t438 160q281 0 439.5 -156t158.5 -430v-39h-991v-8q0 -156 109.5 -254.5t283.5 -98.5q129 0 221 52.5t127 142.5h232q-59 -180 -211 -280.5t-369 -100.5q-274 0 -438 160t-164 426zM301 649h772q-23 139 -125 219t-260 80q-156 0 -259 -80 t-128 -219zM379 1282v227h199v-227h-199zM860 1282v227h199v-227h-199z" />
<glyph unicode="&#xec;" horiz-adv-x="516" d="M-33 1548h250l182 -305h-145zM160 0v1096h198v-1096h-198z" />
<glyph unicode="&#xed;" horiz-adv-x="516" d="M115 1243l182 305h250l-287 -305h-145zM160 0v1096h198v-1096h-198z" />
<glyph unicode="&#xee;" horiz-adv-x="516" d="M-127 1243l274 305h222l274 -305h-211l-174 191l-174 -191h-211zM160 0v1096h198v-1096h-198z" />
<glyph unicode="&#xef;" horiz-adv-x="516" d="M-82 1282v227h199v-227h-199zM160 0v1096h198v-1096h-198zM399 1282v227h199v-227h-199z" />
<glyph unicode="&#xf0;" d="M74 500q0 238 160.5 383t427.5 145q139 0 258 -39q-72 115 -175 230l-378 -150l-39 98l338 140q-49 53 -123 116l110 113q90 -72 189 -170l274 113l41 -103l-235 -92q379 -434 378 -784q0 -244 -164.5 -391.5t-447 -147.5t-448.5 147.5t-166 391.5zM281 500 q0 -164 108.5 -258.5t299 -94.5t298 94.5t107.5 258.5t-108.5 259t-297 95t-298 -95t-109.5 -259z" />
<glyph unicode="&#xf1;" horiz-adv-x="1351" d="M145 0v1096h197v-189q178 217 453 217q221 0 329 -125q55 -63 70.5 -145t15.5 -225v-629h-198v637q0 170 -58.5 244.5t-203.5 74.5q-178 0 -292 -109.5t-114 -289.5v-557h-199zM283 1272q4 115 64.5 182.5t154.5 67.5q59 0 141 -35l94 -39q86 -37 111 -37q74 0 92 109 h127q-4 -115 -63.5 -182.5t-153.5 -67.5q-61 0 -143 35l-92 38q-90 37 -111 37q-76 0 -94 -108h-127z" />
<glyph unicode="&#xf2;" d="M74 547q0 266 167 426t447.5 160t446 -160t165.5 -426t-165.5 -426t-446 -160t-447.5 160t-167 426zM281 547q0 -184 109.5 -292t298 -108t297 106.5t108.5 293t-108.5 294t-297 107.5t-298 -107.5t-109.5 -293.5zM397 1548h250l182 -305h-145z" />
<glyph unicode="&#xf3;" d="M74 547q0 266 167 426t447.5 160t446 -160t165.5 -426t-165.5 -426t-446 -160t-447.5 160t-167 426zM281 547q0 -184 109.5 -292t298 -108t297 106.5t108.5 293t-108.5 294t-297 107.5t-298 -107.5t-109.5 -293.5zM545 1243l182 305h250l-287 -305h-145z" />
<glyph unicode="&#xf4;" d="M74 547q0 266 167 426t447.5 160t446 -160t165.5 -426t-165.5 -426t-446 -160t-447.5 160t-167 426zM281 547q0 -184 109.5 -292t298 -108t297 106.5t108.5 293t-108.5 294t-297 107.5t-298 -107.5t-109.5 -293.5zM303 1243l274 305h222l274 -305h-211l-174 191 l-174 -191h-211z" />
<glyph unicode="&#xf5;" d="M74 547q0 266 167 426t447.5 160t446 -160t165.5 -426t-165.5 -426t-446 -160t-447.5 160t-167 426zM281 547q0 -184 109.5 -292t298 -108t297 106.5t108.5 293t-108.5 294t-297 107.5t-298 -107.5t-109.5 -293.5zM295 1272q4 115 64.5 182.5t154.5 67.5q59 0 141 -35 l94 -39q86 -37 111 -37q74 0 92 109h127q-4 -115 -63.5 -182.5t-153.5 -67.5q-61 0 -143 35l-92 38q-90 37 -111 37q-76 0 -94 -108h-127z" />
<glyph unicode="&#xf6;" d="M74 547q0 266 167 426t447.5 160t446 -160t165.5 -426t-165.5 -426t-446 -160t-447.5 160t-167 426zM281 547q0 -184 109.5 -292t298 -108t297 106.5t108.5 293t-108.5 294t-297 107.5t-298 -107.5t-109.5 -293.5zM348 1282v227h199v-227h-199zM829 1282v227h199v-227 h-199z" />
<glyph unicode="&#xf7;" horiz-adv-x="1705" d="M254 541v139h1198v-139h-1198zM729 242q0 51 37 88t88 37t88 -37t37 -88.5t-37 -88t-88 -36.5q-53 0 -89 35.5t-36 89.5zM729 979q0 51 37 89t88 38t88 -38t37 -89t-37 -88t-88 -37t-88 36t-37 89z" />
<glyph unicode="&#xf8;" d="M51 41l144 133q-121 143 -121 373q0 266 167 426t447 160q258 0 408 -125l157 145l76 -80l-155 -143q127 -150 126 -383q0 -266 -165.5 -426t-446.5 -160q-256 0 -416 135l-147 -139zM279 541q0 -126 63 -228l608 559q-104 76 -262 76q-188 0 -298.5 -110.5 t-110.5 -296.5zM418 231q100 -84 270 -84q188 0 298 110t110 296q0 129 -70 235z" />
<glyph unicode="&#xf9;" horiz-adv-x="1351" d="M145 467v629h199v-637q0 -170 58.5 -245t203.5 -75q178 0 292 109.5t114 290.5v557h198v-1096h-196v186q-178 -217 -453 -217q-219 0 -330 127q-55 63 -70.5 145.5t-15.5 225.5zM385 1548h250l182 -305h-145z" />
<glyph unicode="&#xfa;" horiz-adv-x="1351" d="M145 467v629h199v-637q0 -170 58.5 -245t203.5 -75q178 0 292 109.5t114 290.5v557h198v-1096h-196v186q-178 -217 -453 -217q-219 0 -330 127q-55 63 -70.5 145.5t-15.5 225.5zM533 1243l182 305h250l-287 -305h-145z" />
<glyph unicode="&#xfb;" horiz-adv-x="1351" d="M145 467v629h199v-637q0 -170 58.5 -245t203.5 -75q178 0 292 109.5t114 290.5v557h198v-1096h-196v186q-178 -217 -453 -217q-219 0 -330 127q-55 63 -70.5 145.5t-15.5 225.5zM291 1243l274 305h222l274 -305h-211l-174 191l-174 -191h-211z" />
<glyph unicode="&#xfc;" horiz-adv-x="1351" d="M145 467v629h199v-637q0 -170 58.5 -245t203.5 -75q178 0 292 109.5t114 290.5v557h198v-1096h-196v186q-178 -217 -453 -217q-219 0 -330 127q-55 63 -70.5 145.5t-15.5 225.5zM336 1282v227h199v-227h-199zM817 1282v227h199v-227h-199z" />
<glyph unicode="&#xfd;" horiz-adv-x="1165" d="M-20 1096h237l373 -924l364 924h232l-486 -1088q-123 -276 -204 -336q-84 -61 -244 -61q-55 0 -137 8v186q78 -12 116 -12q106 0 158.5 45t87.5 162zM441 1243l182 305h250l-287 -305h-145z" />
<glyph unicode="&#xfe;" horiz-adv-x="1433" d="M150 -389v1868h198v-545q168 188 424 188q260 0 424 -159.5t164 -415.5t-164 -415t-426 -159q-258 0 -422 189v-551h-198zM348 547q0 -182 107.5 -287.5t294 -105.5t294 104t107.5 288.5t-107.5 289t-294 104.5t-294 -105.5t-107.5 -287.5z" />
<glyph unicode="&#xff;" horiz-adv-x="1165" d="M-20 1096h237l373 -924l364 924h232l-486 -1088q-123 -276 -204 -336q-84 -61 -244 -61q-55 0 -137 8v186q78 -12 116 -12q106 0 158.5 45t87.5 162zM244 1282v227h199v-227h-199zM725 1282v227h199v-227h-199z" />
<glyph unicode="&#x152;" horiz-adv-x="2594" d="M88 739q0 348 206 563.5t540 215.5q340 0 481 -209v170h1169v-189h-966v-436h907v-201h-907v-454h981v-199h-1184v170q-55 -98 -178 -153.5t-297 -55.5q-344 0 -548 211t-204 567zM305 739.5q0 -268.5 153.5 -424t418.5 -155.5q303 0 438 262v635q-135 262 -438 262 q-264 0 -418 -155.5t-154 -424z" />
<glyph unicode="&#x153;" horiz-adv-x="2371" d="M74 547q0 266 167 426t447 160q340 0 504 -228q156 227 491 228q260 0 416 -142q186 -168 187 -416q0 -18 -5 -67h-989v-8q0 -156 108.5 -254.5t282.5 -98.5q129 0 221.5 52.5t127.5 142.5h231q-59 -180 -210.5 -280.5t-369.5 -100.5q-348 0 -493 229 q-158 -229 -502 -229q-281 0 -447.5 160t-166.5 426zM281 547q0 -184 109.5 -292t298 -108t297 106.5t108.5 293t-108.5 294t-297 107.5t-298 -107.5t-109.5 -293.5zM1298 649h770q-23 139 -125 219t-260 80q-156 0 -258 -80t-127 -219z" />
<glyph unicode="&#x178;" horiz-adv-x="1464" d="M-31 1479h254l510 -688l514 688h250l-657 -863v-616h-209v616zM393 1667v227h199v-227h-199zM874 1667v227h199v-227h-199z" />
<glyph unicode="&#x2c6;" horiz-adv-x="1024" d="M127 1243l274 305h222l274 -305h-211l-174 191l-174 -191h-211z" />
<glyph unicode="&#x2dc;" horiz-adv-x="1024" d="M119 1272q4 115 64.5 182.5t154.5 67.5q59 0 141 -35l94 -39q86 -37 111 -37q74 0 92 109h127q-4 -115 -63.5 -182.5t-153.5 -67.5q-61 0 -143 35l-92 38q-90 37 -111 37q-76 0 -94 -108h-127z" />
<glyph unicode="&#x2000;" horiz-adv-x="978" />
<glyph unicode="&#x2001;" horiz-adv-x="1956" />
<glyph unicode="&#x2002;" horiz-adv-x="978" />
<glyph unicode="&#x2003;" horiz-adv-x="1956" />
<glyph unicode="&#x2004;" horiz-adv-x="652" />
<glyph unicode="&#x2005;" horiz-adv-x="489" />
<glyph unicode="&#x2006;" horiz-adv-x="326" />
<glyph unicode="&#x2007;" horiz-adv-x="326" />
<glyph unicode="&#x2008;" horiz-adv-x="244" />
<glyph unicode="&#x2009;" horiz-adv-x="391" />
<glyph unicode="&#x200a;" horiz-adv-x="108" />
<glyph unicode="&#x2010;" horiz-adv-x="948" d="M98 457v180h752v-180h-752z" />
<glyph unicode="&#x2011;" horiz-adv-x="948" d="M98 457v180h752v-180h-752z" />
<glyph unicode="&#x2012;" horiz-adv-x="948" d="M98 457v180h752v-180h-752z" />
<glyph unicode="&#x2013;" horiz-adv-x="1024" d="M0 481v131h1024v-131h-1024z" />
<glyph unicode="&#x2014;" horiz-adv-x="2048" d="M0 481v131h2048v-131h-2048z" />
<glyph unicode="&#x2018;" horiz-adv-x="616" d="M193 932v246q0 139 53 214.5t192 125.5v-134q-121 -45 -121 -176q0 -4 1 -14t1 -16h119v-246h-245z" />
<glyph unicode="&#x2019;" horiz-adv-x="616" d="M178 893v133q121 45 121 176q0 4 -1 14.5t-1 16.5h-119v246h246v-246q0 -139 -53.5 -215t-192.5 -125z" />
<glyph unicode="&#x201a;" horiz-adv-x="616" d="M178 0v246h246v-246q0 -139 -53.5 -215t-192.5 -125v133q121 45 121 176q0 6 -1 16.5t-1 14.5h-119z" />
<glyph unicode="&#x201c;" horiz-adv-x="1009" d="M193 932v246q0 139 53 214.5t192 125.5v-134q-121 -45 -121 -176q0 -4 1 -14t1 -16h119v-246h-245zM590 932v246q0 137 54 212.5t194 127.5v-134q-121 -45 -121 -176q0 -4 1 -14t1 -16h119v-246h-248z" />
<glyph unicode="&#x201d;" horiz-adv-x="1009" d="M178 893v133q121 45 121 176q0 4 -1 14.5t-1 16.5h-119v246h246v-246q0 -139 -53.5 -215t-192.5 -125zM571 893v133q121 45 121 176q0 4 -1 14.5t-1 16.5h-119v246h246v-246q0 -139 -53 -215t-193 -125z" />
<glyph unicode="&#x201e;" horiz-adv-x="1009" d="M178 0v246h246v-246q0 -139 -53.5 -215t-192.5 -125v133q121 45 121 176q0 6 -1 16.5t-1 14.5h-119zM571 0v246h246v-246q0 -139 -53 -215t-193 -125v133q121 45 121 176q0 6 -1 16.5t-1 14.5h-119z" />
<glyph unicode="&#x2022;" horiz-adv-x="1208" d="M307 762q0 123 87 209t210 86q121 0 208 -86t87 -209q0 -121 -87 -209t-210 -88t-209 87t-86 210z" />
<glyph unicode="&#x2026;" horiz-adv-x="2048" d="M217 0v246h248v-246h-248zM899 0v246h248v-246h-248zM1583 0v246h248v-246h-248z" />
<glyph unicode="&#x202f;" horiz-adv-x="391" />
<glyph unicode="&#x2039;" horiz-adv-x="663" d="M143 428v240l369 282v-217l-240 -186l240 -185v-217z" />
<glyph unicode="&#x203a;" horiz-adv-x="663" d="M152 145v217l239 185l-239 186v217l368 -282v-240z" />
<glyph unicode="&#x205f;" horiz-adv-x="489" />
<glyph unicode="&#x2122;" horiz-adv-x="1705" d="M242 1378v80h452v-80h-172v-458h-108v458h-172zM813 920v538h150l151 -385l141 385h150v-538h-98v444l-166 -444h-56l-174 444v-444h-98z" />
<glyph unicode="&#xe000;" horiz-adv-x="1095" d="M0 0v1096h1096v-1096h-1096z" />
<glyph unicode="&#xfb01;" horiz-adv-x="1204" d="M35 924v172h192v114q0 139 67.5 204t217.5 65q102 0 182 -17v-178q-72 14 -131 14q-76 0 -106.5 -28.5t-30.5 -100.5v-73h268v-172h-268v-924h-199v924h-192zM844 0v1096h198v-1096h-198zM844 1239v240h198v-240h-198z" />
<glyph unicode="&#xfb02;" horiz-adv-x="1204" d="M35 924v172h192v114q0 139 67.5 204t217.5 65q102 0 182 -17v-178q-72 14 -131 14q-76 0 -106.5 -28.5t-30.5 -100.5v-73h268v-172h-268v-924h-199v924h-192zM844 0v1479h198v-1479h-198z" />
</font>
</defs>
</svg>
