<?xml version="1.0" standalone="no"?>
<!DOCTYPE svg PUBLIC "-//W3C//DTD SVG 1.1//EN" "http://www.w3.org/Graphics/SVG/1.1/DTD/svg11.dtd" >
<svg xmlns="http://www.w3.org/2000/svg">
<metadata></metadata>
<defs>
<font id="swiss_721roman" horiz-adv-x="1024" >
<font-face units-per-em="2048" ascent="1638" descent="-410" />
<missing-glyph horiz-adv-x="561" />
<glyph horiz-adv-x="2048" />
<glyph horiz-adv-x="2048" />
<glyph unicode="&#xd;" horiz-adv-x="681" />
<glyph unicode=" "  horiz-adv-x="561" />
<glyph unicode="&#x09;" horiz-adv-x="561" />
<glyph unicode="&#xa0;" horiz-adv-x="561" />
<glyph unicode="!" horiz-adv-x="657" d="M227 0v219h201v-219h-201zM227 993v480h201v-480l-47 -637h-105z" />
<glyph unicode="&#x22;" horiz-adv-x="614" d="M90 881v555h139v-555h-139zM385 881v555h139v-555h-139z" />
<glyph unicode="#" horiz-adv-x="1574" d="M88 449l53 145h310l92 264h-330l51 146h332l162 454h166l-162 -454h256l164 454h164l-160 -454h301l-51 -146h-303l-93 -264h322l-51 -145h-322l-162 -453h-165l161 453h-258l-162 -453h-165l159 453h-309zM616 594h261l92 264h-260z" />
<glyph unicode="$" horiz-adv-x="1124" d="M63 410v22h177v-16q0 -133 70.5 -211t197.5 -86v522q-416 68 -416 389q0 170 110.5 277.5t305.5 117.5v140h104v-140q199 -16 304.5 -114.5t107.5 -266.5h-178q-25 209 -234 222v-463q242 -53 345.5 -145.5t103.5 -270.5q0 -180 -116 -290.5t-333 -133.5v-186h-104v184 q-444 35 -445 449zM270 1044q0 -96 57.5 -150.5t180.5 -74.5v449q-109 0 -173.5 -61.5t-64.5 -162.5zM612 111q127 12 194.5 78.5t67.5 175.5q0 100 -62 158.5t-200 90.5v-503z" />
<glyph unicode="%" horiz-adv-x="1730" d="M72 1036.5q0 149.5 102 252t252 102.5q145 0 249.5 -103.5t104.5 -251t-103.5 -252t-250.5 -104.5q-150 0 -252 103.5t-102 253zM221 1036q0 -88 59.5 -146.5t145.5 -58.5q84 0 144.5 59.5t60.5 145.5t-60.5 145.5t-144.5 59.5q-86 0 -145.5 -59.5t-59.5 -145.5zM365 -41 l876 1473h125l-877 -1473h-124zM948 356.5q0 149.5 102.5 252t252.5 102.5q147 0 251.5 -103.5t104.5 -251t-104.5 -252t-251.5 -104.5q-150 0 -252.5 103.5t-102.5 253zM1098 356q0 -88 59.5 -147t145.5 -59q84 0 144 60t60 146t-60.5 145.5t-143.5 59.5 q-86 0 -145.5 -59.5t-59.5 -145.5z" />
<glyph unicode="&#x26;" horiz-adv-x="1398" d="M109 391q0 143 83 250t263 207q-164 176 -164 336q0 143 98 236t254 93q164 0 258 -85t94 -228q0 -227 -276 -389l276 -336q49 92 60 244h174q-4 -213 -113 -387l275 -332h-246l-144 178q-178 -213 -452 -213q-197 0 -318.5 121t-121.5 305zM299 403q0 -115 77 -190.5 t197 -75.5q180 0 328 170l-348 420q-133 -76 -193.5 -150.5t-60.5 -173.5zM465 1190q0 -115 158 -277q205 125 204 279q0 78 -49 126t-127 48q-88 0 -137 -47t-49 -129z" />
<glyph unicode="'" horiz-adv-x="317" d="M90 881v555h139v-555h-139z" />
<glyph unicode="(" horiz-adv-x="688" d="M201 530.5q0 505.5 334 954.5h129q-281 -477 -281 -954.5t281 -954.5h-129q-334 449 -334 954.5z" />
<glyph unicode=")" horiz-adv-x="688" d="M25 -424q281 477 280.5 954.5t-280.5 954.5h129q332 -446 332 -954.5t-332 -954.5h-129z" />
<glyph unicode="*" d="M109 1114l51 158l274 -94v295h154v-295l272 94l55 -158l-288 -78l198 -243l-137 -101l-178 258l-174 -252l-139 93l196 245z" />
<glyph unicode="+" horiz-adv-x="1705" d="M254 541v139h528v541h142v-541h528v-139h-528v-541h-142v541h-528z" />
<glyph unicode="," horiz-adv-x="561" d="M178 0v221h205v-239q0 -113 -53.5 -187t-151.5 -98v102q100 20 101 170v31h-101z" />
<glyph unicode="-" horiz-adv-x="638" d="M72 461v162h495v-162h-495z" />
<glyph unicode="." horiz-adv-x="561" d="M178 0v223h205v-223h-205z" />
<glyph unicode="/" horiz-adv-x="616" d="M-2 -190l494 1701h126l-497 -1701h-123z" />
<glyph unicode="0" horiz-adv-x="1124" d="M70 694.5q0 362.5 126 550t365 187.5q242 0 368 -187.5t126 -550t-126 -549t-368 -186.5q-240 0 -365.5 186.5t-125.5 549zM266 694q0 -291 70 -429t225 -138q158 0 226.5 137t68.5 430t-68.5 431.5t-226.5 138.5q-156 0 -225.5 -138.5t-69.5 -431.5z" />
<glyph unicode="1" horiz-adv-x="1124" d="M193 1012v145q180 2 271 67.5t107 207.5h140v-1432h-187v1012h-331z" />
<glyph unicode="2" horiz-adv-x="1124" d="M63 0v12q0 215 105.5 355.5t345.5 271.5l121 66q209 115 209 305q0 113 -76 182.5t-207 69.5t-205.5 -87.5t-74.5 -242.5v-17h-187v25q0 229 129 360.5t346 131.5q211 0 340 -117t129 -307q0 -289 -307 -449l-121 -61q-152 -80 -233.5 -153t-108.5 -169h770v-176h-975z " />
<glyph unicode="3" horiz-adv-x="1124" d="M47 436v10h186q2 -152 82 -233.5t224 -81.5q141 0 221 75t80 206q0 119 -78 185.5t-223 66.5q-29 0 -103 -5v162q27 -2 62 -2q152 0 221 51.5t69 169.5q0 109 -65.5 166.5t-185.5 57.5q-274 0 -275 -303h-182v10q0 213 122 337t324 124q219 0 339 -101.5t120 -281.5 q0 -209 -178 -287q231 -84 231 -350q0 -205 -138 -329t-374 -124q-219 0 -349 129t-130 348z" />
<glyph unicode="4" horiz-adv-x="1124" d="M51 352v180l621 859h186v-875h203v-164h-203v-352h-184v352h-623zM223 516h451v637z" />
<glyph unicode="5" horiz-adv-x="1124" d="M55 371h189q16 -111 92 -173.5t192 -62.5q143 0 230.5 87t87.5 229q0 145 -85 231t-231 86q-168 0 -270 -131h-164l113 754h758v-168h-623l-57 -383q109 92 274 92q219 0 351 -129t132 -342q0 -225 -140 -363.5t-367 -138.5q-203 0 -334.5 113t-147.5 299z" />
<glyph unicode="6" horiz-adv-x="1124" d="M68 631q0 387 142 594t396 207q203 0 319 -103t128 -291h-189q-23 227 -256 228q-309 0 -336 -516q123 158 338 157q203 0 329 -129t126 -342t-133 -345t-350 -132q-248 0 -381 173t-133 499zM289 432q0 -143 80 -227t213 -84q129 0 206.5 86t77.5 227q0 139 -76.5 222 t-201.5 83q-139 0 -219 -82t-80 -225z" />
<glyph unicode="7" horiz-adv-x="1124" d="M82 1204v187h975v-170q-481 -522 -572 -1221h-209q88 676 584 1204h-778z" />
<glyph unicode="8" horiz-adv-x="1124" d="M72 408q-1 264 237 358q-188 86 -188 299q0 162 119.5 264.5t320.5 102.5t322 -102.5t121 -264.5q0 -213 -189 -299q238 -94 238 -358q0 -203 -132.5 -326t-359.5 -123t-358 123t-131 326zM270 412q0 -129 78 -205t213 -76q137 0 215 76t78 205q0 121 -78 191.5 t-215 70.5t-214 -70.5t-77 -191.5zM313 1049q0 -100 68 -163t180.5 -63t180 62.5t67.5 163.5q0 102 -65.5 160.5t-182.5 58.5t-182.5 -58.5t-65.5 -160.5z" />
<glyph unicode="9" horiz-adv-x="1124" d="M59 954q0 213 132.5 345.5t349.5 132.5q248 0 382 -172.5t134 -499.5q0 -387 -141.5 -594t-401.5 -207q-203 0 -321.5 106.5t-120.5 286.5h186q4 -106 72.5 -166.5t185.5 -60.5q309 0 336 516q-123 -158 -340 -158q-203 0 -328 129t-125 342zM258 956q0 -139 76 -221 t201 -82q139 0 219 81t80 224.5t-79 227.5t-212 84q-129 0 -207 -86.5t-78 -227.5z" />
<glyph unicode=":" horiz-adv-x="608" d="M201 0v223h207v-223h-207zM201 850v221h207v-221h-207z" />
<glyph unicode=";" horiz-adv-x="608" d="M201 0v221h207v-239q0 -113 -54.5 -187t-152.5 -98v102q102 20 102 170v31h-102zM201 850v221h207v-221h-207z" />
<glyph unicode="&#x3c;" horiz-adv-x="1705" d="M264 547v129l1178 483v-153l-969 -396l969 -393v-154z" />
<glyph unicode="=" horiz-adv-x="1705" d="M254 342v139h1198v-139h-1198zM254 739v140h1198v-140h-1198z" />
<glyph unicode="&#x3e;" horiz-adv-x="1705" d="M264 63v154l971 393l-971 396v153l1178 -483v-129z" />
<glyph unicode="?" horiz-adv-x="1075" d="M74 1026v27q0 217 120.5 337.5t337.5 120.5q193 0 307.5 -105.5t114.5 -279.5q0 -188 -149 -329l-84 -80q-70 -68 -99.5 -124t-29.5 -147q0 -33 2 -51h-180q0 6 -1 20.5t-1 22.5q0 113 37.5 198t121.5 167l78 78q113 113 113 245q0 98 -64.5 161t-173.5 63 q-264 0 -272 -324h-178zM408 0v219h200v-219h-200z" />
<glyph unicode="@" horiz-adv-x="2048" d="M106 522q0 336 203 582q297 362 807 362q340 0 563 -172q264 -205 265 -514q0 -356 -248 -551q-141 -113 -316 -112q-201 0 -200 157v19q-109 -174 -301 -174q-152 0 -233 85t-81 247q0 236 138.5 394.5t338.5 158.5q170 0 242 -150l57 115h132l-146 -576q-8 -33 -8 -59 q0 -94 100.5 -94t208.5 102q170 160 170 420q0 258 -189.5 419.5t-500.5 161.5q-264 0 -457 -114q-190 -115 -295.5 -300.5t-105.5 -408.5q0 -344 254 -538q209 -160 524 -160q348 0 621 190l55 -82q-297 -223 -664 -223q-383 0 -628 187q-305 236 -306 628zM725 446 q0 -106 48 -162.5t138 -56.5q96 0 174 68.5t105 179.5l59 236q-16 88 -68.5 136t-129.5 48q-137 0 -231.5 -130t-94.5 -319z" />
<glyph unicode="A" horiz-adv-x="1304" d="M-6 0l547 1473h221l549 -1473h-217l-156 440h-580l-157 -440h-207zM420 612h459l-228 650z" />
<glyph unicode="B" horiz-adv-x="1355" d="M158 0v1473h594q458 0 458 -357q0 -235 -211 -321q133 -25 207 -118t74 -237q0 -201 -133 -320.5t-365 -119.5h-624zM358 178h406q311 0 311 264q0 129 -82 188.5t-252 59.5h-383v-512zM358 854h351q154 0 227.5 55.5t73.5 175.5q0 219 -285 220h-367v-451z" />
<glyph unicode="C" horiz-adv-x="1460" d="M94 758q0 346 184.5 549.5t499.5 203.5q252 0 411 -130t183 -351h-196q-27 145 -132.5 224t-273.5 79q-223 0 -347 -156.5t-124 -443.5q0 -272 129 -434t340 -162q180 0 296 113t124 297h194q-14 -268 -184 -428t-440 -160q-309 0 -486.5 211t-177.5 588z" />
<glyph unicode="D" horiz-adv-x="1447" d="M158 0v1473h561q309 0 472 -183.5t163 -531.5q0 -360 -170 -559t-473 -199h-553zM358 180h344q219 0 333 143.5t114 424.5q0 270 -116 412.5t-331 142.5h-344v-1123z" />
<glyph unicode="E" horiz-adv-x="1308" d="M158 0v1473h1050v-183h-852v-440h787v-172h-787v-494h869v-184h-1067z" />
<glyph unicode="F" horiz-adv-x="1193" d="M158 0v1473h989v-185h-789v-442h689v-180h-689v-666h-200z" />
<glyph unicode="G" horiz-adv-x="1564" d="M94 733q0 360 191.5 569t521.5 209q252 0 410.5 -128t191.5 -355h-195q-29 150 -134 230.5t-273 80.5q-240 0 -373 -156.5t-133 -441t132 -442.5t360 -158q207 0 331.5 126t124.5 343v19h-461v166h646v-795h-131l-43 197q-178 -238 -496 -238q-295 0 -482.5 212 t-187.5 562z" />
<glyph unicode="H" horiz-adv-x="1480" d="M158 0v1473h200v-605h764v605h201v-1473h-201v690h-764v-690h-200z" />
<glyph unicode="I" horiz-adv-x="526" d="M162 0v1473h200v-1473h-200z" />
<glyph unicode="J" horiz-adv-x="1034" d="M37 414q0 40 2 63h192q-2 -20 -2 -61q0 -145 54.5 -211t177.5 -66q147 0 205 111q24 47 24 225v14v984h201v-1065q0 -227 -103.5 -337t-322.5 -110q-428 0 -428 453z" />
<glyph unicode="K" horiz-adv-x="1306" d="M158 0v1473h198v-711l709 711h266l-602 -590l619 -883h-248l-516 739l-228 -223v-516h-198z" />
<glyph unicode="L" horiz-adv-x="1095" d="M158 0v1473h202v-1287h734v-186h-936z" />
<glyph unicode="M" horiz-adv-x="1699" d="M158 0v1473h286l365 -1127q29 -84 35 -121q16 72 33 121l378 1127h287v-1473h-194v1255q-14 -66 -35 -129l-379 -1126h-189l-370 1126q-19 55 -33 129v-1255h-184z" />
<glyph unicode="N" horiz-adv-x="1476" d="M156 0v1473h219l688 -1070q45 -70 67 -124v1194h191v-1473h-217l-703 1085q-33 49 -55 109v-1194h-190z" />
<glyph unicode="O" horiz-adv-x="1583" d="M94 735.5q0 366.5 186.5 571t512 204.5t511 -204.5t185.5 -571t-185.5 -571.5t-511 -205t-512 205t-186.5 571.5zM301 735.5q0 -284.5 131 -443.5t360.5 -159t359.5 159t130 443.5t-130 443t-359.5 158.5t-360.5 -158.5t-131 -443z" />
<glyph unicode="P" horiz-adv-x="1290" d="M158 0v1473h542q221 0 324 -56q186 -102 186 -370q0 -252 -188 -367q-63 -39 -142 -49t-218 -10h-304v-621h-200zM358 799h336q168 0 241 53t73 195q0 135 -71 190t-228 55h-351v-493z" />
<glyph unicode="Q" horiz-adv-x="1583" d="M94 735.5q0 366.5 186.5 571t512.5 204.5q324 0 510 -205.5t186 -570.5q0 -354 -191 -579l177 -148l-99 -125l-207 170q-170 -94 -376 -94q-326 0 -512.5 205t-186.5 571.5zM301 735.5q0 -284.5 131 -443.5t361 -159q121 0 215 47l-162 135l98 125l197 -161 q141 154 141 456q0 285 -130 443.5t-359.5 158.5t-360.5 -158.5t-131 -443z" />
<glyph unicode="R" horiz-adv-x="1359" d="M158 0v1473h571q225 0 322 -52q190 -104 190 -356q0 -240 -203 -336q92 -27 126 -87t42 -187l17 -242q10 -141 67 -172v-41h-231q-29 45 -39 203l-12 192q-10 158 -69.5 197t-258.5 39h-324v-631h-198zM354 801h342q178 0 258 57t80 203q0 141 -78.5 190t-259.5 49h-342 v-499z" />
<glyph unicode="S" horiz-adv-x="1323" d="M90 485h193q2 -162 106.5 -256t276.5 -94q174 0 271 73t97 195q0 49 -17.5 86t-41 59.5t-78.5 44t-98 34t-133 32.5q-23 6 -35 9q-135 33 -216 61.5t-150.5 73.5t-98.5 111.5t-29 160.5q0 195 143.5 315.5t383.5 120.5q244 0 384 -125.5t142 -345.5h-191 q-10 147 -100 226.5t-248 79.5q-150 0 -236.5 -64.5t-86.5 -171.5q0 -119 74.5 -163t289.5 -93q53 -12 82 -18q100 -25 139 -35t99.5 -36t99.5 -58q121 -102 121 -281q0 -213 -151.5 -339t-413.5 -126q-268 0 -418 135t-160 389z" />
<glyph unicode="T" horiz-adv-x="1169" d="M18 1294v179h1131v-179h-465v-1294h-201v1294h-465z" />
<glyph unicode="U" horiz-adv-x="1452" d="M150 559v914h200v-916q0 -207 91 -306t284 -99q377 0 377 405v916h201v-914q0 -297 -153 -448.5t-448 -151.5q-552 0 -552 600z" />
<glyph unicode="V" horiz-adv-x="1251" d="M0 1473h207l424 -1233l411 1233h209l-518 -1473h-209z" />
<glyph unicode="W" horiz-adv-x="1851" d="M10 1473h195l301 -1178l311 1178h209l322 -1170l305 1170h190l-391 -1473h-197l-335 1214l-322 -1214h-205z" />
<glyph unicode="X" horiz-adv-x="1239" d="M0 0l506 754l-479 719h245l351 -545l356 545h233l-479 -715l506 -758h-246l-379 596l-370 -596h-244z" />
<glyph unicode="Y" horiz-adv-x="1234" d="M-18 1473h251l394 -697l391 697h235l-524 -869v-604h-201v590z" />
<glyph unicode="Z" horiz-adv-x="1224" d="M57 0v166l901 1132h-841v175h1073v-185l-883 -1108h883v-180h-1133z" />
<glyph unicode="[" horiz-adv-x="724" d="M248 -410v1883h399v-140h-219v-1603h219v-140h-399z" />
<glyph unicode="\" horiz-adv-x="616" d="M-2 1511h123l497 -1701h-126z" />
<glyph unicode="]" horiz-adv-x="724" d="M78 -270h219v1603h-219v140h399v-1883h-399v140z" />
<glyph unicode="^" horiz-adv-x="2048" d="M420 901l510 557h186l510 -557h-180l-422 420l-424 -420h-180z" />
<glyph unicode="_" d="M0 -340h1024v-143h-1024v143z" />
<glyph unicode="`" d="M250 1565h201l204 -348h-120z" />
<glyph unicode="a" horiz-adv-x="1112" d="M72 289q0 291 366 336q43 6 100.5 12t88 9t60.5 8t46 12q35 14 43 35.5t8 80.5q0 164 -241 164q-252 0 -252 -198h-170v8q0 162 113.5 256t314.5 94q215 0 316.5 -81t101.5 -251v-536q0 -61 12 -85t57 -24q16 0 47 6v-139q-61 -16 -104 -16q-180 0 -180 157v6 q-166 -176 -379 -176q-164 0 -256 86t-92 236zM258 291q0 -80 50 -123t143 -43q145 0 238 73.5t93 186.5v160q-35 -18 -79 -30.5t-77.5 -17.5t-93 -13.5t-90.5 -12.5q-98 -16 -141 -58t-43 -122z" />
<glyph unicode="b" horiz-adv-x="1216" d="M141 0v1473h176v-551q125 184 347 184q211 0 341 -154.5t130 -419.5q0 -260 -128 -412.5t-341 -152.5q-219 0 -349 168v-135h-176zM311 543q0 -201 83 -308.5t233 -107.5q147 0 233 104.5t86 288.5q0 205 -83 314.5t-234 109.5q-318 0 -318 -401z" />
<glyph unicode="c" horiz-adv-x="1075" d="M82 532q0 268 131 421t360 153q203 0 324 -105.5t129 -285.5h-178q-8 109 -79 169t-196 60q-145 0 -225 -104.5t-80 -301t77 -302t216 -105.5q258 0 295 254h172q-14 -197 -139 -307.5t-336 -110.5q-219 0 -345 150.5t-126 414.5z" />
<glyph unicode="d" horiz-adv-x="1216" d="M82 532q0 264 129 419t340 155q223 0 348 -166v533h174v-1473h-174v135q-137 -168 -348 -168q-213 0 -341 152.5t-128 412.5zM268 520q0 -184 86 -288.5t234 -104.5q150 0 233.5 107.5t83.5 308.5q0 401 -319 401q-152 0 -235 -109.5t-83 -314.5z" />
<glyph unicode="e" horiz-adv-x="1120" d="M86 524q0 274 129 428t352 154q229 0 356.5 -141.5t127.5 -401.5q0 -53 -2 -80h-775q2 -170 84 -262t226 -92q111 0 181 56.5t93 160.5h178q-29 -178 -154.5 -279.5t-314.5 -101.5q-221 0 -351 149.5t-130 409.5zM274 633h588q-2 152 -76.5 232.5t-212.5 80.5 q-133 0 -210 -79.5t-89 -233.5z" />
<glyph unicode="f" horiz-adv-x="540" d="M0 928v143h176v158q0 266 242 266q37 0 133 -14v-162q-57 10 -80 10q-68 0 -90.5 -38t-22.5 -130v-90h193v-143h-193v-928h-182v928h-176z" />
<glyph unicode="g" horiz-adv-x="1218" d="M86 539q0 256 132 411.5t351 155.5q203 0 338 -170v135h174v-1048q0 -246 -116.5 -357.5t-382.5 -111.5q-215 0 -334 83.5t-119 229.5v8h176v-4q0 -166 283 -166q172 0 245.5 65.5t73.5 213.5v147q-125 -166 -340 -166t-348 157t-133 417zM274 535q0 -195 84 -301.5 t234 -106.5q164 0 242.5 98.5t78.5 305.5q0 413 -323 413q-152 0 -234 -105.5t-82 -303.5z" />
<glyph unicode="h" horiz-adv-x="1165" d="M137 0v1473h180v-553q100 178 336 178q242 0 332 -146q47 -74 47 -258v-694h-182v659q0 150 -45 214.5t-170 64.5q-145 0 -231.5 -83t-86.5 -222v-633h-180z" />
<glyph unicode="i" horiz-adv-x="454" d="M137 0v1071h180v-1071h-180zM137 1268v205h180v-205h-180z" />
<glyph unicode="j" horiz-adv-x="471" d="M-25 -279q23 -2 60 -2q76 0 95.5 28t19.5 116v1208h180v-1233q0 -156 -60.5 -221.5t-212.5 -65.5q-21 1 -82 5v165zM150 1264v209h180v-209h-180z" />
<glyph unicode="k" horiz-adv-x="1058" d="M137 0v1473h180v-883l484 481h227l-401 -391l395 -680h-203l-313 555l-189 -182v-373h-180z" />
<glyph unicode="l" horiz-adv-x="462" d="M139 0v1473h183v-1473h-183z" />
<glyph unicode="m" horiz-adv-x="1757" d="M137 0v1071h172v-151q119 178 334 178q195 0 293 -168q135 168 344 168q215 0 299 -146q43 -78 43 -278v-674h-180v659q0 152 -40 216.5t-157 64.5q-129 0 -201.5 -80t-72.5 -227v-633h-183v659q0 152 -39.5 216.5t-156.5 64.5q-129 0 -202 -81t-73 -226v-633h-180z" />
<glyph unicode="n" horiz-adv-x="1165" d="M137 0v1071h172v-156q121 182 344 183q242 0 332 -146q47 -74 47 -258v-694h-182v659q0 150 -45 214.5t-170 64.5q-150 0 -234 -85t-84 -243v-610h-180z" />
<glyph unicode="o" horiz-adv-x="1189" d="M82 536.5q0 270.5 135 420t377 149.5q244 0 379 -149.5t135 -420t-135 -420t-377 -149.5q-244 0 -379 149.5t-135 420zM266 536.5q0 -198.5 85 -304t245 -105.5q158 0 242 105.5t84 304t-84 304t-242 105.5q-160 0 -245 -105.5t-85 -304z" />
<glyph unicode="p" horiz-adv-x="1216" d="M141 -428v1499h176v-151q127 186 349 186q213 0 341 -152.5t128 -414.5q0 -264 -130.5 -418t-340.5 -154q-221 0 -347 164v-559h-176zM311 528q0 -401 318 -401q152 0 234.5 109.5t82.5 314.5q0 184 -86 288.5t-233 104.5q-150 0 -233 -107.5t-83 -308.5z" />
<glyph unicode="q" horiz-adv-x="1216" d="M82 539q0 262 128 414.5t341 152.5q221 0 348 -180v145h174v-1499h-174v569q-106 -174 -348 -174q-211 0 -340 153.5t-129 418.5zM268 551q0 -207 86 -316.5t242 -109.5q147 0 228 106.5t81 305.5q0 195 -84 301t-231.5 106t-234.5 -104.5t-87 -288.5z" />
<glyph unicode="r" horiz-adv-x="679" d="M137 0v1071h174v-192q84 215 297 215q31 0 47 -2v-191q-14 2 -43 2q-145 0 -220 -79t-75 -228v-596h-180z" />
<glyph unicode="s" horiz-adv-x="1015" d="M63 348h175q18 -221 272 -221q117 0 183.5 46t66.5 124q0 63 -37 94t-127 51l-201 52q-164 39 -233.5 105.5t-69.5 195.5q0 141 106.5 225t295.5 84q193 0 305 -89t112 -239v-4h-176q-4 84 -68.5 131t-172.5 47q-221 0 -222 -149q0 -55 38 -84t130 -49l174 -41 q174 -41 250 -106.5t76 -201.5q0 -166 -116.5 -259t-329.5 -93q-205 0 -316 98.5t-115 282.5z" />
<glyph unicode="t" horiz-adv-x="575" d="M8 928v143h160v299h180v-299h193v-143h-193v-658q0 -70 19.5 -95t76.5 -25q29 0 97 6v-154q-88 -16 -144 -16q-129 0 -179 50t-50 173v719h-160z" />
<glyph unicode="u" horiz-adv-x="1165" d="M133 377v694h182v-657q0 -152 46.5 -216.5t170.5 -64.5q315 0 316 361v577h180v-1071h-172v160q-113 -186 -354 -187q-231 0 -322 146q-47 74 -47 258z" />
<glyph unicode="v" horiz-adv-x="985" d="M2 1071h193l299 -858l292 858h193l-391 -1071h-191z" />
<glyph unicode="w" horiz-adv-x="1490" d="M14 1071h187l227 -819l211 819h209l209 -819l235 819h185l-326 -1071h-182l-226 825l-227 -825h-182z" />
<glyph unicode="x" horiz-adv-x="980" d="M0 0l373 551l-355 520h211l263 -385l258 385h208l-360 -518l383 -553h-217l-281 414l-272 -414h-211z" />
<glyph unicode="y" horiz-adv-x="1038" d="M20 1071h201l297 -866l297 866h201l-451 -1237q-59 -162 -120.5 -222.5t-196.5 -60.5q-53 0 -107 17v172q53 -16 105 -16q100 0 133 88l47 127z" />
<glyph unicode="z" horiz-adv-x="985" d="M51 0v147l633 766h-600v158h831v-145l-626 -764h655v-162h-893z" />
<glyph unicode="{" d="M168 457v149q8 0 23.5 -1t21.5 -1q131 0 184.5 60.5t53.5 207.5v246q0 131 18 199.5t82 107.5q84 51 278 52h37v-150h-41q-125 0 -163.5 -47t-38.5 -182v-242q0 -150 -41 -222.5t-160 -103.5q121 -31 161 -102.5t40 -222.5v-242q0 -135 38.5 -182t165.5 -47h39v-148h-43 q-195 0 -272 49q-63 39 -81.5 108t-18.5 200v245q0 147 -53.5 209t-186.5 62q-6 0 -20.5 -1t-22.5 -1z" />
<glyph unicode="|" d="M438 -483v2048h150v-2048h-150z" />
<glyph unicode="}" d="M160 -266h39q125 0 164.5 48t39.5 183v240q0 150 41 222.5t160 102.5q-119 31 -160 104t-41 222v242q0 135 -39.5 182t-164.5 47h-39v150h37q197 0 278 -52q63 -39 81.5 -107.5t18.5 -199.5v-246q0 -147 53.5 -207.5t184.5 -60.5q6 0 21.5 1t23.5 1v-149q-8 0 -22.5 1 t-20.5 1q-133 0 -186.5 -61.5t-53.5 -209.5v-245q0 -131 -18 -200t-82 -108q-78 -49 -272 -49h-43v148z" />
<glyph unicode="~" horiz-adv-x="1705" d="M178 451v155q211 143 387 144q119 0 291 -62q8 -4 47 -17.5t51.5 -17.5t45 -13t50 -13t44 -7.5t49.5 -3.5q170 0 387 154v-156q-203 -141 -389 -141q-25 0 -52.5 3t-46 6t-52.5 13.5t-43 13.5t-50 17.5t-45 16.5q-193 66 -289 65q-162 0 -385 -157z" />
<glyph unicode="&#xa1;" horiz-adv-x="657" d="M227 0v477l49 639h105l47 -639v-477h-201zM227 1251v222h201v-222h-201z" />
<glyph unicode="&#xa2;" horiz-adv-x="1124" d="M84 532q0 262 131 417t342 155q47 0 102 -8l54 184h94l-59 -207q229 -90 245 -358h-180q-6 131 -113 194l-219 -772q35 -6 68 -6q104 0 174.5 65.5t93.5 188.5h178q-14 -190 -136 -303t-308 -113q-63 0 -115 11l-59 -213h-94l67 243q-266 135 -266 522zM274 539 q0 -252 125 -361l217 762q-37 4 -53 4q-133 0 -211 -106.5t-78 -298.5z" />
<glyph unicode="&#xa3;" horiz-adv-x="1124" d="M53 645v103h158q-104 176 -105 305q0 172 133.5 292.5t335.5 120.5q213 0 339 -117.5t126 -316.5q0 -6 -1 -19.5t-1 -19.5h-182v17q0 137 -73.5 212.5t-207.5 75.5q-121 0 -197.5 -72.5t-76.5 -178.5q0 -12 2 -26.5t4 -26t7 -28t8.5 -26.5t11.5 -28.5t12 -29t15.5 -33 t16.5 -31.5t18.5 -34.5t17.5 -35.5h321v-103h-274q20 -76 20 -121q0 -170 -205 -366q94 51 234 51q70 0 175.5 -36t141.5 -36q76 0 168 64l82 -140q-123 -104 -254 -104q-82 0 -174 37l-94 37q-68 25 -129 24q-145 0 -264 -88l-99 146q248 201 248 376q0 72 -43 156h-215z " />
<glyph unicode="&#xa4;" horiz-adv-x="1124" d="M-29 795l39 88h99q16 309 145 468.5t360 159.5q193 0 314 -127t141 -354h-197q-35 313 -272 313q-276 0 -295 -460h449l-39 -88h-414v-119h361l-39 -88h-318q14 -461 293 -461q125 0 201 108.5t82 307.5h196q-8 -270 -142 -427t-349 -157q-211 0 -336 162t-141 467h-109 l39 88h63v119h-131z" />
<glyph unicode="&#xa5;" horiz-adv-x="1234" d="M16 563v92h461l-84 127h-377v92h322l-322 517h228l383 -656l385 656h207l-314 -517h314v-92h-371l-78 -127h449v-92h-500v-563h-184v563h-519z" />
<glyph unicode="&#xa6;" d="M438 -350v758h150v-758h-150zM438 674v758h150v-758h-150z" />
<glyph unicode="&#xa7;" d="M80 711q0 170 182 288q-96 76 -96 201q0 137 93 225t243 88q162 0 254 -86t92 -235v-10h-170q-2 82 -50 131t-126 49q-74 0 -116 -38t-42 -101q0 -53 36 -93t114 -81l247 -134q104 -57 153.5 -126.5t49.5 -174.5q0 -88 -51 -163.5t-137 -110.5q106 -86 106 -219 q0 -137 -100 -227.5t-262 -90.5q-158 0 -254 91t-96 245h174v-4q0 -84 50 -130t142 -46q80 0 126 38t46 103.5t-52 113.5t-173 114l-182 100q-201 109 -201 283zM258 766q0 -63 41 -105.5t137 -97.5l221 -129q102 61 103 162q0 61 -41 103t-137 96l-217 120 q-106 -63 -107 -149z" />
<glyph unicode="&#xa8;" d="M256 1274v211h182v-211h-182zM586 1274v211h182v-211h-182z" />
<glyph unicode="&#xa9;" horiz-adv-x="1705" d="M117 727q0 301 219 524q213 213 516 213q309 0 524 -215t215 -522t-213 -516q-227 -221 -526 -221t-518 219q-217 217 -217 518zM213 727q0 -260 190 -451q188 -188 451 -188q258 0 455 191q184 180 184 448t-184 453q-188 188 -455 188q-264 0 -448 -184 q-193 -193 -193 -457zM463 733q0 201 109.5 323t285.5 122q143 0 237.5 -75t104.5 -196h-147q-12 76 -65.5 118t-139.5 42q-102 0 -163.5 -89t-61.5 -251q0 -158 62.5 -245t172.5 -87q82 0 136.5 47t68.5 129h145q-10 -131 -108.5 -211.5t-247.5 -80.5q-180 0 -284.5 119.5 t-104.5 334.5z" />
<glyph unicode="&#xaa;" horiz-adv-x="833" d="M45 934q0 209 281 242q35 4 73.5 8t59 6t44 4t34 6t20.5 9t14 15.5t6.5 23t2.5 32.5q0 104 -172 104q-180 0 -181 -137h-145v13q0 117 87 184t243 67q166 0 244.5 -57t78.5 -180v-377q0 -39 7.5 -53.5t37.5 -14.5q14 0 43 7v-113q-45 -14 -78 -14q-153 0 -153 104 q-119 -113 -277 -113q-127 0 -198.5 62.5t-71.5 171.5zM102 457v112h664v-112h-664zM203 934q0 -109 137 -109q104 0 172 50.5t68 125.5v99q-23 -10 -53.5 -18.5t-55.5 -11.5t-68 -8t-67 -9q-72 -10 -102.5 -37t-30.5 -82z" />
<glyph unicode="&#xab;" horiz-adv-x="909" d="M80 442v199l323 242v-174l-213 -168l213 -166v-176zM489 442v199l324 242v-174l-213 -168l213 -166v-176z" />
<glyph unicode="&#xac;" horiz-adv-x="1705" d="M254 721v139h1198v-502h-137v363h-1061z" />
<glyph unicode="&#xad;" horiz-adv-x="638" d="M72 461v162h495v-162h-495z" />
<glyph unicode="&#xae;" horiz-adv-x="1705" d="M117 727q0 301 223 528q205 209 512 209q311 0 526 -219q213 -217 213 -518q0 -309 -215 -518q-225 -219 -524 -219q-303 0 -520 221q-215 219 -215 516zM213 727q0 -256 188 -448q186 -190 447 -191q264 0 459 188q186 181 186 445q0 274 -182 457q-186 190 -457 190 q-268 0 -446 -182q-195 -199 -195 -459zM557 324v835h315q348 0 349 -229q0 -88 -50.5 -147.5t-140.5 -77.5l187 -381h-177l-170 356h-155v-356h-158zM715 780h133q111 0 161 31t50 102q0 76 -51 110t-164 34h-129v-277z" />
<glyph unicode="&#xaf;" d="M242 1309v141h540v-141h-540z" />
<glyph unicode="&#xb0;" horiz-adv-x="673" d="M49 1167.5q0 120.5 85 204.5t204 84t203 -85t84 -203.5t-84 -202.5t-205 -84t-204 83t-83 203.5zM143 1169q0 -82 56.5 -139t138.5 -57t137 57t55 139q0 80 -55 136.5t-137 56.5q-80 0 -137.5 -56.5t-57.5 -136.5z" />
<glyph unicode="&#xb1;" horiz-adv-x="1705" d="M254 29v141h1198v-141h-1198zM254 713v139h528v340h142v-340h528v-139h-528v-340h-142v340h-528z" />
<glyph unicode="&#xb2;" horiz-adv-x="741" d="M41 557v8q0 129 70.5 213t228.5 162l80 39q137 70 137 184q0 68 -50 110t-136 42t-136.5 -52.5t-50.5 -146.5v-10h-123v14q0 137 85 216t229 79q141 0 226 -69.5t85 -184.5q0 -172 -203 -268l-80 -37q-100 -47 -154 -91t-73 -101h510v-107h-645z" />
<glyph unicode="&#xb3;" horiz-adv-x="741" d="M31 819v6h123q4 -92 56 -141t146 -49q92 0 145.5 46t53.5 124q0 72 -52 110.5t-147 38.5q-45 0 -67 -2v99q16 -2 39 -2q100 0 146 30.5t46 102.5q0 133 -166 133q-182 0 -182 -182h-119v6q0 129 80 202.5t215 73.5q145 0 223 -60.5t78 -168.5q0 -125 -117 -172 q154 -49 154 -209q0 -123 -92 -198t-246 -75q-145 0 -231 78t-86 209z" />
<glyph unicode="&#xb4;" d="M369 1217l204 348h201l-285 -348h-120z" />
<glyph unicode="&#xb6;" d="M66 1130q0 156 106.5 252.5t286.5 96.5h499v-86h-120v-1393h-111v1393h-178v-1393h-111v782q-172 8 -272 103.5t-100 244.5z" />
<glyph unicode="&#xb7;" horiz-adv-x="561" d="M158 702.5q0 51.5 35.5 87t87.5 35.5q53 0 89 -35.5t36 -87t-36 -87t-89 -35.5q-51 0 -87 35.5t-36 87z" />
<glyph unicode="&#xb8;" d="M287 -313q156 -37 245 -37q104 0 105 74q0 80 -127 79q-31 0 -49 -2v181h74v-93h28q102 0 156.5 -41t54.5 -116q0 -176 -244 -176q-94 -1 -241 38z" />
<glyph unicode="&#xb9;" horiz-adv-x="741" d="M127 1163v88q229 2 250 164h92v-858h-123v606h-219z" />
<glyph unicode="&#xba;" horiz-adv-x="892" d="M51 1106q0 190 105.5 297.5t289.5 107.5q186 0 291 -106.5t105 -299t-104.5 -299t-288.5 -106.5q-188 0 -293 106.5t-105 299.5zM111 457v112h671v-112h-671zM211 1108q0 -137 61.5 -209t176 -72t175 72t60.5 209q0 135 -60 205.5t-175 70.5q-238 0 -238 -276z" />
<glyph unicode="&#xbb;" horiz-adv-x="909" d="M96 199v176l215 166l-215 166v176l324 -242v-199zM508 199v176l213 166l-213 166v176l323 -242v-199z" />
<glyph unicode="&#xbc;" horiz-adv-x="1757" d="M121 1180v80q219 2 239 153h89v-801h-119v568h-209zM367 -41l899 1473h125l-899 -1473h-125zM1083 197v102l392 479h116v-489h127v-92h-127v-197h-116v197h-392zM1192 289h283v356z" />
<glyph unicode="&#xbd;" horiz-adv-x="1757" d="M121 1180v80q219 2 239 153h89v-801h-119v568h-209zM367 -41l899 1473h125l-899 -1473h-125zM1092 0v6q0 121 66.5 200t215.5 152l76 37q133 63 133 170q0 63 -48 102.5t-130 39.5t-130 -49.5t-48 -135.5v-10h-117v14q0 129 81 202t218 73q133 0 214 -64.5t81 -171.5 q0 -162 -193 -252l-75 -34q-96 -45 -147.5 -86t-67.5 -95h483v-98h-612z" />
<glyph unicode="&#xbe;" horiz-adv-x="1759" d="M29 856v6h118q2 -84 52.5 -130t140.5 -46q88 0 138 42t50 116q0 139 -188 139q-41 0 -66 -2v92q16 -2 39 -2q96 0 140.5 28.5t44.5 94.5q0 127 -160 127q-172 0 -172 -170h-115v4q0 119 76 188.5t205 69.5q139 0 214 -56.5t75 -156.5q0 -119 -113 -162q145 -47 145 -194 q0 -115 -87 -184.5t-234 -69.5q-137 0 -220 72.5t-83 193.5zM367 -41l899 1473h125l-899 -1473h-125zM1083 197v102l392 479h116v-489h127v-92h-127v-197h-116v197h-392zM1192 289h283v356z" />
<glyph unicode="&#xbf;" horiz-adv-x="1075" d="M121 346q0 184 151 328l84 80q70 68 99.5 124t29.5 146q0 33 -2 51h179q0 -8 1 -23.5t1 -21.5q0 -113 -38 -196.5t-120 -165.5l-78 -78q-113 -113 -113 -246q0 -98 64.5 -160.5t173.5 -62.5q262 0 270 325h178v-26q0 -219 -119.5 -339t-336.5 -120q-193 0 -308.5 106.5 t-115.5 278.5zM467 1251v222h201v-222h-201z" />
<glyph unicode="&#xc0;" horiz-adv-x="1304" d="M-6 0l547 1473h221l549 -1473h-217l-156 440h-580l-157 -440h-207zM391 1950h201l204 -348h-120zM420 612h459l-228 650z" />
<glyph unicode="&#xc1;" horiz-adv-x="1304" d="M-6 0l547 1473h221l549 -1473h-217l-156 440h-580l-157 -440h-207zM420 612h459l-228 650zM510 1602l204 348h201l-285 -348h-120z" />
<glyph unicode="&#xc2;" horiz-adv-x="1304" d="M-6 0l547 1473h221l549 -1473h-217l-156 440h-580l-157 -440h-207zM358 1602l197 348h196l197 -348h-123l-172 227l-174 -227h-121zM420 612h459l-228 650z" />
<glyph unicode="&#xc3;" horiz-adv-x="1304" d="M-6 0l547 1473h221l549 -1473h-217l-156 440h-580l-157 -440h-207zM360 1647q18 98 68.5 151t124.5 53q35 0 59 -8l98 -28q31 -8 54 -9q68 0 94 72h88q-41 -207 -197 -207q-29 0 -65 10l-97 27q-27 8 -49 8q-61 0 -90 -69h-88zM420 612h459l-228 650z" />
<glyph unicode="&#xc4;" horiz-adv-x="1304" d="M-6 0l547 1473h221l549 -1473h-217l-156 440h-580l-157 -440h-207zM397 1659v211h182v-211h-182zM420 612h459l-228 650zM727 1659v211h182v-211h-182z" />
<glyph unicode="&#xc5;" horiz-adv-x="1304" d="M-6 0l547 1473h221l549 -1473h-217l-156 440h-573l-154 -440h-217zM424 612h457l-230 650zM426 1747q0 94 65.5 159.5t162 65.5t161 -64.5t64.5 -160.5t-65.5 -161.5t-160 -65.5t-161 66.5t-66.5 160.5zM543 1747q0 -47 31.5 -79t78.5 -32q45 0 78 33t33 78t-33 78 t-78 33t-77.5 -33t-32.5 -78z" />
<glyph unicode="&#xc6;" horiz-adv-x="1941" d="M-31 0l609 1473h1267v-183h-805v-440h740v-172h-740v-494h815v-184h-1011v440h-484l-172 -440h-219zM428 612h416v691h-148z" />
<glyph unicode="&#xc7;" horiz-adv-x="1460" d="M94 758q0 342 185.5 547.5t500.5 205.5q250 0 410 -131t182 -350h-196q-27 145 -131.5 224t-272.5 79q-225 0 -349 -156.5t-124 -443.5q0 -272 130 -434t341 -162q180 0 296 113t122 297h194q-10 -250 -169.5 -410t-424.5 -178v-70h27q102 0 157.5 -42t55.5 -115 q0 -176 -237 -176q-106 0 -246 38l-2 93q164 -37 248 -37q102 0 102 74q0 80 -119 79q-31 0 -57 -2v158q-293 18 -458 227t-165 572z" />
<glyph unicode="&#xc8;" horiz-adv-x="1308" d="M158 0v1473h1050v-183h-852v-440h787v-172h-787v-494h869v-184h-1067zM412 1950h201l204 -348h-120z" />
<glyph unicode="&#xc9;" horiz-adv-x="1308" d="M158 0v1473h1050v-183h-852v-440h787v-172h-787v-494h869v-184h-1067zM531 1602l204 348h201l-285 -348h-120z" />
<glyph unicode="&#xca;" horiz-adv-x="1308" d="M158 0v1473h1050v-183h-852v-440h787v-172h-787v-494h869v-184h-1067zM379 1602l197 348h196l197 -348h-123l-172 227l-174 -227h-121z" />
<glyph unicode="&#xcb;" horiz-adv-x="1308" d="M158 0v1473h1050v-183h-852v-440h787v-172h-787v-494h869v-184h-1067zM418 1659v211h182v-211h-182zM748 1659v211h182v-211h-182z" />
<glyph unicode="&#xcc;" horiz-adv-x="526" d="M2 1950h201l204 -348h-120zM162 0v1473h200v-1473h-200z" />
<glyph unicode="&#xcd;" horiz-adv-x="526" d="M121 1602l204 348h201l-285 -348h-120zM162 0v1473h200v-1473h-200z" />
<glyph unicode="&#xce;" horiz-adv-x="526" d="M-31 1602l197 348h196l197 -348h-123l-172 227l-174 -227h-121zM162 0v1473h200v-1473h-200z" />
<glyph unicode="&#xcf;" horiz-adv-x="526" d="M8 1659v211h182v-211h-182zM162 0v1473h200v-1473h-200zM338 1659v211h182v-211h-182z" />
<glyph unicode="&#xd0;" horiz-adv-x="1458" d="M0 719v127h166v627h563q309 0 471 -183.5t162 -531.5q0 -360 -169 -559t-472 -199h-555v719h-166zM367 180h346q219 0 332.5 143.5t113.5 424.5q0 270 -115.5 412.5t-330.5 142.5h-346v-457h395v-127h-395v-539z" />
<glyph unicode="&#xd1;" horiz-adv-x="1476" d="M156 0v1473h219l688 -1070q45 -70 67 -124v1194h191v-1473h-217l-703 1085q-33 49 -55 109v-1194h-190zM446 1647q18 98 68.5 151t124.5 53q35 0 59 -8l98 -28q31 -8 54 -9q68 0 94 72h88q-41 -207 -197 -207q-29 0 -65 10l-97 27q-27 8 -49 8q-61 0 -90 -69h-88z" />
<glyph unicode="&#xd2;" horiz-adv-x="1583" d="M94 735.5q0 366.5 186.5 571t512 204.5t511 -204.5t185.5 -571t-185.5 -571.5t-511 -205t-512 205t-186.5 571.5zM301 735.5q0 -284.5 131 -443.5t360.5 -159t359.5 159t130 443.5t-130 443t-359.5 158.5t-360.5 -158.5t-131 -443zM531 1950h201l204 -348h-120z" />
<glyph unicode="&#xd3;" horiz-adv-x="1583" d="M94 735.5q0 366.5 186.5 571t512 204.5t511 -204.5t185.5 -571t-185.5 -571.5t-511 -205t-512 205t-186.5 571.5zM301 735.5q0 -284.5 131 -443.5t360.5 -159t359.5 159t130 443.5t-130 443t-359.5 158.5t-360.5 -158.5t-131 -443zM650 1602l204 348h201l-285 -348h-120z " />
<glyph unicode="&#xd4;" horiz-adv-x="1583" d="M94 735.5q0 366.5 186.5 571t512 204.5t511 -204.5t185.5 -571t-185.5 -571.5t-511 -205t-512 205t-186.5 571.5zM301 735.5q0 -284.5 131 -443.5t360.5 -159t359.5 159t130 443.5t-130 443t-359.5 158.5t-360.5 -158.5t-131 -443zM498 1602l197 348h196l197 -348h-123 l-172 227l-174 -227h-121z" />
<glyph unicode="&#xd5;" horiz-adv-x="1583" d="M94 735.5q0 366.5 186.5 571t512 204.5t511 -204.5t185.5 -571t-185.5 -571.5t-511 -205t-512 205t-186.5 571.5zM301 735.5q0 -284.5 131 -443.5t360.5 -159t359.5 159t130 443.5t-130 443t-359.5 158.5t-360.5 -158.5t-131 -443zM500 1647q18 98 68.5 151t124.5 53 q35 0 59 -8l98 -28q31 -8 54 -9q68 0 94 72h88q-41 -207 -197 -207q-29 0 -65 10l-97 27q-27 8 -49 8q-61 0 -90 -69h-88z" />
<glyph unicode="&#xd6;" horiz-adv-x="1583" d="M94 735.5q0 366.5 186.5 571t512 204.5t511 -204.5t185.5 -571t-185.5 -571.5t-511 -205t-512 205t-186.5 571.5zM301 735.5q0 -284.5 131 -443.5t360.5 -159t359.5 159t130 443.5t-130 443t-359.5 158.5t-360.5 -158.5t-131 -443zM537 1659v211h182v-211h-182zM867 1659 v211h182v-211h-182z" />
<glyph unicode="&#xd7;" horiz-adv-x="1705" d="M293 141l469 469l-469 469l98 99l469 -469l469 469l98 -99l-469 -469l469 -469l-98 -96l-469 467l-469 -467z" />
<glyph unicode="&#xd8;" horiz-adv-x="1583" d="M84 25l162 182q-152 195 -152 528q0 367 186.5 571.5t512.5 204.5q287 0 477 -170l151 170l72 -67l-156 -176q152 -195 152 -533q0 -367 -185.5 -571.5t-510.5 -204.5q-293 0 -482 176l-153 -176zM301 725q0 -227 86 -371l756 840q-129 143 -350 143 q-231 0 -361.5 -159.5t-130.5 -452.5zM440 281q137 -147 353 -148q229 0 359 159t130 443q0 229 -86 383z" />
<glyph unicode="&#xd9;" horiz-adv-x="1452" d="M150 559v914h200v-916q0 -207 91 -306t284 -99q377 0 377 405v916h201v-914q0 -297 -153 -448.5t-448 -151.5q-552 0 -552 600zM465 1950h201l204 -348h-120z" />
<glyph unicode="&#xda;" horiz-adv-x="1452" d="M150 559v914h200v-916q0 -207 91 -306t284 -99q377 0 377 405v916h201v-914q0 -297 -153 -448.5t-448 -151.5q-552 0 -552 600zM584 1602l204 348h201l-285 -348h-120z" />
<glyph unicode="&#xdb;" horiz-adv-x="1452" d="M150 559v914h200v-916q0 -207 91 -306t284 -99q377 0 377 405v916h201v-914q0 -297 -153 -448.5t-448 -151.5q-552 0 -552 600zM432 1602l197 348h196l197 -348h-123l-172 227l-174 -227h-121z" />
<glyph unicode="&#xdc;" horiz-adv-x="1452" d="M150 559v914h200v-916q0 -207 91 -306t284 -99q377 0 377 405v916h201v-914q0 -297 -153 -448.5t-448 -151.5q-552 0 -552 600zM471 1659v211h182v-211h-182zM801 1659v211h182v-211h-182z" />
<glyph unicode="&#xdd;" horiz-adv-x="1234" d="M-18 1473h251l394 -697l391 697h235l-524 -869v-604h-201v590zM475 1602l204 348h201l-285 -348h-120z" />
<glyph unicode="&#xde;" horiz-adv-x="1290" d="M158 0v1473h200v-287h344q225 0 322 -51q186 -96 186 -347q0 -236 -188 -342q-63 -37 -143 -46t-217 -9h-304v-391h-200zM358 565h336q166 0 240 49.5t74 173.5q0 123 -71 173.5t-228 50.5h-351v-447z" />
<glyph unicode="&#xdf;" horiz-adv-x="1103" d="M137 0v1049q0 219 107.5 331.5t310.5 112.5q184 0 293.5 -102.5t109.5 -268.5q0 -225 -159 -301q106 -35 165.5 -129t59.5 -227q0 -221 -124 -360.5t-314 -139.5q-39 0 -121 15v167q49 -12 86 -12q125 0 205 85t80 224q0 279 -326 279h-31v149h31q266 0 266 234 q0 106 -61.5 167.5t-163.5 61.5q-123 0 -179.5 -75.5t-56.5 -237.5v-1022h-178z" />
<glyph unicode="&#xe0;" horiz-adv-x="1112" d="M72 289q0 291 366 336q43 6 100.5 12t88 9t60.5 8t46 12q35 14 43 35.5t8 80.5q0 164 -241 164q-252 0 -252 -198h-170v8q0 162 113.5 256t314.5 94q215 0 316.5 -81t101.5 -251v-536q0 -61 12 -85t57 -24q16 0 47 6v-139q-61 -16 -104 -16q-180 0 -180 157v6 q-166 -176 -379 -176q-164 0 -256 86t-92 236zM258 291q0 -80 50 -123t143 -43q145 0 238 73.5t93 186.5v160q-35 -18 -79 -30.5t-77.5 -17.5t-93 -13.5t-90.5 -12.5q-98 -16 -141 -58t-43 -122zM295 1565h201l204 -348h-120z" />
<glyph unicode="&#xe1;" horiz-adv-x="1112" d="M72 289q0 291 366 336q43 6 100.5 12t88 9t60.5 8t46 12q35 14 43 35.5t8 80.5q0 164 -241 164q-252 0 -252 -198h-170v8q0 162 113.5 256t314.5 94q215 0 316.5 -81t101.5 -251v-536q0 -61 12 -85t57 -24q16 0 47 6v-139q-61 -16 -104 -16q-180 0 -180 157v6 q-166 -176 -379 -176q-164 0 -256 86t-92 236zM258 291q0 -80 50 -123t143 -43q145 0 238 73.5t93 186.5v160q-35 -18 -79 -30.5t-77.5 -17.5t-93 -13.5t-90.5 -12.5q-98 -16 -141 -58t-43 -122zM414 1217l204 348h201l-285 -348h-120z" />
<glyph unicode="&#xe2;" horiz-adv-x="1112" d="M72 289q0 291 366 336q43 6 100.5 12t88 9t60.5 8t46 12q35 14 43 35.5t8 80.5q0 164 -241 164q-252 0 -252 -198h-170v8q0 162 113.5 256t314.5 94q215 0 316.5 -81t101.5 -251v-536q0 -61 12 -85t57 -24q16 0 47 6v-139q-61 -16 -104 -16q-180 0 -180 157v6 q-166 -176 -379 -176q-164 0 -256 86t-92 236zM258 291q0 -80 50 -123t143 -43q145 0 238 73.5t93 186.5v160q-35 -18 -79 -30.5t-77.5 -17.5t-93 -13.5t-90.5 -12.5q-98 -16 -141 -58t-43 -122zM262 1217l197 348h196l197 -348h-123l-172 227l-174 -227h-121z" />
<glyph unicode="&#xe3;" horiz-adv-x="1112" d="M72 289q0 291 366 336q43 6 100.5 12t88 9t60.5 8t46 12q35 14 43 35.5t8 80.5q0 164 -241 164q-252 0 -252 -198h-170v8q0 162 113.5 256t314.5 94q215 0 316.5 -81t101.5 -251v-536q0 -61 12 -85t57 -24q16 0 47 6v-139q-61 -16 -104 -16q-180 0 -180 157v6 q-166 -176 -379 -176q-164 0 -256 86t-92 236zM258 291q0 -80 50 -123t143 -43q145 0 238 73.5t93 186.5v160q-35 -18 -79 -30.5t-77.5 -17.5t-93 -13.5t-90.5 -12.5q-98 -16 -141 -58t-43 -122zM264 1262q18 98 68.5 151t124.5 53q35 0 59 -8l98 -28q31 -8 54 -9 q68 0 94 72h88q-41 -207 -197 -207q-29 0 -65 10l-97 27q-27 8 -49 8q-61 0 -90 -69h-88z" />
<glyph unicode="&#xe4;" horiz-adv-x="1112" d="M72 289q0 291 366 336q43 6 100.5 12t88 9t60.5 8t46 12q35 14 43 35.5t8 80.5q0 164 -241 164q-252 0 -252 -198h-170v8q0 162 113.5 256t314.5 94q215 0 316.5 -81t101.5 -251v-536q0 -61 12 -85t57 -24q16 0 47 6v-139q-61 -16 -104 -16q-180 0 -180 157v6 q-166 -176 -379 -176q-164 0 -256 86t-92 236zM258 291q0 -80 50 -123t143 -43q145 0 238 73.5t93 186.5v160q-35 -18 -79 -30.5t-77.5 -17.5t-93 -13.5t-90.5 -12.5q-98 -16 -141 -58t-43 -122zM301 1274v211h182v-211h-182zM631 1274v211h182v-211h-182z" />
<glyph unicode="&#xe5;" horiz-adv-x="1112" d="M72 289q0 291 370 336q47 6 123 14t112 13t56 14q35 14 43 35.5t8 80.5q0 164 -241 164q-252 0 -252 -198h-170v8q0 162 113.5 256t314.5 94q215 0 316.5 -81t101.5 -251v-536q0 -61 12 -85t57 -24q16 0 47 6v-139q-61 -16 -104 -16q-180 0 -180 157v6 q-166 -176 -379 -176q-164 0 -256 86t-92 236zM258 291q0 -80 50 -123t143 -43q145 0 238 73.5t93 186.5v160q-35 -18 -79 -30.5t-77.5 -17.5t-93 -13.5t-90.5 -12.5q-98 -16 -141 -58t-43 -122zM324 1382q0 96 65.5 161t159.5 65t159.5 -64.5t65.5 -161t-65.5 -162 t-159.5 -65.5t-159.5 66.5t-65.5 160.5zM438 1382q0 -47 33 -78.5t78 -31.5t77.5 32.5t32.5 77.5t-32.5 78t-77.5 33t-78 -33t-33 -78z" />
<glyph unicode="&#xe6;" horiz-adv-x="1806" d="M76 274q0 152 88 241t258 110q37 4 82 9t70.5 7t57.5 6t49 8t37.5 10.5t31 14.5t19.5 20.5t12 28.5t3 37q0 96 -56 139t-183 43q-119 0 -182.5 -49t-63.5 -141v-8h-170v8q0 160 111.5 253t306.5 93q270 0 371 -154q123 154 350 154q211 0 337 -148.5t126 -408.5 q0 -41 -2 -62h-773q6 -356 293 -356q242 0 287 217h178q-33 -184 -158.5 -282.5t-330.5 -98.5q-277 0 -381 199q-178 -199 -395 -199q-176 0 -274.5 83t-98.5 226zM264 293q0 -80 53.5 -124t151.5 -44q133 0 222 73.5t89 178.5v162q-86 -33 -211 -52.5t-129 -19.5 q-92 -25 -134 -65t-42 -109zM952 633h590q-2 152 -76.5 232.5t-212.5 80.5q-133 0 -211 -79.5t-90 -233.5z" />
<glyph unicode="&#xe7;" horiz-adv-x="1075" d="M80 532q0 266 133 420t360 154q203 0 325 -107.5t128 -283.5h-178q-8 109 -79 169t-196 60q-145 0 -225 -103.5t-80 -302t77 -303t216 -104.5q256 0 295 254h172q-8 -182 -127 -295t-313 -123v-78h26q102 0 157.5 -42t55.5 -115q0 -176 -237 -176q-106 0 -248 38v93 q164 -37 244 -37q106 0 106 74q0 80 -121 79q-31 0 -57 -2v166q-201 18 -317.5 169t-116.5 396z" />
<glyph unicode="&#xe8;" horiz-adv-x="1120" d="M86 524q0 274 129 428t352 154q229 0 356.5 -141.5t127.5 -401.5q0 -53 -2 -80h-775q2 -170 84 -262t226 -92q111 0 181 56.5t93 160.5h178q-29 -178 -154.5 -279.5t-314.5 -101.5q-221 0 -351 149.5t-130 409.5zM274 633h588q-2 152 -76.5 232.5t-212.5 80.5 q-133 0 -210 -79.5t-89 -233.5zM311 1565h201l204 -348h-120z" />
<glyph unicode="&#xe9;" horiz-adv-x="1120" d="M86 524q0 274 129 428t352 154q229 0 356.5 -141.5t127.5 -401.5q0 -53 -2 -80h-775q2 -170 84 -262t226 -92q111 0 181 56.5t93 160.5h178q-29 -178 -154.5 -279.5t-314.5 -101.5q-221 0 -351 149.5t-130 409.5zM274 633h588q-2 152 -76.5 232.5t-212.5 80.5 q-133 0 -210 -79.5t-89 -233.5zM430 1217l204 348h201l-285 -348h-120z" />
<glyph unicode="&#xea;" horiz-adv-x="1120" d="M86 524q0 274 129 428t352 154q229 0 356.5 -141.5t127.5 -401.5q0 -53 -2 -80h-775q2 -170 84 -262t226 -92q111 0 181 56.5t93 160.5h178q-29 -178 -154.5 -279.5t-314.5 -101.5q-221 0 -351 149.5t-130 409.5zM274 633h588q-2 152 -76.5 232.5t-212.5 80.5 q-133 0 -210 -79.5t-89 -233.5zM278 1217l197 348h196l197 -348h-123l-172 227l-174 -227h-121z" />
<glyph unicode="&#xeb;" horiz-adv-x="1120" d="M86 524q0 274 129 428t352 154q229 0 356.5 -141.5t127.5 -401.5q0 -53 -2 -80h-775q2 -170 84 -262t226 -92q111 0 181 56.5t93 160.5h178q-29 -178 -154.5 -279.5t-314.5 -101.5q-221 0 -351 149.5t-130 409.5zM274 633h588q-2 152 -76.5 232.5t-212.5 80.5 q-133 0 -210 -79.5t-89 -233.5zM317 1274v211h182v-211h-182zM647 1274v211h182v-211h-182z" />
<glyph unicode="&#xec;" horiz-adv-x="454" d="M-35 1565h201l204 -348h-120zM137 0v1071h180v-1071h-180z" />
<glyph unicode="&#xed;" horiz-adv-x="454" d="M84 1217l204 348h201l-285 -348h-120zM137 0v1071h180v-1071h-180z" />
<glyph unicode="&#xee;" horiz-adv-x="454" d="M-68 1217l197 348h196l197 -348h-123l-172 227l-174 -227h-121zM137 0v1071h180v-1071h-180z" />
<glyph unicode="&#xef;" horiz-adv-x="454" d="M-29 1274v211h182v-211h-182zM137 0v1071h180v-1071h-180zM301 1274v211h182v-211h-182z" />
<glyph unicode="&#xf0;" horiz-adv-x="1193" d="M86 518q0 244 134 388.5t355 144.5q82 0 162 -31q-88 109 -213 188l-270 -141l-39 82l221 117q-100 57 -241 114l43 123q197 -61 366 -164l268 142l39 -84l-221 -115q422 -319 422 -764q0 -262 -135 -406.5t-377 -144.5q-244 0 -379 144.5t-135 406.5zM270 522 q0 -193 86 -294t246 -101q158 0 242 101.5t84 293.5q0 190 -85 293t-241 103q-154 0 -243 -106t-89 -290z" />
<glyph unicode="&#xf1;" horiz-adv-x="1165" d="M137 0v1071h172v-156q121 182 344 183q242 0 332 -146q47 -74 47 -258v-694h-182v659q0 150 -45 214.5t-170 64.5q-150 0 -234 -85t-84 -243v-610h-180zM303 1262q18 98 68.5 151t124.5 53q35 0 59 -8l98 -28q31 -8 54 -9q68 0 94 72h88q-41 -207 -197 -207q-29 0 -65 10 l-97 27q-27 8 -49 8q-61 0 -90 -69h-88z" />
<glyph unicode="&#xf2;" horiz-adv-x="1189" d="M82 536.5q0 270.5 135 420t377 149.5q244 0 379 -149.5t135 -420t-135 -420t-377 -149.5q-244 0 -379 149.5t-135 420zM266 536.5q0 -198.5 85 -304t245 -105.5q158 0 242 105.5t84 304t-84 304t-242 105.5q-160 0 -245 -105.5t-85 -304zM334 1565h201l204 -348h-120z " />
<glyph unicode="&#xf3;" horiz-adv-x="1189" d="M82 536.5q0 270.5 135 420t377 149.5q244 0 379 -149.5t135 -420t-135 -420t-377 -149.5q-244 0 -379 149.5t-135 420zM266 536.5q0 -198.5 85 -304t245 -105.5q158 0 242 105.5t84 304t-84 304t-242 105.5q-160 0 -245 -105.5t-85 -304zM453 1217l204 348h201l-285 -348 h-120z" />
<glyph unicode="&#xf4;" horiz-adv-x="1189" d="M82 536.5q0 270.5 135 420t377 149.5q244 0 379 -149.5t135 -420t-135 -420t-377 -149.5q-244 0 -379 149.5t-135 420zM266 536.5q0 -198.5 85 -304t245 -105.5q158 0 242 105.5t84 304t-84 304t-242 105.5q-160 0 -245 -105.5t-85 -304zM301 1217l197 348h196l197 -348 h-123l-172 227l-174 -227h-121z" />
<glyph unicode="&#xf5;" horiz-adv-x="1189" d="M82 536.5q0 270.5 135 420t377 149.5q244 0 379 -149.5t135 -420t-135 -420t-377 -149.5q-244 0 -379 149.5t-135 420zM266 536.5q0 -198.5 85 -304t245 -105.5q158 0 242 105.5t84 304t-84 304t-242 105.5q-160 0 -245 -105.5t-85 -304zM303 1262q18 98 68.5 151 t124.5 53q35 0 59 -8l98 -28q31 -8 54 -9q68 0 94 72h88q-41 -207 -197 -207q-29 0 -65 10l-97 27q-27 8 -49 8q-61 0 -90 -69h-88z" />
<glyph unicode="&#xf6;" horiz-adv-x="1189" d="M82 536.5q0 270.5 135 420t377 149.5q244 0 379 -149.5t135 -420t-135 -420t-377 -149.5q-244 0 -379 149.5t-135 420zM266 536.5q0 -198.5 85 -304t245 -105.5q158 0 242 105.5t84 304t-84 304t-242 105.5q-160 0 -245 -105.5t-85 -304zM340 1274v211h182v-211h-182z M670 1274v211h182v-211h-182z" />
<glyph unicode="&#xf7;" horiz-adv-x="1705" d="M254 541v139h1198v-139h-1198zM729 242q0 51 37 88t88 37t88 -37t37 -88.5t-37 -88t-88 -36.5q-53 0 -89 35.5t-36 89.5zM729 979q0 51 37 89t88 38t88 -38t37 -89t-37 -88t-88 -37t-88 36t-37 89z" />
<glyph unicode="&#xf8;" horiz-adv-x="1189" d="M53 8l133 148q-104 139 -104 379q0 270 135 420.5t377 150.5q215 0 350 -127l123 135l66 -57l-127 -142q102 -145 102 -378q0 -270 -135 -420t-377 -150q-217 0 -350 123l-127 -137zM258 537q0 -160 43 -248l530 563q-90 102 -241 102q-332 0 -332 -417zM346 217 q90 -98 242 -98q162 0 247 103.5t85 301.5q0 166 -41 258z" />
<glyph unicode="&#xf9;" horiz-adv-x="1165" d="M133 377v694h182v-657q0 -152 46.5 -216.5t170.5 -64.5q315 0 316 361v577h180v-1071h-172v160q-113 -186 -354 -187q-231 0 -322 146q-47 74 -47 258zM322 1565h201l204 -348h-120z" />
<glyph unicode="&#xfa;" horiz-adv-x="1165" d="M133 377v694h182v-657q0 -152 46.5 -216.5t170.5 -64.5q315 0 316 361v577h180v-1071h-172v160q-113 -186 -354 -187q-231 0 -322 146q-47 74 -47 258zM441 1217l204 348h201l-285 -348h-120z" />
<glyph unicode="&#xfb;" horiz-adv-x="1165" d="M133 377v694h182v-657q0 -152 46.5 -216.5t170.5 -64.5q315 0 316 361v577h180v-1071h-172v160q-113 -186 -354 -187q-231 0 -322 146q-47 74 -47 258zM289 1217l197 348h196l197 -348h-123l-172 227l-174 -227h-121z" />
<glyph unicode="&#xfc;" horiz-adv-x="1165" d="M133 377v694h182v-657q0 -152 46.5 -216.5t170.5 -64.5q315 0 316 361v577h180v-1071h-172v160q-113 -186 -354 -187q-231 0 -322 146q-47 74 -47 258zM328 1274v211h182v-211h-182zM658 1274v211h182v-211h-182z" />
<glyph unicode="&#xfd;" horiz-adv-x="1038" d="M20 1071h201l297 -866l297 866h201l-451 -1237q-59 -162 -120.5 -222.5t-196.5 -60.5q-53 0 -107 17v172q53 -16 105 -16q100 0 133 88l47 127zM377 1217l204 348h201l-285 -348h-120z" />
<glyph unicode="&#xfe;" horiz-adv-x="1214" d="M137 -428v1901h176v-553q131 186 346 186q213 0 342 -152.5t129 -414.5q0 -264 -130 -418t-341 -154q-221 0 -346 164v-559h-176zM307 528q0 -401 318 -401q152 0 234.5 109.5t82.5 314.5q0 184 -86 288.5t-233 104.5q-150 0 -233 -107.5t-83 -308.5z" />
<glyph unicode="&#xff;" horiz-adv-x="1038" d="M20 1071h201l297 -866l297 866h201l-451 -1237q-59 -162 -120.5 -222.5t-196.5 -60.5q-53 0 -107 17v172q53 -16 105 -16q100 0 133 88l47 127zM264 1274v211h182v-211h-182zM594 1274v211h182v-211h-182z" />
<glyph unicode="&#x152;" horiz-adv-x="2363" d="M92 735q0 367 181.5 571.5t498.5 204.5q289 0 436 -172v134h1051v-183h-854v-440h790v-172h-790v-494h872v-184h-1069v133q-152 -174 -426 -174q-326 0 -508 203t-182 573zM297 735q0 -289 133 -447.5t373 -158.5q266 0 405 209v797q-143 203 -401 202 q-242 0 -376 -156.5t-134 -445.5z" />
<glyph unicode="&#x153;" horiz-adv-x="1902" d="M82 520q0 281 130 433.5t368 152.5q266 0 387 -203q147 203 387 203q223 0 352 -142.5t129 -398.5q0 -23 -4 -80h-776q2 -168 85 -262t224 -94q109 0 180.5 56.5t91.5 160.5h179q-29 -176 -155 -278.5t-310 -102.5q-283 0 -398 217q-119 -217 -383 -217 q-227 0 -357 146.5t-130 408.5zM272 537q0 -197 79 -303.5t222 -106.5q137 0 220.5 114.5t83.5 319.5q0 180 -81 282.5t-214 102.5q-145 0 -227.5 -105t-82.5 -304zM1057 633h585v6q0 143 -77.5 225t-210.5 82q-125 0 -207 -84t-90 -229z" />
<glyph unicode="&#x178;" horiz-adv-x="1234" d="M-18 1473h251l394 -697l391 697h235l-524 -869v-604h-201v590zM362 1659v211h182v-211h-182zM692 1659v211h182v-211h-182z" />
<glyph unicode="&#x2c6;" d="M217 1217l197 348h196l197 -348h-123l-172 227l-174 -227h-121z" />
<glyph unicode="&#x2dc;" d="M219 1262q18 98 68.5 151t124.5 53q35 0 59 -8l98 -28q31 -8 54 -9q68 0 94 72h88q-41 -207 -197 -207q-29 0 -65 10l-97 27q-27 8 -49 8q-61 0 -90 -69h-88z" />
<glyph unicode="&#x2000;" horiz-adv-x="986" />
<glyph unicode="&#x2001;" horiz-adv-x="1972" />
<glyph unicode="&#x2002;" horiz-adv-x="986" />
<glyph unicode="&#x2003;" horiz-adv-x="1972" />
<glyph unicode="&#x2004;" horiz-adv-x="657" />
<glyph unicode="&#x2005;" horiz-adv-x="493" />
<glyph unicode="&#x2006;" horiz-adv-x="328" />
<glyph unicode="&#x2007;" horiz-adv-x="328" />
<glyph unicode="&#x2008;" horiz-adv-x="246" />
<glyph unicode="&#x2009;" horiz-adv-x="394" />
<glyph unicode="&#x200a;" horiz-adv-x="109" />
<glyph unicode="&#x2010;" horiz-adv-x="638" d="M72 461v162h495v-162h-495z" />
<glyph unicode="&#x2011;" horiz-adv-x="638" d="M72 461v162h495v-162h-495z" />
<glyph unicode="&#x2012;" horiz-adv-x="638" d="M72 461v162h495v-162h-495z" />
<glyph unicode="&#x2013;" d="M0 487v109h1024v-109h-1024z" />
<glyph unicode="&#x2014;" horiz-adv-x="2048" d="M0 487v109h2048v-109h-2048z" />
<glyph unicode="&#x2018;" horiz-adv-x="514" d="M158 1014v235q0 221 198 262v-92q-47 -6 -73.5 -48t-26.5 -109v-43h100v-205h-198z" />
<glyph unicode="&#x2019;" horiz-adv-x="514" d="M158 975v92q47 6 73.5 48t26.5 110v43h-100v205h198v-236q0 -221 -198 -262z" />
<glyph unicode="&#x201a;" horiz-adv-x="514" d="M158 0v203h198v-236q0 -221 -198 -262v94q47 6 73.5 48t26.5 110v43h-100z" />
<glyph unicode="&#x201c;" horiz-adv-x="845" d="M158 1014v235q0 221 198 262v-92q-47 -6 -73.5 -48t-26.5 -109v-43h100v-205h-198zM487 1014v235q0 106 52.5 174t148.5 88v-92q-47 -6 -73.5 -48t-26.5 -109v-43h100v-205h-201z" />
<glyph unicode="&#x201d;" horiz-adv-x="845" d="M156 975v92q47 6 74.5 48t27.5 110v43h-102v205h200v-236q0 -106 -52 -174t-148 -88zM487 975v92q47 6 75 48t28 110v43h-103v205h201v-236q0 -106 -52 -174t-149 -88z" />
<glyph unicode="&#x201e;" horiz-adv-x="845" d="M156 0v203h200v-236q0 -106 -52 -173.5t-148 -88.5v94q47 6 74.5 48t27.5 110v43h-102zM487 0v203h201v-236q0 -106 -52 -173.5t-149 -88.5v94q47 6 75 48t28 110v43h-103z" />
<glyph unicode="&#x2022;" horiz-adv-x="1208" d="M307 762q0 123 87 209t210 86q121 0 208 -86t87 -209q0 -121 -87 -209t-210 -88t-209 87t-86 210z" />
<glyph unicode="&#x2026;" horiz-adv-x="2048" d="M240 0v223h204v-223h-204zM922 0v223h204v-223h-204zM1606 0v223h204v-223h-204z" />
<glyph unicode="&#x202f;" horiz-adv-x="394" />
<glyph unicode="&#x2039;" horiz-adv-x="499" d="M80 442v199l323 242v-174l-213 -168l213 -166v-176z" />
<glyph unicode="&#x203a;" horiz-adv-x="499" d="M96 199v176l215 168l-215 166v174l324 -242v-199z" />
<glyph unicode="&#x205f;" horiz-adv-x="493" />
<glyph unicode="&#x2122;" horiz-adv-x="1705" d="M242 1378v80h452v-80h-172v-458h-108v458h-172zM813 920v538h150l151 -385l141 385h150v-538h-98v444l-166 -444h-56l-174 444v-444h-98z" />
<glyph unicode="&#xe000;" horiz-adv-x="1075" d="M0 0v1075h1075v-1075h-1075z" />
<glyph unicode="&#xfb01;" horiz-adv-x="989" d="M0 928v143h176v158q0 266 242 266q37 0 131 -14v-162q-57 10 -80 10q-68 0 -90.5 -38t-22.5 -130v-90h193v-143h-193v-928h-180v928h-176zM678 0v1071h180v-1071h-180zM678 1270v203h180v-203h-180z" />
<glyph unicode="&#xfb02;" horiz-adv-x="997" d="M0 928v143h176v158q0 266 242 266q37 0 131 -14v-162q-57 10 -80 10q-68 0 -90.5 -38t-22.5 -130v-90h193v-143h-193v-928h-180v928h-176zM686 0v1473h180v-1473h-180z" />
</font>
</defs>
</svg>
