<?xml version="1.0" standalone="no"?>
<!DOCTYPE svg PUBLIC "-//W3C//DTD SVG 1.1//EN" "http://www.w3.org/Graphics/SVG/1.1/DTD/svg11.dtd" >
<svg xmlns="http://www.w3.org/2000/svg">
<metadata></metadata>
<defs>
<font id="alwynbold" horiz-adv-x="1187" >
<font-face units-per-em="2048" ascent="1638" descent="-410" />
<missing-glyph horiz-adv-x="430" />
<glyph horiz-adv-x="2048" />
<glyph horiz-adv-x="2048" />
<glyph unicode="&#xd;" horiz-adv-x="2048" />
<glyph unicode=" "  horiz-adv-x="430" />
<glyph unicode="&#x09;" horiz-adv-x="430" />
<glyph unicode="&#xa0;" horiz-adv-x="430" />
<glyph unicode="!" horiz-adv-x="751" d="M215 158q0 72 51.5 124t122.5 52q73 0 124.5 -52t51.5 -124t-51 -122t-123 -50t-124 50t-52 122zM236 1460h311l-39 -903l-234 -37z" />
<glyph unicode="&#x22;" horiz-adv-x="980" d="M188 858v563h240v-563h-240zM553 858v563h240v-563h-240z" />
<glyph unicode="#" horiz-adv-x="1380" d="M184 586v221h193v115h-193v221h193v276h246v-276h135v276h246v-276h192v-221h-192v-115h192v-221h-192v-277h-246v277h-135v-277h-246v277h-193zM623 807h135v115h-135v-115z" />
<glyph unicode="$" d="M145 70l52 233q30 -8 92.5 -26t111.5 -30t95 -18l36 412q-47 21 -74 34t-70.5 37.5t-69.5 46t-57 55t-48 69t-29 83.5t-12 103q0 181 121.5 289.5t310.5 116.5l8 96l125 -10l-10 -91q118 -13 291 -77l-70 -228q-150 54 -241 66l-33 -367q42 -18 67.5 -30t66 -33t66 -40 t57.5 -46.5t52 -58.5t38.5 -68.5t27 -84.5t8.5 -100q0 -185 -127 -299.5t-332 -119.5l-8 -95l-125 11l10 92q-103 12 -330 78zM438 1069q0 -49 29.5 -84t87.5 -65l27 311h2q-74 -11 -110 -56.5t-36 -105.5zM618 225q89 10 131 61t42 117q0 61 -36.5 104t-103.5 79z" />
<glyph unicode="%" horiz-adv-x="1933" d="M174 1067q0 152 92.5 259.5t245.5 107.5q154 0 247 -107t93 -260t-93 -260t-247 -107q-153 0 -245.5 107.5t-92.5 259.5zM340 1067q0 -92 47.5 -158.5t124.5 -66.5t124.5 66.5t47.5 158.5t-47.5 158.5t-124.5 66.5t-124.5 -66.5t-47.5 -158.5zM674 0l436 1417h150 l-437 -1417h-149zM1081 350q0 152 93 258.5t247 106.5q153 0 245.5 -106.5t92.5 -258.5t-92.5 -259t-245.5 -107q-154 0 -247 107t-93 259zM1249 350q0 -94 46.5 -159.5t125.5 -65.5q77 0 123.5 66.5t46.5 158.5t-46.5 158.5t-123.5 66.5q-78 0 -125 -66.5t-47 -158.5z" />
<glyph unicode="&#x26;" horiz-adv-x="1431" d="M195 436q0 246 227 338v6q-97 50 -141.5 126.5t-44.5 152.5q0 131 61 226t164 142.5t235 47.5q135 0 283 -37l-37 -230q-149 27 -246 27q-102 0 -152 -51.5t-50 -124.5q0 -32 10.5 -64t33 -62t63.5 -48.5t95 -18.5h154l37 193h186v-193h203v-184l-203 -29v-596 q-178 -73 -407 -73q-208 0 -339.5 131t-131.5 321zM457 436q0 -37 12.5 -73t38.5 -68.5t72.5 -52t107.5 -19.5q85 0 158 15v415h-154q-66 0 -114 -19t-73 -51.5t-36.5 -69t-11.5 -77.5z" />
<glyph unicode="'" horiz-adv-x="616" d="M188 858v563h240v-563h-240z" />
<glyph unicode="(" horiz-adv-x="755" d="M154 76v1063q0 100 24 177.5t66.5 128t105 83t134 46t159.5 13.5v-221q-137 0 -190.5 -53t-53.5 -174v-1063q0 -121 54.5 -176.5t189.5 -55.5v-219q-489 0 -489 451z" />
<glyph unicode=")" horiz-adv-x="755" d="M154 -156q135 0 189 55.5t54 176.5v1063q0 121 -53 174t-190 53v221q88 0 159.5 -13.5t134 -46t105 -83t66.5 -128t24 -177.5v-1063q0 -451 -489 -451v219z" />
<glyph unicode="*" horiz-adv-x="1191" d="M178 874l234 123l-234 123l103 178l223 -141l-10 264h204l-10 -264l223 141l103 -178l-234 -125l234 -121l-103 -178l-225 142l12 -265h-204l8 265l-221 -142z" />
<glyph unicode="+" horiz-adv-x="1236" d="M178 424v250h318v336h247v-336h316v-250h-316v-334h-247v334h-318z" />
<glyph unicode="," horiz-adv-x="559" d="M96 -233l68 440q17 61 70.5 92t113.5 16q62 -17 94 -71.5t15 -114.5l-160 -416z" />
<glyph unicode="-" horiz-adv-x="956" d="M123 416v262h711v-262h-711z" />
<glyph unicode="." horiz-adv-x="528" d="M96 154q0 72 49 122t117 50q71 0 120.5 -50t49.5 -122q0 -70 -49.5 -120t-118.5 -50t-118.5 50t-49.5 120z" />
<glyph unicode="/" horiz-adv-x="761" d="M55 0l449 1612h203l-453 -1612h-199z" />
<glyph unicode="0" d="M100 522v375q0 235 132.5 386t361.5 151q152 0 265.5 -73t170.5 -194t57 -270v-375q0 -154 -57 -275t-169.5 -192t-264.5 -71q-115 0 -210 42t-157 115.5t-95.5 171t-33.5 209.5zM365 522q0 -59 11.5 -109.5t36.5 -94.5t71.5 -69.5t109.5 -25.5t109 25.5t71 69.5t37 94.5 t12 109.5v375q0 58 -11.5 108.5t-37 94t-71 69t-107.5 25.5q-64 0 -110.5 -25t-72 -69t-37 -94t-11.5 -109v-375z" />
<glyph unicode="1" d="M160 1245l422 172h192v-1179l268 -17v-221h-827v240h299v895l-256 -105z" />
<glyph unicode="2" d="M170 0v186q0 320 283 519q13 9 63.5 43.5t73 50.5t58.5 45.5t63 56.5q29 31 40 59t11 72q0 65 -50 113.5t-153 48.5q-55 0 -119.5 -19t-169.5 -65l-92 217q121 53 208.5 80t172.5 27q198 0 331.5 -114t133.5 -288q0 -88 -31.5 -162t-82 -127t-111.5 -99.5t-123.5 -90 t-115 -87.5t-88 -101.5t-40.5 -124.5h598v-193q0 -20 -13.5 -33.5t-33.5 -13.5h-813z" />
<glyph unicode="3" d="M129 68l66 225q72 -29 155.5 -49.5t132.5 -20.5q122 0 186 59t64 144q0 102 -65 158.5t-162 56.5h-139v225h118q102 0 156.5 48t54.5 118q0 66 -47 114t-141 48q-132 0 -289 -61l-78 217q213 84 367 84q125 0 226.5 -45.5t164 -138.5t62.5 -218q0 -73 -45.5 -146.5 t-133.5 -125.5v-6q102 -53 158.5 -138.5t56.5 -189.5q0 -92 -34.5 -172t-98.5 -140.5t-162 -95t-219 -34.5q-152 0 -354 84z" />
<glyph unicode="4" d="M90 618l121 799h248l-127 -839q-3 -17 6 -27t20 -10h234v653l260 -41v-612h266l-57 -232h-209v-309h-260v309h-234q-65 0 -117 16.5t-92 51.5t-56 96.5t-3 144.5z" />
<glyph unicode="5" d="M133 74l64 223q229 -74 338 -74q128 0 198 74t70 180q0 103 -52.5 166.5t-166.5 63.5q-138 0 -283 -62l-94 156v616h792l-14 -241h-524v-250q68 10 123 10q222 0 352.5 -125.5t130.5 -333.5q0 -223 -153.5 -358t-383.5 -135q-94 0 -207 28t-190 62z" />
<glyph unicode="6" d="M121 469v479q0 98 32 185t94 154.5t161 107t223 39.5q116 0 346 -78l-64 -228q-86 27 -121.5 37t-81.5 19.5t-79 9.5q-69 0 -119 -21.5t-76.5 -58.5t-38.5 -78t-12 -88v-57q112 57 223 57q98 0 181 -30.5t145 -89t97.5 -150.5t35.5 -209q0 -113 -38 -206t-103 -153.5 t-150 -93t-182 -32.5q-96 0 -181 32.5t-150.5 93t-103.5 153.5t-38 206zM385 467q0 -108 53.5 -176t155.5 -68t155.5 68t53.5 178q0 115 -55.5 185.5t-159.5 70.5q-108 0 -203 -53v-205z" />
<glyph unicode="7" d="M145 1178v239h846l64 -172l-430 -1245h-279l418 1178h-619z" />
<glyph unicode="8" d="M113 430q0 217 176 322q-137 97 -137 270q0 98 39 178.5t102.5 130t141 76.5t159.5 27t159 -27t140.5 -76.5t102 -130t38.5 -178.5q0 -172 -135 -270q176 -105 176 -322q0 -112 -43 -200.5t-113.5 -140.5t-153.5 -78.5t-171 -26.5q-68 0 -135 15.5t-130 51t-110.5 86 t-76.5 126.5t-29 167zM375 430q0 -91 64.5 -149t154.5 -58t154.5 58t64.5 149q0 88 -62 139.5t-157 51.5t-157 -51.5t-62 -139.5zM416 1022q0 -73 53.5 -122.5t124.5 -49.5q68 0 123 50.5t55 121.5q0 74 -51 123t-127 49t-127 -49t-51 -123z" />
<glyph unicode="9" d="M121 948q0 151 65.5 263t171.5 167.5t236 55.5q129 0 235 -55.5t172 -168t66 -262.5v-479q0 -98 -32 -184.5t-94 -154.5t-161 -107t-223 -39q-119 0 -346 77l63 228q84 -26 121 -36.5t83 -20t79 -9.5q69 0 119 21.5t76.5 58.5t38.5 78t12 88v57q-112 -57 -223 -57 q-98 0 -181 30.5t-145 89t-97.5 150.5t-35.5 209zM385 948q0 -115 55.5 -185.5t159.5 -70.5q108 0 203 53v205q0 108 -53.5 176t-155.5 68t-155.5 -68t-53.5 -178z" />
<glyph unicode=":" horiz-adv-x="528" d="M96 168q0 72 49 122t117 50q72 0 121 -50t49 -122q0 -70 -49.5 -119t-118.5 -49t-118.5 49t-49.5 119zM96 836q0 70 49 121t117 51q71 0 120.5 -50.5t49.5 -121.5q0 -70 -49.5 -120t-118.5 -50t-118.5 50t-49.5 120z" />
<glyph unicode=";" horiz-adv-x="604" d="M96 -233l68 440q17 61 70.5 92t113.5 16q62 -17 94 -71.5t15 -114.5l-160 -416zM158 815q0 72 50.5 123t121.5 51q75 0 126.5 -51t51.5 -123t-51 -123t-123 -51q-73 0 -124.5 51t-51.5 123z" />
<glyph unicode="&#x3c;" horiz-adv-x="1265" d="M178 473v162l801 495l108 -212l-602 -363l602 -365l-108 -213z" />
<glyph unicode="=" horiz-adv-x="1230" d="M178 242v252h875v-252h-875zM178 604v252h875v-252h-875z" />
<glyph unicode="&#x3e;" horiz-adv-x="1265" d="M178 190l602 365l-602 363l109 212l800 -495v-162l-800 -496z" />
<glyph unicode="?" horiz-adv-x="1099" d="M184 1358q77 42 119 62.5t106 37.5t132 17q174 0 280.5 -102.5t106.5 -248.5q0 -92 -62 -190q-21 -35 -70.5 -92.5t-68.5 -83.5q-47 -64 -57.5 -98t-10.5 -115l-264 -27q0 64 2 107t13 84t19.5 64.5t36 62.5t48 62.5t68.5 77.5q5 6 8 9q24 28 35.5 43t25 43t13.5 53 q0 43 -32 77t-91 34q-52 0 -105 -17.5t-145 -68.5zM352 156q0 73 51.5 124.5t122.5 51.5q74 0 125 -51t51 -125q0 -72 -51 -122t-123 -50t-124 50t-52 122z" />
<glyph unicode="@" horiz-adv-x="1744" d="M178 711q0 161 55 298t149 230.5t221 146t269 52.5q144 0 271 -52.5t221 -146t148.5 -230.5t54.5 -298q0 -214 -107 -406h-403l-6 39q-104 -51 -195 -51q-142 0 -228.5 91t-86.5 239v178q0 153 86 240t229 87q68 0 172 -34v18h152v-663h184q51 117 51 262 q0 130 -42.5 238.5t-116 181t-172.5 112t-212 39.5q-112 0 -210.5 -39.5t-171.5 -112t-115.5 -181t-42.5 -238.5q0 -133 42 -242t115 -180.5t171.5 -110.5t211.5 -39q71 0 157.5 14.5t123.5 26.5l25 -153q-144 -43 -306 -43q-142 0 -269 52t-221 145t-149 230.5t-55 299.5z M692 623q0 -85 40.5 -139t123.5 -54q89 0 172 39v489q-82 33 -172 33q-84 0 -124 -51.5t-40 -138.5v-178z" />
<glyph unicode="A" horiz-adv-x="1306" d="M31 0l334 1221q37 136 114 195t172 59q94 0 173 -59t116 -195l332 -1221h-266l-109 406h-491l-109 -406h-266zM467 635h369l-150 559q-2 12 -12 26.5t-23 14.5t-23 -14.5t-12 -26.5z" />
<glyph unicode="B" horiz-adv-x="1183" d="M145 0v1376q267 99 457 99q203 0 326 -123.5t123 -302.5q0 -46 -15.5 -90t-59.5 -92t-112 -81v-8q68 -31 116 -72t74 -86t37 -87.5t11 -88.5q0 -91 -29 -170t-84 -141t-144.5 -97.5t-201.5 -35.5h-498zM408 240h235q193 0 193 204q0 51 -16.5 94t-58.5 74t-104 31h-249 v-403zM408 877h206q81 0 126.5 53.5t45.5 118.5q0 48 -16 88t-59 69t-109 29q-82 0 -194 -25v-333z" />
<glyph unicode="C" horiz-adv-x="1193" d="M113 528v400q0 92 20.5 172.5t64 150t108.5 119t158 77.5t208 28q69 0 148.5 -12t133.5 -25.5t144 -38.5l-58 -236q-233 70 -368 70q-297 0 -297 -328v-354q0 -51 6 -92.5t24.5 -87t50 -76.5t87 -51.5t129.5 -20.5q124 0 362 74l66 -231q-104 -30 -151.5 -42.5 t-127.5 -26t-149 -13.5q-142 0 -251.5 43t-175.5 118.5t-99 172t-33 210.5z" />
<glyph unicode="D" horiz-adv-x="1280" d="M145 0v1458h504q255 0 384.5 -129.5t129.5 -370.5v-458q0 -241 -129.5 -370.5t-384.5 -129.5h-504zM408 240h241q64 0 110 14.5t73.5 38.5t43 61.5t20.5 75.5t5 90v416q0 65 -9 111t-34.5 88t-77.5 63t-131 21h-241v-979z" />
<glyph unicode="E" horiz-adv-x="1075" d="M145 395v666q0 183 111 290t315 107h408v-239h-408q-51 0 -84 -12.5t-49.5 -38t-22 -55t-5.5 -73.5v-176h544v-239h-544v-209q0 -90 31.5 -133t129.5 -43h416v-207q0 -12 -9.5 -22.5t-21.5 -10.5h-385q-202 0 -314 107t-112 288z" />
<glyph unicode="F" horiz-adv-x="1064" d="M145 0v1458h832v-239h-569v-377h514v-240h-514v-602h-263z" />
<glyph unicode="G" horiz-adv-x="1247" d="M123 528v402q0 93 19.5 172.5t64 149t111.5 118.5t166.5 77t224.5 28q101 0 192.5 -18.5t214.5 -55.5l-59 -236q-207 68 -348 68q-86 0 -148 -20.5t-95.5 -50t-52.5 -77t-23.5 -86.5t-4.5 -92v-358q0 -326 301 -326q74 0 203 25v491l241 19v-684q-215 -65 -329 -81 q-63 -9 -115 -9q-135 0 -242.5 41.5t-177 115t-106.5 172t-37 215.5z" />
<glyph unicode="H" horiz-adv-x="1323" d="M145 0v1458h265v-592h501v592h263v-1425q0 -12 -9.5 -22.5t-21.5 -10.5h-232v629h-501v-629h-265z" />
<glyph unicode="I" horiz-adv-x="530" d="M133 0v1458h264v-1425q0 -12 -9 -22.5t-21 -10.5h-234z" />
<glyph unicode="J" horiz-adv-x="987" d="M47 55l55 236q231 -68 310 -68q116 0 160 65t44 187v983h263v-983q0 -105 -26.5 -191.5t-80.5 -155t-146 -106.5t-214 -38q-26 0 -51.5 1.5t-56.5 7t-49 8.5t-55.5 12.5t-48.5 12.5t-54.5 15t-49.5 14z" />
<glyph unicode="K" horiz-adv-x="1212" d="M145 0v1458h265v-590l151 11l258 579h266l-284 -624q104 -57 149 -195l213 -639h-274l-184 563q-10 31 -17.5 44.5t-30 24.5t-61.5 9l-186 -10v-598q0 -12 -9.5 -22.5t-21.5 -10.5h-234z" />
<glyph unicode="L" horiz-adv-x="1114" d="M145 0v1458h265v-1218h612v-207q0 -12 -9.5 -22.5t-21.5 -10.5h-846z" />
<glyph unicode="M" horiz-adv-x="1767" d="M72 0l186 1458h309l299 -1122l2 -8l4 8l299 1122h310l188 -1458h-268l-82 664l-31 368l-57 -313l-113 -389q-37 -127 -102.5 -182.5t-145.5 -55.5q-182 0 -249 238l-111 389l-57 311l-31 -366l-82 -664h-268z" />
<glyph unicode="N" horiz-adv-x="1314" d="M145 0v1458h181q43 0 77.5 -7t61.5 -24t46 -34t39 -50t32.5 -58t33.5 -71l213 -469l89 -253l-15 253v713h262v-1458h-288l-469 1071v-1071h-263z" />
<glyph unicode="O" horiz-adv-x="1331" d="M113 561v334q0 158 65 289t192 211t294 80q126 0 232.5 -48.5t176 -129.5t108 -185t38.5 -217v-334q0 -158 -65.5 -288t-193.5 -209.5t-296 -79.5q-125 0 -230.5 47t-174.5 127t-107.5 184t-38.5 219zM375 584q0 -68 16.5 -129.5t49.5 -115t90.5 -85t132.5 -31.5 q74 0 132 32t92 84.5t51 115t17 129.5v288q0 67 -17 129.5t-51 116t-92 85.5t-132 32q-75 0 -132.5 -32t-90.5 -85.5t-49.5 -115.5t-16.5 -130v-288z" />
<glyph unicode="P" horiz-adv-x="1095" d="M145 0v1458h426q150 0 262 -66.5t167 -173t55 -235.5q0 -203 -129.5 -339t-354.5 -136h-163v-508h-263zM408 745h163q59 0 103 21t68.5 56t36.5 75.5t12 85.5q0 96 -54 166t-168 70h-161v-474z" />
<glyph unicode="Q" horiz-adv-x="1331" d="M113 561v334q0 158 65 289t192 211t294 80q126 0 232.5 -48.5t176 -129.5t108 -185t38.5 -217v-334q0 -181 -86.5 -325t-241.5 -209l145 -398l-188 -67q-4 -2 -10 -2q-20 0 -27 18l-147 406q-125 0 -230.5 47t-174.5 127t-107.5 184t-38.5 219zM375 584 q0 -68 16.5 -129.5t49.5 -115t90.5 -85t132.5 -31.5q74 0 132 32t92 84.5t51 115t17 129.5v288q0 67 -17 129.5t-51 115t-92 84.5t-132 32q-75 0 -132.5 -31.5t-90.5 -85t-49.5 -115t-16.5 -129.5v-288z" />
<glyph unicode="R" horiz-adv-x="1171" d="M145 0v1389q158 44 262.5 65t204.5 21q110 0 200 -40t147 -107.5t87.5 -154t30.5 -182.5q0 -125 -69 -233.5t-199 -167.5l123 -223l149 -367h-290l-216 537h-165v-537h-265zM410 758h182q60 0 104.5 21.5t68.5 56.5t35 74t11 81q0 101 -50.5 172.5t-148.5 71.5 q-77 0 -202 -25v-452z" />
<glyph unicode="S" horiz-adv-x="1052" d="M72 70l51 233q25 -7 91.5 -25.5t102 -27.5t90.5 -18t101 -9q109 0 159 53.5t50 126.5q0 45 -21 81.5t-57 62.5t-82.5 49t-97.5 45.5t-102.5 47t-98 59.5t-82.5 77.5t-57 105t-21 138.5q0 126 62.5 219.5t166 140t234.5 46.5q90 0 177.5 -19.5t205.5 -62.5l-70 -228 q-196 70 -313 70q-101 0 -148.5 -47.5t-47.5 -118.5q0 -50 34 -88.5t88.5 -65.5t120.5 -54t132 -64t120.5 -85.5t88.5 -127.5t34 -181q0 -189 -131.5 -304t-343.5 -115q-65 0 -144.5 13.5t-138 29t-153.5 43.5z" />
<glyph unicode="T" horiz-adv-x="1153" d="M72 1219v239h1005v-239h-381v-1219h-260v1219h-364z" />
<glyph unicode="U" horiz-adv-x="1308" d="M123 559v899h262v-934q0 -79 27 -144.5t89 -110t150 -44.5q64 0 115.5 25.5t82.5 68t47.5 95t16.5 110.5v934h265v-899q0 -266 -139.5 -420.5t-387.5 -154.5t-388 154t-140 421z" />
<glyph unicode="V" horiz-adv-x="1300" d="M31 1458h274l260 -803l86 -278l82 278l264 803h273l-482 -1458h-276z" />
<glyph unicode="W" horiz-adv-x="1816" d="M61 1458h269l131 -647l51 -401l47 335l94 402q27 117 93 168t149 51t150 -51t94 -168l94 -402l47 -335l51 401l127 647h271l-285 -1458h-307l-242 1096l-242 -1096h-309z" />
<glyph unicode="X" horiz-adv-x="1323" d="M51 0l459 758l-408 700h312l256 -483l256 483h315l-414 -700l461 -758h-311l-307 551l-308 -551h-311z" />
<glyph unicode="Y" horiz-adv-x="1191" d="M61 1458h265l82 -422q12 -57 20 -90.5t23 -69.5t33 -54t46 -30t66 -12q39 0 68 11.5t48 30.5t33.5 54t23 69.5t19.5 90.5l80 422h265l-91 -471q-12 -59 -24 -103.5t-36.5 -99t-55.5 -94t-82 -75t-115 -54.5v-561h-266v563q-64 19 -114 54t-81.5 74.5t-55.5 94t-36 98.5 t-24 103z" />
<glyph unicode="Z" horiz-adv-x="1122" d="M72 205l463 764l178 250h-590l-31 239h903l35 -192l-467 -777l-176 -249h657v-240h-950z" />
<glyph unicode="[" horiz-adv-x="733" d="M154 -375v1962h467v-217h-222v-1526h222v-219h-467z" />
<glyph unicode="\" horiz-adv-x="761" d="M55 1612h203l449 -1612h-199z" />
<glyph unicode="]" horiz-adv-x="733" d="M154 -156h221v1526h-221v217h467v-1962h-467v219z" />
<glyph unicode="^" horiz-adv-x="1304" d="M174 631l383 788h195l378 -788h-247l-230 534l-229 -534h-250z" />
<glyph unicode="_" horiz-adv-x="1058" d="M92 -100h875v-242h-875v242z" />
<glyph unicode="`" horiz-adv-x="778" d="M82 1448l90 203l524 -254l-75 -170z" />
<glyph unicode="a" horiz-adv-x="997" d="M82 324q0 71 23 128.5t61 94.5t90.5 62t109 35.5t119.5 10.5h166q0 136 -32 189t-111 53q-127 0 -305 -53l-58 227q201 64 363 64q190 0 296.5 -110.5t106.5 -293.5v-731h-223l-8 59q-36 -33 -96.5 -54t-126.5 -21q-101 0 -184.5 36.5t-137 115.5t-53.5 188zM342 342 q0 -57 37.5 -101t101.5 -44q79 0 170 32v246h-155q-75 0 -114.5 -38t-39.5 -95z" />
<glyph unicode="b" horiz-adv-x="1122" d="M133 0v1532l260 16v-235q0 -123 -8 -238q127 60 227 60q179 0 293.5 -122t114.5 -302v-303q0 -178 -115 -301t-293 -123q-96 0 -252 71l-6 -55h-221zM393 264q103 -43 199 -43q81 0 124.5 56.5t43.5 152.5v252q0 102 -42 158.5t-126 56.5q-88 0 -199 -39v-594z" />
<glyph unicode="c" horiz-adv-x="999" d="M102 440v238q0 88 30.5 169t87.5 146t147.5 103.5t201.5 38.5q127 0 334 -64l-59 -223q-107 29 -160 39t-115 10q-108 0 -157.5 -69t-49.5 -173v-192q0 -104 49 -173t156 -69q66 0 126.5 11t162.5 40l59 -225q-204 -63 -348 -63q-110 0 -200.5 38.5t-147 103t-87 145.5 t-30.5 169z" />
<glyph unicode="d" horiz-adv-x="1122" d="M102 408v303q0 180 114.5 302t293.5 122q97 0 229 -60q-4 51 -6 110.5t-2 93.5v34v219h260v-1532h-223l-6 55q-146 -71 -252 -71q-178 0 -293 123t-115 301zM362 430q0 -96 44 -152.5t124 -56.5q98 0 201 43v594q-115 39 -201 39q-84 0 -126 -56.5t-42 -158.5v-252z" />
<glyph unicode="e" horiz-adv-x="1077" d="M102 440v236q0 90 31 172.5t86.5 146.5t140.5 102t185 38q101 0 186 -39.5t140 -104.5t85.5 -146.5t30.5 -168.5v-154q0 -20 -13.5 -33.5t-33.5 -13.5h-578v-35q0 -40 11 -76t35 -69.5t71 -53.5t111 -20q50 0 108 11t97.5 22.5t103.5 32.5l57 -224q-222 -79 -364 -79 q-119 0 -214.5 38.5t-154.5 103t-90 145.5t-31 169zM365 670h360q-7 107 -48 167t-132 60q-94 0 -134.5 -59.5t-45.5 -167.5z" />
<glyph unicode="f" horiz-adv-x="782" d="M41 930v188h164v64q0 168 96.5 267t273.5 99q92 0 199 -39l-41 -221q-85 23 -158 23q-58 0 -84 -30.5t-26 -102.5v-60h258v-198h-258v-887q0 -12 -9.5 -22.5t-21.5 -10.5h-229v918z" />
<glyph unicode="g" horiz-adv-x="1116" d="M109 424v285q0 178 114.5 302t292.5 124q110 0 252 -72l6 55h223v-1108q0 -173 -109.5 -283t-281.5 -110h-291l-26 213h321q53 0 90 46.5t37 109.5v71q-112 -57 -221 -57q-178 0 -292.5 123t-114.5 301zM369 455q0 -104 42 -160.5t126 -56.5q98 0 200 36v578 q-128 45 -200 45q-80 0 -124 -57.5t-44 -153.5v-231z" />
<glyph unicode="h" horiz-adv-x="1107" d="M133 0v1532h260v-219q0 -123 -8 -238q126 60 233 60q174 0 275.5 -119t101.5 -297v-686q0 -12 -9 -22.5t-21 -10.5h-230v696q0 201 -137 201q-80 0 -205 -41v-856h-260z" />
<glyph unicode="i" horiz-adv-x="552" d="M51 930v188h383v-1085q0 -12 -9.5 -22.5t-21.5 -10.5h-229v920zM135 1421q0 69 49.5 118.5t118.5 49.5t118.5 -49.5t49.5 -118.5t-49.5 -118.5t-118.5 -49.5t-118.5 49.5t-49.5 118.5z" />
<glyph unicode="j" horiz-adv-x="595" d="M-53 -371l43 230q77 -23 137 -23q80 0 80 115v969l-123 12v186h383v-1186q0 -150 -93.5 -240.5t-246.5 -90.5q-94 0 -180 28zM168 1421q0 69 49.5 118.5t118.5 49.5t118.5 -49.5t49.5 -118.5t-49.5 -118.5t-118.5 -49.5t-118.5 49.5t-49.5 118.5z" />
<glyph unicode="k" horiz-adv-x="1042" d="M133 0v1532h260v-842l117 33q37 9 59 65l133 330h263l-170 -424q-27 -76 -93 -125l312 -569h-279l-252 485l-90 -24v-428q0 -12 -9.5 -22.5t-21.5 -10.5h-229z" />
<glyph unicode="l" horiz-adv-x="512" d="M133 233v1297h260v-1266q0 -9 2.5 -19t19 -25.5t44.5 -20.5l-53 -217q-124 12 -198.5 79t-74.5 172z" />
<glyph unicode="m" horiz-adv-x="1710" d="M131 0v680q0 126 46 228t137.5 164.5t213.5 62.5q207 0 314 -170q110 170 311 170q122 0 214 -62.5t138.5 -165t46.5 -227.5v-647q0 -12 -9 -22.5t-21 -10.5h-230v668q0 229 -159 229q-81 0 -121.5 -63t-40.5 -179v-655h-260v655q0 115 -40 178.5t-120 63.5 q-81 0 -120.5 -60t-39.5 -169v-668h-260z" />
<glyph unicode="n" horiz-adv-x="1105" d="M133 0v1118h225l7 -55q158 72 253 72q174 0 275.5 -119.5t101.5 -296.5v-686q0 -12 -9 -22.5t-21 -10.5h-230v696q0 201 -137 201q-84 0 -205 -41v-856h-260z" />
<glyph unicode="o" horiz-adv-x="1116" d="M102 440v238q0 127 54.5 230.5t159 165t241.5 61.5q205 0 331 -130.5t126 -326.5v-238q0 -195 -125 -325.5t-328 -130.5q-208 0 -333.5 130.5t-125.5 325.5zM362 459q0 -106 50 -172t149 -66q97 0 145 65t48 173v200q0 106 -49 172t-148 66q-98 0 -146.5 -64.5 t-48.5 -173.5v-200z" />
<glyph unicode="p" horiz-adv-x="1110" d="M121 -383v1503h221l8 -57q128 72 252 72q177 0 291.5 -123t114.5 -301v-301q0 -180 -114.5 -303t-291.5 -123q-101 0 -231 59q4 -50 6.5 -109.5t2.5 -93.5l1 -35v-188h-260zM381 258q117 -37 199 -37q85 0 126.5 57t41.5 160v250q0 97 -43 153t-125 56q-108 0 -199 -43 v-596z" />
<glyph unicode="q" horiz-adv-x="1110" d="M102 410v301q0 178 115 301t293 123q95 0 252 -74l6 57h223v-1503l-260 -16v204q0 123 8 236q-132 -55 -229 -55q-179 0 -293.5 123t-114.5 303zM362 436q0 -101 42 -158t126 -57q80 0 201 37v596q-95 43 -201 43q-80 0 -124 -56.5t-44 -152.5v-252z" />
<glyph unicode="r" horiz-adv-x="727" d="M133 0v1118h227l7 -102q42 37 70 58t70.5 41t78.5 20q62 0 127 -21l-33 -229q-62 12 -102 12q-77 0 -185 -80v-784q0 -12 -9.5 -22.5t-21.5 -10.5h-229z" />
<glyph unicode="s" horiz-adv-x="909" d="M92 55l51 232q102 -33 170.5 -49.5t132.5 -16.5q67 0 94 29.5t27 66.5q0 35 -24.5 61.5t-64 45.5t-87 38t-95 46.5t-87 64t-64 98t-24.5 140.5q0 150 106 237t262 87q139 0 308 -68l-64 -223q-145 53 -244 53q-59 0 -83.5 -26t-24.5 -60q0 -32 24.5 -56t64 -41.5 t87 -36.5t95 -47t87 -66t64 -101.5t24.5 -145.5q0 -151 -107 -242t-274 -91q-124 0 -354 71z" />
<glyph unicode="t" horiz-adv-x="751" d="M14 920v198h164l39 303h203v-303h229v-198h-229v-582q0 -62 21.5 -89.5t74.5 -27.5q22 0 46 3t60 9.5t48 8.5l26 -226q-98 -32 -180 -32q-90 0 -160.5 29t-112 77t-62.5 105.5t-21 119.5v605h-146z" />
<glyph unicode="u" horiz-adv-x="1095" d="M113 401v670q0 20 13.5 33.5t33.5 13.5h213v-696q0 -201 137 -201q87 0 205 43v854h260v-1118h-225l-9 55q-149 -71 -254 -71q-173 0 -273.5 119.5t-100.5 297.5z" />
<glyph unicode="v" horiz-adv-x="1064" d="M20 1118h275l149 -467l93 -346l90 346l151 467h275l-381 -1118h-271z" />
<glyph unicode="w" horiz-adv-x="1597" d="M41 1118h266l111 -467l51 -303l59 303l109 391h303l111 -391l61 -307l47 307l113 467h266l-274 -1118h-283l-107 358l-83 383l-86 -381l-107 -360h-283z" />
<glyph unicode="x" horiz-adv-x="1042" d="M37 0l319 578l-305 540h293l170 -354l168 354h293l-299 -536l342 -582h-297l-203 393l-188 -393h-293z" />
<glyph unicode="y" horiz-adv-x="1013" d="M51 1118h258l70 -688q11 -107 40.5 -149.5t100.5 -42.5q51 0 109 16l39 864h258l-52 -1124q-8 -175 -103.5 -276t-274.5 -101h-199l-16 213h221q30 0 52.5 12.5t34 30t19 46.5t9.5 50t4 54q-76 -23 -119 -23q-336 0 -377 393z" />
<glyph unicode="z" horiz-adv-x="966" d="M82 201l383 563l96 117h-457v237h738l30 -198l-383 -568l-94 -114h494v-238h-774z" />
<glyph unicode="{" horiz-adv-x="858" d="M51 512v188q63 0 102 12t57 39t23 55.5t5 76.5v268q0 102 24 178t80 136t157 91t246 31v-221q-55 0 -96.5 -6t-69 -14t-46.5 -25.5t-29 -31.5t-14.5 -41t-5.5 -45t-1 -52v-268q0 -99 -30.5 -164t-112.5 -113q82 -45 112.5 -111t30.5 -167v-267q0 -34 1 -52.5t6 -45.5 t15 -41.5t28.5 -31.5t46.5 -25.5t69.5 -14.5t95.5 -6v-219q-145 0 -246.5 31t-157.5 91t-80.5 136t-24.5 178v267q0 39 -2.5 63t-13 50t-30 39.5t-54 22.5t-85.5 9z" />
<glyph unicode="|" horiz-adv-x="602" d="M178 -319v1906h246v-1906h-246z" />
<glyph unicode="}" horiz-adv-x="858" d="M113 -156q54 0 95.5 6t69.5 14.5t46.5 25.5t28.5 31.5t15 41.5t6 45.5t1 52.5v267q0 101 30.5 167t112.5 111q-82 48 -112.5 113t-30.5 164v268q0 34 -1 52t-5.5 45t-14.5 41t-29 31.5t-46.5 25.5t-69 14t-96.5 6v221q145 0 246 -31t157.5 -91t80.5 -136t24 -178v-268 q0 -49 5 -77t22.5 -55t56.5 -39t102 -12v-188q-42 0 -73 -5.5t-51 -17.5t-32.5 -26t-18 -37.5t-7.5 -44.5t-2 -53v-267q0 -102 -24.5 -178t-81 -136t-158 -91t-246.5 -31v219z" />
<glyph unicode="~" horiz-adv-x="1310" d="M184 555q31 49 58.5 83.5t65 69t83 52.5t96.5 18q57 0 116 -30t98.5 -66t80 -66t64.5 -30q18 0 31.5 5t42 31.5t61.5 77.5l145 -153q-32 -49 -60 -84.5t-66 -70t-83 -52.5t-96 -18q-58 0 -116 30.5t-96.5 66.5t-78.5 66.5t-65 30.5q-13 0 -27 -7t-25 -15t-25 -23.5 t-21 -25t-20 -26.5t-15 -20z" />
<glyph unicode="&#xa1;" horiz-adv-x="751" d="M215 1079q0 72 51 122t123 50t124 -50t52 -122t-51.5 -124t-122.5 -52q-73 0 -124.5 52t-51.5 124zM233 -223l39 903l234 37l39 -940h-312z" />
<glyph unicode="&#xa2;" d="M199 459v237q0 88 30.5 169t87.5 146t147.5 103.5t201.5 38.5q35 0 51 -2l8 111l74 -7l-8 -112q90 -15 210 -53l-59 -224q-122 32 -172 41l-57 -665q81 5 239 49l60 -225q-195 -61 -320 -64l-10 -108l-74 6l10 104q-132 11 -229 79t-143.5 166t-46.5 210zM459 481 q0 -45 9.5 -84.5t30 -73.5t56.5 -55.5t84 -25.5l57 673h-30q-56 0 -97.5 -20t-64.5 -55t-34 -76t-11 -90v-193z" />
<glyph unicode="&#xa3;" d="M141 567v166h123v248q0 234 128 364t356 130q133 0 339 -84l-65 -226q-68 26 -148.5 48t-125.5 22q-120 0 -171 -64t-51 -208v-228h471v-168h-477l-35 -325h551v-209q0 -12 -9 -22.5t-21 -10.5h-779l37 567h-123z" />
<glyph unicode="&#xa4;" d="M104 532v107h152v180h-152v107h152v26q0 153 56.5 269.5t175 185t286.5 68.5q173 0 334 -41l-51 -236q-159 37 -283 37q-51 0 -91 -9t-66.5 -23.5t-45.5 -38t-29 -45.5t-15.5 -54t-7 -56t-1.5 -59v-24h467l-16 -107h-451v-180h467l-16 -107h-451v-22q0 -35 1.5 -59.5 t7 -56.5t15.5 -54t29 -45.5t45.5 -37.5t66.5 -23t91 -9q162 0 334 51l57 -237q-211 -55 -391 -55q-251 0 -384.5 144t-133.5 380v24h-152z" />
<glyph unicode="&#xa5;" d="M35 1458h287l274 -635l270 635h287l-352 -735h141v-184h-213v-74h213v-182h-213v-283h-268v283h-215v182h215v74h-215v184h141z" />
<glyph unicode="&#xa6;" horiz-adv-x="602" d="M178 -319v657h246v-657h-246zM178 930v657h246v-657h-246z" />
<glyph unicode="&#xa7;" horiz-adv-x="1105" d="M133 -203l41 203q216 -57 320 -57q116 0 164.5 46t48.5 128q0 52 -35.5 85.5t-106.5 67.5q-23 11 -64.5 29t-66 29.5t-61.5 30t-60 34.5t-51.5 39t-46 48t-33.5 55.5t-23 68t-7 80.5q0 129 69 219q-37 67 -37 160q0 176 122 273.5t312 97.5q144 0 324 -62l-53 -203 q-169 52 -271 52q-198 0 -198 -158q0 -46 31 -76.5t100 -64.5q25 -12 73.5 -34t76 -34.5t69.5 -35.5t66.5 -42.5t54 -50t45 -62.5t26.5 -75.5t11 -93.5q0 -131 -64 -222q33 -74 33 -155q0 -179 -123 -283t-325 -104q-131 0 -361 67zM387 684q0 -42 28 -72t95 -63 q29 -15 106.5 -48.5t118.5 -56.5q4 28 4 50q0 45 -27 76.5t-91 64.5q-29 14 -107.5 48t-118.5 56q-8 -19 -8 -55z" />
<glyph unicode="&#xa8;" horiz-adv-x="860" d="M102 1366q0 59 41 100t99 41t98.5 -41t40.5 -100q0 -58 -40.5 -98.5t-98.5 -40.5q-59 0 -99.5 40.5t-40.5 98.5zM477 1366q0 58 41.5 99.5t99.5 41.5q57 0 98.5 -41.5t41.5 -99.5t-41.5 -98.5t-98.5 -40.5q-59 0 -100 40.5t-41 98.5z" />
<glyph unicode="&#xa9;" horiz-adv-x="1740" d="M178 715q0 144 55 275.5t147.5 226.5t221 151.5t268.5 56.5t268.5 -56.5t221.5 -151.5t148 -226.5t55 -275.5t-55 -276t-148 -228.5t-221.5 -153.5t-268.5 -57q-187 0 -346.5 96.5t-252.5 261.5t-93 357zM322 715q0 -116 43.5 -221.5t117 -182t175 -121.5t212.5 -45 t212.5 45t175 121.5t117.5 182t44 221.5q0 155 -74 285.5t-200.5 206t-274.5 75.5q-111 0 -212.5 -44.5t-175 -120.5t-117 -181t-43.5 -221zM559 614v201q0 125 82 196.5t211 71.5q94 0 227 -39l-41 -139q-7 2 -30.5 8t-31.5 8t-28 6.5t-32.5 6t-30 3t-33.5 1.5 q-71 0 -104 -29.5t-33 -93.5v-201q0 -64 33 -93t104 -29q73 0 186 30l41 -137q-133 -39 -227 -39q-129 0 -211 71.5t-82 196.5z" />
<glyph unicode="&#xaa;" horiz-adv-x="845" d="M123 893q0 77 42.5 131t105.5 77t139 23h141v9q0 73 -27 104t-92 31q-70 0 -221 -41l-39 147q59 17 90.5 25.5t79 16t90.5 7.5q138 0 214.5 -73.5t76.5 -196.5v-494h-145l-9 39q-88 -51 -174 -51q-116 0 -194 67.5t-78 178.5zM293 893q0 -39 29.5 -67.5t85.5 -28.5 q66 0 143 24v180h-125q-133 0 -133 -108z" />
<glyph unicode="&#xab;" horiz-adv-x="1435" d="M178 541l262 405h308l-263 -405l260 -400h-305zM690 541l260 405h307l-260 -405l260 -400h-307z" />
<glyph unicode="&#xac;" horiz-adv-x="1216" d="M178 430v242h860v-578h-247v336h-613z" />
<glyph unicode="&#xad;" horiz-adv-x="956" d="M123 416v262h711v-262h-711z" />
<glyph unicode="&#xae;" horiz-adv-x="1738" d="M178 715q0 144 55 275.5t147.5 226.5t221 151.5t268.5 56.5t268 -56.5t220.5 -151.5t147.5 -226.5t55 -275.5t-55 -276t-147.5 -228.5t-220.5 -153.5t-268 -57q-187 0 -346.5 96.5t-252.5 261.5t-93 357zM322 715q0 -116 43.5 -221.5t117 -182t175 -121.5t212.5 -45 t212.5 45t175 121.5t117.5 182t44 221.5q0 155 -74 285.5t-200.5 206t-274.5 75.5q-111 0 -212.5 -44.5t-175 -120.5t-117 -181t-43.5 -221zM610 344v696q170 45 262 45q120 0 189 -69t69 -170q0 -128 -116 -203l135 -299h-174l-121 262h-82v-262h-162zM772 748h100 q53 0 77 27.5t24 70.5q0 38 -25 66.5t-76 29.5q-41 0 -100 -12v-182z" />
<glyph unicode="&#xaf;" horiz-adv-x="677" d="M2 1223v192h674v-192h-674z" />
<glyph unicode="&#xb0;" horiz-adv-x="778" d="M150 1178q0 100 69.5 169.5t169.5 69.5t170 -69.5t70 -169.5t-70 -170t-170 -70t-169.5 70t-69.5 170zM246 1178q0 -60 41.5 -102t101.5 -42t101.5 42t41.5 102t-41.5 101.5t-101.5 41.5t-101.5 -41.5t-41.5 -101.5z" />
<glyph unicode="&#xb1;" horiz-adv-x="1236" d="M178 25h881v-234h-881v234zM178 426v250h318v289h247v-289h316v-250h-316v-297h-247v297h-318z" />
<glyph unicode="&#xb2;" horiz-adv-x="704" />
<glyph unicode="&#xb3;" horiz-adv-x="704" />
<glyph unicode="&#xb4;" horiz-adv-x="778" d="M82 1397l524 254l90 -203l-540 -221z" />
<glyph unicode="&#xb6;" horiz-adv-x="1374" d="M188 965q0 125 62 229.5t167.5 164.5t229.5 60h543v-1687h-256v1425h-100v-1425h-259v784q-169 29 -278 154.5t-109 294.5z" />
<glyph unicode="&#xb7;" horiz-adv-x="495" d="M86 598q0 73 50.5 124.5t121.5 51.5q74 0 126 -51.5t52 -124.5t-52 -124.5t-124 -51.5t-123 51.5t-51 124.5z" />
<glyph unicode="&#xb8;" horiz-adv-x="589" d="M82 -381l24 193q83 -15 107 -15q36 0 53 16t17 58v139h225v-198q0 -58 -25.5 -101.5t-67.5 -66t-86.5 -33t-90.5 -10.5q-61 0 -156 18z" />
<glyph unicode="&#xb9;" horiz-adv-x="704" />
<glyph unicode="&#xba;" horiz-adv-x="894" d="M123 948v164q0 132 88.5 218.5t234.5 86.5q147 0 236.5 -86.5t89.5 -218.5v-164q0 -132 -88.5 -218.5t-234.5 -86.5q-148 0 -237 86.5t-89 218.5zM295 961q0 -74 37.5 -119t116.5 -45q76 0 113.5 44.5t37.5 119.5v139q0 74 -37.5 119t-116.5 45q-78 0 -114.5 -44.5 t-36.5 -119.5v-139z" />
<glyph unicode="&#xbb;" horiz-adv-x="1435" d="M178 141l260 400l-260 405h307l260 -405l-260 -400h-307zM688 946h307l262 -405l-262 -400h-305l260 400z" />
<glyph unicode="&#xbc;" horiz-adv-x="704" />
<glyph unicode="&#xbd;" horiz-adv-x="704" />
<glyph unicode="&#xbe;" horiz-adv-x="704" />
<glyph unicode="&#xbf;" horiz-adv-x="1099" d="M184 127q0 90 62 190q23 38 73.5 97t65.5 80q46 63 57 98t11 115l264 26q0 -48 -1 -83.5t-7.5 -70t-9.5 -54.5t-19.5 -51t-24 -44.5t-35.5 -48.5t-42 -51.5t-56 -63.5q-23 -27 -35 -43t-25 -43.5t-13 -52.5q0 -42 32 -76.5t90 -34.5q50 0 103 18t147 68l107 -208 q-82 -44 -120 -62.5t-104 -36.5t-133 -18q-174 0 -280.5 102.5t-106.5 247.5zM410 1096q0 72 51 122t123 50t124 -50t52 -122t-51.5 -124t-122.5 -52q-73 0 -124.5 52t-51.5 124z" />
<glyph unicode="&#xc0;" horiz-adv-x="1306" d="M31 0l334 1221q37 136 114 195t172 59q94 0 173 -59t116 -195l332 -1221h-266l-109 406h-491l-109 -406h-266zM352 1784l90 203l525 -254l-76 -170zM467 635h369l-150 559q-2 12 -12 26.5t-23 14.5t-23 -14.5t-12 -26.5z" />
<glyph unicode="&#xc1;" horiz-adv-x="1306" d="M31 0l334 1221q37 136 114 195t172 59q94 0 173 -59t116 -195l332 -1221h-266l-109 406h-491l-109 -406h-266zM311 1735l525 254l90 -203l-541 -221zM467 635h369l-150 559q-2 12 -12 26.5t-23 14.5t-23 -14.5t-12 -26.5z" />
<glyph unicode="&#xc2;" horiz-adv-x="1306" d="M31 0l334 1221q37 136 114 195t172 59q94 0 173 -59t116 -195l332 -1221h-266l-109 406h-491l-109 -406h-266zM281 1704l364 299l365 -299l-125 -143l-240 211l-237 -211zM467 635h369l-150 559q-2 12 -12 26.5t-23 14.5t-23 -14.5t-12 -26.5z" />
<glyph unicode="&#xc3;" horiz-adv-x="1306" d="M31 0l334 1221q37 136 114 195t172 59q94 0 173 -59t116 -195l332 -1221h-266l-109 406h-491l-109 -406h-266zM287 1677q17 35 32.5 59.5t42.5 56t64 48.5t80 17q47 0 93.5 -21t80.5 -42t51 -21q53 0 98 81l132 -108q-17 -34 -33 -59t-43 -56t-64 -48t-80 -17 q-47 0 -93 21t-79.5 42t-50.5 21q-52 0 -98 -82zM467 635h369l-150 559q-2 12 -12 26.5t-23 14.5t-23 -14.5t-12 -26.5z" />
<glyph unicode="&#xc4;" horiz-adv-x="1306" d="M31 0l334 1221q37 136 114 195t172 59q94 0 173 -59t116 -195l332 -1221h-266l-109 406h-491l-109 -406h-266zM309 1706q0 59 41 100t99 41t98.5 -41t40.5 -100q0 -58 -40 -98.5t-99 -40.5t-99.5 40.5t-40.5 98.5zM467 635h369l-150 559q-2 12 -12 26.5t-23 14.5 t-23 -14.5t-12 -26.5zM684 1706q0 58 41 99.5t100 41.5q57 0 98.5 -41.5t41.5 -99.5t-41.5 -98.5t-98.5 -40.5q-59 0 -100 40.5t-41 98.5z" />
<glyph unicode="&#xc5;" horiz-adv-x="1306" d="M31 0l334 1221q37 136 114 195t172 59q94 0 173 -59t116 -195l332 -1221h-266l-109 406h-491l-109 -406h-266zM430 1776q0 87 62 149t149 62q88 0 149.5 -61.5t61.5 -149.5q0 -87 -62 -149t-149 -62q-86 0 -148.5 62.5t-62.5 148.5zM467 635h369l-150 559q-2 12 -12 26.5 t-23 14.5t-23 -14.5t-12 -26.5zM537 1774q0 -41 31.5 -73t72.5 -32q44 0 76.5 31.5t32.5 73.5q0 44 -32.5 77t-76.5 33q-41 0 -72.5 -33t-31.5 -77z" />
<glyph unicode="&#xc6;" horiz-adv-x="1873" d="M31 0l553 1235q52 116 138.5 169.5t180.5 53.5h875v-239h-539v-353h510v-241h-510v-201q0 -31 0.5 -48t4 -39.5t10.5 -34.5t19.5 -25.5t31.5 -19.5t46 -10.5t64 -4.5h371v-209q0 -14 -8.5 -23.5t-20.5 -9.5h-342q-212 0 -326 107.5t-114 291.5v17h-502l-186 -416h-256z M563 618h412v601h-60q-47 0 -70 -14t-48 -68z" />
<glyph unicode="&#xc7;" horiz-adv-x="1193" d="M113 528v400q0 92 20.5 172.5t64 150t108.5 119t158 77.5t208 28q69 0 148.5 -12t133.5 -25.5t144 -38.5l-58 -236q-233 70 -368 70q-297 0 -297 -328v-354q0 -51 6 -93t24.5 -87.5t50 -76.5t87 -51t129.5 -20q124 0 362 74l66 -231q-201 -56 -275 -68v-186 q0 -58 -25.5 -101.5t-67.5 -66t-86.5 -33t-90.5 -10.5q-61 0 -156 18l25 193q82 -15 106 -15q36 0 53 15t17 57v117q-124 11 -219 57t-152.5 120t-86.5 165.5t-29 199.5z" />
<glyph unicode="&#xc8;" horiz-adv-x="1075" d="M145 395v666q0 183 111 290t315 107h408v-239h-408q-51 0 -84 -12.5t-49.5 -38t-22 -55t-5.5 -73.5v-176h544v-239h-544v-209q0 -90 31.5 -133t129.5 -43h416v-193q0 -20 -13.5 -33.5t-33.5 -13.5h-369q-202 0 -314 107t-112 288zM270 1784l90 203l525 -254l-76 -170z " />
<glyph unicode="&#xc9;" horiz-adv-x="1075" d="M145 395v666q0 183 111 290t315 107h408v-239h-408q-51 0 -84 -12.5t-49.5 -38t-22 -55t-5.5 -73.5v-176h544v-239h-544v-209q0 -90 31.5 -133t129.5 -43h416v-193q0 -20 -13.5 -33.5t-33.5 -13.5h-369q-202 0 -314 107t-112 288zM250 1735l524 254l90 -203l-540 -221z " />
<glyph unicode="&#xca;" horiz-adv-x="1075" d="M145 395v666q0 183 111 290t315 107h408v-239h-408q-51 0 -84 -12.5t-49.5 -38t-22 -55t-5.5 -73.5v-176h544v-239h-544v-209q0 -90 31.5 -133t129.5 -43h416v-193q0 -20 -13.5 -33.5t-33.5 -13.5h-369q-202 0 -314 107t-112 288zM176 1704l365 299l364 -299l-125 -143 l-239 211l-238 -211z" />
<glyph unicode="&#xcb;" horiz-adv-x="1075" d="M145 395v666q0 183 111 290t315 107h408v-239h-408q-51 0 -84 -12.5t-49.5 -38t-22 -55t-5.5 -73.5v-176h544v-239h-544v-209q0 -90 31.5 -133t129.5 -43h416v-193q0 -20 -13.5 -33.5t-33.5 -13.5h-369q-202 0 -314 107t-112 288zM268 1706q0 59 41 100t99 41t98.5 -41 t40.5 -100q0 -58 -40.5 -98.5t-98.5 -40.5q-59 0 -99.5 40.5t-40.5 98.5zM643 1706q0 58 41.5 99.5t99.5 41.5q57 0 98.5 -41.5t41.5 -99.5t-41.5 -98.5t-98.5 -40.5q-59 0 -100 40.5t-41 98.5z" />
<glyph unicode="&#xcc;" horiz-adv-x="530" d="M-18 1784l90 203l524 -254l-76 -170zM135 0v1458h262v-1411q0 -20 -13 -33.5t-32 -13.5h-217z" />
<glyph unicode="&#xcd;" horiz-adv-x="530" d="M-74 1735l525 254l90 -203l-541 -221zM135 0v1458h262v-1411q0 -20 -13 -33.5t-32 -13.5h-217z" />
<glyph unicode="&#xce;" horiz-adv-x="530" d="M-102 1704l354 299l375 -299l-125 -143l-240 211l-237 -211zM133 0v1458h262v-1411q0 -20 -13 -33.5t-32 -13.5h-217z" />
<glyph unicode="&#xcf;" horiz-adv-x="530" d="M-57 1706q0 59 40.5 100t98.5 41t98.5 -41t40.5 -100q0 -58 -40.5 -98.5t-98.5 -40.5t-98.5 40.5t-40.5 98.5zM135 0v1458h262v-1411q0 -20 -13 -33.5t-32 -13.5h-217zM317 1706q0 58 41.5 99.5t100.5 41.5q57 0 98 -41.5t41 -99.5t-41 -98.5t-98 -40.5 q-59 0 -100.5 40.5t-41.5 98.5z" />
<glyph unicode="&#xd0;" horiz-adv-x="704" />
<glyph unicode="&#xd1;" horiz-adv-x="1314" d="M145 0v1458h181q43 0 77.5 -7t61.5 -24t46 -34t39 -50t32.5 -58t33.5 -71l213 -469l89 -253l-15 253v713h262v-1458h-288l-469 1071v-1071h-263zM328 1677q17 35 32.5 59.5t42.5 56t64 48.5t80 17q47 0 93.5 -21t80.5 -42t51 -21q53 0 98 81l131 -108q-17 -34 -32.5 -59 t-42.5 -56t-64 -48t-80 -17q-47 0 -93 21t-79.5 42t-50.5 21q-52 0 -98 -82z" />
<glyph unicode="&#xd2;" horiz-adv-x="1341" d="M113 561v334q0 158 65 289t192 211t294 80q126 0 232.5 -48.5t176 -129.5t108 -185t38.5 -217v-334q0 -158 -65.5 -288t-193.5 -209.5t-296 -79.5q-125 0 -230.5 47t-174.5 127t-107.5 184t-38.5 219zM375 584q0 -68 16.5 -129.5t49.5 -115t90.5 -85t132.5 -31.5 q74 0 132 32t92 84.5t51 115t17 129.5v288q0 67 -17 129.5t-51 116t-92 85.5t-132 32q-75 0 -132.5 -32t-90.5 -85.5t-49.5 -115.5t-16.5 -130v-288zM393 1786l90 203l525 -254l-76 -170z" />
<glyph unicode="&#xd3;" horiz-adv-x="1331" d="M113 563v334q0 158 65 289t192 211t294 80q126 0 232.5 -48.5t176 -129.5t108 -185t38.5 -217v-334q0 -158 -65.5 -288t-193.5 -209.5t-296 -79.5q-125 0 -230.5 47t-174.5 127t-107.5 184t-38.5 219zM311 1739l525 254l90 -203l-541 -221zM375 586q0 -68 16.5 -129.5 t49.5 -115t90.5 -85t132.5 -31.5q74 0 132 32t92 84.5t51 115t17 129.5v288q0 67 -17 129.5t-51 116t-92 85.5t-132 32q-75 0 -132.5 -32t-90.5 -85.5t-49.5 -115.5t-16.5 -130v-288z" />
<glyph unicode="&#xd4;" horiz-adv-x="1331" d="M113 561v334q0 158 65 289t192 211t294 80q126 0 232.5 -48.5t176 -129.5t108 -185t38.5 -217v-334q0 -158 -65.5 -288t-193.5 -209.5t-296 -79.5q-125 0 -230.5 47t-174.5 127t-107.5 184t-38.5 219zM301 1706l365 299l364 -299l-125 -143l-239 211l-238 -211zM375 584 q0 -68 16.5 -129.5t49.5 -115t90.5 -85t132.5 -31.5q74 0 132 32t92 84.5t51 115t17 129.5v288q0 67 -17 129.5t-51 116t-92 85.5t-132 32q-75 0 -132.5 -32t-90.5 -85.5t-49.5 -115.5t-16.5 -130v-288z" />
<glyph unicode="&#xd5;" horiz-adv-x="1331" d="M113 561v334q0 158 65 289t192 211t294 80q126 0 232.5 -48.5t176 -129.5t108 -185t38.5 -217v-334q0 -158 -65.5 -288t-193.5 -209.5t-296 -79.5q-125 0 -230.5 47t-174.5 127t-107.5 184t-38.5 219zM307 1679q17 35 32.5 59.5t42.5 56t64 48.5t80 17q47 0 94 -21 t81 -42t51 -21q52 0 98 82l131 -109q-17 -34 -32.5 -59t-42.5 -56t-64 -48t-80 -17q-47 0 -93 21t-79.5 42t-50.5 21q-55 0 -99 -82zM375 584q0 -68 16.5 -129.5t49.5 -115t90.5 -85t132.5 -31.5q74 0 132 32t92 84.5t51 115t17 129.5v288q0 67 -17 129.5t-51 116t-92 85.5 t-132 32q-75 0 -132.5 -32t-90.5 -85.5t-49.5 -115.5t-16.5 -130v-288z" />
<glyph unicode="&#xd6;" horiz-adv-x="1331" d="M113 561v334q0 158 65 289t192 211t294 80q126 0 232.5 -48.5t176 -129.5t108 -185t38.5 -217v-334q0 -158 -65.5 -288t-193.5 -209.5t-296 -79.5q-125 0 -230.5 47t-174.5 127t-107.5 184t-38.5 219zM330 1708q0 59 40.5 100t98.5 41t98.5 -41t40.5 -100 q0 -58 -40 -98.5t-99 -40.5t-99 40.5t-40 98.5zM375 584q0 -68 16.5 -129.5t49.5 -115t90.5 -85t132.5 -31.5q74 0 132 32t92 84.5t51 115t17 129.5v288q0 67 -17 129.5t-51 116t-92 85.5t-132 32q-75 0 -132.5 -32t-90.5 -85.5t-49.5 -115.5t-16.5 -130v-288zM705 1708 q0 58 41.5 99.5t99.5 41.5q57 0 98 -41.5t41 -99.5t-41 -98.5t-98 -40.5q-59 0 -100 40.5t-41 98.5z" />
<glyph unicode="&#xd7;" horiz-adv-x="704" />
<glyph unicode="&#xd8;" horiz-adv-x="1331" d="M113 563v334q0 118 38.5 222.5t108.5 183.5t176 125.5t232 46.5q106 0 186 -29l45 127l115 -43l-49 -137q120 -76 187 -208.5t67 -287.5v-334q0 -158 -65 -288.5t-192 -210.5t-294 -80q-94 0 -189 30l-45 -127l-115 43l50 140q-121 79 -188.5 210.5t-67.5 282.5zM377 586 q0 -161 80 -262l315 893q-47 18 -104 18q-74 0 -132 -32t-91.5 -84.5t-50.5 -115t-17 -129.5v-288zM559 246q54 -21 109 -21q75 0 132.5 31.5t90.5 85t49 115t16 129.5v288q0 164 -82 265z" />
<glyph unicode="&#xd9;" horiz-adv-x="1308" d="M123 559v899h262v-934q0 -79 27 -144.5t89 -110t150 -44.5q64 0 115.5 25.5t82.5 68t47.5 95t16.5 110.5v934h265v-899q0 -266 -139.5 -420.5t-387.5 -154.5t-388 154t-140 421zM352 1786l90 203l525 -254l-76 -170z" />
<glyph unicode="&#xda;" horiz-adv-x="1308" d="M123 559v899h262v-934q0 -79 27 -144.5t89 -110t150 -44.5q64 0 115.5 25.5t82.5 68t47.5 95t16.5 110.5v934h265v-899q0 -266 -139.5 -420.5t-387.5 -154.5t-388 154t-140 421zM332 1737l524 254l90 -203l-540 -221z" />
<glyph unicode="&#xdb;" horiz-adv-x="1308" d="M123 559v899h262v-934q0 -79 27 -144.5t89 -110t150 -44.5q64 0 115.5 25.5t82.5 68t47.5 95t16.5 110.5v934h265v-899q0 -266 -139.5 -420.5t-387.5 -154.5t-388 154t-140 421zM281 1706l364 299l365 -299l-125 -143l-240 211l-237 -211z" />
<glyph unicode="&#xdc;" horiz-adv-x="1308" d="M123 559v899h262v-934q0 -79 27 -144.5t89 -110t150 -44.5q64 0 115.5 25.5t82.5 68t47.5 95t16.5 110.5v934h265v-899q0 -266 -139.5 -420.5t-387.5 -154.5t-388 154t-140 421zM330 1708q0 59 40.5 100t98.5 41t98.5 -41t40.5 -100q0 -58 -40 -98.5t-99 -40.5t-99 40.5 t-40 98.5zM705 1708q0 58 41.5 99.5t99.5 41.5q57 0 98 -41.5t41 -99.5t-41 -98.5t-98 -40.5q-59 0 -100 40.5t-41 98.5z" />
<glyph unicode="&#xdd;" horiz-adv-x="704" />
<glyph unicode="&#xde;" horiz-adv-x="704" />
<glyph unicode="&#xdf;" horiz-adv-x="1241" d="M178 0v1374q79 33 129 51t122.5 34t139.5 16q163 0 275 -97.5t112 -267.5q0 -111 -106 -205q-3 -2 -15.5 -12.5t-24 -20.5t-24.5 -22t-20.5 -22.5t-7.5 -16.5q0 -28 41 -63q1 -1 102 -80q46 -36 77.5 -70t57 -90.5t25.5 -120.5q0 -182 -119.5 -292.5t-318.5 -110.5 q-81 0 -177 26l33 236q104 -23 144 -23q90 0 133 47t43 107q0 40 -22.5 74.5t-55.5 58t-72.5 52.5t-72.5 58t-55.5 76t-22.5 105q0 41 9.5 73.5t34.5 62.5t41.5 45t55.5 48q55 44 55 80q0 125 -125 125q-53 0 -127 -16v-1219h-264z" />
<glyph unicode="&#xe0;" horiz-adv-x="997" d="M82 326q0 71 23 128.5t61 94.5t90.5 62t109 35.5t119.5 10.5h166q0 136 -32 188t-111 52q-134 0 -305 -51l-58 227q195 62 363 62q190 0 296.5 -110.5t106.5 -293.5v-731h-223l-8 61q-36 -34 -96.5 -55.5t-126.5 -21.5q-157 0 -266 90t-109 252zM221 1448l90 203 l525 -254l-76 -170zM342 342q0 -57 37.5 -100t101.5 -43q79 0 170 32v246h-155q-75 0 -114.5 -39t-39.5 -96z" />
<glyph unicode="&#xe1;" horiz-adv-x="997" d="M82 324q0 71 23 128.5t61 94.5t90.5 62t109 35.5t119.5 10.5h166q0 136 -32 189t-111 53q-127 0 -305 -53l-58 227q201 64 363 64q190 0 296.5 -110.5t106.5 -293.5v-731h-223l-8 59q-36 -33 -96.5 -54t-126.5 -21q-101 0 -184.5 36.5t-137 115.5t-53.5 188zM172 1397 l524 254l90 -203l-540 -221zM342 342q0 -57 37.5 -101t101.5 -44q79 0 170 32v246h-155q-75 0 -114.5 -38t-39.5 -95z" />
<glyph unicode="&#xe2;" horiz-adv-x="997" d="M82 326q0 71 23 128.5t61 94.5t90.5 62t109 35.5t119.5 10.5h166q0 136 -32 188t-111 52q-134 0 -305 -51l-58 227q195 62 363 62q190 0 296.5 -110.5t106.5 -293.5v-731h-223l-8 61q-36 -34 -96.5 -55.5t-126.5 -21.5q-157 0 -266 90t-109 252zM127 1366l365 299 l364 -299l-125 -143l-239 211l-238 -211zM342 342q0 -57 37.5 -100t101.5 -43q79 0 170 32v246h-155q-75 0 -114.5 -39t-39.5 -96z" />
<glyph unicode="&#xe3;" horiz-adv-x="997" d="M82 324q0 71 23 128.5t61 94.5t90.5 62t109 35.5t119.5 10.5h166q0 136 -32 189t-111 53q-127 0 -305 -53l-58 227q201 64 363 64q190 0 296.5 -110.5t106.5 -293.5v-731h-223l-8 59q-36 -33 -96.5 -54t-126.5 -21q-101 0 -184.5 36.5t-137 115.5t-53.5 188zM152 1337 q17 35 32.5 59.5t42.5 56t64 48.5t80 17q47 0 93.5 -21t80.5 -42t51 -21q52 0 98 82l131 -109q-17 -34 -32.5 -59t-42.5 -56t-64 -48t-80 -17q-47 0 -93 21t-79.5 42t-50.5 21q-52 0 -98 -82zM342 342q0 -57 37.5 -101t101.5 -44q79 0 170 32v246h-155q-75 0 -114.5 -38 t-39.5 -95z" />
<glyph unicode="&#xe4;" horiz-adv-x="997" d="M82 324q0 71 23 128.5t61 94.5t90.5 62t109 35.5t119.5 10.5h166q0 136 -32 189t-111 53q-127 0 -305 -53l-58 227q201 64 363 64q190 0 296.5 -110.5t106.5 -293.5v-731h-223l-8 59q-36 -33 -96.5 -54t-126.5 -21q-101 0 -184.5 36.5t-137 115.5t-53.5 188zM158 1366 q0 59 40.5 100t98.5 41t98.5 -41t40.5 -100q0 -58 -40 -98.5t-99 -40.5t-99 40.5t-40 98.5zM342 342q0 -57 37.5 -101t101.5 -44q79 0 170 32v246h-155q-75 0 -114.5 -38t-39.5 -95zM532 1366q0 58 41.5 99.5t100.5 41.5q57 0 98 -41.5t41 -99.5t-41 -98.5t-98 -40.5 q-59 0 -100.5 40.5t-41.5 98.5z" />
<glyph unicode="&#xe5;" horiz-adv-x="997" d="M82 324q0 71 23 128.5t61 94.5t90.5 62t109 35.5t119.5 10.5h166q0 136 -32 189t-111 53q-127 0 -305 -53l-58 227q201 64 363 64q190 0 296.5 -110.5t106.5 -293.5v-731h-223l-8 59q-36 -33 -96.5 -54t-126.5 -21q-101 0 -184.5 36.5t-137 115.5t-53.5 188zM285 1436 q0 87 62 149t149 62q88 0 149.5 -61.5t61.5 -149.5q0 -87 -62 -149t-149 -62q-86 0 -148.5 62.5t-62.5 148.5zM342 342q0 -57 37.5 -101t101.5 -44q79 0 170 32v246h-155q-75 0 -114.5 -38t-39.5 -95zM391 1434q0 -41 32 -73t73 -32q44 0 76 31.5t32 73.5q0 44 -32 77 t-76 33q-41 0 -73 -33t-32 -77z" />
<glyph unicode="&#xe6;" horiz-adv-x="1628" d="M82 352q0 90 33 159t89.5 109.5t125.5 61t147 20.5h174q0 104 -33 149.5t-110 45.5q-64 0 -150 -19t-155 -44l-58 227q83 26 129 39t110 24t124 11q186 0 295 -109q119 109 293 109q101 0 186 -39.5t140 -104.5t85.5 -146.5t30.5 -168.5v-154q0 -20 -13.5 -33.5 t-33.5 -13.5h-578v-35q0 -40 11 -76t35 -69.5t71 -53.5t111 -20q50 0 108 11t97.5 22.5t103.5 32.5l57 -224q-222 -79 -364 -79q-125 0 -230 45v-29h-225l-8 49q-106 -65 -223 -65q-159 0 -267 101.5t-108 266.5zM342 352q0 -52 35 -91.5t104 -39.5q76 0 170 33v268h-159 q-40 0 -69 -12t-44 -28.5t-24 -41.5t-11 -44.5t-2 -43.5zM915 670h361q-7 107 -48 167t-132 60q-94 0 -135 -59.5t-46 -167.5z" />
<glyph unicode="&#xe7;" horiz-adv-x="999" d="M102 438v238q0 88 30.5 169t87.5 146t147.5 103.5t201.5 38.5q127 0 334 -64l-59 -223q-107 29 -160 39t-115 10q-108 0 -157.5 -69t-49.5 -173v-192q0 -104 49 -173t156 -69q66 0 126.5 11t162.5 40l59 -225q-114 -34 -194 -49v-184q0 -58 -25.5 -101.5t-67.5 -66 t-86.5 -33t-90.5 -10.5q-61 0 -156 18l24 193q83 -15 107 -15q36 0 53 16t17 58v115q-185 24 -289.5 153.5t-104.5 298.5z" />
<glyph unicode="&#xe8;" horiz-adv-x="1077" d="M102 440v236q0 90 31 172.5t86.5 146.5t140.5 102t185 38q101 0 186 -39.5t140 -104.5t85.5 -146.5t30.5 -168.5v-154q0 -20 -13.5 -33.5t-33.5 -13.5h-578v-35q0 -40 11 -76t35 -69.5t71 -53.5t111 -20q50 0 108 11t97.5 22.5t103.5 32.5l57 -224q-222 -79 -364 -79 q-119 0 -214.5 38.5t-154.5 103t-90 145.5t-31 169zM270 1450l90 203l525 -254l-76 -170zM365 670h360q-14 227 -180 227q-93 0 -134 -60t-46 -167z" />
<glyph unicode="&#xe9;" horiz-adv-x="1077" d="M102 442v236q0 90 31 172.5t86.5 146.5t140.5 102t185 38q101 0 186 -39.5t140 -104.5t85.5 -146.5t30.5 -168.5v-154q0 -20 -13.5 -33.5t-33.5 -13.5h-578v-35q0 -40 11 -76t35 -69.5t71 -53.5t111 -20q50 0 108 11t97.5 22.5t103.5 32.5l57 -223q-225 -80 -364 -80 q-119 0 -214.5 38.5t-154.5 103t-90 145.5t-31 169zM205 1401l524 254l90 -203l-540 -221zM365 672h360q-14 227 -180 227q-93 0 -134 -60t-46 -167z" />
<glyph unicode="&#xea;" horiz-adv-x="1077" d="M102 440v236q0 90 31 172.5t86.5 146.5t140.5 102t185 38q101 0 186 -39.5t140 -104.5t85.5 -146.5t30.5 -168.5v-154q0 -20 -13.5 -33.5t-33.5 -13.5h-578v-35q0 -40 11 -76t35 -69.5t71 -53.5t111 -20q50 0 108 11t97.5 22.5t103.5 32.5l57 -224q-222 -79 -364 -79 q-119 0 -214.5 38.5t-154.5 103t-90 145.5t-31 169zM174 1368l365 299l364 -299l-125 -143l-239 211l-238 -211zM365 670h360q-7 107 -48 167t-132 60q-94 0 -134.5 -59.5t-45.5 -167.5z" />
<glyph unicode="&#xeb;" horiz-adv-x="1077" d="M102 440v236q0 90 31 172.5t86.5 146.5t140.5 102t185 38q101 0 186 -39.5t140 -104.5t85.5 -146.5t30.5 -168.5v-154q0 -20 -13.5 -33.5t-33.5 -13.5h-578v-35q0 -40 11 -76t35 -69.5t71 -53.5t111 -20q50 0 108 11t97.5 22.5t103.5 32.5l57 -224q-222 -79 -364 -79 q-119 0 -214.5 38.5t-154.5 103t-90 145.5t-31 169zM211 1368q0 59 40.5 100t98.5 41t98.5 -41t40.5 -100q0 -58 -40.5 -98.5t-98.5 -40.5t-98.5 40.5t-40.5 98.5zM365 670h360q-7 107 -48 167t-132 60q-94 0 -134.5 -59.5t-45.5 -167.5zM586 1368q0 58 41 99.5t100 41.5 q57 0 98 -41.5t41 -99.5t-41 -98.5t-98 -40.5q-59 0 -100 40.5t-41 98.5z" />
<glyph unicode="&#xec;" horiz-adv-x="552" d="M-43 1448l90 203l524 -254l-75 -170zM51 930v188h383v-1085q0 -12 -9.5 -22.5t-21.5 -10.5h-229v920z" />
<glyph unicode="&#xed;" horiz-adv-x="552" d="M-63 1397l524 254l90 -203l-541 -221zM51 930v188h383v-1085q0 -12 -9.5 -22.5t-21.5 -10.5h-229v920z" />
<glyph unicode="&#xee;" horiz-adv-x="552" d="M-88 1366l364 299l365 -299l-125 -143l-240 211l-237 -211zM51 930v188h383v-1085q0 -12 -9.5 -22.5t-21.5 -10.5h-229v920z" />
<glyph unicode="&#xef;" horiz-adv-x="552" d="M-57 1366q0 59 40.5 100t98.5 41t98.5 -41t40.5 -100q0 -58 -40.5 -98.5t-98.5 -40.5t-98.5 40.5t-40.5 98.5zM51 930v188h383v-1085q0 -12 -9.5 -22.5t-21.5 -10.5h-229v920zM317 1366q0 58 41.5 99.5t100.5 41.5q57 0 98 -41.5t41 -99.5t-41 -98.5t-98 -40.5 q-59 0 -100.5 40.5t-41.5 98.5z" />
<glyph unicode="&#xf0;" horiz-adv-x="704" />
<glyph unicode="&#xf1;" horiz-adv-x="1105" d="M133 0v1118h225l7 -55q158 72 253 72q174 0 275.5 -119.5t101.5 -296.5v-686q0 -12 -9 -22.5t-21 -10.5h-230v696q0 201 -137 201q-84 0 -205 -41v-856h-260zM201 1337q17 35 32.5 59.5t42.5 56t64 48.5t80 17q47 0 93.5 -21t80.5 -42t51 -21q52 0 98 82l131 -109 q-17 -34 -32.5 -59t-42.5 -56t-64 -48t-80 -17q-47 0 -93 21t-79.5 42t-50.5 21q-52 0 -98 -82z" />
<glyph unicode="&#xf2;" horiz-adv-x="1116" d="M102 440v238q0 127 54.5 230.5t159 165t241.5 61.5q205 0 331 -130.5t126 -326.5v-238q0 -195 -125 -325.5t-328 -130.5q-208 0 -333.5 130.5t-125.5 325.5zM270 1450l90 203l525 -254l-76 -170zM362 459q0 -106 50 -172t149 -66q97 0 145 65t48 173v200q0 106 -49 172 t-148 66q-98 0 -146.5 -64.5t-48.5 -173.5v-200z" />
<glyph unicode="&#xf3;" horiz-adv-x="1116" d="M102 440v238q0 127 54.5 230.5t159 165t241.5 61.5q205 0 331 -130.5t126 -326.5v-238q0 -195 -125 -325.5t-328 -130.5q-208 0 -333.5 130.5t-125.5 325.5zM188 1399l525 254l90 -203l-541 -221zM362 459q0 -106 50 -172t149 -66q97 0 145 65t48 173v200q0 106 -49 172 t-148 66q-98 0 -146.5 -64.5t-48.5 -173.5v-200z" />
<glyph unicode="&#xf4;" horiz-adv-x="1116" d="M102 440v238q0 127 54.5 230.5t159 165t241.5 61.5q205 0 331 -130.5t126 -326.5v-238q0 -195 -125 -325.5t-328 -130.5q-208 0 -333.5 130.5t-125.5 325.5zM193 1368l364 299l365 -299l-125 -143l-240 211l-238 -211zM362 459q0 -106 50 -172t149 -66q97 0 145 65 t48 173v200q0 106 -49 172t-148 66q-98 0 -146.5 -64.5t-48.5 -173.5v-200z" />
<glyph unicode="&#xf5;" horiz-adv-x="1116" d="M102 440v238q0 127 54.5 230.5t159 165t241.5 61.5q205 0 331 -130.5t126 -326.5v-238q0 -195 -125 -325.5t-328 -130.5q-208 0 -333.5 130.5t-125.5 325.5zM201 1339q17 35 32.5 59.5t42.5 56t64 48.5t80 17q47 0 93.5 -21t80.5 -42t51 -21q52 0 98 82l131 -109 q-17 -34 -32.5 -59t-42.5 -56t-64 -48t-80 -17q-47 0 -93 21t-79.5 42t-50.5 21q-54 0 -98 -82zM362 459q0 -106 50 -172t149 -66q97 0 145 65t48 173v200q0 106 -49 172t-148 66q-98 0 -146.5 -64.5t-48.5 -173.5v-200z" />
<glyph unicode="&#xf6;" horiz-adv-x="1116" d="M102 440v238q0 127 54.5 230.5t159 165t241.5 61.5q205 0 331 -130.5t126 -326.5v-238q0 -195 -125 -325.5t-328 -130.5q-208 0 -333.5 130.5t-125.5 325.5zM219 1368q0 59 40.5 100t98.5 41t99 -41t41 -100q0 -58 -40.5 -98.5t-99.5 -40.5q-58 0 -98.5 40.5t-40.5 98.5z M362 459q0 -106 50 -172t149 -66q97 0 145 65t48 173v200q0 106 -49 172t-148 66q-98 0 -146.5 -64.5t-48.5 -173.5v-200zM594 1368q0 58 41 99.5t100 41.5q57 0 98 -41.5t41 -99.5t-41 -98.5t-98 -40.5q-59 0 -100 40.5t-41 98.5z" />
<glyph unicode="&#xf7;" horiz-adv-x="704" />
<glyph unicode="&#xf8;" horiz-adv-x="1118" d="M102 440v238q0 127 54.5 230.5t159 165t241.5 61.5q75 0 133 -17l31 86l115 -43l-33 -92q100 -59 155.5 -161.5t55.5 -229.5v-238q0 -195 -125 -325.5t-328 -130.5q-71 0 -137 16l-31 -88l-114 43l32 92q-99 60 -154 164t-55 229zM362 459q0 -96 39 -158l209 590 q-24 6 -53 6q-98 0 -146.5 -64.5t-48.5 -173.5v-200zM504 227q24 -6 57 -6q97 0 145 65t48 173v200q0 99 -39 158z" />
<glyph unicode="&#xf9;" horiz-adv-x="1095" d="M113 401v670q0 20 13.5 33.5t33.5 13.5h213v-696q0 -201 137 -201q87 0 205 43v854h260v-1118h-225l-9 49q-148 -65 -254 -65q-173 0 -273.5 119.5t-100.5 297.5zM254 1450l90 203l524 -254l-75 -170z" />
<glyph unicode="&#xfa;" horiz-adv-x="1095" d="M113 401v670q0 20 13.5 33.5t33.5 13.5h213v-696q0 -201 137 -201q87 0 205 43v854h260v-1118h-225l-9 49q-148 -65 -254 -65q-173 0 -273.5 119.5t-100.5 297.5zM221 1399l524 254l91 -203l-541 -221z" />
<glyph unicode="&#xfb;" horiz-adv-x="1095" d="M113 401v670q0 20 13.5 33.5t33.5 13.5h213v-696q0 -201 137 -201q87 0 205 43v854h260v-1118h-225l-9 49q-148 -65 -254 -65q-173 0 -273.5 119.5t-100.5 297.5zM160 1368l364 299l365 -299l-125 -143l-240 211l-237 -211z" />
<glyph unicode="&#xfc;" horiz-adv-x="1095" d="M113 401v670q0 20 13.5 33.5t33.5 13.5h213v-696q0 -201 137 -201q87 0 205 43v854h260v-1118h-225l-9 49q-148 -65 -254 -65q-173 0 -273.5 119.5t-100.5 297.5zM223 1368q0 59 40.5 100t98.5 41t99 -41t41 -100q0 -58 -40.5 -98.5t-99.5 -40.5q-58 0 -98.5 40.5 t-40.5 98.5zM598 1368q0 58 41 99.5t100 41.5q57 0 98.5 -41.5t41.5 -99.5t-41.5 -98.5t-98.5 -40.5q-59 0 -100 40.5t-41 98.5z" />
<glyph unicode="&#xfd;" horiz-adv-x="704" />
<glyph unicode="&#xfe;" horiz-adv-x="704" />
<glyph unicode="&#xff;" horiz-adv-x="1013" d="M51 1118h258l70 -688q10 -102 49 -147t113 -45q50 0 108 16l39 864h256l-51 -1124q-8 -176 -103.5 -276.5t-275.5 -100.5h-240l-14 236h262q38 0 62.5 13.5t35.5 40.5t14.5 52t4.5 64q-76 -23 -119 -23q-175 0 -276.5 104.5t-120.5 288.5zM199 1366q0 59 40.5 100 t98.5 41t98.5 -41t40.5 -100q0 -58 -40.5 -98.5t-98.5 -40.5t-98.5 40.5t-40.5 98.5zM573 1366q0 58 41.5 99.5t100.5 41.5q57 0 98 -41.5t41 -99.5t-41 -98.5t-98 -40.5q-59 0 -100.5 40.5t-41.5 98.5z" />
<glyph unicode="&#x152;" horiz-adv-x="1884" d="M113 561v334q0 158 65 289t192 211t294 80q227 0 378 -148q112 131 338 131h408v-239h-408q-51 0 -84 -12.5t-49.5 -38t-22 -55t-5.5 -73.5v-176h544v-239h-544v-209q0 -89 31.5 -132.5t129.5 -43.5h416v-193q0 -20 -13.5 -33.5t-33.5 -13.5h-369q-220 0 -336 129 q-151 -145 -380 -145q-125 0 -230.5 47.5t-174.5 127.5t-107.5 184t-38.5 218zM375 584q0 -68 16.5 -129.5t49.5 -115t90.5 -85t132.5 -31.5q60 0 109.5 21t82.5 56.5t55.5 82.5t32.5 97.5t10 103.5v288q0 53 -10 104t-32.5 98t-55.5 82.5t-82.5 57t-109.5 21.5 q-75 0 -132.5 -32t-90.5 -85.5t-49.5 -115.5t-16.5 -130v-288z" />
<glyph unicode="&#x153;" horiz-adv-x="1728" d="M102 440v238q0 127 54.5 230.5t159 165t241.5 61.5q199 0 326 -127q124 127 313 127q101 0 186 -39.5t140 -104.5t85.5 -146.5t30.5 -168.5v-154q0 -20 -13.5 -33.5t-33.5 -13.5h-577v-35q0 -40 10.5 -76t35 -69.5t71 -53.5t110.5 -20q50 0 108 11t97.5 22.5t103.5 32.5 l58 -224q-222 -79 -365 -79q-220 0 -356 129q-126 -129 -326 -129q-208 0 -333.5 130.5t-125.5 325.5zM362 459q0 -106 50 -172t149 -66q97 0 145 65t48 173v200q0 106 -49 172t-148 66q-98 0 -146.5 -64.5t-48.5 -173.5v-200zM1016 670h360q-7 107 -48 167t-132 60 q-94 0 -134.5 -59.5t-45.5 -167.5z" />
<glyph unicode="&#x178;" horiz-adv-x="1191" d="M61 1458h265l82 -422q12 -57 20 -90.5t23 -69.5t33 -54t46 -30t66 -12q39 0 68 11.5t48 30.5t33.5 54t23 69.5t19.5 90.5l80 422h265l-91 -471q-12 -59 -24 -103.5t-36.5 -99t-55.5 -94t-82 -75t-115 -54.5v-561h-266v563q-64 19 -114 54t-81.5 74.5t-55.5 94t-36 98.5 t-24 103zM262 1706q0 59 40.5 100t98.5 41t99 -41t41 -100q0 -58 -40.5 -98.5t-99.5 -40.5t-99 40.5t-40 98.5zM637 1706q0 58 41.5 99.5t99.5 41.5q57 0 98.5 -41.5t41.5 -99.5t-41.5 -98.5t-98.5 -40.5q-59 0 -100 40.5t-41 98.5z" />
<glyph unicode="&#x2c6;" horiz-adv-x="974" d="M123 1366l364 299l365 -299l-125 -143l-240 211l-237 -211z" />
<glyph unicode="&#x2dc;" horiz-adv-x="960" d="M143 1337q17 35 32.5 59.5t42.5 56t64 48.5t80 17q47 0 94 -21t81 -42t51 -21q52 0 98 82l131 -109q-17 -34 -32.5 -59t-42.5 -56t-64 -48t-80 -17q-47 0 -93 21t-79.5 42t-50.5 21q-53 0 -99 -82z" />
<glyph unicode="&#x2000;" horiz-adv-x="1002" />
<glyph unicode="&#x2001;" horiz-adv-x="2005" />
<glyph unicode="&#x2002;" horiz-adv-x="1002" />
<glyph unicode="&#x2003;" horiz-adv-x="2005" />
<glyph unicode="&#x2004;" horiz-adv-x="668" />
<glyph unicode="&#x2005;" horiz-adv-x="501" />
<glyph unicode="&#x2006;" horiz-adv-x="334" />
<glyph unicode="&#x2007;" horiz-adv-x="334" />
<glyph unicode="&#x2008;" horiz-adv-x="250" />
<glyph unicode="&#x2009;" horiz-adv-x="401" />
<glyph unicode="&#x200a;" horiz-adv-x="111" />
<glyph unicode="&#x2010;" horiz-adv-x="956" d="M123 416v262h711v-262h-711z" />
<glyph unicode="&#x2011;" horiz-adv-x="956" d="M123 416v262h711v-262h-711z" />
<glyph unicode="&#x2012;" horiz-adv-x="956" d="M123 416v262h711v-262h-711z" />
<glyph unicode="&#x2013;" horiz-adv-x="1021" d="M0 424v252h1022v-252h-1022z" />
<glyph unicode="&#x2014;" horiz-adv-x="2048" d="M0 424v252h2048v-252h-2048z" />
<glyph unicode="&#x2018;" horiz-adv-x="538" d="M86 1057l160 416l200 -54l-67 -442q-17 -60 -70.5 -92t-113.5 -17q-62 17 -94 72.5t-15 116.5z" />
<glyph unicode="&#x2019;" horiz-adv-x="538" d="M86 922l68 442q17 60 70.5 92t113.5 17q62 -17 93.5 -72t14.5 -115l-159 -418z" />
<glyph unicode="&#x201a;" horiz-adv-x="538" d="M86 -244l68 441q17 61 70.5 92t113.5 16q62 -17 93.5 -71.5t14.5 -114.5l-159 -416z" />
<glyph unicode="&#x201c;" horiz-adv-x="948" d="M86 1055l160 418l200 -54l-67 -442q-17 -60 -70.5 -92t-113.5 -17q-62 17 -94 72t-15 115zM496 1057l159 416l201 -54l-68 -442q-17 -60 -70.5 -92t-113.5 -17q-62 17 -93.5 72.5t-14.5 116.5z" />
<glyph unicode="&#x201d;" horiz-adv-x="948" d="M86 922l68 442q17 60 70.5 92t113.5 17q62 -17 93.5 -72t14.5 -115l-159 -418zM496 922l67 442q17 60 71 92t114 17q62 -17 93.5 -72t14.5 -115l-160 -418z" />
<glyph unicode="&#x201e;" horiz-adv-x="948" d="M86 -244l68 441q17 61 70.5 92t113.5 16q62 -17 93.5 -71.5t14.5 -114.5l-159 -416zM496 -244l67 441q17 61 71 92t114 16q62 -17 93.5 -71.5t14.5 -114.5l-160 -416z" />
<glyph unicode="&#x2022;" horiz-adv-x="1007" d="M195 549q0 129 90.5 219t218.5 90t218.5 -90t90.5 -219q0 -127 -90.5 -217t-218.5 -90t-218.5 90t-90.5 217z" />
<glyph unicode="&#x2026;" horiz-adv-x="1886" d="M178 154q0 70 48 121t116 51q67 0 115.5 -51.5t48.5 -120.5q0 -70 -48 -120t-116 -50t-116 50t-48 120zM778 154q0 70 48 121t116 51t117 -51t49 -121q0 -69 -48.5 -119.5t-117.5 -50.5q-68 0 -116 50t-48 120zM1378 154q0 69 48.5 120.5t115.5 51.5q70 0 118 -51 t48 -121t-48 -120t-116 -50q-69 0 -117.5 49.5t-48.5 120.5z" />
<glyph unicode="&#x202f;" horiz-adv-x="401" />
<glyph unicode="&#x2039;" horiz-adv-x="925" d="M178 541l262 405h308l-263 -405l260 -400h-305z" />
<glyph unicode="&#x203a;" horiz-adv-x="925" d="M178 946h307l263 -405l-263 -400h-305l260 400z" />
<glyph unicode="&#x205f;" horiz-adv-x="501" />
<glyph unicode="&#x2122;" horiz-adv-x="1619" d="M184 1298v119h525v-119h-199v-540h-131v540h-195zM696 758l70 659h164l139 -403l133 403h176l58 -659h-129l-27 274l-16 174l-52 -174l-77 -215h-131l-78 215l-56 174l-12 -174l-27 -274h-135z" />
<glyph unicode="&#xe000;" horiz-adv-x="1116" d="M0 0v1116h1116v-1116h-1116z" />
<glyph unicode="&#xfb01;" horiz-adv-x="1341" d="M41 930v188h164v64q0 168 96.5 267t273.5 99q92 0 199 -39l-41 -221q-85 23 -158 23q-58 0 -84 -30.5t-26 -102.5v-60h258v-198h-258v-887q0 -12 -9.5 -22.5t-21.5 -10.5h-229v918zM838 930v188h385v-1085q0 -12 -9.5 -22.5t-21.5 -10.5h-229v920zM924 1421 q0 69 48.5 118.5t117.5 49.5q70 0 120 -49.5t50 -118.5t-49.5 -118.5t-118.5 -49.5q-70 0 -119 49.5t-49 118.5z" />
<glyph unicode="&#xfb02;" horiz-adv-x="1341" d="M41 930v188h164v64q0 168 96.5 267t273.5 99q92 0 199 -39l-41 -221q-85 23 -158 23q-58 0 -84 -30.5t-26 -102.5v-60h258v-198h-258v-887q0 -12 -9.5 -22.5t-21.5 -10.5h-229v918zM961 233v1297h262v-1266q0 -53 65 -65l-53 -217q-125 12 -199.5 79t-74.5 172z" />
</font>
</defs>
</svg>
