<?xml version="1.0" standalone="no"?>
<!DOCTYPE svg PUBLIC "-//W3C//DTD SVG 1.1//EN" "http://www.w3.org/Graphics/SVG/1.1/DTD/svg11.dtd" >
<svg xmlns="http://www.w3.org/2000/svg">
<metadata></metadata>
<defs>
<font id="swiss_721blackitalic" horiz-adv-x="1345" >
<font-face units-per-em="2048" ascent="1638" descent="-410" />
<missing-glyph horiz-adv-x="673" />
<glyph horiz-adv-x="2048" />
<glyph horiz-adv-x="2048" />
<glyph unicode="&#xd;" horiz-adv-x="681" />
<glyph unicode=" "  horiz-adv-x="673" />
<glyph unicode="&#x09;" horiz-adv-x="673" />
<glyph unicode="&#xa0;" horiz-adv-x="673" />
<glyph unicode="!" horiz-adv-x="768" d="M80 0l63 410h430l-61 -410h-432zM250 569l39 904h444l-241 -904h-242z" />
<glyph unicode="&#x22;" horiz-adv-x="757" d="M68 877v563h258v-563h-258zM430 877v563h260v-563h-260z" />
<glyph unicode="#" horiz-adv-x="1574" d="M-6 350l100 271h254l74 213h-258l98 270h258l129 366h289l-129 -366h227l129 366h289l-129 -366h256l-100 -270h-252l-76 -213h258l-100 -271h-254l-131 -366h-289l131 366h-227l-131 -366h-289l131 366h-258zM629 621h239l78 213h-239z" />
<glyph unicode="$" d="M20 467h351q10 -174 174 -211l51 342q-227 76 -334.5 180.5t-107.5 261.5q0 199 141 314.5t397 115.5h25l14 93h143l-14 -103q428 -57 447 -448h-332q0 180 -164 196l-45 -305q258 -80 378 -187.5t120 -271.5q0 -217 -150.5 -338.5t-427.5 -121.5q-8 0 -25.5 1t-25.5 1 l-25 -170h-141l27 174q-225 29 -349 152.5t-127 324.5zM489 1085q0 -51 38 -82.5t120 -56.5l41 268h-14q-184 0 -185 -129zM668 248h8q227 0 227 151q0 57 -45 93t-145 65z" />
<glyph unicode="%" horiz-adv-x="2086" d="M47 1032.5q0 188.5 128 316.5t317 128q182 0 313 -130t131 -315q0 -182 -131 -313t-313 -131q-188 0 -316.5 128t-128.5 316.5zM322 1032q0 -72 49 -120t121 -48q70 0 118.5 49.5t48.5 118.5q0 72 -49 121t-118.5 49t-119.5 -50t-50 -120zM530 -41l822 1518h202 l-821 -1518h-203zM1151 403.5q0 188.5 128 316.5t314 128q182 0 313.5 -130t131.5 -315q0 -182 -131 -313t-314 -131q-186 0 -314 128t-128 316.5zM1425 403.5q0 -71.5 48.5 -119.5t119.5 -48q70 0 120 49t50 118q0 72 -50 121t-119.5 49t-119 -49t-49.5 -120.5z" />
<glyph unicode="&#x26;" horiz-adv-x="1669" d="M61 418q0 305 381 463q-102 133 -102 268q0 158 126 258t335 100q231 0 373.5 -116.5t142.5 -292.5q0 -242 -301 -402l104 -145q59 45 103 111h374q-68 -199 -286 -381l188 -281h-440l-51 80q-199 -119 -439 -119q-238 0 -373 124t-135 333zM471 416q0 -57 36 -92t97 -35 q106 0 211 71l-166 248q-178 -76 -178 -192zM702 1128q0 -84 111 -176q162 68 162 168q0 57 -39 91t-107 34q-59 0 -93 -30.5t-34 -86.5z" />
<glyph unicode="'" horiz-adv-x="393" d="M68 877v563h258v-563h-258z" />
<glyph unicode="(" horiz-adv-x="843" d="M113 336q0 295 100 568.5t307 565.5h369q-389 -584 -389 -1232q0 -350 106 -660h-330q-164 346 -163 758z" />
<glyph unicode=")" horiz-adv-x="843" d="M-104 -422q389 584 389 1233q0 350 -107 659h330q164 -346 164 -757q0 -295 -100.5 -568.5t-307.5 -566.5h-368z" />
<glyph unicode="*" horiz-adv-x="1024" d="M90 1051l78 235l260 -90v277h238v-277l262 90l76 -237l-273 -72l191 -240l-205 -143l-170 246l-172 -246l-203 143l188 238z" />
<glyph unicode="+" horiz-adv-x="1705" d="M254 475v273h459v473h280v-473h459v-273h-459v-475h-280v475h-459z" />
<glyph unicode="," horiz-adv-x="673" d="M4 -352l27 186q170 0 198 166h-202l67 436h432l-65 -436q-55 -352 -457 -352z" />
<glyph unicode="-" horiz-adv-x="716" d="M53 356l56 383h514l-58 -383h-512z" />
<glyph unicode="." horiz-adv-x="673" d="M25 0l65 436h434l-67 -436h-432z" />
<glyph unicode="/" horiz-adv-x="692" d="M-12 -190l544 1701h185l-545 -1701h-184z" />
<glyph unicode="0" d="M45 621q0 387 207 643q176 217 471 217q279 0 429.5 -167t150.5 -476q0 -401 -187.5 -638t-499.5 -237q-270 0 -420.5 172.5t-150.5 485.5zM463 524q0 -233 164 -233q57 0 106 37t76 102q76 186 76 494q0 123 -38 181t-122 58q-123 0 -192.5 -167t-69.5 -472z" />
<glyph unicode="1" d="M231 852l45 291q176 14 291 82.5t193 210.5h325l-213 -1436h-417l127 891q-154 -39 -351 -39z" />
<glyph unicode="2" d="M29 0v12q0 231 112 359q109 121 324 270q35 25 93 64.5t85 59t69 50.5t59 50.5t38.5 46t29 52t7.5 54.5q0 66 -43 104.5t-119 38.5q-190 0 -197 -254h-378q10 272 170.5 423t437.5 151q256 0 401.5 -117t145.5 -311q0 -125 -52.5 -215t-169.5 -181q-47 -37 -212.5 -134 t-274.5 -173h672l-53 -350h-1145z" />
<glyph unicode="3" d="M53 479v15h396q2 -102 55 -158.5t143 -56.5q86 0 137.5 47t51.5 125q0 90 -61.5 128.5t-199.5 41.5l43 245h27q125 0 191.5 41t66.5 115q0 63 -44 100t-122 37q-164 0 -188 -147h-377q29 221 179.5 341t402.5 120q254 0 395 -110t141 -296q0 -236 -207 -338 q166 -90 166 -293q0 -219 -156.5 -346t-439.5 -127q-287 0 -443.5 135t-156.5 381z" />
<glyph unicode="4" d="M23 322l53 376l741 738h432l-119 -801h150l-47 -313h-150l-47 -322h-393l49 322h-669zM379 635h371l67 446z" />
<glyph unicode="5" d="M33 379l411 37q51 -129 187 -129q96 0 151.5 60.5t55.5 170.5q0 76 -52.5 127t-132.5 51q-104 0 -168 -88l-395 19l211 809h938l-68 -328h-606l-57 -221q106 72 264 71q217 0 346 -122.5t129 -325.5q0 -256 -171 -405.5t-466 -149.5q-231 0 -380.5 109.5t-196.5 314.5z " />
<glyph unicode="6" d="M70 578q0 426 188 662.5t518 236.5q236 0 375 -104t164 -294l-393 -32q-25 131 -162 131q-102 0 -166 -81t-74 -231q127 86 293 86q207 0 333 -123.5t126 -322.5q0 -252 -158 -397.5t-434 -145.5q-291 0 -450.5 162t-159.5 453zM487 442q0 -80 49.5 -127t135.5 -47 q92 0 145 59.5t53 164.5q0 80 -48 127t-134 47q-94 0 -147.5 -59.5t-53.5 -164.5z" />
<glyph unicode="7" d="M158 1098l51 338h1098l-47 -299q-473 -489 -533 -1137h-473q49 588 565 1098h-661z" />
<glyph unicode="8" d="M39 418q0 268 266 366q-158 94 -158 271q0 188 153 304t411 116q274 0 424.5 -116t150.5 -321q0 -242 -242 -315q221 -86 222 -307q0 -207 -163 -332t-454 -125q-285 0 -447.5 126t-162.5 333zM453 438q0 -80 52 -128t142 -48q96 0 150.5 51.5t54.5 141.5q0 82 -53.5 130 t-145.5 48q-94 0 -147 -52.5t-53 -142.5zM532 1016q0 -72 45.5 -114t122.5 -42q94 0 146.5 44t52.5 124q0 72 -50 114t-136 42q-82 0 -131.5 -45t-49.5 -123z" />
<glyph unicode="9" d="M37 358l391 33q25 -131 162 -131q102 0 165.5 81t73.5 230q-125 -86 -290 -86q-207 0 -333 124t-126 323q0 252 157.5 397.5t434.5 145.5q291 0 450.5 -162t159.5 -453q0 -430 -191.5 -665.5t-533.5 -235.5q-459 0 -520 399zM479 946q0 -80 49.5 -127t135.5 -47 q94 0 147 59.5t53 163.5q0 80 -49 127t-135 47q-92 0 -146.5 -59t-54.5 -164z" />
<glyph unicode=":" horiz-adv-x="720" d="M47 0l68 436h432l-68 -436h-432zM143 651l68 436h432l-68 -436h-432z" />
<glyph unicode=";" horiz-adv-x="720" d="M25 -352l26 186q170 0 199 166h-203l68 436h432l-68 -436q-55 -352 -454 -352zM152 651l67 436h432l-67 -436h-432z" />
<glyph unicode="&#x3c;" horiz-adv-x="1705" d="M264 471v281l1178 487v-301l-801 -328l801 -327v-299z" />
<glyph unicode="=" horiz-adv-x="1705" d="M254 240v272h1198v-272h-1198zM254 711v272h1198v-272h-1198z" />
<glyph unicode="&#x3e;" horiz-adv-x="1705" d="M264 -16v299l801 327l-801 328v301l1178 -487v-281z" />
<glyph unicode="?" horiz-adv-x="1284" d="M121 1053q6 221 160.5 350t412.5 129q256 0 400.5 -109.5t144.5 -292.5q0 -143 -66.5 -221t-220.5 -166q-88 -49 -123.5 -87t-35.5 -101v-4h-371q4 139 52 224t157 151q16 10 51 30.5t49 29.5t37 25.5t32 30t17 33t8 39.5q0 55 -34.5 86t-92.5 31q-160 0 -163 -178h-414z M309 0l68 436h432l-68 -436h-432z" />
<glyph unicode="@" horiz-adv-x="2048" d="M70 520q0 356 219 617q150 176 361.5 271t461.5 95q387 0 626.5 -206.5t239.5 -532.5q0 -354 -264 -557q-143 -113 -328 -113q-215 0 -233 154q-113 -152 -289 -152q-344 0 -344 350q0 248 144.5 412t355.5 164q151 0 221 -111l49 82h242l-156 -626q-4 -20 -4 -31 q0 -49 47 -49q125 0 229.5 140t104.5 333q0 233 -173 379.5t-464 146.5q-287 0 -491 -141q-154 -109 -238 -269.5t-84 -349.5q0 -295 198.5 -469t536.5 -174q322 0 586 187l115 -160q-322 -240 -723 -240q-387 0 -649 211q-297 238 -297 639zM801 440q0 -74 30.5 -112.5 t86.5 -38.5q72 0 128.5 54.5t79.5 150.5l48 194q-16 143 -134 143q-96 0 -167.5 -116.5t-71.5 -274.5z" />
<glyph unicode="A" horiz-adv-x="1445" d="M-117 0l721 1473h471l295 -1473h-444l-23 176h-469l-74 -176h-477zM551 473h303l-78 545z" />
<glyph unicode="B" horiz-adv-x="1527" d="M33 0l221 1473h612q297 0 435.5 -86.5t138.5 -286.5q0 -246 -201 -357q88 -39 136 -115.5t48 -178.5q0 -449 -587 -449h-803zM537 342h231q111 0 163 35t52 117q0 72 -49 99.5t-154 27.5h-202zM614 883h193q104 0 152.5 32.5t48.5 110.5q0 72 -48.5 93.5t-162.5 21.5 h-140z" />
<glyph unicode="C" horiz-adv-x="1595" d="M76 668q0 342 211 587q223 258 598 258q303 0 473 -154.5t192 -447.5h-440q-2 115 -62.5 177.5t-164.5 62.5q-152 0 -247 -139.5t-95 -370.5q0 -315 239 -315q100 0 175 61t112 174h453q-49 -285 -242 -444.5t-483 -159.5q-334 0 -526.5 189.5t-192.5 521.5z" />
<glyph unicode="D" horiz-adv-x="1593" d="M33 0l219 1473h586q207 0 332.5 -45.5t224.5 -174.5q127 -166 127 -440q0 -393 -208 -603t-601 -210h-680zM553 365h109q98 0 159.5 14t110.5 61q51 47 86 148.5t35 222.5q0 168 -64.5 235.5t-220.5 67.5h-106z" />
<glyph unicode="E" horiz-adv-x="1384" d="M33 0l225 1473h1139l-54 -351h-679l-33 -202h604l-53 -328h-602l-31 -236h723l-51 -356h-1188z" />
<glyph unicode="F" horiz-adv-x="1228" d="M33 0l223 1473h1036l-57 -361h-573l-37 -233h487l-55 -351h-484l-77 -528h-463z" />
<glyph unicode="G" horiz-adv-x="1628" d="M76 645q0 373 203 604q227 260 600 260q303 0 479 -141t205 -403h-437q-14 88 -78.5 136t-160.5 48q-156 0 -251 -141.5t-95 -376.5q0 -152 66.5 -230.5t193.5 -78.5q172 0 262 165h-203l49 304h641l-120 -791h-300l-10 111q-158 -152 -405 -152q-289 0 -464 188.5 t-175 497.5z" />
<glyph unicode="H" horiz-adv-x="1656" d="M33 0l221 1473h471l-82 -506h434l78 506h469l-217 -1473h-475l84 575h-432l-82 -575h-469z" />
<glyph unicode="I" horiz-adv-x="765" d="M35 0l223 1473h473l-223 -1473h-473z" />
<glyph unicode="J" horiz-adv-x="1280" d="M4 428q1 79 19 190h405l-10 -94q-6 -49 -6 -78q0 -124 100 -124h2q61 0 86 38.5t39 131.5l147 981h465l-149 -998q-25 -166 -68 -261t-139 -163q-129 -90 -371 -90q-248 0 -384 123t-136 344z" />
<glyph unicode="K" horiz-adv-x="1511" d="M33 0l225 1473h461l-74 -482l473 482h553l-629 -605l439 -868h-508l-264 553l-156 -150l-59 -403h-461z" />
<glyph unicode="L" horiz-adv-x="1251" d="M33 0l225 1473h471l-168 -1090h668l-55 -383h-1141z" />
<glyph unicode="M" horiz-adv-x="1937" d="M33 0l219 1473h573l99 -795q6 -55 6 -115q0 -43 -2 -65q16 111 47 178l352 797h578l-215 -1473h-418l198 1090q-37 -125 -69 -207l-375 -883h-324l-114 891q-8 70 -8 199l-125 -1090h-422z" />
<glyph unicode="N" horiz-adv-x="1656" d="M33 0l221 1473h430l342 -752q35 -80 39 -174q0 104 10 176l113 750h438l-225 -1473h-434l-349 766q-18 47 -30 160v-41q0 -72 -8 -127l-111 -758h-436z" />
<glyph unicode="O" horiz-adv-x="1681" d="M74 649q0 375 219 613q232 251 597 251h3q334 0 523.5 -185t189.5 -507q0 -371 -209 -598q-238 -262 -611 -262q-330 0 -521 186.5t-191 501.5zM541 641q0 -154 65.5 -232.5t188.5 -78.5q154 0 249 144t95 390q0 133 -67.5 209t-186.5 76q-152 0 -248 -139.5t-96 -368.5z " />
<glyph unicode="P" horiz-adv-x="1476" d="M33 0l221 1473h606q309 0 458.5 -112t149.5 -347q0 -539 -645 -539h-258l-67 -475h-465zM610 823h164q129 0 187.5 36t58.5 130q0 72 -49 104.5t-152 32.5h-160z" />
<glyph unicode="Q" horiz-adv-x="1681" d="M76 672q0 348 217 588q230 253 599 253h3q332 0 522.5 -187t190.5 -507q0 -397 -262 -653l153 -193l-233 -186l-179 227q-160 -57 -284 -57q-346 0 -536.5 187.5t-190.5 527.5zM530 641q0 -154 70 -236.5t195 -82.5q33 0 47 2l-144 184l234 186l145 -186q78 145 78 340 q0 150 -68.5 229.5t-197.5 79.5q-158 0 -258.5 -142.5t-100.5 -373.5z" />
<glyph unicode="R" horiz-adv-x="1517" d="M33 0l219 1473h682q283 0 416 -94.5t133 -301.5q0 -299 -281 -418q98 -39 140 -98t42 -158q0 -43 -6 -94l-16 -149q-4 -33 -4 -49q0 -57 45 -72v-39h-498q-6 29 -6 66q0 27 6 81l21 148q4 25 4 65q0 96 -55.5 133t-186.5 37h-121l-80 -530h-454zM612 844h224 q206 0 206 150q0 69 -45 98.5t-143 29.5h-199z" />
<glyph unicode="S" horiz-adv-x="1449" d="M20 469h457v-4q0 -82 56.5 -125t162.5 -43q160 0 160 119q0 18 -5 32.5t-18.5 29t-25.5 23.5t-39 22.5t-45 21.5t-57 24.5t-64 26.5q-238 104 -341 204.5t-103 264.5q0 209 154.5 327.5t435 118.5t443.5 -125.5t179 -351.5h-440q-18 147 -191 148q-59 0 -96 -29t-37 -72 q0 -25 12.5 -43t48 -39.5t66.5 -35t108 -45t128 -54.5q176 -78 261 -181t85 -249q0 -221 -165 -347t-468 -126q-315 0 -488.5 135t-173.5 373z" />
<glyph unicode="T" horiz-adv-x="1257" d="M14 1098l62 375h1286l-64 -375h-399l-160 -1098h-469l162 1098h-418z" />
<glyph unicode="U" horiz-adv-x="1656" d="M113 526q0 61 14 162l123 785h467l-133 -873q-6 -35 -6 -68q0 -100 50 -152t146 -52q125 0 178.5 59t75.5 207l135 879h463l-135 -898q-47 -324 -215 -470t-500 -146q-324 0 -493.5 145.5t-169.5 421.5z" />
<glyph unicode="V" horiz-adv-x="1355" d="M68 1473h452l96 -857q6 -51 7 -104q0 -25 -5 -78q20 119 39 168l338 871h488l-676 -1473h-467z" />
<glyph unicode="W" horiz-adv-x="1804" d="M92 1473h424v-773q0 -82 -12 -163q18 109 37 155l272 781h367l10 -764q0 -68 -8 -166q16 86 35 151l251 779h443l-553 -1473h-440l-29 741v21q0 43 10 129q-20 -90 -35 -141l-248 -750h-438z" />
<glyph unicode="X" horiz-adv-x="1431" d="M-94 0l549 772l-363 701h486l137 -330q18 -45 18 -111q0 59 29 107l205 334h530l-524 -715l424 -758h-510l-170 365q-18 41 -19 110q-8 -70 -28 -106l-219 -369h-545z" />
<glyph unicode="Y" horiz-adv-x="1359" d="M-6 1473h504l159 -467q14 -51 15 -113v-21q10 90 30 125l256 476h537l-610 -936l-78 -537h-469l76 539z" />
<glyph unicode="Z" horiz-adv-x="1355" d="M-35 0l51 358l691 752h-625l53 363h1200l-57 -345l-680 -747h680l-55 -381h-1258z" />
<glyph unicode="[" horiz-adv-x="884" d="M57 -426l281 1899h616l-45 -308h-241l-183 -1288h232l-41 -303h-619z" />
<glyph unicode="\" horiz-adv-x="692" d="M160 1511h184l180 -1701h-182z" />
<glyph unicode="]" horiz-adv-x="884" d="M-123 -426l43 305h244l182 1288h-231l39 306h620l-280 -1899h-617z" />
<glyph unicode="^" horiz-adv-x="2048" d="M412 897l442 565h338l442 -565h-303l-307 309l-309 -309h-303z" />
<glyph unicode="_" horiz-adv-x="1024" d="M0 -201h1024v-282h-1024v282z" />
<glyph unicode="`" horiz-adv-x="1024" d="M295 1587h272l164 -370h-141z" />
<glyph unicode="a" horiz-adv-x="1327" d="M-4 268q0 193 127 283t409 119q184 18 213 28q55 20 56 78q0 43 -36 67.5t-101 24.5q-137 0 -150 -110h-405q51 366 584 366h3q254 0 384 -88t130 -254q0 -61 -16 -161l-61 -394q-10 -66 -11 -90q0 -66 37 -108v-29h-416l-14 102q-176 -137 -377 -137q-164 0 -260 84 t-96 219zM422 313q0 -41 29.5 -65.5t80.5 -24.5q100 0 162 68.5t68 193.5q-61 -20 -141 -37.5t-114 -26.5t-59.5 -35t-25.5 -73z" />
<glyph unicode="b" horiz-adv-x="1382" d="M14 0l215 1473h418l-80 -486q113 135 293 135q193 0 305.5 -129t112.5 -354q0 -305 -143.5 -489.5t-372.5 -184.5q-254 0 -352 187l-23 -152h-373zM506 498q0 -96 43 -150.5t119 -54.5q88 0 148.5 87t60.5 224q0 201 -162 201q-90 0 -149.5 -85t-59.5 -222z" />
<glyph unicode="c" horiz-adv-x="1306" d="M29 481q0 291 172 467t461 176q262 0 409.5 -117.5t151.5 -328.5h-406q-4 153 -149 153h-2q-98 0 -155.5 -95t-57.5 -263q0 -215 163 -215q68 0 116.5 45t60.5 119h411q-45 -223 -197.5 -341t-396.5 -118q-272 0 -426.5 141.5t-154.5 376.5z" />
<glyph unicode="d" horiz-adv-x="1382" d="M37 481q0 276 148.5 459.5t363.5 183.5q205 0 321 -157l74 506h416l-201 -1473h-373l15 141q-129 -174 -342 -174q-190 0 -306 138.5t-116 375.5zM451 483q0 -98 42 -151t117 -53q94 0 155.5 86t61.5 229q0 98 -42.5 150.5t-122.5 52.5q-90 0 -150.5 -88t-60.5 -226z" />
<glyph unicode="e" horiz-adv-x="1355" d="M31 475q0 299 174 475t463 176q287 0 437 -145t150 -424q0 -51 -6 -106h-792v-19q0 -203 188 -203q131 0 160 88h407q-53 -172 -204.5 -264t-384.5 -92q-276 0 -434 139.5t-158 374.5zM475 666h375q-2 94 -47 146t-127 52q-80 0 -133.5 -52t-67.5 -146z" />
<glyph unicode="f" horiz-adv-x="768" d="M35 846l35 241h149q29 244 128 338.5t329 94.5q100 0 194 -17l-39 -256q-23 4 -63 4q-70 0 -100.5 -36.5t-38.5 -127.5h180l-35 -241h-182l-121 -846h-408l123 846h-151z" />
<glyph unicode="g" horiz-adv-x="1355" d="M-4 -125h412q23 -74 125 -74t147 76t63 254q-123 -121 -286 -121q-201 0 -312.5 123t-111.5 346q0 279 146.5 462t371.5 183q227 0 348 -186l21 149h364l-131 -966q-41 -299 -158 -416q-150 -147 -479 -147q-244 0 -379 83.5t-141 233.5zM451 510q0 -88 45 -138t122 -50 q94 0 149.5 75.5t55.5 210.5q0 96 -46 147.5t-132 51.5q-88 0 -141 -79t-53 -218z" />
<glyph unicode="h" horiz-adv-x="1376" d="M14 0l213 1473h418l-76 -510q136 155 324 155h2q168 0 263 -94t95 -262q0 -74 -6 -113l-86 -649h-422l76 563q10 82 10 90q0 135 -127 135q-82 0 -127 -51t-61 -159l-82 -578h-414z" />
<glyph unicode="i" horiz-adv-x="649" d="M8 0l158 1087h420l-158 -1087h-420zM176 1208l45 301h420l-41 -301h-424z" />
<glyph unicode="j" horiz-adv-x="657" d="M-203 -418l35 299q10 0 25.5 -1t21.5 -1q82 0 108.5 23.5t37.5 101.5l147 1083h418l-156 -1124q-20 -141 -59 -222t-119 -120q-94 -47 -272 -47q-52 0 -187 8zM188 1206l41 303h418l-41 -303h-418z" />
<glyph unicode="k" horiz-adv-x="1288" d="M14 0l215 1473h420l-110 -736l315 350h483l-444 -423l303 -664h-451l-155 403l-119 -116l-43 -287h-414z" />
<glyph unicode="l" horiz-adv-x="645" d="M12 0l201 1473h418l-199 -1473h-420z" />
<glyph unicode="m" horiz-adv-x="1992" d="M8 0l162 1087h379l-23 -141q150 176 351 176q225 0 282 -198q161 198 373 198h2q160 0 253 -91t93 -247q0 -47 -12 -143l-88 -641h-410l84 606q6 39 6 78q0 102 -110 102q-74 0 -111 -48t-53 -150l-88 -588h-408l84 610q6 41 6 70q0 106 -118 106q-68 0 -104 -45 t-52 -145l-90 -596h-408z" />
<glyph unicode="n" horiz-adv-x="1372" d="M8 0l160 1087h383l-19 -143q156 174 365 174q166 0 262 -94t96 -254q0 -61 -12 -143l-86 -627h-420l84 614q6 39 6 56q0 55 -35.5 89t-97.5 34q-154 0 -184 -213l-82 -580h-420z" />
<glyph unicode="o" d="M29 489q0 291 178 465t475 174q270 0 425 -142t155 -382q0 -301 -172 -472t-476 -171q-274 0 -429.5 143t-155.5 385zM459 473q0 -211 162 -211q96 0 153 94.5t57 258.5q0 219 -159 219q-100 0 -156.5 -93.5t-56.5 -267.5z" />
<glyph unicode="p" horiz-adv-x="1386" d="M-43 -422l213 1509h379l-17 -129q129 168 334 168q201 0 315.5 -134t114.5 -371q0 -295 -144 -478.5t-366 -183.5q-233 0 -333 170l-78 -551h-418zM502 489q0 -92 43 -143t121 -51q94 0 150 88t56 242q0 190 -155 190q-96 0 -155.5 -87t-59.5 -239z" />
<glyph unicode="q" horiz-adv-x="1386" d="M37 469q0 289 146.5 475t367.5 186q233 0 367 -186l24 143h381l-223 -1509h-422l76 510q-117 -129 -297 -129q-195 0 -307.5 135t-112.5 375zM459 485q0 -206 160 -206h2q96 0 153 87t57 238q0 92 -42.5 144.5t-116.5 52.5q-94 0 -153.5 -87t-59.5 -229z" />
<glyph unicode="r" horiz-adv-x="870" d="M14 0l154 1087h385l-23 -157q125 190 310 190q16 0 53 -4l-59 -416q-86 8 -97 9q-123 0 -175 -67t-75 -226l-59 -416h-414z" />
<glyph unicode="s" horiz-adv-x="1224" d="M12 352v8h402q4 -155 143 -155h2q57 0 93 26.5t36 65.5q0 68 -131 113q-86 31 -118.5 43t-96 38.5t-88.5 43t-63.5 45t-52 55.5t-26 63.5t-12.5 81.5q0 166 133.5 255t387.5 89q242 0 372.5 -88t141.5 -256h-383v8q0 51 -37 80t-101 29q-112 0 -112 -79q0 -40 36.5 -64.5 t127.5 -53.5q25 -8 91 -27.5t111 -37t86 -39.5q70 -39 110 -104.5t40 -137.5q0 -184 -139.5 -286.5t-397.5 -102.5q-264 0 -409.5 102.5t-145.5 284.5z" />
<glyph unicode="t" horiz-adv-x="755" d="M0 846l37 241h153l48 334h407l-49 -334h166l-35 -241h-166l-61 -420q-2 -10 -2 -31q0 -45 27.5 -63.5t90.5 -18.5q33 0 52 2l-45 -313q-125 -16 -234 -16q-152 0 -234.5 66.5t-82.5 185.5q0 45 12 120l70 488h-154z" />
<glyph unicode="u" horiz-adv-x="1372" d="M61 338q0 47 7 96l94 653h420l-84 -581q-6 -37 -6 -76q0 -61 35.5 -95t99.5 -34q78 0 121 47t59 148l88 591h418l-158 -1087h-381l14 147q-145 -180 -364 -180q-170 0 -266.5 98.5t-96.5 272.5z" />
<glyph unicode="v" horiz-adv-x="1161" d="M20 1087h402l80 -684l291 684h421l-526 -1087h-471z" />
<glyph unicode="w" horiz-adv-x="1802" d="M27 1087h395l57 -636l262 636h365l74 -630l243 630h410l-465 -1087h-424l-80 653l-252 -653h-417z" />
<glyph unicode="x" horiz-adv-x="1142" d="M-106 0l395 571l-269 516h437l92 -280l156 280h479l-391 -507l301 -580h-445l-119 330l-172 -330h-464z" />
<glyph unicode="y" horiz-adv-x="1165" d="M-47 -422l41 295q92 -10 123 -10q121 0 121 114q0 51 -13 107l-205 1003h404l88 -684l283 684h424l-588 -1208q-84 -172 -184.5 -245.5t-268.5 -73.5q-78 0 -225 18z" />
<glyph unicode="z" horiz-adv-x="1185" d="M-10 0l41 285l563 510h-508l41 292h989l-41 -286l-551 -500h551l-45 -301h-1040z" />
<glyph unicode="{" horiz-adv-x="1024" d="M145 389v283q6 0 18.5 -1t16.5 -1q113 0 159 53t46 178v258q0 117 20.5 177.5t88.5 95.5q90 45 331 45h80v-285q-8 0 -22.5 1t-20.5 1q-92 0 -119.5 -32t-27.5 -126v-239q0 -129 -44 -186.5t-173 -80.5q129 -25 173 -81t44 -183v-241q0 -92 27.5 -124t117.5 -32 q6 0 21.5 1t23.5 1v-285h-80q-244 0 -331 45q-68 35 -88.5 94.5t-20.5 176.5v258q0 125 -46 178t-159 53q-4 0 -16 -1t-19 -1z" />
<glyph unicode="|" horiz-adv-x="1024" d="M373 -483v2048h280v-2048h-280z" />
<glyph unicode="}" horiz-adv-x="1024" d="M121 -131h43q92 0 119.5 31.5t27.5 124.5v241q0 127 44 183.5t173 80.5q-129 23 -173 80.5t-44 184.5v241q0 94 -27.5 126t-119.5 32q-6 0 -20.5 -1t-22.5 -1v285h80q242 0 329 -45q68 -35 89.5 -96.5t21.5 -176.5v-258q0 -125 46 -178t159 -53q4 0 16 1t19 1v-283 q-6 0 -18.5 1t-16.5 1q-113 0 -159 -53t-46 -178v-258q0 -115 -21.5 -176.5t-89.5 -96.5q-86 -43 -315 -43h-94v283z" />
<glyph unicode="~" horiz-adv-x="1705" d="M178 379v299q225 143 408 143q113 0 278 -53q20 -6 71.5 -24.5t78 -26.5t69.5 -16.5t80 -8.5q168 0 367 150v-299q-199 -133 -371 -133q-102 0 -266 57q-205 70 -332 70q-162 0 -383 -158z" />
<glyph unicode="&#xa1;" horiz-adv-x="768" d="M80 0l239 903h244l-39 -903h-444zM240 1063l61 410h432l-63 -410h-430z" />
<glyph unicode="&#xa2;" d="M63 502q0 276 174.5 451t452.5 175q63 0 197 -20l98 207h156l-121 -254q231 -117 237 -379h-428l-202 -424q29 -4 37 -4q66 0 113.5 47t60.5 125h401q-43 -219 -195.5 -340t-384.5 -121q-53 0 -159 15l-125 -265h-158l145 301q-143 63 -221 191.5t-78 294.5zM471 471 q0 -109 41 -158l250 518q-43 16 -74 17q-94 0 -155.5 -102.5t-61.5 -274.5z" />
<glyph unicode="&#xa3;" d="M59 338q186 123 187 270q0 12 -4 45h-170l24 170h121q-20 133 -20 205q0 201 147.5 326t388.5 125q281 0 426.5 -123t145.5 -359v-36h-379q0 6 1 16t1 14q0 170 -160 170q-152 0 -152 -164q0 -18 19 -174h254l-23 -170h-223v-6q0 -72 -42 -128t-136 -122q88 16 137 17 q68 0 187.5 -37t177.5 -37q139 0 254 74l-58 -371q-131 -80 -258 -80q-41 0 -85 9.5t-65.5 16.5t-72.5 27.5t-59 24.5q-106 43 -185 43q-139 0 -278 -104z" />
<glyph unicode="&#xa4;" d="M-49 559l57 119h121q2 43 10 115h-145l53 116h117q45 170 149 318q186 254 500 254q240 0 384 -123t169 -375h-395q-20 180 -150 180q-168 0 -237 -254h434l-55 -116h-400q0 -4 -12 -115h358l-53 -119h-307v-8q0 -119 42 -189.5t122 -70.5q150 0 196 176h416 q-57 -248 -225 -376t-398 -128q-250 0 -401 158t-170 438h-180z" />
<glyph unicode="&#xa5;" horiz-adv-x="1427" d="M6 506l27 184h393l-57 129h-318l25 185h207l-195 432h436l181 -469q14 -39 14 -111v-25q10 86 33 125l278 480h465l-285 -432h220l-25 -185h-318l-88 -129h387l-26 -184h-465l-72 -506h-401l72 506h-488z" />
<glyph unicode="&#xa6;" horiz-adv-x="1024" d="M373 -350v758h280v-758h-280zM373 674v758h280v-758h-280z" />
<glyph unicode="&#xa7;" horiz-adv-x="1024" d="M8 156v6h301v-8q0 -150 129 -150q109 0 109 84q0 33 -21.5 60.5t-46 44t-88.5 55.5l-149 92q-225 133 -226 344q0 193 224 285q-68 92 -68 190q0 145 108.5 238.5t297.5 93.5q197 0 308 -94t111 -258v-25h-297q-6 145 -127 146q-43 0 -69.5 -25t-26.5 -61q0 -59 107 -127 l207 -127q190 -117 190 -297q0 -221 -223 -304q96 -94 96 -219q0 -156 -110.5 -243.5t-317.5 -87.5q-418 0 -418 387zM301 713q0 -51 66 -95l221 -141q106 29 106 101q0 29 -27.5 55t-91.5 69l-174 117q-100 -39 -100 -106z" />
<glyph unicode="&#xa8;" horiz-adv-x="1024" d="M281 1266l36 270h252l-39 -270h-249zM643 1266l39 270h250l-39 -270h-250z" />
<glyph unicode="&#xa9;" horiz-adv-x="1705" d="M102 741q0 309 224 537q211 215 526 215q317 0 537 -219q217 -217 217 -532.5t-217 -526.5q-229 -225 -537 -225q-305 0 -528 223q-221 221 -222 528zM256 743q0 -246 176 -422t422 -176q244 0 426 179q172 167 172 419q0 248 -174 422q-176 176 -424 176 q-252 0 -420 -172q-178 -182 -178 -426zM440 737q0 203 112 325t288 122q178 0 279.5 -80t109.5 -221h-242q-4 63 -39 99t-92 36q-72 0 -114 -70.5t-42 -202.5q0 -262 164 -262q121 0 127 144h248q-6 -150 -109.5 -238t-271.5 -88q-195 0 -306.5 115.5t-111.5 320.5z" />
<glyph unicode="&#xaa;" horiz-adv-x="995" d="M-4 899q0 135 95 197.5t308 83.5q150 14 172 24q29 14 29 49q0 66 -102 66q-104 0 -113 -78h-303q39 256 440 256q385 0 385 -240q0 -49 -12 -112l-45 -275q-8 -57 -8 -63q0 -47 28 -76v-20h-313l-10 71q-129 -96 -283 -96q-123 0 -195.5 59.5t-72.5 153.5zM317 930 q0 -29 22.5 -46.5t59.5 -17.5q76 0 122 48.5t50 136.5q-41 -12 -88 -22.5t-72.5 -16.5t-50 -15.5t-34 -25t-9.5 -41.5z" />
<glyph unicode="&#xab;" horiz-adv-x="1048" d="M23 391l45 305l415 246l-41 -280l-225 -134l184 -131l-36 -254zM539 391l47 305l413 246l-41 -280l-223 -134l185 -131l-39 -254z" />
<glyph unicode="&#xac;" horiz-adv-x="1705" d="M254 602v266h1198v-501h-272v235h-926z" />
<glyph unicode="&#xad;" horiz-adv-x="716" d="M53 356l56 383h514l-58 -383h-512z" />
<glyph unicode="&#xae;" horiz-adv-x="1705" d="M102 741q0 309 224 537q211 215 526 215q317 0 537 -219q217 -217 217 -532.5t-217 -526.5q-229 -225 -537 -225q-305 0 -528 223q-221 221 -222 528zM256 743q0 -246 176 -422t422 -176q244 0 426 179q172 167 172 419q0 248 -174 422q-176 176 -424 176 q-252 0 -420 -172q-178 -182 -178 -426zM528 352v813h334q176 0 266.5 -61.5t90.5 -177.5q0 -162 -164 -219l178 -355h-279l-145 312h-25v-312h-256zM784 813h54q119 0 118 98q0 95 -133 95h-39v-193z" />
<glyph unicode="&#xaf;" horiz-adv-x="1024" d="M289 1317l24 168h613l-25 -168h-612z" />
<glyph unicode="&#xb0;" horiz-adv-x="673" d="M14 1149q0 135 95.5 229.5t228.5 94.5t227 -94.5t94 -229.5q0 -131 -94 -226.5t-229 -95.5q-133 0 -227.5 93.5t-94.5 228.5zM186 1150.5q0 -63.5 44 -108.5t108 -45q61 0 106 46.5t45 107.5t-45 106.5t-108 45.5q-61 0 -105.5 -44.5t-44.5 -108z" />
<glyph unicode="&#xb1;" horiz-adv-x="1705" d="M254 -41v272h1198v-272h-1198zM254 680v272h459v310h280v-310h459v-272h-459v-309h-280v309h-459z" />
<glyph unicode="&#xb2;" horiz-adv-x="888" d="M18 578v8q0 137 76 215q76 76 213 162q23 14 62 38.5t56 36t45 29.5t40 30.5t25.5 28t18.5 30.5t5 32q0 39 -29.5 62.5t-78.5 23.5q-127 0 -129 -152h-250q8 164 113.5 254t287.5 90q170 0 265.5 -70.5t95.5 -187.5q0 -76 -35 -129t-111 -106q-33 -23 -141.5 -81 t-179.5 -104h442l-35 -210h-756z" />
<glyph unicode="&#xb3;" horiz-adv-x="888" d="M35 864v10h262q4 -129 131 -129q57 0 90 28t33 75q0 55 -40 77.5t-132 24.5l29 148h18q170 0 170 92q0 39 -28.5 61.5t-80.5 22.5q-111 0 -125 -90h-249q18 133 118.5 204.5t266.5 71.5q168 0 261 -64.5t93 -176.5q0 -143 -137 -203q111 -55 110 -176q0 -131 -103.5 -208 t-289.5 -77q-190 0 -293.5 81t-103.5 228z" />
<glyph unicode="&#xb4;" horiz-adv-x="1024" d="M379 1217l231 370h312l-392 -370h-151z" />
<glyph unicode="&#xb6;" horiz-adv-x="1024" d="M10 1130q0 156 105.5 252.5t283.5 96.5h615v-142h-101v-1337h-202v1337h-140v-1337h-202v784q-164 8 -261.5 103.5t-97.5 242.5z" />
<glyph unicode="&#xb7;" horiz-adv-x="673" d="M92 725q0 102 70.5 173t173.5 71q100 0 172 -72t72 -172t-72 -172t-172 -72q-102 0 -173 71t-71 173z" />
<glyph unicode="&#xb8;" horiz-adv-x="1024" d="M113 -438l51 133q131 -53 235 -53q45 0 71 20.5t26 54.5q0 37 -37 52.5t-121 15.5h-41l74 215h114l-32 -92q233 -2 233 -174q0 -109 -71.5 -170.5t-206.5 -61.5q-105 1 -295 60z" />
<glyph unicode="&#xb9;" horiz-adv-x="888" d="M152 1090l30 174q223 14 318 176h215l-140 -862h-276l84 534q-96 -23 -231 -22z" />
<glyph unicode="&#xba;" horiz-adv-x="1009" d="M23 1053q0 205 133 326.5t356 121.5q203 0 318.5 -100.5t115.5 -267.5q0 -209 -129 -329t-356 -120q-205 0 -321.5 100.5t-116.5 268.5zM344 1042q0 -147 121 -147q74 0 117 65.5t43 178.5q0 155 -121 155q-76 0 -118 -65.5t-42 -186.5z" />
<glyph unicode="&#xbb;" horiz-adv-x="1048" d="M-6 143l39 281l225 135l-184 131l39 254l340 -248l-45 -305zM510 143l41 281l223 135l-184 131l39 254l342 -248l-47 -305z" />
<glyph unicode="&#xbc;" horiz-adv-x="2037" d="M145 1112l29 162q215 18 305 166h205l-135 -805h-262l80 500q-90 -23 -222 -23zM506 -41l821 1518h203l-821 -1518h-203zM1204 180l33 211l467 414h272l-73 -449h94l-31 -176h-94l-29 -180h-248l31 180h-422zM1430 356h233l41 250z" />
<glyph unicode="&#xbd;" horiz-adv-x="2037" d="M145 1112l29 162q215 18 305 166h205l-135 -805h-262l80 500q-90 -23 -222 -23zM506 -41l821 1518h203l-821 -1518h-203zM1208 0v6q0 131 70 201q63 63 205 151q23 14 59.5 37t53 33t42 27.5t38 29t24.5 25.5t17 28.5t5 30.5q0 37 -26.5 59.5t-75.5 22.5 q-121 0 -123 -143h-240q8 154 108.5 237.5t274.5 83.5q162 0 254.5 -65.5t92.5 -173.5q0 -72 -34 -122t-106 -99q-31 -23 -135 -77t-172 -95h422l-33 -197h-721z" />
<glyph unicode="&#xbe;" horiz-adv-x="2037" d="M33 903v8h250q2 -57 35.5 -88.5t89 -31.5t87 26.5t31.5 69.5q0 51 -38.5 72.5t-125.5 23.5l27 137h17q164 0 163 86q0 35 -27.5 56.5t-76.5 21.5q-104 0 -119 -82h-237q16 123 112 190.5t254 67.5q160 0 249 -61.5t89 -165.5q0 -131 -131 -191q104 -47 104 -163 q0 -123 -98 -194t-276 -71q-180 0 -279.5 76t-99.5 213zM506 -41l821 1518h203l-821 -1518h-203zM1204 180l33 211l467 414h272l-73 -449h94l-31 -176h-94l-29 -180h-248l31 180h-422zM1430 356h233l41 250z" />
<glyph unicode="&#xbf;" horiz-adv-x="1284" d="M39 342q0 143 65.5 219t221.5 166q86 47 121.5 87t35.5 104v4h371q-4 -139 -52 -225.5t-157 -151.5q-14 -8 -59 -35t-58.5 -36t-37 -29.5t-30.5 -41t-7 -45.5q0 -55 33.5 -85.5t91.5 -30.5q160 0 163 178h416q-6 -221 -161.5 -351t-413.5 -130q-254 0 -398.5 110.5 t-144.5 292.5zM467 1036l68 437h432l-66 -437h-434z" />
<glyph unicode="&#xc0;" horiz-adv-x="1445" d="M-117 0l721 1473h471l295 -1473h-444l-23 176h-469l-74 -176h-477zM551 473h303l-78 545zM582 1972h272l164 -370h-141z" />
<glyph unicode="&#xc1;" horiz-adv-x="1445" d="M-117 0l721 1473h471l295 -1473h-444l-23 176h-469l-74 -176h-477zM551 473h303l-78 545zM666 1602l231 370h312l-392 -370h-151z" />
<glyph unicode="&#xc2;" horiz-adv-x="1445" d="M-117 0l721 1473h471l295 -1473h-444l-23 176h-469l-74 -176h-477zM525 1602l260 370h254l125 -370h-140l-127 198l-221 -198h-151zM551 473h303l-78 545z" />
<glyph unicode="&#xc3;" horiz-adv-x="1445" d="M-117 0l721 1473h471l295 -1473h-444l-23 176h-469l-74 -176h-477zM551 473h303l-78 545zM559 1634q61 262 236 262q39 0 92 -16l64 -22q31 -10 53 -11q76 0 104 92h119q-35 -133 -90 -196.5t-143 -63.5q-33 0 -89 19l-63 20q-35 10 -63 10q-80 0 -101 -94h-119z" />
<glyph unicode="&#xc4;" horiz-adv-x="1445" d="M-117 0l721 1473h471l295 -1473h-444l-23 176h-469l-74 -176h-477zM551 473h303l-78 545zM568 1651l36 270h252l-39 -270h-249zM930 1651l39 270h250l-39 -270h-250z" />
<glyph unicode="&#xc5;" horiz-adv-x="1445" d="M-117 0l701 1401h495l291 -1401h-444l-23 176h-469l-74 -176h-477zM551 473h303l-78 545zM594 1708q0 111 75.5 186.5t186.5 75.5q109 0 185.5 -76.5t76.5 -185.5q0 -111 -75.5 -185.5t-186.5 -74.5t-186.5 74.5t-75.5 185.5zM745 1708q0 -47 32 -78t79 -31t79 32t32 77 t-33 79t-78 34t-78 -33t-33 -80z" />
<glyph unicode="&#xc6;" horiz-adv-x="2052" d="M-117 0l819 1473h1442l-53 -351h-633l-33 -202h557l-53 -328h-555l-33 -236h678l-51 -356h-1130l28 176h-409l-82 -176h-492zM596 473h315l101 662h-115z" />
<glyph unicode="&#xc7;" horiz-adv-x="1595" d="M76 668q0 342 211 587q223 258 598 258q303 0 473 -154.5t192 -447.5h-440q-2 115 -62.5 177.5t-164.5 62.5q-152 0 -247 -139.5t-95 -370.5q0 -315 239 -315q100 0 175 61t112 174h453q-49 -285 -242 -444.5t-483 -159.5q-334 0 -526.5 189.5t-192.5 521.5zM441 -438 l51 133q131 -53 235 -53q45 0 71 20.5t26 54.5q0 37 -37 52.5t-121 15.5h-41l74 215h114l-32 -92q233 -2 233 -174q0 -109 -71.5 -170.5t-206.5 -61.5q-105 1 -295 60z" />
<glyph unicode="&#xc8;" horiz-adv-x="1384" d="M33 0l225 1473h1139l-54 -351h-679l-33 -202h604l-53 -328h-602l-31 -236h723l-51 -356h-1188zM588 1972h272l164 -370h-141z" />
<glyph unicode="&#xc9;" horiz-adv-x="1384" d="M33 0l225 1473h1139l-54 -351h-679l-33 -202h604l-53 -328h-602l-31 -236h723l-51 -356h-1188zM672 1602l231 370h312l-392 -370h-151z" />
<glyph unicode="&#xca;" horiz-adv-x="1384" d="M33 0l225 1473h1139l-54 -351h-679l-33 -202h604l-53 -328h-602l-31 -236h723l-51 -356h-1188zM531 1602l260 370h254l125 -370h-140l-127 198l-221 -198h-151z" />
<glyph unicode="&#xcb;" horiz-adv-x="1384" d="M33 0l225 1473h1139l-54 -351h-679l-33 -202h604l-53 -328h-602l-31 -236h723l-51 -356h-1188zM574 1651l36 270h252l-39 -270h-249zM936 1651l39 270h250l-39 -270h-250z" />
<glyph unicode="&#xcc;" horiz-adv-x="765" d="M35 0l223 1473h473l-223 -1473h-473zM250 1972h272l164 -370h-141z" />
<glyph unicode="&#xcd;" horiz-adv-x="765" d="M35 0l223 1473h473l-223 -1473h-473zM334 1602l231 370h312l-392 -370h-151z" />
<glyph unicode="&#xce;" horiz-adv-x="765" d="M35 0l223 1473h473l-223 -1473h-473zM193 1602l260 370h254l125 -370h-140l-127 198l-221 -198h-151z" />
<glyph unicode="&#xcf;" horiz-adv-x="765" d="M35 0l223 1473h473l-223 -1473h-473zM236 1651l36 270h252l-39 -270h-249zM598 1651l39 270h250l-39 -270h-250z" />
<glyph unicode="&#xd0;" horiz-adv-x="1601" d="M-12 651l35 236h151l86 586h588q207 0 332 -45.5t223 -174.5q127 -166 127 -440q0 -395 -207 -604t-600 -209h-682l98 651h-151zM563 365h109q98 0 158.5 14t109.5 61q51 47 87 148.5t36 222.5q0 168 -64.5 235.5t-220.5 67.5h-106l-33 -227h203l-35 -236h-203z" />
<glyph unicode="&#xd1;" horiz-adv-x="1656" d="M33 0l221 1473h430l342 -752q35 -80 39 -174q0 104 10 176l113 750h438l-225 -1473h-434l-349 766q-18 47 -30 160v-41q0 -72 -8 -127l-111 -758h-436zM671 1634q61 262 236 262q39 0 92 -16l64 -22q31 -10 53 -11q76 0 104 92h119q-35 -133 -90 -196.5t-143 -63.5 q-33 0 -89 19l-63 20q-35 10 -63 10q-80 0 -101 -94h-119z" />
<glyph unicode="&#xd2;" horiz-adv-x="1681" d="M74 649q0 375 219 613q233 252 600 251q334 0 523.5 -185t189.5 -507q0 -371 -209 -598q-238 -262 -611 -262q-330 0 -521 186.5t-191 501.5zM541 641q0 -154 65.5 -232.5t188.5 -78.5q154 0 249 144t95 390q0 133 -67.5 209t-186.5 76q-152 0 -248 -139.5t-96 -368.5z M674 1972h272l164 -370h-141z" />
<glyph unicode="&#xd3;" horiz-adv-x="1681" d="M74 649q0 375 219 613q233 252 600 251q334 0 523.5 -185t189.5 -507q0 -371 -209 -598q-238 -262 -611 -262q-330 0 -521 186.5t-191 501.5zM541 641q0 -154 65.5 -232.5t188.5 -78.5q154 0 249 144t95 390q0 133 -67.5 209t-186.5 76q-152 0 -248 -139.5t-96 -368.5z M758 1602l231 370h312l-392 -370h-151z" />
<glyph unicode="&#xd4;" horiz-adv-x="1681" d="M74 649q0 375 219 613q233 252 600 251q334 0 523.5 -185t189.5 -507q0 -371 -209 -598q-238 -262 -611 -262q-330 0 -521 186.5t-191 501.5zM541 641q0 -154 65.5 -232.5t188.5 -78.5q154 0 249 144t95 390q0 133 -67.5 209t-186.5 76q-152 0 -248 -139.5t-96 -368.5z M617 1602l260 370h254l125 -370h-140l-127 198l-221 -198h-151z" />
<glyph unicode="&#xd5;" horiz-adv-x="1681" d="M74 649q0 375 219 613q233 252 600 251q334 0 523.5 -185t189.5 -507q0 -371 -209 -598q-238 -262 -611 -262q-330 0 -521 186.5t-191 501.5zM541 641q0 -154 65.5 -232.5t188.5 -78.5q154 0 249 144t95 390q0 133 -67.5 209t-186.5 76q-152 0 -248 -139.5t-96 -368.5z M651 1634q61 262 236 262q39 0 92 -16l64 -22q31 -10 53 -11q76 0 104 92h119q-35 -133 -90 -196.5t-143 -63.5q-33 0 -89 19l-63 20q-35 10 -63 10q-80 0 -101 -94h-119z" />
<glyph unicode="&#xd6;" horiz-adv-x="1681" d="M74 649q0 375 219 613q233 252 600 251q334 0 523.5 -185t189.5 -507q0 -371 -209 -598q-238 -262 -611 -262q-330 0 -521 186.5t-191 501.5zM541 641q0 -154 65.5 -232.5t188.5 -78.5q154 0 249 144t95 390q0 133 -67.5 209t-186.5 76q-152 0 -248 -139.5t-96 -368.5z M660 1651l36 270h252l-39 -270h-249zM1022 1651l39 270h250l-39 -270h-250z" />
<glyph unicode="&#xd7;" horiz-adv-x="1705" d="M254 184l426 426l-426 426l195 195l425 -426l426 426l195 -195l-426 -426l426 -426l-195 -194l-426 426l-425 -426z" />
<glyph unicode="&#xd8;" horiz-adv-x="1681" d="M74 649q0 369 219 611q229 252 602 251q227 0 399 -94l129 158l133 -107l-131 -153q180 -193 181 -512q0 -346 -211 -586q-227 -258 -637 -258q-221 0 -379 98l-150 -176l-127 109l146 172q-174 174 -174 487zM530 635q1 -59 19 -137l502 606q-70 55 -168 55 q-154 0 -253.5 -144.5t-99.5 -379.5zM625 373q53 -57 168 -58q154 0 254 143.5t100 379.5q0 73 -14 143z" />
<glyph unicode="&#xd9;" horiz-adv-x="1656" d="M113 526q0 61 14 162l123 785h467l-133 -873q-6 -35 -6 -68q0 -100 50 -152t146 -52q125 0 178.5 59t75.5 207l135 879h463l-135 -898q-47 -324 -215 -470t-500 -146q-324 0 -493.5 145.5t-169.5 421.5zM694 1972h272l164 -370h-141z" />
<glyph unicode="&#xda;" horiz-adv-x="1656" d="M113 526q0 61 14 162l123 785h467l-133 -873q-6 -35 -6 -68q0 -100 50 -152t146 -52q125 0 178.5 59t75.5 207l135 879h463l-135 -898q-47 -324 -215 -470t-500 -146q-324 0 -493.5 145.5t-169.5 421.5zM778 1602l231 370h312l-392 -370h-151z" />
<glyph unicode="&#xdb;" horiz-adv-x="1656" d="M113 526q0 61 14 162l123 785h467l-133 -873q-6 -35 -6 -68q0 -100 50 -152t146 -52q125 0 178.5 59t75.5 207l135 879h463l-135 -898q-47 -324 -215 -470t-500 -146q-324 0 -493.5 145.5t-169.5 421.5zM637 1602l260 370h254l125 -370h-140l-127 198l-221 -198h-151z " />
<glyph unicode="&#xdc;" horiz-adv-x="1656" d="M113 526q0 61 14 162l123 785h467l-133 -873q-6 -35 -6 -68q0 -100 50 -152t146 -52q125 0 178.5 59t75.5 207l135 879h463l-135 -898q-47 -324 -215 -470t-500 -146q-324 0 -493.5 145.5t-169.5 421.5zM680 1651l36 270h252l-39 -270h-249zM1042 1651l39 270h250 l-39 -270h-250z" />
<glyph unicode="&#xdd;" horiz-adv-x="1359" d="M-6 1473h504l159 -467q14 -51 15 -113v-21q10 90 30 125l256 476h537l-610 -936l-78 -537h-469l76 539zM631 1602l231 370h312l-392 -370h-151z" />
<glyph unicode="&#xde;" horiz-adv-x="1476" d="M33 0l221 1473h463l-27 -189h148q311 0 459.5 -110.5t148.5 -348.5q0 -537 -647 -536h-256l-45 -289h-465zM588 637h162q129 0 188 37t59 129q0 72 -49 103.5t-153 31.5h-160z" />
<glyph unicode="&#xdf;" horiz-adv-x="1372" d="M14 0l146 971q43 287 179 413.5t406 126.5q258 0 399.5 -103t141.5 -288q0 -244 -231 -325q207 -72 207 -334q0 -229 -132.5 -365.5t-357.5 -136.5q-96 0 -221 31l39 276q63 -14 100 -14q76 0 117 67.5t41 190.5q0 102 -44 147t-151 48l35 227q43 -6 60 -6q127 0 126 180 q0 70 -35.5 99.5t-113.5 29.5q-111 0 -135 -172l-154 -1063h-422z" />
<glyph unicode="&#xe0;" horiz-adv-x="1327" d="M-4 268q0 193 127 283t409 119q184 18 213 28q55 20 56 78q0 43 -36 67.5t-101 24.5q-137 0 -150 -110h-405q51 367 587 366q254 0 384 -88t130 -254q0 -61 -16 -161l-61 -394q-10 -66 -11 -90q0 -66 37 -108v-29h-416l-14 102q-176 -137 -377 -137q-164 0 -260 84 t-96 219zM422 313q0 -41 29.5 -65.5t80.5 -24.5q100 0 162 68.5t68 193.5q-61 -20 -141 -37.5t-114 -26.5t-59.5 -35t-25.5 -73zM455 1587h272l164 -370h-141z" />
<glyph unicode="&#xe1;" horiz-adv-x="1327" d="M-4 268q0 193 127 283t409 119q184 18 213 28q55 20 56 78q0 43 -36 67.5t-101 24.5q-137 0 -150 -110h-405q51 367 587 366q254 0 384 -88t130 -254q0 -61 -16 -161l-61 -394q-10 -66 -11 -90q0 -66 37 -108v-29h-416l-14 102q-176 -137 -377 -137q-164 0 -260 84 t-96 219zM422 313q0 -41 29.5 -65.5t80.5 -24.5q100 0 162 68.5t68 193.5q-61 -20 -141 -37.5t-114 -26.5t-59.5 -35t-25.5 -73zM539 1217l231 370h312l-392 -370h-151z" />
<glyph unicode="&#xe2;" horiz-adv-x="1327" d="M-4 268q0 193 127 283t409 119q184 18 213 28q55 20 56 78q0 43 -36 67.5t-101 24.5q-137 0 -150 -110h-405q51 367 587 366q254 0 384 -88t130 -254q0 -61 -16 -161l-61 -394q-10 -66 -11 -90q0 -66 37 -108v-29h-416l-14 102q-176 -137 -377 -137q-164 0 -260 84 t-96 219zM398 1217l260 370h254l125 -370h-140l-127 198l-221 -198h-151zM422 313q0 -41 29.5 -65.5t80.5 -24.5q100 0 162 68.5t68 193.5q-61 -20 -141 -37.5t-114 -26.5t-59.5 -35t-25.5 -73z" />
<glyph unicode="&#xe3;" horiz-adv-x="1327" d="M-4 268q0 193 127 283t409 119q184 18 213 28q55 20 56 78q0 43 -36 67.5t-101 24.5q-137 0 -150 -110h-405q51 367 587 366q254 0 384 -88t130 -254q0 -61 -16 -161l-61 -394q-10 -66 -11 -90q0 -66 37 -108v-29h-416l-14 102q-176 -137 -377 -137q-164 0 -260 84 t-96 219zM422 313q0 -41 29.5 -65.5t80.5 -24.5q100 0 162 68.5t68 193.5q-61 -20 -141 -37.5t-114 -26.5t-59.5 -35t-25.5 -73zM432 1249q61 262 236 262q39 0 92 -16l64 -22q31 -10 53 -11q76 0 104 92h119q-35 -133 -90 -196.5t-143 -63.5q-33 0 -89 19l-63 20 q-35 10 -63 10q-80 0 -101 -94h-119z" />
<glyph unicode="&#xe4;" horiz-adv-x="1327" d="M-4 268q0 193 127 283t409 119q184 18 213 28q55 20 56 78q0 43 -36 67.5t-101 24.5q-137 0 -150 -110h-405q51 367 587 366q254 0 384 -88t130 -254q0 -61 -16 -161l-61 -394q-10 -66 -11 -90q0 -66 37 -108v-29h-416l-14 102q-176 -137 -377 -137q-164 0 -260 84 t-96 219zM422 313q0 -41 29.5 -65.5t80.5 -24.5q100 0 162 68.5t68 193.5q-61 -20 -141 -37.5t-114 -26.5t-59.5 -35t-25.5 -73zM441 1266l36 270h252l-39 -270h-249zM803 1266l39 270h250l-39 -270h-250z" />
<glyph unicode="&#xe5;" horiz-adv-x="1327" d="M-4 268q0 193 127 283t409 119q184 18 213 28q55 20 56 78q0 43 -36 67.5t-101 24.5q-137 0 -150 -110h-405q51 367 587 366q254 0 384 -88t130 -254q0 -61 -16 -161l-61 -394q-10 -66 -11 -90q0 -66 37 -108v-29h-416l-14 102q-176 -137 -377 -137q-164 0 -260 84 t-96 219zM422 313q0 -41 29.5 -65.5t80.5 -24.5q100 0 162 68.5t68 193.5q-61 -20 -141 -37.5t-114 -26.5t-59.5 -35t-25.5 -73zM489 1435.5q0 110.5 75 185.5t186 75q109 0 185.5 -76t76.5 -184q0 -111 -76 -186.5t-186.5 -75.5t-185.5 75.5t-75 186zM641 1436 q0 -47 32 -79t79 -32t78.5 32t31.5 79q0 45 -32.5 77.5t-77.5 32.5q-47 0 -79 -31.5t-32 -78.5z" />
<glyph unicode="&#xe6;" horiz-adv-x="1984" d="M-6 268q0 195 127 283t409 111q25 4 56.5 8t50 6t43.5 6t38 8t29.5 9.5t23.5 12.5t15.5 16t11.5 21.5t3 26.5q0 41 -37 65.5t-102 24.5q-156 0 -166 -108h-390q18 170 160 269t373 99q236 0 348 -120q127 121 344 120q262 0 407.5 -151.5t145.5 -425.5q0 -63 -4 -98h-799 v-25q0 -92 52.5 -145.5t140.5 -53.5q127 0 170 90h395q-59 -174 -208.5 -265t-379.5 -91q-301 0 -399 193q-193 -193 -494 -193q-172 0 -268 84t-96 223zM422 313q0 -41 29.5 -63.5t80.5 -22.5q102 0 163 66.5t67 191.5q-61 -20 -141 -37.5t-114 -26.5t-59.5 -35t-25.5 -73z M1102 666h389q0 94 -46 147t-128 53q-174 1 -215 -200z" />
<glyph unicode="&#xe7;" horiz-adv-x="1306" d="M29 481q0 291 172 467t461 176q262 0 409.5 -117.5t151.5 -328.5h-406q-4 154 -151 153q-98 0 -155.5 -95t-57.5 -263q0 -215 163 -215q68 0 116.5 45t60.5 119h411q-45 -223 -197.5 -341t-396.5 -118q-272 0 -426.5 141.5t-154.5 376.5zM269 -438l51 133 q131 -53 235 -53q45 0 71 20.5t26 54.5q0 37 -37 52.5t-121 15.5h-41l74 215h114l-32 -92q233 -2 233 -174q0 -109 -71.5 -170.5t-206.5 -61.5q-105 1 -295 60z" />
<glyph unicode="&#xe8;" horiz-adv-x="1355" d="M31 475q0 299 174 475t463 176q287 0 437 -145t150 -424q0 -51 -6 -106h-792v-19q0 -203 188 -203q131 0 160 88h407q-53 -172 -204.5 -264t-384.5 -92q-276 0 -434 139.5t-158 374.5zM442 1587h272l164 -370h-141zM475 666h375q-2 94 -47 146t-127 52q-80 0 -133.5 -52 t-67.5 -146z" />
<glyph unicode="&#xe9;" horiz-adv-x="1355" d="M31 475q0 299 174 475t463 176q287 0 437 -145t150 -424q0 -51 -6 -106h-792v-19q0 -203 188 -203q131 0 160 88h407q-53 -172 -204.5 -264t-384.5 -92q-276 0 -434 139.5t-158 374.5zM475 666h375q-2 94 -47 146t-127 52q-80 0 -133.5 -52t-67.5 -146zM526 1217l231 370 h312l-392 -370h-151z" />
<glyph unicode="&#xea;" horiz-adv-x="1355" d="M31 475q0 299 174 475t463 176q287 0 437 -145t150 -424q0 -51 -6 -106h-792v-19q0 -203 188 -203q131 0 160 88h407q-53 -172 -204.5 -264t-384.5 -92q-276 0 -434 139.5t-158 374.5zM385 1217l260 370h254l125 -370h-140l-127 198l-221 -198h-151zM475 666h375 q-2 94 -47 146t-127 52q-80 0 -133.5 -52t-67.5 -146z" />
<glyph unicode="&#xeb;" horiz-adv-x="1355" d="M31 475q0 299 174 475t463 176q287 0 437 -145t150 -424q0 -51 -6 -106h-792v-19q0 -203 188 -203q131 0 160 88h407q-53 -172 -204.5 -264t-384.5 -92q-276 0 -434 139.5t-158 374.5zM428 1266l36 270h252l-39 -270h-249zM475 666h375q-2 94 -47 146t-127 52 q-80 0 -133.5 -52t-67.5 -146zM790 1266l39 270h250l-39 -270h-250z" />
<glyph unicode="&#xec;" horiz-adv-x="649" d="M8 0l158 1087h420l-158 -1087h-420zM123 1587h272l164 -370h-141z" />
<glyph unicode="&#xed;" horiz-adv-x="649" d="M8 0l158 1087h420l-158 -1087h-420zM207 1217l231 370h312l-392 -370h-151z" />
<glyph unicode="&#xee;" horiz-adv-x="649" d="M8 0l158 1087h420l-158 -1087h-420zM66 1217l260 370h254l125 -370h-140l-127 198l-221 -198h-151z" />
<glyph unicode="&#xef;" horiz-adv-x="649" d="M8 0l158 1087h420l-158 -1087h-420zM109 1266l36 270h252l-39 -270h-249zM471 1266l39 270h250l-39 -270h-250z" />
<glyph unicode="&#xf0;" d="M29 465q0 266 165.5 427t438.5 161q117 -1 223 -60q-55 131 -156 221l-311 -129l-55 125l241 101q-63 31 -135 51l88 158q160 -39 297 -115l291 119l64 -127l-205 -88q289 -248 289 -672q0 -326 -167 -502t-474 -176q-274 0 -434 140.5t-160 365.5zM457 465 q0 -205 166 -205q92 0 148 84t56 225q1 222 -163 222q-100 0 -153.5 -83t-53.5 -243z" />
<glyph unicode="&#xf1;" horiz-adv-x="1372" d="M8 0l160 1087h383l-19 -143q156 174 365 174q166 0 262 -94t96 -254q0 -61 -12 -143l-86 -627h-420l84 614q6 39 6 56q0 55 -35.5 89t-97.5 34q-154 0 -184 -213l-82 -580h-420zM446 1249q61 262 236 262q39 0 92 -16l64 -22q31 -10 53 -11q76 0 104 92h119 q-35 -133 -90 -196.5t-143 -63.5q-33 0 -89 19l-63 20q-35 10 -63 10q-80 0 -101 -94h-119z" />
<glyph unicode="&#xf2;" d="M29 489q0 291 178 465t475 174q270 0 425 -142t155 -382q0 -301 -172 -472t-476 -171q-274 0 -429.5 143t-155.5 385zM445 1587h272l164 -370h-141zM459 473q0 -211 162 -211q96 0 153 94.5t57 255.5q1 222 -159 222q-100 0 -156.5 -93.5t-56.5 -267.5z" />
<glyph unicode="&#xf3;" d="M29 489q0 291 178 465t475 174q270 0 425 -142t155 -382q0 -301 -172 -472t-476 -171q-274 0 -429.5 143t-155.5 385zM459 473q0 -211 162 -211q96 0 153 94.5t57 255.5q1 222 -159 222q-100 0 -156.5 -93.5t-56.5 -267.5zM529 1217l231 370h312l-392 -370h-151z" />
<glyph unicode="&#xf4;" d="M29 489q0 291 178 465t475 174q270 0 425 -142t155 -382q0 -301 -172 -472t-476 -171q-274 0 -429.5 143t-155.5 385zM388 1217l260 370h254l125 -370h-140l-127 198l-221 -198h-151zM459 473q0 -211 162 -211q96 0 153 94.5t57 255.5q1 222 -159 222 q-100 0 -156.5 -93.5t-56.5 -267.5z" />
<glyph unicode="&#xf5;" d="M29 489q0 291 178 465t475 174q270 0 425 -142t155 -382q0 -301 -172 -472t-476 -171q-274 0 -429.5 143t-155.5 385zM422 1249q61 262 236 262q39 0 92 -16l64 -22q31 -10 53 -11q76 0 104 92h119q-35 -133 -90 -196.5t-143 -63.5q-33 0 -89 19l-63 20q-35 10 -63 10 q-80 0 -101 -94h-119zM459 473q0 -211 162 -211q96 0 153 94.5t57 255.5q1 222 -159 222q-100 0 -156.5 -93.5t-56.5 -267.5z" />
<glyph unicode="&#xf6;" d="M29 489q0 291 178 465t475 174q270 0 425 -142t155 -382q0 -301 -172 -472t-476 -171q-274 0 -429.5 143t-155.5 385zM431 1266l36 270h252l-39 -270h-249zM459 473q0 -211 162 -211q96 0 153 94.5t57 255.5q1 222 -159 222q-100 0 -156.5 -93.5t-56.5 -267.5zM793 1266 l39 270h250l-39 -270h-250z" />
<glyph unicode="&#xf7;" horiz-adv-x="1705" d="M254 475v273h1198v-273h-1198zM670 188q0 78 54 130.5t130 52.5q74 0 128 -53.5t54 -129.5q0 -74 -53 -128t-131 -54q-76 0 -129 53.5t-53 128.5zM670 1032q0 78 54 131.5t130 53.5q74 0 128 -54.5t54 -130.5q0 -74 -53 -128t-131 -54q-76 0 -129 53t-53 129z" />
<glyph unicode="&#xf8;" d="M29 502q0 285 180 455.5t491 170.5q133 0 238 -43l109 148l129 -100l-95 -127q180 -143 181 -406q0 -297 -173.5 -468t-480.5 -171q-152 0 -266 45l-121 -164l-129 101l109 147q-172 160 -172 412zM442 504q1 -39 9 -113l317 428q-41 20 -100 21q-100 0 -163 -92.5 t-63 -243.5zM518 279q39 -27 100 -27q106 0 168 97t62 274q0 33 -10 90z" />
<glyph unicode="&#xf9;" horiz-adv-x="1372" d="M61 338q0 47 7 96l94 653h420l-84 -581q-6 -37 -6 -76q0 -61 35.5 -95t99.5 -34q78 0 121 47t59 148l88 591h418l-158 -1087h-381l14 147q-145 -180 -364 -180q-170 0 -266.5 98.5t-96.5 272.5zM488 1587h272l164 -370h-141z" />
<glyph unicode="&#xfa;" horiz-adv-x="1372" d="M61 338q0 47 7 96l94 653h420l-84 -581q-6 -37 -6 -76q0 -61 35.5 -95t99.5 -34q78 0 121 47t59 148l88 591h418l-158 -1087h-381l14 147q-145 -180 -364 -180q-170 0 -266.5 98.5t-96.5 272.5zM572 1217l231 370h312l-392 -370h-151z" />
<glyph unicode="&#xfb;" horiz-adv-x="1372" d="M61 338q0 47 7 96l94 653h420l-84 -581q-6 -37 -6 -76q0 -61 35.5 -95t99.5 -34q78 0 121 47t59 148l88 591h418l-158 -1087h-381l14 147q-145 -180 -364 -180q-170 0 -266.5 98.5t-96.5 272.5zM431 1217l260 370h254l125 -370h-140l-127 198l-221 -198h-151z" />
<glyph unicode="&#xfc;" horiz-adv-x="1372" d="M61 338q0 47 7 96l94 653h420l-84 -581q-6 -37 -6 -76q0 -61 35.5 -95t99.5 -34q78 0 121 47t59 148l88 591h418l-158 -1087h-381l14 147q-145 -180 -364 -180q-170 0 -266.5 98.5t-96.5 272.5zM474 1266l36 270h252l-39 -270h-249zM836 1266l39 270h250l-39 -270h-250z " />
<glyph unicode="&#xfd;" horiz-adv-x="1165" d="M-47 -422l41 295q92 -10 123 -10q121 0 121 114q0 51 -13 107l-205 1003h404l88 -684l283 684h424l-588 -1208q-84 -172 -184.5 -245.5t-268.5 -73.5q-78 0 -225 18zM451 1217l231 370h312l-392 -370h-151z" />
<glyph unicode="&#xfe;" horiz-adv-x="1386" d="M-43 -422l256 1895h420l-62 -486q92 139 287 139q207 0 322.5 -133t115.5 -372q0 -295 -144 -478.5t-366 -183.5q-233 0 -333 170l-78 -551h-418zM502 489q0 -92 43 -143t121 -51q94 0 150 88t56 240q1 192 -155 192q-96 0 -155.5 -87t-59.5 -239z" />
<glyph unicode="&#xff;" horiz-adv-x="1165" d="M-47 -422l41 295q92 -10 123 -10q121 0 121 114q0 51 -13 107l-205 1003h404l88 -684l283 684h424l-588 -1208q-84 -172 -184.5 -245.5t-268.5 -73.5q-78 0 -225 18zM353 1266l36 270h252l-39 -270h-249zM715 1266l39 270h250l-39 -270h-250z" />
<glyph unicode="&#x152;" horiz-adv-x="2365" d="M76 651q0 362 219 615q217 248 541 247q244 0 391 -172l22 132h1075l-53 -351h-680l-32 -202h604l-54 -328h-602l-30 -236h723l-52 -356h-1126l25 121q-152 -160 -383 -160q-258 0 -423 191.5t-165 498.5zM543 643q0 -147 65.5 -232t171.5 -85q162 0 261.5 141t99.5 381 q0 305 -244 305q-156 0 -255 -140.5t-99 -369.5z" />
<glyph unicode="&#x153;" horiz-adv-x="2043" d="M29 496q0 281 177 455.5t458 174.5q223 0 370 -133q133 133 348 133q268 0 414 -150.5t146 -428.5q0 -31 -5 -96h-796v-19q0 -205 194 -205q119 0 156 90h407q-57 -170 -206.5 -263t-364.5 -93q-274 0 -383 133q-154 -133 -369 -133q-242 0 -394 151.5t-152 383.5z M455 481q0 -229 163 -229q98 0 158 95t60 261q0 226 -166 226q-98 0 -156.5 -94.5t-58.5 -258.5zM1161 666h385q-4 201 -176 200q-174 1 -209 -200z" />
<glyph unicode="&#x178;" horiz-adv-x="1359" d="M-6 1473h504l159 -467q14 -51 15 -113v-21q10 90 30 125l256 476h537l-610 -936l-78 -537h-469l76 539zM533 1651l36 270h252l-39 -270h-249zM895 1651l39 270h250l-39 -270h-250z" />
<glyph unicode="&#x2c6;" horiz-adv-x="1024" d="M238 1217l260 370h254l125 -370h-140l-127 198l-221 -198h-151z" />
<glyph unicode="&#x2dc;" horiz-adv-x="1024" d="M272 1249q61 262 236 262q39 0 92 -16l64 -22q31 -10 53 -11q76 0 104 92h119q-35 -133 -90 -196.5t-143 -63.5q-33 0 -89 19l-63 20q-35 10 -63 10q-80 0 -101 -94h-119z" />
<glyph unicode="&#x2000;" horiz-adv-x="986" />
<glyph unicode="&#x2001;" horiz-adv-x="1972" />
<glyph unicode="&#x2002;" horiz-adv-x="986" />
<glyph unicode="&#x2003;" horiz-adv-x="1972" />
<glyph unicode="&#x2004;" horiz-adv-x="657" />
<glyph unicode="&#x2005;" horiz-adv-x="493" />
<glyph unicode="&#x2006;" horiz-adv-x="328" />
<glyph unicode="&#x2007;" horiz-adv-x="328" />
<glyph unicode="&#x2008;" horiz-adv-x="246" />
<glyph unicode="&#x2009;" horiz-adv-x="394" />
<glyph unicode="&#x200a;" horiz-adv-x="109" />
<glyph unicode="&#x2010;" horiz-adv-x="716" d="M53 356l56 383h514l-58 -383h-512z" />
<glyph unicode="&#x2011;" horiz-adv-x="716" d="M53 356l56 383h514l-58 -383h-512z" />
<glyph unicode="&#x2012;" horiz-adv-x="716" d="M53 356l56 383h514l-58 -383h-512z" />
<glyph unicode="&#x2013;" horiz-adv-x="1024" d="M-49 397l43 293h1024l-43 -293h-1024z" />
<glyph unicode="&#x2014;" horiz-adv-x="2048" d="M-49 397l43 293h2054l-43 -293h-2054z" />
<glyph unicode="&#x2018;" horiz-adv-x="626" d="M129 768l53 362q27 193 127.5 287t276.5 94h35l-25 -174q-10 2 -29 2q-135 0 -168 -184h170l-55 -387h-385z" />
<glyph unicode="&#x2019;" horiz-adv-x="626" d="M123 727l24 174q10 -2 29 -2q137 0 170 184h-172l55 390h385l-51 -363q-55 -383 -405 -383h-35z" />
<glyph unicode="&#x201a;" horiz-adv-x="626" d="M-39 -356l27 174q10 -2 28 -2q72 0 112 45t56 139h-172l58 387h385l-54 -362q-55 -381 -405 -381h-35z" />
<glyph unicode="&#x201c;" horiz-adv-x="1118" d="M129 768l53 362q27 193 127.5 287t276.5 94h35l-25 -174q-10 2 -29 2q-135 0 -168 -184h170l-55 -387h-385zM625 768l49 362q55 381 405 381h35l-24 -174q-10 2 -29 2q-135 0 -168 -184h170l-55 -387h-383z" />
<glyph unicode="&#x201d;" horiz-adv-x="1118" d="M123 727l24 174q10 -2 29 -2q137 0 170 184h-172l53 390h385l-49 -363q-55 -383 -405 -383h-35zM616 727l25 174q10 -2 29 -2q135 0 168 184h-170l55 390h385l-51 -363q-55 -383 -406 -383h-35z" />
<glyph unicode="&#x201e;" horiz-adv-x="1118" d="M-39 -356l27 174q10 -2 28 -2q72 0 112 45t56 139h-172l58 387h381l-50 -362q-55 -381 -405 -381h-35zM455 -356l24 174q10 -2 29 -2q72 0 113 44t57 140h-172l55 387h385l-51 -362q-55 -381 -406 -381h-34z" />
<glyph unicode="&#x2022;" horiz-adv-x="1208" d="M307 762q0 123 87 209t210 86q121 0 208 -86t87 -209q0 -121 -87 -209t-210 -88t-209 87t-86 210z" />
<glyph unicode="&#x2026;" horiz-adv-x="2048" d="M29 0l65 436h434l-67 -436h-432zM711 0l65 436h434l-67 -436h-432zM1395 0l65 436h434l-67 -436h-432z" />
<glyph unicode="&#x202f;" horiz-adv-x="394" />
<glyph unicode="&#x2039;" horiz-adv-x="530" d="M23 391l45 305l415 246l-41 -280l-225 -134l184 -131l-36 -254z" />
<glyph unicode="&#x203a;" horiz-adv-x="530" d="M-6 143l39 281l225 135l-184 131l39 254l340 -248l-45 -305z" />
<glyph unicode="&#x205f;" horiz-adv-x="493" />
<glyph unicode="&#x2122;" horiz-adv-x="1705" d="M164 1317v151h526v-151h-162v-408h-202v408h-162zM788 909v559h256l99 -266l98 266h256v-559h-182v367l-137 -367h-70l-137 367v-367h-183z" />
<glyph unicode="&#xe000;" horiz-adv-x="1085" d="M0 0v1085h1085v-1085h-1085z" />
<glyph unicode="&#xfb01;" horiz-adv-x="1394" d="M8 846l35 241h150q29 244 128 338.5t328 94.5q100 0 195 -17l-39 -256q-23 4 -64 4q-70 0 -100.5 -36.5t-38.5 -127.5h178l-35 -241h-180l-123 -846h-405l123 846h-152zM760 0l155 1087h406l-152 -1087h-409zM928 1206l47 303h409l-45 -303h-411z" />
<glyph unicode="&#xfb02;" horiz-adv-x="1390" d="M8 846l35 241h150q29 244 128 338.5t328 94.5q100 0 195 -17l-39 -256q-23 4 -64 4q-70 0 -100.5 -36.5t-38.5 -127.5h178l-35 -241h-180l-123 -846h-405l123 846h-152zM760 0l211 1473h407l-209 -1473h-409z" />
</font>
</defs>
</svg>
