<?xml version="1.0" standalone="no"?>
<!DOCTYPE svg PUBLIC "-//W3C//DTD SVG 1.1//EN" "http://www.w3.org/Graphics/SVG/1.1/DTD/svg11.dtd" >
<svg xmlns="http://www.w3.org/2000/svg">
<metadata></metadata>
<defs>
<font id="swiss_721boldoutline" horiz-adv-x="1118" >
<font-face units-per-em="2048" ascent="1638" descent="-410" />
<missing-glyph horiz-adv-x="559" />
<glyph horiz-adv-x="2048" />
<glyph horiz-adv-x="2048" />
<glyph unicode="&#xd;" horiz-adv-x="681" />
<glyph unicode=" "  horiz-adv-x="559" />
<glyph unicode="&#x09;" horiz-adv-x="559" />
<glyph unicode="&#xa0;" horiz-adv-x="559" />
<glyph unicode="!" horiz-adv-x="665" d="M215 1073v400h307v-400l-78 -663h-151zM219 0v295h297v-295h-297zM268 1067l70 -612h61l70 612v356h-201v-356zM272 47h191v201h-191v-201z" />
<glyph unicode="&#x22;" horiz-adv-x="530" d="M102 881v553h70v-553h-70zM358 881v553h70v-553h-70z" />
<glyph unicode="#" horiz-adv-x="1574" d="M143 506l23 74h342l106 290h-372l22 74h375l180 508h96l-180 -508h275l180 508h94l-178 -508h326l-23 -74h-332l-102 -290h356l-22 -74h-359l-178 -504h-96l180 504h-276l-181 -504h-94l178 504h-340zM608 580h273l100 290h-272z" />
<glyph unicode="$" d="M45 440h268q2 -102 44 -166.5t112 -80.5v423q-215 59 -307 152.5t-92 259.5q0 184 106.5 299t292.5 125v109h170v-111q188 -25 291.5 -134.5t107.5 -291.5h-272q-12 174 -127 199v-381q215 -53 318.5 -157.5t103.5 -274.5q0 -190 -112.5 -309t-309.5 -140v-199h-170v201 q-424 35 -424 477zM98 393q20 -362 418 -389v-197h78v197q199 12 306.5 117.5t107.5 288.5q0 160 -98.5 252t-315.5 145v467q195 -4 217 -203h172q-16 152 -118.5 240t-270.5 96v106h-78v-104q-188 -2 -291.5 -102.5t-103.5 -274.5q0 -156 89 -236.5t306 -140.5v-520 q-215 22 -252 258h-166zM260 1055q0 96 67.5 153.5t188.5 65.5v-447q-133 37 -194.5 90.5t-61.5 137.5zM317 1055q1 -109 148 -162v326q-68 -8 -108 -52.5t-40 -111.5zM594 135v496q135 -35 197.5 -96.5t62.5 -157.5q0 -106 -67.5 -169t-192.5 -73zM643 190q154 35 154 185 q0 133 -154 186v-371z" />
<glyph unicode="%" horiz-adv-x="1796" d="M98 1059q0 158 108.5 265.5t264.5 107.5q152 0 261.5 -110t109.5 -263q0 -152 -109.5 -261.5t-261.5 -109.5q-156 0 -264.5 107.5t-108.5 263.5zM141 1059q0 -137 96.5 -233.5t233.5 -96.5q133 0 231.5 97.5t98.5 232.5q0 137 -97.5 233.5t-232.5 96.5 q-139 0 -234.5 -96.5t-95.5 -233.5zM264 1059q0 86 60.5 146.5t146.5 60.5t146.5 -61.5t60.5 -145.5t-61.5 -145.5t-145.5 -61.5q-86 0 -146.5 60.5t-60.5 146.5zM307 1060.5q0 -69.5 47 -117.5t117 -48q68 0 117 51t49 115q0 66 -49 115t-117 49t-116 -47.5t-48 -117z M369 -41l854 1473h209l-854 -1473h-209zM442 0h107l813 1391h-109zM954 331.5q0 155.5 106.5 263t264.5 107.5q152 0 261.5 -108.5t109.5 -261.5q0 -152 -109.5 -262.5t-261.5 -110.5q-156 0 -263.5 108.5t-107.5 264zM995 332q0 -137 96.5 -233.5t233.5 -96.5 q133 0 231.5 97.5t98.5 232.5q0 137 -97.5 233.5t-232.5 96.5q-137 0 -233.5 -95.5t-96.5 -234.5zM1120 330q0 86 59.5 146.5t145.5 60.5t146.5 -61.5t60.5 -145.5t-61.5 -144.5t-145.5 -60.5q-86 0 -145.5 59.5t-59.5 145.5zM1161 331.5q0 -69.5 47 -116.5t117 -47 q68 0 117 50t49 114q0 66 -49 116t-117 50t-116 -48.5t-48 -118z" />
<glyph unicode="&#x26;" horiz-adv-x="1456" d="M96 389q0 143 71 239.5t241 196.5l-58 76q-84 113 -84 223q0 156 100.5 252.5t280.5 96.5q170 0 267.5 -88.5t97.5 -233.5q0 -217 -238 -367l207 -254q59 82 76 240h260q-20 -256 -172 -444l268 -326h-340l-104 129q-164 -170 -410 -170q-205 0 -334 122t-129 308z M150 389q0 -166 115.5 -273.5t291.5 -107.5q221 1 426 185l115 -146h155q37 0 84 -10q-43 33 -75 74l-177 215q152 172 179 397h-168q-14 -158 -117 -270l-279 342q137 82 199 162.5t62 189.5q0 125 -84 200.5t-232 75.5q-156 0 -242 -83t-86 -216q0 -96 74 -192l86 -115 q-182 -113 -254.5 -199t-72.5 -229zM334 410q0 76 28.5 125t92.5 96l108 78l322 -400q-88 -80 -150.5 -114.5t-144.5 -34.5q-113 0 -184.5 70.5t-71.5 179.5zM385 416q0 -90 56.5 -148.5t146.5 -58.5q127 0 227 108l-262 326l-76 -55q-92 -66 -92 -172zM477 1151 q0 74 43 114t125 40q78 0 123 -40t45 -112t-29.5 -121t-101.5 -98l-61 -41l-60 74q-84 104 -84 184zM526 1151q0 -66 58 -135l49 -62l37 25q96 66 96 172q0 51 -33 81t-88 30q-119 0 -119 -111z" />
<glyph unicode="'" horiz-adv-x="274" d="M102 881v553h70v-553h-70z" />
<glyph unicode="(" horiz-adv-x="663" d="M127 522q0 467 354 951h211q-272 -446 -272 -950.5t272 -950.5h-211q-354 483 -354 950zM178 522q0 -446 330 -903h106q-248 420 -247.5 903.5t245.5 902.5h-108q-326 -475 -326 -903z" />
<glyph unicode=")" horiz-adv-x="663" d="M-14 -428q274 449 274 950.5t-274 950.5h213q354 -483 354 -950.5t-354 -950.5h-213zM66 -381h106q328 453 328 903q0 430 -324 903h-110q246 -420 245 -903q1 -487 -245 -903z" />
<glyph unicode="*" horiz-adv-x="1024" d="M70 1077l63 191l277 -90l2 292h198v-292l279 90l63 -191l-278 -90l170 -237l-160 -117l-172 235l-172 -235l-162 117l170 237zM127 1110l301 -98l-186 -254l84 -64l184 256l186 -256l84 64l-186 256l301 96l-33 100l-299 -100v317h-104v-317l-299 100z" />
<glyph unicode="+" horiz-adv-x="1705" d="M254 580v61h569v580h62v-580h567v-61h-567v-580h-62v580h-569z" />
<glyph unicode="," horiz-adv-x="550" d="M123 0v301h303v-289q0 -303 -301 -358v166q117 33 117 166v14h-119zM170 43h117q0 -6 1 -18.5t1 -16.5q0 -166 -119 -211v-86q207 68 207 301v246h-207v-215z" />
<glyph unicode="-" horiz-adv-x="661" d="M51 408v274h559v-274h-559zM102 453h457v182h-457v-182z" />
<glyph unicode="." horiz-adv-x="559" d="M127 0v301h303v-301h-303zM176 43h207v215h-207v-215z" />
<glyph unicode="/" horiz-adv-x="557" d="M-96 -190l493 1663h197l-494 -1663h-196zM-33 -143h99l466 1568h-98z" />
<glyph unicode="0" d="M66 707q0 377 120.5 561t372.5 184t373 -184.5t121 -563t-121 -562t-373 -183.5t-372.5 184.5t-120.5 563.5zM117 706.5q0 -356.5 107.5 -528.5t334.5 -172q225 0 332.5 172t107.5 526.5t-108.5 528.5t-333.5 174t-332.5 -172t-107.5 -528.5zM307 704.5 q0 284.5 57.5 417.5t192.5 133t192.5 -133t57.5 -417.5t-57.5 -416.5t-192.5 -132t-192.5 132t-57.5 416.5zM360 706.5q0 -262.5 46.5 -383t153 -120.5t151.5 120.5t45 383t-45 383t-151.5 120.5t-153 -120.5t-46.5 -383z" />
<glyph unicode="1" d="M125 993v203h12q193 0 279 55.5t104 200.5h230v-1452h-283v993h-342zM176 1040h344v-995h176v1362h-129q-33 -141 -122 -197.5t-269 -60.5v-109z" />
<glyph unicode="2" d="M61 0q6 195 95.5 319.5t285.5 272.5q20 16 65.5 49t62 45t50 40t46 42t33 40t27.5 47.5t13 50t6 61.5q0 236 -204 235q-98 0 -144.5 -65.5t-46.5 -206.5v-10h-280v18q0 514 473 514q225 0 360 -128t135 -339q0 -154 -72.5 -267.5t-228.5 -230.5q-49 -37 -129 -90 t-121 -85.5t-59 -67.5h612v-244h-979zM117 47h870v150h-622q0 33 11 59.5t46 59t57.5 49t88 62.5t96.5 67q168 119 244.5 229.5t76.5 261.5q0 188 -120 304t-320 116q-203 0 -310.5 -111.5t-109.5 -326.5h176q12 281 240 280q123 0 189.5 -71.5t66.5 -206.5 q0 -51 -15.5 -97.5t-27 -71t-64.5 -73.5t-66.5 -59.5t-97.5 -71.5q-18 -14 -26 -21q-96 -72 -146.5 -113.5t-110 -108t-89 -139.5t-37.5 -167z" />
<glyph unicode="3" d="M57 434v10h275q0 -119 55 -182t158 -63q96 0 148 54t52 155q0 123 -61 177t-197 54q-37 0 -57 -2v203h31q131 0 188.5 45t57.5 151q0 186 -185 187q-86 0 -133 -53.5t-47 -149.5v-29h-272q2 223 118.5 342t335.5 119q217 0 345 -108.5t128 -284.5q0 -205 -174 -287 q104 -35 164 -127t60 -225q0 -205 -138.5 -333t-369.5 -128q-229 0 -355.5 124t-126.5 351zM113 397q10 -190 120.5 -290.5t307.5 -100.5q207 0 329.5 112.5t122.5 297.5q0 242 -235 356q188 102 188 283q0 158 -113.5 254t-308.5 96q-186 0 -290.5 -96.5t-110.5 -272.5h168 q4 111 65.5 171.5t163.5 60.5q115 0 177.5 -59.5t62.5 -170.5q0 -123 -65.5 -181t-211.5 -64v-109h25q143 0 217 -67.5t74 -194.5q0 -133 -66.5 -202.5t-191.5 -69.5q-225 0 -258 247h-170z" />
<glyph unicode="4" d="M51 313v256l498 844h356v-868h158v-232h-158v-313h-278v313h-576zM102 360h576v-315h174v315h158v138h-158v868h-270l-480 -807v-199zM236 498l442 749v-749h-442zM319 545h308v317q0 158 22 271q-33 -78 -76 -154z" />
<glyph unicode="5" d="M55 385h279q2 -90 58.5 -143.5t137.5 -53.5q106 0 163 67t57 196q0 121 -58.5 188.5t-161.5 67.5q-125 0 -180 -99l-256 15l99 790h790v-242h-584l-39 -253q-4 -27 -24 -66q92 84 266 84q190 0 315 -129t125 -342q0 -236 -140 -371t-374 -135q-209 0 -338 115.5 t-135 310.5zM113 338q18 -150 132.5 -241t286.5 -91q209 0 333 121t124 336q0 195 -110.5 311.5t-280.5 116.5q-180 0 -307 -109l65 435h576v149h-696l-89 -696l179 -11q74 94 202 95q127 0 200 -80t73 -223q0 -147 -74 -228.5t-201 -81.5q-92 0 -158.5 53.5t-80.5 143.5 h-174z" />
<glyph unicode="6" d="M51 684q0 389 130 579.5t401 190.5q186 0 306 -101.5t136 -271.5h-285q-18 141 -159 142q-100 0 -162 -78t-70 -209l-2 -31q-6 -47 -10 -61q90 100 272 100q201 0 325 -129t124 -344q0 -233 -132 -372.5t-354 -139.5q-520 0 -520 725zM104 684q0 -678 467 -678 q197 0 316 127t119 352q0 182 -112 297t-288 115q-186 0 -307 -129q-2 25 -2 68q0 432 287 432q78 0 131 -38t67 -102h185q-29 129 -129.5 204t-251.5 75q-248 0 -365 -176t-117 -547zM293 467q0 135 71.5 212t196.5 77q121 0 188.5 -76t67.5 -215q0 -154 -65.5 -232.5 t-190.5 -78.5q-129 0 -198.5 80.5t-69.5 232.5zM346 465q0 -129 54.5 -197.5t154.5 -68.5q209 0 209 264q0 119 -54.5 183.5t-152.5 64.5q-211 0 -211 -246z" />
<glyph unicode="7" d="M47 1165v248h1016v-219q-469 -520 -516 -1194h-297q20 340 168.5 660.5t365.5 523.5q-53 -18 -100 -19h-637zM98 1210h752q-492 -569 -545 -1163h193q59 645 512 1163v156h-912v-156z" />
<glyph unicode="8" d="M61 412q0 262 207 350q-90 49 -129 117.5t-39 175.5q0 184 122 290.5t337 106.5q217 0 338 -105.5t121 -291.5q0 -209 -170 -293q209 -90 209 -350q0 -211 -132 -332t-366 -121q-238 0 -368 120t-130 333zM115 414q0 -190 117.5 -299t326.5 -109q207 0 324.5 109.5 t117.5 298.5q0 236 -215 348q180 98 181 293q0 164 -107.5 257t-300.5 93q-190 0 -298.5 -94t-108.5 -256q0 -195 178 -293q-215 -113 -215 -348zM301 410q0 127 70.5 203.5t187.5 76.5q115 0 186.5 -74.5t71.5 -195.5q0 -127 -68.5 -196.5t-189.5 -69.5t-189.5 67.5 t-68.5 188.5zM319 1042q0 102 65 163t175 61q109 0 174.5 -61.5t65.5 -162.5q0 -102 -63.5 -161.5t-176.5 -59.5q-117 0 -178.5 57.5t-61.5 163.5zM354 412q0 -100 54.5 -155.5t150.5 -55.5t150.5 57t54.5 164q0 100 -56.5 160.5t-148.5 60.5q-94 0 -149.5 -62.5 t-55.5 -168.5zM373 1044q0 -84 48 -129t138 -45t138 45.5t48 128.5q0 80 -50 128.5t-136 48.5t-136 -48.5t-50 -128.5z" />
<glyph unicode="9" d="M61 940q0 233 132.5 372.5t353.5 139.5q520 0 520 -723q0 -389 -131 -579.5t-401 -190.5q-186 0 -305 100.5t-136 270.5h285q18 -139 158 -140q100 0 162.5 76t68.5 199v35q2 35 16 71q-78 -104 -274 -104q-201 0 -325 129t-124 344zM113 928q0 -182 111.5 -298 t287.5 -116q186 0 307 135q0 -12 1 -32.5t1 -30.5q0 -442 -286 -443q-78 0 -131.5 38.5t-67.5 101.5h-184q29 -129 129 -203t251 -74q248 0 365 175t117 546q0 678 -467 678q-197 0 -315.5 -126t-118.5 -351zM301 946q0 152 66.5 231.5t189.5 79.5q129 0 198.5 -80.5 t69.5 -232.5q0 -137 -70.5 -213t-197.5 -76q-121 0 -188.5 76t-67.5 215zM354 948q0 -119 53.5 -182.5t151.5 -63.5q102 0 157.5 62.5t55.5 181.5q0 129 -54 197.5t-155 68.5q-209 0 -209 -264z" />
<glyph unicode=":" horiz-adv-x="667" d="M223 0v301h303v-301h-303zM223 766v303h303v-303h-303zM270 43h207v215h-207v-215zM270 809h207v215h-207v-215z" />
<glyph unicode=";" horiz-adv-x="667" d="M223 0v301h301v-289q0 -303 -301 -358v166q119 33 119 166v14h-119zM223 766v303h301v-303h-301zM270 43h115q0 -6 1 -18.5t1 -18.5q0 -168 -117 -209v-86q207 68 207 301v246h-207v-215zM270 809h207v215h-207v-215z" />
<glyph unicode="&#x3c;" horiz-adv-x="1705" d="M264 590v41l1178 481v-70l-1069 -432l1069 -432v-69z" />
<glyph unicode="=" horiz-adv-x="1705" d="M254 403v62h1198v-62h-1198zM254 758v61h1198v-61h-1198z" />
<glyph unicode="&#x3e;" horiz-adv-x="1705" d="M264 109v69l1067 432l-1067 432v70l1178 -481v-41z" />
<glyph unicode="?" horiz-adv-x="1220" d="M113 1028v29q0 205 134 329.5t359 124.5q233 0 367.5 -117.5t134.5 -310.5q0 -154 -86 -254q-35 -39 -115 -100t-92 -72q-41 -35 -55.5 -70.5t-14.5 -92.5q0 -6 1.5 -21.5t1.5 -23.5h-269v57q0 88 18.5 147.5t73.5 116.5q29 29 100.5 85t101.5 99t30 109 q0 96 -50.5 148.5t-140.5 52.5q-205 0 -217 -236h-282zM162 1073h190q14 111 80 173.5t170 62.5q121 0 186.5 -64.5t65.5 -181.5q0 -55 -22.5 -101.5t-47 -70t-79 -67.5t-78.5 -66q-98 -90 -99 -226v-38h166v10q0 111 78 176q27 23 99.5 80t100 85.5t56.5 89t29 134.5 q0 180 -120 287.5t-331 107.5q-201 0 -318.5 -105.5t-125.5 -285.5zM465 0v293h295v-293h-295zM516 47h191v199h-191v-199z" />
<glyph unicode="@" horiz-adv-x="2048" d="M127 524q0 326 197 566q291 354 790 354q332 0 549 -166q258 -199 258 -502q0 -344 -240 -534q-141 -111 -303 -111q-188 0 -188 141q0 12 4 45q-47 -88 -125 -138t-164 -50q-156 0 -235.5 83t-79.5 241q0 227 136 384.5t325 157.5q197 0 258 -176l61 135h66l-138 -546 q-25 -98 -24 -121q0 -94 125 -94q150 0 268 124q80 84 126 206t46 255q0 268 -201.5 437t-531.5 169q-336 0 -567 -188q-322 -260 -322 -688q0 -326 222.5 -524.5t592.5 -198.5q342 0 631 192l23 -34q-289 -215 -644 -215q-381 0 -616 180q-299 229 -299 616zM682 446 q0 -121 59.5 -187t163.5 -66q115 0 202 73.5t120 198.5l65 258q-47 209 -243 209q-156 0 -261.5 -139.5t-105.5 -346.5z" />
<glyph unicode="A" horiz-adv-x="1456" d="M25 0l526 1473h354l527 -1473h-336l-99 303h-540l-99 -303h-333zM94 47h232l96 303h608l103 -303h229l-492 1378h-284zM477 520l240 746l256 -746h-496zM541 567h364l-157 475q-23 72 -31 121q-8 -68 -25 -121z" />
<glyph unicode="B" horiz-adv-x="1456" d="M150 0v1473h684q233 0 352 -98.5t119 -282.5q0 -207 -175 -295q225 -88 226 -353q0 -209 -138.5 -326.5t-398.5 -117.5h-669zM201 47h567q145 0 234.5 16.5t158.5 69.5q141 109 142 309q0 137 -64.5 220t-206.5 131q219 68 219 294q0 178 -110.5 258t-337.5 80h-602 v-1378zM387 219v477h422q145 0 215 -56t70 -183q0 -125 -70 -181.5t-217 -56.5h-420zM387 858v404h422q246 0 246 -199q0 -205 -252 -205h-416zM438 266h359q131 0 188 40t57 151q0 109 -58 151.5t-185 42.5h-361v-385zM438 903h350q113 0 163 37t50 123q0 82 -50 118 t-156 36h-357v-314z" />
<glyph unicode="C" horiz-adv-x="1456" d="M84 735q0 369 178 572.5t502 203.5q254 0 424 -145t194 -381h-305q-43 254 -325 254q-162 0 -259.5 -134t-97.5 -370q0 -233 100.5 -367.5t268.5 -134.5q129 0 215 74t102 199h303q-20 -246 -192 -396.5t-440 -150.5q-309 0 -488.5 206t-179.5 570zM135 735 q0 -344 165 -536.5t450 -192.5q231 0 386.5 124t188.5 329h-201q-31 -127 -127 -200t-231 -73q-190 0 -307 147.5t-117 401.5q0 260 113.5 404.5t312.5 144.5q139 0 230.5 -65.5t121.5 -186.5h203q-37 197 -187.5 314.5t-371.5 117.5q-299 0 -464 -190.5t-165 -538.5z" />
<glyph unicode="D" horiz-adv-x="1456" d="M143 0v1473h641q285 0 437.5 -194t152.5 -544q0 -328 -167 -531.5t-421 -203.5h-643zM195 47h581q242 0 393.5 188.5t151.5 501.5q0 334 -140.5 511t-408.5 177h-577v-1378zM391 219v1043h342q186 0 283.5 -134.5t97.5 -392.5q0 -252 -101.5 -384t-293.5 -132h-328z M442 266h277q342 0 342 469q0 479 -326 479h-293v-948z" />
<glyph unicode="E" horiz-adv-x="1357" d="M156 0v1473h1069v-256h-770v-314h704v-252h-704v-379h809v-272h-1108zM207 47h1003v178h-807v471h705v160h-705v408h768v161h-964v-1378z" />
<glyph unicode="F" horiz-adv-x="1232" d="M143 0v1473h1031v-256h-732v-334h641v-256h-641v-627h-299zM195 47h196v627h639v162h-639v428h729v161h-925v-1378z" />
<glyph unicode="G" horiz-adv-x="1591" d="M88 737q0 358 192.5 566t526.5 208q266 0 435 -132t206 -365h-309q-66 235 -324 235h-2q-195 0 -302.5 -133t-107.5 -376.5t112 -379t306 -135.5q143 0 240.5 87t114.5 233h-334v252h610v-797h-203l-20 86q-4 16 -4 59v37q-121 -223 -441 -223q-313 0 -504.5 214 t-191.5 564zM141 737q0 -328 177.5 -529.5t461.5 -201.5q287 0 463 252l45 -211h113v703h-508v-160h338q-4 -182 -119 -296t-289 -114q-217 0 -344 147.5t-127 412t121 409.5t340 145q279 0 365 -235h204q-104 405 -594 405h-2q-293 0 -469 -197.5t-176 -529.5z" />
<glyph unicode="H" horiz-adv-x="1456" d="M145 0v1473h306v-549h555v549h305v-1473h-305v653h-555v-653h-306zM197 47h202v653h658v-653h203v1378h-203v-548h-658v548h-202v-1378z" />
<glyph unicode="I" horiz-adv-x="561" d="M129 0v1473h303v-1473h-303zM180 47h201v1378h-201v-1378z" />
<glyph unicode="J" d="M41 414v135h293v-131q0 -106 42 -155.5t134 -49.5q98 0 135 57.5t37 186.5v1016h303v-998q0 -274 -106.5 -395t-380.5 -121q-457 0 -457 455zM92 418q0 -209 99.5 -310.5t306.5 -101.5q242 0 339 102.5t97 337.5v979h-201v-962q0 -158 -52 -227.5t-181 -69.5 q-217 0 -217 252v84h-191v-84z" />
<glyph unicode="K" horiz-adv-x="1468" d="M158 0v1473h303v-515q0 -43 -15 -114q39 59 78 100l500 529h391l-588 -596l641 -877h-393l-418 582q-16 25 -41 71q-35 -43 -49 -57l-106 -111v-485h-303zM209 47h201v457l211 211l483 -668h231q18 0 60 -10q-37 35 -52 53l-581 791l495 499q37 37 68 56q-66 -10 -78 -11 h-198l-639 -671v671h-201v-1378z" />
<glyph unicode="L" horiz-adv-x="1241" d="M150 0v1473h303v-1201h718v-272h-1021zM201 47h917v178h-717v1200h-200v-1378z" />
<glyph unicode="M" horiz-adv-x="1695" d="M141 0v1473h426l250 -846q29 -94 31 -156q6 72 29 156l245 846h432v-1473h-284v528q0 338 22 580q-41 -201 -94 -379l-219 -729h-262l-217 717q-55 184 -97 391q20 -338 21 -479v-629h-283zM193 45h180v1264l383 -1264h184l381 1264v-1264h182v1380h-342l-313 -1069 l-322 1069h-333v-1380z" />
<glyph unicode="N" horiz-adv-x="1458" d="M139 0v1473h318l477 -838q35 -68 113 -238q-25 164 -25 250v826h297v-1473h-311l-473 831q-61 113 -121 246q24 -175 24 -248v-6v-823h-299zM190 47h197v1131l649 -1131h232v1378h-195v-1128l-649 1128h-234v-1378z" />
<glyph unicode="O" horiz-adv-x="1587" d="M88 735.5q0 368.5 187.5 572t517 203.5t517 -203.5t187.5 -572t-187.5 -572.5t-517 -204t-517 204t-187.5 572.5zM141 735q0 -348 172 -538.5t482 -190.5q305 0 477 191.5t172 537.5q0 348 -171 539.5t-480 191.5q-305 0 -478.5 -192.5t-173.5 -538.5zM342 735.5 q0 270.5 118 413.5t333 143t331.5 -144t116.5 -412.5t-116.5 -413t-331.5 -144.5t-333 143.5t-118 414zM395 735q0 -248 104.5 -380t293.5 -132q190 0 292.5 131t102.5 381q0 248 -103.5 380t-291.5 132q-190 0 -294 -132t-104 -380z" />
<glyph unicode="P" horiz-adv-x="1343" d="M145 0v1473h629q238 0 359.5 -121t121.5 -353q0 -227 -121.5 -351t-347.5 -124h-337v-524h-304zM197 47h200v524h389q205 0 311.5 111t106.5 317q0 426 -434 426h-573v-1378zM397 741v521h338q137 0 205 -62.5t68 -195.5q0 -262 -273 -263h-338zM451 788h278 q119 0 173 50.5t54 165.5q0 117 -55 165t-172 48h-278v-429z" />
<glyph unicode="Q" horiz-adv-x="1587" d="M88 735.5q0 368.5 187.5 572t517.5 203.5q332 0 518 -204.5t186 -575.5q0 -319 -145 -514l155 -149l-164 -172l-165 161q-164 -98 -385 -98q-330 0 -517.5 204t-187.5 572.5zM141 735q0 -348 172 -538.5t482 -190.5q225 0 387 113l159 -156l99 105l-156 147 q160 186 160 514q0 352 -171 543.5t-480 191.5q-307 0 -479.5 -191.5t-172.5 -537.5zM342 735.5q0 270.5 118 413.5t333 143q217 0 332.5 -144t115.5 -421q0 -227 -98 -375l-168 162l-96 -100l163 -160q-115 -76 -249 -76q-215 0 -333 143.5t-118 414zM395 735 q0 -250 104.5 -381t299.5 -131q76 0 174 33l-162 158l162 168l166 -160q49 119 49 313q0 248 -104.5 380t-293 132t-292 -132t-103.5 -380z" />
<glyph unicode="R" horiz-adv-x="1454" d="M145 0v1473h641q160 0 258.5 -21.5t172.5 -91.5q117 -111 116 -309q0 -266 -237 -344q106 -25 151 -101t49 -221l7 -174q2 -106 20 -135q14 -18 37 -31v-45h-332q-31 63 -35 184l-4 156q-4 133 -48 183t-171 50h-321v-573h-304zM197 47h200v571h359q143 0 209.5 -52 t70.5 -181l6 -156q4 -137 25 -182h227q-29 25 -36 59.5t-9 104.5l-6 174q-4 143 -55 212t-184 112q145 49 210.5 127.5t65.5 207.5q0 201 -110.5 291t-346.5 90h-626v-1378zM397 782v482h416q129 0 197.5 -62.5t68.5 -177.5q0 -117 -67.5 -179.5t-198.5 -62.5h-416zM449 829 h360q219 0 219 195t-219 195h-360v-390z" />
<glyph unicode="S" horiz-adv-x="1351" d="M76 455h301q16 -115 96 -176.5t217 -61.5q287 0 287 191q0 33 -8 56t-34 43.5t-48.5 34t-77.5 29t-96 25.5t-127 29q-131 29 -212 58.5t-148.5 79.5t-96.5 124t-29 182q0 211 143.5 326.5t407.5 115.5q270 0 420 -122.5t156 -348.5h-293q-4 106 -80 165t-209 59 q-254 0 -254 -177q0 -31 6 -53t25.5 -39.5t35 -29t55.5 -23.5t65.5 -18t87 -19.5t98.5 -21.5q143 -35 228 -66t156 -82t99.5 -122.5t28.5 -178.5q0 -221 -154.5 -348t-439.5 -127q-281 0 -438.5 130t-167.5 366zM131 410q29 -195 170 -299.5t383 -104.5q260 0 399.5 112.5 t139.5 313.5q0 100 -28 166t-97.5 111t-145 71.5t-213.5 59.5q-29 6 -80 18t-73.5 17.5t-61.5 16.5t-56 19.5t-44 21.5t-38 26.5t-24.5 33t-17.5 43t-4 51.5q0 104 78 163t223 59q295 0 340 -224h190q-23 180 -156.5 279.5t-363.5 99.5q-242 0 -369.5 -101t-127.5 -294 q0 -100 24.5 -165.5t85 -108.5t127 -65.5t187.5 -51.5q102 -25 142 -34t108.5 -29.5t92 -36t56.5 -41t42 -56t9 -71.5q0 -113 -89 -176.5t-251 -63.5q-295 0 -358 240h-199z" />
<glyph unicode="T" horiz-adv-x="1243" d="M35 1210v263h1173v-263h-436v-1210h-303v1210h-434zM86 1255h434v-1210h201v1210h434v170h-1069v-170z" />
<glyph unicode="U" horiz-adv-x="1468" d="M143 508v965h306v-971q0 -131 75.5 -204t208.5 -73t210 74t77 203v971h303v-877q0 -94 -3 -147.5t-18.5 -121t-48.5 -120.5q-147 -248 -516 -248q-283 0 -438.5 143.5t-155.5 405.5zM195 516q0 -248 139 -379t401 -131q301 0 449 189q55 70 71.5 159.5t16.5 239.5v829 h-201v-921q0 -150 -91 -237t-247 -87q-158 0 -247 86t-89 238v921h-202v-907z" />
<glyph unicode="V" horiz-adv-x="1343" d="M23 1473h325l291 -867q31 -94 39 -155q16 94 37 155l284 867h324l-502 -1473h-291zM88 1425l477 -1378h221l469 1378h-219l-358 -1075l-365 1075h-225z" />
<glyph unicode="W" horiz-adv-x="1927" d="M23 1473h319l203 -748q14 -59 41 -201q14 113 35 201l180 748h323l179 -740q18 -78 36 -209q23 135 43 213l199 736h320l-422 -1473h-277l-205 864q-23 96 -34 234q-12 -123 -37 -234l-203 -864h-279zM88 1425l393 -1378h203l279 1149l278 -1149h201l395 1378h-217 l-285 -1013l-250 1013h-247l-250 -1013l-285 1013h-215z" />
<glyph unicode="X" horiz-adv-x="1349" d="M25 0l460 752l-460 721h356l264 -431q14 -25 31 -84q16 57 33 84l260 431h356l-461 -719l461 -754h-356l-264 446q-16 31 -31 84q-16 -51 -33 -81l-262 -449h-354zM109 47h241l324 549l323 -549h242l-432 707l434 671h-246l-321 -524l-324 524h-237l430 -673z" />
<glyph unicode="Y" horiz-adv-x="1351" d="M27 1473h366l266 -517q35 -66 41 -122q4 53 39 124l244 515h342l-473 -924v-549h-305v549zM109 1425l489 -868v-510h203v506l446 872h-231l-316 -657l-338 657h-253z" />
<glyph unicode="Z" horiz-adv-x="1243" d="M61 0v256l695 885q37 47 75 76q-72 -10 -122 -11h-629v267h1100v-256l-699 -893q-4 -6 -63 -66q47 8 106 8h654v-266h-1117zM115 47h1011v172h-790l790 1008v198h-995v-172h774l-790 -1009v-197z" />
<glyph unicode="[" horiz-adv-x="667" d="M121 -436v1909h500v-213h-230v-1483h230v-213h-500zM172 -389h397v119h-229v1577h229v118h-397v-1814z" />
<glyph unicode="\" horiz-adv-x="557" d="M-55 1473h196l494 -1663h-197zM8 1425l465 -1568h100l-467 1568h-98z" />
<glyph unicode="]" horiz-adv-x="667" d="M51 -223h230v1483h-230v213h500v-1909h-500v213zM102 -270v-119h398v1814h-398v-118h230v-1577h-230z" />
<glyph unicode="^" horiz-adv-x="2048" d="M426 903l547 553h98l549 -553h-109l-487 483l-489 -483h-109z" />
<glyph unicode="_" horiz-adv-x="1024" d="M0 -422h1024v-61h-1024v61z" />
<glyph unicode="`" horiz-adv-x="1024" d="M115 1526h350l229 -328h-194zM233 1483l285 -242h90l-170 242h-205z" />
<glyph unicode="a" horiz-adv-x="1120" d="M70 307q0 287 325 342q57 10 126 18.5t98.5 12.5t60.5 14.5t41 26.5t10 45q0 72 -32.5 102.5t-135.5 30.5q-94 0 -138 -31.5t-44 -103.5v-16h-272v20q0 170 118.5 264t337.5 94q213 0 331 -80.5t118 -226.5v-618q0 -119 61 -152v-49h-303q-25 53 -24 92v17 q-129 -147 -357 -148q-150 0 -235.5 90t-85.5 256zM123 307q0 -145 76.5 -222t218.5 -77q202 1 360 189q0 -104 23 -150h211q-51 35 -51 154v608q0 129 -102.5 199.5t-291.5 70.5q-186 0 -294.5 -77.5t-108.5 -204.5v-6h168q20 155 230 155h3q117 0 168 -40t51 -126 q0 -88 -56 -115.5t-239 -52.5q-193 -27 -279.5 -91t-86.5 -214zM307 324q0 123 158 161q18 4 76.5 12.5t120 23.5t122.5 42v-110q0 -133 -79.5 -203t-215.5 -70q-86 0 -134 38t-48 106zM356 328q0 -47 38 -75t102 -28q100 0 169.5 54.5t69.5 140.5v80q-63 -20 -147 -38 t-126 -26t-74 -34.5t-32 -73.5z" />
<glyph unicode="b" horiz-adv-x="1243" d="M121 0v1473h282v-406q0 -14 -14 -78q117 137 311 137q219 0 346.5 -152.5t127.5 -422.5q0 -276 -128 -432t-348 -156q-195 0 -311 135q8 -31 8 -53v-45h-274zM172 45h174v154q82 -100 162 -145.5t184 -45.5q199 0 314.5 144.5t115.5 398.5q0 246 -113.5 387t-304 141 t-352.5 -176v522h-180v-1380zM352 541q0 180 78 277t215 97q129 0 208 -99t79 -265q0 -180 -76 -282.5t-205 -102.5q-139 0 -219 98.5t-80 276.5zM406 543q0 -156 64.5 -242t176.5 -86q106 0 169 89t63 247q0 145 -63.5 231t-170.5 86h-1q-238 0 -238 -325z" />
<glyph unicode="c" horiz-adv-x="1120" d="M61 545q0 272 138.5 426.5t378.5 154.5q213 0 341 -113.5t140 -310.5h-287q-25 176 -199 177q-208 0 -208 -335q0 -159 54 -243t156 -84q88 0 135.5 46.5t63.5 146.5h289q-14 -201 -150.5 -324t-343.5 -123q-238 0 -373 153.5t-135 428.5zM113 543q0 -248 120.5 -391.5 t319.5 -143.5q186 0 306 95t147 259h-191q-20 -92 -82.5 -142t-157.5 -50q-127 0 -195.5 96t-68.5 275q0 188 67.5 286.5t196.5 98.5q197 0 238 -176h191q-27 152 -139.5 240.5t-286.5 88.5q-217 0 -341 -141t-124 -395z" />
<glyph unicode="d" horiz-adv-x="1243" d="M74 551q0 270 127 422.5t346 152.5q195 0 311 -137q-14 63 -14 78v406h282v-1473h-272v45q0 22 8 53q-117 -135 -311 -135q-219 0 -348 156.5t-129 431.5zM127 551q0 -254 115.5 -398.5t314.5 -144.5q104 0 183 45.5t161 145.5v-154h174v1380h-180v-522 q-162 176 -352 176q-188 0 -302 -141t-114 -387zM315 551q0 168 78 266t209 98q137 0 215 -97t78 -277q0 -178 -80 -276.5t-217 -98.5q-129 0 -206 102.5t-77 282.5zM369 551q0 -158 62.5 -247t168.5 -89q111 0 177.5 87t66.5 241q0 162 -62.5 243.5t-179.5 81.5 q-106 0 -169.5 -86t-63.5 -231z" />
<glyph unicode="e" horiz-adv-x="1167" d="M68 551q0 266 137 420.5t373 154.5q248 0 384 -150.5t136 -428.5q0 -31 -4 -92h-723q10 -246 231 -246q166 0 191 121h288q-29 -162 -166 -264.5t-335 -102.5q-233 0 -372.5 156.5t-139.5 431.5zM123 551q0 -254 124 -398.5t333 -144.5q160 0 276.5 76t159.5 199h-193 q-10 -51 -71.5 -86t-149.5 -35q-287 0 -287 334v6h727v43q0 258 -121.5 396t-342.5 138q-211 0 -333 -140t-122 -388zM319 612v25q0 133 72 212t191 79q131 0 200.5 -78t69.5 -225v-13h-533zM373 657h426q-2 109 -57.5 167.5t-154 58.5t-156.5 -61t-58 -165z" />
<glyph unicode="f" horiz-adv-x="649" d="M8 870v217h156v101q0 295 307 295q25 0 50.5 -1t57 -3t50.5 -2v-232h-76q-61 0 -84 -15.5t-23 -66.5v-76h183v-217h-180v-870h-285v870h-156zM59 918h156v-873h182v873h181v124h-181v129q0 63 30 91t103 28h45v142q-74 4 -98 4q-141 0 -201.5 -61.5t-60.5 -200.5v-132 h-156v-124z" />
<glyph unicode="g" horiz-adv-x="1224" d="M74 555q0 264 128 417.5t335 153.5q121 0 209 -39.5t124 -105.5q-12 47 -12 63v43h268v-1036q0 -258 -122.5 -376.5t-419.5 -118.5q-213 0 -336 88t-146 252h322q6 -111 174 -111q131 0 189.5 49t58.5 158v45q0 14 12 92q-117 -131 -319 -131q-211 0 -338 148.5 t-127 408.5zM127 555q0 -238 113.5 -376t300.5 -138q184 0 352 160v-201q0 -260 -299 -260q-86 0 -140.5 29.5t-64.5 78.5h-223q29 -117 139.5 -182t284.5 -65q252 0 368.5 96t116.5 301v1046h-174v-141q-145 178 -362 178q-182 0 -297 -141t-115 -385zM315 549 q0 174 77 273.5t206 99.5q137 0 217 -95.5t80 -267.5q0 -174 -78 -268t-215 -94q-131 0 -209 95t-78 257zM369 551q0 -141 63.5 -223t167.5 -82q242 0 242 313q0 150 -64.5 232.5t-177.5 82.5q-106 0 -168.5 -85.5t-62.5 -237.5z" />
<glyph unicode="h" horiz-adv-x="1222" d="M127 0v1473h291v-373q0 -78 -10 -125q111 141 313 141q180 0 279.5 -89t99.5 -249v-778h-291v651q0 117 -36 170t-128 53q-227 0 -227 -344v-530h-291zM178 47h189v459q0 416 280 416q117 0 165 -67t48 -206v-602h189v731q0 137 -87.5 214t-240.5 77q-236 0 -354 -211 v567h-189v-1378z" />
<glyph unicode="i" horiz-adv-x="557" d="M133 0v1087h291v-1087h-291zM133 1208v265h291v-265h-291zM184 45h189v997h-189v-997zM184 1253h189v172h-189v-172z" />
<glyph unicode="j" horiz-adv-x="557" d="M6 -201h57q47 0 58.5 25.5t11.5 99.5v1163h291v-1261q0 -137 -77 -203.5t-234 -66.5h-107v243zM57 -244v-153h43q141 0 207 52t66 171v1216h-189v-1101q0 -76 -5 -108t-32.5 -54.5t-89.5 -22.5zM133 1208v262h291v-262h-291zM184 1253h189v168h-189v-168z" />
<glyph unicode="k" d="M115 0v1473h284v-685q0 -66 -16 -124q29 55 78 108l282 315h351l-379 -403l401 -684h-348l-229 412q-25 51 -27 69q-8 -16 -41 -57l-72 -80v-344h-284zM166 47h182v313l170 185l283 -498h170q45 0 82 -12q-18 14 -60 80l-338 575l299 316q33 33 62 49q-55 -12 -76 -13 h-172l-420 -475v858h-182v-1378z" />
<glyph unicode="l" horiz-adv-x="557" d="M133 0v1473h291v-1473h-291zM184 47h189v1378h-189v-1378z" />
<glyph unicode="m" horiz-adv-x="1792" d="M123 0v1087h274v-69q0 -18 -8 -60q100 158 318 158q182 0 272 -135q143 135 336 135q162 0 259 -95t97 -261v-760h-287v700q0 80 -43 123t-118 43q-84 0 -134.5 -55t-50.5 -152v-659h-284v698q0 166 -140 166q-113 0 -157.5 -79.5t-44.5 -254.5v-530h-289zM174 47h186 v492q0 372 253 372h1q102 0 146.5 -58t44.5 -179v-627h182v606q0 123 63.5 191.5t174.5 68.5q100 0 155.5 -54t55.5 -154v-658h184v735q0 131 -87 209t-235 78q-94 0 -168.5 -37t-160.5 -121q-53 84 -115.5 120t-155.5 36q-201 0 -348 -207v182h-176v-995z" />
<glyph unicode="n" horiz-adv-x="1222" d="M127 0v1087h276v-69q0 -29 -6 -60q113 158 324 158q180 0 279.5 -89t99.5 -249v-778h-291v651q0 117 -36 170t-128 53q-227 0 -227 -344v-530h-291zM178 47h189v459q0 416 280 416q117 0 165 -67t48 -206v-602h189v731q0 137 -87.5 214t-240.5 77q-115 0 -201 -50 t-164 -161v184h-178v-995z" />
<glyph unicode="o" horiz-adv-x="1245" d="M72 544.5q0 270.5 146.5 426t404.5 155.5t404.5 -155.5t146.5 -426t-146.5 -426t-404.5 -155.5t-404.5 155.5t-146.5 426zM123 545q0 -252 133 -394.5t367 -142.5q236 0 366.5 140.5t130.5 396.5t-131 395t-366.5 139t-367.5 -140t-132 -394zM317 542.5q0 184.5 80 285 t225.5 100.5t225.5 -101.5t80 -283.5q0 -184 -79 -283.5t-226.5 -99.5t-226.5 99t-79 283.5zM369 545q0 -164 65.5 -251t188 -87t188.5 87t66 251q0 162 -67 249t-187 87q-123 0 -188.5 -86t-65.5 -250z" />
<glyph unicode="p" horiz-adv-x="1243" d="M121 -436v1523h272v-45q0 -20 -8 -51q117 135 313 135q219 0 347.5 -156.5t128.5 -432.5q0 -270 -127 -422t-347 -152q-195 0 -311 137q14 -63 14 -80v-456h-282zM172 -389h180v575q164 -178 352.5 -178t302 141.5t113.5 387.5q0 254 -115.5 398t-314.5 144 q-104 0 -183 -44t-161 -144v151h-174v-1431zM352 547q0 178 79 276.5t218 98.5q129 0 206 -102.5t77 -282.5q0 -166 -79 -264.5t-208 -98.5q-139 0 -216 96.5t-77 276.5zM403 547q0 -162 62.5 -245t179.5 -83q106 0 170 87t64 233q0 158 -62.5 246.5t-169.5 88.5 q-113 0 -178.5 -85.5t-65.5 -241.5z" />
<glyph unicode="q" horiz-adv-x="1243" d="M74 537q0 276 128 432.5t347 156.5q195 0 311 -135q-8 31 -8 51v45h274v-1523h-284v456q0 8 16 80q-117 -137 -311 -137q-219 0 -346 151.5t-127 422.5zM127 537q0 -246 113.5 -387.5t302.5 -141.5q190 0 350 178v-575h182v1431h-174v-151q-82 100 -162 144t-184 44 q-199 0 -313.5 -144t-114.5 -398zM315 537q0 180 77 282.5t206 102.5q137 0 216 -98.5t79 -276.5q0 -180 -77 -276.5t-214 -96.5q-131 0 -209 98.5t-78 264.5zM369 539q0 -145 63.5 -232.5t169.5 -87.5q117 0 178.5 83t61.5 245q0 154 -65.5 240.5t-176.5 86.5 q-106 0 -168.5 -88.5t-62.5 -246.5z" />
<glyph unicode="r" horiz-adv-x="774" d="M115 0v1087h276v-69q0 -18 -8 -60q47 74 125 116t166 42h67v-295h-96q-123 0 -181 -58t-58 -188v-575h-291zM166 45h188v528q0 141 72 218t205 77h57v199h-10q-207 0 -326 -223v198h-186v-997z" />
<glyph unicode="s" d="M66 346v8h290q6 -164 240 -164q166 0 166 109q0 20 -5 34.5t-18.5 25t-27 17.5t-41 15t-51 13.5t-66.5 14.5t-78 17q-199 49 -288 123t-89 205q0 166 120 264t327 98q215 0 340 -98t135 -272h-283q-4 70 -53 107.5t-137 37.5q-164 0 -164 -100q0 -47 48 -67.5t192 -53.5 q37 -8 57 -12q199 -45 287 -115t88 -211q0 -184 -130 -281.5t-380 -97.5q-227 0 -353 101.5t-126 281.5zM121 307q4 -131 118.5 -214t307.5 -83q221 0 337.5 84t116.5 240q0 121 -68.5 181t-230.5 99q-33 8 -78.5 18.5t-70.5 15.5t-58.5 14.5t-51 15.5t-40 15t-34 19.5 t-21.5 23t-14 28.5t-4 35q0 149 212 149h3q96 0 158.5 -40t76.5 -105h183q-23 129 -132.5 201.5t-285.5 72.5q-182 0 -287.5 -84t-105.5 -227q0 -106 71.5 -171t227.5 -101q35 -8 94 -21.5t83.5 -20t63.5 -17.5t55.5 -21.5t35 -27.5t24.5 -37.5t6 -49.5q0 -156 -223 -156 q-238 0 -279 164h-190z" />
<glyph unicode="t" horiz-adv-x="661" d="M10 870v217h144v297h288v-297h168v-217h-168v-563q0 -68 15.5 -82t81.5 -14h71v-219q-29 0 -86 -3t-80 -3q-178 0 -234 68.5t-56 240.5v575h-144zM63 915h142v-618q0 -152 47 -208t209 -56q26 0 96 4v125h-41q-84 0 -104.5 37t-20.5 141v575h170v123h-170v299h-186v-299 h-142v-123z" />
<glyph unicode="u" horiz-adv-x="1222" d="M123 301v786h291v-659q0 -117 35.5 -170t128.5 -53q229 0 229 344v538h289v-1087h-277v61q0 29 6 60q-113 -158 -323 -158q-180 0 -279.5 89t-99.5 249zM174 301q0 -137 88 -214t240 -77q119 0 205.5 54.5t158.5 171.5v-189h178v995h-186v-469q0 -415 -282 -415h-1 q-117 0 -165 65.5t-48 204.5v614h-188v-741z" />
<glyph unicode="v" horiz-adv-x="1114" d="M18 1087h322l203 -585q16 -45 22 -105q8 61 23 103l200 587h306l-387 -1087h-297zM86 1042l358 -995h228l356 995h-203l-260 -749l-260 749h-219z" />
<glyph unicode="w" horiz-adv-x="1566" d="M14 1087h310l135 -516q25 -98 28 -172q14 100 33 170l144 518h237l141 -516q27 -92 35 -172q8 76 31 168l133 520h309l-307 -1087h-289l-139 485q-27 96 -33 179q-6 -70 -37 -179l-135 -485h-288zM78 1042l280 -995h215l209 707l209 -707h215l281 995h-209l-201 -725 l-215 725h-160l-215 -725l-200 725h-209z" />
<glyph unicode="x" horiz-adv-x="1114" d="M20 0l367 555l-350 532h346l156 -256q20 -33 22 -65q2 29 23 65l153 256h336l-344 -528l365 -559h-355l-164 274q-10 20 -18 58q-10 -41 -20 -56l-168 -276h-349zM109 47h231l217 348l211 -348h240l-336 512l315 483h-221l-205 -337l-207 337h-227l319 -487z" />
<glyph unicode="y" horiz-adv-x="1120" d="M20 1087h320l203 -618q18 -55 26 -123q12 72 29 125l195 616h305l-445 -1282q-49 -141 -121.5 -195t-228.5 -54q-57 0 -123 8v235h103q74 0 104.5 28t30.5 97q0 53 -19 103zM88 1042l358 -1013q18 -55 19 -105q0 -172 -172 -172h-62v-145q49 -6 78 -6q129 0 190.5 46 t102.5 165l428 1230h-201l-260 -817l-266 817h-215z" />
<glyph unicode="z" horiz-adv-x="997" d="M27 0v223l518 596q31 35 65 49q-41 -12 -92 -12h-457v231h867v-237l-504 -576q-27 -31 -59 -45q33 12 75 13h508v-242h-921zM78 45h817v150h-604l583 667v180h-761v-141h575l-610 -694v-162z" />
<glyph unicode="{" horiz-adv-x="1024" d="M180 494v73q18 -2 51 -2q141 0 198.5 66.5t57.5 224.5v238q0 219 63.5 301t260.5 82h33v-70h-37q-145 0 -191.5 -57.5t-46.5 -216.5v-242q0 -164 -37.5 -244t-154.5 -117q117 -37 154.5 -116.5t37.5 -243.5v-242q0 -160 46.5 -217t191.5 -57h37v-68h-33q-197 0 -260.5 81 t-63.5 300v238q0 160 -58 225.5t-204 65.5q-6 0 -21.5 -1t-23.5 -1z" />
<glyph unicode="|" horiz-adv-x="1024" d="M475 -483v2048h74v-2048h-74z" />
<glyph unicode="}" horiz-adv-x="1024" d="M182 -344h39q145 0 189.5 56.5t44.5 215.5v242q0 164 38.5 244t155.5 116q-117 37 -155.5 117t-38.5 244v242q0 162 -45 218t-191 56h-37v70h33q195 0 258.5 -82t63.5 -301v-238q0 -158 57 -224.5t201 -66.5q33 0 51 2v-73q-8 0 -23.5 1t-21.5 1q-147 0 -205.5 -65.5 t-58.5 -225.5v-238q0 -219 -63.5 -300t-258.5 -81h-33v70z" />
<glyph unicode="~" horiz-adv-x="1705" d="M178 489v74q205 150 387 150q82 0 193 -39q29 -10 96.5 -35t102 -36t88 -22.5t98.5 -11.5q158 0 387 160v-72q-211 -150 -387 -149q-106 0 -289 67q-8 2 -48 17.5t-51.5 19.5t-44 14.5t-51 13.5t-44 7t-50.5 4q-154 0 -387 -162z" />
<glyph unicode="&#xa1;" horiz-adv-x="665" d="M215 0v397l78 666h151l78 -666v-397h-307zM219 1178v295h299v-295h-299zM268 49h201v357l-70 612h-61l-70 -612v-357zM274 1223h191v202h-191v-202z" />
<glyph unicode="&#xa2;" d="M61 543q0 274 139.5 427.5t387.5 153.5q33 0 49 -2l43 162h192l-57 -207q238 -117 244 -375h-279q-6 53 -39 111l-168 -606h17q164 0 194 203h279q-23 -211 -154 -329t-346 -118q-39 0 -57 2l-57 -211h-193l72 260q-266 141 -267 529zM113 543q0 -381 270 -500l-68 -242 h97l59 213q49 -4 109 -4q164 0 281.5 96t144.5 256h-183q-43 -203 -237 -202q-6 0 -72 4l205 737q86 -66 100 -151h185q-25 213 -244 299l53 188h-96l-47 -164q-57 4 -109 4q-207 0 -327.5 -142t-120.5 -392zM301 541q0 190 69.5 292.5t194.5 102.5q29 0 66 -4l-203 -731 q-127 109 -127 340zM352 543q1 -162 56 -244l161 586q-4 0 -10 1t-10 1q-92 0 -144.5 -90t-52.5 -254z" />
<glyph unicode="&#xa3;" d="M45 170q117 82 169 150.5t52 154.5q0 61 -33 139h-188v185h92q-70 145 -69 252q0 172 129 286.5t348 114.5q231 0 363 -121t145 -342h-279q-8 115 -64.5 176.5t-154.5 61.5q-94 0 -145.5 -51.5t-51.5 -143.5q0 -23 8.5 -52.5t16.5 -50t28.5 -65.5t30.5 -65h299v-185h-233 q10 -55 10 -94q0 -170 -162 -297q94 41 176 41q53 0 142.5 -24.5t128.5 -24.5q96 0 194 68l88 -222q-170 -102 -307 -102q-70 0 -198.5 41t-196.5 41q-117 0 -223 -82zM96 659h170q51 -96 51 -180q0 -90 -50 -164.5t-161 -160.5l70 -134q94 68 215 68q59 0 188.5 -41 t204.5 -41q109 0 240 74l-53 137q-78 -49 -168 -49q-39 0 -128 24.5t-143 24.5q-80 0 -270 -53q106 111 155.5 191.5t49.5 162.5q0 57 -23 141h244v93h-280q-8 18 -30 63t-30 63.5t-21.5 51.5t-17.5 58.5t-4 51.5q0 109 65.5 171.5t184.5 62.5q113 0 183.5 -62.5 t86.5 -177.5h168q-23 180 -139.5 275.5t-311 95.5t-309 -99.5t-114.5 -250.5q0 -102 100 -303h-123v-93z" />
<glyph unicode="&#xa4;" d="M-29 487h191q10 -133 36.5 -225t81 -162.5t147.5 -105.5t230 -35q143 0 238.5 36t145 105.5t68.5 149.5t21 192h-303q-4 -119 -41 -180t-137 -61q-184 0 -196 286h268l51 166h-321v99h350l51 166h-399q6 139 48 215.5t148 76.5q100 0 136 -60t40 -179h303 q-2 113 -21.5 191.5t-67.5 149t-143 105.5t-239 35q-260 0 -368.5 -127t-126.5 -407h-117l-51 -166h162v-99h-133zM37 535l22 71h148v99q0 51 2 94h-150l23 71h129q6 137 25.5 228.5t67.5 165t135 107.5t218 34q217 0 312.5 -95.5t105.5 -291.5h-205q-14 238 -219 237 q-74 0 -124 -28.5t-76.5 -84t-38 -118.5t-13.5 -154h387l-22 -71h-367v-193h310l-23 -71h-285q2 -82 13.5 -144.5t37 -119t76.5 -86t125 -29.5q207 0 221 237h205q-10 -195 -106.5 -291t-313.5 -96q-115 0 -196.5 30t-126.5 74t-73 120.5t-37 140t-15 164.5h-172z" />
<glyph unicode="&#xa5;" horiz-adv-x="1351" d="M53 1411h353l253 -496q35 -70 39 -114q4 53 37 117l236 493h327l-360 -702h311v-183h-405v-526h-291v526h-416v183h312zM135 1366l393 -704h-340v-89h394l22 -38v-488h191v485l22 41h381v89h-338l363 704h-222l-303 -631l-321 631h-242z" />
<glyph unicode="&#xa6;" horiz-adv-x="1024" d="M475 -350v758h74v-758h-74zM475 674v758h74v-758h-74z" />
<glyph unicode="&#xa7;" horiz-adv-x="1024" d="M53 692q0 180 180 271q-106 80 -106 211q0 154 102.5 246.5t274.5 92.5q176 0 277.5 -92t101.5 -252h-236q-4 139 -147 140q-129 0 -129 -103q0 -43 36.5 -72.5t145.5 -84.5l164 -84q137 -70 195.5 -133.5t58.5 -167.5q0 -98 -52.5 -170t-144.5 -95q135 -80 135 -249 q0 -152 -107.5 -252.5t-283.5 -100.5q-190 0 -294.5 94.5t-108.5 270.5h247q14 -156 155.5 -156t141.5 123q0 29 -9 49.5t-43 44t-57.5 35.5t-92.5 47l-178 90q-225 113 -226 297zM104 696q0 -154 183 -247l149 -80q27 -14 75 -39t69.5 -36t52.5 -31.5t44 -37t23.5 -42 t10.5 -54.5q0 -80 -51.5 -125t-141.5 -45q-168 0 -201 156h-147q14 -129 103 -201t243 -72t249 91.5t95 220.5q0 147 -143 247q104 53 152.5 113.5t48.5 142.5q0 98 -48.5 148.5t-167.5 112.5l-145 75q-158 82 -190 111q-49 43 -50 102q0 68 48.5 108t132.5 40q82 0 135 -38 t57 -99h139q-16 117 -100 182t-225 65q-150 0 -238 -79.5t-88 -210.5q0 -121 111 -211q-96 -66 -140.5 -127.5t-44.5 -139.5zM225 743q0 96 131 179l277 -146q82 -43 117.5 -80t35.5 -90q0 -88 -137 -170l-233 121q-129 68 -158 98q-33 37 -33 88zM276 752q0 -33 21.5 -58.5 t47.5 -42t91 -49.5l213 -110q84 53 84 114q0 41 -28.5 68.5t-96.5 62.5l-252 129q-80 -53 -80 -114z" />
<glyph unicode="&#xa8;" horiz-adv-x="1024" d="M231 1223v235h220v-235h-220zM281 1264h120v151h-120v-151zM573 1223v235h220v-235h-220zM621 1264h122v151h-122v-151z" />
<glyph unicode="&#xa9;" horiz-adv-x="1705" d="M125 719q0 297 215 516q207 211 512 211t518 -213q211 -211 211 -514q0 -307 -209 -512q-221 -217 -520 -217q-297 0 -512 215t-215 514zM188 719q0 -270 197 -467q199 -199 467 -199t473 201q193 186 193 465q0 276 -193 469q-194 194 -473 194q-276 0 -465 -192 q-199 -203 -199 -471zM475 717q0 213 105.5 335t279.5 122q127 0 217.5 -69.5t104.5 -182.5h-80q-23 88 -88.5 137t-159.5 49q-135 0 -213 -102.5t-78 -288.5q0 -178 80 -281.5t211 -103.5q100 0 173 57t89 152h74q-10 -121 -107.5 -199t-236.5 -78q-168 0 -269.5 122 t-101.5 331z" />
<glyph unicode="&#xaa;" horiz-adv-x="839" d="M53 926q0 201 244 239q43 6 94 12.5t73.5 9.5t46.5 9t31 18.5t7 32.5q0 51 -24.5 71.5t-102.5 20.5q-70 0 -102.5 -21.5t-32.5 -72.5v-12h-205v14q0 119 89 185.5t253 66.5q160 0 248 -56.5t88 -158.5v-432q0 -82 47 -107v-34h-227q-18 37 -19 63v12q-96 -102 -268 -102 q-111 0 -175.5 62.5t-64.5 179.5zM92 926q0 -102 57.5 -155.5t163.5 -53.5q156 0 271 131q0 -70 16 -105h160q-39 23 -39 109v424q0 90 -78 140t-217 50t-221 -54t-82 -144v-4h127q14 109 174 108q88 0 126 -27.5t38 -87.5q0 -61 -42 -80.5t-179 -37.5q-143 -18 -209 -63.5 t-66 -149.5zM231 938q0 86 117 113q10 2 56.5 7t92.5 16.5t91 29.5v-76q0 -94 -59.5 -142t-161.5 -48q-135 0 -136 100zM268 940q0 -33 28 -52.5t77 -19.5q74 0 126 38t52 98v57q-53 -16 -137 -30.5t-115 -32t-31 -58.5z" />
<glyph unicode="&#xab;" horiz-adv-x="1112" d="M133 438v211l361 312v-271l-168 -145l168 -148v-270zM186 457l265 -232v150l-168 141v55l168 142v149l-265 -231v-174zM575 438v211l361 312v-271l-168 -145l168 -148v-270zM629 457l264 -232v150l-166 141v55l166 142v149l-264 -231v-174z" />
<glyph unicode="&#xac;" horiz-adv-x="1705" d="M254 793v61h1198v-502h-61v441h-1137z" />
<glyph unicode="&#xad;" horiz-adv-x="661" d="M51 408v274h559v-274h-559zM102 453h457v182h-457v-182z" />
<glyph unicode="&#xae;" horiz-adv-x="1705" d="M125 719q0 297 215 516q207 211 512 211q303 0 518 -211q211 -211 211 -516t-209 -510q-223 -219 -520 -219t-512 215t-215 514zM188 719q0 -268 199 -467t465 -199q270 0 475 201q190 186 191 465q0 274 -195 469q-199 194 -471 194q-279 0 -467 -192 q-197 -201 -197 -471zM573 305v850h304q178 0 262 -55.5t84 -179.5q0 -86 -56.5 -146.5t-150.5 -71.5l192 -397h-104l-182 383h-260v-383h-89zM662 760h190q147 0 207.5 33.5t60.5 132.5q0 84 -65.5 120.5t-200.5 36.5h-192v-323z" />
<glyph unicode="&#xaf;" horiz-adv-x="1024" d="M231 1303v174h562v-174h-562zM279 1346h464v88h-464v-88z" />
<glyph unicode="&#xb0;" horiz-adv-x="673" d="M68 1177.5q0 112.5 79.5 191.5t190.5 79q109 0 188.5 -79t79.5 -191q0 -111 -78.5 -190t-191.5 -79t-190.5 78t-77.5 190.5zM119 1177.5q0 -92.5 64.5 -156t154.5 -63.5q92 0 154.5 63.5t62.5 156.5q0 90 -63.5 154.5t-153.5 64.5t-154.5 -63.5t-64.5 -156z" />
<glyph unicode="&#xb1;" horiz-adv-x="1705" d="M254 72v61h1198v-61h-1198zM254 733v62h569v356h62v-356h567v-62h-567v-358h-62v358h-569z" />
<glyph unicode="&#xb2;" horiz-adv-x="737" d="M41 565q4 117 62.5 191.5t189.5 163.5q12 8 43 28.5t40 27.5t32.5 24.5t30.5 25.5t21.5 24.5t18.5 29t8.5 29.5t4.5 36q0 141 -136 141q-66 0 -95.5 -39t-29.5 -125v-6h-186v12q0 307 313 308q150 0 239 -77t89 -202q0 -92 -48 -160.5t-151 -138.5q-33 -23 -86 -54.5 t-79.5 -52t-38.5 -40.5h403v-146h-645zM78 594h573v90h-411q0 20 8 35.5t29.5 34t38 30t58.5 38t64 40.5q111 70 161 136.5t50 158.5q0 113 -77.5 182.5t-211.5 69.5q-274 0 -278 -264h117q8 168 157 168q170 0 170 -166q0 -41 -10 -69.5t-45 -61.5t-55.5 -46.5t-85.5 -58.5 q-84 -55 -126 -91t-80 -94t-46 -132z" />
<glyph unicode="&#xb3;" horiz-adv-x="737" d="M37 825v6h182q0 -147 141 -147q61 0 96.5 33t35.5 92q0 74 -40 106.5t-130 32.5h-37v121h20q86 0 124 27.5t38 91.5q0 111 -123 110q-119 0 -119 -120v-19h-180q4 135 81 206t220 71t227 -64.5t84 -171.5q0 -123 -114 -172q70 -20 108.5 -75.5t38.5 -135.5 q0 -123 -90 -199.5t-244 -76.5q-152 0 -235.5 73.5t-83.5 210.5zM74 803q8 -113 80.5 -173.5t201.5 -60.5q135 0 217 68t82 178q0 143 -155 213q125 61 125 170q0 94 -76 152.5t-203 58.5q-123 0 -192.5 -57.5t-71.5 -163.5h111q2 66 41.5 101.5t109.5 35.5q74 0 116 -36 t42 -101q0 -74 -43 -109t-140 -39v-65h17q190 0 190 -156q0 -164 -170 -164q-147 0 -170 148h-112z" />
<glyph unicode="&#xb4;" horiz-adv-x="1024" d="M330 1198l229 328h350l-385 -328h-194zM416 1241h90l285 242h-205z" />
<glyph unicode="&#xb6;" horiz-adv-x="1024" d="M98 1130q0 156 108 252.5t288 96.5h432v-58h-133v-1421h-58v1421h-198v-1421h-58v782q-178 8 -279.5 102.5t-101.5 245.5z" />
<glyph unicode="&#xb7;" horiz-adv-x="559" d="M119 702q0 63 45 109.5t110.5 46.5t110.5 -45t45 -111q0 -63 -45 -109t-110.5 -46t-110.5 44.5t-45 110.5zM164 702.5q0 -45.5 32.5 -77t77.5 -31.5q47 0 78 31.5t31 77t-32 77t-77 31.5t-77.5 -31.5t-32.5 -77z" />
<glyph unicode="&#xb8;" horiz-adv-x="1024" d="M270 -299q117 -43 269 -43q82 0 82 55q0 29 -28 40t-91 11q-8 0 -27.5 -1t-32.5 -1v129h146q236 0 235 -180q0 -193 -276 -192q-104 0 -277 41v141zM317 -354v-52q123 -33 232 -32q227 0 227 147q0 82 -56 113t-175 31h-56v-50h23q150 0 150 -90q0 -96 -138 -96 q-88 0 -207 29z" />
<glyph unicode="&#xb9;" horiz-adv-x="737" d="M82 1161v121h8q127 0 183.5 34t68.5 120h152v-871h-187v596h-225zM115 1190h227v-598h117v817h-84q-23 -84 -82.5 -118t-177.5 -36v-65z" />
<glyph unicode="&#xba;" horiz-adv-x="933" d="M53 1091.5q0 188.5 110.5 298t303 109.5t303.5 -109.5t111 -298t-111 -298t-303.5 -109.5t-303 109.5t-110.5 298zM92 1092q0 -176 100.5 -275.5t274.5 -99.5q176 0 274.5 98t98.5 276.5t-98.5 276.5t-274.5 98t-275.5 -98t-99.5 -276zM238 1090q0 129 60 199.5 t168.5 70.5t169 -70.5t60.5 -199.5q0 -127 -59 -197t-170 -70t-170 69t-59 198zM276 1091.5q0 -114.5 49.5 -175t141.5 -60.5t141 60.5t49 175.5q0 113 -50 174t-140 61q-92 0 -141.5 -60.5t-49.5 -175z" />
<glyph unicode="&#xbb;" horiz-adv-x="1112" d="M170 127v270l170 148l-170 145v271l360 -312v-211zM213 225l264 232v174l-264 231v-149l168 -142v-55l-168 -141v-150zM614 127v270l168 148l-168 145v271l359 -312v-211zM657 225l265 232v174l-265 231v-149l166 -142v-55l-166 -141v-150z" />
<glyph unicode="&#xbc;" horiz-adv-x="1751" d="M80 1178v112h8q121 0 175 31t65 113h145v-813h-178v557h-215zM113 1202h215v-557h112v764h-82q-20 -80 -76.5 -110.5t-168.5 -34.5v-62zM342 -41l854 1473h211l-854 -1473h-211zM416 0h108l811 1391h-108zM1079 176v143l314 472h223v-486h100v-129h-100v-176h-174v176 h-363zM1110 203h365v-178h108v178h100v76h-100v487h-170l-303 -453v-110zM1194 279l281 419v-419h-281zM1247 305h195v178q0 94 14 152q-23 -45 -49 -86z" />
<glyph unicode="&#xbd;" horiz-adv-x="1751" d="M80 1178v112h8q121 0 175 31t65 113h145v-813h-178v557h-215zM113 1202h215v-557h112v764h-82q-20 -80 -76.5 -110.5t-168.5 -34.5v-62zM342 -41l854 1473h211l-854 -1473h-211zM416 0h108l811 1391h-108zM1085 0q4 109 60.5 179.5t179.5 152.5q12 8 46 29.5t44 28.5 t32.5 24.5t30 28t19.5 27.5t15.5 33.5t3.5 37.5q0 133 -130 133q-119 0 -118 -154v-6h-178v10q0 289 299 289q141 0 226 -71.5t85 -190.5q0 -86 -45 -148.5t-144 -130.5q-29 -18 -81 -50t-76.5 -49t-36.5 -36h385v-137h-617zM1120 27h549v84h-393q0 18 7 33.5t28.5 33 t36 27.5t55.5 34.5t61 36.5q106 68 154.5 129.5t48.5 145.5q0 106 -74.5 170.5t-201.5 64.5q-262 0 -267 -245h113q6 158 149 157q162 0 162 -155q0 -49 -27.5 -90t-52 -59.5t-106.5 -72t-122 -85t-77 -86.5t-43 -123z" />
<glyph unicode="&#xbe;" horiz-adv-x="1751" d="M37 864v6h172q0 -139 135 -139q125 0 125 117q0 70 -39 100.5t-123 30.5q-23 0 -37 -2v115h21q82 0 117.5 24.5t35.5 83.5q0 104 -114.5 104.5t-114.5 -112.5v-16h-172q2 125 76 191.5t211 66.5t218 -60.5t81 -159.5q0 -115 -111 -161q66 -18 103.5 -69.5t37.5 -127.5 q0 -115 -87 -186.5t-232 -71.5t-224 69.5t-79 196.5zM72 844q6 -106 74.5 -162.5t193.5 -56.5q131 0 209 62.5t78 166.5q0 135 -150 199q119 57 119 157q0 90 -71.5 143.5t-194.5 53.5q-117 0 -183.5 -53.5t-68.5 -153.5h104q2 61 41 96t105 35q72 0 111.5 -33.5t39.5 -95.5 q0 -70 -42 -101.5t-132 -35.5v-61h14q184 0 185 -148q0 -74 -43 -112.5t-121 -38.5q-143 0 -162 139h-106zM342 -41l854 1473h211l-854 -1473h-211zM416 0h108l811 1391h-108zM1079 176v143l314 472h223v-486h100v-129h-100v-176h-174v176h-363zM1110 203h365v-178h108v178 h100v76h-100v487h-170l-303 -453v-110zM1194 279l281 419v-419h-281zM1247 305h195v178q0 94 14 152q-23 -45 -49 -86z" />
<glyph unicode="&#xbf;" horiz-adv-x="1220" d="M139 389q0 152 88 254q35 39 115 100.5t92 71.5q41 35 55.5 71t14.5 93q0 6 -1 21.5t-1 23.5h268v-59q0 -88 -18.5 -147.5t-73.5 -117.5q-31 -31 -101.5 -85t-101.5 -97t-31 -108q0 -96 51.5 -149.5t141.5 -53.5q205 0 217 237h283v-28q0 -205 -134.5 -331t-359.5 -126 q-233 0 -368.5 119t-135.5 311zM193 403q0 -180 119.5 -288.5t330.5 -108.5q201 0 317.5 105.5t124.5 285.5h-188q-14 -111 -79.5 -172t-170.5 -61q-121 0 -186.5 63.5t-65.5 180.5q0 55 22.5 102t47 70.5t79 67.5t79.5 67q98 90 98 225v37h-168v-10q0 -111 -76 -176 q-29 -25 -99.5 -80.5t-99 -84t-57 -89t-28.5 -134.5zM489 1178v295h295v-295h-295zM541 1225h190v200h-190v-200z" />
<glyph unicode="&#xc0;" horiz-adv-x="1456" d="M25 0l526 1473h354l527 -1473h-336l-99 303h-540l-99 -303h-333zM94 47h232l96 303h608l103 -303h229l-492 1378h-284zM332 1911h350l229 -328h-194zM450 1868l285 -242h90l-170 242h-205zM477 520l240 746l256 -746h-496zM541 567h364l-157 475q-23 72 -31 121 q-8 -68 -25 -121z" />
<glyph unicode="&#xc1;" horiz-adv-x="1456" d="M25 0l526 1473h354l527 -1473h-336l-99 303h-540l-99 -303h-333zM94 47h232l96 303h608l103 -303h229l-492 1378h-284zM477 520l240 746l256 -746h-496zM541 567h364l-157 475q-23 72 -31 121q-8 -68 -25 -121zM547 1583l229 328h350l-385 -328h-194zM633 1626h90 l285 242h-205z" />
<glyph unicode="&#xc2;" horiz-adv-x="1456" d="M25 0l526 1473h354l527 -1473h-336l-99 303h-540l-99 -303h-333zM94 47h232l96 303h608l103 -303h229l-492 1378h-284zM385 1583l229 328h230l229 -328h-201l-143 129l-143 -129h-201zM469 1626h96l164 145l164 -145h96l-170 242h-180zM477 520l240 746l256 -746h-496z M541 567h364l-157 475q-23 72 -31 121q-8 -68 -25 -121z" />
<glyph unicode="&#xc3;" horiz-adv-x="1456" d="M25 0l526 1473h354l527 -1473h-336l-99 303h-540l-99 -303h-333zM94 47h232l96 303h608l103 -303h229l-492 1378h-284zM395 1602q16 139 62.5 200.5t136.5 61.5q35 0 65 -9l123 -32q23 -6 47 -6q70 0 90 77h144q-23 -268 -217 -268q-23 0 -47 6l-131 35q-29 8 -50 8 q-57 0 -82 -73h-141zM450 1645h58q23 74 112 73q33 0 60 -8l119 -31q37 -8 53 -8q133 0 156 180h-62q-29 -80 -115 -80q-18 0 -59 9l-119 28q-27 8 -57 9q-63 0 -97.5 -41t-48.5 -131zM477 520l240 746l256 -746h-496zM541 567h364l-157 475q-23 72 -31 121q-8 -68 -25 -121 z" />
<glyph unicode="&#xc4;" horiz-adv-x="1456" d="M25 0l526 1473h354l527 -1473h-336l-99 303h-540l-99 -303h-333zM94 47h232l96 303h608l103 -303h229l-492 1378h-284zM448 1608v235h220v-235h-220zM477 520l240 746l256 -746h-496zM498 1649h120v151h-120v-151zM541 567h364l-157 475q-23 72 -31 121q-8 -68 -25 -121z M790 1608v235h220v-235h-220zM838 1649h122v151h-122v-151z" />
<glyph unicode="&#xc5;" horiz-adv-x="1456" d="M25 0l512 1436h383l512 -1436h-336l-99 303h-540l-99 -303h-333zM94 47h232l96 303h608l103 -303h229l-477 1337h-314zM477 520l240 746l256 -746h-496zM512 1690q0 88 63.5 152.5t153.5 64.5q88 0 151.5 -63.5t63.5 -154t-63.5 -153.5t-151.5 -63q-90 0 -153.5 64.5 t-63.5 152.5zM541 567h364l-157 475q-23 72 -31 121q-8 -68 -25 -121zM557 1690q0 -72 51 -122t121 -50t119 50t49 121.5t-49 121t-119 49.5q-72 0 -122 -50t-50 -120zM643 1688q0 37 24.5 61.5t61.5 24.5t60.5 -24t23.5 -62q0 -35 -23.5 -59.5t-60.5 -24.5t-61.5 24.5 t-24.5 59.5zM680 1690q0 -20 14.5 -34t35 -14t33.5 13.5t13 34t-13 34t-34 13.5q-49 0 -49 -47z" />
<glyph unicode="&#xc6;" horiz-adv-x="2080" d="M2 0l582 1473h1366v-256h-723v-314h657v-252h-657v-379h760v-272h-1053v303h-485l-111 -303h-336zM72 47h231l111 303h571v-303h948v178h-759v471h657v160h-657v408h722v161h-1278zM475 520l275 750h235v-750h-510zM545 567h389v656h-152z" />
<glyph unicode="&#xc7;" horiz-adv-x="1456" d="M84 735q0 369 178 572.5t502 203.5q254 0 424 -145t194 -381h-305q-43 254 -325 254q-162 0 -259.5 -134t-97.5 -370q0 -233 100.5 -367.5t268.5 -134.5q129 0 215 74t102 199h303q-16 -229 -170.5 -379t-394.5 -164v-72h19q104 0 160.5 -47t56.5 -133q0 -193 -277 -192 q-104 0 -276 41v141q117 -43 252 -43q96 0 96 55q0 29 -27.5 40t-91.5 11q-8 0 -27.5 -1t-31.5 -1v203q-276 29 -432 229.5t-156 540.5zM135 735q0 -334 153.5 -523t430.5 -206v-203h22q152 0 152 -90q0 -96 -139 -96q-94 0 -205 29v-52q119 -33 231 -32q227 0 228 147 q0 143 -199 144h-33v155q221 4 369.5 127t179.5 324h-201q-31 -127 -127 -200t-231 -73q-190 0 -307 147.5t-117 401.5q0 260 113.5 404.5t312.5 144.5q139 0 230.5 -65.5t121.5 -186.5h203q-37 197 -187.5 314.5t-371.5 117.5q-299 0 -464 -190.5t-165 -538.5z" />
<glyph unicode="&#xc8;" horiz-adv-x="1357" d="M156 0v1473h1069v-256h-770v-314h704v-252h-704v-379h809v-272h-1108zM207 47h1003v178h-807v471h705v160h-705v408h768v161h-964v-1378zM295 1911h350l229 -328h-194zM413 1868l285 -242h90l-170 242h-205z" />
<glyph unicode="&#xc9;" horiz-adv-x="1357" d="M156 0v1473h1069v-256h-770v-314h704v-252h-704v-379h809v-272h-1108zM207 47h1003v178h-807v471h705v160h-705v408h768v161h-964v-1378zM510 1583l229 328h350l-385 -328h-194zM596 1626h90l285 242h-205z" />
<glyph unicode="&#xca;" horiz-adv-x="1357" d="M156 0v1473h1069v-256h-770v-314h704v-252h-704v-379h809v-272h-1108zM207 47h1003v178h-807v471h705v160h-705v408h768v161h-964v-1378zM348 1583l229 328h230l229 -328h-201l-143 129l-143 -129h-201zM432 1626h96l164 145l164 -145h96l-170 242h-180z" />
<glyph unicode="&#xcb;" horiz-adv-x="1357" d="M156 0v1473h1069v-256h-770v-314h704v-252h-704v-379h809v-272h-1108zM207 47h1003v178h-807v471h705v160h-705v408h768v161h-964v-1378zM411 1608v235h220v-235h-220zM461 1649h120v151h-120v-151zM753 1608v235h220v-235h-220zM801 1649h122v151h-122v-151z" />
<glyph unicode="&#xcc;" horiz-adv-x="561" d="M-116 1911h350l229 -328h-194zM2 1868l285 -242h90l-170 242h-205zM129 0v1473h303v-1473h-303zM180 47h201v1378h-201v-1378z" />
<glyph unicode="&#xcd;" horiz-adv-x="561" d="M99 1583l229 328h350l-385 -328h-194zM129 0v1473h303v-1473h-303zM180 47h201v1378h-201v-1378zM185 1626h90l285 242h-205z" />
<glyph unicode="&#xce;" horiz-adv-x="561" d="M-63 1583l229 328h230l229 -328h-201l-143 129l-143 -129h-201zM21 1626h96l164 145l164 -145h96l-170 242h-180zM129 0v1473h303v-1473h-303zM180 47h201v1378h-201v-1378z" />
<glyph unicode="&#xcf;" horiz-adv-x="561" d="M0 1608v235h220v-235h-220zM50 1649h120v151h-120v-151zM129 0v1473h303v-1473h-303zM180 47h201v1378h-201v-1378zM342 1608v235h220v-235h-220zM390 1649h122v151h-122v-151z" />
<glyph unicode="&#xd0;" horiz-adv-x="1470" d="M0 653v217h158v603h641q285 0 437.5 -194t152.5 -544q0 -328 -167 -531.5t-421 -203.5h-643v653h-158zM51 700h158v-653h582q242 0 393 188.5t151 501.5q0 334 -140 511t-409 177h-577v-602h-158v-123zM403 219v481h312v123h-312v439h345q186 0 283 -134.5t97 -392.5 q0 -252 -101 -384t-294 -132h-330zM455 266h278q342 0 342 469q0 479 -325 479h-295v-344h311v-217h-311v-387z" />
<glyph unicode="&#xd1;" horiz-adv-x="1458" d="M139 0v1473h318l477 -838q35 -68 113 -238q-25 164 -25 250v826h297v-1473h-311l-473 831q-61 113 -121 246q25 -182 24 -254v-823h-299zM190 47h197v1131l649 -1131h232v1378h-195v-1128l-649 1128h-234v-1378zM395 1602q16 139 62.5 200.5t136.5 61.5q35 0 65 -9 l123 -32q23 -6 47 -6q70 0 90 77h144q-23 -268 -217 -268q-23 0 -47 6l-131 35q-29 8 -50 8q-57 0 -82 -73h-141zM450 1645h58q23 74 112 73q33 0 60 -8l119 -31q37 -8 53 -8q133 0 156 180h-62q-29 -80 -115 -80q-18 0 -59 9l-119 28q-27 8 -57 9q-63 0 -97.5 -41 t-48.5 -131z" />
<glyph unicode="&#xd2;" horiz-adv-x="1587" d="M88 735.5q0 368.5 187.5 572t517 203.5t517 -203.5t187.5 -572t-187.5 -572.5t-517 -204t-517 204t-187.5 572.5zM141 735q0 -348 172 -538.5t482 -190.5q305 0 477 191.5t172 537.5q0 348 -171 539.5t-480 191.5q-305 0 -478.5 -192.5t-173.5 -538.5zM342 735.5 q0 270.5 118 413.5t333 143t331.5 -144t116.5 -412.5t-116.5 -413t-331.5 -144.5t-333 143.5t-118 414zM395 735q0 -248 104.5 -380t293.5 -132q190 0 292.5 131t102.5 381q0 248 -103.5 380t-291.5 132q-190 0 -294 -132t-104 -380zM406 1911h350l229 -328h-194zM524 1868 l285 -242h90l-170 242h-205z" />
<glyph unicode="&#xd3;" horiz-adv-x="1587" d="M88 735.5q0 368.5 187.5 572t517 203.5t517 -203.5t187.5 -572t-187.5 -572.5t-517 -204t-517 204t-187.5 572.5zM141 735q0 -348 172 -538.5t482 -190.5q305 0 477 191.5t172 537.5q0 348 -171 539.5t-480 191.5q-305 0 -478.5 -192.5t-173.5 -538.5zM342 735.5 q0 270.5 118 413.5t333 143t331.5 -144t116.5 -412.5t-116.5 -413t-331.5 -144.5t-333 143.5t-118 414zM395 735q0 -248 104.5 -380t293.5 -132q190 0 292.5 131t102.5 381q0 248 -103.5 380t-291.5 132q-190 0 -294 -132t-104 -380zM621 1583l229 328h350l-385 -328h-194z M707 1626h90l285 242h-205z" />
<glyph unicode="&#xd4;" horiz-adv-x="1587" d="M88 735.5q0 368.5 187.5 572t517 203.5t517 -203.5t187.5 -572t-187.5 -572.5t-517 -204t-517 204t-187.5 572.5zM141 735q0 -348 172 -538.5t482 -190.5q305 0 477 191.5t172 537.5q0 348 -171 539.5t-480 191.5q-305 0 -478.5 -192.5t-173.5 -538.5zM342 735.5 q0 270.5 118 413.5t333 143t331.5 -144t116.5 -412.5t-116.5 -413t-331.5 -144.5t-333 143.5t-118 414zM395 735q0 -248 104.5 -380t293.5 -132q190 0 292.5 131t102.5 381q0 248 -103.5 380t-291.5 132q-190 0 -294 -132t-104 -380zM459 1583l229 328h230l229 -328h-201 l-143 129l-143 -129h-201zM543 1626h96l164 145l164 -145h96l-170 242h-180z" />
<glyph unicode="&#xd5;" horiz-adv-x="1587" d="M88 735.5q0 368.5 187.5 572t517 203.5t517 -203.5t187.5 -572t-187.5 -572.5t-517 -204t-517 204t-187.5 572.5zM141 735q0 -348 172 -538.5t482 -190.5q305 0 477 191.5t172 537.5q0 348 -171 539.5t-480 191.5q-305 0 -478.5 -192.5t-173.5 -538.5zM342 735.5 q0 270.5 118 413.5t333 143t331.5 -144t116.5 -412.5t-116.5 -413t-331.5 -144.5t-333 143.5t-118 414zM395 735q0 -248 104.5 -380t293.5 -132q190 0 292.5 131t102.5 381q0 248 -103.5 380t-291.5 132q-190 0 -294 -132t-104 -380zM469 1602q16 139 62.5 200.5t136.5 61.5 q35 0 65 -9l123 -32q23 -6 47 -6q70 0 90 77h144q-23 -268 -217 -268q-23 0 -47 6l-131 35q-29 8 -50 8q-57 0 -82 -73h-141zM524 1645h58q23 74 112 73q33 0 60 -8l119 -31q37 -8 53 -8q133 0 156 180h-62q-29 -80 -115 -80q-18 0 -59 9l-119 28q-27 8 -57 9 q-63 0 -97.5 -41t-48.5 -131z" />
<glyph unicode="&#xd6;" horiz-adv-x="1587" d="M88 735.5q0 368.5 187.5 572t517 203.5t517 -203.5t187.5 -572t-187.5 -572.5t-517 -204t-517 204t-187.5 572.5zM141 735q0 -348 172 -538.5t482 -190.5q305 0 477 191.5t172 537.5q0 348 -171 539.5t-480 191.5q-305 0 -478.5 -192.5t-173.5 -538.5zM342 735.5 q0 270.5 118 413.5t333 143t331.5 -144t116.5 -412.5t-116.5 -413t-331.5 -144.5t-333 143.5t-118 414zM395 735q0 -248 104.5 -380t293.5 -132q190 0 292.5 131t102.5 381q0 248 -103.5 380t-291.5 132q-190 0 -294 -132t-104 -380zM522 1608v235h220v-235h-220zM572 1649 h120v151h-120v-151zM864 1608v235h220v-235h-220zM912 1649h122v151h-122v-151z" />
<glyph unicode="&#xd7;" horiz-adv-x="1705" d="M315 119l492 491l-492 492l45 45l492 -492l491 492l46 -45l-492 -492l492 -491l-46 -45l-491 491l-492 -491z" />
<glyph unicode="&#xd8;" horiz-adv-x="1587" d="M23 41l188 209q-123 180 -123 487q0 369 187.5 571.5t527.5 202.5q242 0 426 -133l153 172l156 -139l-166 -186q125 -188 125 -488q0 -373 -186.5 -575.5t-522.5 -202.5q-268 0 -436 135l-174 -190zM90 47l86 -76l172 193q178 -160 436 -160q309 0 484.5 189.5 t175.5 517.5q0 336 -137 516l161 180l-84 72l-151 -168q-176 154 -440 153q-303 0 -477.5 -190.5t-174.5 -521.5q0 -336 133 -502zM342 731q0 272 118 416.5t333 144.5q195 0 315 -127l-696 -772q-70 137 -70 338zM395 731q0 -137 37 -246l608 676q-102 84 -249 84 q-188 0 -292 -133t-104 -381zM471 309l698 774q72 -145 72 -338q0 -276 -115.5 -421.5t-334.5 -145.5q-195 0 -320 131zM541 313q98 -88 252 -88q188 0 291.5 131t103.5 375q0 166 -37 260z" />
<glyph unicode="&#xd9;" horiz-adv-x="1468" d="M143 508v965h306v-971q0 -131 75.5 -204t208.5 -73t210 74t77 203v971h303v-877q0 -94 -3 -147.5t-18.5 -121t-48.5 -120.5q-147 -248 -516 -248q-283 0 -438.5 143.5t-155.5 405.5zM195 516q0 -248 139 -379t401 -131q301 0 449 189q55 70 71.5 159.5t16.5 239.5v829 h-201v-921q0 -150 -91 -237t-247 -87q-158 0 -247 86t-89 238v921h-202v-907zM342 1911h350l229 -328h-194zM460 1868l285 -242h90l-170 242h-205z" />
<glyph unicode="&#xda;" horiz-adv-x="1468" d="M143 508v965h306v-971q0 -131 75.5 -204t208.5 -73t210 74t77 203v971h303v-877q0 -94 -3 -147.5t-18.5 -121t-48.5 -120.5q-147 -248 -516 -248q-283 0 -438.5 143.5t-155.5 405.5zM195 516q0 -248 139 -379t401 -131q301 0 449 189q55 70 71.5 159.5t16.5 239.5v829 h-201v-921q0 -150 -91 -237t-247 -87q-158 0 -247 86t-89 238v921h-202v-907zM557 1583l229 328h350l-385 -328h-194zM643 1626h90l285 242h-205z" />
<glyph unicode="&#xdb;" horiz-adv-x="1468" d="M143 508v965h306v-971q0 -131 75.5 -204t208.5 -73t210 74t77 203v971h303v-877q0 -94 -3 -147.5t-18.5 -121t-48.5 -120.5q-147 -248 -516 -248q-283 0 -438.5 143.5t-155.5 405.5zM195 516q0 -248 139 -379t401 -131q301 0 449 189q55 70 71.5 159.5t16.5 239.5v829 h-201v-921q0 -150 -91 -237t-247 -87q-158 0 -247 86t-89 238v921h-202v-907zM395 1583l229 328h230l229 -328h-201l-143 129l-143 -129h-201zM479 1626h96l164 145l164 -145h96l-170 242h-180z" />
<glyph unicode="&#xdc;" horiz-adv-x="1468" d="M143 508v965h306v-971q0 -131 75.5 -204t208.5 -73t210 74t77 203v971h303v-877q0 -94 -3 -147.5t-18.5 -121t-48.5 -120.5q-147 -248 -516 -248q-283 0 -438.5 143.5t-155.5 405.5zM195 516q0 -248 139 -379t401 -131q301 0 449 189q55 70 71.5 159.5t16.5 239.5v829 h-201v-921q0 -150 -91 -237t-247 -87q-158 0 -247 86t-89 238v921h-202v-907zM458 1608v235h220v-235h-220zM508 1649h120v151h-120v-151zM800 1608v235h220v-235h-220zM848 1649h122v151h-122v-151z" />
<glyph unicode="&#xdd;" horiz-adv-x="1351" d="M27 1473h366l266 -517q35 -66 41 -122q4 53 39 124l244 515h342l-473 -924v-549h-305v549zM109 1425l489 -868v-510h203v506l446 872h-231l-316 -657l-338 657h-253zM494 1583l229 328h350l-385 -328h-194zM580 1626h90l285 242h-205z" />
<glyph unicode="&#xde;" horiz-adv-x="1343" d="M145 0v1473h304v-240h325q238 0 359.5 -121t121.5 -352q0 -227 -120.5 -350t-348.5 -123h-337v-287h-304zM197 47h198v285h391q205 0 311.5 110.5t106.5 317.5q0 426 -434 426h-375v239h-198v-1378zM397 502v522h338q272 0 273 -260q0 -262 -273 -262h-338zM451 551h278 q119 0 173 49t54 164q0 117 -56 165t-171 48h-278v-426z" />
<glyph unicode="&#xdf;" horiz-adv-x="1218" d="M119 0v983q0 221 59 315q117 184 414 185q219 0 342 -101.5t123 -273.5q0 -211 -148 -283q236 -94 236 -362q0 -225 -129 -362.5t-338 -137.5q-43 0 -139 12v234q61 -4 67 -4q119 0 182.5 65.5t63.5 186.5q0 117 -70.5 178t-206.5 61h-24v201h20q199 0 199 176 q0 174 -190 174q-176 0 -177 -194v-1053h-284zM170 47h180v1002q0 121 59.5 183t170.5 62q244 0 243 -221q0 -104 -56 -160.5t-163 -58.5v-111q145 -2 222 -77.5t77 -208.5q0 -139 -73.5 -220t-196.5 -81h-7t-15.5 1t-20.5 1v-144q78 -8 86 -8q186 0 303 124t117 323 q0 133 -59.5 218t-196.5 152q166 94 166 271q0 162 -107.5 251t-306.5 89q-233 0 -348 -134q-47 -55 -60.5 -119.5t-13.5 -164.5v-969z" />
<glyph unicode="&#xe0;" horiz-adv-x="1120" d="M70 307q0 287 325 342q57 10 126 18.5t98.5 12.5t60.5 14.5t41 26.5t10 45q0 72 -32.5 102.5t-135.5 30.5q-94 0 -138 -31.5t-44 -103.5v-16h-272v20q0 170 118.5 264t337.5 94q213 0 331 -80.5t118 -226.5v-618q0 -119 61 -152v-49h-303q-25 53 -24 92v17 q-129 -147 -357 -148q-150 0 -235.5 90t-85.5 256zM123 307q0 -145 76.5 -222t218.5 -77q202 1 360 189q0 -104 23 -150h211q-51 35 -51 154v608q0 129 -102.5 199.5t-291.5 70.5q-186 0 -294.5 -77.5t-108.5 -204.5v-6h168q20 156 233 155q117 0 168 -40t51 -126 q0 -88 -56 -115.5t-239 -52.5q-193 -27 -279.5 -91t-86.5 -214zM189 1526h350l229 -328h-194zM307 324q0 123 158 161q18 4 76.5 12.5t120 23.5t122.5 42v-110q0 -133 -79.5 -203t-215.5 -70q-86 0 -134 38t-48 106zM307 1483l285 -242h90l-170 242h-205zM356 328 q0 -47 38 -75t102 -28q100 0 169.5 54.5t69.5 140.5v80q-63 -20 -147 -38t-126 -26t-74 -34.5t-32 -73.5z" />
<glyph unicode="&#xe1;" horiz-adv-x="1120" d="M70 307q0 287 325 342q57 10 126 18.5t98.5 12.5t60.5 14.5t41 26.5t10 45q0 72 -32.5 102.5t-135.5 30.5q-94 0 -138 -31.5t-44 -103.5v-16h-272v20q0 170 118.5 264t337.5 94q213 0 331 -80.5t118 -226.5v-618q0 -119 61 -152v-49h-303q-25 53 -24 92v17 q-129 -147 -357 -148q-150 0 -235.5 90t-85.5 256zM123 307q0 -145 76.5 -222t218.5 -77q202 1 360 189q0 -104 23 -150h211q-51 35 -51 154v608q0 129 -102.5 199.5t-291.5 70.5q-186 0 -294.5 -77.5t-108.5 -204.5v-6h168q20 156 233 155q117 0 168 -40t51 -126 q0 -88 -56 -115.5t-239 -52.5q-193 -27 -279.5 -91t-86.5 -214zM307 324q0 123 158 161q18 4 76.5 12.5t120 23.5t122.5 42v-110q0 -133 -79.5 -203t-215.5 -70q-86 0 -134 38t-48 106zM356 328q0 -47 38 -75t102 -28q100 0 169.5 54.5t69.5 140.5v80q-63 -20 -147 -38 t-126 -26t-74 -34.5t-32 -73.5zM404 1198l229 328h350l-385 -328h-194zM490 1241h90l285 242h-205z" />
<glyph unicode="&#xe2;" horiz-adv-x="1120" d="M70 307q0 287 325 342q57 10 126 18.5t98.5 12.5t60.5 14.5t41 26.5t10 45q0 72 -32.5 102.5t-135.5 30.5q-94 0 -138 -31.5t-44 -103.5v-16h-272v20q0 170 118.5 264t337.5 94q213 0 331 -80.5t118 -226.5v-618q0 -119 61 -152v-49h-303q-25 53 -24 92v17 q-129 -147 -357 -148q-150 0 -235.5 90t-85.5 256zM123 307q0 -145 76.5 -222t218.5 -77q202 1 360 189q0 -104 23 -150h211q-51 35 -51 154v608q0 129 -102.5 199.5t-291.5 70.5q-186 0 -294.5 -77.5t-108.5 -204.5v-6h168q20 156 233 155q117 0 168 -40t51 -126 q0 -88 -56 -115.5t-239 -52.5q-193 -27 -279.5 -91t-86.5 -214zM242 1198l229 328h230l229 -328h-201l-143 129l-143 -129h-201zM307 324q0 123 158 161q18 4 76.5 12.5t120 23.5t122.5 42v-110q0 -133 -79.5 -203t-215.5 -70q-86 0 -134 38t-48 106zM326 1241h96l164 145 l164 -145h96l-170 242h-180zM356 328q0 -47 38 -75t102 -28q100 0 169.5 54.5t69.5 140.5v80q-63 -20 -147 -38t-126 -26t-74 -34.5t-32 -73.5z" />
<glyph unicode="&#xe3;" horiz-adv-x="1120" d="M70 307q0 287 325 342q57 10 126 18.5t98.5 12.5t60.5 14.5t41 26.5t10 45q0 72 -32.5 102.5t-135.5 30.5q-94 0 -138 -31.5t-44 -103.5v-16h-272v20q0 170 118.5 264t337.5 94q213 0 331 -80.5t118 -226.5v-618q0 -119 61 -152v-49h-303q-25 53 -24 92v17 q-129 -147 -357 -148q-150 0 -235.5 90t-85.5 256zM123 307q0 -145 76.5 -222t218.5 -77q202 1 360 189q0 -104 23 -150h211q-51 35 -51 154v608q0 129 -102.5 199.5t-291.5 70.5q-186 0 -294.5 -77.5t-108.5 -204.5v-6h168q20 156 233 155q117 0 168 -40t51 -126 q0 -88 -56 -115.5t-239 -52.5q-193 -27 -279.5 -91t-86.5 -214zM252 1217q16 139 62.5 200.5t136.5 61.5q35 0 65 -9l123 -32q23 -6 47 -6q70 0 90 77h144q-23 -268 -217 -268q-23 0 -47 6l-131 35q-29 8 -50 8q-57 0 -82 -73h-141zM307 324q0 123 158 161q18 4 76.5 12.5 t120 23.5t122.5 42v-110q0 -133 -79.5 -203t-215.5 -70q-86 0 -134 38t-48 106zM307 1260h58q23 74 112 73q33 0 60 -8l119 -31q37 -8 53 -8q133 0 156 180h-62q-29 -80 -115 -80q-18 0 -59 9l-119 28q-27 8 -57 9q-63 0 -97.5 -41t-48.5 -131zM356 328q0 -47 38 -75 t102 -28q100 0 169.5 54.5t69.5 140.5v80q-63 -20 -147 -38t-126 -26t-74 -34.5t-32 -73.5z" />
<glyph unicode="&#xe4;" horiz-adv-x="1120" d="M70 307q0 287 325 342q57 10 126 18.5t98.5 12.5t60.5 14.5t41 26.5t10 45q0 72 -32.5 102.5t-135.5 30.5q-94 0 -138 -31.5t-44 -103.5v-16h-272v20q0 170 118.5 264t337.5 94q213 0 331 -80.5t118 -226.5v-618q0 -119 61 -152v-49h-303q-25 53 -24 92v17 q-129 -147 -357 -148q-150 0 -235.5 90t-85.5 256zM123 307q0 -145 76.5 -222t218.5 -77q202 1 360 189q0 -104 23 -150h211q-51 35 -51 154v608q0 129 -102.5 199.5t-291.5 70.5q-186 0 -294.5 -77.5t-108.5 -204.5v-6h168q20 156 233 155q117 0 168 -40t51 -126 q0 -88 -56 -115.5t-239 -52.5q-193 -27 -279.5 -91t-86.5 -214zM305 1223v235h220v-235h-220zM307 324q0 123 158 161q18 4 76.5 12.5t120 23.5t122.5 42v-110q0 -133 -79.5 -203t-215.5 -70q-86 0 -134 38t-48 106zM355 1264h120v151h-120v-151zM356 328q0 -47 38 -75 t102 -28q100 0 169.5 54.5t69.5 140.5v80q-63 -20 -147 -38t-126 -26t-74 -34.5t-32 -73.5zM647 1223v235h220v-235h-220zM695 1264h122v151h-122v-151z" />
<glyph unicode="&#xe5;" horiz-adv-x="1120" d="M70 307q0 287 325 342q57 10 126 18.5t98.5 12.5t60.5 14.5t41 26.5t10 45q0 72 -32.5 102.5t-135.5 30.5q-94 0 -138 -31.5t-44 -103.5v-16h-272v20q0 170 118.5 264t337.5 94q213 0 331 -80.5t118 -226.5v-618q0 -119 61 -152v-49h-303q-25 53 -24 92v17 q-129 -147 -357 -148q-150 0 -235.5 90t-85.5 256zM123 307q0 -145 76.5 -222t218.5 -77q202 1 360 189q0 -104 23 -150h211q-51 35 -51 154v608q0 129 -102.5 199.5t-291.5 70.5q-186 0 -294.5 -77.5t-108.5 -204.5v-6h168q20 156 233 155q117 0 168 -40t51 -126 q0 -88 -56 -115.5t-239 -52.5q-193 -27 -279.5 -91t-86.5 -214zM307 324q0 123 158 161q18 4 76.5 12.5t120 23.5t122.5 42v-110q0 -133 -79.5 -203t-215.5 -70q-86 0 -134 38t-48 106zM330 1401q0 90 62.5 152.5t152.5 62.5t153.5 -63.5t63.5 -151.5q0 -90 -64.5 -153.5 t-152.5 -63.5t-151.5 63.5t-63.5 153.5zM356 328q0 -47 38 -75t102 -28q100 0 169.5 54.5t69.5 140.5v80q-63 -20 -147 -38t-126 -26t-74 -34.5t-32 -73.5zM375 1398.5q0 -71.5 50 -120.5t119.5 -49t120 49t50.5 120.5t-50.5 121t-120 49.5t-119.5 -49.5t-50 -121zM459 1397 q0 37 24.5 62.5t61.5 25.5t61.5 -24.5t24.5 -63.5q0 -35 -24.5 -59.5t-61.5 -24.5t-61.5 24.5t-24.5 59.5zM498 1399q0 -20 13 -33.5t33.5 -13.5t34 13t13.5 33.5t-13.5 34t-33.5 13.5q-47 0 -47 -47z" />
<glyph unicode="&#xe6;" horiz-adv-x="1810" d="M70 307q0 287 325 342q57 10 126 18.5t98.5 12.5t60.5 14.5t41 26.5t10 45q0 74 -32.5 103.5t-135.5 29.5q-182 0 -182 -133v-18h-272v20q0 170 117.5 264t336.5 94q252 0 359 -112q113 113 311 112q238 0 374 -151.5t136 -427.5q0 -27 -4 -92h-725q18 -246 225 -246 q170 0 199 121h288q-39 -168 -173 -267.5t-328 -99.5q-268 0 -383 180q-131 -182 -416 -182q-356 0 -356 346zM123 307q0 -145 76.5 -222t218.5 -77q278 0 428 207q119 -207 377 -207q154 0 268.5 73t167.5 202h-189q-47 -121 -233 -121q-135 0 -205.5 85t-70.5 249v6h725 q2 18 2 53q0 248 -123 386t-330 138q-195 0 -320 -123q-117 123 -348 123q-186 0 -291.5 -76.5t-111.5 -211.5h168q20 156 233 155q127 0 173 -45t46 -143q0 -76 -90 -105q-43 -14 -250 -45q-166 -23 -243.5 -94.5t-77.5 -206.5zM307 324q0 123 158 161q18 4 76.5 12.5 t120 23.5t122.5 42v-110q0 -133 -79.5 -203t-215.5 -70q-86 0 -134 38t-48 106zM356 328q0 -47 38 -75t102 -28q100 0 169.5 54.5t69.5 140.5v80q-63 -20 -147 -38t-126 -26t-74 -34.5t-32 -73.5zM965 612v25q0 133 71.5 212t188.5 79q131 0 200.5 -78t69.5 -225v-13h-530z M1018 657h424q-2 109 -57.5 167.5t-153.5 58.5t-155.5 -61t-57.5 -165z" />
<glyph unicode="&#xe7;" horiz-adv-x="1120" d="M61 543q0 274 137.5 428.5t379.5 154.5q213 0 341 -113.5t140 -310.5h-287q-25 176 -199 177q-209 0 -208 -338q0 -156 54 -240t156 -84q88 0 135.5 46.5t63.5 146.5h289q-12 -186 -130 -304t-308 -141v-74h18q104 0 160.5 -47t56.5 -133q0 -193 -276 -192 q-104 0 -277 41v141q117 -43 254 -43q96 0 96 55q0 29 -27.5 40t-90.5 11q-8 0 -27.5 -1t-32.5 -1v207q-195 25 -306.5 176.5t-111.5 397.5zM113 543q0 -238 110.5 -379t302.5 -154v-207h23q150 0 149 -90q0 -96 -137 -96q-96 0 -207 29v-52q119 -33 232 -32q227 0 227 147 q0 143 -199 144h-32v155q170 4 284.5 101t139.5 253h-191q-20 -92 -82.5 -142t-157.5 -50q-127 0 -195.5 96t-68.5 275q0 188 67.5 286.5t196.5 98.5q197 0 238 -176h191q-27 152 -139.5 240.5t-286.5 88.5q-217 0 -341 -141t-124 -395z" />
<glyph unicode="&#xe8;" horiz-adv-x="1167" d="M68 551q0 266 137 420.5t373 154.5q248 0 384 -150.5t136 -428.5q0 -31 -4 -92h-723q10 -246 231 -246q166 0 191 121h288q-29 -162 -166 -264.5t-335 -102.5q-233 0 -372.5 156.5t-139.5 431.5zM123 551q0 -254 124 -398.5t333 -144.5q160 0 276.5 76t159.5 199h-193 q-10 -51 -71.5 -86t-149.5 -35q-287 0 -287 334v6h727v43q0 258 -121.5 396t-342.5 138q-211 0 -333 -140t-122 -388zM205 1526h350l229 -328h-194zM319 612v25q0 133 72 212t191 79q131 0 200.5 -78t69.5 -225v-13h-533zM323 1483l285 -242h90l-170 242h-205zM373 657h426 q-2 109 -57.5 167.5t-154 58.5t-156.5 -61t-58 -165z" />
<glyph unicode="&#xe9;" horiz-adv-x="1167" d="M68 551q0 266 137 420.5t373 154.5q248 0 384 -150.5t136 -428.5q0 -31 -4 -92h-723q10 -246 231 -246q166 0 191 121h288q-29 -162 -166 -264.5t-335 -102.5q-233 0 -372.5 156.5t-139.5 431.5zM123 551q0 -254 124 -398.5t333 -144.5q160 0 276.5 76t159.5 199h-193 q-10 -51 -71.5 -86t-149.5 -35q-287 0 -287 334v6h727v43q0 258 -121.5 396t-342.5 138q-211 0 -333 -140t-122 -388zM319 612v25q0 133 72 212t191 79q131 0 200.5 -78t69.5 -225v-13h-533zM373 657h426q-2 109 -57.5 167.5t-154 58.5t-156.5 -61t-58 -165zM420 1198 l229 328h350l-385 -328h-194zM506 1241h90l285 242h-205z" />
<glyph unicode="&#xea;" horiz-adv-x="1167" d="M68 551q0 266 137 420.5t373 154.5q248 0 384 -150.5t136 -428.5q0 -31 -4 -92h-723q10 -246 231 -246q166 0 191 121h288q-29 -162 -166 -264.5t-335 -102.5q-233 0 -372.5 156.5t-139.5 431.5zM123 551q0 -254 124 -398.5t333 -144.5q160 0 276.5 76t159.5 199h-193 q-10 -51 -71.5 -86t-149.5 -35q-287 0 -287 334v6h727v43q0 258 -121.5 396t-342.5 138q-211 0 -333 -140t-122 -388zM258 1198l229 328h230l229 -328h-201l-143 129l-143 -129h-201zM319 612v25q0 133 72 212t191 79q131 0 200.5 -78t69.5 -225v-13h-533zM342 1241h96 l164 145l164 -145h96l-170 242h-180zM373 657h426q-2 109 -57.5 167.5t-154 58.5t-156.5 -61t-58 -165z" />
<glyph unicode="&#xeb;" horiz-adv-x="1167" d="M68 551q0 266 137 420.5t373 154.5q248 0 384 -150.5t136 -428.5q0 -31 -4 -92h-723q10 -246 231 -246q166 0 191 121h288q-29 -162 -166 -264.5t-335 -102.5q-233 0 -372.5 156.5t-139.5 431.5zM123 551q0 -254 124 -398.5t333 -144.5q160 0 276.5 76t159.5 199h-193 q-10 -51 -71.5 -86t-149.5 -35q-287 0 -287 334v6h727v43q0 258 -121.5 396t-342.5 138q-211 0 -333 -140t-122 -388zM319 612v25q0 133 72 212t191 79q131 0 200.5 -78t69.5 -225v-13h-533zM321 1223v235h220v-235h-220zM371 1264h120v151h-120v-151zM373 657h426 q-2 109 -57.5 167.5t-154 58.5t-156.5 -61t-58 -165zM663 1223v235h220v-235h-220zM711 1264h122v151h-122v-151z" />
<glyph unicode="&#xec;" horiz-adv-x="557" d="M-118 1526h350l229 -328h-194zM0 1483l285 -242h90l-170 242h-205zM133 0v1087h291v-1087h-291zM186 45h187v997h-187v-997z" />
<glyph unicode="&#xed;" horiz-adv-x="557" d="M97 1198l229 328h350l-385 -328h-194zM133 0v1087h291v-1087h-291zM183 1241h90l285 242h-205zM186 45h187v997h-187v-997z" />
<glyph unicode="&#xee;" horiz-adv-x="557" d="M-65 1198l229 328h230l229 -328h-201l-143 129l-143 -129h-201zM19 1241h96l164 145l164 -145h96l-170 242h-180zM133 0v1087h291v-1087h-291zM186 45h187v997h-187v-997z" />
<glyph unicode="&#xef;" horiz-adv-x="557" d="M-2 1223v235h220v-235h-220zM48 1264h120v151h-120v-151zM133 0v1087h291v-1087h-291zM186 45h187v997h-187v-997zM340 1223v235h220v-235h-220zM388 1264h122v151h-122v-151z" />
<glyph unicode="&#xf0;" horiz-adv-x="1245" d="M72 510q0 240 131 386t336 146q74 1 168 -22q-61 82 -179 158l-295 -142l-73 148l207 96q-41 25 -166 84l80 145q141 -45 325 -133l297 142l74 -146l-213 -100q410 -301 410 -746q0 -270 -144.5 -416.5t-406.5 -146.5q-258 0 -404.5 146.5t-146.5 400.5zM123 510 q0 -236 133 -370t367 -134q236 0 367.5 133t131.5 369q0 246 -102 424t-338 348l240 115l-35 69l-279 -137q-170 82 -313 131l-39 -74q104 -41 203 -110l-242 -113l31 -67l282 135q172 -119 232 -223l-29 -33q-119 31 -178 31q-197 0 -314.5 -132.5t-117.5 -361.5zM317 508 q0 174 80 268t225.5 94t225.5 -95t80 -267t-79 -266.5t-226 -94.5q-145 0 -225.5 93.5t-80.5 267.5zM369 508q0 -154 65.5 -234.5t188 -80.5t188.5 80.5t66 234.5t-67 235.5t-187 81.5q-123 0 -188.5 -81.5t-65.5 -235.5z" />
<glyph unicode="&#xf1;" horiz-adv-x="1222" d="M127 0v1087h276v-69q0 -29 -6 -60q113 158 324 158q180 0 279.5 -89t99.5 -249v-778h-291v651q0 117 -36 170t-128 53q-227 0 -227 -344v-530h-291zM178 47h189v459q0 416 280 416q117 0 165 -67t48 -206v-602h189v731q0 137 -87.5 214t-240.5 77q-115 0 -201 -50 t-164 -161v184h-178v-995zM289 1217q16 139 62.5 200.5t136.5 61.5q35 0 65 -9l123 -32q23 -6 47 -6q70 0 90 77h144q-23 -268 -217 -268q-23 0 -47 6l-131 35q-29 8 -50 8q-57 0 -82 -73h-141zM344 1260h58q23 74 112 73q33 0 60 -8l119 -31q37 -8 53 -8q133 0 156 180h-62 q-29 -80 -115 -80q-18 0 -59 9l-119 28q-27 8 -57 9q-63 0 -97.5 -41t-48.5 -131z" />
<glyph unicode="&#xf2;" horiz-adv-x="1245" d="M72 544.5q0 270.5 146.5 426t404.5 155.5t404.5 -155.5t146.5 -426t-146.5 -426t-404.5 -155.5t-404.5 155.5t-146.5 426zM123 545q0 -252 133 -394.5t367 -142.5q236 0 366.5 140.5t130.5 396.5t-131 395t-366.5 139t-367.5 -140t-132 -394zM238 1526h350l229 -328h-194 zM317 542.5q0 184.5 80 285t225.5 100.5t225.5 -101.5t80 -283.5q0 -184 -79 -283.5t-226.5 -99.5t-226.5 99t-79 283.5zM356 1483l285 -242h90l-170 242h-205zM369 545q0 -164 65.5 -251t188 -87t188.5 87t66 251q0 162 -67 249t-187 87q-123 0 -188.5 -86t-65.5 -250z" />
<glyph unicode="&#xf3;" horiz-adv-x="1245" d="M72 544.5q0 270.5 146.5 426t404.5 155.5t404.5 -155.5t146.5 -426t-146.5 -426t-404.5 -155.5t-404.5 155.5t-146.5 426zM123 545q0 -252 133 -394.5t367 -142.5q236 0 366.5 140.5t130.5 396.5t-131 395t-366.5 139t-367.5 -140t-132 -394zM317 542.5q0 184.5 80 285 t225.5 100.5t225.5 -101.5t80 -283.5q0 -184 -79 -283.5t-226.5 -99.5t-226.5 99t-79 283.5zM369 545q0 -164 65.5 -251t188 -87t188.5 87t66 251q0 162 -67 249t-187 87q-123 0 -188.5 -86t-65.5 -250zM453 1198l229 328h350l-385 -328h-194zM539 1241h90l285 242h-205z " />
<glyph unicode="&#xf4;" horiz-adv-x="1245" d="M72 544.5q0 270.5 146.5 426t404.5 155.5t404.5 -155.5t146.5 -426t-146.5 -426t-404.5 -155.5t-404.5 155.5t-146.5 426zM123 545q0 -252 133 -394.5t367 -142.5q236 0 366.5 140.5t130.5 396.5t-131 395t-366.5 139t-367.5 -140t-132 -394zM291 1198l229 328h230 l229 -328h-201l-143 129l-143 -129h-201zM317 542.5q0 184.5 80 285t225.5 100.5t225.5 -101.5t80 -283.5q0 -184 -79 -283.5t-226.5 -99.5t-226.5 99t-79 283.5zM369 545q0 -164 65.5 -251t188 -87t188.5 87t66 251q0 162 -67 249t-187 87q-123 0 -188.5 -86t-65.5 -250z M375 1241h96l164 145l164 -145h96l-170 242h-180z" />
<glyph unicode="&#xf5;" horiz-adv-x="1245" d="M72 544.5q0 270.5 146.5 426t404.5 155.5t404.5 -155.5t146.5 -426t-146.5 -426t-404.5 -155.5t-404.5 155.5t-146.5 426zM123 545q0 -252 133 -394.5t367 -142.5q236 0 366.5 140.5t130.5 396.5t-131 395t-366.5 139t-367.5 -140t-132 -394zM301 1217q16 139 62.5 200.5 t136.5 61.5q35 0 65 -9l123 -32q23 -6 47 -6q70 0 90 77h144q-23 -268 -217 -268q-23 0 -47 6l-131 35q-29 8 -50 8q-57 0 -82 -73h-141zM317 542.5q0 184.5 80 285t225.5 100.5t225.5 -101.5t80 -283.5q0 -184 -79 -283.5t-226.5 -99.5t-226.5 99t-79 283.5zM356 1260h58 q23 74 112 73q33 0 60 -8l119 -31q37 -8 53 -8q133 0 156 180h-62q-29 -80 -115 -80q-18 0 -59 9l-119 28q-27 8 -57 9q-63 0 -97.5 -41t-48.5 -131zM369 545q0 -164 65.5 -251t188 -87t188.5 87t66 251q0 162 -67 249t-187 87q-123 0 -188.5 -86t-65.5 -250z" />
<glyph unicode="&#xf6;" horiz-adv-x="1245" d="M72 544.5q0 270.5 146.5 426t404.5 155.5t404.5 -155.5t146.5 -426t-146.5 -426t-404.5 -155.5t-404.5 155.5t-146.5 426zM123 545q0 -252 133 -394.5t367 -142.5q236 0 366.5 140.5t130.5 396.5t-131 395t-366.5 139t-367.5 -140t-132 -394zM317 542.5q0 184.5 80 285 t225.5 100.5t225.5 -101.5t80 -283.5q0 -184 -79 -283.5t-226.5 -99.5t-226.5 99t-79 283.5zM354 1223v235h220v-235h-220zM369 545q0 -164 65.5 -251t188 -87t188.5 87t66 251q0 162 -67 249t-187 87q-123 0 -188.5 -86t-65.5 -250zM404 1264h120v151h-120v-151zM696 1223 v235h220v-235h-220zM744 1264h122v151h-122v-151z" />
<glyph unicode="&#xf7;" horiz-adv-x="1705" d="M254 580v61h1198v-61h-1198zM762 270q0 39 27.5 65.5t64.5 26.5q39 0 64.5 -25.5t25.5 -64.5q0 -37 -26.5 -64.5t-63.5 -27.5q-39 0 -65.5 26.5t-26.5 63.5zM762 948q0 37 27.5 64.5t64.5 27.5t63.5 -26.5t26.5 -65.5t-25.5 -64.5t-64.5 -25.5t-65.5 25.5t-26.5 64.5z " />
<glyph unicode="&#xf8;" horiz-adv-x="1245" d="M6 37l156 162q-90 131 -90 350q0 266 148.5 422.5t400.5 156.5q205 0 333 -98l142 148l139 -134l-148 -153q88 -135 89 -346q0 -266 -146.5 -424t-394.5 -158q-219 0 -344 92l-144 -151zM72 37l71 -66l146 152q127 -113 327 -113q238 0 371 141.5t133 393.5 q0 215 -98 348l145 151l-69 68l-142 -147q-127 117 -346 116q-217 0 -351 -145t-134 -393q0 -217 98 -346zM307 545q0 188 82 288.5t234 100.5q135 0 225 -92l-500 -523q-41 90 -41 226zM358 539q1 -66 15 -125l405 424q-70 53 -149 53q-131 0 -201 -90t-70 -262zM399 244 l496 522q41 -98 41 -211q0 -401 -318 -401q-143 0 -219 90zM467 248q68 -51 147 -51q270 0 271 364q-1 56 -13 111z" />
<glyph unicode="&#xf9;" horiz-adv-x="1222" d="M123 301v786h291v-659q0 -117 35.5 -170t128.5 -53q229 0 229 344v538h289v-1087h-277v61q0 29 6 60q-113 -158 -323 -158q-180 0 -279.5 89t-99.5 249zM174 301q0 -137 88 -214t240 -77q119 0 205.5 54.5t158.5 171.5v-189h178v995h-186v-469q0 -416 -283 -415 q-117 0 -165 65.5t-48 204.5v614h-188v-741zM217 1526h350l229 -328h-194zM335 1483l285 -242h90l-170 242h-205z" />
<glyph unicode="&#xfa;" horiz-adv-x="1222" d="M123 301v786h291v-659q0 -117 35.5 -170t128.5 -53q229 0 229 344v538h289v-1087h-277v61q0 29 6 60q-113 -158 -323 -158q-180 0 -279.5 89t-99.5 249zM174 301q0 -137 88 -214t240 -77q119 0 205.5 54.5t158.5 171.5v-189h178v995h-186v-469q0 -416 -283 -415 q-117 0 -165 65.5t-48 204.5v614h-188v-741zM432 1198l229 328h350l-385 -328h-194zM518 1241h90l285 242h-205z" />
<glyph unicode="&#xfb;" horiz-adv-x="1222" d="M123 301v786h291v-659q0 -117 35.5 -170t128.5 -53q229 0 229 344v538h289v-1087h-277v61q0 29 6 60q-113 -158 -323 -158q-180 0 -279.5 89t-99.5 249zM174 301q0 -137 88 -214t240 -77q119 0 205.5 54.5t158.5 171.5v-189h178v995h-186v-469q0 -416 -283 -415 q-117 0 -165 65.5t-48 204.5v614h-188v-741zM270 1198l229 328h230l229 -328h-201l-143 129l-143 -129h-201zM354 1241h96l164 145l164 -145h96l-170 242h-180z" />
<glyph unicode="&#xfc;" horiz-adv-x="1222" d="M123 301v786h291v-659q0 -117 35.5 -170t128.5 -53q229 0 229 344v538h289v-1087h-277v61q0 29 6 60q-113 -158 -323 -158q-180 0 -279.5 89t-99.5 249zM174 301q0 -137 88 -214t240 -77q119 0 205.5 54.5t158.5 171.5v-189h178v995h-186v-469q0 -416 -283 -415 q-117 0 -165 65.5t-48 204.5v614h-188v-741zM333 1223v235h220v-235h-220zM383 1264h120v151h-120v-151zM675 1223v235h220v-235h-220zM723 1264h122v151h-122v-151z" />
<glyph unicode="&#xfd;" horiz-adv-x="1120" d="M20 1087h320l203 -618q18 -55 26 -123q12 72 29 125l195 616h305l-445 -1282q-49 -141 -121.5 -195t-228.5 -54q-57 0 -123 8v235h103q74 0 104.5 28t30.5 97q0 53 -19 103zM88 1042l358 -1013q18 -55 19 -105q0 -172 -172 -172h-62v-145q49 -6 78 -6q129 0 190.5 46 t102.5 165l428 1230h-201l-260 -817l-266 817h-215zM379 1198l229 328h350l-385 -328h-194zM465 1241h90l285 242h-205z" />
<glyph unicode="&#xfe;" horiz-adv-x="1243" d="M125 -436v1909h285v-431q0 -20 -9 -51q100 135 314 135q207 0 335 -158.5t128 -430.5q0 -270 -127 -422t-346 -152q-197 0 -312 137q16 -72 17 -80v-456h-285zM176 -389h182v575q160 -178 351 -178q186 0 300.5 139.5t114.5 372.5q0 268 -113.5 413.5t-314.5 145.5 q-203 0 -338 -188v534h-182v-1814zM358 547q0 178 80 276.5t217 98.5q129 0 205 -102.5t76 -282.5q0 -166 -78 -264.5t-209 -98.5q-137 0 -214 96.5t-77 276.5zM410 547q0 -162 61 -245t178 -83q106 0 170 87t64 233q0 158 -63 246.5t-169 88.5q-111 0 -176 -86t-65 -241z " />
<glyph unicode="&#xff;" horiz-adv-x="1120" d="M20 1087h320l203 -618q18 -55 26 -123q12 72 29 125l195 616h305l-445 -1282q-49 -141 -121.5 -195t-228.5 -54q-57 0 -123 8v235h103q74 0 104.5 28t30.5 97q0 53 -19 103zM88 1042l358 -1013q18 -55 19 -105q0 -172 -172 -172h-62v-145q49 -6 78 -6q129 0 190.5 46 t102.5 165l428 1230h-201l-260 -817l-266 817h-215zM280 1223v235h220v-235h-220zM330 1264h120v151h-120v-151zM622 1223v235h220v-235h-220zM670 1264h122v151h-122v-151z" />
<glyph unicode="&#x152;" horiz-adv-x="2324" d="M88 735q0 352 181.5 565t469.5 213q215 0 391 -143v103h1063v-256h-770v-314h705v-252h-705v-379h807v-272h-1100v102q-176 -143 -393 -143q-287 0 -468 212t-181 564zM141 735.5q0 -329.5 166 -529.5t432 -200q215 0 443 193v-152h995v178h-807v471h703v160h-703v408 h768v161h-956v-147q-229 188 -441 188q-266 0 -433 -200.5t-167 -530zM346 735q0 281 117 425.5t344 144.5q207 0 375 -162v-819q-166 -158 -379 -158q-221 0 -339 146.5t-118 422.5zM397 735q0 -522 410 -522q182 0 323 133v778q-141 135 -323 136q-410 0 -410 -525z" />
<glyph unicode="&#x153;" horiz-adv-x="1941" d="M72 545q0 270 146.5 425.5t393.5 155.5q254 0 394 -159q111 160 372 159q225 0 361.5 -151.5t136.5 -423.5q0 -29 -4 -94h-725q6 -119 64.5 -182.5t160.5 -63.5q162 0 197 119h284q-31 -164 -166 -265.5t-331 -101.5q-230 0 -361 156q-143 -156 -391 -156 q-242 0 -387 156.5t-145 425.5zM125 545q0 -250 133 -393.5t365 -143.5q223 0 381 178q131 -178 350 -178q156 0 272.5 74t165.5 201h-197q-16 -55 -77.5 -88t-149.5 -33q-135 0 -205.5 85t-70.5 249v6h725q0 8 1 23.5t1 21.5q0 252 -123 392t-332 140q-231 0 -360 -180 q-147 180 -381 180q-231 0 -364.5 -142t-133.5 -392zM313 544.5q0 184.5 81 284t228.5 99.5t227.5 -99.5t80 -284t-80 -284.5t-227.5 -100t-228.5 100t-81 284.5zM367 545q0 -162 67.5 -250t188 -88t187.5 88t67 250t-67 249t-187.5 87t-188 -87t-67.5 -249zM1096 612v25 q0 133 71.5 212t190.5 79q131 0 199.5 -78t68.5 -225v-13h-530zM1149 657h424q-2 109 -57.5 167.5t-151.5 58.5q-98 0 -156.5 -61t-58.5 -165z" />
<glyph unicode="&#x178;" horiz-adv-x="1351" d="M27 1473h366l266 -517q35 -66 41 -122q4 53 39 124l244 515h342l-473 -924v-549h-305v549zM109 1425l489 -868v-510h203v506l446 872h-231l-316 -657l-338 657h-253zM395 1608v235h220v-235h-220zM445 1649h120v151h-120v-151zM737 1608v235h220v-235h-220zM785 1649h122 v151h-122v-151z" />
<glyph unicode="&#x2c6;" horiz-adv-x="1024" d="M168 1198l229 328h230l229 -328h-201l-143 129l-143 -129h-201zM252 1241h96l164 145l164 -145h96l-170 242h-180z" />
<glyph unicode="&#x2dc;" horiz-adv-x="1024" d="M178 1217q16 139 62.5 200.5t136.5 61.5q35 0 65 -9l123 -32q23 -6 47 -6q70 0 90 77h144q-23 -268 -217 -268q-23 0 -47 6l-131 35q-29 8 -50 8q-57 0 -82 -73h-141zM233 1260h58q23 74 112 73q33 0 60 -8l119 -31q37 -8 53 -8q133 0 156 180h-62q-29 -80 -115 -80 q-18 0 -59 9l-119 28q-27 8 -57 9q-63 0 -97.5 -41t-48.5 -131z" />
<glyph unicode="&#x2000;" horiz-adv-x="955" />
<glyph unicode="&#x2001;" horiz-adv-x="1911" />
<glyph unicode="&#x2002;" horiz-adv-x="955" />
<glyph unicode="&#x2003;" horiz-adv-x="1911" />
<glyph unicode="&#x2004;" horiz-adv-x="637" />
<glyph unicode="&#x2005;" horiz-adv-x="477" />
<glyph unicode="&#x2006;" horiz-adv-x="318" />
<glyph unicode="&#x2007;" horiz-adv-x="318" />
<glyph unicode="&#x2008;" horiz-adv-x="238" />
<glyph unicode="&#x2009;" horiz-adv-x="382" />
<glyph unicode="&#x200a;" horiz-adv-x="106" />
<glyph unicode="&#x2010;" horiz-adv-x="661" d="M51 408v274h559v-274h-559zM102 453h457v182h-457v-182z" />
<glyph unicode="&#x2011;" horiz-adv-x="661" d="M51 408v274h559v-274h-559zM102 453h457v182h-457v-182z" />
<glyph unicode="&#x2012;" horiz-adv-x="661" d="M51 408v274h559v-274h-559zM102 453h457v182h-457v-182z" />
<glyph unicode="&#x2013;" horiz-adv-x="1024" d="M0 434v45h1038v-45h-1038zM0 608v47h1038v-47h-1038z" />
<glyph unicode="&#x2014;" horiz-adv-x="2048" d="M0 434v45h2048v-45h-2048zM0 608v47h2048v-47h-2048z" />
<glyph unicode="&#x2018;" horiz-adv-x="555" d="M121 924v258q0 129 75.5 212t202.5 91v-144q-106 -31 -106 -141v-12h106v-264h-278zM170 967h182v178h-100q0 6 -1 18.5t-1 16.5q0 145 102 184v70q-86 -18 -134 -84t-48 -166v-217z" />
<glyph unicode="&#x2019;" horiz-adv-x="555" d="M127 909v144q106 31 106 143v12h-106v265h279v-261q0 -129 -76 -211.5t-203 -91.5zM174 961q86 18 134 84.5t48 166.5v215h-182v-178h100q0 -6 1 -18t1 -17q0 -145 -102 -184v-69z" />
<glyph unicode="&#x201a;" horiz-adv-x="555" d="M127 0v264h276v-258q0 -129 -74.5 -212t-201.5 -91v143q104 31 104 140v14h-104zM172 -178v-70q86 18 135 85t49 167v215h-182v-178h100q0 -6 1 -17.5t1 -15.5q0 -143 -104 -186z" />
<glyph unicode="&#x201c;" horiz-adv-x="1019" d="M121 924v258q0 129 75.5 212t202.5 91v-144q-106 -31 -106 -141v-12h106v-264h-278zM170 967h182v178h-100q0 6 -1 18.5t-1 16.5q0 145 102 184v70q-86 -18 -134 -84t-48 -166v-217zM586 924v258q0 129 75.5 212t202.5 91v-144q-106 -31 -106 -141v-12h106v-264h-278z M635 967h182v178h-100q0 6 -1 17.5t-1 15.5q0 143 102 186v70q-86 -18 -134 -84t-48 -166v-217z" />
<glyph unicode="&#x201d;" horiz-adv-x="1019" d="M127 909v144q106 31 106 143v12h-106v265h279v-261q0 -129 -76 -211.5t-203 -91.5zM174 961q86 18 134 84.5t48 166.5v215h-182v-178h100q0 -6 1 -18t1 -17q0 -145 -102 -184v-69zM592 909v144q106 31 106 143v12h-106v265h278v-261q0 -129 -75.5 -211.5t-202.5 -91.5z M639 961q86 18 134 84.5t48 166.5v215h-182v-178h100q0 -6 1 -17t1 -15q0 -144 -102 -187v-69z" />
<glyph unicode="&#x201e;" horiz-adv-x="1019" d="M127 0v264h276v-258q0 -129 -74.5 -212t-201.5 -91v143q104 31 104 140v14h-104zM172 -178v-70q86 18 135 85t49 167v215h-182v-178h100q0 -6 1 -17.5t1 -15.5q0 -143 -104 -186zM592 0v264h278v-258q0 -129 -75.5 -212t-202.5 -91v143q106 31 106 142v12h-106zM639 41 h100q0 -6 1 -18.5t1 -16.5q0 -145 -102 -184v-70q86 18 134 85t48 167v215h-182v-178z" />
<glyph unicode="&#x2022;" horiz-adv-x="1208" d="M307 762q0 123 87 209t210 86q121 0 208 -86t87 -209q0 -121 -87 -209t-210 -88t-209 87t-86 210z" />
<glyph unicode="&#x2026;" horiz-adv-x="2048" d="M188 0v301h304v-301h-304zM238 43h206v215h-206v-215zM870 0v301h304v-301h-304zM920 43h206v215h-206v-215zM1554 0v301h304v-301h-304zM1604 43h206v215h-206v-215z" />
<glyph unicode="&#x202f;" horiz-adv-x="382" />
<glyph unicode="&#x2039;" horiz-adv-x="663" d="M133 438v211l361 312v-271l-168 -145l168 -148v-270zM186 457l265 -232v150l-168 141v55l168 142v149l-265 -231v-174z" />
<glyph unicode="&#x203a;" horiz-adv-x="663" d="M170 127v270l170 148l-170 145v271l360 -312v-211zM213 225l264 232v174l-264 231v-149l168 -142v-55l-168 -141v-150z" />
<glyph unicode="&#x205f;" horiz-adv-x="477" />
<glyph unicode="&#x2122;" horiz-adv-x="1705" d="M285 1411v41h409v-41h-174v-485h-57v485h-178zM827 926v526h88l181 -455l168 455h86v-526h-47v489l-185 -489h-45l-196 489v-489h-50z" />
<glyph unicode="&#xe000;" horiz-adv-x="1085" d="M0 0v1085h1085v-1085h-1085z" />
<glyph unicode="&#xfb01;" horiz-adv-x="1179" d="M8 870v217h156v101q0 295 307 295q84 0 158 -6v-232h-76q-61 0 -84 -15.5t-23 -66.5v-76h183v-217h-180v-870h-285v870h-156zM59 918h156v-873h182v873h181v124h-181v129q0 63 30 91t103 28h45v142q-74 4 -98 4q-141 0 -201.5 -61.5t-60.5 -200.5v-132h-156v-124zM762 0 v1087h285v-1087h-285zM762 1208v265h285v-265h-285zM813 45h182v997h-182v-997zM813 1251h182v174h-182v-174z" />
<glyph unicode="&#xfb02;" horiz-adv-x="1179" d="M8 870v217h156v101q0 295 307 295q84 0 158 -6v-232h-76q-61 0 -84 -15.5t-23 -66.5v-76h183v-217h-180v-870h-285v870h-156zM59 918h156v-873h182v873h181v124h-181v129q0 63 30 91t103 28h45v142q-74 4 -98 4q-141 0 -201.5 -61.5t-60.5 -200.5v-132h-156v-124zM762 0 v1473h285v-1473h-285zM813 45h182v1380h-182v-1380z" />
</font>
</defs>
</svg>
