<?xml version="1.0" standalone="no"?>
<!DOCTYPE svg PUBLIC "-//W3C//DTD SVG 1.1//EN" "http://www.w3.org/Graphics/SVG/1.1/DTD/svg11.dtd" >
<svg xmlns="http://www.w3.org/2000/svg">
<metadata></metadata>
<defs>
<font id="swiss_721lightitalic" horiz-adv-x="1089" >
<font-face units-per-em="2048" ascent="1638" descent="-410" />
<missing-glyph horiz-adv-x="544" />
<glyph horiz-adv-x="2048" />
<glyph horiz-adv-x="2048" />
<glyph unicode="&#xd;" horiz-adv-x="681" />
<glyph unicode=" "  horiz-adv-x="544" />
<glyph unicode="&#x09;" horiz-adv-x="544" />
<glyph unicode="&#xa0;" horiz-adv-x="544" />
<glyph unicode="!" horiz-adv-x="638" d="M94 0l39 178h148l-35 -178h-152zM197 346l100 592l115 535h133l-113 -535l-151 -592h-84z" />
<glyph unicode="&#x22;" horiz-adv-x="550" d="M100 881v553h86v-553h-86zM365 881v553h86v-553h-86z" />
<glyph unicode="#" horiz-adv-x="1574" d="M129 494l31 90h336l100 282h-360l28 90h365l176 498h110l-174 -498h271l176 498h110l-174 -498h322l-31 -90h-323l-101 -282h348l-30 -90h-351l-174 -494h-112l176 494h-270l-179 -494h-110l174 494h-334zM610 584h269l100 282h-270z" />
<glyph unicode="$" d="M37 367q0 6 1 18t1 21h121q0 -6 -1 -18.5t-1 -18.5q0 -233 219 -283l117 586q-156 63 -228.5 151t-72.5 215q0 172 115.5 282t303.5 110h27l27 124h92l-27 -133q139 -23 216 -113.5t77 -236.5v-20h-119v18q0 215 -194 246l-109 -551q184 -78 259 -164t75 -231 q0 -178 -126 -291t-335 -113h-29l-26 -135h-94l30 145q-154 25 -236.5 126.5t-82.5 265.5zM313 1053q0 -92 46 -146.5t157 -105.5l102 522h-20q-125 0 -205 -76t-80 -194zM467 76q10 0 18.5 -1t13.5 -1h7q131 0 219 79.5t88 208.5q0 102 -56.5 168t-178.5 111z" />
<glyph unicode="%" horiz-adv-x="1658" d="M76 1053q0 141 97 239.5t240.5 98.5t242 -97.5t98.5 -240.5q0 -141 -99.5 -240.5t-241 -99.5t-239.5 98.5t-98 241.5zM193 1050.5q0 -92.5 64.5 -156t156.5 -63.5t155.5 63.5t63.5 156t-63.5 157t-155.5 64.5t-156.5 -64.5t-64.5 -157zM317 -41l920 1473h104l-919 -1473 h-105zM905 340q0 141 98.5 239.5t242 98.5t240.5 -97.5t97 -240.5t-99.5 -241.5t-238.5 -98.5q-141 0 -240.5 98.5t-99.5 241.5zM1024 340q0 -92 64.5 -156.5t156.5 -64.5t155.5 64.5t63.5 156.5t-62.5 155.5t-156.5 63.5q-92 0 -156.5 -63.5t-64.5 -155.5z" />
<glyph unicode="&#x26;" horiz-adv-x="1335" d="M47 391q0 313 414 481q-106 176 -107 297q0 131 83 216t216 85q145 0 229.5 -76.5t84.5 -199.5q0 -119 -80 -208t-250 -167l307 -483q88 121 115 315h127q-27 -246 -174 -426l147 -225h-143l-88 137q-195 -174 -430 -174q-205 0 -328 118t-123 310zM178 387 q0 -133 91 -220t235 -87q205 0 360 156l-344 542q-178 -70 -260 -163t-82 -228zM475 1171q0 -98 100 -256q266 98 267 277q0 80 -47 127t-127 47q-90 0 -141.5 -50t-51.5 -145z" />
<glyph unicode="'" horiz-adv-x="284" d="M100 881v553h86v-553h-86z" />
<glyph unicode="(" horiz-adv-x="647" d="M133 346q0 575 526 1149h109q-260 -311 -383 -601t-123 -626q0 -289 119 -684h-88q-160 432 -160 762z" />
<glyph unicode=")" horiz-adv-x="647" d="M-197 -416q260 311 383 601t123 624q0 291 -119 686h89q160 -432 159 -762q0 -575 -526 -1149h-109z" />
<glyph unicode="*" horiz-adv-x="1024" d="M207 1159l35 115l290 -107l-4 306h119l-20 -306l288 105l41 -109l-303 -84l205 -250l-96 -69l-182 266l-181 -264l-94 67l201 250z" />
<glyph unicode="+" horiz-adv-x="1705" d="M254 569v80h559v570h80v-570h559v-80h-559v-569h-80v569h-559z" />
<glyph unicode="," horiz-adv-x="544" d="M-12 -276l12 77q55 18 79.5 62.5t43.5 136.5h-72l41 176h148l-39 -176q-29 -137 -74 -200.5t-139 -75.5z" />
<glyph unicode="-" horiz-adv-x="669" d="M33 471l22 119h498l-25 -119h-495z" />
<glyph unicode="." horiz-adv-x="544" d="M59 0l37 182h156l-39 -182h-154z" />
<glyph unicode="/" horiz-adv-x="598" d="M-37 -172l549 1683h100l-549 -1683h-100z" />
<glyph unicode="0" d="M39 489q0 176 51 363.5t129 312.5q166 268 428 269q199 0 302.5 -131.5t103.5 -382.5q0 -199 -54.5 -394.5t-144.5 -337.5q-70 -111 -176.5 -172t-226.5 -61q-197 0 -304.5 138t-107.5 396zM178 469q0 -399 277 -399q205 0 327 252q135 274 136 628q-1 371 -273 371 q-199 0 -326 -234q-59 -109 -100 -279.5t-41 -338.5z" />
<glyph unicode="1" d="M236 1028l16 94q172 51 281.5 121t183.5 189h102l-305 -1432h-125l250 1176q-211 -125 -403 -148z" />
<glyph unicode="2" d="M4 0q18 188 122.5 316t322.5 255q33 18 115.5 63.5t131.5 79.5t88 74q96 102 97 244q0 135 -72 211t-199 76q-274 0 -334 -342h-126q33 219 152.5 337t301.5 118q188 0 301 -109t113 -279q0 -61 -13.5 -115.5t-30 -94t-57 -83.5t-67.5 -70t-90.5 -67t-97 -61.5 t-113.5 -65.5q-184 -106 -274.5 -186t-108.5 -178h717l-27 -123h-852z" />
<glyph unicode="3" d="M43 377h125q4 -145 88 -227t225 -82q143 0 239.5 96t96.5 250q0 260 -334 260h-61l22 108l48 -2h28q178 0 270.5 76t92.5 215q0 111 -75 180.5t-194 69.5q-123 0 -203.5 -72.5t-107.5 -208.5h-123q31 190 143.5 288.5t294.5 98.5q176 0 282 -98t106 -252 q0 -129 -63.5 -223t-180.5 -135q182 -94 182 -322q0 -203 -125 -321.5t-334 -118.5q-205 0 -322.5 111.5t-119.5 308.5z" />
<glyph unicode="4" d="M25 362l20 107l809 922h121l-193 -930h213l-24 -99h-213l-78 -362h-129l80 362h-606zM178 461h481l150 719z" />
<glyph unicode="5" d="M53 338h129q4 -127 81 -198.5t202 -71.5q158 0 262 122.5t104 315.5q0 145 -80.5 227t-218.5 82q-164 0 -299 -147l-110 10l207 713h686l-25 -115h-581l-129 -440q131 86 280 86q178 0 289 -115t111 -303q0 -244 -138.5 -395.5t-361.5 -151.5q-184 0 -296 103.5 t-112 277.5z" />
<glyph unicode="6" d="M76 473q0 424 170 692.5t432 268.5q162 0 260 -93.5t98 -250.5v-23h-118q-2 123 -67 189.5t-179 66.5q-152 0 -271 -147.5t-172 -423.5q150 172 357 172q168 0 274.5 -114t106.5 -300q0 -240 -134.5 -394.5t-334.5 -154.5q-207 0 -314.5 130t-107.5 382zM213 389 q0 -143 77 -230t210 -87q141 0 237.5 127t96.5 311q0 147 -74 229t-205 82q-154 0 -248 -117.5t-94 -314.5z" />
<glyph unicode="7" d="M131 1280l29 111h903l-14 -105q-512 -647 -717 -1286h-139q203 647 706 1280h-768z" />
<glyph unicode="8" d="M47 352q0 330 309 424q-156 115 -155 279q0 170 112.5 275.5t309.5 105.5q176 0 284.5 -98.5t108.5 -250.5q0 -266 -252 -350q201 -102 201 -329q0 -211 -124 -331t-354 -120q-209 0 -324.5 105.5t-115.5 289.5zM182 356q0 -131 82 -210.5t225 -79.5q154 0 248 94t94 248 q0 133 -82 212.5t-219 79.5q-160 0 -254 -94t-94 -250zM332 1057q0 -121 73.5 -188.5t204.5 -67.5q117 0 197 81t80 199q0 113 -72 179.5t-201 66.5q-127 0 -204.5 -78t-77.5 -192z" />
<glyph unicode="9" d="M51 305v23h119q2 -123 66.5 -189.5t179.5 -66.5q152 0 270.5 147.5t171.5 423.5q-150 -172 -356 -172q-168 0 -274.5 113.5t-106.5 300.5q0 240 134 394.5t335 154.5q207 0 314.5 -130t107.5 -382q0 -424 -170 -692.5t-432 -268.5q-162 0 -260.5 93t-98.5 251zM254 885 q0 -147 73.5 -229.5t204.5 -82.5q154 0 248 118t94 315q0 143 -76.5 230t-209.5 87q-141 0 -237.5 -127t-96.5 -311z" />
<glyph unicode=":" horiz-adv-x="591" d="M82 0l37 182h155l-36 -182h-156zM262 860l37 182h156l-37 -182h-156z" />
<glyph unicode=";" horiz-adv-x="591" d="M2 -276l14 77q51 18 79 64.5t42 134.5h-69l41 178h147l-39 -178q-29 -137 -75 -200.5t-140 -75.5zM244 862l39 180h157l-37 -180h-159z" />
<glyph unicode="&#x3c;" horiz-adv-x="1705" d="M264 580v61l1178 483v-90l-1045 -424l1045 -424v-88z" />
<glyph unicode="=" horiz-adv-x="1705" d="M254 389v80h1198v-80h-1198zM254 752v79h1198v-79h-1198z" />
<glyph unicode="&#x3e;" horiz-adv-x="1705" d="M264 98v88l1045 424l-1045 424v90l1178 -483v-61z" />
<glyph unicode="?" horiz-adv-x="1005" d="M96 1061q4 207 123 322.5t324 115.5q201 0 315.5 -101.5t114.5 -269.5q0 -68 -17.5 -124t-40 -95t-70.5 -80t-84 -65.5t-106 -65.5q-109 -66 -152.5 -132t-60.5 -208h-118q14 147 61 240.5t147 163.5q29 20 85.5 54t87 57.5t67.5 60.5t54.5 84t17.5 108q0 121 -81 193 t-222.5 72t-226.5 -88.5t-91 -241.5h-127zM248 0l31 176h147l-35 -176h-143z" />
<glyph unicode="@" horiz-adv-x="2048" d="M121 522q0 328 198 572q291 356 795 356q334 0 553 -168q260 -201 260 -504q0 -348 -244 -540q-139 -111 -305 -111q-193 0 -192 145q0 10 4 39q-102 -184 -291 -184q-154 0 -233.5 83t-79.5 243q0 229 135 386.5t326 157.5q195 0 256 -170l61 129h80l-137 -553 q-20 -76 -21 -108q0 -92 117 -92q98 0 203 76q100 74 161.5 205.5t61.5 283.5q0 272 -198.5 439t-526.5 167q-336 0 -569 -192q-309 -256 -310 -672q0 -326 220.5 -521.5t592.5 -195.5q338 0 623 193l29 -45q-293 -219 -648 -220q-377 0 -620 185q-301 227 -301 616z M690 446q0 -117 57.5 -181t159.5 -64q111 0 196 72.5t116 193.5l63 254q-45 203 -233 203q-152 0 -255.5 -138.5t-103.5 -339.5z" />
<glyph unicode="A" horiz-adv-x="1185" d="M-117 0l781 1473h155l285 -1473h-139l-80 459h-619l-237 -459h-146zM322 571h540l-139 777z" />
<glyph unicode="B" horiz-adv-x="1300" d="M12 0l312 1473h415q125 0 202 -17.5t142 -79.5q106 -100 107 -254q0 -262 -258 -362q211 -88 211 -322q0 -205 -134.5 -321.5t-383.5 -116.5h-613zM176 117h342q262 0 350 53q137 82 138 276q0 270 -369 271h-334zM326 829h383q348 0 348 279q0 129 -80 186.5t-246 57.5 h-293z" />
<glyph unicode="C" horiz-adv-x="1427" d="M94 618q0 178 60.5 348.5t171.5 301.5q204 243 521 243h3q231 0 366.5 -125.5t147.5 -355.5h-131q-14 176 -116.5 270.5t-274.5 94.5q-256 0 -431 -224.5t-175 -552.5q0 -254 124.5 -398t344.5 -144q150 0 272.5 96t175.5 262h133q-61 -219 -225 -346t-365 -127 q-285 0 -443.5 175t-158.5 482z" />
<glyph unicode="D" horiz-adv-x="1425" d="M12 0l301 1473h398q104 0 159.5 -4.5t129 -30t135.5 -76.5q192 -161 192 -491q0 -206 -66.5 -382t-185.5 -296q-123 -125 -259 -159t-357 -34h-447zM168 115h293q154 0 251 16t185 76q133 92 214 272t81 400q0 236 -115 362q-63 72 -145 93.5t-217 21.5h-287z" />
<glyph unicode="E" horiz-adv-x="1161" d="M12 0l307 1473h840l-29 -121h-700l-111 -527h689l-25 -120h-690l-123 -590h793l-21 -115h-930z" />
<glyph unicode="F" horiz-adv-x="1058" d="M12 0l312 1473h794l-24 -123h-658l-110 -525h639l-27 -118h-639l-149 -707h-138z" />
<glyph unicode="G" horiz-adv-x="1509" d="M94 618q0 180 60.5 349.5t171.5 300.5q204 243 525 243h3q225 0 366.5 -122.5t157.5 -329.5h-129q-20 158 -124.5 249t-266.5 91q-266 0 -444 -224.5t-178 -556.5q0 -252 124.5 -397t339.5 -145q186 0 334 148.5t195 400.5h-496l29 112h624l-163 -739h-113l39 195 q-195 -231 -467 -232q-274 0 -431 177t-157 480z" />
<glyph unicode="H" horiz-adv-x="1415" d="M12 0l307 1473h140l-129 -635h798l134 635h139l-309 -1473h-140l152 723h-799l-151 -723h-142z" />
<glyph unicode="I" horiz-adv-x="479" d="M16 0l308 1473h139l-309 -1473h-138z" />
<glyph unicode="J" horiz-adv-x="958" d="M-51 272q0 60 12 166h135q-14 -86 -14 -141q0 -217 211 -217q135 0 198.5 72.5t98.5 240.5l225 1080h137l-235 -1127q-43 -201 -141.5 -292t-284.5 -91q-164 0 -253 81t-89 228z" />
<glyph unicode="K" horiz-adv-x="1208" d="M16 0l312 1473h139l-156 -738l813 738h183l-670 -603l498 -870h-150l-446 780l-271 -241l-114 -539h-138z" />
<glyph unicode="L" horiz-adv-x="1009" d="M16 0l314 1473h137l-285 -1348h766l-26 -125h-906z" />
<glyph unicode="M" horiz-adv-x="1626" d="M12 0l305 1473h179l202 -1293l713 1293h203l-307 -1473h-127l276 1315l-725 -1315h-123l-198 1303l-267 -1303h-131z" />
<glyph unicode="N" horiz-adv-x="1417" d="M12 0l312 1473h153l524 -1311l271 1311h133l-307 -1473h-166l-514 1290l-264 -1290h-142z" />
<glyph unicode="O" horiz-adv-x="1533" d="M92 608q0 188 66.5 367.5t181.5 306.5q213 233 512 234q285 0 437.5 -166t152.5 -471q0 -193 -62.5 -371t-175.5 -311q-96 -115 -235 -178.5t-295 -63.5q-274 0 -428 173t-154 480zM231 608q0 -252 121 -393t332 -141q264 0 440 228t176 579q0 254 -115.5 385t-338.5 131 q-258 0 -436.5 -226.5t-178.5 -562.5z" />
<glyph unicode="P" horiz-adv-x="1193" d="M12 0l297 1473h359q123 0 199.5 -12.5t140.5 -55.5q152 -100 151 -301q0 -281 -190 -397q-82 -49 -181.5 -62.5t-273.5 -13.5h-242l-120 -631h-140zM299 754h322q205 0 305 79.5t100 258.5q0 137 -84 198.5t-258 61.5h-264z" />
<glyph unicode="Q" horiz-adv-x="1533" d="M94 606q0 197 64.5 373t181.5 303q213 233 510 234q291 0 440.5 -165t149.5 -483q0 -236 -97.5 -449.5t-257.5 -328.5l175 -174l-80 -84l-197 199q-168 -74 -283 -74q-297 0 -451.5 167t-154.5 482zM233 612q0 -260 121 -399t346 -139q78 0 195 43l-164 166l80 82 l188 -189q141 106 221 291.5t80 411.5q0 516 -452 516q-266 0 -440.5 -222.5t-174.5 -560.5z" />
<glyph unicode="R" horiz-adv-x="1290" d="M12 0l312 1473h434q227 0 345 -94.5t118 -264.5q0 -330 -308 -407q145 -82 146 -252q0 -55 -2 -86l-15 -181q-2 -41 -2 -79q0 -59 23 -93v-16h-152q-10 41 -10 74q0 16 4 86l15 192q2 27 2 97q0 125 -64.5 170t-212.5 45h-354l-141 -664h-138zM315 780h338 q217 0 323.5 79t106.5 247q0 242 -305 242h-342z" />
<glyph unicode="S" horiz-adv-x="1214" d="M43 412v24h127q0 -176 95 -269t274 -93q166 0 258 84t92 225q0 121 -65.5 185.5t-215.5 119.5q-92 35 -143 57.5t-111.5 59.5t-90.5 76t-50 97t-20 132q0 182 121.5 294t324.5 112q229 0 351 -115t130 -334h-127q-14 170 -100 251t-254 81q-147 0 -229 -77t-82 -204 q0 -53 15 -94t34.5 -66.5t65.5 -53t77 -40t101.5 -40t109.5 -44.5q291 -123 291 -393q0 -195 -132 -312.5t-364 -117.5q-227 0 -355 120t-128 335z" />
<glyph unicode="T" d="M174 1354l25 119h989l-25 -119h-401l-289 -1354h-139l289 1354h-449z" />
<glyph unicode="U" horiz-adv-x="1415" d="M106 369q0 94 33 254l180 850h136l-185 -885q-24 -109 -24 -189v-6q0 -143 97 -229t255 -86q201 0 310.5 105.5t158.5 338.5l201 951h133l-187 -910q-66 -322 -198.5 -463t-413.5 -141q-233 0 -364.5 115.5t-131.5 294.5z" />
<glyph unicode="V" horiz-adv-x="1075" d="M90 1473h127l219 -1299l611 1299h139l-703 -1473h-143z" />
<glyph unicode="W" horiz-adv-x="1638" d="M125 1473h125l108 -1235l484 1235h145l137 -1235l461 1235h137l-559 -1473h-129l-145 1282l-494 -1282h-139z" />
<glyph unicode="X" horiz-adv-x="1034" d="M-123 0l563 772l-350 701h146l280 -590l428 590h160l-529 -715l383 -758h-143l-321 645l-455 -645h-162z" />
<glyph unicode="Y" horiz-adv-x="985" d="M53 1473h135l312 -701l440 701h150l-543 -850l-125 -623h-135l137 657z" />
<glyph unicode="Z" horiz-adv-x="1228" d="M-16 0l16 102l1032 1258h-796l24 113h961l-23 -113l-1028 -1251h850l-23 -109h-1013z" />
<glyph unicode="[" horiz-adv-x="675" d="M16 -424l390 1894h382l-24 -100h-262l-344 -1692h258l-21 -102h-379z" />
<glyph unicode="\" horiz-adv-x="598" d="M100 1511h99l254 -1683h-101z" />
<glyph unicode="]" horiz-adv-x="675" d="M-201 -424l25 102h262l344 1692h-258l21 103h378l-389 -1897h-383z" />
<glyph unicode="^" horiz-adv-x="2048" d="M424 901l539 557h118l541 -557h-125l-473 469l-475 -469h-125z" />
<glyph unicode="_" horiz-adv-x="1024" d="M0 -403h1024v-80h-1024v80z" />
<glyph unicode="`" horiz-adv-x="1024" d="M360 1548h150l221 -348h-88z" />
<glyph unicode="a" horiz-adv-x="1054" d="M-27 268q0 184 158 279q43 27 105.5 42t103.5 19t139 10q193 16 236 33q70 43 73 148q0 184 -256 184q-285 0 -317 -217h-113q49 317 449 317q170 0 262 -72.5t92 -201.5q0 -53 -16 -127l-105 -487q-6 -25 -6 -54q0 -57 53 -57q37 0 78 14l-20 -98q-35 -18 -84 -18 q-141 0 -141 139q-168 -150 -363 -150q-152 0 -240 83t-88 214zM104 272q0 -88 59.5 -141t158.5 -53q354 0 417 469q-76 -29 -227.5 -38t-204.5 -20q-203 -41 -203 -217z" />
<glyph unicode="b" horiz-adv-x="1179" d="M-12 0l313 1473h121l-117 -547q143 162 332 162h1q190 0 303.5 -125t113.5 -332q0 -279 -150.5 -467.5t-380.5 -188.5q-279 0 -370 248l-48 -223h-118zM209 428q0 -160 82 -254t219 -94q182 0 299 154.5t117 400.5q0 166 -81 257t-224 91q-174 0 -293 -162t-119 -393z " />
<glyph unicode="c" horiz-adv-x="1101" d="M29 430q0 281 152.5 468t387.5 187q197 0 306.5 -99t111.5 -277h-117q-4 129 -83.5 202.5t-213.5 73.5q-178 0 -297.5 -161.5t-119.5 -391.5q0 -166 85 -259t238 -93q121 0 215 73.5t131 200.5h131q-45 -180 -173 -281.5t-308 -101.5q-209 0 -327.5 121t-118.5 338z" />
<glyph unicode="d" horiz-adv-x="1175" d="M29 428q0 274 150.5 465.5t379.5 191.5q137 0 226 -58t143 -183l133 629h123l-314 -1473h-110l26 133q-143 -162 -342 -162q-190 0 -302.5 125t-112.5 332zM156 428q0 -164 80.5 -255t222.5 -91q182 0 297.5 154.5t115.5 410.5q0 160 -80 248t-225 88 q-176 0 -293.5 -158.5t-117.5 -396.5z" />
<glyph unicode="e" horiz-adv-x="1099" d="M27 428q0 289 150.5 474t381.5 185q199 0 307.5 -117.5t108.5 -330.5q0 -25 -8 -123h-807q-6 -70 -6 -119q0 -147 80.5 -232t224.5 -85q250 0 332 246h120q-45 -170 -164.5 -261.5t-297.5 -91.5q-203 0 -312.5 118t-109.5 337zM180 629h670q2 25 2 53q0 139 -76 220 t-207 81q-297 0 -389 -354z" />
<glyph unicode="f" horiz-adv-x="497" d="M25 0l204 967h-166l23 96h164l35 162q31 139 78 200.5t153 61.5q47 0 119 -17l-21 -102q-57 12 -86 12q-59 0 -82.5 -33.5t-42.5 -123.5l-32 -160h182l-18 -96h-185l-205 -967h-120z" />
<glyph unicode="g" horiz-adv-x="1179" d="M-6 -115h119q23 -204 270 -204h2q190 0 273 99t124 341q-139 -145 -340 -146q-188 0 -301.5 123t-113.5 326q0 279 156.5 470t381.5 191q279 0 369 -247l47 223h121l-215 -1018q-27 -127 -59.5 -208t-88 -144.5t-140.5 -91t-210 -27.5q-370 0 -395 313zM158 432 q0 -164 80.5 -258t224.5 -94q182 0 298 156.5t116 400.5q0 164 -80 255t-217 91q-182 0 -302 -162t-120 -389z" />
<glyph unicode="h" horiz-adv-x="1097" d="M-12 0l311 1473h123l-119 -562q172 174 367 174q139 0 217 -72.5t78 -199.5q0 -57 -15 -123l-145 -690h-123l149 707q14 66 15 104q0 80 -53.5 124t-149.5 44q-170 0 -271.5 -111.5t-150.5 -335.5l-112 -532h-121z" />
<glyph unicode="i" horiz-adv-x="415" d="M-12 0l225 1063h121l-225 -1063h-121zM252 1305l35 168h141l-35 -168h-141z" />
<glyph unicode="j" horiz-adv-x="421" d="M-231 -416l22 107q37 -4 53 -4q53 0 77 36.5t44 131.5l254 1208h121l-258 -1227q-29 -139 -80 -198.5t-158 -59.5q-28 0 -75 6zM258 1305l35 168h141l-35 -168h-141z" />
<glyph unicode="k" horiz-adv-x="970" d="M-12 0l311 1473h121l-193 -912l572 502h162l-418 -369l282 -694h-135l-239 612l-261 -227l-81 -385h-121z" />
<glyph unicode="l" horiz-adv-x="415" d="M-12 0l313 1473h121l-313 -1473h-121z" />
<glyph unicode="m" horiz-adv-x="1689" d="M-16 0l223 1063h119l-37 -160q145 184 348 184q227 0 276 -180q137 180 367 180q131 0 206 -67.5t75 -190.5q0 -45 -15 -110l-151 -719h-121l147 715q16 78 17 108q0 76 -48.5 119t-134.5 43q-158 0 -247.5 -104.5t-137.5 -321.5l-122 -559h-123l161 748q10 41 11 88 q0 149 -174 149h-2q-147 0 -251 -113.5t-153 -341.5l-115 -530h-118z" />
<glyph unicode="n" horiz-adv-x="1093" d="M-18 0l225 1063h115l-33 -162q172 184 375 184q139 0 218 -72.5t79 -199.5q0 -57 -15 -123l-147 -690h-121l151 707q12 53 13 104q0 82 -53.5 125t-149.5 43q-170 0 -271.5 -110.5t-150.5 -336.5l-113 -532h-122z" />
<glyph unicode="o" horiz-adv-x="1126" d="M27 426q0 283 155.5 475.5t390.5 192.5q205 0 318 -120t113 -341q0 -291 -153 -477.5t-392 -186.5q-203 0 -317.5 121t-114.5 336zM156 426q0 -168 79.5 -259t225.5 -91q176 0 294.5 163.5t118.5 399.5q0 350 -309 350q-176 0 -292.5 -161.5t-116.5 -401.5z" />
<glyph unicode="p" horiz-adv-x="1179" d="M-109 -424l318 1487h119l-31 -137q151 159 344 159h2q190 0 303 -124.5t113 -331.5q0 -272 -151.5 -463t-381.5 -191q-279 0 -374 238l-136 -637h-125zM209 428q0 -162 80 -256t219 -94q178 0 298 157.5t120 405.5q0 160 -82.5 251t-225.5 91q-176 0 -292.5 -160.5 t-116.5 -394.5z" />
<glyph unicode="q" horiz-adv-x="1179" d="M31 434q0 270 151.5 461.5t378.5 191.5q143 0 233.5 -57t145.5 -182l47 217h119l-318 -1489h-120l118 553q-150 -156 -333 -156q-195 0 -308.5 124t-113.5 337zM158 432q0 -166 79.5 -258t223.5 -92q184 0 300 151.5t116 403.5q0 170 -78 259t-221 89q-182 0 -301 -160.5 t-119 -392.5z" />
<glyph unicode="r" horiz-adv-x="591" d="M-8 0l217 1063h113l-29 -139q143 166 266 166q41 0 86 -17l-27 -119q-49 6 -71 7q-125 0 -200 -103.5t-120 -322.5l-108 -535h-127z" />
<glyph unicode="s" horiz-adv-x="989" d="M-14 332h123q25 -260 307 -260q129 0 201.5 57t72.5 158q0 53 -39 94t-76.5 59.5t-148.5 59.5q-16 6 -25 10q-154 59 -219 120.5t-65 168.5q0 129 100 210t272 81q365 0 383 -324h-114q-20 225 -287 225q-102 0 -167.5 -50t-65.5 -128q0 -74 51 -114t176 -89 q96 -37 146.5 -61.5t104.5 -62t76.5 -87t22.5 -114.5q0 -137 -111.5 -226.5t-297.5 -89.5q-195 0 -303.5 93.5t-116.5 269.5z" />
<glyph unicode="t" horiz-adv-x="526" d="M43 131q0 59 23 160l141 676h-158l21 96h161l64 295h121l-64 -295h197l-21 -96h-200l-148 -717q-12 -68 -12 -86q0 -45 20.5 -62.5t71.5 -17.5q45 0 117 22l-23 -106q-76 -23 -121 -23q-190 0 -190 154z" />
<glyph unicode="u" horiz-adv-x="1093" d="M43 248q0 59 14 125l148 690h121l-150 -709q-14 -63 -14 -104q0 -82 53 -125t150 -43q170 0 271 110.5t150 335.5l115 535h121l-225 -1063h-115l33 160q-174 -182 -375 -183q-139 0 -218 72t-79 199z" />
<glyph unicode="v" horiz-adv-x="890" d="M31 1063h114l181 -897l456 897h125l-545 -1063h-118z" />
<glyph unicode="w" horiz-adv-x="1413" d="M41 1063h117l131 -873l385 873h108l138 -873l378 873h123l-471 -1063h-106l-139 877l-390 -877h-104z" />
<glyph unicode="x" horiz-adv-x="864" d="M-131 0l450 569l-270 494h125l225 -406l322 406h147l-413 -516l305 -547h-137l-242 457l-365 -457h-147z" />
<glyph unicode="y" horiz-adv-x="890" d="M-106 -414l20 107q45 -6 72 -6q51 0 83.5 25.5t63.5 84.5l111 215l-215 1051h123l176 -901l456 901h127l-643 -1268q-61 -121 -115.5 -173t-152.5 -52q-45 0 -106 16z" />
<glyph unicode="z" horiz-adv-x="907" d="M-92 0l26 127l764 829h-624l22 107h768l-28 -129l-760 -828h676l-23 -106h-821z" />
<glyph unicode="{" horiz-adv-x="1024" d="M176 485v90q18 -2 49 -2q141 0 197.5 66t56.5 221v240q0 217 63.5 297t262.5 80h43v-88h-37q-141 0 -185 -55.5t-44 -209.5v-241q0 -162 -39 -241t-156 -112q119 -35 157 -112.5t38 -239.5v-241q0 -154 43 -208.5t184 -54.5h39v-88h-43q-199 0 -262.5 79t-63.5 296v240 q0 156 -57 221t-201 65q-6 0 -21.5 -1t-23.5 -1z" />
<glyph unicode="|" horiz-adv-x="1024" d="M467 -483v2048h90v-2048h-90z" />
<glyph unicode="}" horiz-adv-x="1024" d="M176 -326h39q141 0 184 54.5t43 208.5v241q0 162 39 240t158 112q-119 33 -158 112t-39 241v241q0 154 -44 209.5t-185 55.5h-37v88h43q199 0 262.5 -80t63.5 -297v-240q0 -156 57 -221.5t201 -65.5q6 0 21.5 1t23.5 1v-90q-8 0 -23.5 1t-21.5 1q-143 0 -200.5 -65.5 t-57.5 -220.5v-240q0 -217 -63.5 -296t-262.5 -79h-43v88z" />
<glyph unicode="~" horiz-adv-x="1705" d="M178 481v92q211 147 387 148q92 0 289 -70q199 -72 289 -71q160 0 387 159v-92q-211 -147 -387 -147q-98 0 -289 69q-8 2 -41 14.5t-43 15.5t-37.5 12.5t-43 12.5t-39 8t-44 7t-41.5 2q-160 0 -387 -160z" />
<glyph unicode="&#xa1;" horiz-adv-x="638" d="M104 0l111 535l152 591h84l-101 -591l-112 -535h-134zM367 1292l34 181h152l-39 -181h-147z" />
<glyph unicode="&#xa2;" d="M37 432q0 285 154.5 471.5t396.5 186.5q35 0 51 -3l76 240h92l-78 -256q260 -82 264 -362h-114q-12 203 -183 258l-270 -885q57 -4 63 -4q119 0 213.5 73.5t131.5 202.5h124q-49 -184 -171.5 -283.5t-294.5 -99.5q-27 0 -97 9l-80 -261l-90 11l82 268q-270 100 -270 434z M164 430q0 -229 176 -326l268 879q-10 2 -33 2q-170 0 -290.5 -161.5t-120.5 -393.5z" />
<glyph unicode="&#xa3;" d="M59 94q213 176 213 430q0 41 -6 125h-186l22 88h148q-23 154 -23 219q0 217 124 346.5t327 129.5q176 0 274.5 -96.5t98.5 -270.5q0 -2 -7 -88h-118q4 49 4 67q0 274 -260 275q-137 0 -227.5 -94.5t-90.5 -247.5q0 -92 29 -240h350l-24 -88h-316q8 -90 8 -125 q0 -225 -190 -413q82 37 160 36q74 0 207 -33.5t182 -33.5q70 0 184 55l-31 -143q-74 -33 -157.5 -33t-224 37t-207.5 37q-107 -1 -230 -64z" />
<glyph unicode="&#xa4;" d="M-43 541l39 86h141q8 96 25 174h-150l39 86h131q70 242 218.5 394.5t338.5 152.5q164 0 265.5 -110t113.5 -308h-117q-25 305 -274 305q-135 0 -243.5 -122t-161.5 -312h639l-39 -86h-623q-18 -82 -25 -174h562l-39 -86h-527v-9q0 -217 75 -339.5t224 -122.5 q94 0 185.5 79.5t144.5 212.5h123q-61 -193 -190.5 -300t-274.5 -107q-201 0 -312.5 149.5t-111.5 421.5v15h-176z" />
<glyph unicode="&#xa5;" d="M29 592l14 67h426l-66 144h-329l14 67h285l-238 527h121l307 -676l465 676h131l-362 -527h284l-14 -67h-319l-103 -144h391l-14 -67h-418l-119 -592h-129l123 592h-450z" />
<glyph unicode="&#xa6;" horiz-adv-x="1024" d="M467 -350v758h90v-758h-90zM467 674v758h90v-758h-90z" />
<glyph unicode="&#xa7;" horiz-adv-x="1024" d="M57 102q0 8 1 22.5t1 20.5h115v-32q0 -117 45 -169.5t146 -52.5q96 0 151 51.5t55 135.5q0 66 -31.5 117t-99.5 112l-192 178q-150 141 -150 283q0 205 234 287q-45 76 -45 151q0 121 85 202t228 81q135 0 215 -82t80 -223q0 -6 -1 -19.5t-1 -19.5h-111v24 q0 102 -48 157.5t-136 55.5q-84 0 -138 -51t-54 -125q0 -100 112 -196l230 -203q137 -123 137 -256q0 -225 -238 -305q45 -82 45 -162q0 -137 -88 -218t-244 -81q-303 0 -303 317zM221 788q0 -55 32 -110t73 -95t124 -119t140 -140q176 70 176 208q0 59 -40 112.5 t-157.5 158t-183.5 172.5q-164 -49 -164 -187z" />
<glyph unicode="&#xa8;" horiz-adv-x="1024" d="M387 1278l35 162h143l-35 -162h-143zM711 1278l32 162h144l-35 -162h-141z" />
<glyph unicode="&#xa9;" horiz-adv-x="1705" d="M123 721q0 299 217 520q207 211 512 211t520 -215q211 -211 211 -516t-211 -512q-223 -219 -520 -219t-514 217q-215 215 -215 514zM194.5 721q0.5 -268 195 -463t462.5 -195t469 197q190 186 190 460.5t-190 465.5q-195 195 -469 194.5t-461 -190.5 q-197 -201 -196.5 -469zM471 725q0 207 107.5 329t281.5 122q131 0 222.5 -72t103.5 -186h-105q-20 82 -79.5 127t-147.5 45q-125 0 -195.5 -97.5t-70.5 -273.5q0 -170 71.5 -267.5t194.5 -97.5q90 0 155.5 52.5t84.5 140.5h102q-10 -123 -107.5 -201t-240.5 -78 q-172 0 -274.5 122t-102.5 335z" />
<glyph unicode="&#xaa;" horiz-adv-x="790" d="M-20 918q0 127 118 194q68 39 262 49q156 12 187 29q45 23 45 98q0 129 -193 129q-213 0 -237 -151h-84q37 221 336 221q129 0 197.5 -50.5t68.5 -142.5q0 -29 -12 -88l-80 -342q-4 -16 -4 -37q0 -39 41 -39q31 0 57 11l-14 -70q-25 -12 -64 -12q-106 0 -106 96 q-125 -104 -273 -104q-113 0 -179 58t-66 151zM78 920q0 -63 45 -99.5t119 -36.5q264 0 313 328q-57 -20 -171 -26.5t-153 -14.5q-154 -29 -153 -151z" />
<glyph unicode="&#xab;" horiz-adv-x="815" d="M10 459l29 143l350 223l-31 -145l-258 -162l191 -162l-25 -114zM358 459l31 143l348 223l-30 -145l-258 -162l190 -162l-25 -114z" />
<glyph unicode="&#xac;" horiz-adv-x="1705" d="M254 776v80h1198v-502h-80v422h-1118z" />
<glyph unicode="&#xad;" horiz-adv-x="669" d="M33 471l22 119h498l-25 -119h-495z" />
<glyph unicode="&#xae;" horiz-adv-x="1705" d="M123 721q0 299 217 520q207 211 512 211t520 -215q211 -211 211 -516t-211 -512q-223 -219 -520 -219t-514 217q-215 215 -215 514zM194.5 721q0.5 -268 195 -463t462.5 -195t469 197q190 186 190 460.5t-190 465.5q-195 195 -469 194.5t-461 -190.5 q-197 -201 -196.5 -469zM569 309v846h305q178 0 263.5 -56.5t85.5 -176.5q0 -88 -55.5 -148.5t-147.5 -71.5l190 -393h-131l-182 377h-213v-377h-115zM684 764h168q139 0 196.5 33.5t57.5 128.5q0 151 -254 151h-168v-313z" />
<glyph unicode="&#xaf;" horiz-adv-x="1024" d="M369 1300l24 117h512l-24 -117h-512z" />
<glyph unicode="&#xb0;" horiz-adv-x="673" d="M63 1175.5q0 114.5 80 194.5t195 80q113 0 192.5 -81t79.5 -193.5t-79.5 -192.5t-194.5 -80t-194 79t-79 193.5zM125 1176q0 -88 62.5 -150.5t150.5 -62.5t150.5 62t62.5 150.5t-62.5 151t-150.5 62.5t-150.5 -61.5t-62.5 -151.5z" />
<glyph unicode="&#xb1;" horiz-adv-x="1705" d="M254 61v80h1198v-80h-1198zM254 727v80h559v354h80v-354h559v-80h-559v-352h-80v352h-559z" />
<glyph unicode="&#xb2;" horiz-adv-x="718" d="M2 557q14 113 83 189.5t212 152.5q27 14 77 40t84 46.5t60 44.5q63 59 64 146q0 82 -47.5 127t-131.5 45q-180 0 -221 -205h-84q20 131 100.5 201.5t200.5 70.5q125 0 199 -64.5t74 -166.5q0 -51 -16.5 -94t-38 -72t-69.5 -62.5t-82 -51t-104 -54.5q-121 -63 -181 -111.5 t-72 -107.5h473l-17 -74h-563z" />
<glyph unicode="&#xb3;" horiz-adv-x="718" d="M29 782h82q2 -86 58 -135t148 -49q96 0 159 57.5t63 149.5q0 156 -220 156h-40l14 65h51q238 0 238 174q0 66 -49.5 108t-126.5 42q-166 0 -205 -168h-82q41 231 289 231q117 0 186.5 -59.5t69.5 -149.5q0 -78 -42 -134t-118 -81q119 -57 119 -194q0 -121 -82 -193 t-222 -72q-133 0 -210.5 67t-79.5 185z" />
<glyph unicode="&#xb4;" horiz-adv-x="1024" d="M485 1200l244 348h148l-299 -348h-93z" />
<glyph unicode="&#xb6;" horiz-adv-x="1024" d="M90 1130q0 156 107.5 252.5t287.5 96.5h447v-64h-129v-1415h-70v1415h-192v-1415h-70v782q-176 8 -278.5 103.5t-102.5 244.5z" />
<glyph unicode="&#xb7;" horiz-adv-x="544" d="M190 696.5q0 32.5 24 57t58.5 24.5t58 -24.5t23.5 -57t-23.5 -57.5t-58 -25t-58.5 25t-24 57.5z" />
<glyph unicode="&#xb8;" horiz-adv-x="1024" d="M88 -416l27 78q145 -39 211 -39q141 0 141 111q0 49 -43 68.5t-139 19.5h-19l60 178h65l-37 -111h21q205 0 205 -155q0 -90 -61.5 -142.5t-176.5 -52.5q-102 0 -254 45z" />
<glyph unicode="&#xb9;" horiz-adv-x="718" d="M156 1174l10 57q115 29 186.5 70.5t120.5 113.5h68l-201 -858h-82l164 705q-137 -74 -266 -88z" />
<glyph unicode="&#xba;" horiz-adv-x="845" d="M20 1028q0 197 117 332t293 135q154 0 239 -84t85 -240q0 -203 -115 -332.5t-295 -129.5q-154 0 -239 83.5t-85 235.5zM117 1028q0 -119 60.5 -182.5t168.5 -63.5q133 0 221 115t88 279q0 245 -231 245q-133 0 -220 -112.5t-87 -280.5z" />
<glyph unicode="&#xbb;" horiz-adv-x="815" d="M-18 242l30 143l256 164l-188 160l24 116l256 -219l-30 -143zM330 242l30 143l256 164l-188 160l25 116l256 -219l-31 -143z" />
<glyph unicode="&#xbc;" horiz-adv-x="1716" d="M150 1188l10 53q209 53 293 172h63l-190 -801h-80l157 658q-137 -68 -253 -82zM344 -41l920 1473h104l-919 -1473h-105zM1044 203l13 59l510 516h75l-120 -520h133l-15 -55h-135l-49 -203h-82l51 203h-381zM1141 258h303l94 404z" />
<glyph unicode="&#xbd;" horiz-adv-x="1716" d="M150 1188l10 53q209 53 293 172h63l-190 -801h-80l157 658q-137 -68 -253 -82zM344 -41l920 1473h104l-919 -1473h-105zM1030 0q12 104 78 176t203 143q20 12 72.5 37t83 43.5t55.5 42.5q61 57 61 136q0 76 -45 118.5t-125 42.5q-174 0 -211 -192h-80q20 123 96 188.5 t191 65.5q119 0 189.5 -60.5t70.5 -154.5q0 -59 -18.5 -103.5t-67.5 -83.5t-87 -61.5t-122 -65.5q-115 -57 -172 -102t-69 -100h452l-18 -70h-537z" />
<glyph unicode="&#xbe;" horiz-adv-x="1714" d="M27 823h79q2 -82 55.5 -128t141.5 -46q90 0 150.5 54.5t60.5 140.5q0 145 -209 145h-39l15 62l28 -2h19q113 0 171 43t58 120q0 61 -47 100.5t-123 39.5q-160 0 -197 -158h-77q41 217 276 217q111 0 177.5 -55.5t66.5 -138.5q0 -154 -154 -201q115 -55 115 -180 q0 -115 -78 -181.5t-211 -66.5q-127 0 -201.5 62.5t-76.5 172.5zM344 -41l920 1473h104l-919 -1473h-105zM1044 203l13 59l510 516h75l-120 -520h133l-15 -55h-135l-49 -203h-82l51 203h-381zM1141 258h303l94 404z" />
<glyph unicode="&#xbf;" horiz-adv-x="1005" d="M31 342q0 68 17.5 124t40 95t70.5 80t84 65.5t105 65.5q109 66 153 132.5t60 207.5h117q-14 -147 -61.5 -239.5t-147.5 -161.5q-29 -20 -85 -54t-87 -58t-67.5 -60.5t-54 -83.5t-17.5 -109q0 -121 80.5 -192.5t222 -71.5t227.5 87t92 241h127q-4 -205 -121.5 -321 t-324.5 -116q-203 0 -316.5 100.5t-113.5 268.5zM578 1296l34 177h144l-33 -177h-145z" />
<glyph unicode="&#xc0;" horiz-adv-x="1185" d="M-117 0l781 1473h155l285 -1473h-139l-80 459h-619l-237 -459h-146zM322 571h540l-139 777zM510 1970h150l221 -348h-88z" />
<glyph unicode="&#xc1;" horiz-adv-x="1185" d="M-117 0l781 1473h155l285 -1473h-139l-80 459h-619l-237 -459h-146zM322 571h540l-139 777zM635 1622l244 348h148l-299 -348h-93z" />
<glyph unicode="&#xc2;" horiz-adv-x="1185" d="M-117 0l781 1473h155l285 -1473h-139l-80 459h-619l-237 -459h-146zM322 571h540l-139 777zM484 1622l266 348h133l152 -348h-80l-146 248l-233 -248h-92z" />
<glyph unicode="&#xc3;" horiz-adv-x="1185" d="M-117 0l781 1473h155l285 -1473h-139l-80 459h-619l-237 -459h-146zM322 571h540l-139 777zM504 1673q37 100 78 143.5t109 43.5q27 0 57 -11l92 -26q45 -12 58 -12q66 0 92 71h80q-35 -96 -78 -139t-113 -43q-23 0 -67 12l-95 29q-29 8 -45 8q-59 0 -88 -76h-80z" />
<glyph unicode="&#xc4;" horiz-adv-x="1185" d="M-117 0l781 1473h155l285 -1473h-139l-80 459h-619l-237 -459h-146zM322 571h540l-139 777zM537 1700l35 162h143l-35 -162h-143zM861 1700l32 162h144l-35 -162h-141z" />
<glyph unicode="&#xc5;" horiz-adv-x="1185" d="M-117 0l781 1473h155l285 -1473h-139l-80 459h-619l-237 -459h-146zM322 571h540l-139 777zM537 1747q0 94 65.5 159.5t159.5 65.5t160.5 -65.5t66.5 -159.5t-66.5 -160.5t-160.5 -66.5t-159.5 66.5t-65.5 160.5zM633 1745q0 -53 38 -90t91 -37t91 37t38 90q0 55 -38 93 t-91 38t-91 -39t-38 -92z" />
<glyph unicode="&#xc6;" horiz-adv-x="1847" d="M-152 0l877 1473h1118l-28 -121h-652l-110 -527h641l-25 -120h-643l-123 -590h744l-21 -115h-881l95 451h-578l-262 -451h-152zM330 571h534l166 781h-246z" />
<glyph unicode="&#xc7;" horiz-adv-x="1427" d="M94 618q0 178 60.5 348.5t171.5 301.5q205 244 524 243q231 0 366.5 -125.5t147.5 -355.5h-131q-14 176 -116.5 270.5t-274.5 94.5q-256 0 -431 -224.5t-175 -552.5q0 -254 124.5 -398t344.5 -144q150 0 272.5 96t175.5 262h133q-61 -219 -225 -346t-365 -127 q-285 0 -443.5 175t-158.5 482zM397 -416l27 78q145 -39 211 -39q141 0 141 111q0 49 -43 68.5t-139 19.5h-19l60 178h65l-37 -111h21q205 0 205 -155q0 -90 -61.5 -142.5t-176.5 -52.5q-102 0 -254 45z" />
<glyph unicode="&#xc8;" horiz-adv-x="1161" d="M12 0l307 1473h840l-29 -121h-700l-111 -527h689l-25 -120h-690l-123 -590h793l-21 -115h-930zM530 1970h150l221 -348h-88z" />
<glyph unicode="&#xc9;" horiz-adv-x="1161" d="M12 0l307 1473h840l-29 -121h-700l-111 -527h689l-25 -120h-690l-123 -590h793l-21 -115h-930zM655 1622l244 348h148l-299 -348h-93z" />
<glyph unicode="&#xca;" horiz-adv-x="1161" d="M12 0l307 1473h840l-29 -121h-700l-111 -527h689l-25 -120h-690l-123 -590h793l-21 -115h-930zM504 1622l266 348h133l152 -348h-80l-146 248l-233 -248h-92z" />
<glyph unicode="&#xcb;" horiz-adv-x="1161" d="M12 0l307 1473h840l-29 -121h-700l-111 -527h689l-25 -120h-690l-123 -590h793l-21 -115h-930zM557 1700l35 162h143l-35 -162h-143zM881 1700l32 162h144l-35 -162h-141z" />
<glyph unicode="&#xcc;" horiz-adv-x="479" d="M16 0l308 1473h139l-309 -1473h-138zM176 1970h150l221 -348h-88z" />
<glyph unicode="&#xcd;" horiz-adv-x="479" d="M16 0l308 1473h139l-309 -1473h-138zM301 1622l244 348h148l-299 -348h-93z" />
<glyph unicode="&#xce;" horiz-adv-x="479" d="M16 0l308 1473h139l-309 -1473h-138zM150 1622l266 348h133l152 -348h-80l-146 248l-233 -248h-92z" />
<glyph unicode="&#xcf;" horiz-adv-x="479" d="M16 0l308 1473h139l-309 -1473h-138zM203 1700l35 162h143l-35 -162h-143zM527 1700l32 162h144l-35 -162h-141z" />
<glyph unicode="&#xd0;" horiz-adv-x="1425" d="M-6 731l18 96h170l131 646h398q104 0 159.5 -4.5t129 -30t135.5 -76.5q193 -162 192 -494q0 -203 -66.5 -379t-185.5 -296q-123 -125 -259 -159t-357 -34h-447l150 731h-168zM168 115h293q154 0 251 16t185 76q133 92 214 272t81 400q0 236 -115 362q-63 72 -145 93.5 t-217 21.5h-287l-109 -529h429l-21 -96h-428z" />
<glyph unicode="&#xd1;" horiz-adv-x="1417" d="M12 0l312 1473h153l524 -1311l271 1311h133l-307 -1473h-166l-514 1290l-264 -1290h-142zM639 1673q37 100 78 143.5t109 43.5q27 0 57 -11l92 -26q45 -12 58 -12q66 0 92 71h80q-35 -96 -78 -139t-113 -43q-23 0 -67 12l-95 29q-29 8 -45 8q-59 0 -88 -76h-80z" />
<glyph unicode="&#xd2;" horiz-adv-x="1533" d="M92 608q0 188 66.5 367.5t181.5 306.5q213 233 512 234q285 0 437.5 -166t152.5 -471q0 -193 -62.5 -371t-175.5 -311q-96 -115 -235 -178.5t-295 -63.5q-274 0 -428 173t-154 480zM231 608q0 -252 121 -393t332 -141q264 0 440 228t176 579q0 254 -115.5 385t-338.5 131 q-258 0 -436.5 -226.5t-178.5 -562.5zM655 1970h150l221 -348h-88z" />
<glyph unicode="&#xd3;" horiz-adv-x="1533" d="M92 608q0 188 66.5 367.5t181.5 306.5q213 233 512 234q285 0 437.5 -166t152.5 -471q0 -193 -62.5 -371t-175.5 -311q-96 -115 -235 -178.5t-295 -63.5q-274 0 -428 173t-154 480zM231 608q0 -252 121 -393t332 -141q264 0 440 228t176 579q0 254 -115.5 385t-338.5 131 q-258 0 -436.5 -226.5t-178.5 -562.5zM780 1622l244 348h148l-299 -348h-93z" />
<glyph unicode="&#xd4;" horiz-adv-x="1533" d="M92 608q0 188 66.5 367.5t181.5 306.5q213 233 512 234q285 0 437.5 -166t152.5 -471q0 -193 -62.5 -371t-175.5 -311q-96 -115 -235 -178.5t-295 -63.5q-274 0 -428 173t-154 480zM231 608q0 -252 121 -393t332 -141q264 0 440 228t176 579q0 254 -115.5 385t-338.5 131 q-258 0 -436.5 -226.5t-178.5 -562.5zM629 1622l266 348h133l152 -348h-80l-146 248l-233 -248h-92z" />
<glyph unicode="&#xd5;" horiz-adv-x="1533" d="M92 608q0 188 66.5 367.5t181.5 306.5q213 233 512 234q285 0 437.5 -166t152.5 -471q0 -193 -62.5 -371t-175.5 -311q-96 -115 -235 -178.5t-295 -63.5q-274 0 -428 173t-154 480zM231 608q0 -252 121 -393t332 -141q264 0 440 228t176 579q0 254 -115.5 385t-338.5 131 q-258 0 -436.5 -226.5t-178.5 -562.5zM649 1673q37 100 78 143.5t109 43.5q27 0 57 -11l92 -26q45 -12 58 -12q66 0 92 71h80q-35 -96 -78 -139t-113 -43q-23 0 -67 12l-95 29q-29 8 -45 8q-59 0 -88 -76h-80z" />
<glyph unicode="&#xd6;" horiz-adv-x="1533" d="M92 608q0 188 66.5 367.5t181.5 306.5q213 233 512 234q285 0 437.5 -166t152.5 -471q0 -193 -62.5 -371t-175.5 -311q-96 -115 -235 -178.5t-295 -63.5q-274 0 -428 173t-154 480zM231 608q0 -252 121 -393t332 -141q264 0 440 228t176 579q0 254 -115.5 385t-338.5 131 q-258 0 -436.5 -226.5t-178.5 -562.5zM682 1700l35 162h143l-35 -162h-143zM1006 1700l32 162h144l-35 -162h-141z" />
<glyph unicode="&#xd7;" horiz-adv-x="1705" d="M309 123l488 487l-488 488l58 57l487 -487l487 487l58 -57l-488 -488l488 -487l-58 -57l-487 487l-487 -487z" />
<glyph unicode="&#xd8;" horiz-adv-x="1533" d="M33 -33l178 207q-119 188 -119 426q0 408 248 682q211 231 526 231q254 0 396 -133l149 174l80 -63l-164 -188q113 -182 113 -429q0 -401 -240 -679q-205 -236 -526 -236q-252 0 -395 135l-170 -194zM233 608q0 -190 74 -325l867 995q-104 117 -320 117 q-270 0 -445.5 -222.5t-175.5 -564.5zM369 199q125 -123 321 -123q262 0 436 227t174 582q0 178 -65 309z" />
<glyph unicode="&#xd9;" horiz-adv-x="1415" d="M106 369q0 94 33 254l180 850h136l-185 -885q-25 -113 -24 -195q0 -143 97 -229t255 -86q201 0 310.5 105.5t158.5 338.5l201 951h133l-187 -910q-66 -322 -198.5 -463t-413.5 -141q-233 0 -364.5 115.5t-131.5 294.5zM645 1970h150l221 -348h-88z" />
<glyph unicode="&#xda;" horiz-adv-x="1415" d="M106 369q0 94 33 254l180 850h136l-185 -885q-25 -113 -24 -195q0 -143 97 -229t255 -86q201 0 310.5 105.5t158.5 338.5l201 951h133l-187 -910q-66 -322 -198.5 -463t-413.5 -141q-233 0 -364.5 115.5t-131.5 294.5zM770 1622l244 348h148l-299 -348h-93z" />
<glyph unicode="&#xdb;" horiz-adv-x="1415" d="M106 369q0 94 33 254l180 850h136l-185 -885q-25 -113 -24 -195q0 -143 97 -229t255 -86q201 0 310.5 105.5t158.5 338.5l201 951h133l-187 -910q-66 -322 -198.5 -463t-413.5 -141q-233 0 -364.5 115.5t-131.5 294.5zM619 1622l266 348h133l152 -348h-80l-146 248 l-233 -248h-92z" />
<glyph unicode="&#xdc;" horiz-adv-x="1415" d="M106 369q0 94 33 254l180 850h136l-185 -885q-25 -113 -24 -195q0 -143 97 -229t255 -86q201 0 310.5 105.5t158.5 338.5l201 951h133l-187 -910q-66 -322 -198.5 -463t-413.5 -141q-233 0 -364.5 115.5t-131.5 294.5zM672 1700l35 162h143l-35 -162h-143zM996 1700 l32 162h144l-35 -162h-141z" />
<glyph unicode="&#xdd;" horiz-adv-x="985" d="M53 1473h135l312 -701l440 701h150l-543 -850l-125 -623h-135l137 657zM555 1622l244 348h148l-299 -348h-93z" />
<glyph unicode="&#xde;" horiz-adv-x="1193" d="M12 0l297 1473h137l-53 -267h225q250 0 371 -90t121 -289q0 -270 -192 -387q-57 -35 -135 -52t-138.5 -19t-179.5 -2h-242l-71 -367h-140zM248 489h323q205 0 305.5 79t100.5 257q0 135 -85 198.5t-259 63.5h-262z" />
<glyph unicode="&#xdf;" horiz-adv-x="1062" d="M-16 0l217 1075q84 406 420 406q164 0 265 -93.5t101 -234.5q0 -254 -264 -336q102 -51 149.5 -126t47.5 -189q0 -227 -135.5 -378t-348.5 -151q-49 0 -127 21l25 106q47 -16 98 -16q158 0 259.5 121t101.5 295q0 127 -73 196.5t-210 69.5q-33 0 -49 -2l20 100 q18 -2 49 -2q160 0 246 77t86 208q0 102 -63.5 164.5t-165.5 62.5q-137 0 -212 -84t-112 -264l-209 -1026h-116z" />
<glyph unicode="&#xe0;" horiz-adv-x="1054" d="M-27 268q0 184 158 279q43 27 105.5 42t103.5 19t139 10q193 16 236 33q70 43 73 148q0 184 -256 184q-285 0 -317 -217h-113q49 317 449 317q170 0 262 -72.5t92 -201.5q0 -53 -16 -127l-105 -487q-6 -25 -6 -54q0 -57 53 -57q37 0 78 14l-20 -98q-35 -18 -84 -18 q-141 0 -141 139q-168 -150 -363 -150q-152 0 -240 83t-88 214zM104 272q0 -88 59.5 -141t158.5 -53q354 0 417 469q-76 -29 -227.5 -38t-204.5 -20q-203 -41 -203 -217zM333 1548h150l221 -348h-88z" />
<glyph unicode="&#xe1;" horiz-adv-x="1054" d="M-27 268q0 184 158 279q43 27 105.5 42t103.5 19t139 10q193 16 236 33q70 43 73 148q0 184 -256 184q-285 0 -317 -217h-113q49 317 449 317q170 0 262 -72.5t92 -201.5q0 -53 -16 -127l-105 -487q-6 -25 -6 -54q0 -57 53 -57q37 0 78 14l-20 -98q-35 -18 -84 -18 q-141 0 -141 139q-168 -150 -363 -150q-152 0 -240 83t-88 214zM104 272q0 -88 59.5 -141t158.5 -53q354 0 417 469q-76 -29 -227.5 -38t-204.5 -20q-203 -41 -203 -217zM458 1200l244 348h148l-299 -348h-93z" />
<glyph unicode="&#xe2;" horiz-adv-x="1054" d="M-27 268q0 184 158 279q43 27 105.5 42t103.5 19t139 10q193 16 236 33q70 43 73 148q0 184 -256 184q-285 0 -317 -217h-113q49 317 449 317q170 0 262 -72.5t92 -201.5q0 -53 -16 -127l-105 -487q-6 -25 -6 -54q0 -57 53 -57q37 0 78 14l-20 -98q-35 -18 -84 -18 q-141 0 -141 139q-168 -150 -363 -150q-152 0 -240 83t-88 214zM104 272q0 -88 59.5 -141t158.5 -53q354 0 417 469q-76 -29 -227.5 -38t-204.5 -20q-203 -41 -203 -217zM307 1200l266 348h133l152 -348h-80l-146 248l-233 -248h-92z" />
<glyph unicode="&#xe3;" horiz-adv-x="1054" d="M-27 268q0 184 158 279q43 27 105.5 42t103.5 19t139 10q193 16 236 33q70 43 73 148q0 184 -256 184q-285 0 -317 -217h-113q49 317 449 317q170 0 262 -72.5t92 -201.5q0 -53 -16 -127l-105 -487q-6 -25 -6 -54q0 -57 53 -57q37 0 78 14l-20 -98q-35 -18 -84 -18 q-141 0 -141 139q-168 -150 -363 -150q-152 0 -240 83t-88 214zM104 272q0 -88 59.5 -141t158.5 -53q354 0 417 469q-76 -29 -227.5 -38t-204.5 -20q-203 -41 -203 -217zM327 1251q37 100 78 143.5t109 43.5q27 0 57 -11l92 -26q45 -12 58 -12q66 0 92 71h80 q-35 -96 -78 -139t-113 -43q-23 0 -67 12l-95 29q-29 8 -45 8q-59 0 -88 -76h-80z" />
<glyph unicode="&#xe4;" horiz-adv-x="1054" d="M-27 268q0 184 158 279q43 27 105.5 42t103.5 19t139 10q193 16 236 33q70 43 73 148q0 184 -256 184q-285 0 -317 -217h-113q49 317 449 317q170 0 262 -72.5t92 -201.5q0 -53 -16 -127l-105 -487q-6 -25 -6 -54q0 -57 53 -57q37 0 78 14l-20 -98q-35 -18 -84 -18 q-141 0 -141 139q-168 -150 -363 -150q-152 0 -240 83t-88 214zM104 272q0 -88 59.5 -141t158.5 -53q354 0 417 469q-76 -29 -227.5 -38t-204.5 -20q-203 -41 -203 -217zM360 1278l35 162h143l-35 -162h-143zM684 1278l32 162h144l-35 -162h-141z" />
<glyph unicode="&#xe5;" horiz-adv-x="1054" d="M-27 268q0 184 158 279q43 27 105.5 42t103.5 19t139 10q193 16 236 33q70 43 73 148q0 184 -256 184q-285 0 -317 -217h-113q49 317 449 317q170 0 262 -72.5t92 -201.5q0 -53 -16 -127l-105 -487q-6 -25 -6 -54q0 -57 53 -57q37 0 78 14l-20 -98q-35 -18 -84 -18 q-141 0 -141 139q-168 -150 -363 -150q-152 0 -240 83t-88 214zM104 272q0 -88 59.5 -141t158.5 -53q354 0 417 469q-76 -29 -227.5 -38t-204.5 -20q-203 -41 -203 -217zM383 1358q0 94 65.5 159.5t159.5 65.5t161 -65.5t67 -159.5t-67 -161t-161 -67t-159.5 67t-65.5 161z M479 1356q0 -53 38 -90t91.5 -37t91 37t37.5 90q0 55 -37.5 93t-91 38t-91.5 -39t-38 -92z" />
<glyph unicode="&#xe6;" horiz-adv-x="1781" d="M-27 268q0 172 121 252t371 98q201 14 244 29q74 27 79 125v27q0 184 -266 184q-279 0 -301 -217h-119q23 156 134.5 238.5t302.5 82.5q260 0 342 -163q156 164 358 163q418 0 418 -456q0 -45 -6 -115h-807q-6 -70 -6 -119q0 -147 81.5 -233t225.5 -86q121 0 206 63.5 t126 184.5h120q-45 -170 -164.5 -261.5t-297.5 -91.5q-278 1 -387 234q-195 -233 -449 -234q-147 0 -236.5 83t-89.5 212zM104 272q0 -88 59.5 -141t158.5 -53q178 0 290.5 124t126.5 345q-68 -27 -220 -36t-212 -22q-203 -41 -203 -217zM864 618h670q2 27 2 66 q0 141 -75 220t-208 79q-156 0 -257 -94.5t-132 -270.5z" />
<glyph unicode="&#xe7;" horiz-adv-x="1101" d="M29 430q0 281 152.5 468t387.5 187q197 0 306.5 -99t111.5 -277h-117q-4 129 -83.5 202.5t-213.5 73.5q-178 0 -297.5 -161.5t-119.5 -391.5q0 -166 85 -259t238 -93q121 0 215 73.5t131 200.5h131q-45 -180 -173 -281.5t-308 -101.5q-209 0 -327.5 121t-118.5 338z M164 -416l27 78q145 -39 211 -39q141 0 141 111q0 49 -43 68.5t-139 19.5h-19l60 178h65l-37 -111h21q205 0 205 -155q0 -90 -61.5 -142.5t-176.5 -52.5q-102 0 -254 45z" />
<glyph unicode="&#xe8;" horiz-adv-x="1099" d="M27 428q0 289 150.5 474t381.5 185q199 0 307.5 -117.5t108.5 -330.5q0 -25 -8 -123h-807q-6 -70 -6 -119q0 -147 80.5 -232t224.5 -85q250 0 332 246h120q-45 -170 -164.5 -261.5t-297.5 -91.5q-203 0 -312.5 118t-109.5 337zM180 629h670q2 25 2 53q0 139 -76 220 t-207 81q-297 0 -389 -354zM344 1548h150l221 -348h-88z" />
<glyph unicode="&#xe9;" horiz-adv-x="1099" d="M27 428q0 289 150.5 474t381.5 185q199 0 307.5 -117.5t108.5 -330.5q0 -25 -8 -123h-807q-6 -70 -6 -119q0 -147 80.5 -232t224.5 -85q250 0 332 246h120q-45 -170 -164.5 -261.5t-297.5 -91.5q-203 0 -312.5 118t-109.5 337zM180 629h670q2 25 2 53q0 139 -76 220 t-207 81q-297 0 -389 -354zM469 1200l244 348h148l-299 -348h-93z" />
<glyph unicode="&#xea;" horiz-adv-x="1099" d="M27 428q0 289 150.5 474t381.5 185q199 0 307.5 -117.5t108.5 -330.5q0 -25 -8 -123h-807q-6 -70 -6 -119q0 -147 80.5 -232t224.5 -85q250 0 332 246h120q-45 -170 -164.5 -261.5t-297.5 -91.5q-203 0 -312.5 118t-109.5 337zM180 629h670q2 25 2 53q0 139 -76 220 t-207 81q-297 0 -389 -354zM318 1200l266 348h133l152 -348h-80l-146 248l-233 -248h-92z" />
<glyph unicode="&#xeb;" horiz-adv-x="1099" d="M27 428q0 289 150.5 474t381.5 185q199 0 307.5 -117.5t108.5 -330.5q0 -25 -8 -123h-807q-6 -70 -6 -119q0 -147 80.5 -232t224.5 -85q250 0 332 246h120q-45 -170 -164.5 -261.5t-297.5 -91.5q-203 0 -312.5 118t-109.5 337zM180 629h670q2 25 2 53q0 139 -76 220 t-207 81q-297 0 -389 -354zM371 1278l35 162h143l-35 -162h-143zM695 1278l32 162h144l-35 -162h-141z" />
<glyph unicode="&#xec;" horiz-adv-x="415" d="M-12 0l225 1063h121l-225 -1063h-121zM57 1548h150l221 -348h-88z" />
<glyph unicode="&#xed;" horiz-adv-x="415" d="M-12 0l225 1063h121l-225 -1063h-121zM182 1200l244 348h148l-299 -348h-93z" />
<glyph unicode="&#xee;" horiz-adv-x="415" d="M-12 0l225 1063h121l-225 -1063h-121zM31 1200l266 348h133l152 -348h-80l-146 248l-233 -248h-92z" />
<glyph unicode="&#xef;" horiz-adv-x="415" d="M-12 0l225 1063h121l-225 -1063h-121zM84 1278l35 162h143l-35 -162h-143zM408 1278l32 162h144l-35 -162h-141z" />
<glyph unicode="&#xf0;" horiz-adv-x="1126" d="M27 424q0 268 153.5 453.5t378.5 185.5q125 0 252 -78q-51 145 -184 252l-244 -113l-33 68l211 98q-92 59 -248 121l41 90q156 -49 320 -151l270 129l31 -70l-236 -111q266 -248 267 -634q0 -315 -148.5 -503t-396.5 -188q-207 0 -320.5 119t-113.5 332zM158 422 q0 -166 79.5 -257t225.5 -91q174 0 289.5 159.5t115.5 387.5q0 348 -315 348q-172 0 -283.5 -158t-111.5 -389z" />
<glyph unicode="&#xf1;" horiz-adv-x="1093" d="M-18 0l225 1063h115l-33 -162q172 184 375 184q139 0 218 -72.5t79 -199.5q0 -57 -15 -123l-147 -690h-121l151 707q12 53 13 104q0 82 -53.5 125t-149.5 43q-170 0 -271.5 -110.5t-150.5 -336.5l-113 -532h-122zM407 1251q37 100 78 143.5t109 43.5q27 0 57 -11l92 -26 q45 -12 58 -12q66 0 92 71h80q-35 -96 -78 -139t-113 -43q-23 0 -67 12l-95 29q-29 8 -45 8q-59 0 -88 -76h-80z" />
<glyph unicode="&#xf2;" horiz-adv-x="1126" d="M27 426q0 283 155.5 475.5t390.5 192.5q205 0 318 -120t113 -341q0 -291 -153 -477.5t-392 -186.5q-203 0 -317.5 121t-114.5 336zM156 426q0 -168 79.5 -259t225.5 -91q176 0 294.5 163.5t118.5 399.5q0 350 -309 350q-176 0 -292.5 -161.5t-116.5 -401.5zM366 1548h150 l221 -348h-88z" />
<glyph unicode="&#xf3;" horiz-adv-x="1126" d="M27 426q0 283 155.5 475.5t390.5 192.5q205 0 318 -120t113 -341q0 -291 -153 -477.5t-392 -186.5q-203 0 -317.5 121t-114.5 336zM156 426q0 -168 79.5 -259t225.5 -91q176 0 294.5 163.5t118.5 399.5q0 350 -309 350q-176 0 -292.5 -161.5t-116.5 -401.5zM491 1200 l244 348h148l-299 -348h-93z" />
<glyph unicode="&#xf4;" horiz-adv-x="1126" d="M27 426q0 283 155.5 475.5t390.5 192.5q205 0 318 -120t113 -341q0 -291 -153 -477.5t-392 -186.5q-203 0 -317.5 121t-114.5 336zM156 426q0 -168 79.5 -259t225.5 -91q176 0 294.5 163.5t118.5 399.5q0 350 -309 350q-176 0 -292.5 -161.5t-116.5 -401.5zM340 1200 l266 348h133l152 -348h-80l-146 248l-233 -248h-92z" />
<glyph unicode="&#xf5;" horiz-adv-x="1126" d="M27 426q0 283 155.5 475.5t390.5 192.5q205 0 318 -120t113 -341q0 -291 -153 -477.5t-392 -186.5q-203 0 -317.5 121t-114.5 336zM156 426q0 -168 79.5 -259t225.5 -91q176 0 294.5 163.5t118.5 399.5q0 350 -309 350q-176 0 -292.5 -161.5t-116.5 -401.5zM360 1251 q37 100 78 143.5t109 43.5q27 0 57 -11l92 -26q45 -12 58 -12q66 0 92 71h80q-35 -96 -78 -139t-113 -43q-23 0 -67 12l-95 29q-29 8 -45 8q-59 0 -88 -76h-80z" />
<glyph unicode="&#xf6;" horiz-adv-x="1126" d="M27 426q0 283 155.5 475.5t390.5 192.5q205 0 318 -120t113 -341q0 -291 -153 -477.5t-392 -186.5q-203 0 -317.5 121t-114.5 336zM156 426q0 -168 79.5 -259t225.5 -91q176 0 294.5 163.5t118.5 399.5q0 350 -309 350q-176 0 -292.5 -161.5t-116.5 -401.5zM393 1278 l35 162h143l-35 -162h-143zM717 1278l32 162h144l-35 -162h-141z" />
<glyph unicode="&#xf7;" horiz-adv-x="1705" d="M254 571v80h1198v-80h-1198zM756 266q0 41 29.5 71t68.5 30q41 0 69.5 -30t28.5 -71t-28.5 -69.5t-69.5 -28.5t-69.5 27.5t-28.5 70.5zM756 956q0 41 28.5 70t69.5 29t69.5 -29t28.5 -70t-28.5 -70.5t-69.5 -29.5t-69.5 29.5t-28.5 70.5z" />
<glyph unicode="&#xf8;" horiz-adv-x="1126" d="M-2 0l115 131q-86 139 -86 297q0 279 156.5 472.5t396.5 193.5q172 0 288 -97l95 111l63 -51l-104 -123q84 -117 84 -283q0 -307 -149.5 -493.5t-393.5 -186.5q-178 0 -297 99l-105 -121zM158 418q0 -103 39 -191l591 680q-90 84 -217 84q-182 0 -297.5 -163.5 t-115.5 -409.5zM244 160q84 -84 213 -84q182 0 301 162.5t119 410.5q0 100 -41 189z" />
<glyph unicode="&#xf9;" horiz-adv-x="1093" d="M43 248q0 59 14 125l148 690h121l-150 -709q-14 -63 -14 -104q0 -82 53 -125t150 -43q170 0 271 110.5t150 335.5l115 535h121l-225 -1063h-115l33 160q-174 -182 -375 -183q-139 0 -218 72t-79 199zM395 1548h150l221 -348h-88z" />
<glyph unicode="&#xfa;" horiz-adv-x="1093" d="M43 248q0 59 14 125l148 690h121l-150 -709q-14 -63 -14 -104q0 -82 53 -125t150 -43q170 0 271 110.5t150 335.5l115 535h121l-225 -1063h-115l33 160q-174 -182 -375 -183q-139 0 -218 72t-79 199zM520 1200l244 348h148l-299 -348h-93z" />
<glyph unicode="&#xfb;" horiz-adv-x="1093" d="M43 248q0 59 14 125l148 690h121l-150 -709q-14 -63 -14 -104q0 -82 53 -125t150 -43q170 0 271 110.5t150 335.5l115 535h121l-225 -1063h-115l33 160q-174 -182 -375 -183q-139 0 -218 72t-79 199zM369 1200l266 348h133l152 -348h-80l-146 248l-233 -248h-92z" />
<glyph unicode="&#xfc;" horiz-adv-x="1093" d="M43 248q0 59 14 125l148 690h121l-150 -709q-14 -63 -14 -104q0 -82 53 -125t150 -43q170 0 271 110.5t150 335.5l115 535h121l-225 -1063h-115l33 160q-174 -182 -375 -183q-139 0 -218 72t-79 199zM422 1278l35 162h143l-35 -162h-143zM746 1278l32 162h144l-35 -162 h-141z" />
<glyph unicode="&#xfd;" horiz-adv-x="890" d="M-106 -414l20 107q45 -6 72 -6q51 0 83.5 25.5t63.5 84.5l111 215l-215 1051h123l176 -901l456 901h127l-643 -1268q-61 -121 -115.5 -173t-152.5 -52q-45 0 -106 16zM419 1200l244 348h148l-299 -348h-93z" />
<glyph unicode="&#xfe;" horiz-adv-x="1179" d="M-109 -424l404 1897h125l-117 -545q137 158 342 157q188 0 301 -124.5t113 -331.5q0 -274 -150.5 -464t-382.5 -190q-279 0 -374 238l-136 -637h-125zM209 426q0 -162 80 -255t219 -93q178 0 298 157.5t120 405.5q0 160 -83.5 251t-226.5 91q-174 0 -290.5 -162 t-116.5 -395z" />
<glyph unicode="&#xff;" horiz-adv-x="890" d="M-106 -414l20 107q45 -6 72 -6q51 0 83.5 25.5t63.5 84.5l111 215l-215 1051h123l176 -901l456 901h127l-643 -1268q-61 -121 -115.5 -173t-152.5 -52q-45 0 -106 16zM321 1278l35 162h143l-35 -162h-143zM645 1278l32 162h144l-35 -162h-141z" />
<glyph unicode="&#x152;" horiz-adv-x="2158" d="M92 604q0 395 244 678q205 233 530 234q276 0 418 -205l35 162h838l-29 -121h-701l-108 -527h688l-25 -120h-690l-125 -590h793l-21 -115h-929l24 115q-166 -158 -389 -158q-254 0 -403.5 172t-149.5 475zM231 612q0 -252 117 -393t316 -141q229 0 405 207l182 870 q-123 242 -403 242q-266 0 -441.5 -222.5t-175.5 -562.5z" />
<glyph unicode="&#x153;" horiz-adv-x="1933" d="M27 424q0 283 155.5 472t397.5 189q289 0 387 -239q143 240 411 239q199 0 303.5 -113.5t104.5 -330.5q0 -78 -2 -123h-805q-6 -76 -6 -117q0 -156 80 -239.5t225 -83.5q121 0 206 63.5t126 184.5h121q-45 -170 -165 -263.5t-298 -93.5q-292 0 -396 244 q-139 -244 -423 -244q-195 0 -308.5 121t-113.5 334zM154 428q0 -162 85 -256t224 -94q170 0 289.5 162.5t119.5 402.5q0 164 -80.5 252t-232.5 88q-168 0 -286.5 -167t-118.5 -388zM999 616h668q2 16 2 50q0 147 -80 232t-219 85q-133 0 -228.5 -93.5t-142.5 -273.5z" />
<glyph unicode="&#x178;" horiz-adv-x="985" d="M53 1473h135l312 -701l440 701h150l-543 -850l-125 -623h-135l137 657zM457 1700l35 162h143l-35 -162h-143zM781 1700l32 162h144l-35 -162h-141z" />
<glyph unicode="&#x2c6;" horiz-adv-x="1024" d="M334 1200l266 348h133l152 -348h-80l-146 248l-233 -248h-92z" />
<glyph unicode="&#x2dc;" horiz-adv-x="1024" d="M354 1251q37 100 78 143.5t109 43.5q27 0 57 -11l92 -26q45 -12 58 -12q66 0 92 71h80q-35 -96 -78 -139t-113 -43q-23 0 -67 12l-95 29q-29 8 -45 8q-59 0 -88 -76h-80z" />
<glyph unicode="&#x2000;" horiz-adv-x="986" />
<glyph unicode="&#x2001;" horiz-adv-x="1972" />
<glyph unicode="&#x2002;" horiz-adv-x="986" />
<glyph unicode="&#x2003;" horiz-adv-x="1972" />
<glyph unicode="&#x2004;" horiz-adv-x="657" />
<glyph unicode="&#x2005;" horiz-adv-x="493" />
<glyph unicode="&#x2006;" horiz-adv-x="328" />
<glyph unicode="&#x2007;" horiz-adv-x="328" />
<glyph unicode="&#x2008;" horiz-adv-x="246" />
<glyph unicode="&#x2009;" horiz-adv-x="394" />
<glyph unicode="&#x200a;" horiz-adv-x="109" />
<glyph unicode="&#x2010;" horiz-adv-x="669" d="M33 471l22 119h498l-25 -119h-495z" />
<glyph unicode="&#x2011;" horiz-adv-x="669" d="M33 471l22 119h498l-25 -119h-495z" />
<glyph unicode="&#x2012;" horiz-adv-x="669" d="M33 471l22 119h498l-25 -119h-495z" />
<glyph unicode="&#x2013;" horiz-adv-x="1024" d="M-57 485l18 90h1024l-18 -90h-1024z" />
<glyph unicode="&#x2014;" horiz-adv-x="2048" d="M-57 485l18 90h2048l-18 -90h-2048z" />
<glyph unicode="&#x2018;" horiz-adv-x="497" d="M225 1053l37 178q27 135 69 196.5t144 83.5l-16 -71q-53 -23 -79 -70t-42 -139h70l-37 -178h-146z" />
<glyph unicode="&#x2019;" horiz-adv-x="497" d="M215 1012l16 73q53 23 79 70t42 139h-69l36 179h146l-37 -179q-27 -135 -69 -197.5t-144 -84.5z" />
<glyph unicode="&#x201a;" horiz-adv-x="497" d="M-39 -281l16 74q53 23 79 70t42 137h-69l37 180h145l-37 -180q-27 -135 -69 -196.5t-144 -84.5z" />
<glyph unicode="&#x201c;" horiz-adv-x="757" d="M223 1053l37 178q27 135 69 196.5t144 83.5l-16 -71q-53 -23 -79 -70t-42 -139h70l-37 -178h-146zM483 1053l37 178q27 135 69 196.5t144 83.5l-16 -71q-53 -23 -78 -70t-41 -139h68l-37 -178h-146z" />
<glyph unicode="&#x201d;" horiz-adv-x="757" d="M215 1012l16 73q53 23 79 70t42 139h-69l36 179h146l-37 -179q-27 -135 -69 -197.5t-144 -84.5zM475 1012l17 73q53 23 78.5 70t41.5 139h-69l37 179h147l-37 -179q-27 -135 -69.5 -197.5t-145.5 -84.5z" />
<glyph unicode="&#x201e;" horiz-adv-x="757" d="M-39 -281l16 74q53 23 79 70t42 137h-69l37 180h145l-37 -180q-27 -135 -69 -196.5t-144 -84.5zM221 -281l17 74q53 23 78.5 70t41.5 137h-69l37 180h147l-37 -180q-27 -133 -69.5 -195.5t-145.5 -85.5z" />
<glyph unicode="&#x2022;" horiz-adv-x="1208" d="M307 762q0 123 87 209t210 86q121 0 208 -86t87 -209q0 -121 -87 -209t-210 -88t-209 87t-86 210z" />
<glyph unicode="&#x2026;" horiz-adv-x="2048" d="M129 0l37 182h156l-39 -182h-154zM811 0l37 182h156l-39 -182h-154zM1495 0l37 182h156l-39 -182h-154z" />
<glyph unicode="&#x202f;" horiz-adv-x="394" />
<glyph unicode="&#x2039;" horiz-adv-x="466" d="M10 459l29 143l350 223l-31 -145l-258 -162l191 -162l-25 -114z" />
<glyph unicode="&#x203a;" horiz-adv-x="466" d="M-18 242l30 143l256 164l-188 160l24 114l256 -217l-30 -143z" />
<glyph unicode="&#x205f;" horiz-adv-x="493" />
<glyph unicode="&#x2122;" horiz-adv-x="1705" d="M274 1403v51h420v-51h-174v-479h-67v479h-179zM825 924v530h101l174 -440l162 440h102v-530h-59v479l-181 -479h-49l-190 479v-479h-60z" />
<glyph unicode="&#xe000;" horiz-adv-x="1064" d="M0 0v1065h1065v-1065h-1065z" />
<glyph unicode="&#xfb01;" horiz-adv-x="935" d="M25 0l204 967h-166l23 96h164l35 162q31 139 78 200.5t153 61.5q47 0 119 -17l-21 -102q-57 12 -86 12q-59 0 -82.5 -33.5t-42.5 -123.5l-32 -160h182l-18 -96h-185l-205 -967h-120zM510 0l225 1063h121l-225 -1063h-121zM774 1305l35 168h141l-35 -168h-141z" />
<glyph unicode="&#xfb02;" horiz-adv-x="929" d="M25 0l204 967h-166l23 96h164l35 162q31 139 78 200.5t153 61.5q47 0 119 -17l-21 -102q-57 12 -86 12q-59 0 -82.5 -33.5t-42.5 -123.5l-32 -160h182l-18 -96h-185l-205 -967h-120zM502 0l313 1473h121l-311 -1473h-123z" />
</font>
</defs>
</svg>
